<?xml version="1.0" encoding="UTF-8"?>
<svg width="1758.6" height="493.2" version="1.1" viewBox="0 0 1758.6 493.2" xmlns="http://www.w3.org/2000/svg">
 <path id="rect4789_00000023279678385123697860000008904562164264106648_" class="st0" d="m206.19 350.33h1346.1c39.44 0 71.413 31.973 71.413 71.413 0 39.44-31.973 71.368-71.368 71.368h-1346.1c-39.44 0-71.368-31.973-71.368-71.368 0.0458-39.44 31.973-71.413 71.368-71.413z" clip-rule="evenodd" fill="#034ea2" fill-rule="evenodd" stroke-width=".45807"/>
 <g transform="matrix(.45807 0 0 .45807 .0079903 .088595)" fill="#fdfdfd">
  <path class="st1" d="m907.1 849.5h60.8c35.9 0 59 18.4 59 49.9v0.4c0 33.5-25.7 51.1-61 51.1h-19.5v40.6h-39.3zm58 70.6c14 0 22.5-7.3 22.5-18.5v-0.4c0-12.2-8.5-18.7-22.7-18.7h-18.4v37.5z"/>
  <path class="st1" d="m1104.4 849.5h39.3v107.5h68.7v34.5h-108.1z"/>
  <path class="st1" d="m1339.1 848.5h37.9l60.4 142.9h-42.2l-10.3-25.3h-54.7l-10.1 25.3h-41.4zm34.5 87-15.8-40.4-16 40.4z"/>
  <path class="st1" d="m1530.8 938.3-53.9-88.8h44.8l29.2 51.7 29.4-51.7h44l-53.9 88.2v53.7h-39.5z"/>
  <path class="st1" d="m1803.4 970.4 21.9-26.2c14 11.2 29.6 17 46 17 10.5 0 16.2-3.6 16.2-9.7v-0.4c0-5.9-4.7-9.1-23.9-13.6-30.2-6.9-53.5-15.4-53.5-44.6v-0.4c0-26.4 20.9-45.4 54.9-45.4 24.1 0 43 6.5 58.4 18.9l-19.7 27.8c-13-9.1-27.2-14-39.7-14-9.5 0-14.2 4.1-14.2 9.1v0.4c0 6.5 4.9 9.3 24.5 13.8 32.6 7.1 52.9 17.6 52.9 44.2v0.4c0 29-22.9 46.2-57.4 46.2-25 0-49-7.9-66.4-23.5z"/>
  <path class="st1" d="m2042 938.3-53.9-88.8h44.8l29.2 51.7 29.4-51.7h44l-53.9 88.2v53.7h-39.5z"/>
  <path class="st1" d="m2190.6 970.4 21.9-26.2c14 11.2 29.6 17 46 17 10.5 0 16.2-3.6 16.2-9.7v-0.4c0-5.9-4.7-9.1-23.9-13.6-30.2-6.9-53.5-15.4-53.5-44.6v-0.4c0-26.4 20.9-45.4 54.9-45.4 24.1 0 43 6.5 58.4 18.9l-19.7 27.8c-13-9.1-27.2-14-39.7-14-9.5 0-14.2 4.1-14.2 9.1v0.4c0 6.5 4.9 9.3 24.5 13.8 32.6 7.1 52.9 17.6 52.9 44.2v0.4c0 29-22.9 46.2-57.4 46.2-25 0-48.9-7.9-66.4-23.5z"/>
  <path class="st1" d="m2425 884h-42.6v-34.5h124.5v34.5h-42.6v107.5h-39.3z"/>
  <path class="st1" d="m2585 849.5h114.2v33.5h-75.2v21.5h68.1v31h-68.1v22.5h76.2v33.5h-115.2z"/>
  <path class="st1" d="m2781 849.5h41.6l33.9 54.9 33.9-54.9h41.6v141.9h-39.1v-81.5l-36.3 55.6h-0.8l-36.1-55.2v81.1h-38.5v-141.9z"/>
 </g>
 <g fill="#231f20">
  <path class="st2" d="m690.46 76.861v109.43s73.704-30.691 73.704-74.024c0-53.549-73.704-35.409-73.704-35.409" stroke-width=".45807"/>
  <path class="st2" d="m1260.6 71.319c-32.157 0-75.307 18.918-75.307 94.5 0 75.582 38.432 94.5 75.307 94.5 36.829 0 76.086-23.637 76.086-94.5 0-70.864-43.929-94.5-76.086-94.5" stroke-width=".45807"/>
  <polyline class="st2" transform="matrix(.45807 0 0 .45807 .0079903 .088595)" points="887.6 363.5 1000.5 363.5 942.4 200.2 887.6 363.5"/>
  <path class="st2" d="m261.52 294.22h-81.583c-97.249 0-151.35-76.406-151.35-131.51 0-84.514 73.2-131.42 139.57-131.42 64.313 0 103.11 49.334 103.11 49.334l-44.296 46.678s-2.3362 1.191-4.3059 1.191-4.7181-1.9697-4.7181-1.9697l-5.4969-4.7181s-1.5574-0.36646-1.5574-1.9697c0-1.5574 4.3059-5.4969 4.3059-12.963 0-7.4666-1.5574-38.57-49.38-38.57-47.823 0-69.031 44.891-69.031 81.903s22.766 104.76 97.249 104.76c43.334 0 52.541-24.415 52.541-24.415h14.887v63.672zm319.14 0.77872h-98.44v-18.918s6.2756 0.77872 9.4363-4.7181c3.1607-5.4969 3.1607-9.8486 0.7787-15.345-2.3361-5.4969-18.827-49.243-18.827-49.243h-80.346s-16.491 44.067-18.048 48.052c-1.5574 3.9394-1.5574 10.261 0 14.154 2.611 6.5504 11.772 7.5124 11.772 7.5124v18.506h-78.788v-18.506s7.1459-2.4736 12.505-7.8788c5.9091-5.9091 7.833-12.185 7.833-12.185l79.979-218.13h67.062l81.537 214.15c2.3362 5.9091 6.3214 11.452 10.215 16.124 3.8936 4.7181 13.33 7.8788 13.33 7.8788zm186.62-100.82c-33.485 15.483-77.597 27.576-77.597 27.576v40.952s0.3665 2.7484 4.3059 7.5124c3.9394 4.7181 8.2453 5.9091 8.2453 5.9091v18.918h-90.973v-18.506s5.4969-1.191 9.4363-5.1304c3.9394-3.9394 4.7181-8.6576 4.7181-8.6576v-185.06s0.3665-7.8788-2.7484-11.04c-3.1607-3.1607-10.582-7.4666-10.582-7.4666v-20.888h125.47c46.265 0 92.531 16.536 92.531 70.085 0 53.549-33.76 72.421-62.802 85.797zm229.04-125.51c-47.823 0-69.032 44.891-69.032 81.903 0 37.012 22.766 104.76 97.249 104.76 43.379 0 52.541-24.415 52.541-24.415h14.887v63.718h-81.583c-97.249 0-151.35-76.361-151.35-131.51 0-84.514 73.2-131.42 139.57-131.42 64.313 0 103.11 49.334 103.11 49.334l-44.296 46.678s-2.3362 1.1452-4.3059 1.1452-4.7181-1.9697-4.7181-1.9697l-5.4969-4.7181s-1.5575-0.41227-1.5575-1.9697c0-1.5574 4.3059-5.4969 4.3059-12.963 0.046-7.4666-1.5116-38.57-49.334-38.57zm264.26 233.71c-84.698 0-145.58-62.115-145.58-137.7 0-75.582 62.435-134.17 145.58-134.17 83.094 0 145.58 58.587 145.58 134.17 0 75.582-60.878 137.7-145.58 137.7zm470.9-7.2375h-93.722v-17.04s8.2453-1.191 10.994-5.1304c2.7485-3.9394 3.9395-6.3214 3.1607-12.597-0.7787-6.3214-23.133-149.61-23.133-149.61l-40.814 126.75h-49.38l-40.402-118.87-20.384 140.12s-0.7787 8.4285 2.382 13.009c4.3058 6.3214 12.139 6.3214 12.139 6.3214v16.949h-81.17v-18.14s6.4588-1.0078 11.177-6.4588c4.7181-5.4969 5.4968-12.597 5.4968-12.597l29.592-184.88s1.7407-6.8711-0.1832-10.032c-2.0614-3.2981-13.147-6.0924-13.147-6.0924v-18.323h93.355l33.714 104.58 36.05-104.76h97.661v15.345s-6.5505 2.7484-9.4363 6.3214c-3.5272 4.3059-3.5272 7.4666-2.7485 13.788 0.7788 6.3214 25.881 177.18 26.66 183.46 0.7787 6.3214 1.5575 9.8486 3.1149 14.2 1.5575 4.3059 9.024 7.833 9.024 7.833z" stroke-width=".45807"/>
 </g>
 <g fill="#fff">
  <path class="st1" d="m690.46 76.861v109.43s73.704-30.691 73.704-74.024c0-53.549-73.704-35.409-73.704-35.409" stroke-width=".45807"/>
  <path class="st1" d="m1260.6 71.319c-32.157 0-75.307 18.918-75.307 94.5 0 75.582 38.432 94.5 75.307 94.5 36.829 0 76.086-23.637 76.086-94.5 0-70.864-43.929-94.5-76.086-94.5" stroke-width=".45807"/>
  <polyline class="st1" transform="matrix(.45807 0 0 .45807 .0079903 .088595)" points="887.6 363.5 1000.5 363.5 942.4 200.2 887.6 363.5"/>
 </g>
 <path class="st3" d="m310.9 79.243-83.14 88.179-54.877-37.791s18.048-17.315 1.5574-29.912c-12.872-9.8027-48.876 11.04-47.365 51.991 1.8323 47.227 30.92 73.979 63.031 73.979 29.775 0 37.608-24.14 37.608-24.14h66.833v55.656l93.996-248.87h107.42l86.255 223.63s6.2756 11.818 12.551 14.979c0 0 0.3665-146.72 0.3665-150.84 0-4.1226-0.5497-8.6576-3.1149-11.589-4.2143-4.9014-11.36-6.8711-11.36-6.8711v-69.306h150.57c78.056 0 98.119 21.3 120.75 62.206 31.286-42.28 74.299-70.085 135.68-70.085 63.168 0 107.83 23.362 133.34 62.206 35.638-42.738 92.989-62.573 145.48-62.573 64.496 0 118.37 31.332 146.26 79.934v-71.688h145.07l15.3 38.982 11.36-38.982h149.79v67.703c-10.582 5.1304-14.842 10.352-12.964 22.446l20.934 133.85c0.8704 4.3517 2.382 8.8866 6.1382 12.231 4.3517 3.8936 10.215 3.1607 10.215 3.1607v77.185h-150.57v-58.313h-86.301v58.45h-141.54v-37.974s-51.716 45.67-118.41 45.67c-85.293 0-142.32-62.985-142.32-62.985v55.106h-100.41c-89.324 0-166.01-49.105-187.44-138.57-10.169 9.7111-54.923 41.822-108.61 53.915-4.1685 0.91614-6.2756 2.5194-6.2756 7.1001 0 8.2911 17.682 11.223 17.682 11.223v66.329h-550.51c-101.97 0.0458-183.87-70.039-183.87-159s63.855-164.63 169.72-164.63c101.19 0 141.18 78.01 141.18 78.01" fill="#034ea2" stroke-width=".45807"/>
 <g fill="#ffcb04" stroke-width=".45807">
  <path class="st4" d="m408.52 38.246h67.062l81.583 214.19c2.3362 5.9091 6.2756 11.406 10.215 16.124 3.8936 4.7181 13.33 7.8788 13.33 7.8788v18.506h-98.44v-18.918s6.2756 0.82453 9.4363-4.7181c3.1607-5.4969 3.1607-9.8486 0.7788-15.345-2.3362-5.4969-18.827-49.243-18.827-49.243h-80.392s-16.491 44.112-18.048 48.052c-1.5574 3.9394-1.5574 10.261 0 14.154 2.611 6.5504 11.772 7.5124 11.772 7.5124v18.506h-78.788v-18.506s7.1459-2.4736 12.505-7.8788c5.9091-5.9091 7.8788-12.231 7.8788-12.231l79.934-218.09m-1.9239 128.35h51.762l-26.66-74.803z"/>
  <path class="st4" d="m612.04 38.246h125.47c46.265 0 92.531 16.536 92.531 70.085 0 53.549-33.714 72.421-62.756 85.797-33.485 15.483-77.643 27.576-77.643 27.576v40.906s0.3665 2.7484 4.3059 7.5124c3.8936 4.7181 8.2453 5.9091 8.2453 5.9091v18.918h-90.973v-18.506s5.4969-1.191 9.4363-5.1304 4.7181-8.6576 4.7181-8.6576v-185.06s0.3665-7.8788-2.7484-11.04c-3.1607-3.1607-10.582-7.4666-10.582-7.4666v-20.842m78.422 38.615v109.43s73.704-30.691 73.704-74.024c0-53.549-73.704-35.409-73.704-35.409z"/>
  <path class="st4" d="m1260.6 302.37c-84.698 0-145.58-62.115-145.58-137.7 0-75.582 62.435-134.22 145.58-134.22 83.14 0 145.58 58.587 145.58 134.22 0 75.628-60.878 137.7-145.58 137.7m-75.261-136.51c0 75.582 38.432 94.5 75.307 94.5 36.829 0 76.086-23.637 76.086-94.5 0-70.864-43.929-94.5-76.086-94.5-32.202 0-75.307 18.873-75.307 94.5z"/>
  <path class="st4" d="m1444.1 38.429h93.309l33.714 104.58 36.05-104.76h97.615v15.345s-6.5046 2.7484-9.4362 6.3214c-3.5272 4.3059-3.5272 7.5124-2.7485 13.788 0.7787 6.3214 25.881 177.18 26.66 183.46 0.7787 6.3214 1.6033 9.8485 3.1607 14.2 1.5574 4.3059 9.024 7.8788 9.024 7.8788v15.849h-93.722v-17.04s8.2453-1.191 10.948-5.1304c2.7485-3.9394 3.9394-6.3214 3.1149-12.597-0.7787-6.3214-23.133-149.61-23.133-149.61l-40.768 126.79h-49.38l-40.402-118.92-20.384 140.17s-0.7787 8.3827 2.3361 12.963c4.3059 6.3214 12.139 6.3214 12.139 6.3214v16.903h-81.17v-18.094s6.4588-1.0078 11.177-6.5046c4.7181-5.4969 5.4968-12.597 5.4968-12.597l29.592-184.83s1.7864-6.9169-0.1833-10.032c-2.0613-3.2981-13.147-6.1382-13.147-6.1382v-18.323"/>
  <path class="st4" d="m271.28 80.572-43.746 46.082c-2.2904 2.4278-6.0924 2.6568-8.6576 0.54969l-7.4208-6.0924c-0.32065-0.27484-0.50388-0.73291-0.50388-1.3284 0-1.5574 4.3059-5.4969 4.3059-12.963 0-7.5124-1.5574-38.57-49.38-38.57s-69.031 44.891-69.031 81.903c0 37.012 22.766 104.76 97.249 104.76 43.334 0 52.541-24.415 52.541-24.415h14.887v63.672h-81.583c-97.249 0-151.35-76.361-151.35-131.47 0-84.514 73.2-131.42 139.57-131.42 64.313 0 103.11 49.289 103.11 49.289"/>
  <path class="st4" d="m1101.8 81.03-43.746 46.082c-2.2904 2.4278-6.0924 2.6568-8.6576 0.54969l-7.4208-6.0924c-0.3206-0.27484-0.5038-0.73291-0.5038-1.3284 0-1.5574 4.3058-5.4969 4.3058-12.963 0-7.5124-1.5574-38.57-49.38-38.57-47.823 0-69.032 44.891-69.032 81.903 0 37.012 22.766 104.76 97.249 104.76 43.334 0 52.541-24.415 52.541-24.415h14.887v63.672h-81.583c-97.249 0-151.35-76.361-151.35-131.51 0-84.514 73.2-131.42 139.57-131.42 64.267 0.04581 103.11 49.334 103.11 49.334"/>
 </g>
</svg>
