<?xml version="1.0" encoding="UTF-8"?>
<!-- Generator: Adobe Illustrator 19.0.0, SVG Export Plug-In . SVG Version: 6.00 Build 0)  -->
<svg width="1240" height="458.9" version="1.1" viewBox="23.6 167.1 1240 458.9" xml:space="preserve" xmlns="http://www.w3.org/2000/svg" xmlns:cc="http://creativecommons.org/ns#" xmlns:dc="http://purl.org/dc/elements/1.1/" xmlns:rdf="http://www.w3.org/1999/02/22-rdf-syntax-ns#"><metadata><rdf:RDF><cc:Work rdf:about=""><dc:format>image/svg+xml</dc:format><dc:type rdf:resource="http://purl.org/dc/dcmitype/StillImage"/></cc:Work></rdf:RDF></metadata>

<g transform="translate(-280.7 10.82)"><g transform="matrix(.94529 0 0 .94529 -270.08 9.1423)">
	
		<path d="m1205.8 349.8c0.1-1.4 0-2.7 0-3.9v-77.5c0-1.3-0.1-2.7-0.4-4-7.5-28-20.9-52.4-43.3-71.2-18.4-15.5-39.4-24.1-63.7-24.1h-192.1-258.5c-1.6 0-3.2-0.1-4.9 0v58.7c1.2 0.5 2.3 0.9 3.3 1.3 7.9 2.5 15.8 5 23.8 7.5 79.8 25.3 159.6 50.5 239.5 75.8 37.7 11.9 75.4 23.9 113.1 35.8 2.4 0.7 4.9 1.4 7.3 1.4 57.3 0.1 114.7 0.1 172 0.1 1.2 0.1 2.6 0.2 3.9 0.1zm-222.2-3.8c-51.4-16.3-102.4-32.5-154-48.8v226.7c-22.2 11.2-44.1 22.3-65.9 33.2v66.9h269.5v-130h-49.6v-148zm17.4 17.8v114h204.5v-114h-204.5z" fill="#cf8a61"/>
		<path d="m1035.2 626h-273.5v-70.1l65.9-33.2v-228.2l158 50.1v147.4h49.6zm-269.5-4h265.5v-126h-49.6v-148.5l-150.1-47.6v225.2l-65.9 33.2zm441.9-142.2h-208.5v-118h208.5zm-204.6-4h200.6v-110h-200.6zm201.5-124h-1.4-1.1-8.1-59.7c-41.7 0-73.8 0-104.3-0.1-2.7 0-5.4-0.7-7.9-1.5l-72.9-23.1c-13.4-4.2-26.8-8.5-40.2-12.7-56.3-17.8-112.6-35.7-168.9-53.5l-74.2-23.5c-6.7-2.1-13.4-4.2-20.1-6.4-0.8-0.3-1.6-0.6-2.3-0.9-0.4-0.1-0.7-0.3-1.1-0.4l-1.3-0.5v-61.9l1.9-0.1c1.2-0.1 2.3 0 3.4 0h1.5 218 151.4 81.1c23.8 0 45.7 8.3 65 24.6 21.4 18.1 35.8 41.7 43.9 72.2 0.4 1.6 0.5 3.3 0.5 4.5v77.5 1.1c0 0.9 0.1 1.9 0 2.9l-0.1 1.7-1.7 0.1h-1.4zm-2.5-4h1.2 0.7v-0.7-1.2-77.5c0-1 0-2.3-0.3-3.5-7.9-29.7-21.9-52.7-42.7-70.2-18.6-15.7-39.6-23.6-62.4-23.6h-81.2-151.4-218-1.6-1.3v55.4c0.7 0.3 1.3 0.5 2 0.7 6.7 2.1 13.4 4.3 20.1 6.4l74.2 23.5c56.3 17.8 112.6 35.7 168.9 53.5 13.4 4.2 26.8 8.5 40.2 12.7l72.9 23.1c2.2 0.7 4.6 1.3 6.7 1.4 30.5 0 62.6 0.1 104.3 0.1h59.7z"/>
	
	
		<path d="m1205.8 349.8-178.8-0.1-384.1-121.7v-58.9c1.7-0.1 177.2 0 263.4 0h192.1c24.3 0 45.4 8.6 63.7 24.1 22.4 18.9 35.8 43.2 43.3 71.2 0.3 1.3 0.4 2.7 0.4 4 0.1 25.9 0 81.4 0 81.4z" fill="#cf8a61"/>
		<path d="m1207.8 351.8-181.1-0.1-0.3-0.1-385.5-122.2v-62.2l1.9-0.1h58 106.6 98.9 110.9 81.1c23.8 0 45.7 8.3 65 24.6 21.4 18.1 35.8 41.7 43.9 72.2 0.4 1.6 0.5 3.3 0.5 4.5v81.3zm-180.4-4.1 176.5 0.1v-79.4c0-1 0-2.3-0.3-3.5-7.9-29.7-21.9-52.7-42.7-70.2-18.6-15.7-39.6-23.6-62.4-23.6h-81.2-110.9-98.9-106.6-55.9v55.5z"/>
	
	
		<path d="m983.6 346v148h49.6v130h-269.5v-66.9c21.7-11 43.6-22 65.9-33.2v-226.7c51.6 16.4 102.6 32.5 154 48.8z" fill="#cf8a61"/>
		<path d="m1035.2 626h-273.5v-70.1l65.9-33.2v-228.2l158 50.1v147.4h49.6zm-269.5-4h265.5v-126h-49.6v-148.5l-150.1-47.6v225.2l-65.9 33.2z"/>
	
	
		<path d="m1001 363.8h204.5v114h-204.5v-114z" fill="#cf8a61"/>
		<path d="m1207.6 479.8h-208.5v-118h208.5zm-204.6-4h200.6v-110h-200.6z"/>
	
</g><g transform="matrix(1.0947 0 0 .91348 77.5 -1.5073)" fill="#0f0f0f" stroke-width="2.0519" aria-label="FinalBurn"><path d="m812.95 278.24h44.999v20.448h-18.429v19.375h16.409v19.438h-16.409v42.916h-26.57z"/><path d="m889.88 278.24v13.317h-26.254v-13.317zm0 18.429v83.749h-26.254v-83.749z"/><path d="m924.97 296.67-0.44178 7.6996q2.7769-4.6071 6.7529-6.8792 4.0391-2.3351 9.2774-2.3351 6.5636 0 10.729 3.0925 4.1654 3.0925 5.3645 7.8258 1.1991 4.6702 1.1991 15.652v58.694h-25.497v-57.999q0-8.6463-0.56801-10.54-0.568-1.8934-3.1556-1.8934-2.7138 0-3.408 2.2089-0.69423 2.1458-0.69423 11.613v56.611h-25.497v-83.749z"/><path d="m989.41 329.11h-23.919v-5.6169q0-9.7192 2.2089-14.957 2.272-5.3014 9.0249-9.3405 6.7529-4.0391 17.545-4.0391 12.938 0 19.501 4.6071 6.5636 4.544 7.8889 11.234 1.3254 6.6267 1.3254 27.39v42.032h-24.803v-7.4472q-2.3351 4.4809-6.0587 6.7529-3.6605 2.2089-8.7725 2.2089-6.6898 0-12.307-3.7236-5.5538-3.7867-5.5538-16.472v-6.8792q0-9.4036 2.9662-12.812 2.9662-3.408 14.705-7.952 12.559-4.9227 13.443-6.6267t0.88356-6.9423q0-6.5636-1.0098-8.5201-0.94668-2.0196-3.2187-2.0196-2.5876 0-3.2187 1.704-0.63111 1.6409-0.63111 8.6463zm8.0783 11.486q-6.1218 4.4809-7.1316 7.5103-0.94667 3.0294-0.94667 8.7094 0 6.5005 0.82045 8.3938 0.88356 1.8933 3.408 1.8933 2.3982 0 3.0925-1.4516 0.75734-1.5147 0.75734-7.8258z"/><path d="m1058 278.24v102.18h-26.254v-102.18z"/><path d="m1067.9 278.24h26.507q12.559 0 18.997 1.9565 6.5004 1.9565 10.476 7.952 3.976 5.9325 3.976 19.186 0 8.9618-2.84 12.496-2.7769 3.5342-11.044 5.4276 9.2142 2.0827 12.496 6.9423 3.2818 4.7965 3.2818 14.768v9.4667q0 10.35-2.3982 15.336-2.3351 4.9858-7.5103 6.816-5.1751 1.8302-21.205 1.8302h-30.735zm26.57 17.482v22.72q1.704-0.0631 2.6507-0.0631 3.9129 0 4.9858-1.8934 1.0729-1.9565 1.0729-11.045 0-4.7965-0.8836-6.6898-0.8835-1.9564-2.3351-2.4613-1.3884-0.5049-5.4907-0.56801zm0 38.624v28.59q5.6169-0.18933 7.1316-1.7671 1.5778-1.5778 1.5778-7.7627v-9.5298q0-6.5636-1.3885-7.952-1.3884-1.3885-7.3209-1.5778z"/><path d="m1196.9 296.67v83.749h-25.939l0.4417-6.9423q-2.6506 4.2285-6.5636 6.3743-3.8498 2.0827-8.8987 2.0827-5.7431 0-9.5298-2.0196t-5.6169-5.3645q-1.7672-3.3449-2.2089-6.9423-0.4418-3.6605-0.4418-14.453v-56.485h25.497v56.99q0 9.7823 0.568 11.613 0.6311 1.8302 3.2818 1.8302 2.84 0 3.3449-1.8933 0.568-1.8934 0.568-12.181v-56.359z"/><path d="m1231.6 296.67-1.0098 10.981q5.5539-11.802 16.094-12.496v29.473q-7.0054 0-10.287 1.8933-3.2818 1.8934-4.0391 5.3014-0.7574 3.3449-0.7574 15.525v33.07h-25.497v-83.749z"/><path d="m1278.3 296.67-0.4418 7.6996q2.7769-4.6071 6.753-6.8792 4.0391-2.3351 9.2774-2.3351 6.5636 0 10.729 3.0925 4.1654 3.0925 5.3645 7.8258 1.1991 4.6702 1.1991 15.652v58.694h-25.497v-57.999q0-8.6463-0.568-10.54-0.568-1.8934-3.1556-1.8934-2.7138 0-3.408 2.2089-0.6943 2.1458-0.6943 11.613v56.611h-25.497v-83.749z"/></g><g transform="scale(1.0947 .91348)" stroke-width="1.524" aria-label="Neo"><path d="m1017 426.85v231.32h-52.723l-31.291-105.16v105.16h-50.294v-231.32h50.294l33.72 104.16v-104.16z"/><path d="m1170.2 566.73h-74.726v41.006q0 12.859 1.8575 16.574 1.8574 3.7149 7.1439 3.7149 6.5725 0 8.7157-4.8579 2.2861-5.0008 2.2861-19.146v-25.004h54.723v14.002q0 17.574-2.2861 27.004-2.1432 9.43-10.287 20.146t-20.718 16.145q-12.43 5.2865-31.291 5.2865-18.289 0-32.291-5.2865t-21.86-14.431q-7.7155-9.2872-10.716-20.289-3.0005-11.145-3.0005-32.291v-55.294q0-24.861 6.7154-39.149 6.7153-14.431 22.003-22.003 15.288-7.7155 35.148-7.7155 24.29 0 40.006 9.2872 15.86 9.1443 22.146 24.432 6.4296 15.145 6.4296 42.721zm-57.866-30.862v-13.859q0-14.717-1.5717-19.003-1.5716-4.2864-6.4295-4.2864-6.001 0-7.4298 3.7149-1.4288 3.572-1.4288 19.574v13.859z"/><path d="m1319.6 535.15v46.436q0 25.575-2.5719 37.577-2.5718 11.859-11.002 22.289-8.4299 10.287-21.718 15.288-13.145 4.8579-30.29 4.8579-19.146 0-32.434-4.1435-13.288-4.2864-20.718-12.716-7.2868-8.5728-10.43-20.575-3.1433-12.145-3.1433-36.291v-48.579q0-26.433 5.7152-41.292 5.7152-14.859 20.575-23.861 14.86-9.0014 38.006-9.0014 19.432 0 33.291 5.8581 14.002 5.7152 21.575 15.002t10.287 19.146q2.8576 9.8587 2.8576 30.005zm-57.723-14.288q0-14.574-1.5717-18.289-1.5717-3.8578-6.7153-3.8578-5.1437 0-6.8582 3.8578-1.7146 3.7149-1.7146 18.289v85.585q0 13.431 1.7146 17.574 1.7145 4.0006 6.7153 4.0006 5.1437 0 6.7153-3.7149 1.7146-3.7149 1.7146-16.002z"/></g></g></svg>
