<?xml version="1.0" encoding="UTF-8"?>
<svg width="1093.8" height="295.9" version="1.1" viewBox="0 0 1093.8 295.9" xml:space="preserve" xmlns="http://www.w3.org/2000/svg" xmlns:cc="http://creativecommons.org/ns#" xmlns:dc="http://purl.org/dc/elements/1.1/" xmlns:rdf="http://www.w3.org/1999/02/22-rdf-syntax-ns#"><metadata><rdf:RDF><cc:Work rdf:about=""><dc:format>image/svg+xml</dc:format><dc:type rdf:resource="http://purl.org/dc/dcmitype/StillImage"/></cc:Work></rdf:RDF></metadata><defs><clipPath id="clipPath22"><path d="m0 236.72h875.06v-236.72h-875.06v236.72z"/></clipPath></defs><g transform="matrix(1.25 0 0 -1.25 0 295.9)"><g transform="translate(785.54 162.99)"><path d="m0 0v-66.47h-60.73v-30.051h60.73v-66.471h28.795v66.471h60.729v30.051h-60.729v66.47h-28.795z" fill="#221f1f"/></g><path d="m0 0h584.51v236.72h-584.51v-236.72z" fill="#221f1f"/><g clip-path="url(#clipPath22)"><g transform="translate(538.26 203.4)"><path d="m0 0-55.568-81.16 60.44-88.672h-55.813l-33.213 47.47-33.48-47.584h-55.446c1.506 3.126 60.695 88.786 60.695 88.786l-25.228 35.099-107.02-0.122c-4.991-0.394-11.11 1.121-13.614-4.509-0.876-1.865-1.252-4.614-0.246-6.496 0.867-2.119 2.872-4.115 5.113-4.737l3.371-0.254h42.837c19.848-0.499 38.216-12.852 46.822-30.713 7.626-14.989 6.501-35.467-1.996-49.711-10.734-18.097-29.846-28.218-50.569-27.474h-119.14s-18.237 65.821-18.36 65.935l-18.359-65.935-43.452-8e-3 -17.484 66.197-19.112-66.058h-48.074s44.204 159.09 47.076 169.59h40.597l19.104-70.934 19.48 70.934 39.836 9e-3 34.092-123.53h79.425c5.48 0.262 13.106-1.234 15.356 5.498 0.876 3.012 0.132 6.129-1.996 8.248-2.005 1.751-4.5 2.241-7.118 2.241l-42.705 8e-3c-20.233 0.622-40.335 13.86-47.829 33.331-8.117 19.489-3.371 42.848 11.486 57.933 10.489 10.515 22.974 15.759 37.595 16.381l140.11 0.122 28.231-40.702 29.207 40.825 54.947-9e-3z" fill="#fff"/></g><g transform="translate(653.68 33.258)"><path d="m0 0c2.856 20.12 54.579 32.427 54.579 76.371 0 41.86-29.125 52.521-54.579 52.521-25.445 0-52.563-19.28-52.563-50.9v-11.904h38.197v8.62c0 10.874 5.327 17.666 14.778 17.666s13.936-5.557 13.936-16.835c0-25.454-43.104-35.719-61.148-67.752-7.736-13.67-8.225-41.045-8.225-41.045h107.16v33.258h-52.135z" fill="#221f1f"/></g></g></g></svg>
