<?xml version="1.0" encoding="UTF-8"?>
<!-- Generator: Adobe Illustrator 19.0.0, SVG Export Plug-In . SVG Version: 6.00 Build 0)  -->
<svg width="180" height="66.4" version="1.1" viewBox="-101.7 363.6 180 66.4" xml:space="preserve" xmlns="http://www.w3.org/2000/svg" xmlns:cc="http://creativecommons.org/ns#" xmlns:dc="http://purl.org/dc/elements/1.1/" xmlns:rdf="http://www.w3.org/1999/02/22-rdf-syntax-ns#"><metadata><rdf:RDF><cc:Work rdf:about=""><dc:format>image/svg+xml</dc:format><dc:type rdf:resource="http://purl.org/dc/dcmitype/StillImage"/></cc:Work></rdf:RDF></metadata>
<rect x="-362.7" y="727.2" width="172.5" height="66.4" fill="none"/>
<g transform="translate(-35.238 -.011699)">
	<g transform="translate(44.717 52.979)">
		<path d="m-51.5 310.8 6.1 6.8v8.2h-8.7v-5.9h-6.9v9.7h2.1v8.7h-5c-0.2 0-0.3-0.2-0.4-0.3-2-2.1-4.1-4.1-6-6.2v-13.9l6.2-7.1z" fill="#0a93b2"/>
	</g>
	<g transform="translate(52.26 20.169)">
		<path d="m-49.6 384.6c0-13.7 0-27.4-0.1-41h9.4c0 13 0 26.1 0.1 39.1h2.6v8.9h-4.8c-0.2 0-0.3-0.1-0.4-0.2z" fill="#0a93b2"/>
	</g>
	<g transform="translate(65.648 53.015)">
		<path d="m-46.3 310.7h9.4c0 13.7 0.1 27.4 0.1 41.1-2.2 2.4-4.6 4.6-6.8 7h-5v-8.9h2.5c-0.2-13.1-0.2-26.1-0.2-39.2" fill="#0a93b2"/>
	</g>
	<g transform="translate(75.558 53.032)">
		<path d="m-43.8 310.7h9.4c0 16 0.1 32 0.1 48h-9.4c-0.1-16-0.1-32-0.1-48" fill="#0a93b2"/>
	</g>
	<g transform="translate(90.403 53.056)">
		<path d="m-40.1 310.6c2.3 2.3 4.6 4.5 6.8 6.7v18.2l-6.8 6.8h-6.7v-9.1h4v-13.5h-4v-9.1z" fill="#0a93b2"/>
	</g>
	<g transform="translate(98.308 53.071)">
		<path d="m-38.1 310.6h20.6v9.1h-11.2c0 9.9 0 19.9 0.1 29.8h11.2v9.1h-20.6c-0.1-16-0.1-32-0.1-48" fill="#0a93b2"/>
	</g>
	<g transform="translate(117.31 53.104)">
		<path d="m-33.4 310.5h9.4c0 16 0.1 32 0.1 48h-9.4c0-16-0.1-32-0.1-48" fill="#0a93b2"/>
	</g>
	<g transform="translate(133.45 33.804)">
		<path d="m-29.4 353.9 5.7 5.7c0.1 6.1 0 12.1 0 18.2h-9.5v-19.2h-4.7v-9.1h4.7v-10.6h-4.7v-9.1h7.3l6.9 6.9v11.3z" fill="#0a93b2"/>
	</g>
	<g transform="translate(107.84 38.528)">
		<path d="m-35.8 343.3h6.8v9.1h-6.8c0.1-3 0.1-6.1 0-9.1" fill="#0a93b2"/>
	</g>
	<g transform="translate(44.657 14.564)">
		<path d="m-51.5 397.2h-12.7l-6.1-6.8v-8.2h8.7v5.9h6.9v-11.3h-1.6v-8.7h4.5c0.2 0 0.3 0.1 0.4 0.2 2 2.1 4 4.1 6 6.1 0.1 0.1 0.2 0.2 0.1 0.4v15.3z" fill="#0a93b2"/>
	</g>
	<g transform="translate(58.359 .0198)">
		<path d="m-48.1 430h-14.3c-0.9 0-1.9-0.3-2.6-0.9-0.5-0.4-0.7-1.1-0.7-1.7v-8.5c0-1 0.8-1.9 1.7-2.2 0.7-0.3 1.4-0.3 2.1-0.3h13.8v2.5h-14.4v8.6h11.3v-3h-5.4v-2.5h8.6z" fill="#0a93b2"/>
	</g>
	<g transform="translate(63.297 8.9267)">
		<path d="m-46.9 409.9v3h10.7v-3h-10.7m-3.2-2.5h13.8c1.2 0 2.4 0.5 3 1.5 0.3 0.6 0.3 1.3 0.3 1.9v2.4c-0.1 1-0.9 1.7-1.8 2-0.9 0.4-1.9 0.2-2.9 0.3l5 5.5h-3.9c-1.7-1.9-3.3-3.7-5-5.6h-5.3v5.6h-3.2c0.1 0 0-13.6 0-13.6z" fill="#0a93b2"/>
	</g>
	<g transform="translate(88.591 .0718)">
		<path d="m-40.6 429.8c-1.8-3.7-3.7-7.4-5.5-11.1h-1.4c-1.8 3.7-3.6 7.4-5.5 11.1h-3.7c2.2-4.6 4.5-9.1 6.7-13.7h6.3c2.2 4.5 4.5 9.1 6.8 13.6z" fill="#0a93b2"/>
	</g>
	<g transform="translate(92.717 10.999)">
		<path d="m-39.5 405.3h16.1v2.5h-12.9v3h11.3v2.5h-11.3v5.6h-3.2v-13.6" fill="#0a93b2"/>
	</g>
	<g transform="translate(121.84 .1357)">
		<path d="m-32.3 429.7h-4.6c-1.7-1.6-3.3-3.2-5-4.8-1.7 1.6-3.3 3.3-4.9 4.8h-4.6l7.1-7.3c-2.2-2.1-4.3-4.2-6.5-6.4h4.7l4.3 4.2c1.5-1.4 2.8-2.8 4.3-4.2h4.6c-2.2 2.2-4.4 4.3-6.5 6.5z" fill="#0a93b2"/>
	</g>
	<g transform="translate(5.9731 44.684)">
		<path d="m-61.2 329.5v-0.1c1.9-3.9 4.1-5.9 6.4-5.9 1.9 0.1 3.7 1.6 5.2 4.4 1.4 2.7 2.5 6.5 3.3 11 0 0.1-0.1 0.3-0.2 0.3s-0.3-0.1-0.3-0.2c-1.4-9.1-4.5-14.8-7.9-15-2-0.1-4.1 1.9-5.9 5.6-0.1 0.1-0.2 0.2-0.4 0.1-0.2 0-0.2-0.1-0.2-0.2" fill="#0a93b2"/>
	</g>
	<g transform="translate(17.288 17.378)">
		<path d="m-58.4 390.9c0.5-2.9 0.8-6 0.9-9.1 0-0.2 0.1-0.3 0.3-0.3s0.3 0.1 0.3 0.3c-0.1 3.1-0.5 6.2-0.9 9.1 0 0.2-0.2 0.3-0.3 0.2-0.2 0-0.3-0.1-0.3-0.2" fill="#0a93b2"/>
	</g>
	<g transform="translate(2.4467 24.271)">
		<path d="m-62.1 375.4v-0.2-0.3 0.3c0 0.1 0.2 0.2 0.2 0.2 0 14.7 3.9 26.3 8.9 26.4 1.7 0 3.5-1.3 5.1-4s2.9-6.5 3.9-11c0-0.1 0.2-0.2 0.3-0.2s0.2 0.2 0.2 0.3c-1 4.6-2.3 8.5-3.9 11.2-1.7 2.9-3.6 4.3-5.5 4.3-2.6-0.1-4.9-3-6.6-8.1-1.8-5-2.6-11.7-2.6-18.9" fill="#0a93b2"/>
	</g>
	<g transform="translate(13.712 20.31)">
		<path d="m-59.3 384.3 5.5 7.2-3.4-8.5 2.5-2.4-3.5 0.8-5.5-7.2 3.4 8.5-2.5 2.4z" fill="#0a93b2"/>
	</g>
	<g transform="translate(15.986 33.948)">
		<path d="m-58.7 353.6 3.1 0.6 0.3 2.1c0 0.3-0.1 0.4-0.4 0.4l-2.1-0.4c-0.3-0.1-0.5-0.3-0.6-0.5zm-8.8 24.3 3.1 0.6c1 0.2 2 1.2 2.1 2.2l0.6 3.9c0.1 0.7-0.6 1.1-1.4 1l-1-0.2c-0.7-0.1-1.5-0.9-1.6-1.5l-0.7-4.1-0.4-0.1c-0.4-0.1-0.7 0.2-0.7 0.6l0.7 4.6-1.7-0.3-0.8-5.1c0.2-1 0.9-1.8 1.8-1.6m3.2-10.2 0.3 1.6-6.8-1.2-0.3-1.7zm-8.3-10.9-0.3-1.7 4.4 0.8c0.5 0.1 0.7-0.1 0.6-0.6l-0.5-2.9-5.2-1-0.3-1.7 6.8 1.2 0.9 5.6c0.1 0.8-0.4 1.3-1.3 1.1 0.2 0.2-5.1-0.8-5.1-0.8zm0.4-8-1.8-0.3-1.1-7 11.8 2.2 0.9 5.8-1.6-0.3-0.7-4.1-3.4-0.6 0.5 3.4-1.6-0.3-0.5-3.4-3.4-0.6c0.1-0.2 0.9 5.2 0.9 5.2zm1.3 0.2-0.6-4 0.8 0.1 0.5 3.2 4.2 0.8-0.5-3.2 0.8 0.1 0.6 4c0 0.1-5.8-1-5.8-1zm-2.8 8.8h0.1c0 0.1-0.1 0.3 0 0.4l0.5 3.3c-0.7-0.1-0.8-1-1-2.3l-0.2-1.5-4.4-0.8 0.3 2c0.5 4.9 3 6.7 6 7.3l1 5.9 5.2 0.9 0.1 0.5c0.1 0.5 0.2 0.5-0.4 0.4l-4.7-0.9 0.7 4.3 0.3 0.1c-0.1 0.3-0.2 0.7-0.1 1.1l1.2 7.4 3.7 0.7 0.3-0.5c0.5 0.4 1.1 0.7 1.6 0.8l0.6 0.1c2.2 0.4 2.8-1.7 2.6-2.6l-0.7-4.2c-0.1-0.8-0.6-1.6-1.3-2.2 0.5-0.6 0.8-1.4 0.7-1.9l-0.8-4.7-1.2 0.5 0.7 4.3c0.1 0.6-0.1 1-0.6 1.1-0.1 0-5.9-1.1-5.9-1.1l-0.2-1.5 4.4 0.8c0.6 0.1 0.7-0.1 0.6-0.6l-0.5-2.9-5.2-1-0.3-1.7 5.9 1.1 1.6-1.4-1.8-5 0.4 2.4-8.1-1.5c-2.1-0.4-4-2.6-4.3-4.5l-0.3-2 1.6 0.3 0.2 1.5c0.2 1.3 1.5 2.8 2.9 3.1l0.9 0.2-0.6-3.9c-0.1-0.8 0.4-1.3 1.3-1.1l3.8 0.7c0.7 0.1 1.2 0.5 1.5 1.1h0.1l1.5 2-0.2-1.2c-0.1-0.6-0.6-1.7-1.5-2.5 0.6-0.5 0.9-1.5 0.8-2l-0.7-4.2 3.7 0.7 0.5 3.1c0.3 1.6 2.1 3.5 3.9 3.8l2.5 0.5c1.7 0.3 3.1-0.9 2.8-2.5l-1.1-6.8-7.7-1.4-1-6.2c-0.1-0.5-0.6-1-1.2-1.1l-12.5-2.3c-0.6-0.1-0.9 0.2-0.9 0.8l1.9 11.9 5.2 1 0.1 0.5c0.1 0.5 0.2 0.5-0.4 0.4l-4.7-0.9c0.1-0.4 0.8 3.9 0.8 3.9zm9.2 22.3h-0.2l0.5 3.2c0 0.3 0.3 0.5 0.6 0.5 0.3 0.1 0.5-0.1 0.4-0.4l-0.1-0.8-0.2-1.3-0.1-0.3c-0.1-0.4-0.5-0.8-0.9-0.9m-3.2-19.6-2-0.4c-0.6-0.1-0.7 0.1-0.6 0.6l0.5 3.1 3.5 0.7-0.5-3.1c-0.1-0.5-0.4-0.8-0.9-0.9m-0.8 1.1c0.5 0.1 0.4 0.3 0.5 0.8l0.1 0.5-0.8-0.1-0.1-0.5c0-0.6-0.2-0.8 0.3-0.7" fill="#0a93b2"/>
	</g>
	<g transform="translate(14.858 23.021)">
		<path d="m-59 378.2 1.8-0.5v-0.3l-0.4-0.1c-0.3-0.1-0.6-0.3-0.6-0.6l-0.3-1.8c0-0.3 0.1-0.5 0.4-0.4l4.8 0.9c0.3 0.1 0.6 0.3 0.6 0.6l0.3 1.8c0 0.3-0.1 0.5-0.4 0.4l-0.6-0.1 0.6 3.5 0.7 0.1c1.8 0.3 3.2-0.9 2.9-2.6l-0.5-3.4c-0.3-1.7-2.2-3.6-4-3.9l-5.1-0.9c-1.8-0.3-3.2 0.9-2.9 2.6l0.2 1.1z" fill="#0a93b2"/>
	</g>
	<g transform="translate(15.729 21.01)">
		<path d="m-58.8 382.7c0.2 0.1 0.3 0.2 0.6 0.2l0.6 0.1-0.2-1.4z" fill="#0a93b2"/>
	</g>
</g>
</svg>
