<?xml version="1.0" encoding="UTF-8"?>
<!-- Generator: Adobe Illustrator 19.0.0, SVG Export Plug-In . SVG Version: 6.00 Build 0)  -->
<svg id="Layer_1" width="618.71" height="302.95" version="1.1" viewBox="0 0 618.71 302.95" xml:space="preserve" xmlns="http://www.w3.org/2000/svg" xmlns:cc="http://creativecommons.org/ns#" xmlns:dc="http://purl.org/dc/elements/1.1/" xmlns:rdf="http://www.w3.org/1999/02/22-rdf-syntax-ns#"><metadata id="metadata337"><rdf:RDF><cc:Work rdf:about=""><dc:format>image/svg+xml</dc:format><dc:type rdf:resource="http://purl.org/dc/dcmitype/StillImage"/><dc:title/></cc:Work></rdf:RDF></metadata><path id="base" d="m9.9 146.1h-8c-1.7 0-1.9-0.2-1.9-2.9v-140.5c0-2.1 0.3-2.7 2.7-2.7h416.4c4.9 0 5.1 0.4 5.1 5.1v29c0 0.6 0 0.7-0.7 0.7h-3c-0.7 0-0.8 0.2-0.8 0.7v52.7 44.8h6.7c0.9 0 1 0.3 1 0.6v11.3c0 1-0.1 1.2-1.5 1.2h-416z" fill="#cfd0cf" fill-rule="evenodd"/><path id="outline" d="m5.8 146.1v-75.7c0-2.2 0-3.7 3.7-3.7h410.3" fill="none" stroke="#9b9a9a" stroke-miterlimit="10" stroke-width="2"/><path id="keyboard" d="m12.7 301.7c-5.7 0-6.9-4.5-6.9-8.6v-222.6c0-2.2 0-3.7 3.7-3.7h411c3.7 0 3.7 1.4 3.7 3.7v222.6c0 4.1-1.1 8.6-6.9 8.6h-404.6z" fill="#cfd0cf" fill-rule="evenodd"/><g id="holes" fill="#0c0c0d" fill-rule="evenodd"><path id="XMLID_123_" d="m216.4 104.7h151.6c0.4 0 0.6 0.3 0.6 0.6v23.4c0 0.4-0.3 0.6-0.6 0.6h-151.6c-0.4 0-0.6-0.3-0.6-0.6v-23.4c0-0.3 0.2-0.6 0.6-0.6z"/><path id="XMLID_37_" d="m382.7 104.7h30.3c0.4 0 0.6 0.3 0.6 0.6v23.4c0 0.4-0.3 0.6-0.6 0.6h-30.3c-0.4 0-0.6-0.3-0.6-0.6v-23.4c-0.1-0.3 0.2-0.6 0.6-0.6z"/><path id="XMLID_121_" d="m54.8 104.7h151.2c0.4 0 0.6 0.3 0.6 0.6v23.4c0 0.4-0.3 0.6-0.6 0.6h-151.2c-0.4 0-0.6-0.3-0.6-0.6v-23.4c0-0.3 0.2-0.6 0.6-0.6z"/><path id="XMLID_119_" d="m17.7 104.7h22.9c0.4 0 0.6 0.3 0.6 0.6v23.4c0 0.4-0.3 0.6-0.6 0.6h-22.9c-0.4 0-0.6-0.3-0.6-0.6v-23.4c-0.1-0.3 0.2-0.6 0.6-0.6z"/><path id="XMLID_117_" d="m414.2 240v24.3c0 0.4-0.3 0.6-0.6 0.6h-377.3c-0.4 0-0.6-0.3-0.6-0.6v-21.1s0.8-2.8-2.1-2.8h-16.3c-0.4 0-0.6-0.3-0.6-0.6v-96.3c0-0.4 0.3-0.6 0.6-0.6h395.7c0.4 0 0.6 0.3 0.6 0.6v23.4c0 1.2-0.7 1.5-2.6 1.5h-19c-1.5 0-1.9 0.7-1.9 1.5v68.6c0 0.4 0.1 0.6 0.6 0.6h22.1c1.2-0.1 1.4 0.4 1.4 0.9z"/></g><g id="grill" fill="#777878" fill-rule="evenodd"><path id="XMLID_137_" d="m7.7 8.6h408.9c0.2 0 0.3 0.1 0.3 0.3v3.3c0 0.2-0.1 0.3-0.3 0.3h-408.9c-0.2 0-0.3-0.1-0.3-0.3v-3.3c0-0.1 0.1-0.3 0.3-0.3z"/><path id="XMLID_135_" d="m7.7 16.1h408.9c0.2 0 0.3 0.1 0.3 0.3v3.3c0 0.2-0.1 0.3-0.3 0.3h-408.9c-0.2 0-0.3-0.1-0.3-0.3v-3.3c0-0.2 0.1-0.3 0.3-0.3z"/><path id="XMLID_133_" d="m7.7 23.6h408.9c0.2 0 0.3 0.1 0.3 0.3v3.3c0 0.2-0.1 0.3-0.3 0.3h-408.9c-0.2 0-0.3-0.1-0.3-0.3v-3.3c0-0.2 0.1-0.3 0.3-0.3z"/><path id="XMLID_131_" d="m7.7 31.1h408.9c0.2 0 0.3 0.1 0.3 0.3v3.3c0 0.2-0.1 0.3-0.3 0.3h-408.9c-0.2 0-0.3-0.1-0.3-0.3v-3.3c0-0.2 0.1-0.3 0.3-0.3z"/><path id="XMLID_129_" d="m7.7 38.6h408.9c0.2 0 0.3 0.1 0.3 0.3v3.3c0 0.2-0.1 0.3-0.3 0.3h-408.9c-0.2 0-0.3-0.1-0.3-0.3v-3.3c0-0.2 0.1-0.3 0.3-0.3z"/><path id="XMLID_127_" d="m7.7 46.1h408.9c0.2 0 0.3 0.1 0.3 0.3v3.3c0 0.2-0.1 0.3-0.3 0.3h-408.9c-0.2 0-0.3-0.1-0.3-0.3v-3.3c0-0.2 0.1-0.3 0.3-0.3z"/><path id="XMLID_125_" d="m7.7 53.6h408.9c0.2 0 0.3 0.1 0.3 0.3v3.3c0 0.2-0.1 0.3-0.3 0.3h-408.9c-0.2 0-0.3-0.1-0.3-0.3v-3.3c0-0.2 0.1-0.3 0.3-0.3z"/></g><g id="keys" fill-rule="evenodd"><g id="XMLID_21_"><path id="XMLID_65_" d="m243.8 192.2h19.4c0.8 0 1.4 0.6 1.4 1.4v19.8c0 0.8-0.6 1.4-1.4 1.4h-19.4c-0.8 0-1.4-0.6-1.4-1.4v-19.8c-0.1-0.7 0.6-1.4 1.4-1.4z" fill="#9b9a9a"/><path id="XMLID_34_" d="m246.7 194.4h13.5c0.8 0 1.4 0.6 1.4 1.4v13.5c0 0.8-0.6 1.4-1.4 1.4h-13.5c-0.8 0-1.4-0.6-1.4-1.4v-13.5c0-0.7 0.7-1.4 1.4-1.4z" fill="#cfd0cf"/></g><g id="XMLID_165_"><path id="XMLID_168_" d="m267.7 192.2h19.4c0.8 0 1.4 0.6 1.4 1.4v19.8c0 0.8-0.6 1.4-1.4 1.4h-19.4c-0.8 0-1.4-0.6-1.4-1.4v-19.8c0-0.7 0.6-1.4 1.4-1.4z" fill="#9b9a9a"/><path id="XMLID_166_" d="m270.7 194.4h13.5c0.8 0 1.4 0.6 1.4 1.4v13.5c0 0.8-0.6 1.4-1.4 1.4h-13.5c-0.8 0-1.4-0.6-1.4-1.4v-13.5c-0.1-0.7 0.6-1.4 1.4-1.4z" fill="#cfd0cf"/></g><g id="XMLID_170_"><path id="XMLID_173_" d="m291.6 192.2h19.4c0.8 0 1.4 0.6 1.4 1.4v19.8c0 0.8-0.6 1.4-1.4 1.4h-19.4c-0.8 0-1.4-0.6-1.4-1.4v-19.8c0-0.7 0.6-1.4 1.4-1.4z" fill="#9b9a9a"/><path id="XMLID_171_" d="m294.6 194.4h13.5c0.8 0 1.4 0.6 1.4 1.4v13.5c0 0.8-0.6 1.4-1.4 1.4h-13.5c-0.8 0-1.4-0.6-1.4-1.4v-13.5c-0.1-0.7 0.6-1.4 1.4-1.4z" fill="#cfd0cf"/></g><g id="XMLID_175_"><path id="XMLID_178_" d="m315.5 192.2h19.4c0.8 0 1.4 0.6 1.4 1.4v19.8c0 0.8-0.6 1.4-1.4 1.4h-19.4c-0.8 0-1.4-0.6-1.4-1.4v-19.8c0-0.7 0.6-1.4 1.4-1.4z" fill="#9b9a9a"/><path id="XMLID_176_" d="m318.5 194.4h13.5c0.8 0 1.4 0.6 1.4 1.4v13.5c0 0.8-0.6 1.4-1.4 1.4h-13.5c-0.8 0-1.4-0.6-1.4-1.4v-13.5c-0.1-0.7 0.6-1.4 1.4-1.4z" fill="#cfd0cf"/></g><g id="XMLID_180_"><path id="XMLID_183_" d="m339.4 192.2h19.4c0.8 0 1.4 0.6 1.4 1.4v19.8c0 0.8-0.6 1.4-1.4 1.4h-19.4c-0.8 0-1.4-0.6-1.4-1.4v-19.8c0-0.7 0.6-1.4 1.4-1.4z" fill="#9b9a9a"/><path id="XMLID_181_" d="m342.4 194.4h13.5c0.8 0 1.4 0.6 1.4 1.4v13.5c0 0.8-0.6 1.4-1.4 1.4h-13.5c-0.8 0-1.4-0.6-1.4-1.4v-13.5c0-0.7 0.6-1.4 1.4-1.4z" fill="#cfd0cf"/></g><g id="XMLID_30_"><path id="XMLID_83_" d="m219.9 192.2h19.4c0.8 0 1.4 0.6 1.4 1.4v19.8c0 0.8-0.6 1.4-1.4 1.4h-19.4c-0.8 0-1.4-0.6-1.4-1.4v-19.8c-0.1-0.7 0.6-1.4 1.4-1.4z" fill="#9b9a9a"/><path id="XMLID_74_" d="m222.8 194.4h13.5c0.8 0 1.4 0.6 1.4 1.4v13.5c0 0.8-0.6 1.4-1.4 1.4h-13.5c-0.8 0-1.4-0.6-1.4-1.4v-13.5c0-0.7 0.6-1.4 1.4-1.4z" fill="#cfd0cf"/></g><g id="XMLID_98_"><path id="XMLID_109_" d="m196 192.2h19.4c0.8 0 1.4 0.6 1.4 1.4v19.8c0 0.8-0.6 1.4-1.4 1.4h-19.4c-0.8 0-1.4-0.6-1.4-1.4v-19.8c-0.1-0.7 0.6-1.4 1.4-1.4z" fill="#9b9a9a"/><path id="XMLID_99_" d="m198.9 194.4h13.5c0.8 0 1.4 0.6 1.4 1.4v13.5c0 0.8-0.6 1.4-1.4 1.4h-13.5c-0.8 0-1.4-0.6-1.4-1.4v-13.5c0-0.7 0.6-1.4 1.4-1.4z" fill="#cfd0cf"/></g><g id="XMLID_140_"><path id="XMLID_143_" d="m172.1 192.2h19.4c0.8 0 1.4 0.6 1.4 1.4v19.8c0 0.8-0.6 1.4-1.4 1.4h-19.4c-0.8 0-1.4-0.6-1.4-1.4v-19.8c-0.1-0.7 0.6-1.4 1.4-1.4z" fill="#9b9a9a"/><path id="XMLID_141_" d="m175 194.4h13.5c0.8 0 1.4 0.6 1.4 1.4v13.5c0 0.8-0.6 1.4-1.4 1.4h-13.5c-0.8 0-1.4-0.6-1.4-1.4v-13.5c0-0.7 0.6-1.4 1.4-1.4z" fill="#cfd0cf"/></g><g id="XMLID_145_"><path id="XMLID_148_" d="m148.1 192.2h19.4c0.8 0 1.4 0.6 1.4 1.4v19.8c0 0.8-0.6 1.4-1.4 1.4h-19.4c-0.8 0-1.4-0.6-1.4-1.4v-19.8c0-0.7 0.7-1.4 1.4-1.4z" fill="#9b9a9a"/><path id="XMLID_146_" d="m151.1 194.4h13.5c0.8 0 1.4 0.6 1.4 1.4v13.5c0 0.8-0.6 1.4-1.4 1.4h-13.5c-0.8 0-1.4-0.6-1.4-1.4v-13.5c0-0.7 0.6-1.4 1.4-1.4z" fill="#cfd0cf"/></g><g id="XMLID_150_"><path id="XMLID_153_" d="m124.2 192.2h19.4c0.8 0 1.4 0.6 1.4 1.4v19.8c0 0.8-0.6 1.4-1.4 1.4h-19.4c-0.8 0-1.4-0.6-1.4-1.4v-19.8c0-0.7 0.6-1.4 1.4-1.4z" fill="#9b9a9a"/><path id="XMLID_151_" d="m127.2 194.4h13.5c0.8 0 1.4 0.6 1.4 1.4v13.5c0 0.8-0.6 1.4-1.4 1.4h-13.5c-0.8 0-1.4-0.6-1.4-1.4v-13.5c0-0.7 0.6-1.4 1.4-1.4z" fill="#cfd0cf"/></g><g id="XMLID_155_"><path id="XMLID_158_" d="m100.3 192.2h19.4c0.8 0 1.4 0.6 1.4 1.4v19.8c0 0.8-0.6 1.4-1.4 1.4h-19.4c-0.8 0-1.4-0.6-1.4-1.4v-19.8c0-0.7 0.6-1.4 1.4-1.4z" fill="#9b9a9a"/><path id="XMLID_156_" d="m103.3 194.4h13.5c0.8 0 1.4 0.6 1.4 1.4v13.5c0 0.8-0.6 1.4-1.4 1.4h-13.5c-0.8 0-1.4-0.6-1.4-1.4v-13.5c0-0.7 0.6-1.4 1.4-1.4z" fill="#cfd0cf"/></g><g id="XMLID_160_"><path id="XMLID_163_" d="m76.4 192.2h19.4c0.8 0 1.4 0.6 1.4 1.4v19.8c0 0.8-0.6 1.4-1.4 1.4h-19.4c-0.8 0-1.4-0.6-1.4-1.4v-19.8c0-0.7 0.6-1.4 1.4-1.4z" fill="#9b9a9a"/><path id="XMLID_161_" d="m79.4 194.4h13.5c0.8 0 1.4 0.6 1.4 1.4v13.5c0 0.8-0.6 1.4-1.4 1.4h-13.5c-0.8 0-1.4-0.6-1.4-1.4v-13.5c-0.1-0.7 0.6-1.4 1.4-1.4z" fill="#cfd0cf"/></g><g id="XMLID_365_"><path id="XMLID_368_" d="m231.8 216.3h19.4c0.8 0 1.4 0.6 1.4 1.4v19.8c0 0.8-0.6 1.4-1.4 1.4h-19.4c-0.8 0-1.4-0.6-1.4-1.4v-19.8c0-0.8 0.7-1.4 1.4-1.4z" fill="#9b9a9a"/><path id="XMLID_366_" d="m234.8 218.5h13.5c0.8 0 1.4 0.6 1.4 1.4v13.5c0 0.8-0.6 1.4-1.4 1.4h-13.5c-0.8 0-1.4-0.6-1.4-1.4v-13.5c0-0.8 0.6-1.4 1.4-1.4z" fill="#cfd0cf"/></g><g id="XMLID_360_"><path id="XMLID_363_" d="m255.8 216.3h19.4c0.8 0 1.4 0.6 1.4 1.4v19.8c0 0.8-0.6 1.4-1.4 1.4h-19.4c-0.8 0-1.4-0.6-1.4-1.4v-19.8c-0.1-0.8 0.6-1.4 1.4-1.4z" fill="#9b9a9a"/><path id="XMLID_361_" d="m258.7 218.5h13.5c0.8 0 1.4 0.6 1.4 1.4v13.5c0 0.8-0.6 1.4-1.4 1.4h-13.5c-0.8 0-1.4-0.6-1.4-1.4v-13.5c0-0.8 0.6-1.4 1.4-1.4z" fill="#cfd0cf"/></g><g id="XMLID_355_"><path id="XMLID_358_" d="m279.7 216.3h19.4c0.8 0 1.4 0.6 1.4 1.4v19.8c0 0.8-0.6 1.4-1.4 1.4h-19.4c-0.8 0-1.4-0.6-1.4-1.4v-19.8c-0.1-0.8 0.6-1.4 1.4-1.4z" fill="#9b9a9a"/><path id="XMLID_356_" d="m282.6 218.5h13.5c0.8 0 1.4 0.6 1.4 1.4v13.5c0 0.8-0.6 1.4-1.4 1.4h-13.5c-0.8 0-1.4-0.6-1.4-1.4v-13.5c0-0.8 0.6-1.4 1.4-1.4z" fill="#cfd0cf"/></g><g id="XMLID_350_"><path id="XMLID_353_" d="m303.6 216.3h19.4c0.8 0 1.4 0.6 1.4 1.4v19.8c0 0.8-0.6 1.4-1.4 1.4h-19.4c-0.8 0-1.4-0.6-1.4-1.4v-19.8c-0.1-0.8 0.6-1.4 1.4-1.4z" fill="#9b9a9a"/><path id="XMLID_351_" d="m306.5 218.5h13.5c0.8 0 1.4 0.6 1.4 1.4v13.5c0 0.8-0.6 1.4-1.4 1.4h-13.5c-0.8 0-1.4-0.6-1.4-1.4v-13.5c0-0.8 0.6-1.4 1.4-1.4z" fill="#cfd0cf"/></g><g id="XMLID_420_"><path id="XMLID_423_" d="m320.3 240.3h19.4c0.8 0 1.4 0.6 1.4 1.4v19.8c0 0.8-0.6 1.4-1.4 1.4h-19.4c-0.8 0-1.4-0.6-1.4-1.4v-19.8c-0.1-0.7 0.6-1.4 1.4-1.4z" fill="#9b9a9a"/><path id="XMLID_421_" d="m323.2 242.5h13.5c0.8 0 1.4 0.6 1.4 1.4v13.5c0 0.8-0.6 1.4-1.4 1.4h-13.5c-0.8 0-1.4-0.6-1.4-1.4v-13.4c0-0.8 0.6-1.5 1.4-1.5z" fill="#cfd0cf"/></g><g id="XMLID_415_"><path id="XMLID_418_" d="m344.2 240.3h19.4c0.8 0 1.4 0.6 1.4 1.4v19.8c0 0.8-0.6 1.4-1.4 1.4h-19.4c-0.8 0-1.4-0.6-1.4-1.4v-19.8c-0.1-0.7 0.6-1.4 1.4-1.4z" fill="#9b9a9a"/><path id="XMLID_416_" d="m347.1 242.5h13.5c0.8 0 1.4 0.6 1.4 1.4v13.5c0 0.8-0.6 1.4-1.4 1.4h-13.5c-0.8 0-1.4-0.6-1.4-1.4v-13.4c0-0.8 0.7-1.5 1.4-1.5z" fill="#cfd0cf"/></g><g id="XMLID_410_"><path id="XMLID_413_" d="m368.1 240.3h19.4c0.8 0 1.4 0.6 1.4 1.4v19.8c0 0.8-0.6 1.4-1.4 1.4h-19.4c-0.8 0-1.4-0.6-1.4-1.4v-19.8c0-0.7 0.6-1.4 1.4-1.4z" fill="#9b9a9a"/><path id="XMLID_411_" d="m371.1 242.5h13.5c0.8 0 1.4 0.6 1.4 1.4v13.5c0 0.8-0.6 1.4-1.4 1.4h-13.5c-0.8 0-1.4-0.6-1.4-1.4v-13.4c-0.1-0.8 0.6-1.5 1.4-1.5z" fill="#cfd0cf"/></g><g id="XMLID_390_"><path id="XMLID_393_" d="m392 240.3h19.4c0.8 0 1.4 0.6 1.4 1.4v19.8c0 0.8-0.6 1.4-1.4 1.4h-19.4c-0.8 0-1.4-0.6-1.4-1.4v-19.8c0-0.7 0.6-1.4 1.4-1.4z" fill="#9b9a9a"/><path id="XMLID_391_" d="m395 242.5h13.5c0.8 0 1.4 0.6 1.4 1.4v13.5c0 0.8-0.6 1.4-1.4 1.4h-13.5c-0.8 0-1.4-0.6-1.4-1.4v-13.4c-0.1-0.8 0.6-1.5 1.4-1.5z" fill="#cfd0cf"/></g><g id="XMLID_385_"><path id="XMLID_388_" d="m368 216.3h19.4c0.8 0 1.4 0.6 1.4 1.4v19.8c0 0.8-0.6 1.4-1.4 1.4h-19.4c-0.8 0-1.4-0.6-1.4-1.4v-19.8c-0.1-0.8 0.6-1.4 1.4-1.4z" fill="#9b9a9a"/><path id="XMLID_386_" d="m370.9 218.5h13.5c0.8 0 1.4 0.6 1.4 1.4v13.5c0 0.8-0.6 1.4-1.4 1.4h-13.5c-0.8 0-1.4-0.6-1.4-1.4v-13.5c0-0.8 0.7-1.4 1.4-1.4z" fill="#cfd0cf"/></g><g id="XMLID_340_"><path id="XMLID_343_" d="m207.9 216.3h19.4c0.8 0 1.4 0.6 1.4 1.4v19.8c0 0.8-0.6 1.4-1.4 1.4h-19.4c-0.8 0-1.4-0.6-1.4-1.4v-19.8c0-0.8 0.6-1.4 1.4-1.4z" fill="#9b9a9a"/><path id="XMLID_341_" d="m210.9 218.5h13.5c0.8 0 1.4 0.6 1.4 1.4v13.5c0 0.8-0.6 1.4-1.4 1.4h-13.5c-0.8 0-1.4-0.6-1.4-1.4v-13.5c0-0.8 0.6-1.4 1.4-1.4z" fill="#cfd0cf"/></g><g id="XMLID_335_"><path id="XMLID_338_" d="m184 216.3h19.4c0.8 0 1.4 0.6 1.4 1.4v19.8c0 0.8-0.6 1.4-1.4 1.4h-19.4c-0.8 0-1.4-0.6-1.4-1.4v-19.8c0-0.8 0.6-1.4 1.4-1.4z" fill="#9b9a9a"/><path id="XMLID_336_" d="m187 218.5h13.5c0.8 0 1.4 0.6 1.4 1.4v13.5c0 0.8-0.6 1.4-1.4 1.4h-13.5c-0.8 0-1.4-0.6-1.4-1.4v-13.5c0-0.8 0.6-1.4 1.4-1.4z" fill="#cfd0cf"/></g><g id="XMLID_330_"><path id="XMLID_333_" d="m160.1 216.3h19.4c0.8 0 1.4 0.6 1.4 1.4v19.8c0 0.8-0.6 1.4-1.4 1.4h-19.4c-0.8 0-1.4-0.6-1.4-1.4v-19.8c0-0.8 0.6-1.4 1.4-1.4z" fill="#9b9a9a"/><path id="XMLID_331_" d="m163.1 218.5h13.5c0.8 0 1.4 0.6 1.4 1.4v13.5c0 0.8-0.6 1.4-1.4 1.4h-13.5c-0.8 0-1.4-0.6-1.4-1.4v-13.5c-0.1-0.8 0.6-1.4 1.4-1.4z" fill="#cfd0cf"/></g><g id="XMLID_325_"><path id="XMLID_328_" d="m136.2 216.3h19.4c0.8 0 1.4 0.6 1.4 1.4v19.8c0 0.8-0.6 1.4-1.4 1.4h-19.4c-0.8 0-1.4-0.6-1.4-1.4v-19.8c0-0.8 0.6-1.4 1.4-1.4z" fill="#9b9a9a"/><path id="XMLID_326_" d="m139.2 218.5h13.5c0.8 0 1.4 0.6 1.4 1.4v13.5c0 0.8-0.6 1.4-1.4 1.4h-13.5c-0.8 0-1.4-0.6-1.4-1.4v-13.5c-0.1-0.8 0.6-1.4 1.4-1.4z" fill="#cfd0cf"/></g><g id="XMLID_320_"><path id="XMLID_323_" d="m112.3 216.3h19.4c0.8 0 1.4 0.6 1.4 1.4v19.8c0 0.8-0.6 1.4-1.4 1.4h-19.4c-0.8 0-1.4-0.6-1.4-1.4v-19.8c0-0.8 0.6-1.4 1.4-1.4z" fill="#9b9a9a"/><path id="XMLID_321_" d="m115.3 218.5h13.5c0.8 0 1.4 0.6 1.4 1.4v13.5c0 0.8-0.6 1.4-1.4 1.4h-13.5c-0.8 0-1.4-0.6-1.4-1.4v-13.5c-0.1-0.8 0.6-1.4 1.4-1.4z" fill="#cfd0cf"/></g><g id="XMLID_315_"><path id="XMLID_318_" d="m88.4 216.3h19.4c0.8 0 1.4 0.6 1.4 1.4v19.8c0 0.8-0.6 1.4-1.4 1.4h-19.4c-0.8 0-1.4-0.6-1.4-1.4v-19.8c0-0.8 0.6-1.4 1.4-1.4z" fill="#9b9a9a"/><path id="XMLID_316_" d="m91.4 218.5h13.5c0.8 0 1.4 0.6 1.4 1.4v13.5c0 0.8-0.6 1.4-1.4 1.4h-13.5c-0.8 0-1.4-0.6-1.4-1.4v-13.5c-0.1-0.8 0.6-1.4 1.4-1.4z" fill="#cfd0cf"/></g><g id="XMLID_310_"><path id="XMLID_313_" d="m64.5 216.3h19.4c0.8 0 1.4 0.6 1.4 1.4v19.8c0 0.8-0.6 1.4-1.4 1.4h-19.4c-0.8 0-1.4-0.6-1.4-1.4v-19.8c-0.1-0.8 0.6-1.4 1.4-1.4z" fill="#9b9a9a"/><path id="XMLID_311_" d="m67.4 218.5h13.6c0.8 0 1.4 0.6 1.4 1.4v13.5c0 0.8-0.6 1.4-1.4 1.4h-13.6c-0.8 0-1.4-0.6-1.4-1.4v-13.5c0-0.8 0.6-1.4 1.4-1.4z" fill="#cfd0cf"/></g><g id="XMLID_345_"><path id="XMLID_348_" d="m100.3 240.3h185.5c0.8 0 1.4 0.6 1.4 1.4v19.8c0 0.8-0.6 1.4-1.4 1.4h-185.5c-0.8 0-1.4-0.6-1.4-1.4v-19.8c0-0.7 0.6-1.4 1.4-1.4z" fill="#9b9a9a"/><path id="XMLID_346_" d="m103.3 242.5h179.6c0.8 0 1.4 0.6 1.4 1.4v13.5c0 0.8-0.6 1.4-1.4 1.4h-179.6c-0.8 0-1.4-0.6-1.4-1.4v-13.4c0-0.8 0.6-1.5 1.4-1.5z" fill="#cfd0cf"/></g><g id="XMLID_240_"><path id="XMLID_243_" d="m237 168.2h19.4c0.8 0 1.4 0.6 1.4 1.4v19.8c0 0.8-0.6 1.4-1.4 1.4h-19.4c-0.8 0-1.4-0.6-1.4-1.4v-19.8c0-0.8 0.6-1.4 1.4-1.4z" fill="#9b9a9a"/><path id="XMLID_241_" d="m240 170.4h13.5c0.8 0 1.4 0.6 1.4 1.4v13.5c0 0.8-0.6 1.4-1.4 1.4h-13.5c-0.8 0-1.4-0.6-1.4-1.4v-13.5c0-0.8 0.6-1.4 1.4-1.4z" fill="#cfd0cf"/></g><g id="XMLID_235_"><path id="XMLID_238_" d="m260.9 168.2h19.4c0.8 0 1.4 0.6 1.4 1.4v19.8c0 0.8-0.6 1.4-1.4 1.4h-19.4c-0.8 0-1.4-0.6-1.4-1.4v-19.8c0-0.8 0.6-1.4 1.4-1.4z" fill="#9b9a9a"/><path id="XMLID_236_" d="m263.9 170.4h13.5c0.8 0 1.4 0.6 1.4 1.4v13.5c0 0.8-0.6 1.4-1.4 1.4h-13.5c-0.8 0-1.4-0.6-1.4-1.4v-13.5c0-0.8 0.6-1.4 1.4-1.4z" fill="#cfd0cf"/></g><g id="XMLID_230_"><path id="XMLID_233_" d="m284.9 168.2h19.4c0.8 0 1.4 0.6 1.4 1.4v19.8c0 0.8-0.6 1.4-1.4 1.4h-19.4c-0.8 0-1.4-0.6-1.4-1.4v-19.8c-0.1-0.8 0.6-1.4 1.4-1.4z" fill="#9b9a9a"/><path id="XMLID_231_" d="m287.8 170.4h13.5c0.8 0 1.4 0.6 1.4 1.4v13.5c0 0.8-0.6 1.4-1.4 1.4h-13.5c-0.8 0-1.4-0.6-1.4-1.4v-13.5c0-0.8 0.6-1.4 1.4-1.4z" fill="#cfd0cf"/></g><g id="XMLID_225_"><path id="XMLID_228_" d="m308.8 168.2h19.4c0.8 0 1.4 0.6 1.4 1.4v19.8c0 0.8-0.6 1.4-1.4 1.4h-19.4c-0.8 0-1.4-0.6-1.4-1.4v-19.8c-0.1-0.8 0.6-1.4 1.4-1.4z" fill="#9b9a9a"/><path id="XMLID_226_" d="m311.7 170.4h13.5c0.8 0 1.4 0.6 1.4 1.4v13.5c0 0.8-0.6 1.4-1.4 1.4h-13.5c-0.8 0-1.4-0.6-1.4-1.4v-13.5c0-0.8 0.6-1.4 1.4-1.4z" fill="#cfd0cf"/></g><g id="XMLID_220_"><path id="XMLID_223_" d="m332.7 168.2h19.4c0.8 0 1.4 0.6 1.4 1.4v19.8c0 0.8-0.6 1.4-1.4 1.4h-19.4c-0.8 0-1.4-0.6-1.4-1.4v-19.8c-0.1-0.8 0.6-1.4 1.4-1.4z" fill="#9b9a9a"/><path id="XMLID_221_" d="m335.6 170.4h13.5c0.8 0 1.4 0.6 1.4 1.4v13.5c0 0.8-0.6 1.4-1.4 1.4h-13.5c-0.8 0-1.4-0.6-1.4-1.4v-13.5c0-0.8 0.6-1.4 1.4-1.4z" fill="#cfd0cf"/></g><g id="XMLID_215_"><path id="XMLID_218_" d="m213.1 168.2h19.4c0.8 0 1.4 0.6 1.4 1.4v19.8c0 0.8-0.6 1.4-1.4 1.4h-19.4c-0.8 0-1.4-0.6-1.4-1.4v-19.8c0-0.8 0.6-1.4 1.4-1.4z" fill="#9b9a9a"/><path id="XMLID_216_" d="m216.1 170.4h13.5c0.8 0 1.4 0.6 1.4 1.4v13.5c0 0.8-0.6 1.4-1.4 1.4h-13.5c-0.8 0-1.4-0.6-1.4-1.4v-13.5c0-0.8 0.6-1.4 1.4-1.4z" fill="#cfd0cf"/></g><g id="XMLID_210_"><path id="XMLID_213_" d="m189.6 168.2h19.4c0.8 0 1.4 0.6 1.4 1.4v19.8c0 0.8-0.6 1.4-1.4 1.4h-19.4c-0.8 0-1.4-0.6-1.4-1.4v-19.8c-0.1-0.8 0.6-1.4 1.4-1.4z" fill="#9b9a9a"/><path id="XMLID_211_" d="m192.5 170.4h13.5c0.8 0 1.4 0.6 1.4 1.4v13.5c0 0.8-0.6 1.4-1.4 1.4h-13.5c-0.8 0-1.4-0.6-1.4-1.4v-13.5c0-0.8 0.6-1.4 1.4-1.4z" fill="#cfd0cf"/></g><g id="XMLID_205_"><path id="XMLID_208_" d="m165.3 168.2h19.4c0.8 0 1.4 0.6 1.4 1.4v19.8c0 0.8-0.6 1.4-1.4 1.4h-19.4c-0.8 0-1.4-0.6-1.4-1.4v-19.8c0-0.8 0.6-1.4 1.4-1.4z" fill="#9b9a9a"/><path id="XMLID_206_" d="m168.3 170.4h13.5c0.8 0 1.4 0.6 1.4 1.4v13.5c0 0.8-0.6 1.4-1.4 1.4h-13.5c-0.8 0-1.4-0.6-1.4-1.4v-13.5c-0.1-0.8 0.6-1.4 1.4-1.4z" fill="#cfd0cf"/></g><g id="XMLID_200_"><path id="XMLID_203_" d="m141.4 168.2h19.4c0.8 0 1.4 0.6 1.4 1.4v19.8c0 0.8-0.6 1.4-1.4 1.4h-19.4c-0.8 0-1.4-0.6-1.4-1.4v-19.8c0-0.8 0.6-1.4 1.4-1.4z" fill="#9b9a9a"/><path id="XMLID_201_" d="m144.4 170.4h13.5c0.8 0 1.4 0.6 1.4 1.4v13.5c0 0.8-0.6 1.4-1.4 1.4h-13.5c-0.8 0-1.4-0.6-1.4-1.4v-13.5c-0.1-0.8 0.6-1.4 1.4-1.4z" fill="#cfd0cf"/></g><g id="XMLID_195_"><path id="XMLID_198_" d="m117.5 168.2h19.4c0.8 0 1.4 0.6 1.4 1.4v19.8c0 0.8-0.6 1.4-1.4 1.4h-19.4c-0.8 0-1.4-0.6-1.4-1.4v-19.8c0-0.8 0.6-1.4 1.4-1.4z" fill="#9b9a9a"/><path id="XMLID_196_" d="m120.5 170.4h13.5c0.8 0 1.4 0.6 1.4 1.4v13.5c0 0.8-0.6 1.4-1.4 1.4h-13.5c-0.8 0-1.4-0.6-1.4-1.4v-13.5c-0.1-0.8 0.6-1.4 1.4-1.4z" fill="#cfd0cf"/></g><g id="XMLID_190_"><path id="XMLID_193_" d="m93.6 168.2h19.4c0.8 0 1.4 0.6 1.4 1.4v19.8c0 0.8-0.6 1.4-1.4 1.4h-19.4c-0.8 0-1.4-0.6-1.4-1.4v-19.8c-0.1-0.8 0.6-1.4 1.4-1.4z" fill="#9b9a9a"/><path id="XMLID_191_" d="m96.5 170.4h13.5c0.8 0 1.4 0.6 1.4 1.4v13.5c0 0.8-0.6 1.4-1.4 1.4h-13.5c-0.8 0-1.4-0.6-1.4-1.4v-13.5c0-0.8 0.6-1.4 1.4-1.4z" fill="#cfd0cf"/></g><g id="XMLID_185_"><path id="XMLID_188_" d="m69.7 168.2h19.4c0.8 0 1.4 0.6 1.4 1.4v19.8c0 0.8-0.6 1.4-1.4 1.4h-19.4c-0.8 0-1.4-0.6-1.4-1.4v-19.8c-0.1-0.8 0.6-1.4 1.4-1.4z" fill="#9b9a9a"/><path id="XMLID_186_" d="m72.6 170.4h13.5c0.8 0 1.4 0.6 1.4 1.4v13.5c0 0.8-0.6 1.4-1.4 1.4h-13.5c-0.8 0-1.4-0.6-1.4-1.4v-13.5c0-0.8 0.6-1.4 1.4-1.4z" fill="#cfd0cf"/></g><g id="XMLID_300_"><path id="XMLID_303_" d="m224.6 144.2h19.4c0.8 0 1.4 0.6 1.4 1.4v19.8c0 0.8-0.6 1.4-1.4 1.4h-19.4c-0.8 0-1.4-0.6-1.4-1.4v-19.8c0-0.8 0.6-1.4 1.4-1.4z" fill="#9b9a9a"/><path id="XMLID_301_" d="m227.6 146.4h13.5c0.8 0 1.4 0.6 1.4 1.4v13.5c0 0.8-0.6 1.4-1.4 1.4h-13.5c-0.8 0-1.4-0.6-1.4-1.4v-13.5c0-0.8 0.6-1.4 1.4-1.4z" fill="#cfd0cf"/></g><g id="XMLID_295_"><path id="XMLID_298_" d="m248.6 144.2h19.4c0.8 0 1.4 0.6 1.4 1.4v19.8c0 0.8-0.6 1.4-1.4 1.4h-19.4c-0.8 0-1.4-0.6-1.4-1.4v-19.8c-0.1-0.8 0.6-1.4 1.4-1.4z" fill="#9b9a9a"/><path id="XMLID_296_" d="m251.5 146.4h13.5c0.8 0 1.4 0.6 1.4 1.4v13.5c0 0.8-0.6 1.4-1.4 1.4h-13.5c-0.8 0-1.4-0.6-1.4-1.4v-13.5c0-0.8 0.6-1.4 1.4-1.4z" fill="#cfd0cf"/></g><g id="XMLID_290_"><path id="XMLID_293_" d="m272.5 144.2h19.4c0.8 0 1.4 0.6 1.4 1.4v19.8c0 0.8-0.6 1.4-1.4 1.4h-19.4c-0.8 0-1.4-0.6-1.4-1.4v-19.8c-0.1-0.8 0.6-1.4 1.4-1.4z" fill="#9b9a9a"/><path id="XMLID_291_" d="m275.4 146.4h13.6c0.8 0 1.4 0.6 1.4 1.4v13.5c0 0.8-0.6 1.4-1.4 1.4h-13.5c-0.8 0-1.4-0.6-1.4-1.4v-13.5c-0.1-0.8 0.5-1.4 1.3-1.4z" fill="#cfd0cf"/></g><g id="XMLID_285_"><path id="XMLID_288_" d="m296.4 144.2h19.4c0.8 0 1.4 0.6 1.4 1.4v19.8c0 0.8-0.6 1.4-1.4 1.4h-19.4c-0.8 0-1.4-0.6-1.4-1.4v-19.8c-0.1-0.8 0.6-1.4 1.4-1.4z" fill="#9b9a9a"/><path id="XMLID_286_" d="m299.3 146.4h13.5c0.8 0 1.4 0.6 1.4 1.4v13.5c0 0.8-0.6 1.4-1.4 1.4h-13.5c-0.8 0-1.4-0.6-1.4-1.4v-13.5c0-0.8 0.6-1.4 1.4-1.4z" fill="#cfd0cf"/></g><g id="XMLID_280_"><path id="XMLID_283_" d="m320.3 144.2h19.4c0.8 0 1.4 0.6 1.4 1.4v19.8c0 0.8-0.6 1.4-1.4 1.4h-19.4c-0.8 0-1.4-0.6-1.4-1.4v-19.8c-0.1-0.8 0.6-1.4 1.4-1.4z" fill="#9b9a9a"/><path id="XMLID_281_" d="m323.2 146.4h13.5c0.8 0 1.4 0.6 1.4 1.4v13.5c0 0.8-0.6 1.4-1.4 1.4h-13.5c-0.8 0-1.4-0.6-1.4-1.4v-13.5c0-0.8 0.6-1.4 1.4-1.4z" fill="#cfd0cf"/></g><g id="XMLID_305_"><path id="XMLID_308_" d="m344.2 144.2h19.4c0.8 0 1.4 0.6 1.4 1.4v19.8c0 0.8-0.6 1.4-1.4 1.4h-19.4c-0.8 0-1.4-0.6-1.4-1.4v-19.8c-0.1-0.8 0.6-1.4 1.4-1.4z" fill="#9b9a9a"/><path id="XMLID_306_" d="m347.1 146.4h13.5c0.8 0 1.4 0.6 1.4 1.4v13.5c0 0.8-0.6 1.4-1.4 1.4h-13.5c-0.8 0-1.4-0.6-1.4-1.4v-13.5c0-0.8 0.7-1.4 1.4-1.4z" fill="#cfd0cf"/></g><g id="XMLID_275_"><path id="XMLID_278_" d="m200.7 144.2h19.4c0.8 0 1.4 0.6 1.4 1.4v19.8c0 0.8-0.6 1.4-1.4 1.4h-19.4c-0.8 0-1.4-0.6-1.4-1.4v-19.8c0-0.8 0.6-1.4 1.4-1.4z" fill="#9b9a9a"/><path id="XMLID_276_" d="m203.7 146.4h13.5c0.8 0 1.4 0.6 1.4 1.4v13.5c0 0.8-0.6 1.4-1.4 1.4h-13.5c-0.8 0-1.4-0.6-1.4-1.4v-13.5c0-0.8 0.6-1.4 1.4-1.4z" fill="#cfd0cf"/></g><g id="XMLID_270_"><path id="XMLID_273_" d="m176.8 144.2h19.4c0.8 0 1.4 0.6 1.4 1.4v19.8c0 0.8-0.6 1.4-1.4 1.4h-19.4c-0.8 0-1.4-0.6-1.4-1.4v-19.8c0-0.8 0.6-1.4 1.4-1.4z" fill="#9b9a9a"/><path id="XMLID_271_" d="m179.8 146.4h13.5c0.8 0 1.4 0.6 1.4 1.4v13.5c0 0.8-0.6 1.4-1.4 1.4h-13.5c-0.8 0-1.4-0.6-1.4-1.4v-13.5c-0.1-0.8 0.6-1.4 1.4-1.4z" fill="#cfd0cf"/></g><g id="XMLID_265_"><path id="XMLID_268_" d="m152.9 144.2h19.4c0.8 0 1.4 0.6 1.4 1.4v19.8c0 0.8-0.6 1.4-1.4 1.4h-19.4c-0.8 0-1.4-0.6-1.4-1.4v-19.8c0-0.8 0.6-1.4 1.4-1.4z" fill="#9b9a9a"/><path id="XMLID_266_" d="m155.9 146.4h13.5c0.8 0 1.4 0.6 1.4 1.4v13.5c0 0.8-0.6 1.4-1.4 1.4h-13.5c-0.8 0-1.4-0.6-1.4-1.4v-13.5c-0.1-0.8 0.6-1.4 1.4-1.4z" fill="#cfd0cf"/></g><g id="XMLID_260_"><path id="XMLID_263_" d="m129 144.2h19.4c0.8 0 1.4 0.6 1.4 1.4v19.8c0 0.8-0.6 1.4-1.4 1.4h-19.4c-0.8 0-1.4-0.6-1.4-1.4v-19.8c0-0.8 0.6-1.4 1.4-1.4z" fill="#9b9a9a"/><path id="XMLID_261_" d="m132 146.4h13.5c0.8 0 1.4 0.6 1.4 1.4v13.5c0 0.8-0.6 1.4-1.4 1.4h-13.5c-0.8 0-1.4-0.6-1.4-1.4v-13.5c-0.1-0.8 0.6-1.4 1.4-1.4z" fill="#cfd0cf"/></g><g id="XMLID_255_"><path id="XMLID_258_" d="m105.1 144.2h19.4c0.8 0 1.4 0.6 1.4 1.4v19.8c0 0.8-0.6 1.4-1.4 1.4h-19.4c-0.8 0-1.4-0.6-1.4-1.4v-19.8c0-0.8 0.6-1.4 1.4-1.4z" fill="#9b9a9a"/><path id="XMLID_256_" d="m108.1 146.4h13.5c0.8 0 1.4 0.6 1.4 1.4v13.5c0 0.8-0.6 1.4-1.4 1.4h-13.5c-0.8 0-1.4-0.6-1.4-1.4v-13.5c-0.1-0.8 0.6-1.4 1.4-1.4z" fill="#cfd0cf"/></g><g id="XMLID_250_"><path id="XMLID_253_" d="m81.2 144.2h19.4c0.8 0 1.4 0.6 1.4 1.4v19.8c0 0.8-0.6 1.4-1.4 1.4h-19.4c-0.8 0-1.4-0.6-1.4-1.4v-19.8c-0.1-0.8 0.6-1.4 1.4-1.4z" fill="#9b9a9a"/><path id="XMLID_251_" d="m84.1 146.4h13.5c0.8 0 1.4 0.6 1.4 1.4v13.5c0 0.8-0.6 1.4-1.4 1.4h-13.5c-0.8 0-1.4-0.6-1.4-1.4v-13.5c0-0.8 0.7-1.4 1.4-1.4z" fill="#cfd0cf"/></g><g id="XMLID_245_"><path id="XMLID_248_" d="m57.3 144.2h19.4c0.8 0 1.4 0.6 1.4 1.4v19.8c0 0.8-0.6 1.4-1.4 1.4h-19.4c-0.8 0-1.4-0.6-1.4-1.4v-19.8c-0.1-0.8 0.6-1.4 1.4-1.4z" fill="#9b9a9a"/><path id="XMLID_246_" d="m60.2 146.4h13.5c0.8 0 1.4 0.6 1.4 1.4v13.5c0 0.8-0.6 1.4-1.4 1.4h-13.5c-0.8 0-1.4-0.6-1.4-1.4v-13.5c0-0.8 0.6-1.4 1.4-1.4z" fill="#cfd0cf"/></g><g id="XMLID_476_"><path id="XMLID_479_" d="m19.5 216.3h40.1c0.8 0 1.4 0.6 1.4 1.4v19.8c0 0.8-0.6 1.4-1.4 1.4h-40.1c-0.8 0-1.4-0.6-1.4-1.4v-19.8c-0.1-0.8 0.6-1.4 1.4-1.4z" fill="#60605d"/><path id="XMLID_477_" d="m22.4 218.5h34.2c0.8 0 1.4 0.6 1.4 1.4v13.5c0 0.8-0.6 1.4-1.4 1.4h-34.2c-0.8 0-1.4-0.6-1.4-1.4v-13.5c0-0.8 0.6-1.4 1.4-1.4z" fill="#868580"/></g><g id="XMLID_470_"><path id="XMLID_474_" d="m327.4 216.3h36.1c0.8 0 1.4 0.6 1.4 1.4v19.8c0 0.8-0.6 1.4-1.4 1.4h-36.1c-0.8 0-1.4-0.6-1.4-1.4v-19.8c-0.1-0.8 0.6-1.4 1.4-1.4z" fill="#60605d"/><path id="XMLID_471_" d="m330.3 218.5h30.2c0.8 0 1.4 0.6 1.4 1.4v13.5c0 0.8-0.6 1.4-1.4 1.4h-30.2c-0.8 0-1.4-0.6-1.4-1.4v-13.5c0-0.8 0.6-1.4 1.4-1.4z" fill="#868580"/></g><g id="XMLID_445_"><path id="XMLID_448_" d="m38.8 240.3h26.8c0.8 0 1.4 0.6 1.4 1.4v19.8c0 0.8-0.6 1.4-1.4 1.4h-26.8c-0.8 0-1.4-0.6-1.4-1.4v-19.8c-0.1-0.7 0.6-1.4 1.4-1.4z" fill="#60605d"/><path id="XMLID_446_" d="m41.7 242.5h20.9c0.8 0 1.4 0.6 1.4 1.4v13.5c0 0.8-0.6 1.4-1.4 1.4h-20.9c-0.8 0-1.4-0.6-1.4-1.4v-13.4c0-0.8 0.6-1.5 1.4-1.5z" fill="#868580"/></g><g id="XMLID_440_"><path id="XMLID_443_" d="m69.7 240.3h26.8c0.8 0 1.4 0.6 1.4 1.4v19.8c0 0.8-0.6 1.4-1.4 1.4h-26.8c-0.8 0-1.4-0.6-1.4-1.4v-19.8c-0.1-0.7 0.6-1.4 1.4-1.4z" fill="#60605d"/><path id="XMLID_441_" d="m72.6 242.5h20.9c0.8 0 1.4 0.6 1.4 1.4v13.5c0 0.8-0.6 1.4-1.4 1.4h-20.9c-0.8 0-1.4-0.6-1.4-1.4v-13.4c0-0.8 0.6-1.5 1.4-1.5z" fill="#868580"/></g><g id="XMLID_435_"><path id="XMLID_438_" d="m290.1 240.3h25.8c0.8 0 1.4 0.6 1.4 1.4v19.8c0 0.8-0.6 1.4-1.4 1.4h-25.8c-0.8 0-1.4-0.6-1.4-1.4v-19.8c-0.1-0.7 0.6-1.4 1.4-1.4z" fill="#60605d"/><path id="XMLID_436_" d="m293 242.5h19.9c0.8 0 1.4 0.6 1.4 1.4v13.5c0 0.8-0.6 1.4-1.4 1.4h-19.9c-0.8 0-1.4-0.6-1.4-1.4v-13.4c0-0.8 0.6-1.5 1.4-1.5z" fill="#868580"/></g><g id="XMLID_405_"><path id="XMLID_408_" d="m19.5 192.2h28.5c0.8 0 1.4 0.6 1.4 1.4v19.8c0 0.8-0.6 1.4-1.4 1.4h-28.5c-0.8 0-1.4-0.6-1.4-1.4v-19.8c-0.1-0.7 0.6-1.4 1.4-1.4z" fill="#60605d"/><path id="XMLID_406_" d="m22.4 194.4h22.6c0.8 0 1.4 0.6 1.4 1.4v13.5c0 0.8-0.6 1.4-1.4 1.4h-22.6c-0.8 0-1.4-0.6-1.4-1.4v-13.5c0-0.7 0.6-1.4 1.4-1.4z" fill="#868580"/></g><g id="XMLID_400_"><path id="XMLID_403_" d="m52.7 192.2h19.2c0.8 0 1.4 0.6 1.4 1.4v19.8c0 0.8-0.6 1.4-1.4 1.4h-19.2c-0.8 0-1.4-0.6-1.4-1.4v-19.8c0-0.7 0.6-1.4 1.4-1.4z" fill="#60605d"/><path id="XMLID_401_" d="m55.7 194.4h13.3c0.8 0 1.4 0.6 1.4 1.4v13.5c0 0.8-0.6 1.4-1.4 1.4h-13.3c-0.8 0-1.4-0.6-1.4-1.4v-13.5c0-0.7 0.6-1.4 1.4-1.4z" fill="#868580"/></g><g id="XMLID_395_"><path id="XMLID_398_" d="m368.1 144.2h19.2c0.8 0 1.4 0.6 1.4 1.4v19.8c0 0.8-0.6 1.4-1.4 1.4h-19.2c-0.8 0-1.4-0.6-1.4-1.4v-19.8c0-0.8 0.6-1.4 1.4-1.4z" fill="#60605d"/><path id="XMLID_396_" d="m371.1 146.4h13.3c0.8 0 1.4 0.6 1.4 1.4v13.5c0 0.8-0.6 1.4-1.4 1.4h-13.3c-0.8 0-1.4-0.6-1.4-1.4v-13.5c-0.1-0.8 0.6-1.4 1.4-1.4z" fill="#868580"/></g><g id="XMLID_380_"><path id="XMLID_383_" d="m391.8 144.2h19.2c0.8 0 1.4 0.6 1.4 1.4v19.8c0 0.8-0.6 1.4-1.4 1.4h-19.2c-0.8 0-1.4-0.6-1.4-1.4v-19.8c0-0.8 0.6-1.4 1.4-1.4z" fill="#60605d"/><path id="XMLID_381_" d="m394.8 146.4h13.3c0.8 0 1.4 0.6 1.4 1.4v13.5c0 0.8-0.6 1.4-1.4 1.4h-13.3c-0.8 0-1.4-0.6-1.4-1.4v-13.5c-0.1-0.8 0.6-1.4 1.4-1.4z" fill="#868580"/></g><g id="XMLID_375_"><path id="XMLID_378_" d="m19.5 168.2h45.8c0.8 0 1.4 0.6 1.4 1.4v19.8c0 0.8-0.6 1.4-1.4 1.4h-45.8c-0.8 0-1.4-0.6-1.4-1.4v-19.8c-0.1-0.8 0.6-1.4 1.4-1.4z" fill="#60605d"/><path id="XMLID_376_" d="m22.4 170.4h39.9c0.8 0 1.4 0.6 1.4 1.4v13.5c0 0.8-0.6 1.4-1.4 1.4h-39.9c-0.8 0-1.4-0.6-1.4-1.4v-13.5c0-0.8 0.6-1.4 1.4-1.4z" fill="#868580"/></g><g id="XMLID_370_"><path id="XMLID_373_" d="m19.5 144.2h33.4c0.8 0 1.4 0.6 1.4 1.4v19.8c0 0.8-0.6 1.4-1.4 1.4h-33.4c-0.8 0-1.4-0.6-1.4-1.4v-19.8c-0.1-0.8 0.6-1.4 1.4-1.4z" fill="#60605d"/><path id="XMLID_371_" d="m22.4 146.4h27.5c0.8 0 1.4 0.6 1.4 1.4v13.5c0 0.8-0.6 1.4-1.4 1.4h-27.5c-0.8 0-1.4-0.6-1.4-1.4v-13.5c0-0.8 0.6-1.4 1.4-1.4z" fill="#868580"/></g><g id="XMLID_528_"><path id="XMLID_28_" d="m356.8 168.2h30.5c0.8 0 1.4 0.6 1.4 1.4v43.7c0 0.8-0.6 1.4-1.4 1.4h-23.5c-0.8 0-1.4-0.6-1.4-1.4v-18.7c0-2.4-1.5-3.2-3.7-3.2-3 0-3.3-1.8-3.3-3v-18.8c0-0.8 0.7-1.4 1.4-1.4z" fill="#60605d"/><path id="XMLID_558_" d="m359.7 170.3h24.8c0.8 0 1.4 0.6 1.4 1.4v37.7c0 0.8-0.6 1.4-1.4 1.4h-17.8c-0.8 0-1.4-0.6-1.4-1.4v-16.6c0-2-1.9-3-3.6-3-3.1 0-3.4-2.1-3.4-3.1v-15c0-0.8 0.6-1.4 1.4-1.4z" fill="#868580"/></g><g id="XMLID_531_"><path id="XMLID_561_" d="m19.4 105.7h19.4c0.8 0 1.4 0.6 1.4 1.4v19.8c0 0.8-0.6 1.4-1.4 1.4h-19.4c-0.8 0-1.4-0.6-1.4-1.4v-19.8c-0.1-0.8 0.6-1.4 1.4-1.4z" fill="#60605d"/><path id="XMLID_559_" d="m22.3 107.9h13.5c0.8 0 1.4 0.6 1.4 1.4v13.5c0 0.8-0.6 1.4-1.4 1.4h-13.5c-0.8 0-1.4-0.6-1.4-1.4v-13.5c0-0.8 0.6-1.4 1.4-1.4z" fill="#868580"/></g><g id="XMLID_568_"><path id="XMLID_571_" d="m56.7 105.7h26.2c0.8 0 1.4 0.6 1.4 1.4v19.8c0 0.8-0.6 1.4-1.4 1.4h-26.2c-0.8 0-1.4-0.6-1.4-1.4v-19.8c0-0.8 0.6-1.4 1.4-1.4z" fill="#60605d"/><path id="XMLID_569_" d="m59.7 107.9h20.3c0.8 0 1.4 0.6 1.4 1.4v13.5c0 0.8-0.6 1.4-1.4 1.4h-20.3c-0.8 0-1.4-0.6-1.4-1.4v-13.5c-0.1-0.8 0.6-1.4 1.4-1.4z" fill="#868580"/></g><g id="XMLID_573_"><path id="XMLID_576_" d="m87.1 105.7h26.2c0.8 0 1.4 0.6 1.4 1.4v19.8c0 0.8-0.6 1.4-1.4 1.4h-26.2c-0.8 0-1.4-0.6-1.4-1.4v-19.8c-0.1-0.8 0.6-1.4 1.4-1.4z" fill="#60605d"/><path id="XMLID_574_" d="m90 107.9h20.3c0.8 0 1.4 0.6 1.4 1.4v13.5c0 0.8-0.6 1.4-1.4 1.4h-20.3c-0.8 0-1.4-0.6-1.4-1.4v-13.5c0-0.8 0.6-1.4 1.4-1.4z" fill="#868580"/></g><g id="XMLID_578_"><path id="XMLID_581_" d="m117.4 105.7h26.2c0.8 0 1.4 0.6 1.4 1.4v19.8c0 0.8-0.6 1.4-1.4 1.4h-26.2c-0.8 0-1.4-0.6-1.4-1.4v-19.8c0-0.8 0.7-1.4 1.4-1.4z" fill="#60605d"/><path id="XMLID_579_" d="m120.4 107.9h20.3c0.8 0 1.4 0.6 1.4 1.4v13.5c0 0.8-0.6 1.4-1.4 1.4h-20.3c-0.8 0-1.4-0.6-1.4-1.4v-13.5c0-0.8 0.6-1.4 1.4-1.4z" fill="#868580"/></g><g id="XMLID_583_"><path id="XMLID_586_" d="m147.8 105.7h26.2c0.8 0 1.4 0.6 1.4 1.4v19.8c0 0.8-0.6 1.4-1.4 1.4h-26.2c-0.8 0-1.4-0.6-1.4-1.4v-19.8c0-0.8 0.6-1.4 1.4-1.4z" fill="#60605d"/><path id="XMLID_584_" d="m150.8 107.9h20.3c0.8 0 1.4 0.6 1.4 1.4v13.5c0 0.8-0.6 1.4-1.4 1.4h-20.3c-0.8 0-1.4-0.6-1.4-1.4v-13.5c-0.1-0.8 0.6-1.4 1.4-1.4z" fill="#868580"/></g><g id="XMLID_588_"><path id="XMLID_591_" d="m178.2 105.7h26.2c0.8 0 1.4 0.6 1.4 1.4v19.8c0 0.8-0.6 1.4-1.4 1.4h-26.2c-0.8 0-1.4-0.6-1.4-1.4v-19.8c0-0.8 0.6-1.4 1.4-1.4z" fill="#60605d"/><path id="XMLID_589_" d="m181.2 107.9h20.3c0.8 0 1.4 0.6 1.4 1.4v13.5c0 0.8-0.6 1.4-1.4 1.4h-20.3c-0.8 0-1.4-0.6-1.4-1.4v-13.5c-0.1-0.8 0.6-1.4 1.4-1.4z" fill="#868580"/></g><g id="XMLID_613_"><path id="XMLID_616_" d="m218.5 105.7h26.2c0.8 0 1.4 0.6 1.4 1.4v19.8c0 0.8-0.6 1.4-1.4 1.4h-26.2c-0.8 0-1.4-0.6-1.4-1.4v-19.8c0-0.8 0.6-1.4 1.4-1.4z" fill="#60605d"/><path id="XMLID_614_" d="m221.5 107.9h20.3c0.8 0 1.4 0.6 1.4 1.4v13.5c0 0.8-0.6 1.4-1.4 1.4h-20.3c-0.8 0-1.4-0.6-1.4-1.4v-13.5c-0.1-0.8 0.6-1.4 1.4-1.4z" fill="#868580"/></g><g id="XMLID_608_"><path id="XMLID_611_" d="m248.9 105.7h26.1c0.8 0 1.4 0.6 1.4 1.4v19.8c0 0.8-0.6 1.4-1.4 1.4h-26.2c-0.8 0-1.4-0.6-1.4-1.4v-19.8c0-0.8 0.7-1.4 1.5-1.4z" fill="#60605d"/><path id="XMLID_609_" d="m251.8 107.9h20.3c0.8 0 1.4 0.6 1.4 1.4v13.5c0 0.8-0.6 1.4-1.4 1.4h-20.3c-0.8 0-1.4-0.6-1.4-1.4v-13.5c0-0.8 0.6-1.4 1.4-1.4z" fill="#868580"/></g><g id="XMLID_603_"><path id="XMLID_606_" d="m279.2 105.7h26.2c0.8 0 1.4 0.6 1.4 1.4v19.8c0 0.8-0.6 1.4-1.4 1.4h-26.2c-0.8 0-1.4-0.6-1.4-1.4v-19.8c0-0.8 0.7-1.4 1.4-1.4z" fill="#60605d"/><path id="XMLID_604_" d="m282.2 107.9h20.3c0.8 0 1.4 0.6 1.4 1.4v13.5c0 0.8-0.6 1.4-1.4 1.4h-20.3c-0.8 0-1.4-0.6-1.4-1.4v-13.5c0-0.8 0.6-1.4 1.4-1.4z" fill="#868580"/></g><g id="XMLID_598_"><path id="XMLID_601_" d="m309.6 105.7h26.2c0.8 0 1.4 0.6 1.4 1.4v19.8c0 0.8-0.6 1.4-1.4 1.4h-26.2c-0.8 0-1.4-0.6-1.4-1.4v-19.8c0-0.8 0.6-1.4 1.4-1.4z" fill="#60605d"/><path id="XMLID_599_" d="m312.6 107.9h20.3c0.8 0 1.4 0.6 1.4 1.4v13.5c0 0.8-0.6 1.4-1.4 1.4h-20.3c-0.8 0-1.4-0.6-1.4-1.4v-13.5c-0.1-0.8 0.6-1.4 1.4-1.4z" fill="#868580"/></g><g id="XMLID_593_"><path id="XMLID_596_" d="m340 105.7h26.2c0.8 0 1.4 0.6 1.4 1.4v19.8c0 0.8-0.6 1.4-1.4 1.4h-26.2c-0.8 0-1.4-0.6-1.4-1.4v-19.8c0-0.8 0.6-1.4 1.4-1.4z" fill="#60605d"/><path id="XMLID_594_" d="m343 107.9h20.3c0.8 0 1.4 0.6 1.4 1.4v13.5c0 0.8-0.6 1.4-1.4 1.4h-20.3c-0.8 0-1.4-0.6-1.4-1.4v-13.5c-0.1-0.8 0.6-1.4 1.4-1.4z" fill="#868580"/></g><g id="XMLID_122_"><path id="XMLID_487_" d="m384.8 105.7h26.2c0.8 0 1.4 0.6 1.4 1.4v19.8c0 0.8-0.6 1.4-1.4 1.4h-26.2c-0.8 0-1.4-0.6-1.4-1.4v-19.8c0-0.8 0.6-1.4 1.4-1.4z" fill="#60605d"/><path id="XMLID_124_" d="m387.8 107.9h20.3c0.8 0 1.4 0.6 1.4 1.4v13.5c0 0.8-0.6 1.4-1.4 1.4h-20.3c-0.8 0-1.4-0.6-1.4-1.4v-13.5c0-0.8 0.6-1.4 1.4-1.4z" fill="#868580"/></g></g><g id="lights" fill-rule="evenodd"><path id="XMLID_91_" d="m399.1 177.2h8.7s0.1 0.1 0.1 0.2v2.8c0 0.1 0 0.2-0.1 0.2h-8.7s-0.1-0.1-0.1-0.2v-2.8c0-0.1 0.1-0.2 0.1-0.2z" fill="#bad532"/><path id="XMLID_89_" d="m399.1 201h8.7s0.1 0.1 0.1 0.2v2.8c0 0.1 0 0.2-0.1 0.2h-8.7s-0.1-0.1-0.1-0.2v-2.8c0-0.1 0.1-0.2 0.1-0.2z" fill="#525056"/><path id="XMLID_87_" d="m399.1 224.9h8.7s0.1 0.1 0.1 0.2v2.8c0 0.1 0 0.2-0.1 0.2h-8.7s-0.1-0.1-0.1-0.2v-2.8c0-0.1 0.1-0.2 0.1-0.2z" fill="#525056"/><path id="XMLID_494_" d="m406.4 179.6h-5.9c-0.3 0-0.6-0.3-0.6-0.6v-0.4c0-0.3 0.3-0.6 0.6-0.6h5.9c0.3 0 0.6 0.3 0.6 0.6v0.4c0.1 0.4-0.2 0.6-0.6 0.6z" fill="#e7e514"/></g><g id="plaque" fill-rule="evenodd"><path id="XMLID_51_" d="m18.5 92.1v-14.2c0-0.5 0.4-1 1-1h60.7c0.1 0 0.3 0 0.4 0.1-0.2-0.2-0.4-0.4-0.7-0.4h-60.8c-0.5 0-1 0.4-1 1v14.2c0 0.4 0.2 0.7 0.6 0.9-0.1-0.2-0.2-0.4-0.2-0.6z" fill="#eaeaea"/><path id="XMLID_60_" d="m80.3 76.8c0.1 0.1 0.1 0.3 0.1 0.5v14.2c0 0.5-0.4 1-1 1h-60.7c-0.2 0-0.3-0.1-0.5-0.1 0.2 0.3 0.5 0.5 0.8 0.5h60.7c0.5 0 1-0.4 1-1v-14.3c0.1-0.3-0.1-0.6-0.4-0.8z" fill="#777878"/></g><g id="a600_x5F_logo"><path id="XMLID_430_" d="m46.9 89.1 1.3-2 0.3 2h-1.6zm3.2 2.1 0.1-0.2h-0.2c-0.1 0-0.2-0.1-0.2-0.1l-0.2-0.2c0-0.1-0.1-0.1-0.1-0.2l-0.7-4.5h-0.3c-0.4 0.6-0.8 1.3-1.3 2.2-0.5 0.8-1 1.6-1.4 2.3-0.1 0.1-0.2 0.3-0.3 0.3-0.1 0.1-0.2 0.1-0.2 0.2-0.1 0-0.2 0.1-0.3 0.1h-0.2l-0.1 0.2h2l0.1-0.2c-0.2 0-0.4 0-0.5-0.1-0.1 0-0.2-0.1-0.2-0.2 0 0 0-0.1 0.1-0.2 0-0.1 0.1-0.2 0.1-0.3s0.1-0.2 0.2-0.4 0.2-0.3 0.3-0.4h1.8c0.1 0.4 0.1 0.7 0.1 0.9v0.4c0 0.1 0 0.1-0.1 0.1 0 0-0.1 0.1-0.2 0.1h-0.2-0.3l-0.1 0.2h2.3z" fill="#192753"/><path id="XMLID_427_" d="m55.8 88.3c-0.2-0.3-0.5-0.4-0.9-0.4-0.2 0-0.5 0-0.7 0.1s-0.5 0.2-0.7 0.4c0.2-0.5 0.5-1 0.9-1.4s0.9-0.6 1.4-0.8h0.3v-0.3c-0.5 0.1-1 0.2-1.4 0.4s-0.8 0.5-1.1 0.8-0.6 0.7-0.8 1.2c-0.2 0.4-0.3 0.9-0.3 1.4s0.1 0.9 0.4 1.2 0.6 0.4 1.1 0.4c0.3 0 0.6-0.1 0.8-0.2 0.3-0.1 0.5-0.3 0.7-0.5s0.3-0.4 0.5-0.7c0.1-0.3 0.2-0.5 0.2-0.8s-0.1-0.6-0.4-0.8zm-0.8 2.3c-0.3 0.3-0.5 0.5-0.9 0.5-0.3 0-0.5-0.1-0.6-0.3s-0.2-0.5-0.2-0.9c0-0.2 0-0.5 0.1-0.7 0-0.2 0.1-0.3 0.1-0.4 0.2-0.1 0.3-0.3 0.5-0.3 0.2-0.1 0.4-0.1 0.6-0.1 0.3 0 0.5 0.1 0.6 0.3 0.2 0.2 0.2 0.4 0.2 0.8 0 0.3-0.1 0.7-0.4 1.1z" fill="#192753"/><path id="XMLID_115_" d="m60.5 87.6c-0.3-0.3-0.7-0.4-1.2-0.4-0.3 0-0.7 0.1-1 0.2s-0.6 0.3-0.8 0.6-0.4 0.5-0.5 0.9c-0.1 0.3-0.2 0.7-0.2 1 0 0.4 0.1 0.8 0.4 1.1s0.7 0.4 1.2 0.4c0.4 0 0.7-0.1 1-0.2s0.6-0.3 0.8-0.6c0.2-0.2 0.4-0.5 0.5-0.9 0.1-0.3 0.2-0.7 0.2-1 0-0.5-0.1-0.8-0.4-1.1zm-0.5 1.7-0.3 0.9c-0.2 0.3-0.4 0.6-0.6 0.7-0.2 0.2-0.4 0.2-0.7 0.2s-0.5-0.1-0.6-0.3-0.2-0.4-0.2-0.8c0-0.2 0-0.5 0.1-0.8s0.2-0.6 0.3-0.8c0.1-0.3 0.3-0.5 0.5-0.7s0.5-0.2 0.7-0.2c0.3 0 0.5 0.1 0.6 0.3s0.2 0.4 0.2 0.8c0.1 0.1 0.1 0.4 0 0.7z" fill="#192753"/><path id="XMLID_105_" d="m65.1 87.6c-0.3-0.3-0.7-0.4-1.2-0.4-0.3 0-0.7 0.1-1 0.2s-0.6 0.3-0.8 0.6-0.4 0.5-0.5 0.9-0.2 0.7-0.2 1c0 0.4 0.1 0.8 0.4 1.1s0.7 0.4 1.2 0.4c0.4 0 0.7-0.1 1-0.2s0.6-0.3 0.8-0.6c0.2-0.2 0.4-0.5 0.5-0.9 0.1-0.3 0.2-0.7 0.2-1 0.1-0.5-0.1-0.8-0.4-1.1zm-0.4 1.7-0.3 0.9c-0.2 0.3-0.4 0.6-0.6 0.7-0.2 0.2-0.4 0.2-0.7 0.2s-0.5-0.1-0.6-0.3-0.2-0.4-0.2-0.8c0-0.2 0-0.5 0.1-0.8s0.2-0.6 0.3-0.8c0.1-0.3 0.3-0.5 0.5-0.7s0.5-0.2 0.7-0.2c0.3 0 0.5 0.1 0.6 0.3s0.2 0.4 0.2 0.8c0.1 0.1 0 0.4 0 0.7z" fill="#192753"/><path id="path3002" d="m26 78.3c-3.4 0-6.1 2.7-6.1 6.1s2.7 6.1 6.1 6.1c0.7 0 1.3-0.1 1.9-0.3v-3.1c-0.5 0.3-1.1 0.5-1.7 0.5-1.9 0-3.4-1.5-3.4-3.2 0-1.8 1.5-3.2 3.4-3.2 0.6 0 1.2 0.2 1.7 0.5v-3.1c-0.6-0.2-1.3-0.3-1.9-0.3z" fill="#192753"/><polygon id="polygon9367" points="30.4 84.3 27.9 84.3 27.9 82.1 27.9 82.1 32.5 82.1" fill="#192753"/><polygon id="polygon9369" points="30.4 84.7 27.9 84.7 27.9 86.8 27.9 86.8 32.5 86.8" fill="#ed2224"/><path id="path3067" d="m43.8 82.9c0.5 0 1-0.2 1.3-0.4 0.3-0.3 0.5-0.7 0.5-1.2s-0.2-0.9-0.5-1.2-0.8-0.4-1.3-0.4-1 0.2-1.3 0.4c-0.3 0.3-0.5 0.7-0.5 1.2s0.2 0.9 0.5 1.2 0.8 0.4 1.3 0.4zm0-0.8c-0.3 0-0.4-0.1-0.6-0.3-0.1-0.2-0.2-0.4-0.2-0.6s0.1-0.5 0.2-0.6c0.1-0.2 0.3-0.3 0.6-0.3s0.4 0.1 0.6 0.3c0.1 0.2 0.2 0.4 0.2 0.6s-0.1 0.5-0.2 0.6-0.3 0.3-0.6 0.3z" fill="#192753"/><path id="path3069" d="m46.1 82.8h1.1v-1.4c0-0.3 0.1-0.6 0.2-0.8s0.3-0.2 0.5-0.2 0.3 0.1 0.3 0.2c0.1 0.1 0.1 0.3 0.1 0.5v1.7h1.1v-1.4c0-0.3 0.1-0.6 0.2-0.8s0.3-0.2 0.5-0.2 0.3 0.1 0.3 0.2c0.1 0.1 0.1 0.3 0.1 0.5v1.7h1.1v-1.9c0-0.4-0.1-0.8-0.2-1-0.2-0.2-0.5-0.4-0.9-0.4-0.2 0-0.4 0-0.6 0.1s-0.4 0.3-0.5 0.5c-0.1-0.2-0.2-0.4-0.4-0.5s-0.4-0.2-0.6-0.2c-0.3 0-0.5 0.1-0.7 0.2s-0.4 0.3-0.5 0.5v-0.6h-1v3.3z" fill="#192753"/><path id="path3071" d="m52.2 82.8h1.1v-1.4c0-0.3 0.1-0.6 0.2-0.8s0.3-0.2 0.5-0.2 0.3 0.1 0.3 0.2c0.1 0.1 0.1 0.3 0.1 0.5v1.7h1.1v-1.4c0-0.3 0.1-0.6 0.2-0.8s0.3-0.2 0.5-0.2 0.3 0.1 0.3 0.2c0.1 0.1 0.1 0.3 0.1 0.5v1.7h1.1v-1.9c0-0.4-0.1-0.8-0.2-1-0.2-0.2-0.5-0.4-0.9-0.4-0.2 0-0.4 0-0.6 0.1s-0.4 0.3-0.5 0.5c-0.1-0.2-0.2-0.4-0.4-0.5s-0.4-0.2-0.6-0.2c-0.3 0-0.5 0.1-0.7 0.2s-0.4 0.3-0.5 0.5v-0.6h-1v3.3z" fill="#192753"/><path id="path3073" d="m60 82.9c0.5 0 1-0.2 1.3-0.4 0.3-0.3 0.5-0.7 0.5-1.2s-0.2-0.9-0.5-1.2-0.8-0.4-1.3-0.4-1 0.2-1.3 0.4c-0.3 0.3-0.5 0.7-0.5 1.2s0.2 0.9 0.5 1.2 0.7 0.4 1.3 0.4zm0-0.8c-0.3 0-0.4-0.1-0.6-0.3s-0.2-0.4-0.2-0.6 0.1-0.5 0.2-0.6c0.1-0.2 0.3-0.3 0.6-0.3s0.4 0.1 0.6 0.3c0.1 0.2 0.2 0.4 0.2 0.6s-0.1 0.5-0.2 0.6c-0.2 0.2-0.4 0.3-0.6 0.3z" fill="#192753"/><path id="path3075" d="m65.8 78.2h-1.1v1.8c-0.1-0.2-0.3-0.3-0.5-0.4s-0.4-0.1-0.6-0.1c-0.4 0-0.8 0.2-1 0.5s-0.4 0.7-0.4 1.1c0 0.5 0.1 0.9 0.4 1.2 0.2 0.3 0.6 0.5 1.1 0.5 0.3 0 0.5-0.1 0.7-0.2s0.3-0.3 0.4-0.5v0.6h1v-4.5zm-2.5 3c0-0.2 0.1-0.4 0.2-0.6s0.3-0.2 0.5-0.2 0.4 0.1 0.5 0.2c0.1 0.2 0.2 0.4 0.2 0.6s-0.1 0.4-0.2 0.6-0.3 0.2-0.5 0.2-0.4-0.1-0.5-0.2-0.2-0.3-0.2-0.6z" fill="#192753"/><path id="path3077" d="m68 82.9c0.5 0 1-0.2 1.3-0.4 0.3-0.3 0.5-0.7 0.5-1.2s-0.2-0.9-0.5-1.2-0.8-0.4-1.3-0.4-1 0.2-1.3 0.4c-0.3 0.3-0.5 0.7-0.5 1.2s0.2 0.9 0.5 1.2c0.4 0.3 0.8 0.4 1.3 0.4zm0-0.8c-0.3 0-0.4-0.1-0.6-0.3-0.1-0.2-0.2-0.4-0.2-0.6s0.1-0.5 0.2-0.6c0.1-0.2 0.3-0.3 0.6-0.3s0.4 0.1 0.6 0.3c0.1 0.2 0.2 0.4 0.2 0.6s-0.1 0.5-0.2 0.6c-0.1 0.2-0.3 0.3-0.6 0.3z" fill="#192753"/><path id="path3079" d="m72.7 79.6h-0.2-0.2c-0.2 0-0.4 0.1-0.6 0.2s-0.3 0.3-0.4 0.5v-0.6h-1v3.2h1.1v-1.4c0-0.3 0.1-0.6 0.2-0.7 0.1-0.2 0.3-0.3 0.6-0.3h0.2 0.2l0.1-0.9z" fill="#192753"/><path id="path3081" d="m76.2 81.6v-0.2c0-0.5-0.1-0.9-0.4-1.3-0.2-0.3-0.7-0.5-1.3-0.5-0.5 0-0.9 0.2-1.2 0.4-0.3 0.3-0.5 0.7-0.5 1.2s0.2 0.9 0.5 1.2 0.8 0.4 1.3 0.4h0.6c0.2 0 0.4-0.1 0.6-0.2v-0.8c-0.2 0.1-0.3 0.2-0.5 0.2s-0.3 0.1-0.5 0.1c-0.3 0-0.5 0-0.7-0.1s-0.3-0.3-0.3-0.5h2.4zm-2.2-0.7c0-0.2 0.1-0.3 0.2-0.5 0.1-0.1 0.2-0.2 0.4-0.2s0.4 0.1 0.5 0.2 0.1 0.3 0.1 0.5h-1.2z" fill="#192753"/><path id="path3064" d="m39.6 82.9c-0.5-0.1-0.8-0.3-1.2-0.7-0.3-0.3-0.4-0.6-0.5-1.2-0.2-1.1 0.3-2.1 1.2-2.5 0.4-0.2 1-0.3 1.6-0.3 0.4 0 0.7 0.1 1 0.1l-0.1 1s-0.1 0-0.3-0.1-0.4-0.1-0.6-0.1c-0.4 0-0.8 0.1-1.1 0.3-0.6 0.5-0.6 1.7 0 2.3 0.4 0.3 1.1 0.4 1.7 0.3l0.3-0.1 0.1 1c-0.2 0-0.6 0.1-1.1 0.1s-0.7-0.1-1-0.1z" fill="#192753"/><rect id="XMLID_36_" x="35.4" y="84.3" width="43.4" height=".4" fill="#192753"/></g><g id="amiga_x5F_logo_x5F_big"><g id="XMLID_50_" fill="#777878"><g id="XMLID_75_"><polygon id="XMLID_77_" points="324.1 80 317.6 88 318.4 88 324 81"/><path id="XMLID_78_" d="m328 74.5v17 1.6c0 0.7 0.2 1.2 0.5 1.6 0.2 0.2 0.4 0.3 0.7 0.4-0.1 0-0.1-0.1-0.1-0.1-0.3-0.3-0.5-0.8-0.5-1.6v-1.6-17.3h-0.6z"/><path id="XMLID_80_" d="m315.2 95.5v0.3h-5.8l-0.1 0.3h6.4v-0.5c-0.2-0.1-0.3-0.1-0.5-0.1z"/><path id="XMLID_88_" d="m324 89h-7.1l-1.3 1.6-1.4 1.8c-0.3 0.4-0.5 0.7-0.6 1.1-0.1 0.2-0.1 0.5-0.1 0.7 0 0.3 0.2 0.5 0.4 0.7 0.1 0.1 0.3 0.2 0.4 0.2-0.2-0.2-0.3-0.4-0.4-0.6 0-0.2 0-0.5 0.1-0.7 0.1-0.3 0.3-0.7 0.6-1.1l1.4-1.8 1.3-1.6h6.6l0.1-0.3z"/><path id="XMLID_90_" d="m329.9 95.5-0.1 0.4h-8.7l-0.1 0.3h9.2l0.1-0.5c0-0.2-0.2-0.2-0.4-0.2z"/></g><g id="XMLID_61_"><path id="XMLID_63_" d="m339.8 78.7-0.2-1.5-3.7 14.8c-0.1 0.6-0.2 1.1-0.2 1.5 0 0.5 0.2 0.9 0.6 1.3 0.1 0.1 0.3 0.2 0.5 0.3-0.4-0.3-0.6-0.7-0.6-1.3 0-0.4 0-0.9 0.2-1.5l3.4-13.6z"/><polygon id="XMLID_86_" points="343.9 74.9 343.5 74.9 345.8 89.8 346.2 89.2"/><path id="XMLID_92_" d="m362.6 74.9-0.1 0.3c-1 0-1.8 0.2-2.3 0.7-0.5 0.4-0.9 1.3-1.3 2.6l-3.4 13.5c-0.2 0.9-0.3 1.5-0.3 1.9s0.2 0.7 0.5 0.9c0.1 0.1 0.2 0.1 0.4 0.2-0.2-0.2-0.4-0.5-0.4-0.8 0-0.4 0.1-1.1 0.3-1.9l3.4-13.6c0.3-1.3 0.7-2.2 1.3-2.6 0.5-0.4 1.3-0.7 2.3-0.7l0.2-0.5h-0.6z"/><path id="XMLID_93_" d="m357.5 95.8h-10.1l-0.1 0.3h10.7l0.1-0.5h-0.6v0.2z"/><polygon id="XMLID_94_" points="354.8 77.4 342.7 95.8 342.5 95.8 342.6 96.1 343.2 96.1 354.4 79.1"/><path id="XMLID_102_" d="m338 95.8h-6.5l-0.1 0.3h7.1l0.1-0.5h-0.6v0.2z"/></g><g id="XMLID_58_"><line id="XMLID_31_" x1="365.1" x2="365.1" y1="75.3" y2="75.5"/><path id="XMLID_82_" d="m370.4 95.8h-10l-0.1 0.3h10.6l0.1-0.5h-0.6v0.2z"/><path id="XMLID_101_" d="m375 74.9-0.1 0.3c-0.9 0-1.7 0.2-2.1 0.6-0.5 0.4-0.9 1.3-1.2 2.6l-3.4 13.6c-0.2 1-0.4 1.6-0.3 1.9 0 0.4 0.2 0.7 0.5 0.9 0.1 0.1 0.2 0.1 0.4 0.2-0.2-0.2-0.4-0.5-0.4-0.8s0.1-1 0.3-1.9l3.4-13.5c0.3-1.3 0.7-2.2 1.2-2.6s1.2-0.6 2.1-0.6l0.2-0.5h-0.6z"/></g><g id="XMLID_52_"><path id="XMLID_53_" d="m394.9 75.1-1 5.8h-0.1v0.3h0.5l1-5.8s0-0.6-0.2-0.8-0.3-0.2-0.3-0.2h-0.1c0.2 0.3 0.2 0.7 0.2 0.7z"/><path id="XMLID_54_" d="m380.5 93.6c0.5 0.5 1.1 0.9 1.6 1.2-0.4-0.2-0.8-0.6-1.1-0.9-1-1.1-1.6-2.7-1.7-4.8-0.1-2.4 0.5-4.7 1.5-6.9s2.8-3.8 4.3-4.9 3.4-1.6 4.9-1.6c0.6 0 1 0.1 1.3 0.2-0.5-0.3-1-0.5-1.8-0.5-1.5 0-3.4 0.6-4.9 1.6-1.5 1.1-3.3 2.7-4.3 4.9s-1.6 4.5-1.5 6.9c0.1 2.1 0.7 3.7 1.7 4.8z"/><path id="XMLID_97_" d="m394.7 86c-0.5 0-1 0.1-1.3 0.3s-0.5 0.4-0.7 0.8c-0.1 0.2-0.2 0.7-0.4 1.6l-1.6 6.3c-2.2 0.9-4.6 1.4-7.1 1.4-1.9 0-3.5-0.3-4.9-1 0.1 0.1 0.3 0.2 0.4 0.3 1.4 0.7 3 1 5 1 2.5 0 4.9-0.5 7.1-1.4l1.6-6.3c0.2-0.8 0.3-1.4 0.4-1.6 0.2-0.3 0.4-0.6 0.7-0.8s0.7-0.3 1.3-0.3l0.1-0.6h-0.6v0.3z"/></g><g id="XMLID_55_"><path id="XMLID_57_" d="m398.1 95.5v0.3h-5.8l-0.1 0.3h6.4v-0.5c-0.2-0.1-0.3-0.1-0.5-0.1z"/><path id="XMLID_84_" d="m411 74.5v17 1.6c0 0.7 0.2 1.2 0.5 1.6 0.2 0.2 0.4 0.3 0.7 0.4-0.1 0-0.1-0.1-0.1-0.1-0.3-0.3-0.5-0.8-0.5-1.6v-1.6-17.3h-0.6z"/><polygon id="XMLID_100_" points="407.5 79.5 400.6 88 401.4 88 407.5 80.4"/><path id="XMLID_103_" d="m406.9 89h-7.1l-1.3 1.6-1.4 1.8c-0.3 0.4-0.5 0.7-0.6 1.1-0.1 0.2-0.1 0.5-0.1 0.7 0 0.3 0.2 0.5 0.4 0.7 0.1 0.1 0.3 0.2 0.4 0.2-0.2-0.2-0.3-0.4-0.4-0.6 0-0.2 0-0.5 0.1-0.7 0.1-0.3 0.3-0.7 0.6-1.1l1.4-1.8 1.3-1.6h6.6l0.1-0.3z"/><path id="XMLID_104_" d="m412.9 95.5-0.1 0.4h-8.7l-0.1 0.3h9.2l0.1-0.5c-0.1-0.2-0.3-0.2-0.4-0.2z"/></g></g><g id="XMLID_29_" fill="#e8e8e8"><g id="XMLID_120_"><path id="XMLID_126_" d="m310 95.8c0.6-0.1 1.1-0.3 1.5-0.6 0.6-0.4 1.4-1.3 2.4-2.6l14.4-17.9h0.2v-0.3h-0.7l-14.4 17.9c-1 1.3-1.9 2.2-2.4 2.6-0.4 0.3-0.9 0.5-1.5 0.6l-0.1 0.5h0.6v-0.2z"/><polygon id="XMLID_128_" points="324.6 80.3 324 81 323.9 88 318.6 88 318.3 88.3 324.4 88.3"/><path id="XMLID_130_" d="m321.8 95.8c0.9-0.1 1.4-0.2 1.6-0.2 0.3-0.1 0.5-0.5 0.8-0.9 0.2-0.5 0.3-1.3 0.3-2.4v-3h-0.5v2.8c0 1.2-0.1 2-0.3 2.4-0.2 0.5-0.5 0.8-0.8 0.9-0.1 0.1-0.7 0.1-1.6 0.2l-0.2 0.5h0.6l0.1-0.3z"/></g><g id="XMLID_70_"><path id="XMLID_72_" d="m336.8 75.2h7.2v-0.3h-7.6l-0.2 0.5h0.6v-0.2z"/><path id="XMLID_114_" d="m348 95.8c1.1 0 2-0.2 2.5-0.7 0.5-0.4 1-1.3 1.3-2.6l3.7-14.8-0.9 1.4-3.3 13.1c-0.3 1.3-0.8 2.2-1.3 2.6s-1.4 0.7-2.5 0.7l-0.2 0.5h0.6l0.1-0.2z"/><polygon id="XMLID_116_" points="346.4 90.1 356.2 75.2 363.1 75.2 363.2 74.9 355.7 74.9 346.2 89.2"/><polygon id="XMLID_118_" points="342.6 96.1 343 96.1 340.3 77.6 340 78.7"/><path id="XMLID_132_" d="m332.1 95.8c0.8 0 1.5-0.2 1.9-0.5 0.8-0.6 1.3-1.5 1.6-2.7l4-15.7c-0.5-0.5-0.9-0.8-1.2-0.9 0.2 0.2 0.5 0.4 0.7 0.7l-4 15.7c-0.3 1.2-0.9 2.1-1.6 2.7-0.4 0.3-1.1 0.5-1.9 0.5l-0.1 0.5h0.6v-0.3z"/></g><g id="XMLID_67_"><path id="XMLID_110_" d="m365.7 75.2h9.8l0.1-0.3h-10.4l-0.2 0.5c0.2 0 0.4 0 0.6 0.1l0.1-0.3z"/><path id="XMLID_112_" d="m361 95.8c1.1 0 1.8-0.2 2.3-0.6s0.9-1.3 1.2-2.7l3.4-13.5c0.2-0.8 0.3-1.5 0.3-1.9s-0.2-0.7-0.5-0.9c-0.1-0.1-0.2-0.1-0.4-0.2 0.2 0.2 0.3 0.5 0.3 0.8 0 0.4-0.1 1.1-0.3 1.9l-3.3 13.6c-0.3 1.4-0.8 2.3-1.2 2.7-0.5 0.4-1.2 0.6-2.3 0.6l-0.2 0.5h0.6l0.1-0.3z"/></g><g id="XMLID_32_"><path id="XMLID_33_" d="m386 86.2h0.6l0.1-0.3h8.6l0.1-0.3h-9.2l-0.2 0.6z"/><path id="XMLID_106_" d="m382.6 95c0.8 0.5 1.6 0.7 2.5 0.7 0.6 0 1.2-0.2 2-0.5l1.4-5.6c0.2-0.9 0.3-1.5 0.3-1.8 0-0.4-0.2-0.7-0.5-1-0.1-0.1-0.3-0.2-0.4-0.2 0.3 0.3 0.4 0.5 0.5 0.9 0 0.3-0.1 0.9-0.3 1.8l-1.4 5.6c-0.8 0.3-1.5 0.5-2 0.5-0.8 0.1-1.5-0.1-2.1-0.4z"/><path id="XMLID_108_" d="m376.3 92.6c-0.9-1.5-1.5-3.1-1.5-5-0.2-4 1.5-7.3 5-9.9 2.7-2 5.8-2.9 9.3-3.1 0.3 0 1.2-0.1 2.4-0.1 1 0 2.2 0 3.8 0.2 0 0 0-0.1-0.1-0.1-0.2-0.2-0.3-0.2-0.3-0.2-1.7-0.2-2.9-0.2-3.9-0.2-1.2 0-2.1 0.1-2.4 0.1-3.5 0.2-6.6 1.1-9.3 3.1-3.5 2.6-5.1 5.9-5 9.9 0.1 1.9 0.6 3.5 1.5 5s2.1 2.5 3.5 3.2c-1.2-0.6-2.2-1.6-3-2.9z"/><path id="XMLID_136_" d="m393.9 81.2h0.5c-0.1-1.8-0.2-3.1-1-3.9-0.5-0.5-0.9-0.9-1.4-1.1 0.3 0.2 0.6 0.5 0.9 0.8 0.7 0.9 0.8 2.3 1 4.2z"/></g><g id="XMLID_27_"><path id="XMLID_95_" d="m404.7 95.8c0.9-0.1 1.4-0.2 1.6-0.2 0.3-0.1 0.5-0.5 0.8-0.9 0.2-0.5 0.3-1.3 0.3-2.4v-3h-0.5v2.7c0 1.2-0.1 2-0.3 2.4-0.2 0.5-0.5 0.8-0.8 0.9-0.1 0.1-0.7 0.1-1.6 0.2l-0.2 0.5h0.6l0.1-0.2z"/><path id="XMLID_138_" d="m392.9 95.8c0.6-0.1 1.1-0.3 1.5-0.6 0.6-0.4 1.4-1.3 2.4-2.6l14.4-17.9h0.2v-0.3h-0.7l-14.4 17.9c-1 1.3-1.9 2.2-2.4 2.6-0.4 0.3-0.9 0.5-1.5 0.6l-0.1 0.5h0.6v-0.2z"/><polygon id="XMLID_139_" points="407.5 80.4 407 81 406.9 88 401.5 88 401.2 88.3 407.4 88.3"/></g></g></g><g id="g3705" transform="matrix(.69692 0 0 .69692 478.71 157.99)"><g id="layer1" transform="translate(0 -844.36)"><path id="path986" d="m181.77 1030.1h11.284v7.3612h-11.284v-7.3612zm-179.62-184.18-1.205 1.1075-0.3875 1.3988 0.19375 201.53 0.46625 1.0325 1.03 0.6587 196.11 0.1738 1.305-0.7338 0.65875-1.225-0.2725-179.79h-1.3988v-8.1988l1.1062 0.2725v-2.7975l-15.095-13.25-2.9912-0.175-0.9325 0.835h-16.046l-1.3988 1.3988-3.2638 0.0975h-107.79l1e-3 -0.9325-26.5-0.195 0.0962-1.03-23.684-0.17375 2e-3 1e-3z" fill="#3b3b3b"/><g id="g988" transform="matrix(1.25 0 0 -1.25 .5625 848.4)"><path id="path990" d="m0 0 0.149-161.22 0.373-0.821 0.821-0.522 156.9-0.149 1.044 0.597 0.523 0.969-0.224 143.84h-1.119v6.566l0.895-0.224v2.238l-12.086 10.594-2.388 0.149-0.746-0.671h-12.832l-1.119-1.119-2.611-0.075h-86.245v0.746l-21.188 0.15 0.074 0.82-18.95 0.149-0.97-0.895-0.298-1.119v0z" fill="none" stroke="#424242" stroke-linecap="round" stroke-linejoin="round" stroke-miterlimit="10" stroke-width=".9"/></g><g id="g992" transform="matrix(1.25 0 0 -1.25 26.022 846.73)"><path id="path994" d="m0 0v-52.896l0.373-0.671 0.522-0.224h23.128" fill="none" stroke="#858586" stroke-linecap="round" stroke-linejoin="round" stroke-miterlimit="10" stroke-width=".6"/></g><path id="path996" d="m6.9979 1037.5h11.284v-7.3675h-11.284v7.3675z" fill="#292929"/><g id="g998" transform="matrix(1.25 0 0 -1.25 176.17 1046.7)"><path id="path1000" d="m0 0v87.757l-0.895 1.044-119.37-0.149-1.045-0.746v-88.018l121.31 0.112z" fill="#fff"/></g><path id="path1002" d="m113.86 856.71h28.832v54.09h-28.832v-54.09zm-61.57-11.055v67.128l1.9438 1.4962h103.19l1.71-1.885v-66.735h-106.84l-4e-3 -4e-3z" fill="#b2b2b2"/></g></g></svg>
