<?xml version="1.0" encoding="UTF-8"?>
<!-- Generator: Adobe Illustrator 19.0.0, SVG Export Plug-In . SVG Version: 6.00 Build 0)  -->
<svg id="Layer_1" width="802.15" height="301.7" version="1.1" viewBox="-6 246.3 802.15 301.7" xml:space="preserve" xmlns="http://www.w3.org/2000/svg" xmlns:cc="http://creativecommons.org/ns#" xmlns:dc="http://purl.org/dc/elements/1.1/" xmlns:rdf="http://www.w3.org/1999/02/22-rdf-syntax-ns#"><metadata id="metadata388"><rdf:RDF><cc:Work rdf:about=""><dc:format>image/svg+xml</dc:format><dc:type rdf:resource="http://purl.org/dc/dcmitype/StillImage"/><dc:title/></cc:Work></rdf:RDF></metadata><g id="XMLID_1_" transform="translate(0 3.0518e-6)"><path id="base" d="m2.9 392.4h-7c-1.7 0-1.9-0.2-1.9-2.9v-140.5c0-2.1 0.3-2.7 2.7-2.7h587.9c4.9 0 5.1 0.4 5.1 5.1v29c0 0.6 0 0.7-0.7 0.7h-3c-0.7 0-0.8 0.2-0.8 0.7v52.7 44.8h6.7c0.9 0 1 0.3 1 0.6v11.3c0 1-0.1 1.2-1.5 1.2h-588.5z" fill="#cfd0cf"/><path id="outline" d="m-0.2 392.4v-75.7c0-2.2 0-3.7 3.7-3.7h581.7" fill="none" stroke="#9b9a9a" stroke-miterlimit="10" stroke-width="2"/><path id="keyboard" d="m6.7 548c-5.7 0-6.9-4.5-6.9-8.6v-222.6c0-2.2 0-3.7 3.7-3.7h582.5c3.7 0 3.7 1.4 3.7 3.7v222.6c0 4.1-1.1 8.6-6.9 8.6h-576.1z" fill="#cfd0cf"/><g id="holes" fill="#0c0c0d"><path id="XMLID_123_" d="m210.4 351h151.6c0.4 0 0.6 0.3 0.6 0.6v23.4c0 0.4-0.3 0.6-0.6 0.6h-151.6c-0.4 0-0.6-0.3-0.6-0.6v-23.4c0-0.3 0.2-0.6 0.6-0.6z"/><path id="XMLID_121_" d="m48.8 351h151.2c0.4 0 0.6 0.3 0.6 0.6v23.4c0 0.4-0.3 0.6-0.6 0.6h-151.2c-0.4 0-0.6-0.3-0.6-0.6v-23.4c0-0.3 0.2-0.6 0.6-0.6z"/><path id="XMLID_119_" d="m11.7 351h22.9c0.4 0 0.6 0.3 0.6 0.6v23.4c0 0.4-0.3 0.6-0.6 0.6h-22.9c-0.4 0-0.6-0.3-0.6-0.6v-23.4c-0.1-0.3 0.2-0.6 0.6-0.6z"/><path id="XMLID_117_" d="m368.2 489.5v21c0 0.4-0.3 0.6-0.6 0.6h-337.3c-0.4 0-0.6-0.3-0.6-0.6v-21.1s0.8-2.8-2.1-2.8h-16.3c-0.4 0-0.6-0.3-0.6-0.6v-96.3c0-0.4 0.3-0.6 0.6-0.6h372.2c0.4 0 0.6 0.3 0.6 0.6v96.3c0 0.4-0.3 0.6-0.6 0.6h-12.8c-3.2 0-2.5 2.9-2.5 2.9z"/><path id="XMLID_115_" d="m470.2 414.8c0.4 0 0.6-0.3 0.6-0.6v-24.4c0-0.4-0.3-0.6-0.6-0.6h-73.3c-0.4 0-0.6 0.3-0.6 0.6v24.4c0 0.4 0.3 0.6 0.6 0.6h73.3z"/><path id="XMLID_113_" d="m578.2 511.3c0.4 0 0.6-0.3 0.6-0.6v-121c0-0.4-0.3-0.6-0.6-0.6h-96.9c-0.4 0-0.6 0.3-0.6 0.6v121c0 0.4 0.3 0.6 0.6 0.6h96.9z"/><path id="XMLID_111_" d="m446.4 458.3v-21.5c0-0.4-0.3-0.6-0.6-0.6h-24.6c-0.4 0-0.6 0.3-0.6 0.6v21.5s0.3 1.7-1.9 1.7h-21.8c-0.4 0-0.6 0.3-0.6 0.6v25.3c0 0.4 0.3 0.6 0.6 0.6h73.3c0.4 0 0.6-0.3 0.6-0.6v-25.3c0-0.4-0.3-0.6-0.6-0.6h-22.2c-2.4 0-1.6-1.7-1.6-1.7z"/></g><g id="keys"><g id="XMLID_21_"><path id="XMLID_65_" d="m237.8 438.5h19.4c0.8 0 1.4 0.6 1.4 1.4v19.8c0 0.8-0.6 1.4-1.4 1.4h-19.4c-0.8 0-1.4-0.6-1.4-1.4v-19.8c-0.1-0.7 0.6-1.4 1.4-1.4z" fill="#9b9a9a"/><path id="XMLID_34_" d="m240.7 440.7h13.5c0.8 0 1.4 0.6 1.4 1.4v13.5c0 0.8-0.6 1.4-1.4 1.4h-13.5c-0.8 0-1.4-0.6-1.4-1.4v-13.5c0-0.7 0.7-1.4 1.4-1.4z" fill="#cfd0cf"/></g><g id="XMLID_165_"><path id="XMLID_168_" d="m261.7 438.5h19.4c0.8 0 1.4 0.6 1.4 1.4v19.8c0 0.8-0.6 1.4-1.4 1.4h-19.4c-0.8 0-1.4-0.6-1.4-1.4v-19.8c0-0.7 0.6-1.4 1.4-1.4z" fill="#9b9a9a"/><path id="XMLID_166_" d="m264.7 440.7h13.5c0.8 0 1.4 0.6 1.4 1.4v13.5c0 0.8-0.6 1.4-1.4 1.4h-13.5c-0.8 0-1.4-0.6-1.4-1.4v-13.5c-0.1-0.7 0.6-1.4 1.4-1.4z" fill="#cfd0cf"/></g><g id="XMLID_170_"><path id="XMLID_173_" d="m285.6 438.5h19.4c0.8 0 1.4 0.6 1.4 1.4v19.8c0 0.8-0.6 1.4-1.4 1.4h-19.4c-0.8 0-1.4-0.6-1.4-1.4v-19.8c0-0.7 0.6-1.4 1.4-1.4z" fill="#9b9a9a"/><path id="XMLID_171_" d="m288.6 440.7h13.5c0.8 0 1.4 0.6 1.4 1.4v13.5c0 0.8-0.6 1.4-1.4 1.4h-13.5c-0.8 0-1.4-0.6-1.4-1.4v-13.5c-0.1-0.7 0.6-1.4 1.4-1.4z" fill="#cfd0cf"/></g><g id="XMLID_175_"><path id="XMLID_178_" d="m309.5 438.5h19.4c0.8 0 1.4 0.6 1.4 1.4v19.8c0 0.8-0.6 1.4-1.4 1.4h-19.4c-0.8 0-1.4-0.6-1.4-1.4v-19.8c0-0.7 0.6-1.4 1.4-1.4z" fill="#9b9a9a"/><path id="XMLID_176_" d="m312.5 440.7h13.5c0.8 0 1.4 0.6 1.4 1.4v13.5c0 0.8-0.6 1.4-1.4 1.4h-13.5c-0.8 0-1.4-0.6-1.4-1.4v-13.5c-0.1-0.7 0.6-1.4 1.4-1.4z" fill="#cfd0cf"/></g><g id="XMLID_180_"><path id="XMLID_183_" d="m333.4 438.5h19.4c0.8 0 1.4 0.6 1.4 1.4v19.8c0 0.8-0.6 1.4-1.4 1.4h-19.4c-0.8 0-1.4-0.6-1.4-1.4v-19.8c0-0.7 0.6-1.4 1.4-1.4z" fill="#9b9a9a"/><path id="XMLID_181_" d="m336.4 440.7h13.5c0.8 0 1.4 0.6 1.4 1.4v13.5c0 0.8-0.6 1.4-1.4 1.4h-13.5c-0.8 0-1.4-0.6-1.4-1.4v-13.5c0-0.7 0.6-1.4 1.4-1.4z" fill="#cfd0cf"/></g><g id="XMLID_390_"><path id="XMLID_393_" d="m399.1 461.7h19.4c0.8 0 1.4 0.6 1.4 1.4v19.8c0 0.8-0.6 1.4-1.4 1.4h-19.4c-0.8 0-1.4-0.6-1.4-1.4v-19.8c-0.1-0.8 0.6-1.4 1.4-1.4z" fill="#9b9a9a"/><path id="XMLID_391_" d="m402 463.9h13.5c0.8 0 1.4 0.6 1.4 1.4v13.5c0 0.8-0.6 1.4-1.4 1.4h-13.5c-0.8 0-1.4-0.6-1.4-1.4v-13.5c0-0.8 0.6-1.4 1.4-1.4z" fill="#cfd0cf"/></g><g id="XMLID_410_"><path id="XMLID_413_" d="m448.5 461.7h19.5c0.8 0 1.4 0.6 1.4 1.4v19.8c0 0.8-0.6 1.4-1.4 1.4h-19.4c-0.8 0-1.4-0.6-1.4-1.4v-19.8c-0.1-0.8 0.5-1.4 1.3-1.4z" fill="#9b9a9a"/><path id="XMLID_411_" d="m451.5 463.9h13.5c0.8 0 1.4 0.6 1.4 1.4v13.5c0 0.8-0.6 1.4-1.4 1.4h-13.5c-0.8 0-1.4-0.6-1.4-1.4v-13.5c-0.1-0.8 0.6-1.4 1.4-1.4z" fill="#cfd0cf"/></g><g id="XMLID_415_"><path id="XMLID_418_" d="m423.8 461.7h19.4c0.8 0 1.4 0.6 1.4 1.4v19.8c0 0.8-0.6 1.4-1.4 1.4h-19.4c-0.8 0-1.4-0.6-1.4-1.4v-19.8c0-0.8 0.6-1.4 1.4-1.4z" fill="#9b9a9a"/><path id="XMLID_416_" d="m426.8 463.9h13.5c0.8 0 1.4 0.6 1.4 1.4v13.5c0 0.8-0.6 1.4-1.4 1.4h-13.5c-0.8 0-1.4-0.6-1.4-1.4v-13.5c-0.1-0.8 0.6-1.4 1.4-1.4z" fill="#cfd0cf"/></g><g id="XMLID_420_"><path id="XMLID_423_" d="m423.8 437.6h19.4c0.8 0 1.4 0.6 1.4 1.4v19.8c0 0.8-0.6 1.4-1.4 1.4h-19.4c-0.8 0-1.4-0.6-1.4-1.4v-19.8c0-0.8 0.6-1.4 1.4-1.4z" fill="#9b9a9a"/><path id="XMLID_421_" d="m426.8 439.8h13.5c0.8 0 1.4 0.6 1.4 1.4v13.5c0 0.8-0.6 1.4-1.4 1.4h-13.5c-0.8 0-1.4-0.6-1.4-1.4v-13.5c-0.1-0.8 0.6-1.4 1.4-1.4z" fill="#cfd0cf"/></g><g id="XMLID_503_"><path id="XMLID_506_" d="m483.8 414.8h19.4c0.8 0 1.4 0.6 1.4 1.4v19.8c0 0.8-0.6 1.4-1.4 1.4h-19.4c-0.8 0-1.4-0.6-1.4-1.4v-19.8c0-0.8 0.6-1.4 1.4-1.4z" fill="#9b9a9a"/><path id="XMLID_504_" d="m486.8 417h13.5c0.8 0 1.4 0.6 1.4 1.4v13.5c0 0.8-0.6 1.4-1.4 1.4h-13.5c-0.8 0-1.4-0.6-1.4-1.4v-13.5c-0.1-0.8 0.6-1.4 1.4-1.4z" fill="#cfd0cf"/></g><g id="XMLID_486_"><path id="XMLID_501_" d="m508.1 414.8h19.4c0.8 0 1.4 0.6 1.4 1.4v19.8c0 0.8-0.6 1.4-1.4 1.4h-19.4c-0.8 0-1.4-0.6-1.4-1.4v-19.8c-0.1-0.8 0.6-1.4 1.4-1.4z" fill="#9b9a9a"/><path id="XMLID_499_" d="m511 417h13.5c0.8 0 1.4 0.6 1.4 1.4v13.5c0 0.8-0.6 1.4-1.4 1.4h-13.5c-0.8 0-1.4-0.6-1.4-1.4v-13.5c0-0.8 0.6-1.4 1.4-1.4z" fill="#cfd0cf"/></g><g id="XMLID_481_"><path id="XMLID_484_" d="m532.3 414.8h19.4c0.8 0 1.4 0.6 1.4 1.4v19.8c0 0.8-0.6 1.4-1.4 1.4h-19.4c-0.8 0-1.4-0.6-1.4-1.4v-19.8c0-0.8 0.7-1.4 1.4-1.4z" fill="#9b9a9a"/><path id="XMLID_482_" d="m535.3 417h13.5c0.8 0 1.4 0.6 1.4 1.4v13.5c0 0.8-0.6 1.4-1.4 1.4h-13.5c-0.8 0-1.4-0.6-1.4-1.4v-13.5c0-0.8 0.6-1.4 1.4-1.4z" fill="#cfd0cf"/></g><g id="XMLID_523_"><path id="XMLID_526_" d="m483.8 438.7h19.4c0.8 0 1.4 0.6 1.4 1.4v19.8c0 0.8-0.6 1.4-1.4 1.4h-19.4c-0.8 0-1.4-0.6-1.4-1.4v-19.8c0-0.7 0.6-1.4 1.4-1.4z" fill="#9b9a9a"/><path id="XMLID_524_" d="m486.8 440.9h13.5c0.8 0 1.4 0.6 1.4 1.4v13.5c0 0.8-0.6 1.4-1.4 1.4h-13.5c-0.8 0-1.4-0.6-1.4-1.4v-13.5c-0.1-0.7 0.6-1.4 1.4-1.4z" fill="#cfd0cf"/></g><g id="XMLID_518_"><path id="XMLID_521_" d="m508.1 438.7h19.4c0.8 0 1.4 0.6 1.4 1.4v19.8c0 0.8-0.6 1.4-1.4 1.4h-19.4c-0.8 0-1.4-0.6-1.4-1.4v-19.8c-0.1-0.7 0.6-1.4 1.4-1.4z" fill="#9b9a9a"/><path id="XMLID_519_" d="m511 440.9h13.5c0.8 0 1.4 0.6 1.4 1.4v13.5c0 0.8-0.6 1.4-1.4 1.4h-13.5c-0.8 0-1.4-0.6-1.4-1.4v-13.5c0-0.7 0.6-1.4 1.4-1.4z" fill="#cfd0cf"/></g><g id="XMLID_513_"><path id="XMLID_516_" d="m532.3 438.7h19.4c0.8 0 1.4 0.6 1.4 1.4v19.8c0 0.8-0.6 1.4-1.4 1.4h-19.4c-0.8 0-1.4-0.6-1.4-1.4v-19.8c0-0.7 0.7-1.4 1.4-1.4z" fill="#9b9a9a"/><path id="XMLID_514_" d="m535.3 440.9h13.5c0.8 0 1.4 0.6 1.4 1.4v13.5c0 0.8-0.6 1.4-1.4 1.4h-13.5c-0.8 0-1.4-0.6-1.4-1.4v-13.5c0-0.7 0.6-1.4 1.4-1.4z" fill="#cfd0cf"/></g><g id="XMLID_543_"><path id="XMLID_546_" d="m483.8 463.2h19.4c0.8 0 1.4 0.6 1.4 1.4v19.8c0 0.8-0.6 1.4-1.4 1.4h-19.4c-0.8 0-1.4-0.6-1.4-1.4v-19.8c0-0.8 0.6-1.4 1.4-1.4z" fill="#9b9a9a"/><path id="XMLID_544_" d="m486.8 465.4h13.5c0.8 0 1.4 0.6 1.4 1.4v13.5c0 0.8-0.6 1.4-1.4 1.4h-13.5c-0.8 0-1.4-0.6-1.4-1.4v-13.5c-0.1-0.8 0.6-1.4 1.4-1.4z" fill="#cfd0cf"/></g><g id="XMLID_538_"><path id="XMLID_541_" d="m508.1 463.2h19.4c0.8 0 1.4 0.6 1.4 1.4v19.8c0 0.8-0.6 1.4-1.4 1.4h-19.4c-0.8 0-1.4-0.6-1.4-1.4v-19.8c-0.1-0.8 0.6-1.4 1.4-1.4z" fill="#9b9a9a"/><path id="XMLID_539_" d="m511 465.4h13.5c0.8 0 1.4 0.6 1.4 1.4v13.5c0 0.8-0.6 1.4-1.4 1.4h-13.5c-0.8 0-1.4-0.6-1.4-1.4v-13.5c0-0.8 0.6-1.4 1.4-1.4z" fill="#cfd0cf"/></g><g id="XMLID_533_"><path id="XMLID_536_" d="m532.3 463.2h19.4c0.8 0 1.4 0.6 1.4 1.4v19.8c0 0.8-0.6 1.4-1.4 1.4h-19.4c-0.8 0-1.4-0.6-1.4-1.4v-19.8c0-0.8 0.7-1.4 1.4-1.4z" fill="#9b9a9a"/><path id="XMLID_534_" d="m535.3 465.4h13.5c0.8 0 1.4 0.6 1.4 1.4v13.5c0 0.8-0.6 1.4-1.4 1.4h-13.5c-0.8 0-1.4-0.6-1.4-1.4v-13.5c0-0.8 0.6-1.4 1.4-1.4z" fill="#cfd0cf"/></g><g id="XMLID_563_"><path id="XMLID_566_" d="m483.8 487.6h43.7c0.8 0 1.4 0.6 1.4 1.4v19.8c0 0.8-0.6 1.4-1.4 1.4h-43.7c-0.8 0-1.4-0.6-1.4-1.4v-19.8c0-0.7 0.6-1.4 1.4-1.4z" fill="#9b9a9a"/><path id="XMLID_564_" d="m486.8 489.8h37.8c0.8 0 1.4 0.6 1.4 1.4v13.5c0 0.8-0.6 1.4-1.4 1.4h-37.8c-0.8 0-1.4-0.6-1.4-1.4v-13.4c-0.1-0.8 0.6-1.5 1.4-1.5z" fill="#cfd0cf"/></g><g id="XMLID_553_"><path id="XMLID_556_" d="m532.3 487.6h19.4c0.8 0 1.4 0.6 1.4 1.4v19.8c0 0.8-0.6 1.4-1.4 1.4h-19.4c-0.8 0-1.4-0.6-1.4-1.4v-19.8c0-0.7 0.7-1.4 1.4-1.4z" fill="#9b9a9a"/><path id="XMLID_554_" d="m535.3 489.8h13.5c0.8 0 1.4 0.6 1.4 1.4v13.5c0 0.8-0.6 1.4-1.4 1.4h-13.5c-0.8 0-1.4-0.6-1.4-1.4v-13.4c0-0.8 0.6-1.5 1.4-1.5z" fill="#cfd0cf"/></g><g id="XMLID_30_"><path id="XMLID_83_" d="m213.9 438.5h19.4c0.8 0 1.4 0.6 1.4 1.4v19.8c0 0.8-0.6 1.4-1.4 1.4h-19.4c-0.8 0-1.4-0.6-1.4-1.4v-19.8c-0.1-0.7 0.6-1.4 1.4-1.4z" fill="#9b9a9a"/><path id="XMLID_74_" d="m216.8 440.7h13.5c0.8 0 1.4 0.6 1.4 1.4v13.5c0 0.8-0.6 1.4-1.4 1.4h-13.5c-0.8 0-1.4-0.6-1.4-1.4v-13.5c0-0.7 0.6-1.4 1.4-1.4z" fill="#cfd0cf"/></g><g id="XMLID_98_"><path id="XMLID_109_" d="m190 438.5h19.4c0.8 0 1.4 0.6 1.4 1.4v19.8c0 0.8-0.6 1.4-1.4 1.4h-19.4c-0.8 0-1.4-0.6-1.4-1.4v-19.8c-0.1-0.7 0.6-1.4 1.4-1.4z" fill="#9b9a9a"/><path id="XMLID_99_" d="m192.9 440.7h13.5c0.8 0 1.4 0.6 1.4 1.4v13.5c0 0.8-0.6 1.4-1.4 1.4h-13.5c-0.8 0-1.4-0.6-1.4-1.4v-13.5c0-0.7 0.6-1.4 1.4-1.4z" fill="#cfd0cf"/></g><g id="XMLID_140_"><path id="XMLID_143_" d="m166.1 438.5h19.4c0.8 0 1.4 0.6 1.4 1.4v19.8c0 0.8-0.6 1.4-1.4 1.4h-19.4c-0.8 0-1.4-0.6-1.4-1.4v-19.8c-0.1-0.7 0.6-1.4 1.4-1.4z" fill="#9b9a9a"/><path id="XMLID_141_" d="m169 440.7h13.5c0.8 0 1.4 0.6 1.4 1.4v13.5c0 0.8-0.6 1.4-1.4 1.4h-13.5c-0.8 0-1.4-0.6-1.4-1.4v-13.5c0-0.7 0.6-1.4 1.4-1.4z" fill="#cfd0cf"/></g><g id="XMLID_145_"><path id="XMLID_148_" d="m142.1 438.5h19.4c0.8 0 1.4 0.6 1.4 1.4v19.8c0 0.8-0.6 1.4-1.4 1.4h-19.4c-0.8 0-1.4-0.6-1.4-1.4v-19.8c0-0.7 0.7-1.4 1.4-1.4z" fill="#9b9a9a"/><path id="XMLID_146_" d="m145.1 440.7h13.5c0.8 0 1.4 0.6 1.4 1.4v13.5c0 0.8-0.6 1.4-1.4 1.4h-13.5c-0.8 0-1.4-0.6-1.4-1.4v-13.5c0-0.7 0.6-1.4 1.4-1.4z" fill="#cfd0cf"/></g><g id="XMLID_150_"><path id="XMLID_153_" d="m118.2 438.5h19.4c0.8 0 1.4 0.6 1.4 1.4v19.8c0 0.8-0.6 1.4-1.4 1.4h-19.4c-0.8 0-1.4-0.6-1.4-1.4v-19.8c0-0.7 0.6-1.4 1.4-1.4z" fill="#9b9a9a"/><path id="XMLID_151_" d="m121.2 440.7h13.5c0.8 0 1.4 0.6 1.4 1.4v13.5c0 0.8-0.6 1.4-1.4 1.4h-13.5c-0.8 0-1.4-0.6-1.4-1.4v-13.5c0-0.7 0.6-1.4 1.4-1.4z" fill="#cfd0cf"/></g><g id="XMLID_155_"><path id="XMLID_158_" d="m94.3 438.5h19.4c0.8 0 1.4 0.6 1.4 1.4v19.8c0 0.8-0.6 1.4-1.4 1.4h-19.4c-0.8 0-1.4-0.6-1.4-1.4v-19.8c0-0.7 0.6-1.4 1.4-1.4z" fill="#9b9a9a"/><path id="XMLID_156_" d="m97.3 440.7h13.5c0.8 0 1.4 0.6 1.4 1.4v13.5c0 0.8-0.6 1.4-1.4 1.4h-13.5c-0.8 0-1.4-0.6-1.4-1.4v-13.5c0-0.7 0.6-1.4 1.4-1.4z" fill="#cfd0cf"/></g><g id="XMLID_160_"><path id="XMLID_163_" d="m70.4 438.5h19.4c0.8 0 1.4 0.6 1.4 1.4v19.8c0 0.8-0.6 1.4-1.4 1.4h-19.4c-0.8 0-1.4-0.6-1.4-1.4v-19.8c0-0.7 0.6-1.4 1.4-1.4z" fill="#9b9a9a"/><path id="XMLID_161_" d="m73.4 440.7h13.5c0.8 0 1.4 0.6 1.4 1.4v13.5c0 0.8-0.6 1.4-1.4 1.4h-13.5c-0.8 0-1.4-0.6-1.4-1.4v-13.5c-0.1-0.7 0.6-1.4 1.4-1.4z" fill="#cfd0cf"/></g><g id="XMLID_365_"><path id="XMLID_368_" d="m225.8 462.6h19.4c0.8 0 1.4 0.6 1.4 1.4v19.8c0 0.8-0.6 1.4-1.4 1.4h-19.4c-0.8 0-1.4-0.6-1.4-1.4v-19.8c0-0.8 0.7-1.4 1.4-1.4z" fill="#9b9a9a"/><path id="XMLID_366_" d="m228.8 464.8h13.5c0.8 0 1.4 0.6 1.4 1.4v13.5c0 0.8-0.6 1.4-1.4 1.4h-13.5c-0.8 0-1.4-0.6-1.4-1.4v-13.5c0-0.8 0.6-1.4 1.4-1.4z" fill="#cfd0cf"/></g><g id="XMLID_360_"><path id="XMLID_363_" d="m249.8 462.6h19.4c0.8 0 1.4 0.6 1.4 1.4v19.8c0 0.8-0.6 1.4-1.4 1.4h-19.4c-0.8 0-1.4-0.6-1.4-1.4v-19.8c-0.1-0.8 0.6-1.4 1.4-1.4z" fill="#9b9a9a"/><path id="XMLID_361_" d="m252.7 464.8h13.5c0.8 0 1.4 0.6 1.4 1.4v13.5c0 0.8-0.6 1.4-1.4 1.4h-13.5c-0.8 0-1.4-0.6-1.4-1.4v-13.5c0-0.8 0.6-1.4 1.4-1.4z" fill="#cfd0cf"/></g><g id="XMLID_355_"><path id="XMLID_358_" d="m273.7 462.6h19.4c0.8 0 1.4 0.6 1.4 1.4v19.8c0 0.8-0.6 1.4-1.4 1.4h-19.4c-0.8 0-1.4-0.6-1.4-1.4v-19.8c-0.1-0.8 0.6-1.4 1.4-1.4z" fill="#9b9a9a"/><path id="XMLID_356_" d="m276.6 464.8h13.5c0.8 0 1.4 0.6 1.4 1.4v13.5c0 0.8-0.6 1.4-1.4 1.4h-13.5c-0.8 0-1.4-0.6-1.4-1.4v-13.5c0-0.8 0.6-1.4 1.4-1.4z" fill="#cfd0cf"/></g><g id="XMLID_350_"><path id="XMLID_353_" d="m297.6 462.6h19.4c0.8 0 1.4 0.6 1.4 1.4v19.8c0 0.8-0.6 1.4-1.4 1.4h-19.4c-0.8 0-1.4-0.6-1.4-1.4v-19.8c-0.1-0.8 0.6-1.4 1.4-1.4z" fill="#9b9a9a"/><path id="XMLID_351_" d="m300.5 464.8h13.5c0.8 0 1.4 0.6 1.4 1.4v13.5c0 0.8-0.6 1.4-1.4 1.4h-13.5c-0.8 0-1.4-0.6-1.4-1.4v-13.5c0-0.8 0.6-1.4 1.4-1.4z" fill="#cfd0cf"/></g><g id="XMLID_340_"><path id="XMLID_343_" d="m201.9 462.6h19.4c0.8 0 1.4 0.6 1.4 1.4v19.8c0 0.8-0.6 1.4-1.4 1.4h-19.4c-0.8 0-1.4-0.6-1.4-1.4v-19.8c0-0.8 0.6-1.4 1.4-1.4z" fill="#9b9a9a"/><path id="XMLID_341_" d="m204.9 464.8h13.5c0.8 0 1.4 0.6 1.4 1.4v13.5c0 0.8-0.6 1.4-1.4 1.4h-13.5c-0.8 0-1.4-0.6-1.4-1.4v-13.5c0-0.8 0.6-1.4 1.4-1.4z" fill="#cfd0cf"/></g><g id="XMLID_335_"><path id="XMLID_338_" d="m178 462.6h19.4c0.8 0 1.4 0.6 1.4 1.4v19.8c0 0.8-0.6 1.4-1.4 1.4h-19.4c-0.8 0-1.4-0.6-1.4-1.4v-19.8c0-0.8 0.6-1.4 1.4-1.4z" fill="#9b9a9a"/><path id="XMLID_336_" d="m181 464.8h13.5c0.8 0 1.4 0.6 1.4 1.4v13.5c0 0.8-0.6 1.4-1.4 1.4h-13.5c-0.8 0-1.4-0.6-1.4-1.4v-13.5c0-0.8 0.6-1.4 1.4-1.4z" fill="#cfd0cf"/></g><g id="XMLID_330_"><path id="XMLID_333_" d="m154.1 462.6h19.4c0.8 0 1.4 0.6 1.4 1.4v19.8c0 0.8-0.6 1.4-1.4 1.4h-19.4c-0.8 0-1.4-0.6-1.4-1.4v-19.8c0-0.8 0.6-1.4 1.4-1.4z" fill="#9b9a9a"/><path id="XMLID_331_" d="m157.1 464.8h13.5c0.8 0 1.4 0.6 1.4 1.4v13.5c0 0.8-0.6 1.4-1.4 1.4h-13.5c-0.8 0-1.4-0.6-1.4-1.4v-13.5c-0.1-0.8 0.6-1.4 1.4-1.4z" fill="#cfd0cf"/></g><g id="XMLID_325_"><path id="XMLID_328_" d="m130.2 462.6h19.4c0.8 0 1.4 0.6 1.4 1.4v19.8c0 0.8-0.6 1.4-1.4 1.4h-19.4c-0.8 0-1.4-0.6-1.4-1.4v-19.8c0-0.8 0.6-1.4 1.4-1.4z" fill="#9b9a9a"/><path id="XMLID_326_" d="m133.2 464.8h13.5c0.8 0 1.4 0.6 1.4 1.4v13.5c0 0.8-0.6 1.4-1.4 1.4h-13.5c-0.8 0-1.4-0.6-1.4-1.4v-13.5c-0.1-0.8 0.6-1.4 1.4-1.4z" fill="#cfd0cf"/></g><g id="XMLID_320_"><path id="XMLID_323_" d="m106.3 462.6h19.4c0.8 0 1.4 0.6 1.4 1.4v19.8c0 0.8-0.6 1.4-1.4 1.4h-19.4c-0.8 0-1.4-0.6-1.4-1.4v-19.8c0-0.8 0.6-1.4 1.4-1.4z" fill="#9b9a9a"/><path id="XMLID_321_" d="m109.3 464.8h13.5c0.8 0 1.4 0.6 1.4 1.4v13.5c0 0.8-0.6 1.4-1.4 1.4h-13.5c-0.8 0-1.4-0.6-1.4-1.4v-13.5c-0.1-0.8 0.6-1.4 1.4-1.4z" fill="#cfd0cf"/></g><g id="XMLID_315_"><path id="XMLID_318_" d="m82.4 462.6h19.4c0.8 0 1.4 0.6 1.4 1.4v19.8c0 0.8-0.6 1.4-1.4 1.4h-19.4c-0.8 0-1.4-0.6-1.4-1.4v-19.8c0-0.8 0.6-1.4 1.4-1.4z" fill="#9b9a9a"/><path id="XMLID_316_" d="m85.4 464.8h13.5c0.8 0 1.4 0.6 1.4 1.4v13.5c0 0.8-0.6 1.4-1.4 1.4h-13.5c-0.8 0-1.4-0.6-1.4-1.4v-13.5c-0.1-0.8 0.6-1.4 1.4-1.4z" fill="#cfd0cf"/></g><g id="XMLID_310_"><path id="XMLID_313_" d="m58.5 462.6h19.4c0.8 0 1.4 0.6 1.4 1.4v19.8c0 0.8-0.6 1.4-1.4 1.4h-19.4c-0.8 0-1.4-0.6-1.4-1.4v-19.8c-0.1-0.8 0.6-1.4 1.4-1.4z" fill="#9b9a9a"/><path id="XMLID_311_" d="m61.4 464.8h13.6c0.8 0 1.4 0.6 1.4 1.4v13.5c0 0.8-0.6 1.4-1.4 1.4h-13.6c-0.8 0-1.4-0.6-1.4-1.4v-13.5c0-0.8 0.6-1.4 1.4-1.4z" fill="#cfd0cf"/></g><g id="XMLID_345_"><path id="XMLID_348_" d="m94.3 486.6h210.5c0.8 0 1.4 0.6 1.4 1.4v19.8c0 0.8-0.6 1.4-1.4 1.4h-210.5c-0.8 0-1.4-0.6-1.4-1.4v-19.8c0-0.7 0.6-1.4 1.4-1.4z" fill="#9b9a9a"/><path id="XMLID_346_" d="m97.3 488.8h204.6c0.8 0 1.4 0.6 1.4 1.4v13.5c0 0.8-0.6 1.4-1.4 1.4h-204.6c-0.8 0-1.4-0.6-1.4-1.4v-13.4c0-0.8 0.6-1.5 1.4-1.5z" fill="#cfd0cf"/></g><g id="XMLID_240_"><path id="XMLID_243_" d="m231 414.5h19.4c0.8 0 1.4 0.6 1.4 1.4v19.8c0 0.8-0.6 1.4-1.4 1.4h-19.4c-0.8 0-1.4-0.6-1.4-1.4v-19.8c0-0.8 0.6-1.4 1.4-1.4z" fill="#9b9a9a"/><path id="XMLID_241_" d="m234 416.7h13.5c0.8 0 1.4 0.6 1.4 1.4v13.5c0 0.8-0.6 1.4-1.4 1.4h-13.5c-0.8 0-1.4-0.6-1.4-1.4v-13.5c0-0.8 0.6-1.4 1.4-1.4z" fill="#cfd0cf"/></g><g id="XMLID_235_"><path id="XMLID_238_" d="m254.9 414.5h19.4c0.8 0 1.4 0.6 1.4 1.4v19.8c0 0.8-0.6 1.4-1.4 1.4h-19.4c-0.8 0-1.4-0.6-1.4-1.4v-19.8c0-0.8 0.6-1.4 1.4-1.4z" fill="#9b9a9a"/><path id="XMLID_236_" d="m257.9 416.7h13.5c0.8 0 1.4 0.6 1.4 1.4v13.5c0 0.8-0.6 1.4-1.4 1.4h-13.5c-0.8 0-1.4-0.6-1.4-1.4v-13.5c0-0.8 0.6-1.4 1.4-1.4z" fill="#cfd0cf"/></g><g id="XMLID_230_"><path id="XMLID_233_" d="m278.9 414.5h19.4c0.8 0 1.4 0.6 1.4 1.4v19.8c0 0.8-0.6 1.4-1.4 1.4h-19.4c-0.8 0-1.4-0.6-1.4-1.4v-19.8c-0.1-0.8 0.6-1.4 1.4-1.4z" fill="#9b9a9a"/><path id="XMLID_231_" d="m281.8 416.7h13.5c0.8 0 1.4 0.6 1.4 1.4v13.5c0 0.8-0.6 1.4-1.4 1.4h-13.5c-0.8 0-1.4-0.6-1.4-1.4v-13.5c0-0.8 0.6-1.4 1.4-1.4z" fill="#cfd0cf"/></g><g id="XMLID_225_"><path id="XMLID_228_" d="m302.8 414.5h19.4c0.8 0 1.4 0.6 1.4 1.4v19.8c0 0.8-0.6 1.4-1.4 1.4h-19.4c-0.8 0-1.4-0.6-1.4-1.4v-19.8c-0.1-0.8 0.6-1.4 1.4-1.4z" fill="#9b9a9a"/><path id="XMLID_226_" d="m305.7 416.7h13.5c0.8 0 1.4 0.6 1.4 1.4v13.5c0 0.8-0.6 1.4-1.4 1.4h-13.5c-0.8 0-1.4-0.6-1.4-1.4v-13.5c0-0.8 0.6-1.4 1.4-1.4z" fill="#cfd0cf"/></g><g id="XMLID_220_"><path id="XMLID_223_" d="m326.7 414.5h19.4c0.8 0 1.4 0.6 1.4 1.4v19.8c0 0.8-0.6 1.4-1.4 1.4h-19.4c-0.8 0-1.4-0.6-1.4-1.4v-19.8c-0.1-0.8 0.6-1.4 1.4-1.4z" fill="#9b9a9a"/><path id="XMLID_221_" d="m329.6 416.7h13.5c0.8 0 1.4 0.6 1.4 1.4v13.5c0 0.8-0.6 1.4-1.4 1.4h-13.5c-0.8 0-1.4-0.6-1.4-1.4v-13.5c0-0.8 0.6-1.4 1.4-1.4z" fill="#cfd0cf"/></g><g id="XMLID_215_"><path id="XMLID_218_" d="m207.1 414.5h19.4c0.8 0 1.4 0.6 1.4 1.4v19.8c0 0.8-0.6 1.4-1.4 1.4h-19.4c-0.8 0-1.4-0.6-1.4-1.4v-19.8c0-0.8 0.6-1.4 1.4-1.4z" fill="#9b9a9a"/><path id="XMLID_216_" d="m210.1 416.7h13.5c0.8 0 1.4 0.6 1.4 1.4v13.5c0 0.8-0.6 1.4-1.4 1.4h-13.5c-0.8 0-1.4-0.6-1.4-1.4v-13.5c0-0.8 0.6-1.4 1.4-1.4z" fill="#cfd0cf"/></g><g id="XMLID_210_"><path id="XMLID_213_" d="m183.6 414.5h19.4c0.8 0 1.4 0.6 1.4 1.4v19.8c0 0.8-0.6 1.4-1.4 1.4h-19.4c-0.8 0-1.4-0.6-1.4-1.4v-19.8c-0.1-0.8 0.6-1.4 1.4-1.4z" fill="#9b9a9a"/><path id="XMLID_211_" d="m186.5 416.7h13.5c0.8 0 1.4 0.6 1.4 1.4v13.5c0 0.8-0.6 1.4-1.4 1.4h-13.5c-0.8 0-1.4-0.6-1.4-1.4v-13.5c0-0.8 0.6-1.4 1.4-1.4z" fill="#cfd0cf"/></g><g id="XMLID_205_"><path id="XMLID_208_" d="m159.3 414.5h19.4c0.8 0 1.4 0.6 1.4 1.4v19.8c0 0.8-0.6 1.4-1.4 1.4h-19.4c-0.8 0-1.4-0.6-1.4-1.4v-19.8c0-0.8 0.6-1.4 1.4-1.4z" fill="#9b9a9a"/><path id="XMLID_206_" d="m162.3 416.7h13.5c0.8 0 1.4 0.6 1.4 1.4v13.5c0 0.8-0.6 1.4-1.4 1.4h-13.5c-0.8 0-1.4-0.6-1.4-1.4v-13.5c-0.1-0.8 0.6-1.4 1.4-1.4z" fill="#cfd0cf"/></g><g id="XMLID_200_"><path id="XMLID_203_" d="m135.4 414.5h19.4c0.8 0 1.4 0.6 1.4 1.4v19.8c0 0.8-0.6 1.4-1.4 1.4h-19.4c-0.8 0-1.4-0.6-1.4-1.4v-19.8c0-0.8 0.6-1.4 1.4-1.4z" fill="#9b9a9a"/><path id="XMLID_201_" d="m138.4 416.7h13.5c0.8 0 1.4 0.6 1.4 1.4v13.5c0 0.8-0.6 1.4-1.4 1.4h-13.5c-0.8 0-1.4-0.6-1.4-1.4v-13.5c-0.1-0.8 0.6-1.4 1.4-1.4z" fill="#cfd0cf"/></g><g id="XMLID_195_"><path id="XMLID_198_" d="m111.5 414.5h19.4c0.8 0 1.4 0.6 1.4 1.4v19.8c0 0.8-0.6 1.4-1.4 1.4h-19.4c-0.8 0-1.4-0.6-1.4-1.4v-19.8c0-0.8 0.6-1.4 1.4-1.4z" fill="#9b9a9a"/><path id="XMLID_196_" d="m114.5 416.7h13.5c0.8 0 1.4 0.6 1.4 1.4v13.5c0 0.8-0.6 1.4-1.4 1.4h-13.5c-0.8 0-1.4-0.6-1.4-1.4v-13.5c-0.1-0.8 0.6-1.4 1.4-1.4z" fill="#cfd0cf"/></g><g id="XMLID_190_"><path id="XMLID_193_" d="m87.6 414.5h19.4c0.8 0 1.4 0.6 1.4 1.4v19.8c0 0.8-0.6 1.4-1.4 1.4h-19.4c-0.8 0-1.4-0.6-1.4-1.4v-19.8c-0.1-0.8 0.6-1.4 1.4-1.4z" fill="#9b9a9a"/><path id="XMLID_191_" d="m90.5 416.7h13.5c0.8 0 1.4 0.6 1.4 1.4v13.5c0 0.8-0.6 1.4-1.4 1.4h-13.5c-0.8 0-1.4-0.6-1.4-1.4v-13.5c0-0.8 0.6-1.4 1.4-1.4z" fill="#cfd0cf"/></g><g id="XMLID_185_"><path id="XMLID_188_" d="m63.7 414.5h19.4c0.8 0 1.4 0.6 1.4 1.4v19.8c0 0.8-0.6 1.4-1.4 1.4h-19.4c-0.8 0-1.4-0.6-1.4-1.4v-19.8c-0.1-0.8 0.6-1.4 1.4-1.4z" fill="#9b9a9a"/><path id="XMLID_186_" d="m66.6 416.7h13.5c0.8 0 1.4 0.6 1.4 1.4v13.5c0 0.8-0.6 1.4-1.4 1.4h-13.5c-0.8 0-1.4-0.6-1.4-1.4v-13.5c0-0.8 0.6-1.4 1.4-1.4z" fill="#cfd0cf"/></g><g id="XMLID_300_"><path id="XMLID_303_" d="m218.6 390.5h19.4c0.8 0 1.4 0.6 1.4 1.4v19.8c0 0.8-0.6 1.4-1.4 1.4h-19.4c-0.8 0-1.4-0.6-1.4-1.4v-19.8c0-0.8 0.6-1.4 1.4-1.4z" fill="#9b9a9a"/><path id="XMLID_301_" d="m221.6 392.7h13.5c0.8 0 1.4 0.6 1.4 1.4v13.5c0 0.8-0.6 1.4-1.4 1.4h-13.5c-0.8 0-1.4-0.6-1.4-1.4v-13.5c0-0.8 0.6-1.4 1.4-1.4z" fill="#cfd0cf"/></g><g id="XMLID_295_"><path id="XMLID_298_" d="m242.6 390.5h19.4c0.8 0 1.4 0.6 1.4 1.4v19.8c0 0.8-0.6 1.4-1.4 1.4h-19.4c-0.8 0-1.4-0.6-1.4-1.4v-19.8c-0.1-0.8 0.6-1.4 1.4-1.4z" fill="#9b9a9a"/><path id="XMLID_296_" d="m245.5 392.7h13.5c0.8 0 1.4 0.6 1.4 1.4v13.5c0 0.8-0.6 1.4-1.4 1.4h-13.5c-0.8 0-1.4-0.6-1.4-1.4v-13.5c0-0.8 0.6-1.4 1.4-1.4z" fill="#cfd0cf"/></g><g id="XMLID_290_"><path id="XMLID_293_" d="m266.5 390.5h19.4c0.8 0 1.4 0.6 1.4 1.4v19.8c0 0.8-0.6 1.4-1.4 1.4h-19.4c-0.8 0-1.4-0.6-1.4-1.4v-19.8c-0.1-0.8 0.6-1.4 1.4-1.4z" fill="#9b9a9a"/><path id="XMLID_291_" d="m269.4 392.7h13.6c0.8 0 1.4 0.6 1.4 1.4v13.5c0 0.8-0.6 1.4-1.4 1.4h-13.5c-0.8 0-1.4-0.6-1.4-1.4v-13.5c-0.1-0.8 0.5-1.4 1.3-1.4z" fill="#cfd0cf"/></g><g id="XMLID_285_"><path id="XMLID_288_" d="m290.4 390.5h19.4c0.8 0 1.4 0.6 1.4 1.4v19.8c0 0.8-0.6 1.4-1.4 1.4h-19.4c-0.8 0-1.4-0.6-1.4-1.4v-19.8c-0.1-0.8 0.6-1.4 1.4-1.4z" fill="#9b9a9a"/><path id="XMLID_286_" d="m293.3 392.7h13.5c0.8 0 1.4 0.6 1.4 1.4v13.5c0 0.8-0.6 1.4-1.4 1.4h-13.5c-0.8 0-1.4-0.6-1.4-1.4v-13.5c0-0.8 0.6-1.4 1.4-1.4z" fill="#cfd0cf"/></g><g id="XMLID_280_"><path id="XMLID_283_" d="m314.3 390.5h19.4c0.8 0 1.4 0.6 1.4 1.4v19.8c0 0.8-0.6 1.4-1.4 1.4h-19.4c-0.8 0-1.4-0.6-1.4-1.4v-19.8c-0.1-0.8 0.6-1.4 1.4-1.4z" fill="#9b9a9a"/><path id="XMLID_281_" d="m317.2 392.7h13.5c0.8 0 1.4 0.6 1.4 1.4v13.5c0 0.8-0.6 1.4-1.4 1.4h-13.5c-0.8 0-1.4-0.6-1.4-1.4v-13.5c0-0.8 0.6-1.4 1.4-1.4z" fill="#cfd0cf"/></g><g id="XMLID_305_"><path id="XMLID_308_" d="m338.2 390.5h19.4c0.8 0 1.4 0.6 1.4 1.4v19.8c0 0.8-0.6 1.4-1.4 1.4h-19.4c-0.8 0-1.4-0.6-1.4-1.4v-19.8c-0.1-0.8 0.6-1.4 1.4-1.4z" fill="#9b9a9a"/><path id="XMLID_306_" d="m341.1 392.7h13.5c0.8 0 1.4 0.6 1.4 1.4v13.5c0 0.8-0.6 1.4-1.4 1.4h-13.5c-0.8 0-1.4-0.6-1.4-1.4v-13.5c0-0.8 0.7-1.4 1.4-1.4z" fill="#cfd0cf"/></g><g id="XMLID_275_"><path id="XMLID_278_" d="m194.7 390.5h19.4c0.8 0 1.4 0.6 1.4 1.4v19.8c0 0.8-0.6 1.4-1.4 1.4h-19.4c-0.8 0-1.4-0.6-1.4-1.4v-19.8c0-0.8 0.6-1.4 1.4-1.4z" fill="#9b9a9a"/><path id="XMLID_276_" d="m197.7 392.7h13.5c0.8 0 1.4 0.6 1.4 1.4v13.5c0 0.8-0.6 1.4-1.4 1.4h-13.5c-0.8 0-1.4-0.6-1.4-1.4v-13.5c0-0.8 0.6-1.4 1.4-1.4z" fill="#cfd0cf"/></g><g id="XMLID_270_"><path id="XMLID_273_" d="m170.8 390.5h19.4c0.8 0 1.4 0.6 1.4 1.4v19.8c0 0.8-0.6 1.4-1.4 1.4h-19.4c-0.8 0-1.4-0.6-1.4-1.4v-19.8c0-0.8 0.6-1.4 1.4-1.4z" fill="#9b9a9a"/><path id="XMLID_271_" d="m173.8 392.7h13.5c0.8 0 1.4 0.6 1.4 1.4v13.5c0 0.8-0.6 1.4-1.4 1.4h-13.5c-0.8 0-1.4-0.6-1.4-1.4v-13.5c-0.1-0.8 0.6-1.4 1.4-1.4z" fill="#cfd0cf"/></g><g id="XMLID_265_"><path id="XMLID_268_" d="m146.9 390.5h19.4c0.8 0 1.4 0.6 1.4 1.4v19.8c0 0.8-0.6 1.4-1.4 1.4h-19.4c-0.8 0-1.4-0.6-1.4-1.4v-19.8c0-0.8 0.6-1.4 1.4-1.4z" fill="#9b9a9a"/><path id="XMLID_266_" d="m149.9 392.7h13.5c0.8 0 1.4 0.6 1.4 1.4v13.5c0 0.8-0.6 1.4-1.4 1.4h-13.5c-0.8 0-1.4-0.6-1.4-1.4v-13.5c-0.1-0.8 0.6-1.4 1.4-1.4z" fill="#cfd0cf"/></g><g id="XMLID_260_"><path id="XMLID_263_" d="m123 390.5h19.4c0.8 0 1.4 0.6 1.4 1.4v19.8c0 0.8-0.6 1.4-1.4 1.4h-19.4c-0.8 0-1.4-0.6-1.4-1.4v-19.8c0-0.8 0.6-1.4 1.4-1.4z" fill="#9b9a9a"/><path id="XMLID_261_" d="m126 392.7h13.5c0.8 0 1.4 0.6 1.4 1.4v13.5c0 0.8-0.6 1.4-1.4 1.4h-13.5c-0.8 0-1.4-0.6-1.4-1.4v-13.5c-0.1-0.8 0.6-1.4 1.4-1.4z" fill="#cfd0cf"/></g><g id="XMLID_255_"><path id="XMLID_258_" d="m99.1 390.5h19.4c0.8 0 1.4 0.6 1.4 1.4v19.8c0 0.8-0.6 1.4-1.4 1.4h-19.4c-0.8 0-1.4-0.6-1.4-1.4v-19.8c0-0.8 0.6-1.4 1.4-1.4z" fill="#9b9a9a"/><path id="XMLID_256_" d="m102.1 392.7h13.5c0.8 0 1.4 0.6 1.4 1.4v13.5c0 0.8-0.6 1.4-1.4 1.4h-13.5c-0.8 0-1.4-0.6-1.4-1.4v-13.5c-0.1-0.8 0.6-1.4 1.4-1.4z" fill="#cfd0cf"/></g><g id="XMLID_250_"><path id="XMLID_253_" d="m75.2 390.5h19.4c0.8 0 1.4 0.6 1.4 1.4v19.8c0 0.8-0.6 1.4-1.4 1.4h-19.4c-0.8 0-1.4-0.6-1.4-1.4v-19.8c-0.1-0.8 0.6-1.4 1.4-1.4z" fill="#9b9a9a"/><path id="XMLID_251_" d="m78.1 392.7h13.5c0.8 0 1.4 0.6 1.4 1.4v13.5c0 0.8-0.6 1.4-1.4 1.4h-13.5c-0.8 0-1.4-0.6-1.4-1.4v-13.5c0-0.8 0.7-1.4 1.4-1.4z" fill="#cfd0cf"/></g><g id="XMLID_245_"><path id="XMLID_248_" d="m51.3 390.5h19.4c0.8 0 1.4 0.6 1.4 1.4v19.8c0 0.8-0.6 1.4-1.4 1.4h-19.4c-0.8 0-1.4-0.6-1.4-1.4v-19.8c-0.1-0.8 0.6-1.4 1.4-1.4z" fill="#9b9a9a"/><path id="XMLID_246_" d="m54.2 392.7h13.5c0.8 0 1.4 0.6 1.4 1.4v13.5c0 0.8-0.6 1.4-1.4 1.4h-13.5c-0.8 0-1.4-0.6-1.4-1.4v-13.5c0-0.8 0.6-1.4 1.4-1.4z" fill="#cfd0cf"/></g><g id="XMLID_476_"><path id="XMLID_479_" d="m13.5 462.6h40.1c0.8 0 1.4 0.6 1.4 1.4v19.8c0 0.8-0.6 1.4-1.4 1.4h-40.1c-0.8 0-1.4-0.6-1.4-1.4v-19.8c-0.1-0.8 0.6-1.4 1.4-1.4z" fill="#60605d"/><path id="XMLID_477_" d="m16.4 464.8h34.2c0.8 0 1.4 0.6 1.4 1.4v13.5c0 0.8-0.6 1.4-1.4 1.4h-34.2c-0.8 0-1.4-0.6-1.4-1.4v-13.5c0-0.8 0.6-1.4 1.4-1.4z" fill="#868580"/></g><g id="XMLID_470_"><path id="XMLID_474_" d="m321.4 462.6h60.3c0.8 0 1.4 0.6 1.4 1.4v19.8c0 0.8-0.6 1.4-1.4 1.4h-60.3c-0.8 0-1.4-0.6-1.4-1.4v-19.8c-0.1-0.8 0.6-1.4 1.4-1.4z" fill="#60605d"/><path id="XMLID_471_" d="m324.3 464.8h54.4c0.8 0 1.4 0.6 1.4 1.4v13.5c0 0.8-0.6 1.4-1.4 1.4h-54.4c-0.8 0-1.4-0.6-1.4-1.4v-13.5c0-0.8 0.6-1.4 1.4-1.4z" fill="#868580"/></g><g id="XMLID_445_"><path id="XMLID_448_" d="m32.8 486.6h26.8c0.8 0 1.4 0.6 1.4 1.4v19.8c0 0.8-0.6 1.4-1.4 1.4h-26.8c-0.8 0-1.4-0.6-1.4-1.4v-19.8c-0.1-0.7 0.6-1.4 1.4-1.4z" fill="#60605d"/><path id="XMLID_446_" d="m35.7 488.8h20.9c0.8 0 1.4 0.6 1.4 1.4v13.5c0 0.8-0.6 1.4-1.4 1.4h-20.9c-0.8 0-1.4-0.6-1.4-1.4v-13.4c0-0.8 0.6-1.5 1.4-1.5z" fill="#868580"/></g><g id="XMLID_440_"><path id="XMLID_443_" d="m63.7 486.6h26.8c0.8 0 1.4 0.6 1.4 1.4v19.8c0 0.8-0.6 1.4-1.4 1.4h-26.8c-0.8 0-1.4-0.6-1.4-1.4v-19.8c-0.1-0.7 0.6-1.4 1.4-1.4z" fill="#60605d"/><path id="XMLID_441_" d="m66.6 488.8h20.9c0.8 0 1.4 0.6 1.4 1.4v13.5c0 0.8-0.6 1.4-1.4 1.4h-20.9c-0.8 0-1.4-0.6-1.4-1.4v-13.4c0-0.8 0.6-1.5 1.4-1.5z" fill="#868580"/></g><g id="XMLID_385_"><path id="XMLID_388_" d="m399.1 390.5h32.4c0.8 0 1.4 0.6 1.4 1.4v19.8c0 0.8-0.6 1.4-1.4 1.4h-32.4c-0.8 0-1.4-0.6-1.4-1.4v-19.8c-0.1-0.8 0.6-1.4 1.4-1.4z" fill="#60605d"/><path id="XMLID_386_" d="m402 392.7h26.5c0.8 0 1.4 0.6 1.4 1.4v13.5c0 0.8-0.6 1.4-1.4 1.4h-26.5c-0.8 0-1.4-0.6-1.4-1.4v-13.5c0-0.8 0.6-1.4 1.4-1.4z" fill="#868580"/></g><g id="XMLID_380_"><path id="XMLID_383_" d="m435.5 390.5h32.5c0.8 0 1.4 0.6 1.4 1.4v19.8c0 0.8-0.6 1.4-1.4 1.4h-32.4c-0.8 0-1.4-0.6-1.4-1.4v-19.8c-0.1-0.8 0.5-1.4 1.3-1.4z" fill="#60605d"/><path id="XMLID_381_" d="m438.5 392.7h26.5c0.8 0 1.4 0.6 1.4 1.4v13.5c0 0.8-0.6 1.4-1.4 1.4h-26.5c-0.8 0-1.4-0.6-1.4-1.4v-13.5c0-0.8 0.6-1.4 1.4-1.4z" fill="#868580"/></g><g id="XMLID_435_"><path id="XMLID_438_" d="m309.1 486.6h25.8c0.8 0 1.4 0.6 1.4 1.4v19.8c0 0.8-0.6 1.4-1.4 1.4h-25.8c-0.8 0-1.4-0.6-1.4-1.4v-19.8c0-0.7 0.6-1.4 1.4-1.4z" fill="#60605d"/><path id="XMLID_436_" d="m312.1 488.8h19.9c0.8 0 1.4 0.6 1.4 1.4v13.5c0 0.8-0.6 1.4-1.4 1.4h-19.9c-0.8 0-1.4-0.6-1.4-1.4v-13.4c0-0.8 0.6-1.5 1.4-1.5z" fill="#868580"/></g><g id="XMLID_430_"><path id="XMLID_433_" d="m339.5 486.6h25.8c0.8 0 1.4 0.6 1.4 1.4v19.8c0 0.8-0.6 1.4-1.4 1.4h-25.8c-0.8 0-1.4-0.6-1.4-1.4v-19.8c-0.1-0.7 0.6-1.4 1.4-1.4z" fill="#60605d"/><path id="XMLID_431_" d="m342.4 488.8h19.9c0.8 0 1.4 0.6 1.4 1.4v13.5c0 0.8-0.6 1.4-1.4 1.4h-19.9c-0.8 0-1.4-0.6-1.4-1.4v-13.4c0-0.8 0.6-1.5 1.4-1.5z" fill="#868580"/></g><g id="XMLID_405_"><path id="XMLID_408_" d="m13.5 438.5h28.5c0.8 0 1.4 0.6 1.4 1.4v19.8c0 0.8-0.6 1.4-1.4 1.4h-28.5c-0.8 0-1.4-0.6-1.4-1.4v-19.8c-0.1-0.7 0.6-1.4 1.4-1.4z" fill="#60605d"/><path id="XMLID_406_" d="m16.4 440.7h22.6c0.8 0 1.4 0.6 1.4 1.4v13.5c0 0.8-0.6 1.4-1.4 1.4h-22.6c-0.8 0-1.4-0.6-1.4-1.4v-13.5c0-0.7 0.6-1.4 1.4-1.4z" fill="#868580"/></g><g id="XMLID_400_"><path id="XMLID_403_" d="m46.7 438.5h19.2c0.8 0 1.4 0.6 1.4 1.4v19.8c0 0.8-0.6 1.4-1.4 1.4h-19.2c-0.8 0-1.4-0.6-1.4-1.4v-19.8c0-0.7 0.6-1.4 1.4-1.4z" fill="#60605d"/><path id="XMLID_401_" d="m49.7 440.7h13.3c0.8 0 1.4 0.6 1.4 1.4v13.5c0 0.8-0.6 1.4-1.4 1.4h-13.3c-0.8 0-1.4-0.6-1.4-1.4v-13.5c0-0.7 0.6-1.4 1.4-1.4z" fill="#868580"/></g><g id="XMLID_395_"><path id="XMLID_398_" d="m362.1 390.5h19.2c0.8 0 1.4 0.6 1.4 1.4v19.8c0 0.8-0.6 1.4-1.4 1.4h-19.2c-0.8 0-1.4-0.6-1.4-1.4v-19.8c0-0.8 0.6-1.4 1.4-1.4z" fill="#60605d"/><path id="XMLID_396_" d="m365.1 392.7h13.3c0.8 0 1.4 0.6 1.4 1.4v13.5c0 0.8-0.6 1.4-1.4 1.4h-13.3c-0.8 0-1.4-0.6-1.4-1.4v-13.5c-0.1-0.8 0.6-1.4 1.4-1.4z" fill="#868580"/></g><g id="XMLID_375_"><path id="XMLID_378_" d="m13.5 414.5h45.8c0.8 0 1.4 0.6 1.4 1.4v19.8c0 0.8-0.6 1.4-1.4 1.4h-45.8c-0.8 0-1.4-0.6-1.4-1.4v-19.8c-0.1-0.8 0.6-1.4 1.4-1.4z" fill="#60605d"/><path id="XMLID_376_" d="m16.4 416.7h39.9c0.8 0 1.4 0.6 1.4 1.4v13.5c0 0.8-0.6 1.4-1.4 1.4h-39.9c-0.8 0-1.4-0.6-1.4-1.4v-13.5c0-0.8 0.6-1.4 1.4-1.4z" fill="#868580"/></g><g id="XMLID_370_"><path id="XMLID_373_" d="m13.5 390.5h33.4c0.8 0 1.4 0.6 1.4 1.4v19.8c0 0.8-0.6 1.4-1.4 1.4h-33.4c-0.8 0-1.4-0.6-1.4-1.4v-19.8c-0.1-0.8 0.6-1.4 1.4-1.4z" fill="#60605d"/><path id="XMLID_371_" d="m16.4 392.7h27.5c0.8 0 1.4 0.6 1.4 1.4v13.5c0 0.8-0.6 1.4-1.4 1.4h-27.5c-0.8 0-1.4-0.6-1.4-1.4v-13.5c0-0.8 0.6-1.4 1.4-1.4z" fill="#868580"/></g><g id="XMLID_528_"><path id="XMLID_28_" d="m350.8 414.5h30.5c0.8 0 1.4 0.6 1.4 1.4v43.7c0 0.8-0.6 1.4-1.4 1.4h-23.5c-0.8 0-1.4-0.6-1.4-1.4v-18.7c0-2.4-1.5-3.2-3.7-3.2-3 0-3.3-1.8-3.3-3v-18.8c0-0.8 0.7-1.4 1.4-1.4z" fill="#60605d"/><path id="XMLID_558_" d="m353.7 416.6h24.8c0.8 0 1.4 0.6 1.4 1.4v37.7c0 0.8-0.6 1.4-1.4 1.4h-17.8c-0.8 0-1.4-0.6-1.4-1.4v-16.6c0-2-1.9-3-3.6-3-3.1 0-3.4-2.1-3.4-3.1v-15c0-0.8 0.6-1.4 1.4-1.4z" fill="#868580"/></g><g id="XMLID_531_"><path id="XMLID_561_" d="m13.4 352h19.4c0.8 0 1.4 0.6 1.4 1.4v19.8c0 0.8-0.6 1.4-1.4 1.4h-19.4c-0.8 0-1.4-0.6-1.4-1.4v-19.8c-0.1-0.8 0.6-1.4 1.4-1.4z" fill="#60605d"/><path id="XMLID_559_" d="m16.3 354.2h13.5c0.8 0 1.4 0.6 1.4 1.4v13.5c0 0.8-0.6 1.4-1.4 1.4h-13.5c-0.8 0-1.4-0.6-1.4-1.4v-13.5c0-0.8 0.6-1.4 1.4-1.4z" fill="#868580"/></g><g id="XMLID_568_"><path id="XMLID_571_" d="m50.7 352h26.2c0.8 0 1.4 0.6 1.4 1.4v19.8c0 0.8-0.6 1.4-1.4 1.4h-26.2c-0.8 0-1.4-0.6-1.4-1.4v-19.8c0-0.8 0.6-1.4 1.4-1.4z" fill="#60605d"/><path id="XMLID_569_" d="m53.7 354.2h20.3c0.8 0 1.4 0.6 1.4 1.4v13.5c0 0.8-0.6 1.4-1.4 1.4h-20.3c-0.8 0-1.4-0.6-1.4-1.4v-13.5c-0.1-0.8 0.6-1.4 1.4-1.4z" fill="#868580"/></g><g id="XMLID_573_"><path id="XMLID_576_" d="m81.1 352h26.2c0.8 0 1.4 0.6 1.4 1.4v19.8c0 0.8-0.6 1.4-1.4 1.4h-26.2c-0.8 0-1.4-0.6-1.4-1.4v-19.8c-0.1-0.8 0.6-1.4 1.4-1.4z" fill="#60605d"/><path id="XMLID_574_" d="m84 354.2h20.3c0.8 0 1.4 0.6 1.4 1.4v13.5c0 0.8-0.6 1.4-1.4 1.4h-20.3c-0.8 0-1.4-0.6-1.4-1.4v-13.5c0-0.8 0.6-1.4 1.4-1.4z" fill="#868580"/></g><g id="XMLID_578_"><path id="XMLID_581_" d="m111.4 352h26.2c0.8 0 1.4 0.6 1.4 1.4v19.8c0 0.8-0.6 1.4-1.4 1.4h-26.2c-0.8 0-1.4-0.6-1.4-1.4v-19.8c0-0.8 0.7-1.4 1.4-1.4z" fill="#60605d"/><path id="XMLID_579_" d="m114.4 354.2h20.3c0.8 0 1.4 0.6 1.4 1.4v13.5c0 0.8-0.6 1.4-1.4 1.4h-20.3c-0.8 0-1.4-0.6-1.4-1.4v-13.5c0-0.8 0.6-1.4 1.4-1.4z" fill="#868580"/></g><g id="XMLID_583_"><path id="XMLID_586_" d="m141.8 352h26.2c0.8 0 1.4 0.6 1.4 1.4v19.8c0 0.8-0.6 1.4-1.4 1.4h-26.2c-0.8 0-1.4-0.6-1.4-1.4v-19.8c0-0.8 0.6-1.4 1.4-1.4z" fill="#60605d"/><path id="XMLID_584_" d="m144.8 354.2h20.3c0.8 0 1.4 0.6 1.4 1.4v13.5c0 0.8-0.6 1.4-1.4 1.4h-20.3c-0.8 0-1.4-0.6-1.4-1.4v-13.5c-0.1-0.8 0.6-1.4 1.4-1.4z" fill="#868580"/></g><g id="XMLID_588_"><path id="XMLID_591_" d="m172.2 352h26.2c0.8 0 1.4 0.6 1.4 1.4v19.8c0 0.8-0.6 1.4-1.4 1.4h-26.2c-0.8 0-1.4-0.6-1.4-1.4v-19.8c0-0.8 0.6-1.4 1.4-1.4z" fill="#60605d"/><path id="XMLID_589_" d="m175.2 354.2h20.3c0.8 0 1.4 0.6 1.4 1.4v13.5c0 0.8-0.6 1.4-1.4 1.4h-20.3c-0.8 0-1.4-0.6-1.4-1.4v-13.5c-0.1-0.8 0.6-1.4 1.4-1.4z" fill="#868580"/></g><g id="XMLID_613_"><path id="XMLID_616_" d="m212.5 352h26.2c0.8 0 1.4 0.6 1.4 1.4v19.8c0 0.8-0.6 1.4-1.4 1.4h-26.2c-0.8 0-1.4-0.6-1.4-1.4v-19.8c0-0.8 0.6-1.4 1.4-1.4z" fill="#60605d"/><path id="XMLID_614_" d="m215.5 354.2h20.3c0.8 0 1.4 0.6 1.4 1.4v13.5c0 0.8-0.6 1.4-1.4 1.4h-20.3c-0.8 0-1.4-0.6-1.4-1.4v-13.5c-0.1-0.8 0.6-1.4 1.4-1.4z" fill="#868580"/></g><g id="XMLID_608_"><path id="XMLID_611_" d="m242.9 352h26.1c0.8 0 1.4 0.6 1.4 1.4v19.8c0 0.8-0.6 1.4-1.4 1.4h-26.2c-0.8 0-1.4-0.6-1.4-1.4v-19.8c0-0.8 0.7-1.4 1.5-1.4z" fill="#60605d"/><path id="XMLID_609_" d="m245.8 354.2h20.3c0.8 0 1.4 0.6 1.4 1.4v13.5c0 0.8-0.6 1.4-1.4 1.4h-20.3c-0.8 0-1.4-0.6-1.4-1.4v-13.5c0-0.8 0.6-1.4 1.4-1.4z" fill="#868580"/></g><g id="XMLID_603_"><path id="XMLID_606_" d="m273.2 352h26.2c0.8 0 1.4 0.6 1.4 1.4v19.8c0 0.8-0.6 1.4-1.4 1.4h-26.2c-0.8 0-1.4-0.6-1.4-1.4v-19.8c0-0.8 0.7-1.4 1.4-1.4z" fill="#60605d"/><path id="XMLID_604_" d="m276.2 354.2h20.3c0.8 0 1.4 0.6 1.4 1.4v13.5c0 0.8-0.6 1.4-1.4 1.4h-20.3c-0.8 0-1.4-0.6-1.4-1.4v-13.5c0-0.8 0.6-1.4 1.4-1.4z" fill="#868580"/></g><g id="XMLID_598_"><path id="XMLID_601_" d="m303.6 352h26.2c0.8 0 1.4 0.6 1.4 1.4v19.8c0 0.8-0.6 1.4-1.4 1.4h-26.2c-0.8 0-1.4-0.6-1.4-1.4v-19.8c0-0.8 0.6-1.4 1.4-1.4z" fill="#60605d"/><path id="XMLID_599_" d="m306.6 354.2h20.3c0.8 0 1.4 0.6 1.4 1.4v13.5c0 0.8-0.6 1.4-1.4 1.4h-20.3c-0.8 0-1.4-0.6-1.4-1.4v-13.5c-0.1-0.8 0.6-1.4 1.4-1.4z" fill="#868580"/></g><g id="XMLID_593_"><path id="XMLID_596_" d="m334 352h26.2c0.8 0 1.4 0.6 1.4 1.4v19.8c0 0.8-0.6 1.4-1.4 1.4h-26.2c-0.8 0-1.4-0.6-1.4-1.4v-19.8c0-0.8 0.6-1.4 1.4-1.4z" fill="#60605d"/><path id="XMLID_594_" d="m337 354.2h20.3c0.8 0 1.4 0.6 1.4 1.4v13.5c0 0.8-0.6 1.4-1.4 1.4h-20.3c-0.8 0-1.4-0.6-1.4-1.4v-13.5c-0.1-0.8 0.6-1.4 1.4-1.4z" fill="#868580"/></g><g id="XMLID_425_"><path id="XMLID_428_" d="m483.8 390.5h19.4c0.8 0 1.4 0.6 1.4 1.4v19.8c0 0.8-0.6 1.4-1.4 1.4h-19.4c-0.8 0-1.4-0.6-1.4-1.4v-19.8c0-0.8 0.6-1.4 1.4-1.4z" fill="#60605d"/><path id="XMLID_426_" d="m486.8 392.7h13.5c0.8 0 1.4 0.6 1.4 1.4v13.5c0 0.8-0.6 1.4-1.4 1.4h-13.5c-0.8 0-1.4-0.6-1.4-1.4v-13.5c-0.1-0.8 0.6-1.4 1.4-1.4z" fill="#868580"/></g><g id="XMLID_450_"><path id="XMLID_453_" d="m508.1 390.5h19.4c0.8 0 1.4 0.6 1.4 1.4v19.8c0 0.8-0.6 1.4-1.4 1.4h-19.4c-0.8 0-1.4-0.6-1.4-1.4v-19.8c-0.1-0.8 0.6-1.4 1.4-1.4z" fill="#60605d"/><path id="XMLID_451_" d="m511 392.7h13.5c0.8 0 1.4 0.6 1.4 1.4v13.5c0 0.8-0.6 1.4-1.4 1.4h-13.5c-0.8 0-1.4-0.6-1.4-1.4v-13.5c0-0.8 0.6-1.4 1.4-1.4z" fill="#868580"/></g><g id="XMLID_455_"><path id="XMLID_458_" d="m532.3 390.5h19.4c0.8 0 1.4 0.6 1.4 1.4v19.8c0 0.8-0.6 1.4-1.4 1.4h-19.4c-0.8 0-1.4-0.6-1.4-1.4v-19.8c0-0.8 0.7-1.4 1.4-1.4z" fill="#60605d"/><path id="XMLID_456_" d="m535.3 392.7h13.5c0.8 0 1.4 0.6 1.4 1.4v13.5c0 0.8-0.6 1.4-1.4 1.4h-13.5c-0.8 0-1.4-0.6-1.4-1.4v-13.5c0-0.8 0.6-1.4 1.4-1.4z" fill="#868580"/></g><g id="XMLID_460_"><path id="XMLID_463_" d="m556.6 390.5h19.4c0.8 0 1.4 0.6 1.4 1.4v19.8c0 0.8-0.6 1.4-1.4 1.4h-19.4c-0.8 0-1.4-0.6-1.4-1.4v-19.8c0-0.8 0.6-1.4 1.4-1.4z" fill="#60605d"/><path id="XMLID_461_" d="m559.6 392.7h13.5c0.8 0 1.4 0.6 1.4 1.4v13.5c0 0.8-0.6 1.4-1.4 1.4h-13.5c-0.8 0-1.4-0.6-1.4-1.4v-13.5c0-0.8 0.6-1.4 1.4-1.4z" fill="#868580"/></g><g id="XMLID_465_"><path id="XMLID_468_" d="m556.6 414.8h19.4c0.8 0 1.4 0.6 1.4 1.4v19.8c0 0.8-0.6 1.4-1.4 1.4h-19.4c-0.8 0-1.4-0.6-1.4-1.4v-19.8c0-0.8 0.6-1.4 1.4-1.4z" fill="#60605d"/><path id="XMLID_466_" d="m559.6 417h13.5c0.8 0 1.4 0.6 1.4 1.4v13.5c0 0.8-0.6 1.4-1.4 1.4h-13.5c-0.8 0-1.4-0.6-1.4-1.4v-13.5c0-0.8 0.6-1.4 1.4-1.4z" fill="#868580"/></g><g id="XMLID_508_"><path id="XMLID_511_" d="m556.6 438.7h19.4c0.8 0 1.4 0.6 1.4 1.4v19.8c0 0.8-0.6 1.4-1.4 1.4h-19.4c-0.8 0-1.4-0.6-1.4-1.4v-19.8c0-0.7 0.6-1.4 1.4-1.4z" fill="#60605d"/><path id="XMLID_509_" d="m559.6 440.9h13.5c0.8 0 1.4 0.6 1.4 1.4v13.5c0 0.8-0.6 1.4-1.4 1.4h-13.5c-0.8 0-1.4-0.6-1.4-1.4v-13.5c0-0.7 0.6-1.4 1.4-1.4z" fill="#868580"/></g><g id="XMLID_532_"><path id="XMLID_551_" d="m556.6 463.5h19.4c0.8 0 1.4 0.6 1.4 1.4v43.9c0 0.8-0.6 1.4-1.4 1.4h-19.4c-0.8 0-1.4-0.6-1.4-1.4v-43.9c0-0.7 0.6-1.4 1.4-1.4z" fill="#60605d"/><path id="XMLID_549_" d="m559.6 465.7h13.5c0.8 0 1.4 0.6 1.4 1.4v37.6c0 0.8-0.6 1.4-1.4 1.4h-13.5c-0.8 0-1.4-0.6-1.4-1.4v-37.6c0-0.7 0.6-1.4 1.4-1.4z" fill="#868580"/></g></g><g id="grill" fill="#777878"><path id="XMLID_137_" d="m5.6 254.9h571.4c0.2 0 0.3 0.1 0.3 0.3v3.3c0 0.2-0.1 0.3-0.3 0.3h-571.4c-0.2 0-0.3-0.1-0.3-0.3v-3.3c0-0.1 0.1-0.3 0.3-0.3z"/><path id="XMLID_135_" d="m5.6 262.4h571.4c0.2 0 0.3 0.1 0.3 0.3v3.3c0 0.2-0.1 0.3-0.3 0.3h-571.4c-0.2 0-0.3-0.1-0.3-0.3v-3.3c0-0.2 0.1-0.3 0.3-0.3z"/><path id="XMLID_133_" d="m5.6 269.9h571.4c0.2 0 0.3 0.1 0.3 0.3v3.3c0 0.2-0.1 0.3-0.3 0.3h-571.4c-0.2 0-0.3-0.1-0.3-0.3v-3.3c0-0.2 0.1-0.3 0.3-0.3z"/><path id="XMLID_131_" d="m5.6 277.4h571.4c0.2 0 0.3 0.1 0.3 0.3v3.3c0 0.2-0.1 0.3-0.3 0.3h-571.4c-0.2 0-0.3-0.1-0.3-0.3v-3.3c0-0.2 0.1-0.3 0.3-0.3z"/><path id="XMLID_129_" d="m5.6 284.9h571.4c0.2 0 0.3 0.1 0.3 0.3v3.3c0 0.2-0.1 0.3-0.3 0.3h-571.4c-0.2 0-0.3-0.1-0.3-0.3v-3.3c0-0.2 0.1-0.3 0.3-0.3z"/><path id="XMLID_127_" d="m5.6 292.4h571.4c0.2 0 0.3 0.1 0.3 0.3v3.3c0 0.2-0.1 0.3-0.3 0.3h-571.4c-0.2 0-0.3-0.1-0.3-0.3v-3.3c0-0.2 0.1-0.3 0.3-0.3z"/><path id="XMLID_125_" d="m5.6 299.9h571.4c0.2 0 0.3 0.1 0.3 0.3v3.3c0 0.2-0.1 0.3-0.3 0.3h-571.4c-0.2 0-0.3-0.1-0.3-0.3v-3.3c0-0.2 0.1-0.3 0.3-0.3z"/></g><g id="plaque"><path id="XMLID_51_" d="m12.5 338.4v-14.2c0-0.5 0.4-1 1-1h60.7c0.1 0 0.3 0 0.4 0.1-0.2-0.2-0.4-0.4-0.7-0.4h-60.8c-0.5 0-1 0.4-1 1v14.2c0 0.4 0.2 0.7 0.6 0.9-0.1-0.2-0.2-0.4-0.2-0.6z" fill="#eaeaea"/><path id="XMLID_60_" d="m74.3 323.1c0.1 0.1 0.1 0.3 0.1 0.5v14.2c0 0.5-0.4 1-1 1h-60.7c-0.2 0-0.3-0.1-0.5-0.1 0.2 0.3 0.5 0.5 0.8 0.5h60.7c0.5 0 1-0.4 1-1v-14.3c0.1-0.3-0.1-0.6-0.4-0.8z" fill="#777878"/></g><g id="a1200_x5F_logo"><path id="XMLID_85_" d="m29.6 328.5-1.6 0.4-0.3-1.6 1.6-0.4 0.3 1.6z" fill="#ec2127"/><path id="XMLID_79_" d="m25.9 329.7h-1.3-0.1-0.1l-1.2 4-1.4-4h-0.8-1.4v0.2h0.9v5.8h0.2v-5.5l2 5.5h0.2l0.5-1.7 1.3-4v5.8h0.6 1.4v-0.2h-0.7v-5.9h-0.1z" fill="#0b0b0b"/><path id="XMLID_76_" d="m17.2 329.6h-0.2l-0.5 1.4-1.7 4.8h0.2l0.6-1.8h1.9l0.6 1.8h1.2 0.7v-0.2h-0.7l-2.1-6zm-1.5 4.1 0.9-2.5 0.9 2.5h-1.8z" fill="#0b0b0b"/><path id="XMLID_73_" d="m41.1 335.5h-0.7l-2.1-6h-0.2l-0.5 1.4-1.6 4.8h0.2l0.6-1.8h1.9l0.6 1.8h1.2 0.6v-0.2zm-4.2-1.8 0.9-2.5 0.9 2.5h-1.8z" fill="#0b0b0b"/><path id="XMLID_71_" d="m29.1 329.9h0.8v-0.2h-1.4-0.7v5.8h-0.6v0.2h1.3 0.1 1.3v-0.2h-0.8v-5.6z" fill="#0b0b0b"/><path id="XMLID_69_" d="m33.5 333.8h0.9v1.2c0 0.3-0.3 0.6-0.6 0.6-0.8 0.1-1.6-0.1-1.7-0.7-0.3-1.1-0.2-2.5-0.1-3.7 0-0.8 0.7-1.4 1.5-1.4s1.5 0.6 1.6 1.4v0.2h0.4v-1.1s-0.1-0.2-0.2-0.3c-0.6-0.4-1.5-0.6-2.4-0.4-1.6 0.4-2.7 2.2-2 4.3 0.4 1.3 1.9 2.4 3.7 1.8 0.8-0.3 1.3-1 1.3-1.9v-0.2h-2.2v0.2h-0.2z" fill="#0b0b0b"/><path id="XMLID_66_" d="m46.7 333.8 1.4-1.9v1.9h-1.4zm2.3 2 0.1-0.2h-0.2c-0.1 0-0.1 0-0.2-0.1s-0.1-0.1-0.1-0.2v-0.2l0.1-4.3h-0.2c-0.4 0.6-0.9 1.3-1.5 2.1s-1.1 1.5-1.5 2.1l-0.3 0.3c-0.1 0.1-0.2 0.1-0.2 0.2-0.1 0-0.1 0.1-0.2 0.1h-0.2l-0.1 0.2h1.7l0.1-0.2c-0.2 0-0.3 0-0.4-0.1-0.1 0-0.1-0.1-0.1-0.2 0 0 0-0.1 0.1-0.2 0-0.1 0.1-0.2 0.1-0.2 0.1-0.1 0.1-0.2 0.2-0.4s0.2-0.3 0.3-0.4h1.5v0.9 0.3c0 0.1 0 0.1-0.1 0.1 0 0-0.1 0.1-0.2 0.1h-0.2-0.2l-0.1 0.2 1.8 0.1z" fill="#0b0b0b"/><path id="XMLID_64_" d="m56.2 331.1c-0.2 0.2-0.4 0.3-0.6 0.4s-0.5 0.2-0.8 0.2h-0.2l-0.1 0.3h0.9l-1.1 3c0 0.1-0.1 0.2-0.2 0.3s-0.2 0.1-0.2 0.2c-0.1 0-0.2 0-0.4 0.1h-0.4l-0.1 0.2h2.6l0.1-0.3h-0.3c-0.1 0-0.2-0.1-0.3-0.1l-0.1-0.1v-0.2-0.1-0.1l0.9-2.5c0-0.1 0.1-0.3 0.2-0.6s0.2-0.5 0.3-0.7h-0.2z" fill="#0b0b0b"/><path id="XMLID_62_" d="m60.7 331.4c-0.2-0.2-0.6-0.4-1-0.4-0.3 0-0.5 0-0.8 0.1-0.2 0.1-0.5 0.2-0.6 0.4-0.2 0.1-0.4 0.3-0.5 0.5s-0.2 0.3-0.2 0.5v0.3c0 0.1 0.1 0.1 0.3 0.1s0.3-0.1 0.5-0.2c0.1-0.1 0.2-0.3 0.2-0.6v-0.2-0.1c0.1-0.1 0.2-0.2 0.4-0.3s0.3-0.1 0.6-0.1c0.2 0 0.4 0.1 0.5 0.2 0.1 0.2 0.1 0.4 0.1 0.7 0 0.2-0.1 0.5-0.2 0.6-0.1 0.2-0.3 0.3-0.5 0.5-0.1 0.1-0.3 0.2-0.5 0.3s-0.4 0.2-0.7 0.3c-0.2 0.1-0.4 0.2-0.5 0.2-0.2 0.1-0.3 0.2-0.5 0.3s-0.3 0.2-0.4 0.3l-0.3 0.3-0.2 0.6h3.6l0.3-0.7h-3c0.2-0.2 0.4-0.3 0.6-0.4s0.5-0.2 0.7-0.3c0.3-0.1 0.6-0.2 0.8-0.3s0.5-0.2 0.7-0.3c0.3-0.2 0.5-0.3 0.6-0.5 0.2-0.2 0.3-0.5 0.3-0.8 0-0.4 0-0.7-0.3-1z" fill="#0b0b0b"/><path id="XMLID_59_" d="m65.5 331.6c-0.2-0.3-0.6-0.5-1.1-0.5-0.4 0-0.7 0.1-1.1 0.2-0.3 0.2-0.7 0.4-0.9 0.7-0.3 0.3-0.5 0.6-0.7 1s-0.3 0.8-0.4 1.2c-0.1 0.5 0 0.9 0.2 1.2s0.6 0.5 1.1 0.5c0.4 0 0.8-0.1 1.1-0.3s0.6-0.4 0.9-0.7 0.5-0.6 0.7-1 0.3-0.8 0.4-1.2 0.1-0.8-0.2-1.1zm-0.8 1.9c-0.1 0.3-0.3 0.7-0.5 1-0.2 0.4-0.5 0.6-0.7 0.8s-0.5 0.3-0.8 0.3-0.5-0.1-0.6-0.3-0.1-0.5-0.1-0.9c0-0.3 0.1-0.6 0.3-0.9 0.1-0.3 0.3-0.7 0.5-1s0.4-0.6 0.7-0.8 0.5-0.3 0.8-0.3 0.5 0.1 0.6 0.3 0.1 0.5 0.1 0.9c-0.1 0.3-0.1 0.6-0.3 0.9z" fill="#0b0b0b"/><path id="XMLID_56_" d="m70.3 331.6c-0.2-0.3-0.6-0.5-1.1-0.5-0.4 0-0.7 0.1-1.1 0.2-0.3 0.2-0.7 0.4-0.9 0.7-0.3 0.3-0.5 0.6-0.7 1s-0.3 0.8-0.4 1.2c-0.1 0.5 0 0.9 0.2 1.2s0.6 0.5 1.1 0.5c0.4 0 0.8-0.1 1.1-0.3s0.6-0.4 0.9-0.7 0.5-0.6 0.7-1 0.3-0.8 0.4-1.2 0.1-0.8-0.2-1.1zm-0.8 1.9c-0.1 0.3-0.3 0.7-0.5 1-0.2 0.4-0.5 0.6-0.7 0.8s-0.5 0.3-0.8 0.3-0.5-0.1-0.6-0.3-0.1-0.5-0.1-0.9c0-0.3 0.1-0.6 0.3-0.9 0.1-0.3 0.3-0.7 0.5-1s0.4-0.6 0.7-0.8 0.5-0.3 0.8-0.3 0.5 0.1 0.6 0.3 0.1 0.5 0.1 0.9c-0.1 0.3-0.1 0.6-0.3 0.9z" fill="#0b0b0b"/></g><g id="lights"><path id="XMLID_91_" d="m542.2 351.3h17.8c0.1 0 0.2 0.1 0.2 0.2v2.4c0 0.1-0.1 0.2-0.2 0.2h-17.8c-0.1 0-0.2-0.1-0.2-0.2v-2.4c0-0.1 0.1-0.2 0.2-0.2z" fill="#525056"/><path id="XMLID_89_" d="m542.2 361.6h17.8c0.1 0 0.2 0.1 0.2 0.2v2.4c0 0.1-0.1 0.2-0.2 0.2h-17.8c-0.1 0-0.2-0.1-0.2-0.2v-2.4c0-0.1 0.1-0.2 0.2-0.2z" fill="#525056"/><path id="XMLID_87_" d="m542.2 371.9h17.8c0.1 0 0.2 0.1 0.2 0.2v2.4c0 0.1-0.1 0.2-0.2 0.2h-17.8c-0.1 0-0.2-0.1-0.2-0.2v-2.4c0-0.1 0.1-0.2 0.2-0.2z" fill="#b9d432"/><path id="XMLID_494_" d="m557.9 374h-13.6c-0.3 0-0.6-0.3-0.6-0.6v-0.3c0-0.3 0.3-0.6 0.6-0.6h13.6c0.3 0 0.6 0.3 0.6 0.6v0.3c0 0.4-0.3 0.6-0.6 0.6z" fill="#e6e414" fill-rule="evenodd"/></g><g id="amiga_x5F_logo_x5F_big"><g id="XMLID_50_"><g id="XMLID_75_" fill="#777878"><polygon id="XMLID_77_" points="401.1 365.9 407.5 357.9 407.5 356.8 400.2 365.9"/><path id="XMLID_78_" d="m412.1 350.4v19.5 1.9c0 0.8 0.2 1.4 0.6 1.8 0.2 0.2 0.4 0.4 0.8 0.5-0.1 0-0.1-0.1-0.2-0.1-0.3-0.4-0.5-1-0.6-1.8v-1.9-19.8h-0.6v-0.1z"/><path id="XMLID_80_" d="m397.4 374.5v0.4h-6.6l-0.1 0.3h7.3v-0.6c-0.2-0.1-0.4-0.1-0.6-0.1z"/><path id="XMLID_88_" d="m407.5 367h-8.1l-1.5 1.9-1.7 2c-0.3 0.4-0.5 0.9-0.7 1.2-0.1 0.3-0.2 0.6-0.1 0.8 0 0.3 0.2 0.6 0.5 0.8 0.1 0.1 0.3 0.2 0.5 0.2-0.3-0.2-0.4-0.5-0.4-0.7 0-0.3 0-0.6 0.1-0.8 0.1-0.4 0.4-0.8 0.7-1.2l1.7-2 1.5-1.9h7.6l-0.1-0.3z"/><path id="XMLID_90_" d="m414.3 374.4-0.1 0.4h-9.9l-0.1 0.3h10.6l0.2-0.6c-0.3 0-0.5 0-0.7-0.1z"/></g><g id="XMLID_61_" fill="#777878"><path id="XMLID_63_" d="m425.5 355.2-0.2-1.7-4.2 16.9c-0.2 0.7-0.2 1.2-0.2 1.7 0 0.6 0.3 1.1 0.7 1.5l0.6 0.3c-0.4-0.4-0.7-0.8-0.7-1.4 0-0.4 0.1-1 0.2-1.7l3.8-15.6z"/><polygon id="XMLID_86_" points="432.4 368 432.8 367.3 430.3 351 429.7 351"/><path id="XMLID_92_" d="m451.6 351-0.1 0.3c-1.2 0-2.1 0.2-2.7 0.8-0.6 0.5-1.1 1.5-1.4 3l-3.9 15.5c-0.2 1-0.4 1.7-0.3 2.2 0 0.4 0.2 0.8 0.6 1.1 0.1 0.1 0.3 0.2 0.5 0.2-0.3-0.3-0.4-0.6-0.5-1 0-0.5 0.1-1.2 0.3-2.2l3.9-15.6c0.4-1.5 0.9-2.5 1.4-3 0.6-0.5 1.5-0.7 2.7-0.7l0.2-0.6h-0.7z"/><path id="XMLID_93_" d="m445.8 374.8h-11.5l-0.1 0.3h12.2l0.1-0.6h-0.6l-0.1 0.3z"/><polygon id="XMLID_94_" points="442.7 353.8 428.9 374.8 428.7 374.8 428.7 375.2 429.5 375.2 442.2 355.8"/><path id="XMLID_102_" d="m423.5 374.8h-7.4l-0.1 0.3h8.1l0.2-0.6c-0.2 0-0.4 0-0.7-0.1l-0.1 0.4z"/></g><g id="XMLID_58_"><line id="XMLID_31_" x1="454.5" x2="454.4" y1="351.3" y2="351.6" fill="none"/><path id="XMLID_82_" d="m460.5 374.8h-11.4l-0.1 0.3h12.1l0.2-0.6h-0.7l-0.1 0.3z" fill="#777878"/><path id="XMLID_101_" d="m465.9 351-0.1 0.3c-1.1 0-1.9 0.2-2.4 0.7-0.6 0.5-1 1.5-1.4 3l-3.9 15.5c-0.3 1.1-0.4 1.8-0.4 2.2s0.2 0.8 0.5 1c0.1 0.1 0.3 0.2 0.5 0.2-0.3-0.2-0.4-0.5-0.4-0.9s0.1-1.1 0.4-2.2l3.9-15.5c0.4-1.5 0.8-2.5 1.4-3s1.4-0.7 2.4-0.7l0.2-0.6h-0.7z" fill="#777878"/></g><g id="XMLID_52_" fill="#777878"><path id="XMLID_53_" d="m488.6 351.2-1.2 6.6h-0.1v0.3h0.6l1.2-6.6s0-0.7-0.2-0.9-0.4-0.2-0.4-0.2h-0.1c0.1 0.3 0.2 0.8 0.2 0.8z"/><path id="XMLID_54_" d="m472.1 372.3c0.6 0.6 1.2 1.1 1.9 1.4-0.4-0.3-0.9-0.6-1.3-1.1-1.2-1.3-1.8-3.1-1.9-5.4-0.1-2.8 0.6-5.4 1.7-7.9s3.2-4.4 4.9-5.6 3.9-1.9 5.6-1.9c0.7 0 1.1 0.1 1.5 0.2-0.5-0.4-1.1-0.6-2.1-0.6-1.7 0-3.9 0.7-5.6 1.9s-3.8 3.1-4.9 5.6-1.8 5.1-1.7 7.9c0.1 2.4 0.7 4.2 1.9 5.5z"/><path id="XMLID_97_" d="m488.4 363.6c-0.6 0-1.1 0.2-1.5 0.4-0.3 0.2-0.6 0.5-0.8 0.9-0.1 0.2-0.3 0.8-0.5 1.8l-1.8 7.2c-2.5 1-5.2 1.6-8.1 1.6-2.2 0-4-0.4-5.6-1.1 0.2 0.1 0.3 0.2 0.5 0.3 1.6 0.8 3.5 1.2 5.7 1.2 2.9 0 5.6-0.5 8.1-1.6l1.8-7.2c0.2-1 0.4-1.6 0.5-1.8 0.2-0.4 0.5-0.7 0.8-0.9s0.8-0.3 1.5-0.4l0.1-0.7h-0.6l-0.1 0.3z"/></g><g id="XMLID_55_" fill="#777878"><path id="XMLID_57_" d="m492.3 374.5v0.4h-6.6l-0.1 0.3h7.3v-0.6c-0.3-0.1-0.5-0.1-0.6-0.1z"/><path id="XMLID_84_" d="m506.9 350.4v19.5 1.9c0 0.8 0.2 1.4 0.6 1.8 0.2 0.2 0.4 0.4 0.8 0.5-0.1 0-0.1-0.1-0.2-0.1-0.3-0.4-0.5-1-0.6-1.8v-1.9-19.8h-0.6v-0.1z"/><polygon id="XMLID_100_" points="496 365.9 503 357.2 503 356.1 495.1 365.9"/><path id="XMLID_103_" d="m502.3 367h-8.1l-1.5 1.9-1.7 2c-0.3 0.4-0.5 0.9-0.7 1.2-0.1 0.3-0.2 0.6-0.1 0.8 0 0.3 0.2 0.6 0.5 0.8 0.1 0.1 0.3 0.2 0.5 0.2-0.3-0.2-0.4-0.5-0.4-0.7 0-0.3 0-0.6 0.1-0.8 0.1-0.4 0.4-0.8 0.7-1.2l1.7-2 1.5-1.9h7.5v-0.3z"/><path id="XMLID_104_" d="m509.1 374.4-0.1 0.4h-9.9l-0.1 0.3h10.6l0.2-0.6c-0.3 0-0.5 0-0.7-0.1z"/></g></g><g id="XMLID_29_" fill="#e8e8e8"><g id="XMLID_120_"><path id="XMLID_126_" d="m391.4 374.9c0.6-0.1 1.2-0.3 1.7-0.7 0.7-0.5 1.6-1.5 2.8-3l16.5-20.4h0.2v-0.3h-0.8l-16.5 20.4c-1.2 1.5-2.1 2.5-2.8 3-0.5 0.3-1.1 0.6-1.7 0.7l-0.2 0.6h0.7l0.1-0.3z"/><polygon id="XMLID_128_" points="408.1 357.1 407.5 357.9 407.4 365.9 401.2 365.9 401 366.2 408 366.2"/><path id="XMLID_130_" d="m404.9 374.9c1-0.1 1.6-0.2 1.8-0.3 0.3-0.2 0.6-0.5 0.9-1.1 0.3-0.5 0.4-1.5 0.4-2.8v-3.5h-0.6v3.2c0 1.3-0.1 2.2-0.4 2.8-0.3 0.5-0.5 0.9-0.9 1.1-0.2 0.1-0.8 0.2-1.8 0.3l-0.2 0.6h0.7l0.1-0.3z"/></g><g id="XMLID_70_"><path id="XMLID_72_" d="m422.1 351.3h8.2v-0.3h-8.7l-0.2 0.6h0.7v-0.3z"/><path id="XMLID_114_" d="m434.9 374.9c1.3 0 2.3-0.2 2.9-0.8 0.6-0.5 1.1-1.5 1.5-3l4.2-17-1.1 1.6-3.7 15c-0.4 1.5-0.9 2.5-1.5 3s-1.6 0.8-2.9 0.8l-0.2 0.6h0.7l0.1-0.2z"/><polygon id="XMLID_116_" points="433 368.3 444.3 351.3 452.2 351.3 452.3 351 443.7 351 432.9 367.3"/><polygon id="XMLID_118_" points="426.1 354 425.8 355.3 428.7 375.2 429.2 375.2"/><path id="XMLID_132_" d="m416.8 374.9c1 0 1.7-0.2 2.2-0.6 0.9-0.7 1.5-1.7 1.9-3.1l4.6-17.9c-0.5-0.5-1-0.9-1.4-1.1 0.3 0.2 0.5 0.4 0.8 0.7l-4.6 17.9c-0.4 1.4-1 2.4-1.9 3.1-0.5 0.4-1.2 0.6-2.2 0.6l-0.1 0.6h0.7v-0.2z"/></g><g id="XMLID_67_"><path id="XMLID_110_" d="m455.2 351.3h11.2l0.1-0.3h-11.9l-0.2 0.6c0.2 0 0.5 0 0.7 0.1l0.1-0.4z"/><path id="XMLID_112_" d="m449.8 374.9c1.2 0 2.1-0.2 2.6-0.7s1-1.5 1.4-3l3.9-15.5c0.2-1 0.3-1.7 0.3-2.2 0-0.4-0.2-0.8-0.5-1-0.1-0.1-0.3-0.1-0.4-0.2 0.2 0.2 0.4 0.5 0.4 0.9 0 0.5-0.1 1.2-0.3 2.2l-3.9 15.5c-0.4 1.6-0.9 2.6-1.4 3-0.5 0.5-1.4 0.7-2.6 0.7l-0.2 0.6h0.7v-0.3z"/></g><g id="XMLID_32_"><path id="XMLID_33_" d="m478.4 363.9h0.6l0.1-0.4h9.8l0.1-0.3h-10.5l-0.1 0.7z"/><path id="XMLID_106_" d="m474.5 374c0.9 0.6 1.8 0.8 2.8 0.8 0.6 0 1.4-0.2 2.3-0.5l1.6-6.4c0.3-1.1 0.4-1.8 0.4-2.1 0-0.4-0.2-0.8-0.6-1.1-0.1-0.1-0.3-0.2-0.5-0.2 0.3 0.3 0.5 0.6 0.5 1 0 0.3-0.1 1-0.4 2.1l-1.6 6.4c-0.9 0.3-1.7 0.5-2.3 0.5-0.8 0-1.5-0.2-2.2-0.5z"/><path id="XMLID_108_" d="m467.2 371.2c-1.1-1.7-1.7-3.6-1.8-5.7-0.2-4.6 1.7-8.3 5.7-11.3 3.1-2.3 6.6-3.3 10.7-3.5 0.4 0 1.4-0.1 2.8-0.1 1.1 0 2.5 0 4.4 0.2 0 0 0-0.1-0.1-0.1-0.2-0.2-0.4-0.2-0.4-0.2-2-0.2-3.3-0.2-4.5-0.2-1.4 0-2.4 0.1-2.8 0.1-4 0.2-7.6 1.3-10.7 3.5-4 3-5.9 6.7-5.7 11.3 0.1 2.1 0.7 4 1.8 5.7s2.4 2.9 4 3.7h0.1c-1.3-0.8-2.5-1.9-3.5-3.4z"/><path id="XMLID_136_" d="m487.4 358.2h0.6c-0.2-2.1-0.3-3.6-1.2-4.5-0.6-0.6-1-1-1.6-1.3 0.3 0.2 0.6 0.6 1 0.9 0.9 1 1 2.6 1.2 4.9z"/></g><g id="XMLID_27_"><path id="XMLID_95_" d="m499.8 374.9c1-0.1 1.6-0.2 1.8-0.3 0.3-0.2 0.6-0.5 0.9-1.1 0.3-0.5 0.4-1.5 0.4-2.8v-3.4h-0.6v3.1c0 1.3-0.1 2.2-0.4 2.8-0.3 0.5-0.5 0.9-0.9 1.1-0.2 0.1-0.8 0.2-1.8 0.3l-0.2 0.6h0.7l0.1-0.3z"/><path id="XMLID_138_" d="m486.3 374.9c0.6-0.1 1.2-0.3 1.7-0.7 0.7-0.5 1.6-1.5 2.8-3l16.5-20.4h0.2v-0.3h-0.8l-16.5 20.4c-1.2 1.5-2.1 2.5-2.8 3-0.5 0.3-1.1 0.6-1.7 0.7l-0.2 0.6h0.7l0.1-0.3z"/><polygon id="XMLID_139_" points="503 357.2 502.4 357.9 502.2 365.9 496.1 365.9 495.8 366.2 502.8 366.2"/></g></g></g></g><g id="g3756" transform="matrix(.69692 0 0 .69692 656.15 403.04)"><g id="layer1" transform="translate(0 -844.36)"><path id="path986" d="m181.77 1030.1h11.284v7.3612h-11.284v-7.3612zm-179.62-184.18-1.205 1.1075-0.3875 1.3988 0.19375 201.53 0.46625 1.0325 1.03 0.6587 196.11 0.1738 1.305-0.7338 0.65875-1.225-0.2725-179.79h-1.3988v-8.1988l1.1062 0.2725v-2.7975l-15.095-13.25-2.9912-0.175-0.9325 0.835h-16.046l-1.3988 1.3988-3.2638 0.0975h-107.79l1e-3 -0.9325-26.5-0.195 0.0962-1.03-23.684-0.17375 2e-3 1e-3z" fill="#3b3b3b"/><g id="g988" transform="matrix(1.25 0 0 -1.25 .5625 848.4)"><path id="path990" d="m0 0 0.149-161.22 0.373-0.821 0.821-0.522 156.9-0.149 1.044 0.597 0.523 0.969-0.224 143.84h-1.119v6.566l0.895-0.224v2.238l-12.086 10.594-2.388 0.149-0.746-0.671h-12.832l-1.119-1.119-2.611-0.075h-86.245v0.746l-21.188 0.15 0.074 0.82-18.95 0.149-0.97-0.895-0.298-1.119v0z" fill="none" stroke="#424242" stroke-linecap="round" stroke-linejoin="round" stroke-miterlimit="10" stroke-width=".9"/></g><g id="g992" transform="matrix(1.25 0 0 -1.25 26.022 846.73)"><path id="path994" d="m0 0v-52.896l0.373-0.671 0.522-0.224h23.128" fill="none" stroke="#858586" stroke-linecap="round" stroke-linejoin="round" stroke-miterlimit="10" stroke-width=".6"/></g><path id="path996" d="m6.9979 1037.5h11.284v-7.3675h-11.284v7.3675z" fill="#292929"/><g id="g998" transform="matrix(1.25 0 0 -1.25 176.17 1046.7)"><path id="path1000" d="m0 0v87.757l-0.895 1.044-119.37-0.149-1.045-0.746v-88.018l121.31 0.112z" fill="#fff"/></g><path id="path1002" d="m113.86 856.71h28.832v54.09h-28.832v-54.09zm-61.57-11.055v67.128l1.9438 1.4962h103.19l1.71-1.885v-66.735h-106.84l-4e-3 -4e-3z" fill="#b2b2b2"/></g></g></svg>
