<?xml version="1.0" encoding="UTF-8"?>
<svg id="svg2" width="741" height="530" version="1.1" viewBox="0 0 741 530" xml:space="preserve" xmlns="http://www.w3.org/2000/svg" xmlns:cc="http://creativecommons.org/ns#" xmlns:dc="http://purl.org/dc/elements/1.1/" xmlns:rdf="http://www.w3.org/1999/02/22-rdf-syntax-ns#"><metadata id="metadata8"><rdf:RDF><cc:Work rdf:about=""><dc:format>image/svg+xml</dc:format><dc:type rdf:resource="http://purl.org/dc/dcmitype/StillImage"/><dc:title/></cc:Work></rdf:RDF></metadata><defs id="defs6"><clipPath id="clipPath16"><path id="path18" d="m0 887.74h758.58v-887.74h-758.58v887.74z"/></clipPath><clipPath id="clipPath1176"><path id="path1178" d="m0 887.74h758.58v-887.74h-758.58v887.74z"/></clipPath></defs><g id="g10" transform="matrix(.58792 0 0 -.58792 4.3991e-5 530)"><g id="g12"><g id="g14" clip-path="url(#clipPath16)"><g id="g20" transform="translate(735.3 432.14)"><path id="path22" d="m0 0-695.67 0.076c-6.771 0-11.563 5.423-11.563 12.175l11.868 431.08c0 6.752 5.54 12.276 12.311 12.276h668.91c6.771 0 12.311-5.524 12.311-12.276l13.981-431.08c0-6.752-5.382-12.251-12.153-12.251" fill="#c0c3b6"/></g><g id="g24" transform="translate(726.45 442.39)"><path id="path26" d="m0 0-678.08 0.075c-6.6 0-11.27 5.3-11.27 11.9l11.567 421.38c0 6.6 5.4 12 12 12h652c6.6 0 12-5.4 12-12l13.627-421.38c0-6.6-5.245-11.975-11.845-11.975" fill="#cfd1ca"/></g><g id="g28" transform="translate(657.77 325.01)"><path id="path30" d="m0 0c8.803-11.458 15.944-24.1 24.717-35.534 10.182-13.269 15.21-28.562 19.9-44.183 7.35-24.48 14.888-48.904 22.398-73.336 11.022-35.855 22.308-71.631 32.951-107.6 2.088-7.055-0.384-14.763-0.465-22.178-9e-3 -0.812-0.584-1.665-0.456-2.424 1.547-9.166-3.259-15.871-8.475-22.491-2.77-3.517-5.221-7.285-7.964-10.825-2.027-2.616-4.107-5.318-7.904-5.428 1.655 4.791 6.043 7.854 7.908 12.534 0.611 1.534 1.727 2.853 2.342 4.407 1.578 3.986 0.645 5.605-3.538 6.148-1.656 0.215-3.328 0.145-4.993 0.145-236.93 4e-3 -473.86 4e-3 -710.79-1e-3 -9.952 0-10.298-0.778-5.841-9.754 1.875-3.775 5.49-6.862 5.047-11.653-5.115 1.935-6.452 7.297-9.78 10.859-1.801 1.927-2.858 4.592-4.77 6.364-8.157 7.558-5.734 17.851-7.387 27.106-2.736 15.32 3.437 29.032 7.722 43.038 13.074 42.743 26.353 85.424 39.535 128.13 4.801 15.556 9.735 31.075 14.252 46.714 2.19 7.581 6.727 13.677 11.029 19.977 8.426 12.338 16.928 24.624 25.399 36.931 1.544-2.078 0.049-3.806-0.776-5.486-6.998-14.246-14.478-28.242-21.966-42.233-1.41-2.633-2.745-5.28-3.386-8.234-3.39-12.211-7.505-24.2-10.71-36.448-2.652-10.139 1.117-14.904 11.564-15.099 1.666-0.031 3.332-0.013 4.998-0.013h601.75c1.833 0 3.666-0.029 5.498 0.021 9.861 0.265 13.802 5.534 11.173 15.163-1.359 4.979-2.942 9.899-4.443 14.841-2.179 7.172-4.296 14.364-6.473 21.525-0.877 4.108-2.896 7.757-4.9 11.373-7.878 14.215-14.976 28.841-22.778 43.094-0.77 1.406-1.849 2.896-0.393 4.544" fill="#cfd1ca"/></g><g id="g32" transform="translate(22.613 2.8395)"><path id="path34" d="m0 0c-2.983 5.149-6.049 10.252-8.926 15.46-2.796 5.06-1.345 7.568 4.272 7.709 0.999 0.026 2 5e-3 2.999 5e-3 238.46 0 476.92 0 715.38-1e-3 1.5 0 3.008 0.09 4.497-0.035 4.07-0.342 6.391-3.485 4.425-6.879-3.699-6.386-6.053-13.819-12.785-18.086-2.906-0.828-5.865-1.007-8.885-1.007-229.55 0.027-459.1 0.029-688.65-5e-3 -4.378-1e-3 -8.543 0.478-12.328 2.839" fill="#434342"/></g><g id="g36" transform="translate(71.688 267.85)"><path id="path38" d="m0 0c4.674 10.782 10.559 20.95 15.918 31.385 3.848 7.492 8.19 14.737 11.008 22.726 3.669 9.62 11.022 14.377 20.865 15.998 2.756 0.454 5.437 1.369 8.152 2.072 2.552-3.155 1.957-7.062 1.949-10.558-0.033-16.314 1.272-32.575 1.586-48.87 0.117-6.065 0.96-6.908 6.943-7.13 0.998-0.037 1.998-0.024 2.997-0.024 76.779-1e-3 153.56 3e-3 230.34-0.015 3.686-1e-3 7.329 0.087 10.777 1.585 1.681-1.089 2.774 2.107 4.518 0.643 3.119-2.564 6.86-2.2 10.506-2.2 66.457-9e-3 132.91-7e-3 199.37-5e-3 11.326 0 22.653-0.068 33.978 0.03 6.537 0.057 7.295 0.967 7.668 7.571 0.984 17.441 0.975 34.916 1.833 52.361 0.112 2.288-0.288 4.725 1.628 6.577 7.13-3.09 13.117-7.404 16.052-14.987 3.924-7.826 7.852-15.652 11.769-23.483 5.632-11.261 12.309-21.991 17.121-33.669-1.39-1.512-3.27-1.486-5.091-1.592-1.83-0.107-3.665-0.057-5.497-0.057-197.93-1e-3 -395.86-6e-3 -593.8 0.043-3.561 1e-3 -7.377-0.987-10.592 1.599" fill="#c0c3b6"/></g><g id="g40" transform="translate(385.63 275.91)"><path id="path42" d="m0 0c-0.886 0.085-0.584-2.092-1.978-1.039-2.276 2.536-1.582 5.672-1.586 8.588-0.051 41.783-0.029 83.566-0.037 125.35-2e-3 10.115-0.284 10.417-10.293 10.419-78.239 0.011-156.48-0.013-234.72 0.067-3.819 4e-3 -7.561-1.231-11.39-0.472-0.02 0.973-0.041 1.946-0.063 2.919 0.435 10.141 0.435 10.141 10.92 10.141 167.1 0 334.2-8e-3 501.3 0.05 3.742 2e-3 6.789-0.061 5.914-5.084 0.138-0.303 0.376-0.605 0.385-0.914 0.269-9.067 0.197-7.75-6.769-6.857-1.982 0.254-3.99 0.154-5.987 0.154-77.571 3e-3 -155.14 4e-3 -232.71-1e-3 -11.306 0-11.312-0.014-11.313-11.4-3e-3 -41.116 0.016-82.233-0.034-123.35-4e-3 -2.917 0.68-6.057-1.639-8.57" fill="#a6a799"/></g><g id="g44" transform="translate(379.66 271.85)"><path id="path46" d="m0 0h-244.92c-2.214 0-4.026 1.812-4.026 4.026l-5.074 142.94c0 2.214 6.886 2.062 9.1 2.062h244.92c2.214 0 4.026-1.812 4.026-4.026v-140.98c0-2.214-1.812-4.026-4.026-4.026" fill="#cfd1ca"/></g><g id="g48" transform="translate(385.7 469)"><path id="path50" d="m0 0c-105 0-209.99-1e-3 -314.99 1e-3 -9.917 0-12.241 2.139-12.012 11.908 0.979 41.782 2.044 83.562 3.124 125.34 0.615 23.801 1.351 47.598 1.975 71.398 1.029 39.275 1.836 78.557 3.126 117.82 0.371 11.316 0.498 22.634 0.875 33.947 0.263 7.899 4.429 12.223 12.392 12.707 1.661 0.101 3.331 0.064 4.997 0.064 199.99 3e-3 399.98 4e-3 599.98-9e-3 2.496 0 5.023 0.042 7.481-0.316 5.451-0.793 9.081-4.554 9.293-10.078 0.787-20.46 1.404-40.925 2.053-61.39 1.02-32.111 2.004-64.224 3.022-96.336 0.643-20.3 1.334-40.597 1.979-60.896 1.016-31.946 1.976-63.893 3.031-95.837 0.401-12.137 1.034-24.267 1.494-36.403 0.338-8.917-2.663-11.919-11.831-11.92-105.33-6e-3 -210.66-4e-3 -315.99-4e-3" fill="#5a5b59"/></g><g id="g52" transform="translate(71.688 267.85)"><path id="path54" d="m0 0c204.99 2e-3 409.98 5e-3 614.98 7e-3 4.221-13.804 8.605-27.562 12.59-41.434 1.799-6.26-3.304-12.851-9.88-13.535-1.155-0.12-2.332-0.039-3.498-0.039-204.46-1e-3 -408.91-1e-3 -613.37 1e-3 -8.148 0-12.232 2.893-13.543 9.629-0.601 3.089 0.813 5.872 1.646 8.69 3.618 12.25 7.375 24.458 11.081 36.681" fill="#b5b6a9"/></g><g id="g56" transform="translate(379.16 60.863)"><path id="path58" d="m0 0h-354.49c-2.818 0-5.814-0.458-8.038 1.791-2.041 2.066-2.297 4.549-1.425 7.391 9.494 30.953 18.912 61.93 28.349 92.901 2.274 7.465 4.753 14.876 6.724 22.42 1.14 4.36 3.391 5.626 7.805 5.618 75.165-0.127 150.33-0.091 225.5-0.091 138.66 0 277.33-0.038 415.99 0.141 5.541 7e-3 7.539-2.173 8.937-6.909 6.44-21.814 13.115-43.558 19.68-65.334 4.886-16.212 9.829-32.408 14.549-48.669 1.982-6.827-0.04-9.253-7.082-9.254-59.999-9e-3 -120-5e-3 -180-5e-3h-176.5z" fill="#b5b6a9"/></g><g id="g60" transform="translate(374.62 276.7)"><path id="path62" d="m0 0h-236.56c-2.229 0-4.053 1.824-4.053 4.052l-3.296 130.65c0 2.229 1.542 4.605 3.771 4.605h240.14c2.229 0 4.052-1.823 4.052-4.052v-131.2c0-2.228-1.823-4.052-4.052-4.052" fill="#1a1a1a"/></g><g id="g64" transform="translate(316.91 481.89)"><path id="path66" d="m0 0c-72.831 0-145.66-1e-3 -218.49 2e-3 -9.296 0-12.717 3.366-12.717 12.529-3e-3 107.33-3e-3 214.66 1e-3 321.99 0 8.912 3.489 12.449 12.312 12.449 146.16 6e-3 292.32 6e-3 438.48-1e-3 8.776 0 12.167-3.338 12.168-11.997 8e-3 -107.66 8e-3 -215.32 0-322.99-1e-3 -8.487-3.59-11.978-12.264-11.979-73.164-5e-3 -146.33-3e-3 -219.49-3e-3" fill="#333"/></g><g id="g68" transform="translate(686.95 483.85)"><path id="path70" d="m0 0h-130.46c-2.087 0-3.795 1.708-3.795 3.795v116.41c0 2.087 1.708 3.795 3.795 3.795h130.46c2.087 0 3.795-1.708 3.795-3.795v-116.41c0-2.087-1.708-3.795-3.795-3.795" fill="#2d2d2c"/></g><g id="g72" transform="translate(467.41 227.69)"><path id="path74" d="m0 0-173.41-0.096c-1.114 0-2.493 3.036-2.493 4.151l1.374 17.445c0 1.115 2.164 2.762 3.279 2.762l168.38 0.189c1.115 0 3.844-1.261 3.844-2.375l1.484-18.781c0-1.115-1.344-3.295-2.459-3.295" fill="#4d4d4d"/></g><g id="g76" transform="translate(704.01 77.162)"><path id="path78" d="m0 0-648.67-0.296c-6.6 0-5.333 9.04-2.421 14.951l22 72.47c2.255 7.076 3.588 9.59 11.755 9.59h591.25c6.6 0 7.562-1.514 9.404-8.03l19.347-76.369c1.619-6.615 3.938-12.316-2.662-12.316" fill="#cfd1ca"/></g><g id="g80" transform="translate(614.92 485.77)"><path id="path82" d="m0 0h-55.493c-2.663 0-4.843 2.179-4.843 4.843v110.49c0 2.664 2.18 4.843 4.843 4.843h55.493c2.664 0 4.843-2.179 4.843-4.843v-110.49c0-2.664-2.179-4.843-4.843-4.843" fill="#464746"/></g><g id="g84" transform="translate(594.7 542.88)"><path id="path86" d="m0 0c0-6.081-4.93-11.011-11.011-11.011-6.082 0-11.012 4.93-11.012 11.011s4.93 11.011 11.012 11.011c6.081 0 11.011-4.93 11.011-11.011" fill="#1a1a1a"/></g><g id="g88" transform="translate(138.41 365.94)"><path id="path90" d="m0 0h81.737c0.888 0 1.614 0.726 1.614 1.614v1.042c0 0.888-0.726 1.614-1.614 1.614h-81.737c-0.888 0-1.614-0.726-1.614-1.614v-1.042c0-0.888 0.726-1.614 1.614-1.614" fill="#2d2d2d"/></g><g id="g92" transform="translate(218.79 351.76)"><path id="path94" d="m0 0h-72.203c-1.634 0-2.971 1.337-2.971 2.972v6.251c0 1.635 1.337 2.972 2.971 2.972h72.203c1.634 0 2.972-1.337 2.972-2.972v-6.251c0-1.635-1.338-2.972-2.972-2.972"/></g><g id="g96" transform="translate(138.41 345.94)"><path id="path98" d="m0 0h81.682c0.888 0 1.614 0.726 1.614 1.614v1.042c0 0.888-0.726 1.614-1.614 1.614h-81.682c-0.888 0-1.614-0.726-1.614-1.614v-1.042c0-0.888 0.726-1.614 1.614-1.614" fill="#2d2d2d"/></g><g id="g100" transform="translate(141.06 347.56)"><path id="path102" d="m0 0v20.833c0 0.888-0.726 1.614-1.614 1.614h-1.042c-0.888 0-1.614-0.726-1.614-1.614v-20.833c0-0.888 0.726-1.614 1.614-1.614h1.042c0.888 0 1.614 0.726 1.614 1.614" fill="#2d2d2d"/></g><g id="g104" transform="translate(373.6 349.99)"><path id="path106" d="m0 0h-81.737c-0.888 0-1.614-0.726-1.614-1.614v-1.042c0-0.888 0.726-1.614 1.614-1.614h81.737c0.888 0 1.614 0.726 1.614 1.614v1.042c0 0.888-0.726 1.614-1.614 1.614" fill="#2d2d2d"/></g><g id="g108" transform="translate(373.6 369.99)"><path id="path110" d="m0 0h-81.682c-0.888 0-1.614-0.726-1.614-1.614v-1.042c0-0.888 0.726-1.614 1.614-1.614h81.682c0.888 0 1.614 0.726 1.614 1.614v1.042c0 0.888-0.726 1.614-1.614 1.614" fill="#2d2d2d"/></g><g id="g112" transform="translate(370.95 368.38)"><path id="path114" d="m0 0v-20.833c0-0.888 0.726-1.614 1.614-1.614h1.042c0.888 0 1.614 0.726 1.614 1.614v20.833c0 0.888-0.726 1.614-1.614 1.614h-1.042c-0.888 0-1.614-0.726-1.614-1.614" fill="#2d2d2d"/></g><g id="g116" transform="translate(365.43 351.87)"><path id="path118" d="m0 0h-72.203c-1.634 0-2.971 1.337-2.971 2.972v6.251c0 1.635 1.337 2.972 2.971 2.972h72.203c1.634 0 2.972-1.337 2.972-2.972v-6.251c0-1.635-1.338-2.972-2.972-2.972"/></g><g id="g120" transform="translate(225.17 345.83)"><path id="path122" d="m0 0h59.531c1.907 0 3.467-1.561 3.467-3.468v-34.119c0-1.907-1.56-3.468-3.467-3.468h-59.531c-1.907 0-3.468 1.561-3.468 3.468v34.119c0 1.907 1.561 3.468 3.468 3.468"/></g><path id="path124" d="m291.43 345.85h-71.338v2.006h71.338v-2.006z" fill="#2d2d2d"/><g id="g126" transform="translate(186.72 315.12)"><path id="path128" d="m0 0c0-2.908-2.255-5.265-5.038-5.265-2.782 0-5.037 2.357-5.037 5.265s2.255 5.265 5.037 5.265c2.783 0 5.038-2.357 5.038-5.265"/></g><g id="g130" transform="translate(509.44 495.9)"><path id="path132" d="m0 0h-384.62c-6.729 0-12.234 5.505-12.234 12.234v293.85c0 6.729 5.505 12.234 12.234 12.234h384.62c6.728 0 12.234-5.505 12.234-12.234v-293.85c0-6.729-5.506-12.234-12.234-12.234"/></g><path id="path134" d="m117.67 431.89h-27.757v-14.322h27.757v14.322z" fill="#404040"/><g id="g136" transform="translate(122.84 421.8)"><path id="path138" d="m0 0-5.17-4.234v14.283h5.17v-10.049z" fill="#343434"/></g><path id="path140" d="m652.87 431.99h27.757v-14.322h-27.757v14.322z" fill="#404040"/><g id="g142" transform="translate(647.7 421.9)"><path id="path144" d="m0 0 5.17-4.234v14.283h-5.17v-10.049z" fill="#343434"/></g><g id="g146" transform="translate(576.72 610.34)"><path id="path148" d="m0 0h-19.189c-3.266 0-5.938 2.672-5.938 5.938v19.189c0 3.266 2.672 5.938 5.938 5.938h19.189c3.266 0 5.938-2.672 5.938-5.938v-19.189c0-3.266-2.672-5.938-5.938-5.938" fill="#2e2e2d"/></g><g id="g150" transform="translate(575.2 611.9)"><path id="path152" d="m0 0h-16.082c-3.266 0-5.938 2.672-5.938 5.938v16.082c0 3.266 2.672 5.939 5.938 5.939h16.082c3.266 0 5.938-2.673 5.938-5.939v-16.082c0-3.266-2.672-5.938-5.938-5.938" fill="#464846"/></g><g id="g154" transform="translate(683.82 609.9)"><path id="path156" d="m0 0h-93.943c-2.99 0-5.437 2.447-5.437 5.437v20.129c0 2.991 2.447 5.437 5.437 5.437h93.943c2.99 0 5.437-2.446 5.437-5.437v-20.129c0-2.99-2.447-5.437-5.437-5.437" fill="#2e2e2d"/></g><g id="g158" transform="translate(682.6 611.45)"><path id="path160" d="m0 0h-91.513c-2.991 0-5.437 2.447-5.437 5.437v17.029c0 2.99 2.446 5.437 5.437 5.437h91.513c2.99 0 5.437-2.447 5.437-5.437v-17.029c0-2.99-2.447-5.437-5.437-5.437" fill="#464846"/></g><g id="g162" transform="translate(683.93 485.77)"><path id="path164" d="m0 0h-55.493c-2.663 0-4.843 2.179-4.843 4.843v110.49c0 2.664 2.18 4.843 4.843 4.843h55.493c2.664 0 4.843-2.179 4.843-4.843v-110.49c0-2.664-2.179-4.843-4.843-4.843" fill="#464746"/></g><g id="g166" transform="translate(660.39 520.76)"><path id="path168" d="m0 0h-9.515c-1.279 0-2.324 1.046-2.324 2.324v41.595c0 1.279 1.045 2.325 2.324 2.325h9.515c1.278 0 2.324-1.046 2.324-2.325v-41.595c0-1.278-1.046-2.324-2.324-2.324" fill="#1a1a1a"/></g><g id="g170" transform="translate(660.29 587.87)"><path id="path172" d="m0 0c0-2.216-1.84-4.013-4.11-4.013s-4.11 1.797-4.11 4.013 1.84 4.013 4.11 4.013 4.11-1.797 4.11-4.013" fill="#1b1b1b"/></g><g id="g174" transform="translate(388.89 271.84)"><path id="path176" d="m0 0h244.92c2.214 0 4.026 1.812 4.026 4.026l5.074 142.94c0 2.214-6.886 2.062-9.1 2.062h-244.92c-2.214 0-4.026-1.812-4.026-4.026v-140.98c0-2.214 1.812-4.026 4.026-4.026" fill="#cfd1ca"/></g><g id="g178" transform="translate(393.93 276.69)"><path id="path180" d="m0 0h236.56c2.229 0 4.053 1.824 4.053 4.052l3.296 130.65c0 2.229-1.542 4.605-3.771 4.605h-240.14c-2.229 0-4.052-1.823-4.052-4.052v-131.2c0-2.228 1.823-4.052 4.052-4.052" fill="#1a1a1a"/></g><g id="g182" transform="translate(630.14 365.93)"><path id="path184" d="m0 0h-81.737c-0.888 0-1.614 0.726-1.614 1.614v1.042c0 0.888 0.726 1.614 1.614 1.614h81.737c0.888 0 1.614-0.726 1.614-1.614v-1.042c0-0.888-0.726-1.614-1.614-1.614" fill="#2d2d2d"/></g><g id="g186" transform="translate(549.76 351.75)"><path id="path188" d="m0 0h72.203c1.634 0 2.971 1.337 2.971 2.972v6.251c0 1.635-1.337 2.972-2.971 2.972h-72.203c-1.634 0-2.972-1.337-2.972-2.972v-6.251c0-1.635 1.338-2.972 2.972-2.972"/></g><g id="g190" transform="translate(630.14 345.93)"><path id="path192" d="m0 0h-81.682c-0.888 0-1.614 0.726-1.614 1.614v1.042c0 0.888 0.726 1.614 1.614 1.614h81.682c0.888 0 1.614-0.726 1.614-1.614v-1.042c0-0.888-0.726-1.614-1.614-1.614" fill="#2d2d2d"/></g><g id="g194" transform="translate(627.49 347.54)"><path id="path196" d="m0 0v20.833c0 0.888 0.726 1.614 1.614 1.614h1.042c0.888 0 1.614-0.726 1.614-1.614v-20.833c0-0.888-0.726-1.614-1.614-1.614h-1.042c-0.888 0-1.614 0.726-1.614 1.614" fill="#2d2d2d"/></g><g id="g198" transform="translate(394.94 349.98)"><path id="path200" d="m0 0h81.737c0.888 0 1.614-0.726 1.614-1.614v-1.042c0-0.888-0.726-1.614-1.614-1.614h-81.737c-0.888 0-1.614 0.726-1.614 1.614v1.042c0 0.888 0.726 1.614 1.614 1.614" fill="#2d2d2d"/></g><g id="g202" transform="translate(394.94 369.98)"><path id="path204" d="m0 0h81.682c0.888 0 1.614-0.726 1.614-1.614v-1.042c0-0.888-0.726-1.614-1.614-1.614h-81.682c-0.888 0-1.614 0.726-1.614 1.614v1.042c0 0.888 0.726 1.614 1.614 1.614" fill="#2d2d2d"/></g><g id="g206" transform="translate(397.6 368.37)"><path id="path208" d="m0 0v-20.833c0-0.888-0.726-1.614-1.614-1.614h-1.042c-0.888 0-1.614 0.726-1.614 1.614v20.833c0 0.888 0.726 1.614 1.614 1.614h1.042c0.888 0 1.614-0.726 1.614-1.614" fill="#2d2d2d"/></g><g id="g210" transform="translate(403.12 351.86)"><path id="path212" d="m0 0h72.203c1.634 0 2.971 1.337 2.971 2.972v6.251c0 1.635-1.337 2.972-2.971 2.972h-72.203c-1.634 0-2.972-1.337-2.972-2.972v-6.251c0-1.635 1.338-2.972 2.972-2.972"/></g><g id="g214" transform="translate(543.38 345.82)"><path id="path216" d="m0 0h-59.531c-1.907 0-3.467-1.561-3.467-3.468v-34.119c0-1.907 1.56-3.468 3.467-3.468h59.531c1.907 0 3.468 1.561 3.468 3.468v34.119c0 1.907-1.561 3.468-3.468 3.468"/></g><path id="path218" d="m477.12 345.84h71.338v2.006h-71.338v-2.006z" fill="#2d2d2d"/><g id="g220" transform="translate(445.95 315.11)"><path id="path222" d="m0 0c0-2.908-2.255-5.265-5.038-5.265-2.782 0-5.037 2.357-5.037 5.265s2.255 5.265 5.037 5.265c2.783 0 5.038-2.357 5.038-5.265"/></g><g id="g224" transform="translate(558.49 629.61)"><path id="path226" d="m0 0c7e-3 0.011 0.014 0.022 0.021 0.032 1.142 1.766 2.944 2.8 4.638 2.8 1.725 0 2.81-0.95 4.236-0.95 1.384 0 2.226 0.951 4.221 0.951 1.507 0 3.105-0.824 4.243-2.249-0.315-0.173-0.599-0.369-0.852-0.585l-16.507 1e-3z" fill="#61bb46"/></g><g id="g228" transform="translate(570.09 634.03)"><path id="path230" d="m0 0c0.724 0.934 1.275 2.252 1.075 3.6-1.184-0.081-2.568-0.838-3.377-1.823-0.734-0.895-1.339-2.222-1.104-3.512 1.293-0.04 2.63 0.735 3.406 1.735" fill="#61bb46"/></g><g id="g232" transform="translate(558.43 629.63)"><path id="path234" d="m0 0c-0.492-0.774-0.832-1.883-0.923-2.856l15.958 1e-3c0.173 1.064 0.746 2.081 1.656 2.854l-16.691 1e-3h1e-3 -1e-3z" fill="#fdb827"/></g><g id="g236" transform="translate(557.65 623.95)"><path id="path238" d="m0 0c-0.155 0.994-0.18 1.952-0.083 2.83l15.834 1e-3c-0.155-0.953-0.025-1.945 0.366-2.832l-16.117 1e-3z" fill="#f5821f"/></g><g id="g240" transform="translate(558.43 621.12)"><path id="path242" d="m0 0c-0.374 0.951-0.63 1.906-0.774 2.83h16.118c0.499-1.13 1.422-2.09 2.722-2.583-0.038-0.086-0.076-0.169-0.112-0.248l-17.954 1e-3z" fill="#e03a3e"/></g><g id="g244" transform="translate(576.38 621.11)"><path id="path246" d="m0 0c-0.446-0.986-0.705-1.497-1.323-2.441-0.083-0.127-0.169-0.257-0.258-0.388l-14.877-1e-3c-0.048 0.071-0.095 0.142-0.142 0.213-0.556 0.851-1.006 1.733-1.354 2.618l17.954-1e-3z" fill="#963d97"/></g><g id="g248" transform="translate(574.8 618.29)"><path id="path250" d="m0 0c-0.91-1.339-2.132-2.812-3.614-2.826-1.447-0.013-1.818 0.945-3.781 0.935-1.963-0.011-2.372-0.952-3.819-0.938-1.547 0.014-2.748 1.461-3.663 2.828l14.877 1e-3z" fill="#009ddc"/></g><g id="g252" transform="translate(317.85 317.07)"><path id="path254" d="m0 0c0.013 0.022 0.028 0.044 0.042 0.065 2.29 3.541 5.903 5.614 9.3 5.614 3.46 0 5.635-1.905 8.494-1.905 2.775 0 4.465 1.908 8.465 1.908 3.022 0 6.226-1.653 8.508-4.51-0.631-0.347-1.2-0.741-1.709-1.174l-33.1 2e-3z" fill="#61bb46"/></g><g id="g256" transform="translate(341.11 325.94)"><path id="path258" d="m0 0c1.452 1.872 2.556 4.516 2.156 7.219-2.374-0.163-5.15-1.681-6.772-3.656-1.471-1.795-2.686-4.456-2.213-7.042 2.591-0.081 5.272 1.473 6.829 3.479" fill="#61bb46"/></g><g id="g260" transform="translate(317.73 317.12)"><path id="path262" d="m0 0c-0.986-1.552-1.669-3.776-1.85-5.727l31.999 1e-3c0.346 2.134 1.496 4.173 3.32 5.724l-33.469 2e-3h2e-3 -2e-3z" fill="#fdb827"/></g><g id="g264" transform="translate(316.17 305.72)"><path id="path266" d="m0 0c-0.311 1.992-0.361 3.913-0.166 5.676h31.75c-0.311-1.911-0.05-3.899 0.735-5.677l-32.319 1e-3z" fill="#f5821f"/></g><g id="g268" transform="translate(317.72 300.04)"><path id="path270" d="m0 0c-0.75 1.907-1.263 3.822-1.552 5.675l32.319-1e-3c1.001-2.265 2.853-4.19 5.46-5.179-0.078-0.173-0.152-0.338-0.224-0.497l-36.003 2e-3z" fill="#e03a3e"/></g><g id="g272" transform="translate(353.72 300.04)"><path id="path274" d="m0 0c-0.895-1.976-1.414-3.002-2.653-4.895-0.166-0.254-0.339-0.515-0.518-0.777l-29.832-3e-3c-0.096 0.143-0.19 0.286-0.284 0.428-1.115 1.706-2.018 3.474-2.716 5.249l36.003-2e-3z" fill="#963d97"/></g><g id="g276" transform="translate(350.55 294.37)"><path id="path278" d="m0 0c-1.825-2.684-4.275-5.639-7.248-5.667-2.901-0.026-3.645 1.896-7.58 1.874-3.936-0.022-4.758-1.907-7.659-1.88-3.101 0.029-5.509 2.93-7.345 5.67l29.832 3e-3z" fill="#009ddc"/></g><g id="g280" transform="translate(574.53 316.99)"><path id="path282" d="m0 0c0.013 0.022 0.028 0.044 0.042 0.065 2.29 3.541 5.903 5.614 9.3 5.614 3.46 0 5.635-1.905 8.494-1.905 2.775 0 4.465 1.908 8.465 1.908 3.022 0 6.226-1.653 8.508-4.51-0.631-0.347-1.2-0.741-1.709-1.174l-33.1 2e-3z" fill="#61bb46"/></g><g id="g284" transform="translate(597.8 325.86)"><path id="path286" d="m0 0c1.452 1.872 2.556 4.516 2.156 7.219-2.374-0.163-5.15-1.681-6.772-3.656-1.471-1.795-2.686-4.456-2.213-7.042 2.591-0.081 5.272 1.473 6.829 3.479" fill="#61bb46"/></g><g id="g288" transform="translate(574.41 317.04)"><path id="path290" d="m0 0c-0.986-1.552-1.669-3.776-1.85-5.727l31.999 1e-3c0.346 2.134 1.496 4.173 3.32 5.724l-33.469 2e-3h2e-3 -2e-3z" fill="#fdb827"/></g><g id="g292" transform="translate(572.85 305.64)"><path id="path294" d="m0 0c-0.311 1.992-0.361 3.913-0.166 5.676h31.749c-0.31-1.911-0.049-3.899 0.736-5.677l-32.319 1e-3z" fill="#f5821f"/></g><g id="g296" transform="translate(574.4 299.97)"><path id="path298" d="m0 0c-0.75 1.907-1.263 3.822-1.552 5.675l32.319-1e-3c1.001-2.265 2.853-4.19 5.46-5.179-0.078-0.173-0.152-0.338-0.224-0.497l-36.003 2e-3z" fill="#e03a3e"/></g><g id="g300" transform="translate(610.41 299.96)"><path id="path302" d="m0 0c-0.895-1.976-1.414-3.002-2.653-4.895-0.166-0.255-0.339-0.515-0.518-0.777l-29.832-3e-3c-0.096 0.143-0.19 0.286-0.284 0.428-1.115 1.706-2.018 3.474-2.716 5.249l36.003-2e-3z" fill="#963d97"/></g><g id="g304" transform="translate(607.24 294.29)"><path id="path306" d="m0 0c-1.825-2.684-4.275-5.639-7.248-5.667-2.901-0.026-3.645 1.896-7.58 1.874-3.936-0.022-4.758-1.907-7.659-1.88-3.101 0.029-5.509 2.93-7.345 5.67l29.832 3e-3z" fill="#009ddc"/></g><g id="g308" transform="translate(306.89 242.1)"><path id="path310" d="m0 0c0.013 0.01 0.026 0.019 0.04 0.028 2.175 1.525 5.605 2.417 8.832 2.417 3.285 0 5.35-0.82 8.066-0.82 2.635 0 4.24 0.822 8.038 0.822 2.87 0 5.912-0.712 8.079-1.942-0.599-0.15-1.139-0.32-1.623-0.506l-31.432 1e-3z" fill="#61bb46"/></g><g id="g312" transform="translate(328.99 245.92)"><path id="path314" d="m0 0c1.379 0.806 2.427 1.945 2.047 3.109-2.254-0.071-4.89-0.724-6.43-1.575-1.398-0.773-2.551-1.919-2.102-3.032 2.461-0.035 5.007 0.634 6.485 1.498" fill="#61bb46"/></g><g id="g316" transform="translate(306.78 242.12)"><path id="path318" d="m0 0c-0.937-0.668-1.585-1.626-1.757-2.466h30.387c0.329 0.919 1.421 1.797 3.153 2.465l-31.783 1e-3h2e-3 -2e-3z" fill="#fdb827"/></g><g id="g320" transform="translate(305.3 237.21)"><path id="path322" d="m0 0c-0.295 0.858-0.343 1.685-0.158 2.444h30.15c-0.294-0.823-0.047-1.679 0.699-2.445l-30.691 1e-3z" fill="#f5821f"/></g><g id="g324" transform="translate(306.77 234.77)"><path id="path326" d="m0 0c-0.712 0.821-1.199 1.646-1.473 2.444l30.691-1e-3c0.95-0.975 2.708-1.804 5.184-2.23-0.074-0.074-0.145-0.145-0.213-0.214l-34.189 1e-3z" fill="#e03a3e"/></g><g id="g328" transform="translate(340.96 234.77)"><path id="path330" d="m0 0c-0.85-0.851-1.343-1.293-2.519-2.108-0.158-0.109-0.322-0.221-0.492-0.334l-28.33-2e-3c-0.09 0.062-0.18 0.123-0.269 0.184-1.059 0.735-1.916 1.497-2.579 2.261l34.189-1e-3z" fill="#963d97"/></g><g id="g332" transform="translate(337.95 232.32)"><path id="path334" d="m0 0c-1.733-1.156-4.06-2.428-6.883-2.44-2.754-0.011-3.461 0.816-7.198 0.807-3.738-0.01-4.518-0.822-7.273-0.81-2.945 0.013-5.232 1.262-6.975 2.442l28.329 1e-3z" fill="#009ddc"/></g><g id="g336" transform="translate(426.71 242.63)"><path id="path338" d="m0 0c-2.62 0-4.854-0.405-6.789-1.229-1.939-0.826-2.835-1.718-2.835-2.738 0-1.229 0.921-2.184 2.874-2.957 1.829-0.721 4.046-1.083 6.721-1.083h9.825v1.901h-9.327c-1.217 0-2.31 0.209-3.176 0.61-0.87 0.405-1.343 0.949-1.343 1.557 0 0.58 0.456 1.096 1.291 1.473 0.842 0.379 1.951 0.566 3.228 0.566h3.167c0.225 0 0.431-0.068 0.528-0.174 0.098-0.106 0.07-0.232-0.072-0.324l-3.588-2.369h5.483l3.81 2.66v2.107h-9.797zm-38.581 0v-10.521h4.989v8.314c0 0.081 0.061 0.159 0.171 0.217s0.258 0.09 0.415 0.09h3.169c1.319 0 2.496-0.233 3.421-0.684 0.855-0.418 1.329-0.941 1.329-1.509 0-0.588-0.518-1.112-1.439-1.476-0.911-0.359-2.037-0.538-3.311-0.538h-1.176v-1.9h3.343c2.301 0 4.197 0.378 5.796 1.149 1.599 0.769 2.36 1.671 2.36 2.777 0 1.147-0.763 2.087-2.356 2.889-1.593 0.803-3.447 1.192-5.68 1.192h-11.031zm-21.488 0v-10.521h4.994v8.314c0 0.081 0.061 0.159 0.171 0.217s0.259 0.09 0.414 0.09h3.167c1.317 0 2.495-0.233 3.42-0.684 0.855-0.418 1.329-0.941 1.329-1.509 0-0.587-0.512-1.111-1.434-1.476-0.912-0.36-2.041-0.538-3.315-0.538h-1.176v-1.9h3.344c2.3 0 4.201 0.378 5.8 1.149 1.599 0.769 2.36 1.671 2.36 2.777 0 1.147-0.764 2.087-2.355 2.889-1.593 0.803-3.453 1.192-5.685 1.192h-11.034zm-13.908 0c-2.336 0-4.239-0.391-5.829-1.197-1.6-0.81-2.36-1.71-2.36-2.757 0-1.033 0.797-1.946 2.49-2.796 1.688-0.848 3.573-1.257 5.757-1.257h3.2v1.9h-1.353c-1.231 0-2.331 0.204-3.19 0.603-0.86 0.399-1.325 0.931-1.325 1.521 0 0.597 0.456 1.128 1.305 1.511 0.845 0.381 1.928 0.571 3.152 0.571h3.402c0.155 0 0.304-0.032 0.414-0.09 0.11-0.057 0.171-0.135 0.171-0.216v-5.801h4.989v8.008h-10.823zm99.231 2.514v-3.276-7.25h7.83v1.468h-2.922c-0.155 0-0.304 0.032-0.414 0.089-0.11 0.058-0.171 0.136-0.17 0.218v6.978c-2e-3 0.082 0.061 0.16 0.17 0.218 0.11 0.057 0.259 0.09 0.414 0.089h2.922v1.466h-7.83zm-10.118 0v-1.466h2.922c0.155 1e-3 0.304-0.032 0.414-0.089 0.11-0.058 0.171-0.136 0.171-0.217v-6.979c0-0.081-0.061-0.159-0.171-0.217s-0.259-0.09-0.414-0.09h-2.922v-1.468h7.83v10.526h-7.83zm-32.229-10.521h4.989v10.521h-4.989v-10.521z" fill="#fff"/></g><g id="g340" transform="translate(545.5 77.116)"><path id="path342" d="m0 0h-319.68l0.597 20.503h-57.625l-3.375-20.503h-41.25l5.375 21.526 4.951 0.346 0.549 18.597 2.375 0.524 0.931 18.42h-6.994l0.813 17.373 23.166 0.121 0.652 19.854h484.12l1.125-14.615 2.313-1.971v-20.453l-2.209 0.061 0.714-18.071-3.006-0.411 1.653-22.087-95.923-0.502 0.729-18.712z" fill="#1d1c15"/></g><g id="g344" transform="translate(232.65 90.567)"><path id="path346" d="m0 0-5.141-13.461v19.406l5.141 4.172v-10.117z" fill="#9e9c97"/></g><g id="g348" transform="translate(183.84 315.12)"><path id="path350" d="m0 0c0-1.251-0.97-2.265-2.167-2.265s-2.167 1.014-2.167 2.265 0.97 2.265 2.167 2.265 2.167-1.014 2.167-2.265" fill="#9e2639"/></g><g id="g352" transform="translate(443.08 315.11)"><path id="path354" d="m0 0c0-1.251-0.97-2.265-2.167-2.265s-2.167 1.014-2.167 2.265 0.97 2.265 2.167 2.265 2.167-1.014 2.167-2.265" fill="#9e2639"/></g><g id="g356" transform="translate(188.14 169.81)"><path id="path358" d="m0 0h-25.976v8.48c0 1.375 1.125 2.5 2.5 2.5h20.976c1.375 0 2.5-1.125 2.5-2.5v-8.48z" fill="#4e4945"/></g><g id="g360" transform="translate(162.16 169.64)"><path id="path362" d="m0 0-5.141-14.264v18.528l5.141 5.049v-9.313z" fill="#9e9c97"/></g><g id="g364" transform="translate(193.28 155.38)"><path id="path366" d="m0 0h-36.259l5.141 14.43h25.977l5.141-14.43z" fill="#cdcac9"/></g><g id="g368" transform="translate(188.14 169.8)"><path id="path370" d="m 0,0 5.141,-14.264 0,18.528 L 0,9.313 0,0 Z" fill="#9e9c97"/></g><g id="g372" transform="translate(226.97 169.81)"><path id="path374" d="m0 0h-25.976v8.48c0 1.375 1.125 2.5 2.5 2.5h20.976c1.375 0 2.5-1.125 2.5-2.5v-8.48z" fill="#4e4945"/></g><g id="g376" transform="translate(200.99 169.64)"><path id="path378" d="m0 0-5.141-14.264v18.528l5.141 5.049v-9.313z" fill="#9e9c97"/></g><g id="g380" transform="translate(232.11 155.38)"><path id="path382" d="m0 0h-36.259l5.141 14.43h25.977l5.141-14.43z" fill="#cdcac9"/></g><g id="g384" transform="translate(226.97 169.8)"><path id="path386" d="m 0,0 5.141,-14.264 0,18.528 L 0,9.313 0,0 Z" fill="#9e9c97"/></g><g id="g388" transform="translate(265.93 169.81)"><path id="path390" d="m0 0h-25.976v8.48c0 1.375 1.125 2.5 2.5 2.5h20.976c1.375 0 2.5-1.125 2.5-2.5v-8.48z" fill="#4e4945"/></g><g id="g392" transform="translate(239.96 169.64)"><path id="path394" d="m0 0-5.141-14.264v18.528l5.141 5.049v-9.313z" fill="#9e9c97"/></g><g id="g396" transform="translate(271.07 155.38)"><path id="path398" d="m0 0h-36.259l5.141 14.43h25.977l5.141-14.43z" fill="#cdcac9"/></g><g id="g400" transform="translate(265.93 169.8)"><path id="path402" d="m 0,0 5.141,-14.264 0,18.528 L 0,9.313 0,0 Z" fill="#9e9c97"/></g><g id="g404" transform="translate(305.03 169.81)"><path id="path406" d="m0 0h-25.976v8.48c0 1.375 1.125 2.5 2.5 2.5h20.976c1.375 0 2.5-1.125 2.5-2.5v-8.48z" fill="#4e4945"/></g><g id="g408" transform="translate(279.06 169.64)"><path id="path410" d="m0 0-5.141-14.264v18.528l5.141 5.049v-9.313z" fill="#9e9c97"/></g><g id="g412" transform="translate(310.17 155.38)"><path id="path414" d="m0 0h-36.259l5.141 14.43h25.977l5.141-14.43z" fill="#cdcac9"/></g><g id="g416" transform="translate(305.03 169.8)"><path id="path418" d="m 0,0 5.141,-14.264 0,18.528 L 0,9.313 0,0 Z" fill="#9e9c97"/></g><g id="g420" transform="translate(344 169.81)"><path id="path422" d="m0 0h-25.976v8.48c0 1.375 1.125 2.5 2.5 2.5h20.976c1.375 0 2.5-1.125 2.5-2.5v-8.48z" fill="#4e4945"/></g><g id="g424" transform="translate(318.02 169.64)"><path id="path426" d="m0 0-5.141-14.264v18.528l5.141 5.049v-9.313z" fill="#9e9c97"/></g><g id="g428" transform="translate(349.14 155.38)"><path id="path430" d="m0 0h-36.259l5.141 14.43h25.977l5.141-14.43z" fill="#cdcac9"/></g><g id="g432" transform="translate(344 169.8)"><path id="path434" d="m 0,0 5.141,-14.264 0,18.528 L 0,9.313 0,0 Z" fill="#9e9c97"/></g><g id="g436" transform="translate(382.69 169.81)"><path id="path438" d="m0 0h-25.976v8.48c0 1.375 1.125 2.5 2.5 2.5h20.976c1.375 0 2.5-1.125 2.5-2.5v-8.48z" fill="#4e4945"/></g><g id="g440" transform="translate(356.72 169.64)"><path id="path442" d="m0 0-5.141-14.264v18.528l5.141 5.049v-9.313z" fill="#9e9c97"/></g><g id="g444" transform="translate(387.83 155.38)"><path id="path446" d="m0 0h-36.259l5.141 14.43h25.977l5.141-14.43z" fill="#cdcac9"/></g><g id="g448" transform="translate(382.69 169.8)"><path id="path450" d="m 0,0 5.141,-14.264 0,18.528 L 0,9.313 0,0 Z" fill="#9e9c97"/></g><g id="g452" transform="translate(421.93 169.81)"><path id="path454" d="m0 0h-25.976v8.48c0 1.375 1.125 2.5 2.5 2.5h20.976c1.375 0 2.5-1.125 2.5-2.5v-8.48z" fill="#4e4945"/></g><g id="g456" transform="translate(395.95 169.64)"><path id="path458" d="m0 0-5.141-14.264v18.528l5.141 5.049v-9.313z" fill="#9e9c97"/></g><g id="g460" transform="translate(427.07 155.38)"><path id="path462" d="m0 0h-36.259l5.141 14.43h25.977l5.141-14.43z" fill="#cdcac9"/></g><g id="g464" transform="translate(421.93 169.8)"><path id="path466" d="m 0,0 5.141,-14.264 0,18.528 L 0,9.313 0,0 Z" fill="#9e9c97"/></g><g id="g468" transform="translate(460.62 169.81)"><path id="path470" d="m0 0h-25.976v8.48c0 1.375 1.125 2.5 2.5 2.5h20.976c1.375 0 2.5-1.125 2.5-2.5v-8.48z" fill="#4e4945"/></g><g id="g472" transform="translate(434.64 169.64)"><path id="path474" d="m0 0-5.141-14.264v18.528l5.141 5.049v-9.313z" fill="#9e9c97"/></g><g id="g476" transform="translate(465.76 155.38)"><path id="path478" d="m0 0h-36.259l5.141 14.43h25.977l5.141-14.43z" fill="#cdcac9"/></g><g id="g480" transform="translate(460.62 169.8)"><path id="path482" d="m 0,0 5.141,-14.264 0,18.528 L 0,9.313 0,0 Z" fill="#9e9c97"/></g><g id="g484" transform="translate(499.59 169.81)"><path id="path486" d="m0 0h-25.976v8.48c0 1.375 1.125 2.5 2.5 2.5h20.976c1.375 0 2.5-1.125 2.5-2.5v-8.48z" fill="#4e4945"/></g><g id="g488" transform="translate(473.61 169.64)"><path id="path490" d="m0 0-5.141-14.264v18.528l5.141 5.049v-9.313z" fill="#9e9c97"/></g><g id="g492" transform="translate(504.73 155.38)"><path id="path494" d="m0 0h-36.259l5.141 14.43h25.977l5.141-14.43z" fill="#cdcac9"/></g><g id="g496" transform="translate(499.59 169.8)"><path id="path498" d="m 0,0 5.141,-14.264 0,18.528 L 0,9.313 0,0 Z" fill="#9e9c97"/></g><g id="g500" transform="translate(538.55 169.81)"><path id="path502" d="m0 0h-25.976v8.48c0 1.375 1.125 2.5 2.5 2.5h20.976c1.375 0 2.5-1.125 2.5-2.5v-8.48z" fill="#4e4945"/></g><g id="g504" transform="translate(512.57 169.64)"><path id="path506" d="m0 0-5.141-14.264v18.528l5.141 5.049v-9.313z" fill="#9e9c97"/></g><g id="g508" transform="translate(543.69 155.38)"><path id="path510" d="m0 0h-36.259l5.141 14.43h25.977l5.141-14.43z" fill="#cdcac9"/></g><g id="g512" transform="translate(538.55 169.8)"><path id="path514" d="m 0,0 5.141,-14.264 0,18.528 L 0,9.313 0,0 Z" fill="#9e9c97"/></g><g id="g516" transform="translate(577.79 169.81)"><path id="path518" d="m0 0h-25.977v8.48c0 1.375 1.125 2.5 2.5 2.5h20.977c1.375 0 2.5-1.125 2.5-2.5v-8.48z" fill="#4e4945"/></g><g id="g520" transform="translate(551.81 169.64)"><path id="path522" d="m0 0-5.141-14.264v18.528l5.141 5.049v-9.313z" fill="#9e9c97"/></g><g id="g524" transform="translate(582.93 155.38)"><path id="path526" d="m0 0h-36.259l5.141 14.43h25.977l5.141-14.43z" fill="#cdcac9"/></g><g id="g528" transform="translate(577.79 169.8)"><path id="path530" d="m 0,0 5.141,-14.264 0,18.528 L 0,9.313 0,0 Z" fill="#9e9c97"/></g><g id="g532" transform="translate(631.81 169.81)"><path id="path534" d="m0 0h-38.694v8.48c0 1.375 1.125 2.5 2.5 2.5h33.694c1.375 0 2.5-1.125 2.5-2.5v-8.48z" fill="#4e4945"/></g><g id="g536" transform="translate(593.12 169.64)"><path id="path538" d="m0 0-7.441-14.264v18.384l7.441 5.193v-9.313z" fill="#9e9c97"/></g><g id="g540" transform="translate(631.81 169.8)"><path id="path542" d="M 0,0 7.441,-14.264 7.441,4.12 0,9.313 0,0 Z" fill="#9e9c97"/></g><g id="g544" transform="translate(639.25 155.38)"><path id="path546" d="m0 0h-53.576l7.441 14.43h38.694l7.441-14.43z" fill="#cdcac9"/></g><g id="g548" transform="translate(164.33 151.61)"><path id="path550" d="m0 0h-25.976v8.48c0 1.375 1.125 2.5 2.5 2.5h20.976c1.375 0 2.5-1.125 2.5-2.5v-8.48z" fill="#4e4945"/></g><g id="g552" transform="translate(138.35 151.45)"><path id="path554" d="m0 0-5.141-14.264v18.528l5.141 5.049v-9.313z" fill="#9e9c97"/></g><g id="g556" transform="translate(169.47 137.18)"><path id="path558" d="m0 0h-36.259l5.141 14.43h25.977l5.141-14.43z" fill="#cdcac9"/></g><g id="g560" transform="translate(164.33 151.61)"><path id="path562" d="m 0,0 5.141,-14.264 0,18.528 L 0,9.313 0,0 Z" fill="#9e9c97"/></g><g id="g564" transform="translate(203.16 151.61)"><path id="path566" d="m0 0h-25.976v8.48c0 1.375 1.125 2.5 2.5 2.5h20.976c1.375 0 2.5-1.125 2.5-2.5v-8.48z" fill="#4e4945"/></g><g id="g568" transform="translate(177.18 151.45)"><path id="path570" d="m0 0-5.141-14.264v18.528l5.141 5.049v-9.313z" fill="#9e9c97"/></g><g id="g572" transform="translate(208.3 137.18)"><path id="path574" d="m0 0h-36.259l5.141 14.43h25.977l5.141-14.43z" fill="#cdcac9"/></g><g id="g576" transform="translate(203.16 151.61)"><path id="path578" d="m 0,0 5.141,-14.264 0,18.528 L 0,9.313 0,0 Z" fill="#9e9c97"/></g><g id="g580" transform="translate(242.12 151.61)"><path id="path582" d="m0 0h-25.976v8.48c0 1.375 1.125 2.5 2.5 2.5h20.976c1.375 0 2.5-1.125 2.5-2.5v-8.48z" fill="#4e4945"/></g><g id="g584" transform="translate(216.14 151.45)"><path id="path586" d="m0 0-5.141-14.264v18.528l5.141 5.049v-9.313z" fill="#9e9c97"/></g><g id="g588" transform="translate(247.26 137.18)"><path id="path590" d="m0 0h-36.259l5.141 14.43h25.977l5.141-14.43z" fill="#cdcac9"/></g><g id="g592" transform="translate(242.12 151.61)"><path id="path594" d="m 0,0 5.141,-14.264 0,18.528 L 0,9.313 0,0 Z" fill="#9e9c97"/></g><g id="g596" transform="translate(281.22 151.61)"><path id="path598" d="m0 0h-25.976v8.48c0 1.375 1.125 2.5 2.5 2.5h20.976c1.375 0 2.5-1.125 2.5-2.5v-8.48z" fill="#4e4945"/></g><g id="g600" transform="translate(255.24 151.45)"><path id="path602" d="m0 0-5.141-14.264v18.528l5.141 5.049v-9.313z" fill="#9e9c97"/></g><g id="g604" transform="translate(286.36 137.18)"><path id="path606" d="m0 0h-36.259l5.141 14.43h25.977l5.141-14.43z" fill="#cdcac9"/></g><g id="g608" transform="translate(281.22 151.61)"><path id="path610" d="m 0,0 5.141,-14.264 0,18.528 L 0,9.313 0,0 Z" fill="#9e9c97"/></g><g id="g612" transform="translate(320.19 151.61)"><path id="path614" d="m0 0h-25.976v8.48c0 1.375 1.125 2.5 2.5 2.5h20.976c1.375 0 2.5-1.125 2.5-2.5v-8.48z" fill="#4e4945"/></g><g id="g616" transform="translate(294.21 151.45)"><path id="path618" d="m0 0-5.141-14.264v18.528l5.141 5.049v-9.313z" fill="#9e9c97"/></g><g id="g620" transform="translate(325.33 137.18)"><path id="path622" d="m0 0h-36.259l5.141 14.43h25.977l5.141-14.43z" fill="#cdcac9"/></g><g id="g624" transform="translate(320.19 151.61)"><path id="path626" d="m 0,0 5.141,-14.264 0,18.528 L 0,9.313 0,0 Z" fill="#9e9c97"/></g><g id="g628" transform="translate(358.88 151.61)"><path id="path630" d="m0 0h-25.976v8.48c0 1.375 1.125 2.5 2.5 2.5h20.976c1.375 0 2.5-1.125 2.5-2.5v-8.48z" fill="#4e4945"/></g><g id="g632" transform="translate(332.9 151.45)"><path id="path634" d="m0 0-5.141-14.264v18.528l5.141 5.049v-9.313z" fill="#9e9c97"/></g><g id="g636" transform="translate(364.02 137.18)"><path id="path638" d="m0 0h-36.259l5.141 14.43h25.977l5.141-14.43z" fill="#cdcac9"/></g><g id="g640" transform="translate(358.88 151.61)"><path id="path642" d="m 0,0 5.141,-14.264 0,18.528 L 0,9.313 0,0 Z" fill="#9e9c97"/></g><g id="g644" transform="translate(398.12 151.61)"><path id="path646" d="m0 0h-25.976v8.48c0 1.375 1.125 2.5 2.5 2.5h20.976c1.375 0 2.5-1.125 2.5-2.5v-8.48z" fill="#4e4945"/></g><g id="g648" transform="translate(372.14 151.45)"><path id="path650" d="m0 0-5.141-14.264v18.528l5.141 5.049v-9.313z" fill="#9e9c97"/></g><g id="g652" transform="translate(403.26 137.18)"><path id="path654" d="m0 0h-36.259l5.141 14.43h25.977l5.141-14.43z" fill="#cdcac9"/></g><g id="g656" transform="translate(398.12 151.61)"><path id="path658" d="m 0,0 5.141,-14.264 0,18.528 L 0,9.313 0,0 Z" fill="#9e9c97"/></g><g id="g660" transform="translate(436.81 151.61)"><path id="path662" d="m0 0h-25.976v8.48c0 1.375 1.125 2.5 2.5 2.5h20.976c1.375 0 2.5-1.125 2.5-2.5v-8.48z" fill="#4e4945"/></g><g id="g664" transform="translate(410.83 151.45)"><path id="path666" d="m0 0-5.141-14.264v18.528l5.141 5.049v-9.313z" fill="#9e9c97"/></g><g id="g668" transform="translate(441.95 137.18)"><path id="path670" d="m0 0h-36.259l5.141 14.43h25.977l5.141-14.43z" fill="#cdcac9"/></g><g id="g672" transform="translate(436.81 151.61)"><path id="path674" d="m 0,0 5.141,-14.264 0,18.528 L 0,9.313 0,0 Z" fill="#9e9c97"/></g><g id="g676" transform="translate(475.77 151.61)"><path id="path678" d="m0 0h-25.976v8.48c0 1.375 1.125 2.5 2.5 2.5h20.976c1.375 0 2.5-1.125 2.5-2.5v-8.48z" fill="#4e4945"/></g><g id="g680" transform="translate(449.8 151.45)"><path id="path682" d="m0 0-5.141-14.264v18.528l5.141 5.049v-9.313z" fill="#9e9c97"/></g><g id="g684" transform="translate(480.92 137.18)"><path id="path686" d="m0 0h-36.259l5.141 14.43h25.977l5.141-14.43z" fill="#cdcac9"/></g><g id="g688" transform="translate(475.77 151.61)"><path id="path690" d="m 0,0 5.141,-14.264 0,18.528 L 0,9.313 0,0 Z" fill="#9e9c97"/></g><g id="g692" transform="translate(514.74 151.61)"><path id="path694" d="m0 0h-25.976v8.48c0 1.375 1.125 2.5 2.5 2.5h20.976c1.375 0 2.5-1.125 2.5-2.5v-8.48z" fill="#4e4945"/></g><g id="g696" transform="translate(488.76 151.45)"><path id="path698" d="m0 0-5.141-14.264v18.528l5.141 5.049v-9.313z" fill="#9e9c97"/></g><g id="g700" transform="translate(519.88 137.18)"><path id="path702" d="m0 0h-36.259l5.141 14.43h25.977l5.141-14.43z" fill="#cdcac9"/></g><g id="g704" transform="translate(514.74 151.61)"><path id="path706" d="m 0,0 5.141,-14.264 0,18.528 L 0,9.313 0,0 Z" fill="#9e9c97"/></g><g id="g708" transform="translate(553.97 151.61)"><path id="path710" d="m0 0h-25.976v8.48c0 1.375 1.125 2.5 2.5 2.5h20.976c1.375 0 2.5-1.125 2.5-2.5v-8.48z" fill="#4e4945"/></g><g id="g712" transform="translate(528 151.45)"><path id="path714" d="m0 0-5.141-14.264v18.528l5.141 5.049v-9.313z" fill="#9e9c97"/></g><g id="g716" transform="translate(559.12 137.18)"><path id="path718" d="m0 0h-36.259l5.141 14.43h25.977l5.141-14.43z" fill="#cdcac9"/></g><g id="g720" transform="translate(553.97 151.61)"><path id="path722" d="m 0,0 5.141,-14.264 0,18.528 L 0,9.313 0,0 Z" fill="#9e9c97"/></g><g id="g724" transform="translate(636.04 152.42)"><path id="path726" d="m0 0h-31.268v8.48c0 1.375 1.125 2.5 2.5 2.5h26.268c1.375 0 2.5-1.125 2.5-2.5v-8.48z" fill="#4e4945"/></g><g id="g728" transform="translate(604.77 152.26)"><path id="path730" d="m0 0-6.013-14.264v18.384l6.013 5.193v-9.313z" fill="#9e9c97"/></g><g id="g732" transform="translate(636.04 152.42)"><path id="path734" d="M 0,0 6.013,-14.264 6.013,4.12 0,9.313 0,0 Z" fill="#9e9c97"/></g><g id="g736" transform="translate(642.05 137.99)"><path id="path738" d="m0 0h-43.294l6.013 14.43h31.268l6.013-14.43z" fill="#cdcac9"/></g><g id="g740" transform="translate(591.86 151.67)"><path id="path742" d="m0 0h-25.976v8.48c0 1.375 1.125 2.5 2.5 2.5h20.976c1.375 0 2.5-1.125 2.5-2.5v-8.48z" fill="#4e4945"/></g><g id="g744" transform="translate(565.88 151.5)"><path id="path746" d="m0 0-5.141-14.264v18.528l5.141 5.049v-9.313z" fill="#9e9c97"/></g><g id="g748" transform="translate(597 137.24)"><path id="path750" d="m0 0h-36.259l5.141 14.43h25.977l5.141-14.43z" fill="#cdcac9"/></g><g id="g752" transform="translate(591.86 151.66)"><path id="path754" d="m 0,0 5.141,-14.264 0,18.528 L 0,9.313 0,0 Z" fill="#9e9c97"/></g><g id="g756" transform="translate(170.08 133.42)"><path id="path758" d="m0 0h-25.976v8.48c0 1.375 1.125 2.5 2.5 2.5h20.976c1.375 0 2.5-1.125 2.5-2.5v-8.48z" fill="#4e4945"/></g><g id="g760" transform="translate(144.1 133.25)"><path id="path762" d="m0 0-5.141-14.264v18.528l5.141 5.049v-9.313z" fill="#9e9c97"/></g><g id="g764" transform="translate(175.22 118.99)"><path id="path766" d="m0 0h-36.259l5.141 14.43h25.977l5.141-14.43z" fill="#cdcac9"/></g><g id="g768" transform="translate(170.08 133.41)"><path id="path770" d="m 0,0 5.141,-14.264 0,18.528 L 0,9.313 0,0 Z" fill="#9e9c97"/></g><g id="g772" transform="translate(208.91 133.42)"><path id="path774" d="m0 0h-25.976v8.48c0 1.375 1.125 2.5 2.5 2.5h20.976c1.375 0 2.5-1.125 2.5-2.5v-8.48z" fill="#4e4945"/></g><g id="g776" transform="translate(182.93 133.25)"><path id="path778" d="m0 0-5.141-14.264v18.528l5.141 5.049v-9.313z" fill="#9e9c97"/></g><g id="g780" transform="translate(214.05 118.99)"><path id="path782" d="m0 0h-36.259l5.141 14.43h25.977l5.141-14.43z" fill="#cdcac9"/></g><g id="g784" transform="translate(208.91 133.41)"><path id="path786" d="m 0,0 5.141,-14.264 0,18.528 L 0,9.313 0,0 Z" fill="#9e9c97"/></g><g id="g788" transform="translate(247.87 133.42)"><path id="path790" d="m0 0h-25.976v8.48c0 1.375 1.125 2.5 2.5 2.5h20.976c1.375 0 2.5-1.125 2.5-2.5v-8.48z" fill="#4e4945"/></g><g id="g792" transform="translate(221.89 133.25)"><path id="path794" d="m0 0-5.141-14.264v18.528l5.141 5.049v-9.313z" fill="#9e9c97"/></g><g id="g796" transform="translate(253.01 118.99)"><path id="path798" d="m0 0h-36.259l5.141 14.43h25.977l5.141-14.43z" fill="#cdcac9"/></g><g id="g800" transform="translate(247.87 133.41)"><path id="path802" d="m 0,0 5.141,-14.264 0,18.528 L 0,9.313 0,0 Z" fill="#9e9c97"/></g><g id="g804" transform="translate(286.97 133.42)"><path id="path806" d="m0 0h-25.976v8.48c0 1.375 1.125 2.5 2.5 2.5h20.976c1.375 0 2.5-1.125 2.5-2.5v-8.48z" fill="#4e4945"/></g><g id="g808" transform="translate(260.99 133.25)"><path id="path810" d="m0 0-5.141-14.264v18.528l5.141 5.049v-9.313z" fill="#9e9c97"/></g><g id="g812" transform="translate(292.11 118.99)"><path id="path814" d="m0 0h-36.259l5.141 14.43h25.977l5.141-14.43z" fill="#cdcac9"/></g><g id="g816" transform="translate(286.97 133.41)"><path id="path818" d="m 0,0 5.141,-14.264 0,18.528 L 0,9.313 0,0 Z" fill="#9e9c97"/></g><g id="g820" transform="translate(325.94 133.42)"><path id="path822" d="m0 0h-25.976v8.48c0 1.375 1.125 2.5 2.5 2.5h20.976c1.375 0 2.5-1.125 2.5-2.5v-8.48z" fill="#4e4945"/></g><g id="g824" transform="translate(299.96 133.25)"><path id="path826" d="m0 0-5.141-14.264v18.528l5.141 5.049v-9.313z" fill="#9e9c97"/></g><g id="g828" transform="translate(331.08 118.99)"><path id="path830" d="m0 0h-36.259l5.141 14.43h25.977l5.141-14.43z" fill="#cdcac9"/></g><g id="g832" transform="translate(325.94 133.41)"><path id="path834" d="m 0,0 5.141,-14.264 0,18.528 L 0,9.313 0,0 Z" fill="#9e9c97"/></g><g id="g836" transform="translate(364.63 133.42)"><path id="path838" d="m0 0h-25.976v8.48c0 1.375 1.125 2.5 2.5 2.5h20.976c1.375 0 2.5-1.125 2.5-2.5v-8.48z" fill="#4e4945"/></g><g id="g840" transform="translate(338.65 133.25)"><path id="path842" d="m0 0-5.141-14.264v18.528l5.141 5.049v-9.313z" fill="#9e9c97"/></g><g id="g844" transform="translate(369.77 118.99)"><path id="path846" d="m0 0h-36.259l5.141 14.43h25.977l5.141-14.43z" fill="#cdcac9"/></g><g id="g848" transform="translate(364.63 133.41)"><path id="path850" d="m 0,0 5.141,-14.264 0,18.528 L 0,9.313 0,0 Z" fill="#9e9c97"/></g><g id="g852" transform="translate(403.87 133.42)"><path id="path854" d="m0 0h-25.976v8.48c0 1.375 1.125 2.5 2.5 2.5h20.976c1.375 0 2.5-1.125 2.5-2.5v-8.48z" fill="#4e4945"/></g><g id="g856" transform="translate(377.89 133.25)"><path id="path858" d="m0 0-5.141-14.264v18.528l5.141 5.049v-9.313z" fill="#9e9c97"/></g><g id="g860" transform="translate(409.01 118.99)"><path id="path862" d="m0 0h-36.259l5.141 14.43h25.977l5.141-14.43z" fill="#cdcac9"/></g><g id="g864" transform="translate(403.87 133.41)"><path id="path866" d="m 0,0 5.141,-14.264 0,18.528 L 0,9.313 0,0 Z" fill="#9e9c97"/></g><g id="g868" transform="translate(442.56 133.42)"><path id="path870" d="m0 0h-25.976v8.48c0 1.375 1.125 2.5 2.5 2.5h20.976c1.375 0 2.5-1.125 2.5-2.5v-8.48z" fill="#4e4945"/></g><g id="g872" transform="translate(416.58 133.25)"><path id="path874" d="m0 0-5.141-14.264v18.528l5.141 5.049v-9.313z" fill="#9e9c97"/></g><g id="g876" transform="translate(447.7 118.99)"><path id="path878" d="m0 0h-36.259l5.141 14.43h25.977l5.141-14.43z" fill="#cdcac9"/></g><g id="g880" transform="translate(442.56 133.41)"><path id="path882" d="m 0,0 5.141,-14.264 0,18.528 L 0,9.313 0,0 Z" fill="#9e9c97"/></g><g id="g884" transform="translate(481.52 133.42)"><path id="path886" d="m0 0h-25.976v8.48c0 1.375 1.125 2.5 2.5 2.5h20.976c1.375 0 2.5-1.125 2.5-2.5v-8.48z" fill="#4e4945"/></g><g id="g888" transform="translate(455.55 133.25)"><path id="path890" d="m0 0-5.141-14.264v18.528l5.141 5.049v-9.313z" fill="#9e9c97"/></g><g id="g892" transform="translate(486.66 118.99)"><path id="path894" d="m0 0h-36.259l5.141 14.43h25.977l5.141-14.43z" fill="#cdcac9"/></g><g id="g896" transform="translate(481.52 133.41)"><path id="path898" d="m 0,0 5.141,-14.264 0,18.528 L 0,9.313 0,0 Z" fill="#9e9c97"/></g><g id="g900" transform="translate(520.49 133.42)"><path id="path902" d="m0 0h-25.976v8.48c0 1.375 1.125 2.5 2.5 2.5h20.976c1.375 0 2.5-1.125 2.5-2.5v-8.48z" fill="#4e4945"/></g><g id="g904" transform="translate(494.51 133.25)"><path id="path906" d="m0 0-5.141-14.264v18.528l5.141 5.049v-9.313z" fill="#9e9c97"/></g><g id="g908" transform="translate(525.63 118.99)"><path id="path910" d="m0 0h-36.259l5.141 14.43h25.977l5.141-14.43z" fill="#cdcac9"/></g><g id="g912" transform="translate(520.49 133.41)"><path id="path914" d="m 0,0 5.141,-14.264 0,18.528 L 0,9.313 0,0 Z" fill="#9e9c97"/></g><g id="g916" transform="translate(559.72 133.42)"><path id="path918" d="m0 0h-25.976v8.48c0 1.375 1.125 2.5 2.5 2.5h20.976c1.375 0 2.5-1.125 2.5-2.5v-8.48z" fill="#4e4945"/></g><g id="g920" transform="translate(533.75 133.25)"><path id="path922" d="m0 0-5.141-14.264v18.528l5.141 5.049v-9.313z" fill="#9e9c97"/></g><g id="g924" transform="translate(564.86 118.99)"><path id="path926" d="m0 0h-36.259l5.141 14.43h25.977l5.141-14.43z" fill="#cdcac9"/></g><g id="g928" transform="translate(559.72 133.41)"><path id="path930" d="m 0,0 5.141,-14.264 0,18.528 L 0,9.313 0,0 Z" fill="#9e9c97"/></g><g id="g932" transform="translate(597.61 133.47)"><path id="path934" d="m0 0h-25.976v8.48c0 1.375 1.125 2.5 2.5 2.5h20.976c1.375 0 2.5-1.125 2.5-2.5v-8.48z" fill="#4e4945"/></g><g id="g936" transform="translate(571.63 133.31)"><path id="path938" d="m0 0-5.141-14.264v18.528l5.141 5.049v-9.313z" fill="#9e9c97"/></g><g id="g940" transform="translate(602.75 119.04)"><path id="path942" d="m0 0h-36.259l5.141 14.43h25.977l5.141-14.43z" fill="#cdcac9"/></g><g id="g944" transform="translate(597.61 133.47)"><path id="path946" d="m 0,0 5.141,-14.264 0,18.528 L 0,9.313 0,0 Z" fill="#9e9c97"/></g><g id="g948" transform="translate(635.56 133.47)"><path id="path950" d="m0 0h-25.976v8.48c0 1.375 1.125 2.5 2.5 2.5h20.976c1.375 0 2.5-1.125 2.5-2.5v-8.48z" fill="#4e4945"/></g><g id="g952" transform="translate(609.58 133.31)"><path id="path954" d="m0 0-5.141-14.264v18.528l5.141 5.049v-9.313z" fill="#9e9c97"/></g><g id="g956" transform="translate(640.7 119.04)"><path id="path958" d="m0 0h-36.259l5.141 14.43h25.977l5.141-14.43z" fill="#cdcac9"/></g><g id="g960" transform="translate(635.56 133.47)"><path id="path962" d="m 0,0 5.141,-14.264 0,18.528 L 0,9.313 0,0 Z" fill="#9e9c97"/></g><g id="g964" transform="translate(181.94 112.51)"><path id="path966" d="m0 0h-38.694v8.48c0 1.375 1.125 2.5 2.5 2.5h33.694c1.375 0 2.5-1.125 2.5-2.5v-8.48z" fill="#4e4945"/></g><g id="g968" transform="translate(143.24 112.34)"><path id="path970" d="m0 0-7.441-14.264v18.384l7.441 5.193v-9.313z" fill="#9e9c97"/></g><g id="g972" transform="translate(181.94 112.51)"><path id="path974" d="M 0,0 7.441,-14.264 7.441,4.12 0,9.313 0,0 Z" fill="#9e9c97"/></g><g id="g976" transform="translate(189.38 98.08)"><path id="path978" d="m0 0h-53.576l7.441 14.43h38.694l7.441-14.43z" fill="#cdcac9"/></g><g id="g980" transform="translate(630.31 112.85)"><path id="path982" d="m0 0h-40.551v8.48c0 1.375 1.125 2.5 2.5 2.5h35.551c1.375 0 2.5-1.125 2.5-2.5v-8.48z" fill="#4e4945"/></g><g id="g984" transform="translate(589.76 112.68)"><path id="path986" d="m0 0-7.798-14.264v18.384l7.798 5.193v-9.313z" fill="#9e9c97"/></g><g id="g988" transform="translate(630.31 112.85)"><path id="path990" d="M 0,0 7.798,-14.264 7.798,4.12 0,9.313 0,0 Z" fill="#9e9c97"/></g><g id="g992" transform="translate(638.1 98.42)"><path id="path994" d="m0 0h-56.147l7.798 14.43h40.551l7.798-14.43z" fill="#cdcac9"/></g><g id="g996" transform="translate(222.91 112.1)"><path id="path998" d="m0 0h-25.976v8.48c0 1.375 1.125 2.5 2.5 2.5h20.976c1.375 0 2.5-1.125 2.5-2.5v-8.48z" fill="#4e4945"/></g><g id="g1000" transform="translate(196.93 111.93)"><path id="path1002" d="m0 0-5.141-14.264v18.528l5.141 5.049v-9.313z" fill="#9e9c97"/></g><g id="g1004" transform="translate(228.05 97.665)"><path id="path1006" d="m0 0h-36.259l5.141 14.43h25.977l5.141-14.43z" fill="#cdcac9"/></g><g id="g1008" transform="translate(222.91 112.09)"><path id="path1010" d="m 0,0 5.141,-14.264 0,18.528 L 0,9.313 0,0 Z" fill="#9e9c97"/></g><g id="g1012" transform="translate(261.74 112.1)"><path id="path1014" d="m0 0h-25.976v8.48c0 1.375 1.125 2.5 2.5 2.5h20.976c1.375 0 2.5-1.125 2.5-2.5v-8.48z" fill="#4e4945"/></g><g id="g1016" transform="translate(235.76 111.93)"><path id="path1018" d="m0 0-5.141-14.264v18.528l5.141 5.049v-9.313z" fill="#9e9c97"/></g><g id="g1020" transform="translate(266.88 97.665)"><path id="path1022" d="m0 0h-36.259l5.141 14.43h25.977l5.141-14.43z" fill="#cdcac9"/></g><g id="g1024" transform="translate(261.74 112.09)"><path id="path1026" d="m 0,0 5.141,-14.264 0,18.528 L 0,9.313 0,0 Z" fill="#9e9c97"/></g><g id="g1028" transform="translate(300.7 112.1)"><path id="path1030" d="m0 0h-25.976v8.48c0 1.375 1.125 2.5 2.5 2.5h20.976c1.375 0 2.5-1.125 2.5-2.5v-8.48z" fill="#4e4945"/></g><g id="g1032" transform="translate(274.73 111.93)"><path id="path1034" d="m0 0-5.141-14.264v18.528l5.141 5.049v-9.313z" fill="#9e9c97"/></g><g id="g1036" transform="translate(305.84 97.665)"><path id="path1038" d="m0 0h-36.259l5.141 14.43h25.977l5.141-14.43z" fill="#cdcac9"/></g><g id="g1040" transform="translate(300.7 112.09)"><path id="path1042" d="m 0,0 5.141,-14.264 0,18.528 L 0,9.313 0,0 Z" fill="#9e9c97"/></g><g id="g1044" transform="translate(339.8 112.1)"><path id="path1046" d="m0 0h-25.976v8.48c0 1.375 1.125 2.5 2.5 2.5h20.976c1.375 0 2.5-1.125 2.5-2.5v-8.48z" fill="#4e4945"/></g><g id="g1048" transform="translate(313.83 111.93)"><path id="path1050" d="m0 0-5.141-14.264v18.528l5.141 5.049v-9.313z" fill="#9e9c97"/></g><g id="g1052" transform="translate(344.94 97.665)"><path id="path1054" d="m0 0h-36.259l5.141 14.43h25.977l5.141-14.43z" fill="#cdcac9"/></g><g id="g1056" transform="translate(339.8 112.09)"><path id="path1058" d="m 0,0 5.141,-14.264 0,18.528 L 0,9.313 0,0 Z" fill="#9e9c97"/></g><g id="g1060" transform="translate(378.77 112.1)"><path id="path1062" d="m0 0h-25.976v8.48c0 1.375 1.125 2.5 2.5 2.5h20.976c1.375 0 2.5-1.125 2.5-2.5v-8.48z" fill="#4e4945"/></g><g id="g1064" transform="translate(352.79 111.93)"><path id="path1066" d="m0 0-5.141-14.264v18.528l5.141 5.049v-9.313z" fill="#9e9c97"/></g><g id="g1068" transform="translate(383.91 97.665)"><path id="path1070" d="m0 0h-36.259l5.141 14.43h25.977l5.141-14.43z" fill="#cdcac9"/></g><g id="g1072" transform="translate(378.77 112.09)"><path id="path1074" d="m 0,0 5.141,-14.264 0,18.528 L 0,9.313 0,0 Z" fill="#9e9c97"/></g><g id="g1076" transform="translate(417.46 112.1)"><path id="path1078" d="m0 0h-25.976v8.48c0 1.375 1.125 2.5 2.5 2.5h20.976c1.375 0 2.5-1.125 2.5-2.5v-8.48z" fill="#4e4945"/></g><g id="g1080" transform="translate(391.49 111.93)"><path id="path1082" d="m0 0-5.141-14.264v18.528l5.141 5.049v-9.313z" fill="#9e9c97"/></g><g id="g1084" transform="translate(422.6 97.665)"><path id="path1086" d="m0 0h-36.259l5.141 14.43h25.977l5.141-14.43z" fill="#cdcac9"/></g><g id="g1088" transform="translate(417.46 112.09)"><path id="path1090" d="m 0,0 5.141,-14.264 0,18.528 L 0,9.313 0,0 Z" fill="#9e9c97"/></g><g id="g1092" transform="translate(456.7 112.1)"><path id="path1094" d="m0 0h-25.976v8.48c0 1.375 1.125 2.5 2.5 2.5h20.976c1.375 0 2.5-1.125 2.5-2.5v-8.48z" fill="#4e4945"/></g><g id="g1096" transform="translate(430.72 111.93)"><path id="path1098" d="m0 0-5.141-14.264v18.528l5.141 5.049v-9.313z" fill="#9e9c97"/></g><g id="g1100" transform="translate(461.84 97.665)"><path id="path1102" d="m0 0h-36.259l5.141 14.43h25.977l5.141-14.43z" fill="#cdcac9"/></g><g id="g1104" transform="translate(456.7 112.09)"><path id="path1106" d="m 0,0 5.141,-14.264 0,18.528 L 0,9.313 0,0 Z" fill="#9e9c97"/></g><g id="g1108" transform="translate(495.39 112.1)"><path id="path1110" d="m0 0h-25.976v8.48c0 1.375 1.125 2.5 2.5 2.5h20.976c1.375 0 2.5-1.125 2.5-2.5v-8.48z" fill="#4e4945"/></g><g id="g1112" transform="translate(469.42 111.93)"><path id="path1114" d="m0 0-5.141-14.264v18.528l5.141 5.049v-9.313z" fill="#9e9c97"/></g><g id="g1116" transform="translate(500.53 97.665)"><path id="path1118" d="m0 0h-36.259l5.141 14.43h25.977l5.141-14.43z" fill="#cdcac9"/></g><g id="g1120" transform="translate(495.39 112.09)"><path id="path1122" d="m 0,0 5.141,-14.264 0,18.528 L 0,9.313 0,0 Z" fill="#9e9c97"/></g><g id="g1124" transform="translate(534.36 112.1)"><path id="path1126" d="m0 0h-25.976v8.48c0 1.375 1.125 2.5 2.5 2.5h20.976c1.375 0 2.5-1.125 2.5-2.5v-8.48z" fill="#4e4945"/></g><g id="g1128" transform="translate(508.38 111.93)"><path id="path1130" d="m0 0-5.141-14.264v18.528l5.141 5.049v-9.313z" fill="#9e9c97"/></g><g id="g1132" transform="translate(539.5 97.665)"><path id="path1134" d="m0 0h-36.259l5.141 14.43h25.977l5.141-14.43z" fill="#cdcac9"/></g><g id="g1136" transform="translate(534.36 112.09)"><path id="path1138" d="m 0,0 5.141,-14.264 0,18.528 L 0,9.313 0,0 Z" fill="#9e9c97"/></g><g id="g1140" transform="translate(573.32 112.1)"><path id="path1142" d="m0 0h-25.976v8.48c0 1.375 1.125 2.5 2.5 2.5h20.976c1.375 0 2.5-1.125 2.5-2.5v-8.48z" fill="#4e4945"/></g><g id="g1144" transform="translate(547.34 111.93)"><path id="path1146" d="m0 0-5.141-14.264v18.528l5.141 5.049v-9.313z" fill="#9e9c97"/></g><g id="g1148" transform="translate(578.46 97.665)"><path id="path1150" d="m0 0h-36.259l5.141 14.43h25.977l5.141-14.43z" fill="#cdcac9"/></g><g id="g1152" transform="translate(573.32 112.09)"><path id="path1154" d="m 0,0 5.141,-14.264 0,18.528 L 0,9.313 0,0 Z" fill="#9e9c97"/></g><g id="g1156" transform="translate(538.55 90.586)"><path id="path1158" d="m 0,0 5.141,-13.461 0,19.406 L 0,10.117 0,0 Z" fill="#9e9c97"/></g><g id="g1160" transform="translate(543.69 77.126)"><path id="path1162" d="m0 0-316.18-0.019 5.141 13.46h305.9l5.141-13.441z" fill="#cdcac9"/></g><g id="g1164" transform="translate(164.33 77.949)"><path id="path1166" d="m 0,0 -38.694,0 4.465,19.215 37.341,0 L 0,0 Z" fill="#f3f5f9"/></g></g></g><text id="text1168" transform="matrix(1 0 0 -.64731 134.5 86.181)" fill="#5d5d5d" font-family="Arial" font-size="6.058px" font-style="italic"><tspan id="tspan1170" x="0 4.0406861 8.7538099 14.472562 18.513248" y="0">POWER</tspan></text>
<g id="g1172"><g id="g1174" clip-path="url(#clipPath1176)"><g id="g1180" transform="translate(538.55 90.567)"><path id="path1182" d="m0 0h-305.9v9.391c0 1.375 1.125 2.5 2.5 2.5h300.9c1.375 0 2.5-1.125 2.5-2.5v-9.391z" fill="#4e4945"/></g><path id="path1184" d="m156 297.9h-3.145v2.297h3.145v-2.297z" fill="#fff"/><g id="g1186" transform="translate(177.79 288.09)"><path id="path1188" d="m0 0h4.095v12.113h-4.095v-2.34h0.804v-7.433h-0.804v-2.34z" fill="#fff"/></g><g id="g1190" transform="translate(186.72 288.09)"><path id="path1192" d="m0 0h-4.095v12.113h4.095v-2.34h-0.804v-7.433h0.804v-2.34z" fill="#fff"/></g><path id="path1194" d="m156 288.09h-3.145v9.21h3.145v-9.21z" fill="#fff"/><g id="g1196" transform="translate(152.05 288.09)"><path id="path1198" d="m0 0h-5.595c-2.807 0-5.083 2.11-5.083 4.713s2.276 4.713 5.083 4.713h1.548v-2.622h-1.548 0.035c-1.051 0-1.904-0.79-1.904-1.766 0-0.975 0.853-1.766 1.904-1.766h2.245v8.841h3.315v-12.113z" fill="#fff"/></g><g id="g1200" transform="translate(159.86 294.04)"><path id="path1202" d="m0 0c-0.228 0-0.412 0.151-0.412 0.337 0 0.187 0.184 0.338 0.412 0.338h5.095v2.99h-5.505c-1.474 0-2.67-1.347-2.67-3.009s1.196-3.01 2.67-3.01v-3e-3h2.425c0.228 0 0.413-0.151 0.413-0.337s-0.185-0.337-0.413-0.337h-5.095v-2.991h5.506c1.474 0 2.669 1.347 2.669 3.009 0 1.663-1.195 3.01-2.669 3.01v3e-3h-2.426z" fill="#fff"/></g><g id="g1204" transform="translate(171.38 297.49)"><path id="path1206" d="m0 0h3.009c0.756-1.498 0.071-3.236-1.543-4.031 1.614-1.059 2.299-3.377 1.543-5.373h-3.009l-0.151-1e-3c1e-3 1.918 0.365 3.901-2.432 3.901v-3.901h-3.584v12.114h3.584v-5.418c2.116 0 2.607 1.382 2.583 2.709" fill="#fff"/></g><path id="path1208" d="m411.07 297.94h-3.145v2.297h3.145v-2.297z" fill="#fff"/><g id="g1210" transform="translate(432.86 288.12)"><path id="path1212" d="m0 0h4.095v12.113h-4.095v-2.34h0.804v-7.433h-0.804v-2.34z" fill="#fff"/></g><g id="g1214" transform="translate(441.78 288.12)"><path id="path1216" d="m0 0h-4.095v12.113h4.095v-2.34h-0.804v-7.433h0.804v-2.34z" fill="#fff"/></g><path id="path1218" d="m411.07 288.12h-3.145v9.21h3.145v-9.21z" fill="#fff"/><g id="g1220" transform="translate(407.12 288.12)"><path id="path1222" d="m0 0h-5.595c-2.807 0-5.083 2.11-5.083 4.713s2.276 4.713 5.083 4.713h1.548v-2.622h-1.548 0.035c-1.051 0-1.904-0.79-1.904-1.766 0-0.975 0.853-1.766 1.904-1.766h2.245v8.841h3.315v-12.113z" fill="#fff"/></g><g id="g1224" transform="translate(414.93 294.08)"><path id="path1226" d="m0 0c-0.228 0-0.412 0.151-0.412 0.337 0 0.187 0.184 0.338 0.412 0.338h5.095v2.99h-5.505c-1.474 0-2.669-1.347-2.669-3.009s1.195-3.01 2.669-3.01v-3e-3h2.425c0.228 0 0.413-0.151 0.413-0.337s-0.185-0.337-0.413-0.337h-5.094v-2.991h5.505c1.474 0 2.669 1.347 2.669 3.009 0 1.663-1.195 3.01-2.669 3.01v3e-3h-2.426z" fill="#fff"/></g><g id="g1228" transform="translate(426.45 297.52)"><path id="path1230" d="m0 0h3.009c0.756-1.498 0.071-3.236-1.543-4.031 1.614-1.059 2.299-3.377 1.543-5.373h-3.009l-0.151-1e-3c1e-3 1.918 0.365 3.901-2.432 3.901v-3.901h-3.584v12.114h3.584v-5.418c2.116 0 2.607 1.382 2.583 2.709" fill="#fff"/></g><g id="g1232" transform="translate(657.08 556.49)"><path id="path1234" d="m0 0c0-0.782-0.649-1.415-1.45-1.415-0.8 0-1.449 0.633-1.449 1.415s0.649 1.415 1.449 1.415c0.801 0 1.45-0.633 1.45-1.415" fill="#fff"/></g><g id="g1236" transform="translate(662.71 543.88)"><path id="path1238" d="m0 0h-7.082-7.081" fill="none" stroke="#141414" stroke-miterlimit="10"/></g><path id="path1240" d="m631.7 629.72h-2.84v2.075h2.84v-2.075z" fill="#fff"/><path id="path1242" d="m631.7 620.85h-2.84v8.318h2.84v-8.318z" fill="#fff"/><g id="g1244" transform="translate(643.02 629.72)"><path id="path1246" d="m0 0c3.004 0 4.99-1.43 4.99-4.433 0-3.004-1.986-4.433-4.99-4.433s-4.99 1.429-4.99 4.433c0 3.003 1.986 4.433 4.99 4.433" fill="#fff"/></g><g id="g1248" transform="translate(656.86 620.85)"><path id="path1250" d="m 0,0 4.532,0 6.592,10.941 -4.532,0 L 0,0 Z" fill="#fff"/></g><g id="g1252" transform="translate(663.09 620.85)"><path id="path1254" d="m 0,0 4.532,0 6.592,10.941 -4.532,0 L 0,0 Z" fill="#fff"/></g><g id="g1256" transform="translate(669.31 620.85)"><path id="path1258" d="m 0,0 4.532,0 6.592,10.941 -4.532,0 L 0,0 Z" fill="#fff"/></g><g id="g1260" transform="translate(613.83 629.72)"><path id="path1262" d="m0 0c3.004 0 4.99-1.43 4.99-4.433 0-3.004-1.986-4.433-4.99-4.433s-4.99 1.429-4.99 4.433c0 3.003 1.986 4.433 4.99 4.433" fill="#fff"/></g><g id="g1264" transform="translate(628.23 627.09)"><path id="path1266" d="m0 0c0 1.3-1.125 2.354-2.513 2.354h-6.263v-8.372h3.188v6.138h2.4v-6.138h3.188v6.138-0.12z" fill="#fff"/></g><g id="g1268" transform="translate(593.25 621.35)"><path id="path1270" d="m0 0h3.502v6.139h2.637v-6.139h3.502v6.139-0.121c0 1.3-1.236 2.354-2.761 2.354h-6.88v-8.372z" fill="#fff"/></g><g id="g1272" transform="translate(606.08 629.72)"><path id="path1274" d="m0 0c1.525 0 2.76-1.054 2.76-2.354v-6.018h-3.6v6.139h-2.349v2.233h3.189z" fill="#fff"/></g><g id="g1276" transform="translate(651.26 629.2)"><path id="path1278" d="m0 0c-1.525 0-2.76-1.054-2.76-2.354v-6.018h3.6v6.139h2.349v2.233h-3.189z" fill="#fff"/></g><g id="g1280" transform="translate(632.31 631.79)"><path id="path1282" d="m0 0h2.966v-2.596h2.761v-1.712h-2.761v-4.161h2.349v-2.472-0.027h-2.333c-1.647 0-2.982 1.479-2.982 3.304v7.664z" fill="#fff"/></g><g id="g1284" transform="translate(616.26 625.26)"><path id="path1286" d="m0 0c0-1.229-1.005-2.225-2.245-2.225s-2.246 0.996-2.246 2.225 1.006 2.225 2.246 2.225 2.245-0.996 2.245-2.225" fill="#464846"/></g><g id="g1288" transform="translate(645.45 625.26)"><path id="path1290" d="m0 0c0-1.229-1.005-2.225-2.245-2.225s-2.246 0.996-2.246 2.225 1.006 2.225 2.246 2.225 2.245-0.996 2.245-2.225" fill="#464846"/></g></g></g></g><g id="g3975" transform="matrix(1.1902 0 0 1.2001 539.65 328.38)"><polygon id="polygon3977" points="168 47.8 164 47.8 164 39.7 168 39.7 168 0 0 0 0 0 0 168 65.6 168 65.6 167.5 66 166.7 66.7 166 67.6 165.7 68 165.6 68.5 165.7 69.4 166 70 166.7 70.4 167.5 70.4 168 97.6 168 97.7 167.5 98 166.7 98.6 166 99.5 165.7 100 165.6 100.5 165.7 101.4 166 102 166.7 102.4 167.5 102.4 168 168 168"/><polygon id="polygon3979" points="107.3 91.9 107.7 91.8 108.2 91.9 109.1 92.2 109.8 92.9 110.1 93.7 110.1 94.2 110.1 94.2 110.1 94.7 109.8 95.6 109.1 96.2 108.2 96.6 107.7 96.6 107.3 96.6 106.4 96.2 105.8 95.6 105.4 94.7 105.3 94.2 105.4 93.7 105.8 92.9 106.4 92.2" fill="#3c3c3c"/><polygon id="polygon3981" points="76.4 117.6 77.3 115.5 79.5 113.3 81.7 112.4 83.2 112 84 112 84 112 84.8 112 86.4 112.4 88.5 113.3 90.7 115.5 91.7 117.6 92 119.2 92 120 92 152 92 152.8 91.7 154.4 90.7 156.5 88.5 158.7 86.4 159.7 84.8 160 84 160 83.2 160 81.7 159.7 79.5 158.7 77.3 156.5 76.4 154.4 76 152.8 76 152 76 120 76 119.2" fill="#3c3c3c"/><polygon id="polygon3983" points="68.1 82.4 68.7 79.3 69.9 76.4 71.6 73.8 73.8 71.6 76.4 69.9 79.3 68.7 82.4 68.1 84 68 85.7 68.1 88.8 68.7 91.7 69.9 94.2 71.6 96.4 73.8 98.1 76.4 99.3 79.3 100 82.4 100 84 100 84 100 85.7 99.3 88.8 98.1 91.7 96.4 94.2 94.2 96.4 91.7 98.1 88.8 99.3 85.7 100 84 100 82.4 100 79.3 99.3 76.4 98.1 73.8 96.4 71.6 94.2 69.9 91.7 68.7 88.8 68.1 85.7 68 84" fill="none" stroke="#0ff" stroke-linecap="square" stroke-miterlimit="10" stroke-width=".66"/><path id="path3985" d="m100 84-0.1 1.7-0.7 3.1-1.2 2.9-1.7 2.5-2.2 2.2-2.5 1.7-2.9 1.2-3.1 0.7h-1.6l-1.6-0.1-3.1-0.7-2.9-1.2-2.6-1.7-2.2-2.2-1.7-2.5-1.2-2.9-0.6-3.1-0.1-1.6 0.1-1.6 0.6-3.1 1.2-2.9 1.7-2.6 2.2-2.2 2.6-1.7 2.9-1.2 3.1-0.6 1.6-0.1 1.7 0.1 3.1 0.6 2.9 1.2 2.5 1.7 2.2 2.2 1.7 2.6 1.2 2.9 0.7 3.1v1.6zm4 0-0.1 2.1-0.8 3.9-1.5 3.5-2.2 3.2-2.7 2.7-3.2 2.2-3.5 1.5-3.9 0.8-2.1 0.1-2-0.1-3.9-0.8-3.6-1.5-3.2-2.2-2.7-2.7-2.2-3.2-1.5-3.5-0.8-3.9-0.1-2.1 0.1-2 0.8-3.9 1.6-3.6 2.2-3.2 2.7-2.7 3.2-2.2 3.6-1.6 3.9-0.8 2-0.1 2.1 0.1 3.9 0.8 3.5 1.6 3.2 2.2 2.7 2.7 2.2 3.2 1.5 3.6 0.8 3.9v2z" fill="#3c3c3c" fill-rule="evenodd"/><g id="g3987"><polygon id="polygon3989" points="68.1 82.4 68.7 79.3 69.9 76.4 71.6 73.9 73.8 71.6 76.4 70 79.3 68.7 82.4 68.1 84 68 85.7 68.1 88.8 68.7 91.7 70 94.2 71.6 96.4 73.9 98.1 76.4 99.3 79.3 100 82.4 100 84 100 84 100 85.7 99.3 88.8 98.1 91.7 96.4 94.2 94.2 96.4 91.7 98.1 88.8 99.3 85.7 100 84 100 82.4 100 79.3 99.3 76.4 98.1 73.8 96.4 71.6 94.2 69.9 91.7 68.7 88.8 68.1 85.7 68 84" fill="#fff" fill-rule="evenodd"/><path id="path3991" d="m84 100.4-1.6-0.1-3.2-0.7-2.9-1.2-2.6-1.8-2.2-2.2-1.8-2.6-1.2-3-0.6-3.2-0.2-1.6 0.1-1.6 0.6-3.2 1.2-3 1.8-2.6 2.2-2.3 2.6-1.7 2.9-1.3 3.2-0.6 1.7-0.1 1.7 0.1 3.2 0.6 3 1.3 2.6 1.7 2.2 2.3 1.8 2.6 1.2 3 0.7 3.2 0.1 1.7-0.1 1.7-0.7 3.2-1.2 2.9-1.8 2.6-2.2 2.2-2.6 1.8-3 1.2-3.2 0.7h-1.7zm0-32-1.6 0.1-3.1 0.6-2.8 1.2-2.5 1.7-2.1 2.2-1.7 2.5-1.2 2.8-0.6 3v1.5l0.1 1.7 0.6 3.1 1.2 2.8 1.7 2.4 2.1 2.1 2.5 1.7 2.8 1.2 3.1 0.6 1.6 0.1 1.7-0.1 3.1-0.7 2.8-1.2 2.3-1.7 2.1-2.1 1.7-2.5 1.2-2.8 0.6-3.1 0.1-1.6-0.1-1.6-0.7-3.1-1.2-2.8-1.7-2.3-2.1-2.2-2.5-1.6-2.8-1.2-3-0.6-1.6-0.1z" fill="#1a1a1a"/></g><g id="g3993"><g id="g3995"><rect id="rect3997" x="38" y="3.8" width="85.6" height="6.6" fill="#ed1a24"/></g><g id="g3999"><rect id="rect4001" x="38" y="10.4" width="85.6" height="6.6" fill="#fff"/></g><g id="g4003"><rect id="rect4005" x="38" y="16.9" width="85.6" height="6.6" fill="#fff"/></g><g id="g4007"><rect id="rect4009" x="38" y="23.5" width="85.6" height="6.6" fill="#fff"/></g><g id="g4011"><rect id="rect4013" x="38" y="30" width="85.6" height="7.7" fill="#fff"/></g><g id="g4015"><g id="g4017"><rect id="rect4019" x="38" y="10.2" width="85.6" height=".3" fill="#231f20"/></g><g id="g4021"><rect id="rect4023" x="38" y="16.8" width="85.6" height=".3" fill="#231f20"/></g><g id="g4025"><rect id="rect4027" x="38" y="23.3" width="85.6" height=".3" fill="#231f20"/></g><g id="g4029"><rect id="rect4031" x="38" y="29.9" width="85.6" height=".3" fill="#231f20"/></g></g></g></g></svg>
