<?xml version="1.0" encoding="UTF-8"?>
<svg id="svg2" width="651.03" height="435.48" version="1.1" viewBox="0 0 651.03 435.48" xml:space="preserve" xmlns="http://www.w3.org/2000/svg" xmlns:cc="http://creativecommons.org/ns#" xmlns:dc="http://purl.org/dc/elements/1.1/" xmlns:rdf="http://www.w3.org/1999/02/22-rdf-syntax-ns#"><metadata id="metadata8"><rdf:RDF><cc:Work rdf:about=""><dc:format>image/svg+xml</dc:format><dc:type rdf:resource="http://purl.org/dc/dcmitype/StillImage"/><dc:title/></cc:Work></rdf:RDF></metadata><defs id="defs6"><clipPath id="clipPath16"><path id="path18" d="m0 348.39h520.82v-348.39h-520.82v348.39z"/></clipPath><clipPath id="clipPath88"><path id="path90" d="m19.073 205.95 1.339-30.125 485.33-8.032-1.339 21.422-132.55 98.001-121.17-93.316-119.16 95.727-112.46-83.677z"/></clipPath><clipPath id="clipPath112"><path id="path114" d="m19.073 229.89 1.339-49.502 485.33-8.034-1.339 40.801-132.55 97.066-121.17-92.381-119.16 95.728-112.46-83.678z"/></clipPath><clipPath id="clipPath136"><path id="path138" d="m0 348.39h520.82v-348.39h-520.82v348.39z"/></clipPath></defs><g id="g10" transform="matrix(1.25 0 0 -1.25 0 435.48)"><g id="g12"><g id="g14" clip-path="url(#clipPath16)"><g id="g20" transform="translate(296.03 28.959)"><path id="path22" d="m0 0c-0.137-0.463-0.252-1.507 0.369-2.604 0.606-1.068 1.513-1.501 1.969-1.625 0.877 0.17 1.516 0.656 1.892 1.094-0.116 0.682-0.419 1.348-0.882 1.907-0.735 0.885-1.847 1.433-2.903 1.433-0.111 0-0.205-6e-3 -0.279-0.014-0.048-0.05-0.104-0.113-0.166-0.191m-88.819-9.511c0.378-0.243 0.757-0.482 1.136-0.716-0.026 0.161-0.048 0.324-0.066 0.489l-0.231 0.036c-0.138 0.022-0.435 0.075-0.839 0.191m44.046 1.592c1.51 0 3.615-0.539 5.56-2.908 0.032 0.279 0.062 0.561 0.083 0.849 0.015 0.209 0.028 0.418 0.028 0.631v8.207l4.257-2.651c-0.425 0.916-0.666 1.681-0.802 2.258-0.813 2.095-0.313 3.661 0.291 4.639 0.87 1.406 2.388 2.247 4.061 2.247 3.2 0 6.095-3.414 6.642-4.099 0.705-0.881 3.501-2.881 5.477-3.304 2.699-0.579 4.584-1.665 5.644-3.242 0.597 0.531 1.231 1.024 1.893 1.44 2.46 1.549 4.867 2.162 7.026 1.808 0.355 1.959 1.322 6.493 5.854 6.851 0.416 0.032 0.794 0.047 1.136 0.047 3.511 0 5.161-1.615 5.926-2.97 1.667-2.951-0.032-5.772-0.672-6.834l-0.048-0.079c-1.325-2.21-4.49-3.729-6.796-3.87-0.015-0.158-0.034-0.319-0.059-0.48 0.898 0.336 1.664 0.551 2.339 0.739 1.211 0.339 1.764 0.494 2.797 1.281 2.236 1.704 3.48 3.761 3.492 3.781l0.439 0.733 0.692 0.554c1.014 0.789 3.669 2.623 6.422 2.623 0.324 0 0.643-0.024 0.954-0.072l-0.108 0.879 5.34-0.189c0.95-0.033 1.941-0.021 3.095-8e-3 0.52 6e-3 1.072 0.012 1.665 0.016l2.139 0.012 1.376-1.638c0.662-0.789 1.336-1.52 2.006-2.184-0.2 2.575-0.433 5.344-0.674 7.737l-0.13 1.287 0.566 1.164c0.536 1.102 0.953 2.419 1.321 3.58 0.218 0.686 0.423 1.333 0.649 1.937 0.094 0.248 0.172 0.5 0.25 0.763l3.201 10.786 1.66-3.179c1.68 3.712 5.462 8.398 11.917 8.398 0.566 0 1.145-0.037 1.728-0.11l-0.78 0.886-0.055 1.63c-0.012 0.327-0.037 0.584-0.082 0.831l-0.044 0.241c-0.693 3.795-0.936 6.183 2.102 11.119 1.256 2.04 1.776 4.928 2.379 8.271 0.25 1.384 0.508 2.815 0.839 4.306 0.94 4.234 2.548 6.701 3.839 8.683 0.564 0.865 1.05 1.612 1.412 2.407 0.553 1.252 0.257 6.009 0.098 8.564-0.112 1.782-0.216 3.466-0.216 4.983 0 3.716-1.449 10.277-2.429 13.541-0.19 0.633-0.57 1.52-0.973 2.46-0.91 2.123-2.043 4.765-2.501 7.81l-1.638 10.86 52.956-38.977 2.764 2.259-0.117 0.086 12.484 10.677 8.786-17.203 23.759 16.818v-44.336l-3.181 2.39-1.842-2.659 21.411-16.059c0.282-0.213 23.973-18.115 30.227-22.832l3.857 2.761 3.676 2.697 4.842 3.487-6.567 29.959v255.3l3.278 9.836h-47.659l-31.575-22.238-8.659 22.238h-53.457l-10.452-5.977-5.773 5.977h-76.922l-18.846-19.241h-4.188l-20.071 19.241h-76.916l-18.318-20.31-7.434 4.709-0.151 0.153-25.511 15.448h-90.406l8.152-10.429v-257.23l-7.491-17.97 7.656-5.881-0.144-0.405c1.174-0.91 2.799-2.095 4.393-3.21l122.32 97.208 6.182-4.936-0.463-2.658c-0.497-2.859-1.569-5.358-2.431-7.367-0.403-0.939-0.784-1.827-0.973-2.46-0.98-3.264-2.429-9.825-2.429-13.541 0-1.517-0.105-3.2-0.216-4.983-0.159-2.555-0.455-7.311 0.099-8.564 0.361-0.796 0.848-1.543 1.411-2.407 1.291-1.982 2.899-4.449 3.84-8.683 0.331-1.491 0.589-2.923 0.838-4.307 0.604-3.343 1.124-6.231 2.379-8.27 3.038-4.937 2.794-7.325 2.102-11.12l-0.043-0.237c-0.12-0.657-0.122-1.21-8e-3 -1.559l0.782-2.379-0.86-1.048c0.596 0.077 1.188 0.116 1.766 0.116 6.456 0 10.239-4.688 11.918-8.401l1.277 2.446 3.61-11.119c0.539-1.702 1.277-4.035 2.33-5.133l1.471-1.538-0.234-2.116c-0.24-2.175-0.452-4.434-0.618-6.59 0.056-0.124 0.115-0.252 0.171-0.374 1.24 1.42 2.265 2.962 2.775 3.729l1.36 2.045 2.783-0.012c2.157 0 3.606 0.113 6.004 0.752 0.516 0.137 1.01 0.31 1.51 0.529l5.931 2.594 0.442-6.459c4e-3 -0.056 0.129-1.451 1.592-3.068 0.177-0.196 0.379-0.401 0.601-0.612-1.04 1.496-1.427 2.849-1.65 4.407-0.348 2.441 1.011 4.758 3.552 6.079 0.582 0.319 1.512 0.683 2.714 0.683 1.445 0 4.171-0.554 6.185-4.272 0.71-1.311 1.082-2.614 1.216-3.832 2.031 0.268 4.1 0.068 5.914-0.538l5.33 0.409c0.595 0.046 1.673 0.123 2.205 0.123l0.282-4e-3c0.121-2e-3 0.284-5e-3 0.473-5e-3 0.389 0 0.67 0.014 0.864 0.03 0.231 0.218 0.53 0.513 0.79 0.768 0.94 0.926 2.227 2.195 3.981 3.635 2.369 1.946 4.528 2.892 6.6 2.892 1.411 0 2.409-0.447 2.998-0.822l2.407-1.532-0.326-2.835c-0.258-2.236-1.19-3.981-2.19-5.347 0.107 4e-3 0.213 6e-3 0.322 6e-3l0.217-3e-3c0.487-0.015 0.937-0.069 1.377-0.165l2.609-0.573 0.752-2.48c0.737 0.414 1.755 0.793 3.014 0.793m21.61-6.937c0.071-0.147 0.139-0.295 0.205-0.444l0.292 0.326c-0.166 0.036-0.332 0.074-0.497 0.118m-6.12-14.103c-0.39 0-0.812 8e-3 -1.274 0.025-4.425 0.158-6.193 1.977-7.319 3.76-1.803 1.132-4.195 3.168-6.252 5.647-0.926-1.976-2.35-3.865-4.102-5.385-2.578-2.233-3.614-2.704-6.086-3.27l-0.243-0.057c-0.948-0.218-1.891-0.414-3.01-0.414-1.359 0-2.648 0.282-4.457 0.713-2.254 0.537-3.905 1.663-5.065 2.794-1.588-0.231-3.702-0.442-6.11-0.442-3.682 0-5.155 0.256-7.198 1.858-0.301 0.236-0.561 0.44-1.115 0.745-1.168 0.642-2.419 1.069-3.743 1.522-1.458 0.498-2.966 1.014-4.447 1.847-1.972 1.109-8.666 5.019-12.066 8.777-1 1.106-1.748 2.21-2.306 3.248-1.578-0.328-2.944-0.485-4.342-0.552-2.91-4.028-6.55-7.802-11.54-8.682l-5.091-0.899-0.253 5.165c-7e-3 0.131-0.052 1.182 0.04 2.996-0.09 0.198-0.188 0.408-0.268 0.579-0.846 1.819-1.312 2.82-1.213 4.205 0.141 1.956 0.32 4.017 0.526 6.051-0.824 1.225-1.442 2.533-1.935 3.793-0.52-0.025-1.03-0.038-1.531-0.038-11.289 0-16.71 6.291-20.171 11.771-1.522 2.409-3.176 7.329 1.669 14.248-0.081 1.095-0.013 2.246 0.205 3.444l0.044 0.244c0.457 2.505 0.457 2.505-0.897 4.706-2.158 3.507-2.884 7.535-3.587 11.43-0.233 1.295-0.475 2.635-0.767 3.948-0.582 2.621-1.507 4.04-2.578 5.684-0.669 1.026-1.426 2.188-2.072 3.611-1.497 3.292-1.192 8.178-0.898 12.903 0.102 1.637 0.198 3.182 0.198 4.416 0 4.318 1.222 10.091 2.135 13.681l-111.25-88.415-0.166-0.106-1.148-0.821-0.755 0.016c-1.166-0.307-2.421-0.282-3.57 0.069l-0.868 0.018-1.119 0.761c-0.094 0.063-2.308 1.571-4.528 3.206-2.049 1.509-3.875 2.854-4.977 4.312l-5.233 4.02c-0.207 0.123-0.408 0.258-0.602 0.404-1.727 1.327-2.685 3.338-2.614 5.428 0.015 1.091 0.303 2.151 0.837 3.093l7.244 17.377v252.27l-9.486 12.137c-1.547 1.991-1.821 4.624-0.721 6.879 1.076 2.223 3.38 3.667 5.865 3.667h96.436c1.185 0 2.349-0.323 3.369-0.937l26.418-15.997c0.283-0.174 0.545-0.362 0.79-0.564l0.176-0.112 13.94 15.455c1.245 1.374 3.008 2.155 4.845 2.155h79.112c1.729 0 3.407-0.698 4.624-1.922l16.361-15.684 15.226 15.545c1.233 1.311 2.961 2.061 4.76 2.061h79.112c1.745 0 3.384-0.679 4.616-1.913l0.054-0.055 1.634-1.691 4.09 2.339c1.129 0.856 2.504 1.32 3.936 1.32h56.023c2.673 0 5.118-1.674 6.084-4.165l5.074-13.032 20.621 14.524c1.21 1.647 3.16 2.673 5.265 2.673h52.671c2.095 0 4.076-1.015 5.299-2.717 1.225-1.704 1.556-3.908 0.885-5.893l-3.94-11.82v-252.84l6.404-29.213c0.209-0.621 0.322-1.269 0.338-1.931 0.352-2.386-0.646-4.811-2.643-6.248l-1.184-0.853 0.016-0.011-4.96-3.616-8.22-5.884c-0.818-0.655-1.623-1.13-2.459-1.449l-0.21-0.076c-0.703-0.243-1.418-0.366-2.127-0.366h-1e-3c-1.357 0-2.65 0.448-3.842 1.331-1.109 0.825-30.494 23.03-31.745 23.975l-23.39 17.544c-2.817 2.108-3.457 6.034-1.452 8.934l4.697 6.782v8.699l0.125-0.095v8.398c-0.057-0.019-0.114-0.038-0.171-0.056l-11.647-8.246c-1.525-1.078-3.473-1.453-5.298-1.02-1.874 0.462-3.422 1.689-4.285 3.375l-4.772 9.346-8.114-6.631c-1.172-0.982-2.658-1.523-4.191-1.523-1.405 0-2.743 0.441-3.872 1.274l-34.34 25.274c0.858-3.585 1.829-8.591 1.829-12.44 0-1.234 0.096-2.78 0.198-4.416 0.295-4.725 0.599-9.61-0.897-12.903-0.647-1.423-1.404-2.585-2.072-3.61-1.072-1.645-1.997-3.064-2.579-5.685-0.291-1.312-0.533-2.651-0.767-3.947-0.702-3.895-1.429-7.924-3.586-11.43-1.355-2.202-1.355-2.202-0.898-4.706l0.045-0.244c0.028-0.157 0.054-0.315 0.077-0.475 6.047-7.582 4.313-12.98 2.667-15.587-3.461-5.48-8.882-11.771-20.171-11.771-0.589 0-1.193 0.018-1.809 0.053-0.228-0.677-0.486-1.396-0.789-2.126 0.64-6.712 1.176-15.163 1.2-15.541l0.365-5.781-5.705 1.006c-4.504 0.795-8.571 4.043-11.585 7.213l-1.168-1.321-2.103-0.025c-0.922 0-3.986 0.517-5.89 0.963-0.12-0.064-0.254-0.141-0.387-0.224-0.863-1.251-2.608-3.487-5.229-5.485-2.422-1.845-4.331-2.379-5.865-2.808-0.957-0.268-1.784-0.499-2.948-1.105-2.068-1.074-3.019-1.956-3.269-2.209l-0.69-1.14-1.088-0.262c-0.974-0.436-5.943-2.64-8.18-3.279-0.693-0.198-1.476-0.294-2.394-0.294-1.929 0-4.566 0.458-6.495 0.855-0.441-0.384-0.95-0.806-1.524-1.247l-0.207-0.16c-2.112-1.631-3.81-2.7-8.011-2.7"/></g><g id="g24" transform="translate(516.19 43.581)"><path id="path26" d="m0 0c0.01 0.076 0.013 0.158 0.013 0.238 0 0.283-0.057 0.55-0.165 0.795l-6.578 30.009v254.07l4.18 12.541c0.202 0.599 0.1 1.26-0.27 1.773-0.37 0.515-0.965 0.819-1.597 0.819h-52.671c-0.822 0-1.558-0.511-1.843-1.28l-26.178-18.438-7.189 18.463c-0.293 0.756-1.023 1.255-1.834 1.255h-56.023c-0.507 0-0.986-0.196-1.344-0.53l-7.497-4.288-4.097 4.242c-0.369 0.369-0.868 0.576-1.392 0.576h-79.112c-0.557 0-1.088-0.239-1.461-0.649l-18.211-18.592h-0.44l-19.438 18.634c-0.37 0.388-0.885 0.607-1.421 0.607h-79.111c-0.559 0-1.089-0.239-1.462-0.649l-16.514-18.311-3.741 2.369c-0.117 0.119-0.247 0.225-0.395 0.316l-26.407 15.99c-0.307 0.185-0.66 0.285-1.02 0.285h-96.436c-0.753 0-1.441-0.43-1.768-1.107-0.331-0.678-0.246-1.481 0.216-2.075l10.452-13.374v-254.75l-7.73-18.542-0.057-0.088c-0.203-0.319-0.298-0.679-0.295-1.039-0.036-0.638 0.264-1.265 0.799-1.677 0.113-0.084 0.232-0.158 0.357-0.215l14.93-11.468c0.714-0.551 1.717-0.546 2.425 0.019l120.98 96.145 45.335-36.206c0.667-0.535 1.603-0.573 2.316-0.103l57.976 38.396 50.726-38.326c0.693-0.525 1.65-0.53 2.346-0.02l50.71 36.986 47.593-35.029c0.735-0.542 1.752-0.506 2.446 0.088l12.214 10.442 7.516-14.718c0.26-0.51 0.729-0.881 1.282-1.018 0.555-0.132 1.142-0.024 1.61 0.307l12.408 8.785c0.774 0.033 1.461 0.514 1.749 1.237l4.852 3.434v-27.169l-5.505-7.95c-0.603-0.871-0.41-2.062 0.438-2.697l23.403-17.554 31.587-24.08c0.351-0.27 0.773-0.404 1.194-0.404 0.405 0 0.806 0.123 1.15 0.372l15.264 10.993c0.689 0.496 0.971 1.368 0.737 2.158" fill="#d37112"/></g><g id="g28" transform="translate(25.735 39.382)"><path id="path30" d="m0 0 120.98 96.145 45.335-36.206c0.667-0.534 1.603-0.573 2.316-0.103l57.975 38.396 50.727-38.325c0.693-0.525 1.65-0.531 2.346-0.021l50.71 36.986 47.593-35.029c0.735-0.542 1.752-0.506 2.446 0.088l8.845 7.228-53.663 39.335-57.33-41.128-51.674 40.925-58.995-41.683-51.985 40.474-126.59-100.25c-0.708-0.565 8.538-6.853 8.538-6.853l2.33-0.044c0.031 0.022 0.065 0.039 0.095 0.063" fill="#cf5517"/></g><g id="g32" transform="translate(509.33 36.951)"><path id="path34" d="m0 0-43.204 32.903-18.336 13.753v-0.995l-5.505-7.949c-0.602-0.872-0.41-2.062 0.439-2.697l23.402-17.554s30.61-23.13 31.713-23.95c0.661-0.491 1.465-0.872 3.157 0.524l8.334 5.965z" fill="#cf5517"/></g><g id="g36" transform="translate(382.19 233.47)"><path id="path38" d="m0 0-1.433 54.97-0.241 15.645h41.421l19.955-56.238 21.907 56.238h41.861v-171.25l-124.44 95.84 0.966 4.797z" fill="#b26216"/></g><g id="g40" transform="translate(205.29 176.66)"><path id="path42" d="m0 0-4.254 118.91-21.165 0.988-1.17-99.534-38.853 29.759 0.06 4.147v55.393l15.645 17.759h74.843l16.491-17.759 0.423-124.96-9.925-6.552-32.095 21.849z" fill="#b26216"/></g><g id="g44" transform="translate(300.13 176.66)"><path id="path46" d="m0 0 0.456 119.24 21.165 0.987 2.689-99.859 41.132 29.759-0.06 4.147v55.393l-15.645 17.759h-74.843l-16.491-17.759-0.423-124.96 8.283-7.669 33.737 22.966z" fill="#b26216"/></g><g id="g48" transform="translate(128.91 235.16)"><path id="path50" d="m0 0-42.53-32.722-3.244 94.251-21.347-0.423-2.214-114.45-38.49-29.613 2.114 141.73-1.551 9.919 81.469 0.23 23.679-14.8 1.268-47.781 0.846-6.343z" fill="#b26216"/></g><g id="g52" transform="translate(382.19 257.44)"><path id="path54" d="m0 0-1.433 54.97 0.62 15.645h40.56l19.955-56.238 21.907 56.238h41.861v-171.25l-124.44 95.84 0.966 4.797z" fill="#8f5014"/></g><g id="g56" transform="translate(248.15 167.8)"><path id="path58" d="m0 0-42.866 32.833-3.684 95.883-21.165 0.988-1.74-76.505-38.852 29.76 0.059 4.147v55.392l15.645 17.76h74.844l16.491-17.76 0.422-138.27 0.846-4.228z" fill="#8f5014"/></g><g id="g60" transform="translate(257.27 167.8)"><path id="path62" d="m0 0 42.866 32.833-0.493 97.022 21.165 0.988 3.638-77.644 41.131 29.76-0.059 4.147v55.392l-15.645 17.76h-74.844l-16.49-17.76-0.423-138.27-0.846-4.228z" fill="#8f5014"/></g><g id="g64" transform="translate(128.91 259.14)"><path id="path66" d="m0 0-42.53-32.722-4.004 72.863-21.347-0.423-1.454-93.063-38.49-29.613 2.114 141.73 0.837 10.296 79.081-0.147 23.679-14.8 1.268-47.781 0.846-6.343z" fill="#8f5014"/></g><g id="g68" transform="translate(382.19 268.21)"><path id="path70" d="m0 0-1.433 54.97-5.755 15.645h46.935l19.955-56.238 21.907 56.238h41.861v-171.25l-124.44 95.84 0.966 4.797z" fill="#306692"/></g><g id="g72" transform="translate(248.15 178.57)"><path id="path74" d="m0 0-42.866 32.833-2.355 83.729-21.165 0.988-3.069-64.351-38.852 29.76 0.059 4.147v55.392l15.645 17.76h74.844l16.491-17.76 0.422-138.27 0.846-4.228z" fill="#306692"/></g><g id="g76" transform="translate(257.27 178.57)"><path id="path78" d="m0 0 42.866 32.833 2.355 83.729 21.165 0.988 0.79-64.351 41.131 29.76-0.059 4.147v55.392l-15.645 17.76h-74.844l-16.49-17.76-0.423-138.27-0.846-4.228z" fill="#306692"/></g><g id="g80" transform="translate(128.91 269.9)"><path id="path82" d="m0 0-42.53-32.722-3.434 59.19-21.347-0.423-2.024-79.39-38.49-29.613 2.114 141.73-8.034 10.149h87.952l23.679-14.8 1.268-47.781 0.846-6.343z" fill="#306692"/></g></g></g><g id="g84"><g id="g86" clip-path="url(#clipPath88)"><g id="g92" transform="translate(382.19 268.21)"><path id="path94" d="m0 0-1.433 54.97-5.755 15.645h46.935l19.955-56.238 21.907 56.238h41.861v-171.25l-124.44 95.84 0.966 4.797z" fill="#3d80b8"/></g><g id="g96" transform="translate(248.15 178.57)"><path id="path98" d="m0 0-42.866 32.833-2.355 83.729-21.165 0.988-3.069-64.351-38.852 29.76 0.059 4.147v55.392l15.645 17.76h74.844l16.491-17.76 0.422-138.27 0.846-4.228z" fill="#3d80b8"/></g><g id="g100" transform="translate(257.27 178.57)"><path id="path102" d="m0 0 42.866 32.833 2.355 83.729 21.165 0.988 0.79-64.351 41.131 29.76-0.059 4.147v55.392l-15.645 17.76h-74.844l-16.49-17.76-0.423-138.27-0.846-4.228z" fill="#3d80b8"/></g><g id="g104" transform="translate(128.91 269.9)"><path id="path106" d="m0 0-42.53-32.722-3.434 59.19-21.347-0.423-2.024-79.39-38.49-29.613 2.114 141.73-8.034 10.149h87.952l23.679-14.8 1.268-47.781 0.846-6.343z" fill="#3d80b8"/></g></g></g><g id="g108"><g id="g110" clip-path="url(#clipPath112)"><g id="g116" transform="translate(382.19 284.84)"><path id="path118" d="m0 0-1.433 54.97 61.135-40.593 63.768-40.564v-74.45l-124.44 95.84 0.966 4.797z" fill="#33709f"/></g><g id="g120" transform="translate(248.15 195.19)"><path id="path122" d="m0 0-42.866 32.833-2.355 83.729-21.165 0.988-3.069-64.351-38.852 29.76 0.059 4.147v35.692l107.04 3e-3 0.362-118.57 0.846-4.228z" fill="#33709f"/></g><g id="g124" transform="translate(257.27 195.19)"><path id="path126" d="m 0,0 42.866,32.833 2.355,83.729 21.165,0.988 0.79,-64.351 41.131,29.76 -0.059,4.147 0,37.176 L 1.207,122.303 0.846,4.228 0,0 Z" fill="#33709f"/></g><g id="g128" transform="translate(128.91 286.53)"><path id="path130" d="m0 0-42.53-32.722-3.434 59.19-21.347-0.423-2.024-79.39-38.49-29.613 1.773 118.87 104.5-2.955 0.706-26.614 0.846-6.343z" fill="#33709f"/></g></g></g><g id="g132"><g id="g134" clip-path="url(#clipPath136)"><g id="g140" transform="translate(63.62 168.59)"><path id="path142" d="m0 0v124.29h16.12v-112.12l-16.12-12.161zm23.578 131.74h-31.035v-146.72l31.035 23.778v122.94z" fill="#f7c657"/></g><g id="g144" transform="translate(100.86 334.4)"><path id="path146" d="m0 0 21.107-12.863v-169.33l-97.059-77.785v256.28l-2.872 3.693h78.824zm-94.279 7.457 10.87-13.911v-255.82l-8.094-19.416 120.07 96.202v176.96l-26.406 15.991h-96.436z" fill="#f7c657"/></g><g id="g148" transform="translate(228.63 334.4)"><path id="path150" d="m0 0 13.627-14.417v-156.46l-54.29-40.039-45.231 36.121v160.18l12.991 14.615h72.903zm-76.07 7.457-17.281-19.16v-166.4l52.587-42.003 61.849 45.114v163.61l-18.044 18.834h-79.111z" fill="#f7c657"/></g><g id="g152" transform="translate(183.2 188.08)"><path id="path154" d="m0 0v104.45h16.12v-118.02l-16.12 13.574zm23.578 111.9h-31.035v-115.13l31.035-26.602v141.74z" fill="#f7c657"/></g><g id="g156" transform="translate(303.29 174.5)"><path id="path158" d="m0 0v118.02h16.12v-104.45l-16.12-13.574zm23.578 125.48h-31.034v-141.74l31.034 26.603v115.13z" fill="#f7c657"/></g><g id="g160" transform="translate(348.71 334.4)"><path id="path162" d="m0 0 13.629-13.629v-157.25l-54.291-40.039-45.232 38.878v157.43l12.991 14.615h72.903zm-76.07 7.457-17.281-19.16v-163.64l52.587-44.76 61.849 45.114v164.4l-18.043 18.045h-79.112z" fill="#f7c657"/></g><g id="g164" transform="translate(470.94 94.338)"><path id="path166" d="m0 0v123.52l-28.828-86.589-30.712 124.02v-125.44l-28.462 21.272 0.375 0.374v177.32l-3.392 5.575h37.027l24.263-62.343 23.142 62.343h37.073l-1.347-4.049v-256.86l2.716-11.833-15.049 10.944-20.999 15.748 4.193 5.986zm36.596-19.928v254.6l4.283 12.845h-52.671l-18.029-48.852-19.016 48.852h-56.022l9.775-14.876v-172.31l-4.765-3.808 47.766-35.925v79.772l22.43-87.507 22.195 68.631v-78.857l-7.065-10.201 26.868-20.151 30.956-22.811-6.705 30.591z" fill="#f7c657"/></g><g id="g168" transform="translate(59.715 295.82)"><path id="path170" d="M 0,0 23.652,-20.696 23.232,0.551 0,0 Z" fill="#8f5014"/></g><g id="g172" transform="translate(179.16 295.82)"><path id="path174" d="M 0,0 23.652,-20.696 23.232,0.551 0,0 Z" fill="#8f5014"/></g><g id="g176" transform="translate(323.28 295.82)"><path id="path178" d="M 0,0 -23.652,-20.696 -23.232,0.551 0,0 Z" fill="#8f5014"/></g><g id="g180" transform="translate(369.8 293.62)"><path id="path182" d="m0 0v30.16l-7.657-2.809 0.201-0.201v-32.419l7.456 5.269z" fill="#cf5517"/></g><g id="g184" transform="translate(366.13 341.79)"><path id="path186" d="m0 0 9.73-14.807v-32.468l7.457-5.7v40.012l-3.392 5.575h0.066l-13.861 7.388z" fill="#cf5517"/></g><g id="g188" transform="translate(501.43 334.4)"><path id="path190" d="m0 0-1.347-4.049v-130.78l7.457-5.699v135.14l4.283 12.845h-0.053l-10.634-7.457h0.294z" fill="#cf5517"/></g><g id="g192" transform="translate(262.82 218.03)"><path id="path194" d="m0 0v101.65l-7.456 3.02-1e-3 -1e-3v-109.94l7.457 5.27z" fill="#cf5517"/></g><g id="g196" transform="translate(295.83 299.98)"><path id="path198" d="m0 0v-58.625l7.456 5.269v45.899h16.121v-34.508l7.458 5.271v36.694h-31.035z" fill="#cf5517"/></g><g id="g200" transform="translate(142.74 289.16)"><path id="path202" d="m0 0v30.595l-7.428 2.971-0.029-0.032v-28.129l7.457-5.405z" fill="#cf5517"/></g><g id="g204" transform="translate(129.43 325.87)"><path id="path206" d="m0 0-7.456-4.329v-31.285l7.456 5.121v30.493z" fill="#cf5517"/></g><g id="g208" transform="translate(56.163 300.33)"><path id="path210" d="m0 0v-55.274l7.457 5.121v42.696h16.121v-31.624l7.457 5.121v33.96h-31.035z" fill="#cf5517"/></g><g id="g212" transform="translate(249.71 323.08)"><path id="path214" d="m0 0-7.458-3.094v-102.96l7.458-5.406v111.46z" fill="#cf5517"/></g><g id="g216" transform="translate(175.75 299.98)"><path id="path218" d="m0 0v-34.745l7.457-5.405v32.693h16.12v-44.377l7.458-5.406v57.24h-31.035z" fill="#cf5517"/></g><g id="g220" transform="translate(24.912 223.6)"><path id="path222" d="m0 0v107.11l-2.869 3.691-15.403 7.459h-0.054l10.87-13.911v-109.47l7.456 5.121z" fill="#cf5517"/></g><g id="g224" transform="translate(369.8 297.8)"><path id="path226" d="m0 0-7.456-5.486v-37.541l7.456 5.625v37.402z" fill="#ec8b32"/></g><g id="g228" transform="translate(255.36 174.06)"><path id="path230" d="m 0,0 7.457,5.626 0,39.401 L 0,39.541 0,0 Z" fill="#ec8b32"/></g><g id="g232" transform="translate(500.08 205.04)"><path id="path234" d="m0 0v-39.571l7.457-5.625v39.588l-7.457 5.608z" fill="#ec8b32"/></g><g id="g236" transform="translate(383.32 292.85)"><path id="path238" d="m0 0-7.457 5.608v-39.293l7.457-5.625v39.31z" fill="#ec8b32"/></g><g id="g240" transform="translate(183.2 226.83)"><path id="path242" d="m0 0v35.867l-7.457 5.515v-35.467l7.457-5.915z" fill="#ec8b32"/></g><g id="g244" transform="translate(303.29 210.22)"><path id="path246" d="m0 0v38.645l-7.456-5.486v-38.784l7.456 5.625z" fill="#ec8b32"/></g><g id="g248" transform="translate(319.41 260.72)"><path id="path250" d="m 0,0 0,-38.344 7.458,5.627 0,38.204 L 0,0 Z" fill="#ec8b32"/></g><g id="g252" transform="translate(199.32 250.78)"><path id="path254" d="m0 0v-36.732l7.458-5.916v37.132l-7.458 5.516z" fill="#ec8b32"/></g><g id="g256" transform="translate(24.912 186.26)"><path id="path258" d="m0 0v37.943l-7.456-5.268v-38.32l7.456 5.645z" fill="#ec8b32"/></g><g id="g260" transform="translate(135.28 264.85)"><path id="path262" d="m 0,0 7.457,-5.915 0,33.696 L 0,33.296 0,0 Z" fill="#ec8b32"/></g><g id="g264" transform="translate(129.43 298.04)"><path id="path266" d="m0 0-7.456-5.268v-33.033l7.456 5.644v32.657z" fill="#ec8b32"/></g><g id="g268" transform="translate(79.741 262.93)"><path id="path270" d="m 0,0 0,-35.17 7.457,5.646 0,34.792 L 0,0 Z" fill="#ec8b32"/></g><g id="g272" transform="translate(63.62 215.56)"><path id="path274" d="m0 0v35.985l-7.457-5.268v-36.362l7.457 5.645z" fill="#ec8b32"/></g><g id="g276" transform="translate(249.71 213.51)"><path id="path278" d="m0 0-7.458 5.515v-39.035l7.458-5.916v39.436z" fill="#ec8b32"/></g><g id="g280" transform="translate(369.8 323.52)"><path id="path282" d="m0 0v0.299l-18.043 18.045h-79.112l-17.281-19.16 7.457-2.912 12.991 14.615h72.903l13.629-13.629v-0.155l7.456 2.897z" fill="#5a9bd2"/></g><g id="g284" transform="translate(6.5858 341.86)"><path id="path286" d="m0 0 15.455-7.457h78.824l21.107-12.863v-0.029l7.456 4.358-26.406 15.991h-96.436z" fill="#5a9bd2"/></g><g id="g288" transform="translate(441.12 293.01)"><path id="path290" d="m0 0-19.016 48.852h-56.023l13.84-7.457h37.027l24.263-62.344 23.142 62.344h37.074l10.392 7.457h-52.671l-18.028-48.852z" fill="#5a9bd2"/></g><g id="g292" transform="translate(152.56 341.86)"><path id="path294" d="m0 0-17.281-19.16 7.457-2.913 12.991 14.616h72.903l13.627-14.417 7.458 3.04-18.044 18.834h-79.111z" fill="#5a9bd2"/></g><g id="g296" transform="translate(296.03 28.959)"><path id="path298" d="m0 0c-0.137-0.464-0.252-1.507 0.369-2.604 0.606-1.068 1.513-1.501 1.969-1.625 0.877 0.17 1.516 0.656 1.892 1.094-0.116 0.682-0.419 1.348-0.882 1.907-0.735 0.885-1.847 1.433-2.903 1.433-0.111 0-0.205-6e-3 -0.279-0.014-0.048-0.05-0.104-0.114-0.166-0.191m-88.819-9.511c0.378-0.243 0.757-0.482 1.136-0.716-0.026 0.161-0.048 0.324-0.066 0.489l-0.231 0.036c-0.138 0.022-0.435 0.075-0.839 0.191m44.046 1.592c1.51 0 3.615-0.539 5.56-2.908 0.032 0.279 0.062 0.561 0.083 0.849 0.015 0.209 0.028 0.418 0.028 0.631v8.207l4.257-2.651c-0.425 0.917-0.666 1.681-0.802 2.258-0.813 2.095-0.313 3.661 0.291 4.639 0.87 1.406 2.388 2.247 4.061 2.247 3.2 0 6.095-3.415 6.642-4.099 0.705-0.881 3.501-2.881 5.477-3.304 2.698-0.579 4.584-1.665 5.644-3.243 0.597 0.532 1.231 1.024 1.893 1.441 2.46 1.549 4.867 2.162 7.026 1.808 0.355 1.959 1.322 6.493 5.855 6.851 0.415 0.032 0.793 0.047 1.135 0.047 3.511 0 5.16-1.615 5.926-2.97 1.667-2.951-0.032-5.773-0.672-6.835l-0.048-0.079c-1.325-2.209-4.49-3.728-6.796-3.869-0.015-0.158-0.034-0.319-0.059-0.48 0.898 0.336 1.664 0.551 2.339 0.739 1.211 0.339 1.764 0.494 2.797 1.281 2.236 1.704 3.48 3.761 3.492 3.781l0.439 0.734 0.692 0.553c1.014 0.789 3.669 2.623 6.422 2.623 0.324 0 0.643-0.024 0.955-0.072l-0.109 0.879 5.341-0.189c0.946-0.033 1.938-0.021 3.092-8e-3 0.521 6e-3 1.073 0.012 1.667 0.016l2.139 0.012 1.376-1.638c0.662-0.789 1.336-1.52 2.006-2.184-0.2 2.575-0.433 5.344-0.674 7.737l-0.13 1.287 0.566 1.164c0.536 1.101 0.953 2.419 1.321 3.58 0.218 0.686 0.423 1.333 0.649 1.937 0.094 0.248 0.172 0.5 0.25 0.763l3.202 10.788 1.659-3.181c1.68 3.713 5.463 8.399 11.917 8.399 0.566 0 1.145-0.038 1.728-0.111l-0.78 0.887-0.055 1.629c-0.012 0.327-0.037 0.584-0.082 0.831l-0.044 0.241c-0.693 3.795-0.936 6.183 2.102 11.119 1.256 2.04 1.776 4.927 2.379 8.271 0.25 1.384 0.508 2.815 0.839 4.306 0.94 4.234 2.548 6.701 3.839 8.683 0.564 0.865 1.05 1.611 1.412 2.407 0.553 1.252 0.257 6.009 0.098 8.564-0.112 1.782-0.216 3.466-0.216 4.983 0 3.716-1.45 10.277-2.429 13.541-0.19 0.634-0.571 1.522-0.975 2.462-1.144 2.663-2.711 6.311-2.711 10.496 0 1.28 0.059 2.147 0.102 2.78 0.075 1.103 0.084 1.246-1.58 5.868-1.693 4.703-3.312 6.811-5.361 9.48-0.808 1.052-1.643 2.139-2.551 3.46-1.447 2.104-2.037 2.551-2.785 3.115-0.771 0.583-1.723 1.303-2.972 2.826l-3.438 3.438 3.989 3.179c2.36 1.882 5.034 4.196 7.864 6.646 0.308 0.266 0.611 0.53 0.907 0.789-4.109-1.788-7.627-3.337-8.795-3.885-0.347-0.162-0.696-0.332-1.047-0.508l-4.413-2.22-1.811 4.462c-0.74 0.312-2.308 0.692-3.604 1.006-1.041 0.252-2.221 0.538-3.49 0.891-1.198 0.333-2.066 0.589-2.815 0.833l-6.747 2.193 4.799 5.225c8.159 8.88 13.62 18.57 17.108 27.093-8.119-9.561-18.423-16.385-28.152-21.995l-3.216-1.854-2.466 2.774c-0.216 0.242-0.434 0.491-0.653 0.746l-1.766 2.049 0.952 2.531c1.504 3.999 1.819 10.143 1.329 15.954-0.04-0.169-0.082-0.337-0.126-0.506-1.18-4.613-4.356-9.751-9.44-15.272l-1.517-1.647-2.23 0.194c-0.666 0.057-1.368 0.086-2.146 0.086-1.623 0-3.275-0.125-4.875-0.247-1.557-0.118-3.027-0.229-4.447-0.229-2.206 0-3.914 0.284-5.376 0.893-0.939 0.391-2.051 0.961-3.459 1.683-4.038 2.071-10.795 5.538-16.046 5.538s-12.008-3.467-16.046-5.538c-1.408-0.722-2.52-1.292-3.459-1.683-1.463-0.61-3.175-0.894-5.385-0.894-1.418 0-2.886 0.11-4.439 0.227-1.596 0.12-3.245 0.244-4.864 0.244-0.923 0-1.746-0.04-2.518-0.121l-2.276-0.241-1.553 1.683c-5.112 5.541-8.304 10.696-9.488 15.323-0.039 0.154-0.077 0.306-0.114 0.459-0.494-5.991-0.139-12.307 1.43-16.197l1.051-2.603-2.318-2.633-2.465-2.749-3.2 1.84c-9.86 5.667-20.299 12.561-28.495 22.213 3.502-8.567 9.001-18.316 17.226-27.236l4.879-5.292-6.87-2.148c-0.672-0.21-1.444-0.435-2.384-0.696-1.27-0.353-2.45-0.639-3.491-0.891-1.296-0.314-2.863-0.694-3.604-1.006-0.016-0.04-0.032-0.08-0.049-0.12l-1.893-4.574-4.402 2.262c-0.477 0.245-0.951 0.48-1.417 0.698-1.168 0.548-4.687 2.097-8.797 3.886 0.296-0.26 0.598-0.524 0.906-0.79 2.937-2.541 5.711-4.941 8.149-6.871l3.66-2.896-2.983-3.591c-1.204-1.448-2.133-2.152-2.881-2.719-0.751-0.569-1.344-1.019-2.793-3.127-0.908-1.321-1.743-2.408-2.551-3.459-2.05-2.669-3.669-4.778-5.362-9.481-1.664-4.622-1.654-4.764-1.579-5.867 0.042-0.634 0.101-1.501 0.101-2.781 0-4.186-1.567-7.833-2.711-10.496-0.404-0.941-0.786-1.829-0.975-2.461-0.98-3.265-2.429-9.826-2.429-13.542 0-1.517-0.105-3.2-0.216-4.983-0.159-2.555-0.455-7.311 0.099-8.564 0.362-0.796 0.848-1.543 1.411-2.407 1.291-1.983 2.899-4.449 3.839-8.683 0.332-1.491 0.59-2.923 0.84-4.307 0.603-3.343 1.123-6.231 2.379-8.27 3.037-4.937 2.793-7.325 2.101-11.12l-0.043-0.237c-0.12-0.657-0.122-1.21-8e-3 -1.559l0.782-2.379-0.86-1.048c0.596 0.077 1.188 0.116 1.766 0.116 6.456 0 10.239-4.688 11.918-8.401l1.277 2.446 3.611-11.119c0.539-1.702 1.276-4.035 2.329-5.133l1.471-1.538-0.233-2.116c-0.241-2.175-0.453-4.434-0.619-6.59 0.056-0.124 0.115-0.252 0.171-0.374 1.24 1.42 2.265 2.962 2.775 3.729l1.36 2.045 2.784-0.012c2.156 0 3.605 0.113 6.003 0.752 0.516 0.137 1.01 0.31 1.51 0.529l5.931 2.593 0.442-6.458c4e-3 -0.056 0.129-1.451 1.592-3.068 0.177-0.196 0.379-0.401 0.601-0.612-1.04 1.496-1.427 2.849-1.65 4.407-0.348 2.439 1.01 4.757 3.55 6.078 0.582 0.319 1.512 0.685 2.716 0.685 1.445 0 4.17-0.555 6.185-4.273 0.71-1.311 1.082-2.614 1.216-3.832 2.032 0.267 4.1 0.067 5.914-0.538l5.33 0.409c0.595 0.046 1.673 0.123 2.205 0.123l0.282-4e-3c0.121-2e-3 0.284-5e-3 0.472-5e-3 0.39 0 0.671 0.014 0.865 0.03 0.231 0.218 0.53 0.513 0.79 0.768 0.94 0.926 2.227 2.195 3.981 3.635 2.369 1.946 4.528 2.892 6.6 2.892 1.411 0 2.409-0.447 2.998-0.822l2.408-1.532-0.327-2.835c-0.258-2.236-1.19-3.981-2.19-5.347 0.106 4e-3 0.213 6e-3 0.322 6e-3l0.218-3e-3c0.486-0.015 0.936-0.069 1.377-0.165l2.608-0.574 0.752-2.479c0.737 0.414 1.755 0.793 3.014 0.793m21.611-6.937c0.07-0.147 0.138-0.295 0.204-0.444l0.292 0.326c-0.166 0.036-0.332 0.074-0.496 0.118m-6.121-14.103c-0.389 0-0.812 8e-3 -1.274 0.025-4.425 0.158-6.193 1.977-7.319 3.76-1.803 1.132-4.195 3.168-6.252 5.647-0.926-1.976-2.35-3.865-4.102-5.385-2.578-2.233-3.614-2.704-6.086-3.27l-0.243-0.057c-0.948-0.218-1.891-0.414-3.01-0.414-1.36 0-2.648 0.282-4.457 0.713-2.254 0.537-3.905 1.663-5.065 2.794-1.588-0.231-3.702-0.442-6.11-0.442-3.682 0-5.155 0.256-7.198 1.858-0.301 0.236-0.561 0.44-1.115 0.745-1.168 0.642-2.418 1.069-3.743 1.522-1.458 0.498-2.966 1.014-4.447 1.847-1.972 1.109-8.666 5.02-12.066 8.777-1 1.106-1.748 2.21-2.306 3.248-1.578-0.328-2.944-0.485-4.342-0.552-2.91-4.028-6.55-7.802-11.54-8.682l-5.091-0.899-0.253 5.165c-7e-3 0.131-0.052 1.182 0.04 2.996-0.09 0.197-0.188 0.408-0.268 0.579-0.846 1.818-1.312 2.82-1.213 4.205 0.141 1.956 0.32 4.017 0.526 6.051-0.824 1.225-1.442 2.533-1.935 3.793-0.52-0.025-1.031-0.038-1.531-0.038-11.289 0-16.71 6.291-20.171 11.771-1.522 2.409-3.176 7.329 1.669 14.248-0.081 1.095-0.013 2.246 0.205 3.444l0.044 0.244c0.457 2.505 0.457 2.505-0.898 4.706-2.157 3.506-2.883 7.535-3.586 11.43-0.233 1.295-0.475 2.635-0.767 3.948-0.582 2.621-1.507 4.04-2.578 5.684-0.669 1.026-1.426 2.188-2.072 3.611-1.497 3.292-1.192 8.178-0.898 12.903 0.102 1.637 0.198 3.182 0.198 4.416 0 5.567 2.031 13.554 2.813 16.161 0.339 1.132 0.821 2.252 1.331 3.439 0.969 2.256 1.971 4.588 1.971 6.899 0 0.971-0.043 1.605-0.081 2.165-0.192 2.826 0.024 3.811 2.098 9.571 2.174 6.04 4.479 9.042 6.709 11.944 0.736 0.959 1.496 1.95 2.268 3.072 1.078 1.568 1.948 2.626 2.724 3.425-1.395 1.184-2.841 2.435-4.328 3.722-17.906 15.495-16.581 19.049-15.869 20.959 0.93 2.497 3.709 3.778 6.502 2.763 2.429-0.884 19.402-8.228 25.395-10.903 1.542 1.076 3.488 1.682 5.559 2.21-12.065 15.384-18.68 33.477-19.942 45.68-0.686 6.628 0.941 8.432 1.553 9.111 0.945 1.048 2.284 1.649 3.671 1.649 4.078 0 5.669-4.4 6.718-7.346 5.328-13.903 15.991-23.351 27.092-30.619-0.687 8.603 0.665 18.442 3.108 24.603 2.394 6.036 7.77 12.551 12.28 12.551 1.741 0 3.316-0.865 4.211-2.315 0.569-0.92 1.324-2.863-0.012-5.537-1.045-2.09-3.557-9.896-1.464-18.076 0.684-2.676 2.77-6.111 5.933-9.803 0.349 9e-3 0.705 0.014 1.071 0.014 1.961 0 3.866-0.143 5.547-0.269 1.378-0.104 2.68-0.202 3.755-0.202 1.35 0 1.803 0.161 1.88 0.193 0.607 0.252 1.626 0.775 2.805 1.38 4.77 2.447 12.754 6.542 20.206 6.542s15.436-4.095 20.206-6.542c1.18-0.605 2.198-1.128 2.805-1.38 0.077-0.032 0.528-0.192 1.869-0.192 1.076 0 2.38 0.099 3.76 0.204 1.685 0.127 3.596 0.272 5.563 0.272 0.197 0 0.391-2e-3 0.582-4e-3 3.156 3.686 5.237 7.115 5.921 9.787 2.093 8.181-0.419 15.987-1.464 18.076-1.336 2.673-0.582 4.617-0.013 5.537 0.895 1.45 2.47 2.315 4.211 2.315 4.51 0 9.886-6.514 12.28-12.55 2.414-6.088 3.775-15.985 3.095-24.618 11.074 7.24 21.755 16.671 27.105 30.633 1.049 2.946 2.64 7.346 6.717 7.346 1.388 0 2.727-0.601 3.672-1.649 0.612-0.679 2.239-2.483 1.553-9.112-1.257-12.161-7.846-30.212-19.861-45.575 2.136-0.532 4.162-1.119 5.774-2.182 6.234 2.776 22.709 9.901 25.098 10.77 2.797 1.017 5.573-0.265 6.503-2.762 0.713-1.91 2.037-5.464-15.869-20.959-1.394-1.206-2.75-2.38-4.061-3.497 0.833-0.822 1.765-1.928 2.949-3.65 0.772-1.123 1.533-2.114 2.269-3.073 2.229-2.901 4.534-5.903 6.708-11.943 2.074-5.761 2.29-6.745 2.098-9.572-0.038-0.56-0.081-1.193-0.081-2.164 0-2.311 1.003-4.643 1.971-6.898 0.51-1.187 0.992-2.308 1.331-3.441 0.783-2.607 2.813-10.594 2.813-16.16 0-1.234 0.096-2.78 0.198-4.416 0.295-4.725 0.599-9.61-0.897-12.903-0.647-1.423-1.404-2.585-2.072-3.61-1.072-1.645-1.997-3.064-2.579-5.685-0.291-1.312-0.533-2.651-0.767-3.947-0.702-3.895-1.429-7.924-3.586-11.43-1.355-2.202-1.355-2.202-0.898-4.706l0.045-0.244c0.028-0.157 0.054-0.315 0.077-0.475 6.047-7.581 4.314-12.98 2.667-15.587-3.461-5.48-8.882-11.771-20.169-11.771h-2e-3c-0.589 0-1.193 0.018-1.809 0.053-0.228-0.677-0.487-1.396-0.789-2.126 0.64-6.712 1.176-15.163 1.2-15.541l0.365-5.782-5.706 1.007c-4.503 0.795-8.57 4.043-11.584 7.213l-1.168-1.321-2.103-0.025c-0.922 0-3.986 0.517-5.89 0.963-0.12-0.064-0.254-0.141-0.387-0.224-0.863-1.251-2.608-3.487-5.229-5.485-2.422-1.845-4.331-2.379-5.865-2.808-0.957-0.268-1.784-0.499-2.948-1.105-2.068-1.074-3.019-1.956-3.269-2.209l-0.69-1.14-1.088-0.262c-0.974-0.436-5.943-2.64-8.18-3.279-0.693-0.198-1.476-0.294-2.394-0.294-1.929 0-4.566 0.458-6.495 0.855-0.441-0.384-0.95-0.806-1.524-1.247l-0.207-0.16c-2.112-1.631-3.81-2.7-8.011-2.7"/></g><g id="g300" transform="translate(221.61 195.42)"><path id="path302" d="m0 0s-11.91 9.92-14.226 18.974 0.118 17.875 1.803 21.244c1.684 3.369-4.923-0.24-8.165-8.417-3.083-7.775-4.31-23.397-0.89-31.59 4.782-11.453 23.794-11.792 21.478-0.211" fill="#dfded1"/></g><g id="g304" transform="translate(299.7 26.274)"><path id="path306" d="m0 0c-0.655-1.092-4.259-2.621-3.931-0.874 0.327 1.748 0.541 3.719 1.856 3.822 4.15 0.328 2.73-1.856 2.075-2.948m-9.719-9.719c-1.31-0.655-4.586-2.184-8.627-1.528 0 0 2.512 4.367 5.461 6.224 2.948 1.856 4.804 1.31 5.35 0.109s-0.873-4.149-2.184-4.805m-14.086 1.748c-2.075 0-3.495 0.327-7.208 4.149-3.712 3.822-3.931 6.334-3.931 6.334-1.092 2.184 1.747 0.218 3.058-1.42 1.31-1.638 5.023-4.259 8.081-4.914 3.057-0.655 3.057-1.638 3.057-2.402 0-0.765-0.983-1.747-3.057-1.747m-12.449-7.208c-3.604 2.075-1.966 5.024-1.966 8.518 0 0 5.788-3.604 7.535-8.081 0 0-1.966-2.511-5.569-0.437m-19.219 4.15c-0.219-1.747-0.656-2.839-1.092-3.167-0.437-0.328-1.638-2.621-6.771-0.655 0 0 0.437 2.402 2.075 4.259 1.638 1.856 3.494 3.603 5.46 3.166 0 0 0.546-1.856 0.328-3.603m-12.231 3.167c-0.764-0.874-2.293-0.765-2.948-0.546-0.655 0.218-1.529 0.546-2.075 1.201s-1.747 2.948-1.747 2.948 1.42 0.109 1.856 0.109c0.437 0 2.73-0.109 3.713 0.437s2.512 2.512 5.569 5.023c3.058 2.512 4.259 1.748 4.259 1.748-0.327-2.84-2.73-4.587-3.822-6.116-1.092-1.528-4.04-3.931-4.805-4.804m-14.305-3.385c-2.293 0.982-3.385 2.074-4.368 3.276-0.982 1.201-0.327 3.603-0.327 3.603 2.074 0.655 5.787 0.546 7.862-1.856 2.075-2.403 2.402-5.242 2.402-5.242s-3.276-0.764-5.569 0.219m-8.954 8.735s-1.42 0.219-2.621 1.529c-1.201 1.311-1.451 2.079-1.638 3.385-0.109 0.765 1.201 1.42 1.201 1.42s1.311 0.874 2.73-1.747c1.42-2.621 0.328-4.587 0.328-4.587m109.02 6.734c-0.873 2.184-10.774 3.204-12.376 3.495-1.601 0.291-10.337-2.184-17.035-1.893-6.697 0.291-16.598 0.874-22.713 2.184s-13.25 0.146-20.967 0c-7.716-0.146-13.686-0.582-20.529-0.874-6.843-0.291-16.889 1.456-19.947 0.146s-7.28-2.766-9.318-6.406c0 0 0-2.912 2.766-5.97 2.766-3.057 8.59-6.552 10.92-7.862 2.329-1.311 5.242-1.747 8.153-3.349 2.912-1.602 1.457-2.038 6.116-2.038s8.008 0.873 8.008 0.873 1.164-2.621 4.222-3.349 3.494-0.728 5.387-0.291 2.184 0.437 4.368 2.33 3.349 4.222 3.64 5.969c0.291 1.748 1.747 2.621 1.747 2.621s1.602 1.602 3.64-1.602c2.039-3.203 5.242-5.969 6.989-6.988s0.728-2.767 4.805-2.912c4.077-0.146 4.659 0.437 6.552 1.893s2.912 2.62 2.912 2.62 6.988-1.747 9.027-1.164c2.038 0.582 7.571 3.057 7.571 3.057s1.165 1.602 4.805 3.494c3.64 1.893 5.096 1.165 8.153 3.495 3.058 2.33 4.66 5.096 4.66 5.096s2.62 2.038 4.076 1.601c1.456-0.436 5.096-1.019 5.533-1.019s-0.291 4.659-1.165 6.843" fill="#79230f"/></g><g id="g308" transform="translate(164.04 45.009)"><path id="path310" d="m0 0c-1.716 0.156-2.653 0.468-3.511 1.092s-2.341 1.717-3.043 3.043-0.312 3.121-0.312 3.121c7.646 1.248 9.831-7.1 9.831-7.1s-1.248-0.312-2.965-0.156m-9.067 16.286s-8.445-7.571-4.951-13.104c3.495-5.533 8.445-11.066 20.675-9.319l3.495 6.698s-6.698 14.851-19.219 15.725" fill="#a63417"/></g><g id="g312" transform="translate(339.85 46.796)"><path id="path314" d="m0 0s2.185 8.348 9.831 7.1c0 0 0.39-1.795-0.312-3.121-0.703-1.326-2.185-2.419-3.043-3.043-0.859-0.624-1.795-0.936-3.511-1.092-1.717-0.156-2.965 0.156-2.965 0.156m-7.187 0.405 3.495-6.698c12.23-1.747 17.18 3.786 20.674 9.319 3.495 5.532-4.95 13.104-4.95 13.104-12.521-0.874-19.219-15.725-19.219-15.725" fill="#a63417"/></g><g id="g316" transform="translate(283.89 195.42)"><path id="path318" d="m0 0s11.91 9.92 14.226 18.974-0.118 17.875-1.803 21.244c-1.684 3.369 4.923-0.24 8.165-8.417 3.083-7.775 4.31-23.397 0.89-31.59-4.782-11.453-23.794-11.792-21.478-0.211" fill="#dfded1"/></g><g id="g320" transform="translate(253 25.361)"><path id="path322" d="m0 0s-4.077 2.33-6.406 4.95c-2.33 2.621-5.533 1.748-7.28 1.165-1.747-0.582-2.912-2.912-6.989-6.406-4.077-3.495-5.242-2.039-7.571-2.33-2.33-0.291-8.736 0.291-10.775 1.165-2.038 0.874-2.329 3.786-4.95 6.115-2.621 2.33-7.571 0-8.736 0s-3.203-2.621-7.571-3.785c-4.368-1.165-6.406-0.874-11.357-0.874-4.95 0-3.785 3.494-6.406 5.824s-3.494 6.698-4.368 9.027c-0.874 2.33-1.165 5.533-3.786 9.318-2.62 3.786-8.736 4.66-11.356 6.116-2.621 1.456-3.495 3.785-2.912 6.988 0.582 3.204 0.873 4.368-1.456 8.154-2.33 3.785-2.621 8.736-3.786 13.977-1.165 5.242-3.494 6.989-4.95 10.192-1.456 3.204-0.291 10.775-0.291 15.434s1.747 11.939 2.62 14.851c0.874 2.912 3.495 6.989 3.495 11.648s-0.874 2.912 1.747 10.192 5.241 9.318 8.445 13.977c3.203 4.66 3.785 3.495 6.115 6.407 2.329 2.912 5.241 8.736 6.115 11.065 0.874 2.33 4.659 2.621 9.901 4.077 5.241 1.456 5.241 1.747 9.609 4.659s7.28 5.242 11.357 10.192 7.28 2.621 13.686 3.494c6.407 0.874 13.104-1.164 16.599 0.292 3.494 1.456 13.103 7.571 21.257 7.571s17.763-6.115 21.257-7.571c3.495-1.456 10.192 0.582 16.599-0.292 6.406-0.873 9.609 1.456 13.686-3.494s6.989-7.28 11.357-10.192 4.368-3.203 9.609-4.659c5.242-1.456 9.027-1.747 9.901-4.077 0.874-2.329 3.786-8.153 6.115-11.065 2.33-2.912 2.912-1.747 6.115-6.407 3.203-4.659 5.824-6.697 8.445-13.977s1.747-5.533 1.747-10.192 2.621-8.736 3.495-11.648c0.873-2.912 2.62-10.192 2.62-14.851s1.165-12.23-0.291-15.434c-1.456-3.203-3.785-4.95-4.95-10.192-1.165-5.241-1.456-10.192-3.786-13.977-2.329-3.786-2.038-4.95-1.456-8.154 0.583-3.203-0.291-5.532-2.912-6.988-2.62-1.456-8.736-2.33-11.356-6.116-2.621-3.785-2.912-6.988-3.786-9.318-0.874-2.329-1.747-6.697-4.368-9.027s-1.456-5.824-6.406-5.824c-4.951 0-6.989-0.291-11.357 0.874-4.368 1.164-6.406 3.785-7.571 3.785s-6.115 2.33-8.736 0c-2.621-2.329-2.912-5.241-4.95-6.115-2.039-0.874-8.445-1.456-10.775-1.165-2.329 0.291-3.494-1.165-7.571 2.33-4.077 3.494-5.242 5.824-6.989 6.406-1.747 0.583-4.95 1.456-7.28-1.165-2.329-2.62-6.406-4.95-6.406-4.95" fill="#a63417"/></g><g id="g324" transform="translate(345.68 108.79)"><path id="path326" d="m0 0c-3.262 7.611-6.759 13.847-6.759 16.837 0 2.991 1.903 2.447 0 2.991-1.903 0.543-4.7 1.301-6.291-0.709-1.57-1.982-7.668-3.865-12.008-8.348l11.309 3.062s2.64-2.976 3.194-6.238 0.262-9.786-1.369-11.688c-1.631-1.903-2.99-3.806-2.99-3.806s-2.99-9.514-5.437-10.873c-2.446-1.359-2.31-2.175-3.534-2.99-1.223-0.816-3.261 0-4.621-0.544-1.359-0.544-1.087-4.077-2.446-5.708s-4.621-0.544-5.708-1.903c-1.088-1.359-6.253-5.709-8.699-5.98-2.446-0.272-3.534-2.447-6.252-5.981-2.718-3.533-3.262-4.893-5.708-7.339-2.447-2.446-4.078-2.718-8.971-3.262s-5.436-3.534-6.524-4.621c-1.087-1.087-3.262-2.446-5.708-2.446-2.447 0-3.806-1.088-8.155-1.903-4.349-0.816-4.893-0.544-5.98-0.544s-2.718 0-6.524 1.359-1.903 0.272-7.37 1.961c-5.468 1.688-2.688 0.214-4.319-0.873-1.631-1.088-1.903-1.088-7.067-0.816-5.165 0.272-5.437 3.534-7.611 6.252-2.175 2.718-2.175 2.718-4.35 5.437-2.174 2.718-1.902 2.174-5.436 4.621-3.534 2.446-2.447 3.262-9.514 7.611-7.068 4.349-3.262 1.087-6.524 2.718s-3.806 3.262-6.524 5.981c-2.718 2.718-2.569 1.913-5.165 2.99-2.596 1.076 2.719 1.087-1.631 4.349-4.349 3.262-3.805 8.698-5.708 8.97s-3.262-0.543-4.349 3.262c-1.088 3.806-1.088 2.719-0.816 4.349 0.272 1.631-1.727 1.409-1.087 3.262 3.271 9.481 1.698 5.269 3.364 6.524 2.875 2.167 6.693 5.165 6.693 5.165 0.08 0.062 0.171 0.117 0.27 0.168-0.897 0.321-1.787 0.624-2.716 0.919-5.98 1.903-5.165 3.262-8.427 0.272 0 0-1.087-5.708-1.631-10.058-0.543-4.349-5.751-9.948-5.479-13.482s-1.938-8.427 0.236-12.233c2.175-3.805 1.784 0.632 4.502-2.358 0.681-0.749 2.637 1.66 3.215-1.929 0.315-1.954 1.655-7.227 1.929-8.146 1.235-4.121 2.241-1.811 4.073-3.644 2.99-2.99 1.125-0.47 4.931-1.286 3.805-0.815 1.882-3.723 5.144-9.432 1.059-1.852 6.792-0.903 8.146-4.287 0.822-2.055 1.705-1.578 2.572-3.43 1.004-2.144 5.439-6.043 6.431-7.073 1.086-1.129 3.524-4.128 4.502-2.787 1.732 2.376 4.93-1.715 6.43-1.715 1.727 0 3.527 3.02 4.716 2.358 1.023-0.569 1.686-2.623 2.572-3.001 3.214-1.371 5.548-3.84 9.432-2.144 3.497 1.527 2.45 4.886 7.886 3.255 2.201-0.661 3.142-2.118 5.079-2.525 1.558-0.326 3.356-0.274 4.984-0.067 1.348 0.171 2.578 0.449 3.457 0.705 3.262 0.952 4.018 1.569 5.057 1.05 1.681-0.841 2.864-1.618 3.976-1.56 1.023 0.053 3.336 0.105 4.502 0.429 1.22 0.338 1.867 2.397 3.001 2.786 1.32 0.454 1.949-1.438 2.787-1.286 2.036 0.37 2.794-2.107 4.715-3.215 0.9-0.519 3.544-1.893 4.931-1.287 1.307 0.572 3.68 1.426 4.716 1.715 1.035 0.29 0.375 1.525 1.927 2.1 0.508 0.189 0.795 1.086 1.432 1.303 1.945 0.66 7.171 1.3 9.246 2.474 1.986 1.124 5.637 0.936 6.12 2.995 0.371 1.584 5.33 3.8 5.86 5.339 0.812 2.36-0.717 5.48 1.566 7.654 0.946 0.901 3.909 0.9 4.502 1.5 1.919 1.946-0.36 4.427 0.445 5.874 0.448 0.804 1.028 1.843 2.082 3.463 0.725 1.116 3.897-4.144 4.818-2.865 0.809 1.124 3.558-0.629 4.427 0.521 0.623 0.825 9.931 3.631 10.548 4.428 2.312 2.985-1.186 9.358 0 10.808 1.025 1.253 4.549 0.126 5.6 2.214 0.282 0.562 1.924 3.193 2.213 3.776 1.201 2.421-1.4 5.907 0 7.944 2.99 4.349 3.132 5.02-0.13 12.631" fill="#79230f"/></g><g id="g328" transform="translate(179.36 119.92)"><path id="path330" d="m0 0s-3.819-2.998-6.694-5.165c-1.665-1.255-0.092 2.957-3.364-6.524-0.639-1.853 1.359-1.631 1.088-3.262-0.272-1.631-0.272-0.543 0.815-4.349s2.447-2.99 4.349-3.262c1.903-0.272 1.359-5.708 5.709-8.97 4.349-3.262-0.965-3.273 1.631-4.35 2.596-1.076 2.446-0.271 5.164-2.99 2.719-2.718 3.262-4.349 6.524-5.98s-0.543 1.631 6.524-2.718c7.068-4.349 5.98-5.165 9.514-7.611 3.534-2.447 3.262-1.903 5.437-4.621 2.174-2.719 2.174-2.719 4.349-5.437s2.447-5.98 7.611-6.252c5.165-0.272 5.437-0.272 7.068 0.816 1.631 1.087-1.149 2.561 4.318 0.873 5.468-1.689 3.565-0.602 7.37-1.961 3.806-1.359 5.437-1.359 6.524-1.359 1.088 0 1.631-0.272 5.981 0.544 4.349 0.815 5.708 1.903 8.154 1.903 2.447 0 4.622 1.359 5.709 2.446s1.631 4.077 6.524 4.621 6.524 0.816 8.97 3.262c2.447 2.446 2.99 3.806 5.709 7.339 2.718 3.534 3.805 5.709 6.252 5.981 2.446 0.271 7.611 4.621 8.698 5.98s4.349 0.272 5.709 1.903c1.359 1.631 1.087 5.164 2.446 5.708s3.398-0.272 4.621 0.544c1.223 0.815 1.087 1.631 3.534 2.99 2.446 1.359 5.436 10.873 5.436 10.873s1.36 1.903 2.991 3.805c1.63 1.903 1.922 8.427 1.369 11.689-0.554 3.262-3.194 6.238-3.194 6.238l-18.019-4.879s-52.735-20.115-60.618-19.571c-7.883 0.543-59.802 20.115-59.802 20.115s-11.961 3.534-14.407 1.631" fill="#313966"/></g><g id="g332" transform="translate(253.56 98.171)"><path id="path334" d="m0 0c-4.456 0.307-22.979 6.693-38.245 12.189-10.295-7.293-16.707-17.563-16.707-28.942 0-2.833 0.399-5.597 1.155-8.263 0.397-0.236 0.836-0.501 1.334-0.808 7.068-4.349 5.98-5.164 9.514-7.611 3.534-2.446 3.262-1.903 5.437-4.621 2.174-2.718 2.174-2.718 4.349-5.437 2.175-2.718 2.446-5.98 7.611-6.252 5.165-0.271 5.437-0.271 7.068 0.816s-1.149 2.562 4.318 0.873 3.565-0.601 7.37-1.96c3.806-1.36 5.437-1.36 6.524-1.36s1.631-0.271 5.98 0.544c4.35 0.816 5.709 1.903 8.155 1.903 2.447 0 4.621 1.359 5.709 2.446 1.087 1.088 1.631 4.078 6.524 4.621 4.892 0.544 6.523 0.816 8.97 3.262 2.446 2.447 2.99 3.806 5.708 7.34 2.719 3.534 3.806 5.708 6.252 5.98 1.463 0.162 3.893 1.782 5.846 3.348 0.296 1.696 0.449 3.424 0.449 5.179 0 10.888-5.872 20.759-15.399 27.98-15.33-5.458-33.544-11.529-37.922-11.227" fill="#2d5280"/></g><g id="g336" transform="translate(263.36 100.13)"><path id="path338" d="m0 0c-4.609-1.296-8.163-2.069-9.794-1.957-1.641 0.114-5.194 1.053-9.786 2.467-11.922-4.044-20.55-15.813-20.55-29.709 0-8.914 3.554-16.948 9.246-22.636 1.191 0.066 1.68 0.333 2.605 0.949 1.631 1.088-1.149 2.562 4.319 0.873 5.467-1.688 3.564-0.601 7.37-1.96s5.437-1.359 6.524-1.359 1.631-0.272 5.98 0.544c4.349 0.815 5.708 1.902 8.155 1.902 2.446 0 4.621 1.359 5.708 2.447 1.038 1.037 1.59 3.803 5.89 4.526 2.23 4.384 3.498 9.392 3.498 14.714 0 13.352-7.966 24.74-19.165 29.199" fill="#076e99"/></g><g id="g340" transform="translate(289.51 95.568)"><path id="path342" d="m0 0 0.291-6.261 3.203 0.437 1.456-0.437 2.621 1.019 2.184 2.33s0.874 6.406-0.291 9.755-3.494 5.97-3.494 5.97l-8.882-0.728 2.912-12.085z" fill="#dfded1"/></g><g id="g344" transform="translate(300.49 89.086)"><path id="path346" d="m0 0 2.33-0.291 1.601 1.747 1.31 0.291 2.33 3.349s2.33 5.241 1.747 8.736c-0.582 3.494-4.659 8.881-4.659 8.881l-6.115-3.494-0.291-5.969 1.747-13.25z" fill="#dfded1"/></g><g id="g348" transform="translate(309.67 92.842)"><path id="path350" d="m0 0 1.019 1.893 1.456-1.311h1.456l1.165-2.038 2.33-2.038 2.184 1.164 0.728-0.436s2.184 3.931 3.057 8.59c0.874 4.659-0.291 10.046-1.456 12.376s-5.533 2.475-5.533 2.475l-6.988-4.95 0.582-15.725z" fill="#dfded1"/></g><g id="g352" transform="translate(323.61 97.578)"><path id="path354" d="m0 0 2.766 5.678 0.874 3.932s-0.874 5.824-1.165 7.28-2.184 2.766-2.184 2.766l-2.329-2.912-1.311-4.514 3.349-12.23z" fill="#dfded1"/></g><g id="g356" transform="translate(327.4 106.46)"><path id="path358" d="m0 0 1.747-1.165 1.747 0.874 1.456-0.146s2.621 6.115 1.748 10.192c-0.874 4.077-1.893 6.406-1.893 6.406l-2.039 1.02-4.804-0.292-3.786-3.639 5.824-13.25z" fill="#dfded1"/></g><g id="g360" transform="translate(332.61 113.45)"><path id="path362" d="m0 0 1.019 1.019 1.602-0.582s0 8.153-1.165 10.192c-1.165 2.038-4.659 2.184-4.659 2.184l-1.165-1.602 1.31-7.425 3.058-3.786z" fill="#dfded1"/></g><g id="g364" transform="translate(338.53 86.27)"><path id="path366" d="m0 0s-1.165 7.134-1.456 7.717c-0.291 0.582-0.291 1.747-0.291 1.747l1.31-1.31 1.456 2.183 1.602-0.582 1.31 0.291 1.311-1.892s1.164-2.476 1.164-4.66-0.582-3.64-1.456-3.931c-0.873-0.291-3.931-0.582-4.95 0.437" fill="#dfded1"/></g><g id="g368" transform="translate(336.71 77.32)"><path id="path370" d="m0 0c-0.835 2.589-2.912 4.659-2.912 4.659l-1.747-1.747h-2.766l-0.874-2.33 0.437-2.475s1.019-2.329 0.728-4.077c0 0-0.138-0.945 1.601-0.727 2.33 0.291 6.989 2.183 5.533 6.697" fill="#dfded1"/></g><g id="g372" transform="translate(328.84 71.059)"><path id="path374" d="m0 0s-2.038-2.766-2.766-2.912-6.407-0.582-7.863 4.222l-0.291 2.621 1.31 2.912s1.311 0.291 2.039 1.747 1.601 2.767 1.601 2.767l2.767-1.165 2.038-0.437s1.165-0.437 2.039-3.64c0.873-3.203-0.292-4.659-0.874-6.115" fill="#dfded1"/></g><g id="g376" transform="translate(270.11 43.784)"><path id="path378" d="m0 0s0.291-1.602 3.349-4.222c3.057-2.621 4.513-2.912 7.571-1.456s5.824 2.62 6.406 5.678c0.583 3.058 0.292 14.414-0.873 18.054l-1.165 2.767-1.165-2.184-1.456-0.583-2.845-0.999s-0.795-4.388-2.105-4.242c-1.311 0.145-2.425-2.282-2.425-2.282s-2.089-7.91-5.292-10.531" fill="#dfded1"/></g><g id="g380" transform="translate(268.43 88.942)"><path id="path382" d="m0 0s0.874-3.203 1.019-4.077c0.146-0.873 4.01-7.508 4.485-9.525 0.475-2.018 2.374 1.305 2.374 1.305s7.264 7.929 6.827 16.665l-1.747 8.008-12.667-1.747-0.291-10.629z" fill="#dfded1"/></g><g id="g384" transform="translate(290.73 41.907)"><path id="path386" d="m0 0c0.728 0 1.31-1.165 3.058 0.291 1.747 1.456-0.437 1.456 3.494 1.747 3.931 0.292 3.931 1.456 5.387 2.476 1.456 1.019 2.039 1.31 3.058 2.038s2.475 2.621 2.475 2.621-0.291 3.64-0.291 4.222-1.456-1.31-1.456-1.31-1.602-0.146-1.747-0.583c-0.146-0.436-0.437-2.038-0.437-2.038l-1.165-1.31-2.766 0.873-0.874-1.165-0.437-1.019-2.766-1.601-2.039-0.728-0.873 3.203-3.058-0.728s0.583-3.495 0.583-4.368c0-0.874-0.146-2.621-0.146-2.621" fill="#dfded1"/></g><g id="g388" transform="translate(255.26 41.38)"><path id="path390" d="m0 0s2.33-2.038 3.786-2.33c1.455-0.291 3.348 0.146 4.513 0.292 1.165 0.145 2.621 1.456 2.621 1.456s1.165 5.678 0.728 9.464c0 0-0.495 2.633-1.116 3.697-0.62 1.064-1.018 0.234-1.018 0.234s-0.223-0.234-0.755-1.298-3.635-7.537-8.759-11.515" fill="#dfded1"/></g><g id="g392" transform="translate(218.63 94.773)"><path id="path394" d="m0 0-0.291-6.261-3.203 0.437-1.456-0.437-2.621 1.019-2.184 2.33s-0.874 6.406 0.291 9.755 3.494 5.97 3.494 5.97l8.882-0.728-2.912-12.085z" fill="#dfded1"/></g><g id="g396" transform="translate(208.03 89.2)"><path id="path398" d="m0 0-2.33-0.291-1.601 1.747-1.31 0.291-2.33 3.349s-2.33 5.241-1.747 8.736c0.582 3.494 4.659 8.881 4.659 8.881l6.115-3.494 0.291-5.969-1.747-13.25z" fill="#dfded1"/></g><g id="g400" transform="translate(200.9 93.239)"><path id="path402" d="m0 0-1.019 1.893-1.456-1.311h-1.456l-1.165-2.038-2.33-2.038-2.184 1.164-0.727-0.436s-2.184 3.931-3.058 8.59 0.291 10.046 1.456 12.376c1.165 2.329 5.533 2.475 5.533 2.475l6.988-4.95-0.582-15.725z" fill="#dfded1"/></g><g id="g404" transform="translate(185.29 97.578)"><path id="path406" d="m0 0-2.766 5.678-0.874 3.932s0.874 5.824 1.165 7.28 2.184 2.766 2.184 2.766l2.329-2.912 1.311-4.514-3.349-12.23z" fill="#dfded1"/></g><g id="g408" transform="translate(181.51 106.46)"><path id="path410" d="m0 0-1.747-1.165-1.747 0.874-1.456-0.146s-2.621 6.115-1.747 10.192c0.873 4.077 1.892 6.406 1.892 6.406l2.039 1.02 4.804-0.292 3.786-3.639-5.824-13.25z" fill="#dfded1"/></g><g id="g412" transform="translate(174.66 113.45)"><path id="path414" d="m0 0-1.019 1.019-1.602-0.582s0 8.153 1.165 10.192c1.165 2.038 4.659 2.184 4.659 2.184l1.165-1.602-1.31-7.425-3.058-3.786z" fill="#dfded1"/></g><g id="g416" transform="translate(168.2 86.27)"><path id="path418" d="m0 0s1.165 7.134 1.456 7.717c0.291 0.582 0.291 1.747 0.291 1.747l-1.31-1.31-1.456 2.183-1.602-0.582-1.31 0.291-1.31-1.892s-1.165-2.476-1.165-4.66 0.582-3.64 1.456-3.931c0.873-0.291 3.931-0.582 4.95 0.437" fill="#dfded1"/></g><g id="g420" transform="translate(171.65 77.863)"><path id="path422" d="m0 0c0.835 2.589 2.912 4.659 2.912 4.659l1.747-1.747h2.766l0.874-2.33-0.437-2.475s-1.019-2.329-0.728-4.077c0 0 0.138-0.945-1.601-0.727-2.33 0.291-6.989 2.183-5.533 6.697" fill="#dfded1"/></g><g id="g424" transform="translate(179.52 71.603)"><path id="path426" d="m0 0s2.038-2.766 2.766-2.912 6.407-0.582 7.863 4.222l0.291 2.621-1.31 2.912s-1.311 0.291-2.039 1.747-1.601 2.767-1.601 2.767l-2.767-1.165-2.038-0.437s-1.165-0.437-2.039-3.64c-0.873-3.203 0.292-4.659 0.874-6.115" fill="#dfded1"/></g><g id="g428" transform="translate(235.91 45.431)"><path id="path430" d="m0 0s-0.291-1.602-3.349-4.222c-3.057-2.621-4.513-2.912-7.571-1.456-3.057 1.456-5.824 2.62-6.406 5.678-0.583 3.058-0.291 14.414 0.873 18.054l1.165 2.767 1.165-2.184 1.456-0.583 2.33-3.057s1.31-2.33 2.62-2.184c1.311 0.145 2.912-0.437 2.912-0.437s1.602-9.755 4.805-12.376" fill="#dfded1"/></g><g id="g432" transform="translate(238.3 88.398)"><path id="path434" d="m0 0s-2.814-3.684-3.645-9.38c-0.83-5.696-2.136-4.035-2.136-4.035s-9.361 9.047-8.924 17.783l1.747 8.008 12.667-1.747 0.291-10.629z" fill="#dfded1"/></g><g id="g436" transform="translate(215.73 41.495)"><path id="path438" d="m0 0c-0.728 0-1.31-1.165-3.058 0.291-1.747 1.456 0.437 1.456-3.494 1.747-3.931 0.292-3.931 1.456-5.387 2.476-1.456 1.019-2.038 1.31-3.058 2.038-1.019 0.728-2.475 2.621-2.475 2.621s0.291 3.64 0.291 4.222 1.456-1.31 1.456-1.31 1.602-0.146 1.748-0.583c0.145-0.436 0.436-2.038 0.436-2.038l1.165-1.31 2.766 0.873 0.874-1.165 0.437-1.019 2.766-1.601 2.039-0.728 0.464 1.602 2.174-0.906s0.71-1.716 0.71-2.589c0-0.874 0.146-2.621 0.146-2.621" fill="#dfded1"/></g><g id="g440" transform="translate(252.82 93.649)"><path id="path442" d="m0 0-4.222-0.146-5.97-1.747-2.184-2.766-0.146-2.767s0.437-4.368 0.292-4.804c-0.146-0.437 1.31-1.602 1.31-1.602l1.602-1.31h3.203l0.582-1.602 1.602 0.874 2.184-0.874 1.747-1.456 1.747 1.456 2.184 0.874 1.602-0.874 0.582 1.602h3.203l1.602 1.31s1.456 1.165 1.31 1.602c-0.145 0.436 0.291 4.804 0.291 4.804l-0.145 2.767-2.184 2.766-5.97 1.747-4.222 0.146z" fill="#dfded1"/></g><g id="g444" transform="translate(251.05 41.233)"><path id="path446" d="m0 0s-2.33-2.038-3.786-2.33c-1.456-0.291-3.348 0.146-4.513 0.292-1.165 0.145-2.621 1.456-2.621 1.456s-1.165 5.678-0.728 9.463l0.582 2.185 1.162 2.723 1.152-1.33 1.064 0.621s0.798-6.296 7.688-13.08" fill="#dfded1"/></g><g id="g448" transform="translate(334.98 122.91)"><path id="path450" d="m0 0c0.408 0.408-1.859 2.315-1.859 2.315 2.184 0.619 0.437 1.859-0.219 2.685-0.655 0.826-1.965 5.37-2.62 7.022-0.656 1.653-2.403 2.066-4.805 3.305-2.403 1.24-5.242 3.098-8.299 5.37-3.058 2.273-3.932 4.131-4.805 7.849-0.874 3.718-2.839 4.544-3.931 5.784-1.092 1.239-5.46 0.206-8.299 0.413-2.84 0.206-4.368-0.826-7.208-2.479-2.839-1.652-8.299-2.272-10.046-3.924-1.747-1.653-4.15-5.577-4.586-3.718-0.437 1.859-1.019 2.065-1.019 2.065s0.449-2.275-1.589-3.195c-0.563-0.254-1.556-0.224-2.282-0.57-0.699-0.334-1.426-1.093-2.281-1.521-0.941-0.471 0.527-3.335-0.57-3.612-1.097-0.276-5.886 4.015-7.021 3.883-3.696-0.429-7.282-0.217-8.726-0.217-0.974 0-1.559 0.461-1.884 0.584-0.325-0.123-0.909-0.584-1.884-0.584-1.707 0-5.611-1.251-9.95-0.434-1.055 0.199-7.431-5.228-8.395-4.877-0.482 0.175-1.91 2.299-2.352 2.52-1.322 0.662 0.282 3.926-0.672 4.367-0.451 0.21 0.539 2.859 0.168 3.024-1.779 0.793-1.267 0.632-1.267 0.632s-0.583-0.206-1.019-2.065c-0.437-1.859-2.84 2.065-4.587 3.718-1.747 1.652-7.207 2.272-10.046 3.924-2.839 1.653-4.368 2.685-7.207 2.479-2.839-0.207-7.207 0.826-8.299-0.413-1.092-1.24-3.058-2.066-3.932-5.784-0.873-3.718-1.747-5.576-4.804-7.849-3.058-2.272-5.897-4.13-8.299-5.37-2.403-1.239-4.15-1.652-4.805-3.305-0.655-1.652-1.966-6.196-2.621-7.022s-1.904-1.164-0.218-2.685c0.908-0.82-1.417-2.451-1.274-4.625 0.069-1.046 0.133-4.214 0.133-4.214l1.063-1.631s0.532 5.029 1.197 6.252c0.665 1.224 1.595-1.087 1.595-1.087 0.133 0.68 2.128 0.544 2.659 0.408 0.532-0.136 0.931-5.301 0.931-5.301s2.127-0.544 2.526 0.136 4.122 0.408 4.388-3.534c0 0 1.329-0.272 1.329 0.544 0 0.815 0.758-2.678 1.994-3.942 0.399-0.407 2.394 1.088 2.792-0.951 0.399-2.039 0.798-3.262 0.798-3.262l1.861 0.951s1.064-0.272 1.862-0.951c0.797-0.68 2.925-0.816 2.925-0.816s5.85 3.67 6.913-2.038c1.064-5.709 1.463-4.757 1.463-4.757s-0.266 3.398 1.329 3.941c1.596 0.544 4.521-0.272 4.92-1.087 0.398-0.816 1.462-1.087 2.127-3.262 0.664-2.175 1.595-2.718 1.595-2.718s1.197 0.543 3.59 0.407c2.393-0.135 4.254-0.815 4.254-0.815l2.128 0.544s3.323 9.921 10.769-3.806c0 0 1.595 0 1.994-0.136s2.393 0.68 2.393 0.68 2.925 4.213 6.515 0.271c0 0 0.93-0.679 1.994-0.815s1.994-0.544 1.994-0.544 0.931 0.408 1.995 0.544c1.063 0.136 1.994 0.815 1.994 0.815 3.59 3.942 6.515-0.271 6.515-0.271s1.994-0.816 2.393-0.68 1.994 0.136 1.994 0.136c7.445 13.727 10.769 3.806 10.769 3.806l2.127-0.544s1.862 0.68 4.255 0.815c2.393 0.136 3.59-0.407 3.59-0.407s0.93 0.543 1.595 2.718 1.728 2.446 2.127 3.262c0.399 0.815 3.324 1.631 4.919 1.087 1.596-0.543 1.33-3.941 1.33-3.941s0.399-0.952 1.462 4.757c1.064 5.708 6.914 2.038 6.914 2.038s2.127 0.136 2.925 0.816c0.798 0.679 1.861 0.951 1.861 0.951l1.862-0.951s0.398 1.223 0.797 3.262 2.393 0.544 2.792 0.951c1.237 1.264 1.995 4.757 1.995 3.942 0-0.816 1.329-0.544 1.329-0.544 0.266 3.942 3.989 4.214 4.388 3.534 0.398-0.68 2.526-0.136 2.526-0.136s0.398 5.165 0.93 5.301 2.526 0.272 2.659-0.408c0 0 0.931 2.311 1.596 1.087 0.664-1.223 1.196-6.252 1.196-6.252l1.064 1.631s0.931 3.534 0.133 4.214" fill="#946e59"/></g><g id="g452" transform="translate(346.32 231.97)"><path id="path454" d="m0 0c-1.457-14.083-11.885-42.925-36.991-60.499-12.311-8.618-25.546 9.541-15.697 16.62s39.089 17.852 49.554 45.245c2.988 8.389 3.571 2.856 3.134-1.366" fill="#dfded1"/></g><g id="g456" transform="translate(336.71 178.71)"><path id="path458" d="m0 0c3.117 1.461 24.162 10.587 26.711 11.514 2.55 0.927-1.854-5.563-13.905-15.992-12.052-10.429-18.734-16.163-23.871-10.197-4.551 5.284 4.076 11.399 11.065 14.675" fill="#dfded1"/></g><g id="g460" transform="translate(159.17 231.97)"><path id="path462" d="m0 0c1.457-14.083 11.885-42.925 36.991-60.499 12.311-8.618 25.546 9.541 15.697 16.62s-39.089 17.852-49.554 45.245c-2.988 8.389-3.571 2.856-3.134-1.366" fill="#dfded1"/></g><g id="g464" transform="translate(168.78 178.71)"><path id="path466" d="m0 0c-3.117 1.461-24.162 10.587-26.711 11.514-2.55 0.927 1.854-5.563 13.905-15.992 12.052-10.429 18.734-16.163 23.871-10.197 4.55 5.284-4.076 11.399-11.065 14.675" fill="#dfded1"/></g><g id="g468" transform="translate(252.41 121.89)"><path id="path470" d="m0 0c-2.293 0-9.17 0.723-11.463 1.807-2.293 1.083-4.585 5.291-5.799 6.917-1.214 1.625-3.776 1.934-3.776 1.934 5.664 10.658 12.946 10.116 21.038 10.116 8.091 0 15.374 0.542 21.038-10.116 0 0-2.562-0.309-3.776-1.934-1.214-1.626-3.506-5.834-5.799-6.917-2.293-1.084-9.17-1.807-11.463-1.807" fill="#68b230"/></g><g id="g472" transform="translate(254.63 142.67)"><path id="path474" d="m0 0c-0.732 0-1.473-5e-3 -2.22-5e-3s-1.486 5e-3 -2.219 5e-3c-7.203 0-13.677-0.447-18.818-10.121 0 0 2.562-0.308 3.776-1.934 1.213-1.626 3.506-5.833 5.798-6.917 2.293-1.084 9.171-1.807 11.463-1.807 2.293 0 9.171 0.723 11.463 1.807 2.293 1.084 4.586 5.291 5.799 6.917 1.214 1.626 3.776 1.934 3.776 1.934-5.141 9.675-11.615 10.121-18.818 10.121m1.553-1.03c7.053 0 11.532-1.551 15.92-8.645-0.927-0.374-2.913-0.486-3.648-1.471-0.308-0.413-0.707-2.535-1.108-3.145-1.115-1.694-2.747-2.657-4.123-3.308-1.887-0.892-8.41-1.66-10.814-1.66s-9.138 0.152-11.025 1.044c-1.375 0.651-3.181 2.762-4.296 4.455-0.401 0.61-0.415 2.201-0.723 2.614-0.735 0.985-3.064 1.097-3.992 1.471 4.388 7.094 6.784 8.247 17.817 8.156l1.094-3e-3 1.239 0.333 1.432-0.08 0.954 0.398" fill="#4a7b32"/></g><g id="g476" transform="translate(334.57 17.716)"><path id="path478" d="m0 0s-1.048 16.624-1.947 21.716c-0.899 5.093-6.889 5.093-9.585 2.696-2.696-2.396-4.493-8.986-1.797-13.179 2.695-4.194 8.237-10.334 13.329-11.233" fill="#dfded1"/></g><g id="g480" transform="translate(175.28 16.622)"><path id="path482" d="m0 0s-0.06 1.235 0.096 3.471c0.026 0.367-1.571 3.357-1.542 3.76 0.381 5.322 1.04 11.191 1.624 14.503 0.899 5.092 6.89 5.092 9.585 2.696 2.696-2.397 4.493-8.986 1.798-13.18-2.696-4.193-6.469-10.351-11.561-11.25" fill="#dfded1"/></g><g id="g484" transform="translate(262.78 132.47)"><path id="path486" d="m0 0c0-3.945-4.559-7.143-10.182-7.143s-10.182 3.198-10.182 7.143 4.559 7.143 10.182 7.143 10.182-3.198 10.182-7.143" fill="#e0dc01"/></g><g id="g488" transform="translate(256.89 132.47)"><path id="path490" d="m0 0c0-3.337-1.921-6.042-4.29-6.042s-4.29 2.705-4.29 6.042 1.921 6.042 4.29 6.042 4.29-2.705 4.29-6.042" fill="#b3b111"/></g><g id="g492" transform="translate(251.26 137.23)"><path id="path494" d="m0 0c0-1.919-1.556-3.474-3.475-3.474-1.918 0-3.474 1.555-3.474 3.474s1.556 3.475 3.474 3.475c1.919 0 3.475-1.556 3.475-3.475" fill="#dfded1"/></g><g id="g496" transform="translate(261.73 94.575)"><path id="path498" d="m0 0c4.856 0.879-0.084 0.41 3.823 0.821s3.701 2.467 5.963 3.701c2.261 1.234 5.346 1.439 7.196 0.617 1.851-0.823 0.617-1.645 4.729-2.056 4.112-0.412 4.935 0.205 6.991 2.261 2.056 2.057 3.495 3.085 6.58 3.496 3.084 0.411 4.317 3.495 7.607 4.934 3.29 1.44 2.879 1.234 5.346 1.645 2.467 0.412 3.701 0.412 6.991 3.907s6.374 2.056 7.607 4.729c1.234 2.673 3.039 5.274 3.679 6.029 0.639 0.756 2.901 1.99 2.49 5.28s-3.907 5.346-7.813 7.196c-3.907 1.851-6.786 2.879-8.636 5.346-1.851 2.467-3.496 3.907-3.907 6.374s-2.613 1.533-3.642 2.15c-1.028 0.617-2.436 3.64-7.165 1.378s-8.417-3.036-10.473-3.858c-2.056-0.823-4.279-3.452-5.512-4.686-1.234-1.233-2.493-0.487-5.577-0.899-3.084-0.411-1.153-1.69-1.359-2.718s-2.321-3.189-1.087-3.805c1.233-0.617 0.61-3.388 0.815-4.621 0.206-1.234-2.91-1.14-4.349-2.991-1.439-1.85-0.511-2.979-1.951-5.035-1.439-2.056-6.374-4.317-7.813-4.523s-5.14 1.234-7.196-1.234c-2.056-2.467-0.451-2.466-0.246-6.167 0.206-3.7 2.714-6.497 2.714-8.142s0.987-8.636 0.987-8.636 0.466-0.989 3.208-0.493" fill="#bc8a72"/></g><g id="g500" transform="translate(243.47 95.809)"><path id="path502" d="m0 0c-2.994 6e-3 -3.209 0.41-6.499 1.849-3.289 1.439-5.551 1.851-7.607 1.645s-1.234-2.879-3.701-3.29c-2.468-0.411-5.963 0.823-7.197 1.851-1.233 1.028-2.056 3.701-6.374 4.317-4.317 0.617-2.261 2.057-3.495 3.907-1.234 1.851-2.262-0.206-6.374-0.617s-4.318 2.262-7.402 3.907-4.523 3.701-5.14 4.935c-0.617 1.233-3.907 2.261-6.785 3.289-2.879 1.028-2.468 2.879-3.907 5.346-1.439 2.468-4.524 0.823-4.524 0.823l-0.205 0.411 1.234 3.495c1.233 3.496 1.644 2.879 1.644 6.169 0 3.289 4.935 2.467 10.281 5.14s6.374 3.084 7.402 6.374 0.305 1.196 2.773 6.748c2.467 5.551 7.716-0.827 7.716-0.827s3.876-1.037 7.166-1.654c3.29-0.616 4.073 0.613 5.512-0.826 1.44-1.44 5.619-2.619 7.264-4.264 1.644-1.644 2.261-3.289 1.233-7.813-1.028-4.523-0.613-5.13 2.06-5.541s3.274-0.732 4.918-3.405c1.645-2.673 4.536-5.035 5.153-5.447 0.617-0.411 4.318-0.411 6.785-0.411 2.468 0 4.935-2.056 4.935-2.056s-0.822-5.346-0.617-8.43c0.206-3.084-2.301-7.894-2.301-8.716 0-0.823-2.221-3.331-2.221-5.182 0 0-0.25-1.73-1.727-1.727" fill="#bc8a72"/></g><g id="g504" transform="translate(194.82 145.36)"><path id="path506" d="m0 0s1.908-3.235 4.626-5.409c2.718-2.175 5.437-4.349 7.068-4.893s6.523-5.98 10.329-7.611 8.155-1.088 10.873-4.35c2.718-3.261 0-4.893 5.98-5.436 5.981-0.544 8.155 0 10.874-0.544 2.718-0.543 8.154 0 8.154 0s-0.845 0.242-1.422 1.539c-0.576 1.297 1.729 0.288-0.864 2.161s-1.585 0.865-6.195 1.873c-4.611 1.009-3.747 0.288-6.34 2.305-2.593 2.018-4.034 2.594-5.907 2.594s-2.017-0.144-5.331 1.008c-3.314 1.153-3.89 0.721-5.331 3.17-1.441 2.45 0.144 2.594-4.611 4.755-4.754 2.161-6.051 1.873-8.789 3.602-2.737 1.729-0.864 1.297-5.331 3.89-4.466 2.593-4.466 1.297-5.619 3.458-1.152 2.161-2.305 3.746-2.305 3.746s-2.017-2.161-2.017-3.314c0-1.152 2.158-2.544 2.158-2.544" fill="#946e59"/></g><g id="g508" transform="translate(253.61 117.79)"><path id="path510" d="m0 0c0.604-0.949 3.458 1.585 4.899 1.009 1.441-0.577 4.034-1.729 5.907-0.721 1.873 1.009 1.585 1.297 4.178 1.729 2.594 0.432 4.899 0.432 6.916 1.297 2.017 0.864 2.305 1.729 4.899 2.881 2.593 1.153 4.899 3.17 7.78 4.467 2.882 1.297 4.755 1.441 7.781 2.161 3.025 0.721 5.186 1.153 7.06 3.746 1.872 2.594 2.449 3.602 4.034 4.611 1.585 1.008 2.593 2.449 3.746 3.025 1.152 0.577 2.449 3.17 2.449 3.17s0 1.297-0.72 2.594c-0.721 1.296-1.153 2.449-1.153 2.449s-1.153-1.441-1.153-2.017 0.721-2.305-1.296-3.458-2.306-2.161-3.746-3.026c-1.441-0.864-2.018-0.576-3.17-2.161-1.153-1.585-3.314-1.297-4.467-2.882-1.152-1.584-0.432-2.449-3.458-3.313-3.025-0.865-4.322 0.288-5.907-1.153s-1.008-2.305-2.737-2.593c-1.729-0.289-3.458 1.729-6.196-0.145-2.737-1.873-3.314-2.017-5.331-3.602-2.017-1.584-3.458-1.873-5.043-2.305-1.584-0.432-4.466-0.864-4.466-0.864l-9.942-2.306s-1.873-1.008-0.864-2.593" fill="#946e59"/></g><g id="g512" transform="translate(251.34 104.78)"><path id="path514" d="m0 0s-1.041-2.291-1.041-3.54c0-1.25-0.833-3.957-0.417-4.998 0.417-1.041 2.132-2.271 2.941-2.593 0.808-0.323 1.224-0.531 1.849 0.927 0.625 1.457 1.874 3.957-0.208 5.623-2.083 1.665-1.25 4.789-1.874 6.455-0.625 1.666-1.25-1.874-1.25-1.874" fill="#bc8a72"/></g><g id="g516" transform="translate(311.17 60.375)"><path id="path518" d="m0 0s1.071-0.268 1.785-0.268 1.963-0.268 2.142 0.714c0.178 0.982 0.356 1.874 0.267 2.856-0.089 0.981-0.803 3.748-0.892 4.016-0.089 0.267-1.25 2.32-2.588 3.48l-0.446-1.785 0.892-1.785s-0.803-1.16-1.071-1.784c-0.267-0.625 0.446-3.749 0.446-3.749s-0.803-0.803-0.535-1.695" fill="#dfded1"/></g><g id="g520" transform="translate(190.21 58.473)"><path id="path522" d="m0 0c0.252-0.146-1.148-0.208-2.585 0.608-0.68 0.387-1.292 1.217-1.216 2.053s0.836 1.673 1.064 2.585 2.661 3.725 2.965 3.953 0.836 0.38 0.836 0.38 0.457-0.836 0.457-1.064-0.837-0.836-0.609-1.749c0.228-0.912-0.532-2.356-0.304-2.965 0.228-0.608 0.761-0.912 0.761-1.976 0-1.065-1.369-1.825-1.369-1.825" fill="#dfded1"/></g><g id="g524" transform="translate(243.34 169.95)"><path id="path526" d="m0 0c-0.692-0.15-1.402-0.389-1.879-0.912-0.747-0.818-0.702-2.13-0.199-3.118 0.503-0.987 1.371-1.73 2.206-2.458 2.165-1.889 4.269-3.887 5.893-6.257s2.753-5.153 2.776-8.025c-0.182 2.46 0.805 4.98 2.609 6.663 1.034 0.964 2.302 1.651 3.343 2.609 2.975 2.739 3.607 7.123 4.061 11.142 0.028 0.242 0.044 0.518-0.122 0.696-0.3 0.322-0.827 0.025-1.144-0.279-1.038-0.996-1.991-2.081-2.844-3.239-0.284-0.386-0.584-0.8-1.032-0.97-0.946-0.359-1.876 0.542-2.428 1.39-0.553 0.848-1.229 1.858-2.241 1.833-0.321-8e-3 -0.63-0.128-0.951-0.147-0.552-0.033-1.071 0.23-1.579 0.448-2.023 0.868-4.317 1.089-6.469 0.624" fill="#79230f"/></g><g id="g528" transform="translate(228.58 176.11)"><path id="path530" d="m0 0c0.341 0.239 0.741 0.381 1.144 0.489 1.269 0.338 2.611 0.357 3.866 0.745s2.489 1.294 2.69 2.592c0.169 1.092-0.425 2.142-0.996 3.088-1.222 2.024-2.444 4.047-3.666 6.071 0.418-1.715 0.837-3.429 1.255-5.143 0.166-0.681 0.317-1.455-0.074-2.036-0.728-1.079-2.431-0.462-3.418 0.385-0.988 0.847-2.223 1.91-3.412 1.38 0.9-5.749-2.478-11.637-7.417-14.714s-11.129-3.645-16.864-2.663c0.958-0.794 1.948-1.606 3.133-1.985 2.771-0.885 6.363 0.624 8.389-1.463 0.596 2.026 3.1 2.663 5.191 2.962 2.316 0.33 4.632 0.661 6.948 0.992 0.103 2.692 0.805 5.358 2.041 7.751 0.302 0.585 0.652 1.171 1.19 1.549" fill="#79230f"/></g><g id="g532" transform="translate(246.19 183.43)"><path id="path534" d="m0 0c1.998-2.707 3.126-6.054 5.528-8.411 0.366-0.358 0.871-0.714 1.35-0.533 0.329 0.125 0.519 0.462 0.681 0.775 1.752 3.381 3.505 6.763 5.258 10.144 1.154 2.225 2.34 4.611 2.095 7.105-0.914-0.836-1.362-2.052-2.036-3.093-1.307-2.016-3.566-3.385-5.958-3.61-2.392-0.224-4.867 0.699-6.526 2.437-0.438 0.029-0.827-0.451-0.708-0.872-1.778 1.511-3.425 3.176-4.917 4.97-0.038-1.762 0.801-3.434 1.854-4.847 1.053-1.414 2.332-2.647 3.379-4.065" fill="#79230f"/></g><g id="g536" transform="translate(237.49 197.52)"><path id="path538" d="m0 0c0.341-0.245 0.731-0.417 1.136-0.527 1.347-0.367 2.868-0.014 3.915 0.909 1.047 0.922 1.589 2.387 1.394 3.769-0.077-1.552-1.803-2.614-3.353-2.496-1.55 0.119-2.897 1.085-4.059 2.117-0.608-1.271-0.178-2.95 0.967-3.772" fill="#79230f"/></g><g id="g540" transform="translate(268.75 202.19)"><path id="path542" d="m0 0c-0.249-9e-3 -0.498-0.018-0.746-0.028-0.387-0.63-1.126-0.973-1.858-1.074-2.124-0.293-4.308 1.462-4.479 3.6-0.773-1.139-1.574-2.574-0.964-3.807 0.388-0.784 1.249-1.218 2.094-1.447 2.361-0.638 5.417 0.369 5.953 2.756" fill="#79230f"/></g><g id="g544" transform="translate(288.74 163.33)"><path id="path546" d="m0 0c3.253-0.785 6.544-1.575 9.891-1.578 5.588-5e-3 11.144 2.297 15.091 6.252-5.485-2.831-11.991-2.539-18.154-2.178-1.133 0.067-2.292 0.139-3.341 0.574-1.422 0.591-2.491 1.781-3.707 2.726-1.294 1.005-2.781 1.747-4.044 2.791-3.545 2.93-4.83 8.287-2.999 12.506-1.075-1.924-3.332-2.914-5.521-3.169-1.138-0.133-2.377-0.078-3.304 0.597-0.927 0.674-1.333 2.141-0.572 2.998-1.29-0.896-1.965-2.596-1.641-4.132 0.323-1.537 1.627-2.82 3.168-3.119 0.715-0.139 1.493-0.092 2.12-0.463 0.402-0.238 0.693-0.622 0.973-0.996 0.963-1.286 1.925-2.572 2.887-3.858 0.249-0.333 0.509-0.696 0.517-1.111 9e-3 -0.47-0.304-0.874-0.528-1.288-0.517-0.954-0.582-2.141-0.173-3.145 1.448 0.336 2.896 0.673 4.343 1.01-0.386-2.426 2.606-3.841 4.994-4.417" fill="#79230f"/></g><g id="g548" transform="translate(180.49 158.43)"><path id="path550" d="m0 0c0.485 0.252 0.786-0.528 1.065-0.998 0.361-0.607 1.118-0.829 1.803-1.001 1.098-0.274 2.195-0.549 3.293-0.823 1.429-0.358 3.076-0.678 4.269 0.187 0.884 0.641 1.266 1.893 0.892 2.919-0.821 2.251-4.299 2.476-5.26 4.671-0.354 0.807-0.284 1.729-0.209 2.607 0.144 1.672 0.289 3.344 0.433 5.015 2.684-3.781 5.867-7.208 9.44-10.164-1.114-0.134-2.099-1.014-2.358-2.107-0.219-0.925 0.043-1.939-0.311-2.821-0.418-1.042-1.658-1.996-1.16-3.002-3.076 0.411-6.212 0.377-9.279-0.101-0.716-0.111-1.489-0.239-2.133 0.093-1.239 0.636-1.22 2.48-2.212 3.459-1.316 1.298-4.133 0.859-4.65 2.634 1.42-0.367 2.841-0.734 4.261-1.101 0.609-0.157 1.357-0.278 1.782 0.186 0.109 0.119 0.191 0.273 0.334 0.347" fill="#79230f"/></g><g id="g552" transform="translate(153.04 139.32)"><path id="path554" d="m0 0c0.662 0.531 1.682 0.226 2.31-0.343 0.629-0.57 1.031-1.35 1.631-1.95 1.098-1.098 2.703-1.462 4.174-1.96s3.026-1.33 3.494-2.811c0.151-0.479 0.178-1.005 0.429-1.44 0.894-1.554 3.928-1.036 4.342-2.78 1.032 2.488 2.064 4.977 3.096 7.465 0.539 1.299 1.088 2.701 0.783 4.073-0.251 1.129-1.058 2.092-1.209 3.239-0.088 0.665 0.053 1.337 0.07 2.007 0.087 3.365-2.905 6.32-2.527 9.665-2.41-2.245-4.977-4.32-7.678-6.206 1.884 0.311 3.768 0.621 5.653 0.932 0.812 0.134 1.762 0.228 2.349-0.35 0.299-0.294 0.439-0.709 0.562-1.109 1.043-3.375 1.632-6.89 1.746-10.421 0.013-0.408 0-0.867-0.294-1.15-0.206-0.198-0.505-0.261-0.787-0.305-1.03-0.163-2.101-0.199-3.098 0.102-1.741 0.526-3.052 2.027-3.786 3.691-0.734 1.663-0.974 3.496-1.206 5.299 0.634-0.928 0.155-2.321-0.809-2.901-0.964-0.579-2.22-0.467-3.24 7e-3 -1.019 0.475-1.853 1.264-2.667 2.04-1.259 1.2-2.57 2.485-3.043 4.159-1.825-3.541-2.013-7.886-0.498-11.571 0.116 0.868 0.184 1.743 0.203 2.618" fill="#79230f"/></g><g id="g556" transform="translate(153.69 116.34)"><path id="path558" d="m0 0c1.006 1.08 1.767 2.387 2.211 3.795-0.793-1.302-1.881-2.423-3.158-3.255-1.313-0.856-2.864-1.447-3.817-2.691-0.393-0.512-0.66-1.108-1.006-1.652-0.984-1.545-2.637-2.646-4.442-2.957 0.183-1.325 0.786-2.592 0.764-3.93-0.01-0.58-0.137-1.15-0.264-1.715-0.43-1.911-0.859-3.822-1.289-5.732 1.123-0.739 2.635 0.033 3.575 0.993s1.765 2.179 3.061 2.534c0.653-0.698 1.333-1.414 2.213-1.786s2.022-0.305 2.649 0.416c0.379 0.437 0.516 1.036 0.858 1.503 0.451 0.615 1.196 0.925 1.852 1.315 2.345 1.394 3.698 3.953 4.934 6.384-0.722-1.367-2.169-2.233-3.668-2.61-1.5-0.377-3.069-0.327-4.614-0.276-1.412 0.048-2.99 0.169-3.928 1.225-1.157 1.302-0.722 3.416 0.322 4.81s2.56 2.354 3.747 3.629" fill="#79230f"/></g><g id="g560" transform="translate(312.3 158.29)"><path id="path562" d="m0 0c0.911 1.562 2.339 2.818 4.004 3.522-0.469-0.586-0.938-1.171-1.408-1.757-0.735-0.918-1.516-2.076-1.107-3.179 0.284-0.766 1.095-1.237 1.905-1.344 0.809-0.107 1.626 0.088 2.415 0.299 1.374 0.367 2.733 0.79 4.091 1.213 0.707 0.22 1.415 0.44 2.122 0.66 2.572 0.801 5.143 1.601 7.715 2.402-1.402-1.459-4.131-1.137-5.259-2.816-0.525-0.782-0.566-1.847-1.212-2.532-1.145-1.211-3.158-0.42-4.806-0.665-1.343-0.199-2.527-1.138-3.885-1.15-1.971-0.017-3.37 1.844-4.428 3.508-0.22 0.347-0.45 0.728-0.415 1.138 0.021 0.252 0.141 0.483 0.268 0.701" fill="#79230f"/></g><g id="g564" transform="translate(340.38 146.98)"><path id="path566" d="m0 0c-0.341 0.97-0.98 1.815-1.729 2.519-1.25 1.174-2.936 2.184-3.209 3.877-1.293-1.392-1.865-3.287-2.398-5.111-0.726-2.487-1.459-5.022-1.404-7.613 0.054-2.59 1.022-5.292 3.11-6.827 0.876-0.644 1.908-1.057 2.764-1.729 3.028-2.377 3.018-7.18 5.796-9.845 0.82-0.786 1.939-1.984 1.156-2.808 1.467 1.516 3.357 2.618 5.399 3.147-2.024 0.107-3.959 1.303-4.959 3.067-1.001 1.763-1.036 4.037-0.089 5.83 1.618 3.066 5.494 4.238 7.571 7.013 1.556 2.078 1.905 4.997 0.883 7.383-0.919-3.361-4.045-5.566-6.973-7.454-1.897-1.224-3.873-2.463-6.104-2.812-2.23-0.35-4.797 0.425-5.88 2.406-0.702 1.285-0.678 2.84-0.482 4.291 0.228 1.684 0.722 3.441 1.979 4.586 1.256 1.144 3.461 1.37 4.569 0.08" fill="#79230f"/></g><g id="g568" transform="translate(352.79 107.83)"><path id="path570" d="m0 0c-0.618-0.472-1.403-0.759-1.858-1.39-0.267-0.369-0.394-0.826-0.668-1.19-0.273-0.365-0.8-0.621-1.183-0.374 0.693-1.587 1.22-3.247 1.568-4.943 1.136 0.136 2.272 0.272 3.407 0.409 1.666 0.2 3.404 0.393 4.984-0.172 1.581-0.564 2.938-2.134 2.671-3.791 0.5 1.516 0.066 3.156-0.208 4.728-0.73 4.192-0.288 8.488 0.156 12.719-0.171-1.666-2.32-2.764-3.77-1.926-0.394 0.227-0.718 0.556-1.037 0.88-1.08 1.1-2.16 2.2-3.24 3.3 0.44-1.411 0.884-2.848 0.88-4.325-4e-3 -1.478-0.527-3.029-1.702-3.925" fill="#79230f"/></g><g id="g572" transform="translate(334.12 61.829)"><path id="path574" d="m0 0c1.044-0.207 2.148-0.357 3.154-9e-3 0.707 0.244 1.309 0.717 1.895 1.182l5.991 4.743c1.45 1.149 2.911 2.307 4.119 3.709 2.412 2.799 3.667 6.385 4.871 9.878 0.12 0.348 0.241 0.719 0.154 1.076-0.09 0.366-0.379 0.643-0.639 0.915-3.244 3.404-3.035 9.484 0.435 12.657-3.793-2.665-5.613-7.842-4.323-12.294 0.627-2.163 1.749-4.899 8e-3 -6.328-0.463-0.379-1.054-0.564-1.557-0.89-1.965-1.277-1.994-4.163-3.406-6.034-0.781-1.035-1.944-1.7-3.074-2.336-4.037-2.273-8.279-4.606-12.91-4.744 1.713-0.658 3.482-1.169 5.282-1.525" fill="#79230f"/></g><g id="g576" transform="translate(185.85 51.514)"><path id="path578" d="m0 0c-1.588 0.325-3.393 0.264-4.595 1.352-1.053 0.953-1.29 2.481-1.748 3.825-1.293 3.798-4.95 6.674-8.946 7.037 3.792-0.961 6.551-4.408 7.772-8.124 1.22-3.716 1.163-7.714 1.094-11.625 0.337 1.384 0.756 2.798 1.662 3.897s2.417 1.815 3.779 1.396c1.42-0.436 2.235-1.892 2.844-3.247 1.192-2.651 2.152-5.406 2.865-8.224 2.941-2.003 7.15 1.013 10.426-0.376 2.107-0.893 3.897-3.543 6.013-2.67-0.761-0.984 0.464-2.378 1.686-2.606 1.223-0.227 2.565 0.072 3.669-0.5 2.205-1.142 2.006-4.905 4.303-5.847-4e-3 2.191-7e-3 4.383-0.01 6.574-4.007 0.084-6.725 3.944-10.103 6.1-2.414 1.542-5.282 2.24-7.735 3.719-4.612 2.779-7.7 8.241-12.976 9.319" fill="#79230f"/></g><g id="g580" transform="translate(330.74 46.958)"><path id="path582" d="m0 0c-3.84 1.486-8.698-0.886-9.889-4.828-0.161-0.533-0.287-1.125-0.717-1.479-0.828-0.683-2.238-0.067-3.063-0.753-0.461-0.383-0.565-1.037-0.847-1.566-0.768-1.435-2.737-1.735-4.326-1.383s-3.067 1.17-4.687 1.332c-3.138 0.315-5.928-1.842-8.341-3.874-2.049-1.727-4.099-3.453-6.148-5.18 0.155 3.634 2.476 6.975 5.582 8.869 3.105 1.894 6.892 2.456 10.514 2.118 0.532-0.05 1.086-0.116 1.588 0.069 1.101 0.405 1.445 1.749 1.793 2.868 0.349 1.12 1.207 2.393 2.357 2.165-0.082-0.884 0.912-1.561 1.797-1.498s1.647 0.62 2.354 1.157c2.467 1.87 4.934 3.741 7.4 5.611 0.918 0.696 1.878 1.447 2.293 2.521 0.941 2.441-1.342 4.973-1.332 7.589 3.979-3.156 5.546-9.018 3.672-13.738" fill="#79230f"/></g><g id="g584" transform="translate(157.44 61.169)"><path id="path586" d="m0 0c1.108 3.34 3.703 6.156 6.942 7.532-1.349-0.816-3.052 0.551-3.597 2.03-0.544 1.48-0.539 3.181-1.43 4.482-0.505 0.738-1.252 1.269-1.9 1.886-2.129 2.026-3.188 5.119-2.749 8.025 0.266 1.755 1.032 3.395 1.43 5.125s0.362 3.719-0.789 5.071c0.845-2.646-1.749-4.982-3.163-7.372-1.724-2.916-1.687-6.786 0.092-9.668 1.445-2.342 4.022-4.358 3.839-7.104-0.094-1.416-0.945-2.667-1.261-4.051-0.517-2.258 0.583-4.792 2.586-5.956" fill="#79230f"/></g><g id="g588" transform="translate(224.76 13.944)"><path id="path590" d="m0 0c-0.569 0.706-1.153 1.403-1.759 2.079 0.209-0.731 0.267-1.215 0.267-1.215s-3.276-0.764-5.569 0.219c-2.293 0.982-3.385 2.074-4.368 3.275-0.983 1.202-0.328 3.604-0.328 3.604 0.303 0.096 0.644 0.173 1.007 0.231-0.568 0.148-1.146 0.26-1.733 0.321-0.097 9e-3 -0.206 0.014-0.279-0.051-0.034-0.031-0.055-0.074-0.074-0.116-0.499-1.104-0.458-2.395-0.105-3.554 0.354-1.158 0.996-2.206 1.68-3.206 0.518-0.758 1.07-1.505 1.768-2.102 1.388-1.186 3.257-1.688 5.081-1.739 1.825-0.051 3.633 0.311 5.422 0.67-0.22 0.59-0.615 1.094-1.01 1.584" fill="#a63417"/></g><g id="g592" transform="translate(246.52 18.929)"><path id="path594" d="m0 0c-0.178 1.547-0.812 3-1.438 4.426-0.27 0.614-0.54 1.229-0.81 1.843 0.332-2.124 4e-3 -4.34-0.899-6.289 0.177-5e-3 0.354-0.021 0.533-0.061 0 0 0.546-1.856 0.328-3.604-0.219-1.747-0.656-2.839-1.093-3.166-0.436-0.328-1.637-2.621-6.77-0.655 0 0 0.027 0.149 0.093 0.401-0.177-0.416-0.255-0.872-0.203-1.323 0.061-0.537 0.299-1.067 0.716-1.413 0.288-0.24 0.647-0.381 1.011-0.474 1.669-0.428 3.49 0.121 4.845 1.185 1.354 1.064 2.284 2.591 2.912 4.194 0.614 1.566 0.968 3.265 0.775 4.936" fill="#a63417"/></g><g id="g596" transform="translate(268.57 11.103)"><path id="path598" d="m0 0c-0.769-0.612-2.513-1.509-5.119-8e-3 -3.268 1.881-2.228 4.483-2.005 7.557-2.332 1.581-5.388-0.308-8.448 6.353-0.116-3.26 1.678-5.816 2.777-7.931 1.465-2.821 0.334-2.257 2.632-4.454 1.161-1.109 2.495-2.016 3.823-2.918 1.149-0.781 2.382-1.59 3.77-1.626 1.389-0.037 2.898 1.067 2.74 2.447-0.024 0.209-0.089 0.398-0.17 0.58" fill="#a63417"/></g><g id="g600" transform="translate(294.77 21.546)"><path id="path602" d="m0 0c-0.475 0.541-1.276 0.635-1.996 0.616-0.396-0.01-0.789-0.051-1.18-0.106 0.258-0.185 0.454-0.422 0.579-0.696 0.546-1.202-0.873-4.15-2.184-4.805-1.227-0.614-4.179-1.993-7.867-1.628-0.917-1.189-1.833-2.379-2.749-3.568 2.035-0.351 4.104-0.627 6.16-0.445 2.057 0.183 4.121 0.858 5.674 2.218 1.625 1.423 2.562 3.455 3.438 5.429 0.428 0.964 0.821 2.191 0.125 2.985" fill="#a63417"/></g></g></g></g></svg>
