<?xml version="1.0" encoding="UTF-8"?>
<!-- Generator: Adobe Illustrator 19.0.0, SVG Export Plug-In . SVG Version: 6.00 Build 0)  -->
<svg id="Layer_1" width="944.48" height="616" version="1.1" viewBox="0 0 944.48 616" xml:space="preserve" xmlns="http://www.w3.org/2000/svg" xmlns:cc="http://creativecommons.org/ns#" xmlns:dc="http://purl.org/dc/elements/1.1/" xmlns:rdf="http://www.w3.org/1999/02/22-rdf-syntax-ns#"><metadata id="metadata128"><rdf:RDF><cc:Work rdf:about=""><dc:format>image/svg+xml</dc:format><dc:type rdf:resource="http://purl.org/dc/dcmitype/StillImage"/><dc:title/></cc:Work></rdf:RDF></metadata><g id="XMLID_1_"><g id="XMLID_2_"><path id="XMLID_193_" d="m358.3 616h-37.5c-2.8 0-5-2.3-5-5v-39.5c0-2.8 2.3-5 5-5h37.5c2.8 0 5 2.3 5 5v39.5c0 2.8-2.2 5-5 5z" fill="#fbb040"/></g><g id="XMLID_3_"><path id="XMLID_4_" d="m61.2 612c-10.9 0-19.7-8.7-20-19.5l-5-59.1v-513.4c0-11 9-20 20-20h391c11 0 20 9 20 20v514.1l-5 58.4c-0.3 10.8-9.1 19.5-20 19.5h-381z" fill="#aa1c41"/><path id="XMLID_5_" d="m442.2 595h-381c-5.5 0-10-4.5-10-10l-5-59v-513c0-5.5 4.5-10 10-10h391c5.5 0 10 4.5 10 10v513.7l-5 58.3c0 5.5-4.5 10-10 10z" fill="#c0a987"/></g><g id="XMLID_6_"><rect id="XMLID_7_" x="46.2" y="524.6" width="411" height="3" fill="#fff"/></g><g id="XMLID_8_"><path id="XMLID_9_" d="m308.7 520.5h-114c-3.6 0-6.5-2.9-6.5-6.5v-192c0-3.6 2.9-6.5 6.5-6.5h114c3.6 0 6.5 2.9 6.5 6.5v192c0 3.6-2.9 6.5-6.5 6.5zm-114-202c-1.9 0-3.5 1.6-3.5 3.5v192c0 1.9 1.6 3.5 3.5 3.5h114c1.9 0 3.5-1.6 3.5-3.5v-192c0-1.9-1.6-3.5-3.5-3.5h-114z" fill="#fff"/></g><g id="XMLID_12_"><rect id="XMLID_13_" x="255.8" y="317" width="3" height="118" fill="#fff"/></g><g id="XMLID_14_"><rect id="XMLID_15_" x="245.8" y="317" width="3" height="118" fill="#fff"/></g><g id="XMLID_16_"><path id="XMLID_17_" d="m168.8 91.8c-0.8 0-1.5-0.7-1.5-1.5v-86.3c0-0.8 0.7-1.5 1.5-1.5s1.5 0.7 1.5 1.5v86.3c0 0.9-0.6 1.5-1.5 1.5z" fill="#fff"/></g><g id="XMLID_18_"><path id="XMLID_19_" d="m183 91.8c-0.8 0-1.5-0.7-1.5-1.5v-86.3c0-0.8 0.7-1.5 1.5-1.5s1.5 0.7 1.5 1.5v86.3c0 0.9-0.6 1.5-1.5 1.5z" fill="#fff"/></g><g id="XMLID_20_"><path id="XMLID_21_" d="m197.2 91.8c-0.8 0-1.5-0.7-1.5-1.5v-86.3c0-0.8 0.7-1.5 1.5-1.5s1.5 0.7 1.5 1.5v86.3c0 0.9-0.6 1.5-1.5 1.5z" fill="#fff"/></g><g id="XMLID_22_"><path id="XMLID_23_" d="m211.4 91.8c-0.8 0-1.5-0.7-1.5-1.5v-86.3c0-0.8 0.7-1.5 1.5-1.5s1.5 0.7 1.5 1.5v86.3c0 0.9-0.7 1.5-1.5 1.5z" fill="#fff"/></g><g id="XMLID_24_"><path id="XMLID_25_" d="m225.6 91.8c-0.8 0-1.5-0.7-1.5-1.5v-86.3c0-0.8 0.7-1.5 1.5-1.5s1.5 0.7 1.5 1.5v86.3c0 0.9-0.7 1.5-1.5 1.5z" fill="#fff"/></g><g id="XMLID_26_"><path id="XMLID_27_" d="m239.8 91.8c-0.8 0-1.5-0.7-1.5-1.5v-86.3c0-0.8 0.7-1.5 1.5-1.5s1.5 0.7 1.5 1.5v86.3c0 0.9-0.7 1.5-1.5 1.5z" fill="#fff"/></g><g id="XMLID_28_"><path id="XMLID_29_" d="m254 91.8c-0.8 0-1.5-0.7-1.5-1.5v-86.3c0-0.8 0.7-1.5 1.5-1.5s1.5 0.7 1.5 1.5v86.3c0 0.9-0.7 1.5-1.5 1.5z" fill="#fff"/></g><g id="XMLID_30_"><path id="XMLID_31_" d="m268.2 91.8c-0.8 0-1.5-0.7-1.5-1.5v-86.3c0-0.8 0.7-1.5 1.5-1.5s1.5 0.7 1.5 1.5v86.3c0 0.9-0.7 1.5-1.5 1.5z" fill="#fff"/></g><g id="XMLID_32_"><path id="XMLID_33_" d="m282.4 91.8c-0.8 0-1.5-0.7-1.5-1.5v-86.3c0-0.8 0.7-1.5 1.5-1.5s1.5 0.7 1.5 1.5v86.3c0 0.9-0.7 1.5-1.5 1.5z" fill="#fff"/></g><g id="XMLID_34_"><path id="XMLID_35_" d="m296.6 91.8c-0.8 0-1.5-0.7-1.5-1.5v-86.3c0-0.8 0.7-1.5 1.5-1.5s1.5 0.7 1.5 1.5v86.3c0 0.9-0.7 1.5-1.5 1.5z" fill="#fff"/></g><g id="XMLID_36_"><path id="XMLID_37_" d="m310.8 91.8c-0.8 0-1.5-0.7-1.5-1.5v-86.3c0-0.8 0.7-1.5 1.5-1.5s1.5 0.7 1.5 1.5v86.3c0 0.9-0.7 1.5-1.5 1.5z" fill="#fff"/></g><g id="XMLID_38_"><path id="XMLID_39_" d="m325 91.8c-0.8 0-1.5-0.7-1.5-1.5v-86.3c0-0.8 0.7-1.5 1.5-1.5s1.5 0.7 1.5 1.5v86.3c0 0.9-0.7 1.5-1.5 1.5z" fill="#fff"/></g><g id="XMLID_40_"><path id="XMLID_41_" d="m339.2 91.8c-0.8 0-1.5-0.7-1.5-1.5v-86.3c0-0.8 0.7-1.5 1.5-1.5s1.5 0.7 1.5 1.5v86.3c0 0.9-0.7 1.5-1.5 1.5z" fill="#fff"/></g><g id="XMLID_42_"><rect id="XMLID_43_" x="41.8" y="82.5" width="98" height="3" fill="#fff"/></g><g id="XMLID_44_"><rect id="XMLID_45_" x="370.8" y="82.5" width="98" height="3" fill="#fff"/></g><g id="XMLID_46_"><path id="XMLID_148_" d="m304.7 474h-106c-2.8 0-5-2.3-5-5v-50c0-2.8 2.3-5 5-5h106c2.8 0 5 2.3 5 5v50c0 2.8-2.3 5-5 5z" fill="#aa1c41"/></g><g id="XMLID_47_"><rect id="XMLID_146_" x="492.8" y="291.7" width="7.5" height="77.6"/></g><g id="XMLID_48_"><rect id="XMLID_144_" x="492.8" y="159.3" width="7.5" height="39.7"/></g><g id="XMLID_49_"><rect id="XMLID_142_" x="492.8" y="94.8" width="7.5" height="39.7"/></g><g id="XMLID_50_"><rect id="XMLID_51_" y="106.7" width="7.7" height="77.6"/></g><g id="XMLID_52_"><rect id="XMLID_53_" y="277" width="7.7" height="39.7"/></g><g id="XMLID_54_"><rect id="XMLID_55_" y="341.5" width="7.7" height="39.7"/></g><g id="XMLID_56_"><path id="XMLID_134_" d="m378.3 508h-37.5c-2.8 0-5-2.3-5-5v-39.5c0-2.8 2.3-5 5-5h37.5c2.8 0 5 2.3 5 5v39.5c0 2.8-2.2 5-5 5z" fill="#aa1c41"/></g><g id="XMLID_57_"><path id="XMLID_132_" d="m163.8 508h-37.5c-2.8 0-5-2.3-5-5v-39.5c0-2.8 2.3-5 5-5h37.5c2.8 0 5 2.3 5 5v39.5c0 2.8-2.2 5-5 5z" fill="#aa1c41"/></g><g id="XMLID_58_"><path id="XMLID_59_" d="m434.8 571.3h-369.3c-2.8 0-5-2.3-5-5l-2-19.3c0-2.8 2.3-5 5-5h373.3c2.8 0 5 2.3 5 5l-2 19.3c0 2.8-2.2 5-5 5z" fill="#aa1c41"/></g><g id="XMLID_60_"><path id="XMLID_61_" d="m414.8 248h-329.3c-2.8 0-5-2.3-5-5v-71.3l-2-10c0-2.8 2.3-5 5-5h333.3c2.8 0 5 2.3 5 5l-2 8.7v72.6c0 2.8-2.2 5-5 5z" fill="#aa1c41"/></g><g id="XMLID_62_"><polygon id="XMLID_63_" points="141.3 3 141.3 142.8 369 142.8 369 3 372 3 372 145.8 138.3 145.8 138.3 3" fill="#fff"/></g><g id="XMLID_64_"><path id="XMLID_65_" d="m12.5 58h53c2.8 0 5 2.3 5 5v350c0 2.8-2.3 5-5 5h-53c-2.7 0-5-2.3-5-5v-350c0-2.7 2.3-5 5-5z" fill="#aa1c41"/></g><g id="XMLID_66_"><path id="XMLID_122_" d="m434.8 418h53c2.8 0 5-2.3 5-5v-350c0-2.8-2.3-5-5-5h-53c-2.8 0-5 2.3-5 5v350c0 2.8 2.3 5 5 5z" fill="#aa1c41"/></g><g id="XMLID_67_"><path id="XMLID_68_" d="m173.8 520.5h-97.3c-3.6 0-6.5-2.9-6.5-6.5v-62c0-3.6 2.9-6.5 6.5-6.5h97.3c3.6 0 6.5 2.9 6.5 6.5v62c0 3.6-2.9 6.5-6.5 6.5zm-97.3-72c-1.9 0-3.5 1.6-3.5 3.5v62c0 1.9 1.6 3.5 3.5 3.5h97.3c1.9 0 3.5-1.6 3.5-3.5v-62c0-1.9-1.6-3.5-3.5-3.5h-97.3z" fill="#fff"/></g><g id="XMLID_71_"><path id="XMLID_72_" d="m428.2 520.5h-97.3c-3.6 0-6.5-2.9-6.5-6.5v-62c0-3.6 2.9-6.5 6.5-6.5h97.3c3.6 0 6.5 2.9 6.5 6.5v62c0 3.6-2.9 6.5-6.5 6.5zm-97.4-72c-1.9 0-3.5 1.6-3.5 3.5v62c0 1.9 1.6 3.5 3.5 3.5h97.3c1.9 0 3.5-1.6 3.5-3.5v-62c0-1.9-1.6-3.5-3.5-3.5h-97.3z" fill="#fff"/></g><g id="XMLID_75_"><rect id="XMLID_76_" x="70.5" y="268.1" width="359.3" height="3" fill="#fff"/></g><path id="XMLID_107_" d="m166.8 487.3h-43.5c-1.1 0-2 0.9-2 2v9.3c0 1.1 0.9 2 2 2h43.5c1.1 0 2-0.9 2-2v-9.3c0-1.1-0.9-2-2-2z" fill="#59001d"/><path id="XMLID_106_" d="m307.7 465.4h-112c-1.1 0-2-0.9-2-2v-39c0-1.1 0.9-2 2-2h112c1.1 0 2 0.9 2 2v39c0 1.1-0.9 2-2 2z" fill="#59001d"/><path id="XMLID_104_" d="m414.8 248h-329.3c-2.8 0-5-2.3-5-5 0-2.8 2.3-5 5-5h329.3c2.8 0 5 2.3 5 5 0 2.8-2.2 5-5 5z" fill="#59001d"/><path id="XMLID_103_" d="m416.8 166.7h-333.3c-2.8 0-5-2.3-5-5 0-2.8 2.3-5 5-5h333.3c2.8 0 5 2.3 5 5s-2.2 5-5 5z" fill="#59001d"/><g id="XMLID_99_" fill="#c0a987"><polygon id="XMLID_97_" points="150.5 548.6 150.5 552.6 157.6 552.6 157.6 556 150.5 556 150.5 563.1 146.6 563.1 146.6 545.3 157.6 545.3 157.6 548.6"/><path id="XMLID_121_" d="m170.1 563.1h-3.7v-2.8h-7.3l-2.1 2.8h-4.4l14.5-17.7h3.1l-0.1 17.7zm-3.7-6.1v-5.2l-4.4 5.2h4.4z"/><polygon id="XMLID_94_" points="188.2 545.3 192.6 545.3 192.6 563.1 188.8 563.1 188.8 554.1 184 563.1 180.1 563.1 175.5 554.1 175.5 563.1 171.6 563.1 171.6 545.3 175.9 545.3 182.1 557.3"/><polygon id="XMLID_93_" points="281.4 545.3 285.7 545.3 285.7 563.1 281.9 563.1 281.9 554.1 277.1 563.1 273.2 563.1 268.6 554.1 268.6 563.1 264.7 563.1 264.7 545.3 269.1 545.3 275.2 557.3"/><rect id="XMLID_92_" x="193.8" y="545.3" width="4" height="17.7"/><polygon id="XMLID_91_" points="208.2 559.8 208.2 563.1 198.9 563.1 198.9 545.3 202.9 545.3 202.9 559.8"/><polygon id="XMLID_90_" points="216.4 545.3 220.9 545.3 214.2 556.6 214.2 563.1 210.3 563.1 210.3 556.6 203.7 545.3 208.2 545.3 212.4 552.6"/><path id="XMLID_89_" d="m242.7 558.5"/><path id="XMLID_88_" d="m242.6 550.2c-1.8-2.9-5.3-4.8-9.3-4.8-5.8 0-10.5 4-10.5 9s4.7 9 10.5 9c4.1 0 7.6-2 9.3-4.9h-4.8c-1.2 0.9-2.7 1.5-4.5 1.5-3.6 0-6.6-2.5-6.6-5.6s2.9-5.6 6.6-5.6c1.7 0 3.2 0.6 4.4 1.5l4.9-0.1z"/><path id="XMLID_111_" d="m253 563.5c-5.8 0-10.6-4.1-10.6-9 0-5 4.7-9 10.6-9 5.8 0 10.6 4.1 10.6 9s-4.8 9-10.6 9zm6.7-9.1c0-3.2-3-5.7-6.7-5.7s-6.7 2.6-6.7 5.7c0 3.2 3 5.7 6.7 5.7s6.7-2.5 6.7-5.7z"/><path id="XMLID_108_" d="m294 545.4c3.5 0.2 6.3 2.8 6.3 5.8 0 3.1-2.8 5.6-6.3 5.8h-3v6.1h-3.9v-17.7h3.9 3zm-3 3.4v4.8h3c1.3-0.2 2.3-1.2 2.3-2.4s-1-2.2-2.3-2.4h-3z"/><path id="XMLID_105_" d="m342.9 563.3h-3.9v-17.8h5.3 3c3.5 0.2 6.3 2.8 6.3 5.8 0 2.5-1.8 4.6-4.4 5.5l4.5 6.5h-4.2l-6.3-9.2h-0.4l0.1 9.2zm4.5-9.6c1.3-0.2 2.3-1.2 2.3-2.4s-1-2.2-2.3-2.4h-4.5v4.8h4.5z"/><path id="XMLID_81_" d="m305.3 555.6v2.6c0.2 1.1 1.4 2 2.8 2s2.6-0.9 2.8-2v-2.6-10.1h4v10.1 2.6c-0.3 3-3.2 5.4-6.8 5.4s-6.5-2.4-6.8-5.4v-2.6-10.1h4v10.1z"/><polygon id="XMLID_80_" points="326.3 548.9 326.3 545.5 315.5 545.5 315.5 548.9 318.9 548.9 318.9 563.3 322.8 563.3 322.8 548.9"/><polygon id="XMLID_79_" points="338 545.5 338 548.8 331.1 548.8 331.1 553 338 553 338 556.3 331.1 556.3 331.1 560 338 560 338 563.3 327.2 563.3 327.2 545.5"/><path id="XMLID_78_" d="m342.9 554.1"/><path id="XMLID_98_" d="m62 566.8"/><path id="XMLID_101_" d="m60.7 567.6c-0.1-0.4-0.2-0.8-0.2-1.2v-0.5h307.9v1.7h-307.7z"/><path id="XMLID_100_" d="m439.9 567.6v-1.2-0.5h-27.2v1.7h27.2z"/></g><g id="XMLID_77_" fill="#c0a987"><path id="path456_1_" d="m371.1 562.9h1.7l2.4 3.9v-3.9h1.7v5.6h-1.7l-2.4-3.9v3.9h-1.7v-5.6z"/><path id="path458_1_" d="m386.1 563.5h1.7v0.8h0.9v0.6h-0.9v3.7h-1.7v-3.7h-0.9v-0.6h0.9v-0.8z"/><path id="path460_1_" d="m377.8 564.8h1.7v3.8h-1.7v-3.8z"/><path id="path462_1_" d="m377.8 562.9h1.7v1.2h-1.7v-1.2z"/><path id="path464_1_" d="m406.7 564.6c-1.3 0-2.4 0.9-2.4 2.1s1.1 2.1 2.4 2.1 2.4-0.9 2.4-2.1-1-2.1-2.4-2.1m0.7 2.1v0.8c0 0.6-0.3 0.8-0.7 0.8-0.3 0-0.7-0.2-0.7-0.8v-0.8-0.8c0-0.6 0.3-0.8 0.7-0.8 0.3 0 0.7 0.2 0.7 0.8v0.8z"/><path id="path466_1_" d="m402.2 566.7v-0.7c0-0.6-0.4-0.7-0.6-0.7-0.3 0-0.6 0.1-0.6 0.7v0.7 0.7c0 0.6 0.4 0.7 0.6 0.7 0.3 0 0.6-0.1 0.6-0.7v-0.7zm-0.1-3.8h1.6v5.6h-1.6v-0.2c-0.6 0.4-1.3 0.4-1.9 0.1-0.1-0.1-1.1-0.6-1.1-1.9 0-1 0.9-2.1 2.1-2 0.4 0 0.7 0.2 0.9 0.3v-1.9z"/><path id="path468_1_" d="m383.3 564.6c0.6 0 1.9 0.4 1.9 1.9v2h-1.6v-2.5c0-0.3-0.3-0.7-0.8-0.7-0.4 0-0.8 0.4-0.8 0.7v2.5h-1.6v-3.8h1.6v0.4c0.3-0.2 0.8-0.4 1.3-0.5"/><path id="path470_1_" d="m396.7 564.6c0.6 0 1.9 0.4 1.9 1.9v2h-1.6v-2.5c0-0.3-0.3-0.7-0.8-0.7-0.4 0-0.8 0.4-0.8 0.7v2.5h-1.6v-3.8h1.6v0.4c0.3-0.2 0.8-0.4 1.3-0.5"/><path id="path472_1_" d="m391.5 567.3v0.2c0 0.7-0.4 0.8-0.7 0.8-0.2 0-0.7-0.2-0.7-0.8v-0.8h3.1c0-1.2-1.1-2.1-2.4-2.1s-2.4 0.9-2.4 2.1 1.1 2.1 2.4 2.1c1.1 0 2.1-0.7 2.3-1.5h-1.6zm-1.3-1.2c0-0.3 0-0.5 0.1-0.7s0.4-0.3 0.6-0.3 0.5 0.1 0.6 0.3 0.1 0.4 0.1 0.7h-1.4z"/><path id="path474_1_" d="m409.5 563.5c0.2 0 0.3 0 0.3-0.2s-0.1-0.2-0.3-0.2h-0.3v0.4h0.3zm-0.3 0.8h-0.2v-1.3h0.5c0.3 0 0.4 0.1 0.4 0.4 0 0.2-0.1 0.3-0.3 0.4l0.4 0.6h-0.2l-0.3-0.6h-0.2v0.5h-0.1z"/><path id="path476_1_" d="m409.5 564.5c0.5 0 0.9-0.4 0.9-0.9s-0.4-0.9-0.9-0.9-0.9 0.4-0.9 0.9c0 0.6 0.4 0.9 0.9 0.9m-1.1-0.9c0-0.6 0.5-1.1 1.1-1.1s1.1 0.5 1.1 1.1-0.5 1.1-1.1 1.1-1.1-0.4-1.1-1.1"/></g><g id="XMLID_128_" fill="#c0a987"><circle id="XMLID_130_" cx="93.9" cy="547.7" r="2.3"/><path id="XMLID_131_" d="m90.5 547.2v-0.3c0-0.8-0.7-1.5-1.5-1.5-0.7 0-1.2 0.4-1.4 1l-4.8 14.7c-0.1 0.2-0.1 0.3-0.1 0.5 0 0.8 0.7 1.5 1.5 1.5 0.7 0 1.2-0.4 1.4-1l4.9-14.9z"/><circle id="XMLID_133_" cx="92.1" cy="553.2" r="2.3"/><circle id="XMLID_135_" cx="104.2" cy="547.7" r="2.3"/><path id="XMLID_136_" d="m100.9 547.2v-0.3c0-0.8-0.7-1.5-1.5-1.5-0.7 0-1.2 0.4-1.4 1l-4.8 14.7c-0.1 0.2-0.1 0.3-0.1 0.5 0 0.8 0.7 1.5 1.5 1.5 0.7 0 1.2-0.4 1.4-1l4.9-14.9z"/><circle id="XMLID_137_" cx="102.4" cy="553.2" r="2.3"/></g></g><g id="XMLID_1_-3" transform="matrix(.54037 0 0 .54037 609.99 398.07)"><path id="XMLID_2_-3" d="m604 0h-589c-8.3 0-15 6.8-15 15v325c0 8.3 6.7 15 15 15h24v40.3c0 4.4 3.6 8 8 8h521c4.4 0 8-3.6 8-8v-40.3h28c8.3 0 15-6.8 15-15v-325c0-8.2-6.8-15-15-15z" fill="#c68228"/><path id="XMLID_3_-4" d="m587 22h-555c-4.4 0-8 3.6-8 8v303c0 4.4 3.6 8 8 8h13v50.3c0 4.4 3.6 8 8 8h510c4.4 0 8-3.6 8-8v-50.3h16c4.4 0 8-3.6 8-8v-303c0-4.4-3.6-8-8-8z" fill="#fbaa2a"/><path id="XMLID_93_-4" d="m567 302h-515c-4.4 0-8-3.6-8-8v-246c0-4.4 3.6-8 8-8h515c4.4 0 8 3.6 8 8v246c0 4.4-3.6 8-8 8z" fill="#e6e7e8"/><g id="XMLID_112_" fill-rule="evenodd"><path id="XMLID_110_" d="m80.4 82.5c-9.1 0-15.2-6.4-15.2-14.3 0-7.8 6.1-14.3 15.2-14.3h85.7c9.1 0 15.2 6.5 15.2 14.3s-6.1 14.3-15.2 14.3h-85.7z"/><path id="XMLID_109_" d="m80.4 57.4c-7.2 0-11.6 4.8-11.6 10.8s4.4 10.8 11.6 10.8h85.6c7.2 0 11.6-4.8 11.6-10.8s-4.4-10.8-11.6-10.8h-85.6z" fill="#fff"/><g id="XMLID_113_"><polygon id="XMLID_108_-3" points="86.7 70.8 86.7 61.5 90.9 61.5 90.9 74.9 86.7 74.9 80.9 65.5 80.9 74.9 76.7 74.9 76.7 61.5 76.7 61.5 80.9 61.5"/><polygon id="XMLID_107_-0" points="113.5 64.7 113.5 62.9 113.5 62.9 117.5 62.9 117.5 64.7 119.7 64.7 119.7 66 117.5 66 117.5 74.9 113.5 74.9 113.5 66 111.3 66 111.3 64.7"/><polygon id="XMLID_106_-2" points="93.2 66 93.2 66 97.3 66 97.3 74.9 93.2 74.9"/><polygon id="XMLID_105_-5" points="93.2 61.5 93.2 61.5 97.3 61.5 97.3 64.2 93.2 64.2"/><path id="XMLID_128_-3" d="m165.7 70.4v1.9c0 1.4-0.8 2-1.7 2-0.8 0-1.7-0.6-1.7-2v-1.9-1.9c0-1.4 0.8-2 1.7-2s1.7 0.6 1.7 2v1.9zm-1.6-5c-3.3 0-5.9 2.2-5.9 5s2.6 5 5.9 5 5.9-2.2 5.9-5-2.6-5-5.9-5z"/><path id="XMLID_125_" d="m152.9 61.5h4v13.4h-4v-0.5c-1.5 1-3.3 1-4.7 0.3-0.4-0.2-2.8-1.3-2.8-4.4 0-2.4 2.2-4.9 5.1-4.7 1 0.1 1.6 0.4 2.3 0.8 0.1-2.1 0.1-4.9 0.1-4.9zm0 8.9v-1.6c0-1.4-1-1.7-1.6-1.7s-1.6 0.4-1.6 1.7v1.6 1.6c0 1.4 0.9 1.7 1.6 1.7 0.6 0 1.6-0.4 1.6-1.7v-1.6z"/><path id="XMLID_100_-3" d="m106.7 65.6c1.5 0 4.6 0.9 4.6 4.5v4.9h-4v-5.9c0-0.8-0.7-1.6-1.8-1.6s-1.9 0.9-1.9 1.6v5.9h-4v-8.9h4v0.9c0.7-0.8 1.8-1.4 3.1-1.4z"/><path id="XMLID_99_-8" d="m139.6 65.6c1.5 0 4.6 0.9 4.6 4.5v4.9h-4v-5.9c0-0.8-0.7-1.6-1.8-1.6s-1.9 0.9-1.9 1.6v5.9h-4v-8.9h4v0.9c0.6-0.8 1.8-1.4 3.1-1.4z"/><path id="XMLID_120_" d="m123.5 69.1c0-0.8 0-1.3 0.3-1.8 0.3-0.6 0.9-0.8 1.4-0.8s1.1 0.3 1.4 0.8c0.3 0.4 0.3 1 0.3 1.8h-3.4zm3.4 2.7v0.5c0 1.6-1.1 2-1.7 2s-1.7-0.4-1.7-2v-1.8h7.6c0-2.8-2.7-5.1-6-5.1s-6 2.2-6 5 2.7 5 6 5c2.7 0 5-1.6 5.7-3.7l-3.9 0.1z"/><path id="XMLID_117_" d="m170.3 64.7h-0.5v-3.1h1.2c0.7 0 1.1 0.3 1.1 0.9 0 0.5-0.3 0.8-0.8 0.8l0.9 1.3h-0.5l-0.8-1.3h-0.5v1.4h-0.1zm0.5-1.8c0.4 0 0.7 0 0.7-0.5 0-0.4-0.3-0.4-0.7-0.4h-0.6v0.9h0.6z"/><path id="XMLID_114_" d="m168.1 63.1c0-1.5 1.2-2.6 2.7-2.6 1.4 0 2.7 1.1 2.7 2.6s-1.2 2.7-2.7 2.7c-1.4 0-2.7-1.1-2.7-2.7zm2.7 2.2c1.2 0 2.1-0.9 2.1-2.2s-0.9-2.2-2.1-2.2-2.2 0.9-2.2 2.2c0.1 1.3 1 2.2 2.2 2.2z"/></g></g><g id="XMLID_146_-9" fill="#ea2c27"><path id="XMLID_132_-3" d="m317.9 60.7c0 4.3 0.7 10.1-1.8 14-1.2 2.1-3.4 3.3-5.5 4.3h-14.1v-4.4h12.3c2.2-0.3 4-2.2 4.7-4.3 0.4-1.4 0.4-2.9 0.4-4.3h-19.8v-5.2h23.8z"/><path id="XMLID_131_-5" d="m367 74.6c3.5-0.1 7.2 0.1 10.6 0 1.7-0.1 3.2-1.5 4.2-2.9 0.9-1.2 1.2-2.4 1.3-4.1 0.1-2.3 0-4.6 0.1-6.9h3.4v9.3c0 2.5-0.8 4.4-2.4 6.2-0.5 0.8-1.9 1.8-3.2 2.3-0.9 0.2-1.8 0.5-2.8 0.4h-11.1l-0.1-4.3z"/><path id="XMLID_130_-4" d="m539 66.3c-0.8 2.8-2.9 6-6.2 5.9v-5.2c0.9-0.4 1.9-0.9 2.5-1.8 0.7-1.3 0.7-2.8 0.6-4.6 6.6-0.1 13.5 0 20.1 0v11.9c0 4.2-4.6 6.4-5.7 6.4h-15.9v-4.4h13c1.8 0 3.6-0.6 4.1-1.4h-12.1v-5.2h12.6c0.1-1.9-1.2-1.6-2.3-1.7h-10.7z"/><path id="XMLID_129_" d="m318.9 79v-4.3l6.9-0.1c0.9 0 0.9-2.3 0.9-3.8h7.8c0-0.7-0.8-1.1-2-1.1h-13.5v-4.7h19.2c0 2.8 0.3 6.6-0.9 8.5-1.5 2.2-5.8 1.5-7.3 1.7 0 1.8-1.3 3.8-2.6 3.8h-8.5z"/></g><polygon id="XMLID_127_" points="339.2 65.7 362.4 68.2 362.4 63.4 339.2 60.9" fill="#ea2c27"/><polygon id="XMLID_126_" points="339.2 71 362.4 73.5 362.4 68.7 339.2 66.2" fill="#ea2c27"/><polygon id="XMLID_124_" points="339.2 76.4 362.4 79 362.4 74.2 339.2 71.6" fill="#ea2c27"/><rect id="XMLID_123_" x="363.5" y="60.7" width="4.2" height="11.7" fill="#ea2c27"/><rect id="XMLID_122_-8" x="387.9" y="67.7" width="22.4" height="4.6" fill="#ea2c27"/><polygon id="XMLID_121_-2" points="442.1 60.7 419.4 60.7 419.4 65.9 438.2 65.9 438.2 74.5 418.8 74.5 418.8 79 442.1 79" fill="#ea2c27"/><path id="XMLID_119_" d="m443.6 74.6c3.5-0.1 11.1 0.1 14.6 0 1.7-0.1 3.2-1.5 4.2-2.9 0.9-1.2 1.2-2.4 1.3-4.1 0.1-2.3 0-4.6 0.1-6.9h3.4v9.3c0 2.5-0.8 4.4-2.4 6.2-0.5 0.8-1.9 1.8-3.2 2.3-0.9 0.2-1.8 0.5-2.8 0.4h-15l-0.2-4.3z" fill="#ea2c27"/><path id="XMLID_136_-4" d="m471.7 70.7h19.9v-3.9h-2.4c1-0.5 1.7-1.5 1.7-2.7 0-1.7-1.4-3-3-3s-3 1.4-3 3c0 1.2 0.7 2.2 1.7 2.7h-1.6c-0.5 0-0.4-1.3-1.4-1.3h-12v-4.8h-3.4v13.7c0 2 1.8 4.3 3.2 4.6h20.1v-4.4h-17.8c-1.6-0.4-2-2.4-2-3.9zm16.1-8.2c0.9 0 1.6 0.7 1.6 1.6s-0.7 1.6-1.6 1.6-1.6-0.7-1.6-1.6 0.7-1.6 1.6-1.6z" fill="#ea2c27"/><polygon id="XMLID_115_" points="504.4 74.6 492.5 74.6 492.5 79 511.5 79 511.5 74.6 507.7 74.6 507.7 65.5 494.2 65.5 494.2 70.3 504.4 70.3" fill="#ea2c27"/><rect id="XMLID_111_-1" x="509.2" y="67.7" width="22.4" height="4.6" fill="#ea2c27"/><g id="XMLID_135_-0"><rect id="XMLID_134_-3" x="470.5" y="94.3" width="85.6" height="21.5" fill-rule="evenodd"/><g id="XMLID_133_-8" fill="#e6e7e8"><path id="XMLID_5_-2" d="m475.2 111.8v-14.2h2.9v5.6h5.6v-5.6h2.9v14.1h-2.9v-6.2h-5.6v6.2h-2.9z"/><path id="XMLID_7_-9" d="m493.1 111.8-5.1-14.2h3.1l3.6 10.5 3.5-10.5h3l-5.1 14.1h-3z"/><path id="XMLID_9_-6" d="m511.7 106.6 2.8 0.9c-0.4 1.5-1.1 2.7-2.1 3.4s-2.2 1.1-3.8 1.1c-1.9 0-3.4-0.6-4.6-1.9s-1.8-3-1.8-5.3c0-2.4 0.6-4.2 1.8-5.5s2.8-2 4.8-2c1.7 0 3.1 0.5 4.2 1.5 0.6 0.6 1.1 1.5 1.4 2.6l-2.8 0.7c-0.2-0.7-0.5-1.3-1-1.7s-1.2-0.6-1.9-0.6c-1 0-1.9 0.4-2.6 1.1-0.7 0.8-1 2-1 3.7 0 1.8 0.3 3.1 1 3.8 0.6 0.8 1.5 1.1 2.5 1.1 0.8 0 1.4-0.2 2-0.7 0.5-0.4 0.8-1.2 1.1-2.2z"/><path id="XMLID_11_" d="m516.6 108v-2.7h5.3v2.7h-5.3z"/><path id="XMLID_13_-3" d="m523.5 97.6h2.9v7.7c0 1.2 0 2 0.1 2.4 0.1 0.6 0.4 1 0.9 1.4s1.1 0.5 1.9 0.5 1.4-0.2 1.8-0.5 0.7-0.7 0.7-1.2c0.1-0.5 0.1-1.3 0.1-2.4v-7.8h2.9v7.4c0 1.7-0.1 2.9-0.2 3.6-0.2 0.7-0.4 1.3-0.9 1.8-0.4 0.5-1 0.9-1.7 1.2s-1.6 0.4-2.7 0.4c-1.4 0-2.4-0.2-3.1-0.5s-1.2-0.7-1.7-1.2c-0.4-0.5-0.7-1-0.8-1.6-0.2-0.8-0.3-2-0.3-3.6v-7.6z"/><path id="XMLID_15_-0" d="m537.7 111.8v-14.2h4.3l2.6 9.6 2.5-9.6h4.3v14.1h-2.7v-11.1l-2.8 11.1h-2.7l-2.8-11.1v11.1h-2.7z"/></g></g></g></svg>
