<?xml version="1.0" encoding="UTF-8"?>
<svg id="svg2" width="734.96" height="231.78" version="1.1" viewBox="0 0 734.96 231.78" xml:space="preserve" xmlns="http://www.w3.org/2000/svg" xmlns:cc="http://creativecommons.org/ns#" xmlns:dc="http://purl.org/dc/elements/1.1/" xmlns:rdf="http://www.w3.org/1999/02/22-rdf-syntax-ns#"><metadata id="metadata8"><rdf:RDF><cc:Work rdf:about=""><dc:format>image/svg+xml</dc:format><dc:type rdf:resource="http://purl.org/dc/dcmitype/StillImage"/><dc:title/></cc:Work></rdf:RDF></metadata><defs id="defs6"><clipPath id="clipPath16"><path id="path18" d="m0 185.42h587.97v-185.42h-587.97v185.42z"/></clipPath></defs><g id="g10" transform="matrix(1.25 0 0 -1.25 0 231.78)"><g id="g12"><g id="g14" clip-path="url(#clipPath16)"><g id="g20" transform="translate(269.16 1.5848)"><path id="path22" d="m0 0h-264.83c-2.384 0-4.334 1.95-4.334 4.333v170.87c0 2.383 1.95 4.333 4.334 4.333h264.83c2.383 0 4.333-1.95 4.333-4.333v-170.87c0-2.383-1.95-4.333-4.333-4.333" fill="#7d3d4a"/></g><g id="g24" transform="translate(265 8.3769)"><path id="path26" d="m0 0h-256.51c-1.559 0-2.834 1.275-2.834 2.833v163c0 1.559 1.275 2.834 2.834 2.834h256.51c1.558 0 2.833-1.275 2.833-2.834v-163c0-1.558-1.275-2.833-2.833-2.833" fill="#812a3c"/></g><g id="g28" transform="translate(264.01 11.094)"><path id="path30" d="m0 0h-254.53c-0.734 0-1.334 0.6-1.334 1.333v160.57c0 0.733 0.6 1.333 1.334 1.333h254.53c0.733 0 1.333-0.6 1.333-1.333v-160.57c0-0.733-0.6-1.333-1.333-1.333" fill="#ced2d1"/></g><g id="g32" transform="translate(209.86 37.583)"><path id="path34" d="m0 0h-146.22c-2.75 0-5 2.25-5 5v117.46c0 2.75 2.25 5 5 5h146.22c2.75 0 5-2.25 5-5v-117.46c0-2.75-2.25-5-5-5" fill="#999c93"/></g><g id="g36" transform="translate(205.7 43.469)"><path id="path38" d="m0 0h-137.9c-1.831 0-3.329 1.498-3.329 3.329v110.17c0 1.831 1.498 3.329 3.329 3.329h137.9c1.831 0 3.329-1.498 3.329-3.329v-110.17c0-1.831-1.498-3.329-3.329-3.329" fill="#ced2d1"/></g><g id="g40" transform="translate(191.92 57.959)"><path id="path42" d="m0 0h-110.35c-5.018 0-9.125 4.106-9.125 9.125v70.19c0 5.019 4.107 9.125 9.125 9.125h110.35c5.019 0 9.125-4.106 9.125-9.125v-70.19c0-5.019-4.106-9.125-9.125-9.125" fill="#752a35"/></g><g id="g44" transform="translate(191.52 61.341)"><path id="path46" d="m0 0h-109.54c-3.529 0-6.417 2.887-6.417 6.417v68.629c0 3.529 2.888 6.416 6.417 6.416h109.54c3.529 0 6.417-2.887 6.417-6.416v-68.629c0-3.53-2.888-6.417-6.417-6.417" fill="#889c86"/></g><g id="g48" transform="translate(23.433 53.742)"><path id="path50" d="m0 0c0 7.096 5.752 12.848 12.848 12.848s12.849-5.752 12.849-12.848-5.753-12.848-12.849-12.848-12.848 5.752-12.848 12.848" fill="#80293a"/></g><g id="g52" transform="translate(26.093 53.742)"><path id="path54" d="m0 0c0 5.627 4.561 10.188 10.188 10.188s10.188-4.561 10.188-10.188-4.561-10.188-10.188-10.188-10.188 4.561-10.188 10.188" fill="#c6283a"/></g><g id="g56" transform="translate(225.16 53.742)"><path id="path58" d="m0 0c0 7.096 5.752 12.848 12.848 12.848s12.849-5.752 12.849-12.848-5.753-12.848-12.849-12.848-12.848 5.752-12.848 12.848" fill="#80293a"/></g><g id="g60" transform="translate(227.82 53.742)"><path id="path62" d="m0 0c0 5.627 4.561 10.188 10.188 10.188s10.188-4.561 10.188-10.188-4.561-10.188-10.188-10.188-10.188 4.561-10.188 10.188" fill="#c6283a"/></g><g id="g64" transform="translate(88.07 26.942)"><path id="path66" d="m0 0c0 1.813 1.47 3.283 3.283 3.283s3.283-1.47 3.283-3.283-1.47-3.283-3.283-3.283-3.283 1.47-3.283 3.283" fill="#161715"/></g><g id="g68" transform="translate(143.88 19.471)"><path id="path70" d="m0 0h-5.49c-4.172 0-7.585 3.413-7.585 7.584 0 4.172 3.413 7.585 7.585 7.585h5.49c4.171 0 7.584-3.413 7.584-7.585 0-4.171-3.413-7.584-7.584-7.584" fill="#752035"/></g><g id="g72" transform="translate(143.85 22.64)"><path id="path74" d="m0 0h-5.434c-2.412 0-4.386 1.974-4.386 4.387 0 2.412 1.974 4.386 4.386 4.386h5.434c2.413 0 4.387-1.974 4.387-4.386 0-2.413-1.974-4.387-4.387-4.387" fill="#7d878a"/></g><g id="g76" transform="translate(172.24 19.471)"><path id="path78" d="m0 0h-5.49c-4.172 0-7.585 3.413-7.585 7.584 0 4.172 3.413 7.585 7.585 7.585h5.49c4.171 0 7.584-3.413 7.584-7.585 0-4.171-3.413-7.584-7.584-7.584" fill="#752035"/></g><g id="g80" transform="translate(172.21 22.64)"><path id="path82" d="m0 0h-5.434c-2.412 0-4.386 1.974-4.386 4.387 0 2.412 1.974 4.386 4.386 4.386h5.434c2.413 0 4.387-1.974 4.387-4.386 0-2.413-1.974-4.387-4.387-4.387" fill="#7d878a"/></g><g id="g84" transform="translate(201.44 19.471)"><path id="path86" d="m0 0h-5.49c-4.172 0-7.585 3.413-7.585 7.584 0 4.172 3.413 7.585 7.585 7.585h5.49c4.171 0 7.584-3.413 7.584-7.585 0-4.171-3.413-7.584-7.584-7.584" fill="#752035"/></g><g id="g88" transform="translate(201.41 22.64)"><path id="path90" d="m0 0h-5.434c-2.412 0-4.386 1.974-4.386 4.387 0 2.412 1.974 4.386 4.386 4.386h5.434c2.413 0 4.387-1.974 4.387-4.386 0-2.413-1.974-4.387-4.387-4.387" fill="#7d878a"/></g><g id="g92" transform="translate(36.138 132.58)"><path id="path94" d="m0 0h13.91c0.158 0 0.317-3e-3 0.474 0.011 0.728 0.064 1.273 0.534 1.37 1.19 0.028 0.188 0.021 0.382 0.021 0.573 1e-3 7.502 1e-3 15.004 1e-3 22.506 0 0.124 0 0.248-6e-3 0.372-0.052 1.079-0.648 1.65-1.723 1.65h-27.853c-1.348 0-1.984-0.627-1.984-1.955v-22.539c0-0.102-3e-3 -0.203 2e-3 -0.305 0.041-0.746 0.501-1.298 1.239-1.446 0.263-0.052 0.539-0.055 0.809-0.055 4.58-3e-3 9.16-2e-3 13.74-2e-3m-16.129 1.225v23.725c0.193 0.778 0.62 1.343 1.424 1.57 0.116 0.033 0.227 0.08 0.34 0.12h28.977c1.13-0.472 1.493-1.025 1.493-2.277 0-7.604 0-15.207-1e-3 -22.811 0-0.146 2e-3 -0.295-0.025-0.437-0.174-0.895-0.896-1.444-1.896-1.444-9.431-1e-3 -18.863-1e-3 -28.295 0-0.056 0-0.113-2e-3 -0.169 1e-3 -0.856 0.04-1.502 0.534-1.76 1.344-0.023 0.072-0.059 0.139-0.088 0.209" fill="#231f20"/></g><g id="g96" transform="translate(45.828 141.23)"><path id="path98" d="m0 0h1.176v-2.759h2.13v2.75h1.2v-6.908h-1.174v2.919h-2.15v-2.917h-1.182v6.915z" fill="#231f20"/></g><g id="g100" transform="translate(45.459 136.16)"><path id="path102" d="m0 0c-0.534-1.348-2.311-2.208-3.884-1.914-1.691 0.315-2.927 1.782-2.978 3.536-0.05 1.696 1.169 3.24 2.864 3.628 1.576 0.361 3.359-0.467 3.999-1.895-0.447 0-0.873-7e-3 -1.298 7e-3 -0.075 2e-3 -0.153 0.086-0.218 0.144-0.862 0.765-1.986 0.892-2.95 0.332-0.949-0.552-1.42-1.646-1.176-2.731 0.233-1.038 1.135-1.824 2.236-1.919 0.691-0.061 1.315 0.144 1.833 0.606 0.178 0.159 0.35 0.221 0.58 0.21 0.319-0.015 0.638-4e-3 0.992-4e-3" fill="#231f20"/></g><g id="g104" transform="translate(37.555 134.31)"><path id="path106" d="m0 0h-1.189v5.745h-1.342v1.174h3.847v-1.147h-1.316v-5.772z" fill="#231f20"/></g><g id="g108" transform="translate(33.318 139.07)"><path id="path110" d="m0 0c-0.491-0.738-0.924-1.39-1.384-2.08h1.384v2.08zm1.2 2.18v-6.931h-1.172v1.46c-0.47 0-0.917-0.047-1.349 0.011-0.652 0.087-1.098-0.12-1.348-0.732-0.264-0.645-0.734-0.901-1.423-0.768-0.14 0.028-0.29 4e-3 -0.492 4e-3 0.081 0.139 0.131 0.235 0.19 0.324 1.402 2.111 2.809 4.217 4.201 6.334 0.153 0.234 0.314 0.323 0.581 0.302 0.259-0.02 0.521-4e-3 0.812-4e-3" fill="#231f20"/></g><g id="g112" transform="translate(22.39 134.29)"><path id="path114" d="m0 0v6.932h1.153v-4.643c0.024-0.011 0.048-0.023 0.073-0.034 0.067 0.092 0.139 0.181 0.202 0.276 0.911 1.369 1.827 2.734 2.724 4.112 0.157 0.242 0.32 0.349 0.606 0.321 0.248-0.025 0.5-5e-3 0.781-5e-3v-4.668c0.024-0.011 0.048-0.023 0.071-0.035 0.068 0.091 0.139 0.179 0.202 0.273 0.923 1.388 1.848 2.774 2.762 4.168 0.128 0.194 0.263 0.28 0.498 0.267 0.347-0.02 0.696-5e-3 1.101-5e-3 -0.1-0.161-0.161-0.266-0.228-0.368-1.397-2.101-2.797-4.2-4.184-6.308-0.146-0.221-0.297-0.309-0.554-0.288-0.259 0.022-0.522 5e-3 -0.82 5e-3v4.66c-0.027 0.011-0.054 0.022-0.08 0.034-0.066-0.095-0.134-0.189-0.198-0.285-0.904-1.359-1.815-2.714-2.704-4.083-0.165-0.254-0.338-0.361-0.634-0.331-0.246 0.025-0.497 5e-3 -0.771 5e-3" fill="#231f20"/></g><g id="g116" transform="translate(35.072 147.59)"><path id="path118" d="m0 0c6e-3 -0.223 0.37-0.681 0.544-0.684 0.186-4e-3 0.538 0.441 0.54 0.682 2e-3 0.26-0.255 0.471-0.566 0.467-0.307-4e-3 -0.525-0.2-0.518-0.465m0.462-2.07c-0.27-0.227-0.54-0.408-0.751-0.641-0.468-0.516-0.251-1.384 0.383-1.622 0.703-0.264 1.525 0.177 1.677 0.908 0.014 0.068-0.037 0.174-0.092 0.226-0.388 0.369-0.784 0.729-1.217 1.129m0.927 0.599c0.284-0.26 0.568-0.52 0.89-0.815 0.18 0.401 0.356 0.766 0.509 1.141 0.075 0.184 0.172 0.266 0.379 0.253 0.281-0.019 0.564-5e-3 0.903-5e-3 -0.283-0.638-0.53-1.235-0.813-1.815-0.127-0.26-0.099-0.416 0.123-0.605 0.467-0.398 0.908-0.828 1.38-1.264-0.247-0.268-0.476-0.516-0.723-0.784-0.47 0.432-0.922 0.846-1.398 1.283-0.493-1.053-1.306-1.516-2.423-1.374-0.826 0.104-1.436 0.553-1.694 1.357-0.377 1.181 0.09 2.066 1.089 2.707-0.842 1.096-0.901 1.877-0.21 2.502 0.64 0.579 1.685 0.558 2.309-0.046 0.668-0.647 0.564-1.487-0.321-2.535" fill="#231f20"/></g><g id="g120" transform="translate(46.238 157.21)"><path id="path122" d="m0 0h3.571v-1.161h-2.378v-1.775h2.386v-1.181h-2.383v-1.627h2.378v-1.172h-3.574v6.916z" fill="#231f20"/></g><g id="g124" transform="translate(40.853 157.23)"><path id="path126" d="m0 0v-4.66c0.024-0.012 0.047-0.023 0.071-0.034 0.065 0.095 0.132 0.19 0.196 0.286 0.866 1.303 1.75 2.594 2.588 3.915 0.246 0.389 0.513 0.563 0.96 0.497 0.176-0.025 0.358-4e-3 0.555-4e-3v-6.937h-1.153v4.648c-0.024 0.011-0.047 0.022-0.071 0.033-0.067-0.094-0.138-0.185-0.202-0.281-0.917-1.379-1.837-2.755-2.745-4.14-0.133-0.203-0.266-0.31-0.518-0.287-0.271 0.024-0.545 5e-3 -0.846 5e-3v4.671c-0.023 0.012-0.047 0.024-0.07 0.035-0.067-0.091-0.138-0.18-0.2-0.275-0.923-1.388-1.849-2.775-2.763-4.169-0.127-0.194-0.263-0.277-0.497-0.264-0.348 0.02-0.698 6e-3 -1.101 6e-3 0.089 0.142 0.145 0.237 0.205 0.328 1.397 2.102 2.798 4.201 4.184 6.31 0.158 0.24 0.319 0.351 0.606 0.322 0.247-0.025 0.5-5e-3 0.801-5e-3" fill="#231f20"/></g><g id="g128" transform="translate(32.115 152.98)"><path id="path130" d="m0 0h1.363v2.051c-0.478-0.719-0.909-1.368-1.363-2.051m2.573-2.686h-1.175v1.462c-0.731 0-1.434 6e-3 -2.136-9e-3 -0.073-2e-3 -0.157-0.119-0.212-0.198-0.24-0.349-0.48-0.697-0.699-1.057-0.103-0.17-0.225-0.225-0.416-0.218-0.363 0.013-0.727 3e-3 -1.142 3e-3 0.079 0.133 0.131 0.229 0.191 0.319 1.402 2.112 2.809 4.22 4.202 6.338 0.152 0.232 0.313 0.325 0.582 0.303 0.259-0.021 0.522-4e-3 0.805-4e-3v-6.939z" fill="#231f20"/></g><g id="g132" transform="translate(26.036 152.57)"><path id="path134" d="m0 0v1.132h3.551c0.202-1.645-1.236-3.36-3.066-3.67-1.88-0.318-3.752 0.979-4.138 2.866-0.397 1.941 0.793 3.842 2.695 4.305 1.726 0.421 3.755-0.567 4.186-2.074-0.383 0-0.756-0.013-1.126 9e-3 -0.091 5e-3 -0.185 0.117-0.258 0.197-0.787 0.858-1.977 1.109-3.002 0.627-1.002-0.472-1.598-1.556-1.449-2.64 0.154-1.128 1.002-1.993 2.147-2.191 0.984-0.171 2.074 0.34 2.572 1.207 0.032 0.056 0.052 0.119 0.1 0.232h-1.125-1.087z" fill="#231f20"/></g><g id="g136" transform="translate(22.434 129.64)"><path id="path138" d="m0 0h0.441 0.245 0.246 0.244-0.244 0.244l1.831-3.029v3.029h0.488 0.247 0.244 0.244-0.244 0.244v-0.526-0.263-0.658-0.264-0.395-0.266-0.523-0.398-0.526-0.263-0.395h-0.61-0.244-0.244-0.05l-1.906 3.29v-0.919-0.266-0.657-0.264-0.395-0.394-0.395h-0.61-0.247-0.244-0.075v4.477z" fill="#110f0d"/></g><g id="g140" transform="translate(26.989 128.15)"><path id="path142" d="m0 0h0.493 0.247 0.247 0.246-0.246 0.376l-5e-3 -2.999h-0.616-0.246-0.247-0.247 0.247-0.247l-2e-3 2.999zm0 1.462h0.615 0.247 0.247 0.246-0.246 0.246v-0.664-0.266 0.266-0.266h-0.615-0.247-0.246-0.247 0.247-0.247v0.93-0.266 0.266z" fill="#110f0d"/></g><g id="g144" transform="translate(31.018 128.37)"><path id="path146" d="m0 0c0.9 0.078 1.361-0.278 1.384-1.07v-0.134 0.067 0.067-0.268 0.134-0.134-0.67-0.268-0.269-0.269-0.403h-0.496-0.249-0.249-0.25 0.25-0.25v2.147c2e-3 0.282-0.18 0.439-0.545 0.471-0.258 0.02-0.451-0.092-0.579-0.336v-0.538-0.266-0.672-0.269-0.537h-0.621-0.249-0.249-0.146v3.088h0.395 0.249 0.25 0.246-0.246 0.376l-3e-3 -0.375c0.277 0.291 0.605 0.459 0.982 0.504" fill="#110f0d"/></g><g id="g148" transform="translate(33.488 129.1)"><path id="path150" d="m0 0h1.176v-0.635h0.47 0.237-0.237 0.237v-0.51h-0.47-0.237v-0.507-0.255-0.509-0.255-0.636-0.255-0.381h-0.47-0.236-0.234-0.236 0.236-0.236v2.798h-0.706v0.51h0.47 0.236v0.635z" fill="#110f0d"/></g><g id="g152" transform="translate(37.184 128)"><path id="path154" d="m0 0c-0.301-0.017-0.456-0.268-0.465-0.753h0.449 0.226 0.226c-3e-3 0.463-0.149 0.714-0.436 0.753m-0.016 0.342c1.024-0.034 1.559-0.562 1.608-1.583h-0.366-0.226-0.564-0.226-0.337-0.338c-0.015-0.677 0.061-1.061 0.229-1.15 0.167-0.088 0.334-0.077 0.498 0.033 0.168 0.11 0.235 0.362 0.2 0.754h0.426 0.226 0.226 0.226-0.226 0.226c-0.154-0.671-0.478-1.063-0.972-1.176-0.493-0.114-0.956-0.081-1.389 0.1-0.431 0.183-0.711 0.601-0.841 1.255l-3e-3 0.218c0.128 0.986 0.67 1.502 1.623 1.549" fill="#110f0d"/></g><g id="g156" transform="translate(41.219 128.37)"><path id="path158" d="m0 0c0.9 0.078 1.361-0.278 1.384-1.07v-0.134 0.067 0.067-0.268 0.134-0.134-0.67-0.268-0.269-0.269-0.403h-0.496-0.249-0.249-0.25 0.25-0.25v2.147c2e-3 0.282-0.18 0.439-0.545 0.471-0.258 0.02-0.451-0.092-0.579-0.336v-0.538-0.266-0.672-0.269-0.537h-0.621-0.249-0.249-0.146v3.088h0.395 0.249 0.25 0.246-0.246 0.376l-3e-3 -0.375c0.277 0.291 0.605 0.459 0.982 0.504" fill="#110f0d"/></g><g id="g160" transform="translate(44.786 128)"><path id="path162" d="m0 0c-0.325-0.015-0.494-0.287-0.506-0.815v-0.845c0.026-0.52 0.198-0.791 0.516-0.815 0.312 0.035 0.465 0.185 0.46 0.45v1.476c0.024 0.334-0.132 0.517-0.47 0.549m0.455 1.767h0.488 0.241 0.245 0.243-0.243 0.243v-0.526-0.261-0.655-0.263-0.392-0.264-0.523-0.395-0.524-0.263-0.555h-1.22l-3e-3 0.107c-0.095-0.08-0.385-0.111-0.869-0.092-0.496 0.011-0.859 0.181-1.091 0.509-0.232 0.331-0.333 0.689-0.304 1.076 5e-3 0.354 0.098 0.676 0.278 0.965 0.18 0.29 0.525 0.504 1.034 0.642 0.482 0.035 0.802-0.018 0.958-0.16v1.574z" fill="#110f0d"/></g><g id="g164" transform="translate(48.401 127.96)"><path id="path166" d="m0 0c-0.344-0.011-0.521-0.254-0.53-0.728v-0.935c0.024-0.463 0.205-0.707 0.54-0.731 0.333 0.033 0.495 0.283 0.489 0.748v0.907c-9e-3 0.489-0.175 0.735-0.499 0.739m-1.706-1.092c0.045 0.558 0.222 0.948 0.532 1.17 0.31 0.223 0.682 0.326 1.117 0.311h0.192c0.474-0.026 0.845-0.162 1.111-0.407 0.267-0.246 0.418-0.601 0.455-1.066 0.012-0.576-0.137-0.995-0.447-1.254-0.308-0.256-0.684-0.408-1.127-0.457h-0.2c-0.569 0.047-0.981 0.208-1.233 0.482-0.251 0.271-0.385 0.678-0.4 1.221" fill="#110f0d"/></g><g id="g168" transform="translate(36.085 72.711)"><path id="path170" d="m0 0h-2.997v4.549h0.967v-3.717h2.03v-0.832z" fill="#110f0d"/></g><g id="g172" transform="translate(40.244 72.711)"><path id="path174" d="m0 0h-3.502v4.549h3.399v-0.808h-2.432v-1.019h2.268v-0.816h-2.268v-1.09h2.535v-0.816z" fill="#110f0d"/></g><g id="g176" transform="translate(44.183 76.452)"><path id="path178" d="m0 0h-2.237v-1.142h1.919v-0.812h-1.919v-1.787h-0.967v4.549h3.204v-0.808z" fill="#110f0d"/></g><g id="g180" transform="translate(48.215 76.428)"><path id="path182" d="m0 0h-1.345v-3.717h-0.959v3.717h-1.337v0.832h3.641v-0.832z" fill="#110f0d"/></g><g id="g184" transform="translate(223.3 75.23)"><path id="path186" d="m0 0h0.955c0.287 0 0.493 0.052 0.619 0.155 0.126 0.104 0.189 0.272 0.189 0.506 0 0.411-0.248 0.616-0.744 0.616h-1.019v-1.277zm2.985-2.519h-1.043l-0.39 1.11c-0.077 0.226-0.18 0.388-0.31 0.486s-0.293 0.147-0.49 0.147h-0.752v-1.743h-0.967v4.549h2.022c0.167 0 0.323-8e-3 0.469-0.022 0.146-0.015 0.281-0.041 0.404-0.078 0.124-0.037 0.235-0.089 0.334-0.155 0.1-0.066 0.186-0.153 0.257-0.259 0.074-0.106 0.131-0.223 0.171-0.352s0.06-0.273 0.06-0.432c0-0.321-0.085-0.578-0.255-0.772-0.169-0.193-0.406-0.327-0.708-0.402 0.09-0.04 0.172-0.085 0.245-0.135s0.138-0.111 0.197-0.183c0.058-0.072 0.111-0.156 0.159-0.253s0.094-0.205 0.139-0.324l0.458-1.182z" fill="#110f0d"/></g><path id="path188" d="m227.89 72.711h-0.963v4.549h0.963v-4.549z" fill="#110f0d"/><g id="g190" transform="translate(230.88 72.639)"><path id="path192" d="m0 0c-0.329 0-0.628 0.054-0.897 0.161-0.27 0.108-0.501 0.262-0.693 0.462s-0.341 0.446-0.446 0.736c-0.104 0.291-0.157 0.619-0.157 0.985 0 0.35 0.049 0.67 0.145 0.959 0.097 0.289 0.239 0.537 0.426 0.744s0.416 0.368 0.687 0.482c0.27 0.114 0.579 0.171 0.927 0.171 0.281 0 0.539-0.036 0.774-0.107 0.235-0.072 0.439-0.175 0.611-0.309s0.311-0.297 0.416-0.489c0.105-0.193 0.169-0.41 0.193-0.651h-0.959c-0.027 0.231-0.13 0.411-0.311 0.539-0.18 0.129-0.419 0.193-0.716 0.193-0.183 0-0.348-0.034-0.495-0.101-0.148-0.068-0.273-0.167-0.377-0.297-0.103-0.13-0.183-0.29-0.24-0.481s-0.086-0.409-0.086-0.653c0-0.247 0.029-0.466 0.086-0.657s0.139-0.351 0.246-0.481c0.108-0.13 0.237-0.228 0.388-0.295 0.152-0.066 0.321-0.099 0.51-0.099 0.469 0 0.825 0.142 1.066 0.426v0.513h-0.971v0.732h1.927v-2.411h-0.597l-0.12 0.366c-0.156-0.144-0.344-0.252-0.563-0.327-0.219-0.074-0.477-0.111-0.774-0.111" fill="#110f0d"/></g><g id="g194" transform="translate(237.55 72.711)"><path id="path196" d="m0 0h-0.963v1.982h-1.827v-1.982h-0.967v4.549h0.967v-1.763h1.827v1.763h0.963v-4.549z" fill="#110f0d"/></g><g id="g198" transform="translate(241.77 76.428)"><path id="path200" d="m0 0h-1.345v-3.717h-0.959v3.717h-1.337v0.832h3.641v-0.832z" fill="#110f0d"/></g><g id="g202" transform="translate(133.97 47.719)"><path id="path204" d="m0 0c-0.247 0-0.471 0.04-0.673 0.121s-0.375 0.196-0.519 0.346c-0.145 0.15-0.256 0.334-0.334 0.552-0.079 0.218-0.118 0.464-0.118 0.739 0 0.263 0.036 0.502 0.108 0.719 0.073 0.217 0.18 0.403 0.32 0.559 0.14 0.155 0.312 0.275 0.515 0.361 0.203 0.085 0.434 0.128 0.696 0.128 0.21 0 0.404-0.027 0.58-0.081 0.176-0.053 0.328-0.131 0.458-0.231 0.129-0.101 0.233-0.223 0.312-0.367 0.078-0.144 0.127-0.307 0.145-0.488h-0.719c-0.021 0.173-0.098 0.308-0.234 0.405-0.135 0.096-0.314 0.144-0.537 0.144-0.137 0-0.261-0.025-0.371-0.076-0.111-0.05-0.205-0.125-0.282-0.222-0.078-0.098-0.138-0.218-0.181-0.361-0.043-0.144-0.064-0.307-0.064-0.49 0-0.185 0.021-0.349 0.064-0.492 0.043-0.144 0.104-0.264 0.185-0.362 0.081-0.097 0.178-0.171 0.291-0.22 0.114-0.05 0.241-0.075 0.382-0.075 0.353 0 0.619 0.106 0.8 0.319v0.385h-0.728v0.55h1.444v-1.809h-0.447l-0.09 0.274c-0.118-0.107-0.258-0.189-0.422-0.244-0.164-0.056-0.358-0.084-0.581-0.084" fill="#110f0d"/></g><g id="g206" transform="translate(137.85 49.172)"><path id="path208" d="m0 0-0.448 1.4-0.433-1.4h0.881zm1.203-1.4h-0.752l-0.281 0.812h-1.215l-0.268-0.812h-0.723l1.191 3.412h0.803l1.245-3.412z" fill="#110f0d"/></g><g id="g210" transform="translate(143 47.772)"><path id="path212" d="m0 0h-0.654v2.695l-0.812-2.695h-0.662l-0.83 2.695v-2.695h-0.66v3.412h1.044l0.771-2.579 0.764 2.579h1.039v-3.412z" fill="#110f0d"/></g><g id="g214" transform="translate(146.32 47.772)"><path id="path216" d="m0 0h-2.627v3.412h2.549v-0.606h-1.824v-0.764h1.702v-0.612h-1.702v-0.818h1.902v-0.612z" fill="#110f0d"/></g><g id="g218" transform="translate(150.35 49.5)"><path id="path220" d="m0 0-0.547 1.711-0.529-1.711h1.076zm1.47-1.711h-0.919l-0.343 0.992h-1.485l-0.328-0.992h-0.883l1.456 4.17h0.981l1.521-4.17z" fill="#110f0d"/></g><g id="g222" transform="translate(178.08 48.501)"><path id="path224" d="m0 0h0.704c0.236 0 0.413 0.042 0.531 0.128 0.118 0.085 0.176 0.221 0.176 0.408 0 0.095-0.011 0.176-0.035 0.243-0.025 0.067-0.067 0.121-0.125 0.164s-0.135 0.073-0.23 0.093c-0.094 0.02-0.212 0.029-0.354 0.029h-0.667v-1.065zm0 1.784h0.696c0.207 0 0.359 0.036 0.455 0.107 0.096 0.072 0.144 0.198 0.144 0.378 0 0.161-0.047 0.28-0.14 0.359-0.094 0.08-0.259 0.119-0.494 0.119h-0.661v-0.963zm2.324-1.262c0-0.392-0.129-0.695-0.385-0.91-0.257-0.216-0.649-0.323-1.176-0.323h-1.643v4.169h1.62c0.222 0 0.421-0.024 0.599-0.073 0.177-0.048 0.328-0.119 0.452-0.211 0.125-0.093 0.219-0.204 0.285-0.336 0.065-0.131 0.098-0.278 0.098-0.441 0-0.426-0.201-0.728-0.605-0.905 0.255-0.071 0.445-0.191 0.569-0.361s0.186-0.374 0.186-0.609" fill="#110f0d"/></g><g id="g226" transform="translate(162.55 47.719)"><path id="path228" d="m0 0c-0.247 0-0.471 0.04-0.673 0.121s-0.375 0.196-0.519 0.346c-0.145 0.15-0.256 0.334-0.334 0.552-0.079 0.218-0.118 0.464-0.118 0.739 0 0.263 0.036 0.502 0.108 0.719 0.073 0.217 0.18 0.403 0.32 0.559 0.14 0.155 0.312 0.275 0.515 0.361 0.203 0.085 0.434 0.128 0.696 0.128 0.21 0 0.404-0.027 0.58-0.081 0.176-0.053 0.328-0.131 0.458-0.231 0.129-0.101 0.233-0.223 0.312-0.367 0.078-0.144 0.127-0.307 0.145-0.488h-0.719c-0.021 0.173-0.098 0.308-0.234 0.405-0.135 0.096-0.314 0.144-0.537 0.144-0.137 0-0.261-0.025-0.371-0.076-0.111-0.05-0.205-0.125-0.282-0.222-0.078-0.098-0.138-0.218-0.181-0.361-0.043-0.144-0.064-0.307-0.064-0.49 0-0.185 0.021-0.349 0.064-0.492 0.043-0.144 0.104-0.264 0.185-0.362 0.081-0.097 0.178-0.171 0.291-0.22 0.114-0.05 0.241-0.075 0.382-0.075 0.353 0 0.619 0.106 0.8 0.319v0.385h-0.728v0.55h1.444v-1.809h-0.447l-0.09 0.274c-0.118-0.107-0.258-0.189-0.422-0.244-0.164-0.056-0.358-0.084-0.581-0.084" fill="#110f0d"/></g><g id="g230" transform="translate(166.43 49.172)"><path id="path232" d="m0 0-0.448 1.4-0.433-1.4h0.881zm1.203-1.4h-0.752l-0.281 0.812h-1.215l-0.268-0.812h-0.723l1.191 3.412h0.803l1.245-3.412z" fill="#110f0d"/></g><g id="g234" transform="translate(171.59 47.772)"><path id="path236" d="m0 0h-0.654v2.695l-0.812-2.695h-0.662l-0.83 2.695v-2.695h-0.66v3.412h1.044l0.771-2.579 0.764 2.579h1.039v-3.412z" fill="#110f0d"/></g><g id="g238" transform="translate(174.91 47.772)"><path id="path240" d="m0 0h-2.627v3.412h2.549v-0.606h-1.824v-0.764h1.702v-0.612h-1.702v-0.818h1.902v-0.612z" fill="#110f0d"/></g><g id="g242" transform="translate(196.3 50.56)"><path id="path244" d="m0 0h-1.009v-2.788h-0.719v2.788h-1.003v0.624h2.731v-0.624z" fill="#110f0d"/></g><path id="path246" d="m197.49 47.772h-0.722v3.412h0.722v-3.412z" fill="#110f0d"/><g id="g248" transform="translate(201.82 47.772)"><path id="path250" d="m0 0h-0.654v2.695l-0.812-2.695h-0.662l-0.83 2.695v-2.695h-0.66v3.412h1.044l0.771-2.579 0.764 2.579h1.039v-3.412z" fill="#110f0d"/></g><g id="g252" transform="translate(205.14 47.772)"><path id="path254" d="m0 0h-2.627v3.412h2.549v-0.606h-1.824v-0.764h1.702v-0.612h-1.702v-0.818h1.902v-0.612z" fill="#110f0d"/></g><g id="g256" transform="translate(19.836 74.911)"><path id="path258" d="m 0,0 10.98,2.802 0,-5.717 L 0,0 Z" fill="#110f0d"/></g><g id="g260" transform="translate(244.17 71.996)"><path id="path262" d="M 0,0 10.98,2.915 0,5.717" fill="#110f0d"/></g><path id="path264" d="m587.97 1.529h-274.06v179.31h274.06v-179.31z" fill="#7d3d4a"/><path id="path266" d="m580.4 10.108h-262.12v162.36h262.12v-162.36z" fill="#812a3c"/><path id="path268" d="m342.62 185.42h-26.413v-4.588h26.413v4.588z" fill="#3c1a15"/><path id="path270" d="m342.62 185.42h-26.413v-4.588h26.413v4.588z" fill="#812a3c"/><path id="path272" d="m371.2 185.42h-28.334v-4.588h28.334v4.588z" fill="#812a3c"/><path id="path274" d="m558.94 185.42h-27.743v-4.588h27.743v4.588z" fill="#812a3c"/><path id="path276" d="m586.18 185.42h-27.019v-4.588h27.019v4.588z" fill="#812a3c"/><path id="path278" d="m463.39 1.529h-28.334v-1.529h28.334v1.529z" fill="#812a3c"/><g id="g280" transform="translate(576.82 134.42)"><path id="path282" d="m0 0v-0.191l-256 3.487v8.846l256-11.901v-0.241z" fill="#be8a3a"/></g><g id="g284" transform="translate(576.82 168.21)"><path id="path286" d="m0 0v-33.787l-256 12.142v21.645h256z" fill="#5a331c"/></g><g id="g288" transform="translate(576.82 134.42)"><path id="path290" d="m0 0v-13.305l-249.98 6.095-6.017 0.145v10.86h0.656l253.1-3.679 2.246-0.116z" fill="#867b5d"/></g><g id="g292" transform="translate(576.82 96.002)"><path id="path294" d="m0 0v-3.051l-256 5.406v5.855h0.656l255.34-8.21z" fill="#b08333"/></g><g id="g296" transform="translate(576.82 92.951)"><path id="path298" d="m0 0v-11.722l-256 7.127v10.001l256-5.406z" fill="#7f6d57"/></g><g id="g300" transform="translate(320.82 57.77)"><path id="path302" d="m0 0v30.585l256-7.136v-32.625l-256 9.176z" fill="#703e22"/></g><g id="g304" transform="translate(320.82 51.653)"><path id="path306" d="M 0,0 0,6.117 255.978,-3.059 0,0 Z" fill="#9c6727"/></g><g id="g308" transform="translate(320.82 44.007)"><path id="path310" d="m0 0v7.646l256-3.058v-10.705l-256 6.117z" fill="#947d65"/></g><g id="g312" transform="translate(576.82 38.081)"><path id="path314" d="m0 0v-24.869h-256v30.925l256-6.056z" fill="#5a331c"/></g><g id="g316" transform="translate(576.82 121.23)"><path id="path318" d="m0 0v-25.233l-255.34 8.21h-0.656v23.14l6.017-0.145 249.98-5.972z" fill="#462a1c"/></g><path id="path320" d="m577.1 28.778h-8.898v-1.402h8.898v1.402z" fill="#110f0d"/><g id="g322" transform="translate(321.04 28.778)"><path id="path324" d="m0 0v-1.482l169.78 0.08v1.402h-169.78z" fill="#110f0d"/></g><g id="g326" transform="translate(563.8 24.922)"><path id="path328" d="m0 0c-0.908-0.979-2.17-1.56-3.545-1.56h-61.577c-2.758 0-5.02 2.401-5.02 5.383 0 1.491 0.567 2.799 1.475 3.777 0.907 0.979 2.169 1.545 3.545 1.545h61.577c2.758 0 5.02-2.386 5.02-5.368 0-1.491-0.567-2.798-1.475-3.777m-3.609 9.91h-61.449c-1.596 0-3.042-0.639-4.092-1.77-1.049-1.132-1.701-2.602-1.701-4.315 0-3.433 2.602-6.149 5.793-6.149h61.449c1.595 0 3.042 0.638 4.091 1.77 1.05 1.131 1.702 2.601 1.702 4.314 0 3.433-2.602 6.15-5.793 6.15" fill="#110f0d"/></g><g id="g330" transform="translate(506.82 25.096)"><path id="path332" d="m0 0v5.507l-3.365-5.507h-1.033l-0.518 5.482-3.502-5.611h-1.263l4.632 7.475h0.928l0.49-5.639 3.161 5.639h1.732v-7.346h-1.262z" fill="#110f0d"/></g><g id="g334" transform="translate(511.56 24.967)"><path id="path336" d="m0 0c-1.336 0-2.296 0.954-2.296 2.823v4.652h1.264v-4.652c0-1.143 0.396-1.511 1.041-1.511 0.627 0 1.032 0.358 1.032 1.511v4.652h1.264v-4.652c0-1.879-0.959-2.823-2.305-2.823" fill="#110f0d"/></g><g id="g338" transform="translate(515.16 25.096)"><path id="path340" d="m0 0v7.346h1.263v-6.044h2.084v-1.302h-3.347z" fill="#110f0d"/></g><g id="g342" transform="translate(520.81 31.14)"><path id="path344" d="m0 0v-6.044h-1.263v6.044h-1.263v1.302h3.789v-1.302h-1.263z" fill="#110f0d"/></g><path id="path346" d="m522.72 32.442h1.263v-7.346h-1.263v7.346z" fill="#110f0d"/><g id="g348" transform="translate(529.62 24.967)"><path id="path350" d="m0 0c-1.198 0-2.129 0.835-2.24 2.227h1.318c0.056-0.617 0.36-0.915 0.922-0.915 0.544 0 0.922 0.368 0.922 0.895 0 0.298-0.11 0.576-0.313 0.745s-0.277 0.199-1.18 0.567c-0.913 0.368-1.42 1.074-1.42 1.998 0 1.163 0.885 2.088 1.982 2.088s1.954-0.796 2.019-2.088h-1.309c-0.037 0.497-0.295 0.775-0.719 0.775-0.415 0-0.701-0.308-0.701-0.745 0-0.268 0.129-0.497 0.378-0.666 0.092-0.06 0.111-0.07 0.756-0.328 1.383-0.557 1.761-1.203 1.761-2.197 0-1.332-0.95-2.356-2.176-2.356" fill="#110f0d"/></g><g id="g352" transform="translate(535.91 24.967)"><path id="path354" d="m0 0c-1.992 0-3.586 1.71-3.586 3.827 0 2.078 1.576 3.778 3.503 3.778 1.401 0 2.627-0.816 3.226-2.237h-1.41c-0.461 0.646-0.996 0.924-1.788 0.924-1.3 0-2.258-1.093-2.258-2.475 0-1.372 1.031-2.505 2.285-2.505 0.655 0 1.134 0.239 1.687 0.865h1.484c-0.534-1.342-1.751-2.177-3.143-2.177" fill="#110f0d"/></g><g id="g356" transform="translate(541.69 31.14)"><path id="path358" d="m0 0h-0.562v-2.207h0.617c0.977 0 1.392 0.338 1.392 1.113 0 0.657-0.248 1.094-1.447 1.094m1.226-6.044-1.788 2.813v-2.813h-1.263v7.346h1.963c0.931 0 1.42-0.139 1.863-0.547 0.47-0.427 0.718-1.063 0.718-1.809 0-1.143-0.552-1.948-1.779-2.276l1.844-2.714h-1.558z" fill="#110f0d"/></g><g id="g360" transform="translate(545.21 25.096)"><path id="path362" d="m0 0v7.346h3.66v-1.302h-2.397v-1.73h2.296v-1.302h-2.296v-1.71h2.397v-1.302h-3.66z" fill="#110f0d"/></g><g id="g364" transform="translate(550 25.096)"><path id="path366" d="m0 0v7.346h3.66v-1.302h-2.397v-1.73h2.296v-1.302h-2.296v-1.71h2.397v-1.302h-3.66z" fill="#110f0d"/></g><g id="g368" transform="translate(558.91 25.096)"><path id="path370" d="m0 0-2.849 5.338v-5.338h-1.263v7.346h1.438l2.822-5.348v5.348h1.262v-7.346h-1.41z" fill="#110f0d"/></g><g id="g372" transform="translate(352.12 127.36)"><path id="path374" d="m0 0h14.004c0.159 0 0.319-3e-3 0.478 0.012 0.733 0.069 1.282 0.579 1.379 1.292 0.027 0.204 0.021 0.415 0.021 0.622 1e-3 8.145 1e-3 16.289 1e-3 24.434 0 0.134 0 0.269-6e-3 0.403-0.052 1.172-0.653 1.792-1.735 1.792h-28.042c-1.357 0-1.997-0.681-1.997-2.123v-24.47c0-0.11-3e-3 -0.22 2e-3 -0.33 0.041-0.81 0.504-1.409 1.248-1.57 0.264-0.057 0.542-0.059 0.814-0.06 4.611-3e-3 9.222-2e-3 13.833-2e-3m-16.239 1.33v25.757c0.195 0.844 0.624 1.458 1.435 1.705 0.116 0.035 0.228 0.086 0.342 0.13h29.173c1.138-0.513 1.503-1.113 1.503-2.473 0-8.254 0-16.509-1e-3 -24.764 0-0.158 2e-3 -0.32-0.025-0.474-0.175-0.972-0.902-1.568-1.908-1.568-9.496-1e-3 -18.992-1e-3 -28.487-1e-3 -0.057 0-0.114-1e-3 -0.171 2e-3 -0.861 0.043-1.512 0.58-1.772 1.459-0.023 0.078-0.059 0.151-0.089 0.227" fill="#231f20"/></g><g id="g376" transform="translate(361.88 136.76)"><path id="path378" d="m0 0h1.184v-2.996h2.144v2.986h1.208v-7.499h-1.182v3.168h-2.164v-3.167h-1.19v7.508z" fill="#231f20"/></g><g id="g380" transform="translate(361.5 131.26)"><path id="path382" d="m0 0c-0.538-1.464-2.326-2.397-3.91-2.078-1.703 0.342-2.947 1.935-2.999 3.839-0.05 1.841 1.177 3.517 2.884 3.939 1.587 0.392 3.382-0.508 4.026-2.058-0.45 0-0.879-7e-3 -1.307 8e-3 -0.075 2e-3 -0.154 0.093-0.22 0.157-0.867 0.83-1.999 0.968-2.969 0.359-0.955-0.599-1.43-1.787-1.184-2.964 0.234-1.127 1.142-1.98 2.251-2.084 0.696-0.065 1.324 0.156 1.846 0.658 0.179 0.173 0.352 0.24 0.584 0.228 0.32-0.016 0.642-4e-3 0.998-4e-3" fill="#231f20"/></g><g id="g384" transform="translate(353.55 129.24)"><path id="path386" d="m0 0h-1.197v6.237h-1.351v1.275h3.873v-1.245h-1.325v-6.267z" fill="#231f20"/></g><g id="g388" transform="translate(349.28 134.42)"><path id="path390" d="m0 0c-0.494-0.801-0.931-1.509-1.393-2.259h1.393v2.259zm1.208 2.366v-7.524h-1.18v1.585c-0.473 0-0.923-0.051-1.358 0.012-0.657 0.094-1.105-0.13-1.357-0.794-0.266-0.701-0.739-0.979-1.433-0.834-0.141 0.029-0.292 4e-3 -0.495 4e-3 0.081 0.151 0.132 0.255 0.191 0.352 1.412 2.291 2.829 4.578 4.23 6.877 0.154 0.253 0.316 0.35 0.585 0.327 0.261-0.022 0.524-5e-3 0.817-5e-3" fill="#231f20"/></g><g id="g392" transform="translate(338.28 129.23)"><path id="path394" d="m0 0v7.526h1.161v-5.041c0.024-0.012 0.049-0.025 0.073-0.037 0.068 0.1 0.14 0.197 0.204 0.3 0.916 1.486 1.839 2.968 2.742 4.464 0.158 0.262 0.322 0.379 0.61 0.348 0.25-0.026 0.504-5e-3 0.786-5e-3v-5.067c0.024-0.013 0.048-0.026 0.072-0.038 0.068 0.098 0.14 0.194 0.203 0.296 0.929 1.506 1.861 3.011 2.782 4.525 0.128 0.21 0.264 0.303 0.5 0.289 0.35-0.021 0.701-5e-3 1.109-5e-3 -0.1-0.175-0.162-0.289-0.23-0.399-1.406-2.282-2.816-4.56-4.212-6.848-0.147-0.24-0.299-0.336-0.558-0.313-0.261 0.023-0.525 5e-3 -0.826 5e-3v5.059c-0.026 0.012-0.053 0.024-0.08 0.037-0.067-0.103-0.135-0.205-0.199-0.309-0.91-1.476-1.828-2.947-2.723-4.433-0.165-0.276-0.34-0.392-0.638-0.36-0.248 0.028-0.5 6e-3 -0.776 6e-3" fill="#231f20"/></g><g id="g396" transform="translate(351.05 143.67)"><path id="path398" d="m0 0c6e-3 -0.242 0.373-0.74 0.547-0.743 0.188-4e-3 0.543 0.48 0.544 0.741 2e-3 0.282-0.256 0.512-0.57 0.507-0.309-5e-3 -0.528-0.217-0.521-0.505m0.465-2.247c-0.272-0.247-0.543-0.443-0.756-0.697-0.471-0.559-0.252-1.502 0.386-1.76 0.707-0.286 1.535 0.192 1.688 0.986 0.014 0.073-0.038 0.188-0.093 0.245-0.39 0.401-0.789 0.792-1.225 1.226m0.933 0.65c0.286-0.283 0.572-0.565 0.896-0.885 0.182 0.436 0.359 0.832 0.513 1.239 0.075 0.2 0.174 0.289 0.382 0.274 0.282-0.02 0.567-5e-3 0.908-5e-3 -0.284-0.692-0.533-1.341-0.818-1.971-0.127-0.282-0.1-0.451 0.124-0.656 0.47-0.433 0.914-0.899 1.389-1.372-0.249-0.291-0.479-0.561-0.727-0.852-0.474 0.469-0.929 0.919-1.408 1.393-0.497-1.142-1.315-1.645-2.44-1.491-0.831 0.113-1.446 0.6-1.705 1.473-0.38 1.282 0.091 2.243 1.096 2.939-0.848 1.19-0.907 2.038-0.211 2.716 0.645 0.628 1.697 0.606 2.324-0.05 0.673-0.703 0.569-1.615-0.323-2.752" fill="#231f20"/></g><g id="g400" transform="translate(362.29 154.11)"><path id="path402" d="m0 0h3.595v-1.26h-2.394v-1.927h2.402v-1.283h-2.399v-1.766h2.394v-1.273h-3.598v7.509z" fill="#231f20"/></g><g id="g404" transform="translate(356.87 154.13)"><path id="path406" d="m0 0v-5.06c0.024-0.012 0.048-0.024 0.071-0.037 0.066 0.104 0.133 0.207 0.198 0.312 0.872 1.414 1.762 2.816 2.605 4.25 0.248 0.422 0.517 0.611 0.967 0.54 0.177-0.028 0.36-5e-3 0.559-5e-3v-7.531h-1.161v5.046c-0.024 0.012-0.048 0.024-0.071 0.036-0.068-0.102-0.14-0.201-0.204-0.306-0.923-1.496-1.85-2.991-2.763-4.494-0.134-0.221-0.268-0.336-0.523-0.312-0.272 0.027-0.548 6e-3 -0.851 6e-3v5.071c-0.023 0.013-0.047 0.026-0.07 0.038-0.068-0.099-0.139-0.196-0.202-0.298-0.929-1.507-1.861-3.013-2.781-4.527-0.129-0.211-0.265-0.301-0.5-0.286-0.351 0.022-0.704 6e-3 -1.109 6e-3 0.089 0.155 0.145 0.257 0.206 0.356 1.406 2.283 2.817 4.561 4.213 6.851 0.158 0.26 0.321 0.381 0.609 0.35 0.25-0.027 0.504-6e-3 0.807-6e-3" fill="#231f20"/></g><g id="g408" transform="translate(348.07 149.51)"><path id="path410" d="m0 0h1.372v2.227c-0.481-0.781-0.915-1.486-1.372-2.227m2.59-2.916h-1.182v1.587c-0.736 0-1.444 6e-3 -2.151-0.01-0.074-2e-3 -0.159-0.128-0.214-0.215-0.241-0.378-0.482-0.756-0.703-1.148-0.104-0.184-0.227-0.244-0.419-0.236-0.366 0.014-0.732 4e-3 -1.15 4e-3 0.08 0.144 0.132 0.248 0.193 0.346 1.411 2.293 2.828 4.582 4.23 6.881 0.153 0.251 0.315 0.353 0.586 0.329 0.261-0.023 0.525-5e-3 0.81-5e-3v-7.533z" fill="#231f20"/></g><g id="g412" transform="translate(341.95 149.07)"><path id="path414" d="m0 0v1.229h3.575c0.203-1.786-1.245-3.648-3.087-3.984-1.893-0.345-3.778 1.062-4.166 3.111-0.399 2.107 0.798 4.171 2.714 4.674 1.738 0.457 3.78-0.616 4.214-2.252-0.385 0-0.761-0.014-1.134 0.01-0.091 6e-3 -0.186 0.127-0.26 0.214-0.791 0.931-1.99 1.203-3.021 0.68-1.01-0.512-1.609-1.689-1.46-2.866 0.156-1.224 1.009-2.163 2.162-2.378 0.991-0.185 2.087 0.369 2.59 1.31 0.032 0.061 0.051 0.129 0.1 0.252h-1.133-1.094z" fill="#231f20"/></g><g id="g416" transform="translate(338.35 123.97)"><path id="path418" d="m0 0h0.441 0.245 0.246 0.245-0.245 0.245l1.83-3.029v3.029h0.488 0.247 0.244 0.244-0.244 0.244v-0.526-0.263-0.658-0.264-0.395-0.266-0.523-0.398-0.526-0.263-0.395h-0.61-0.244-0.244-0.05l-1.905 3.29v-0.919-0.266-0.657-0.264-0.395-0.394-0.395h-0.611-0.247-0.243-0.076v4.477z" fill="#110f0d"/></g><g id="g420" transform="translate(342.91 122.48)"><path id="path422" d="m0 0h0.493 0.247 0.247 0.246-0.246 0.376l-5e-3 -2.999h-0.616-0.246-0.247-0.247 0.247-0.247l-2e-3 2.999zm0 1.462h0.615 0.247 0.247 0.246-0.246 0.246v-0.664-0.266 0.266-0.266h-0.615-0.247-0.246-0.247 0.247-0.247v0.93-0.266 0.266z" fill="#110f0d"/></g><g id="g424" transform="translate(346.94 122.71)"><path id="path426" d="m0 0c0.9 0.078 1.361-0.278 1.384-1.07v-0.134 0.067 0.067-0.268 0.134-0.134-0.67-0.268-0.269-0.269-0.403h-0.496-0.249-0.249-0.25 0.25-0.25v2.147c2e-3 0.282-0.18 0.439-0.545 0.471-0.258 0.02-0.451-0.092-0.579-0.336v-0.538-0.266-0.672-0.269-0.537h-0.621-0.249-0.249-0.146v3.088h0.395 0.249 0.25 0.246-0.246 0.376l-3e-3 -0.375c0.277 0.291 0.605 0.459 0.982 0.504" fill="#110f0d"/></g><g id="g428" transform="translate(349.41 123.44)"><path id="path430" d="m0 0h1.176v-0.635h0.47 0.237-0.237 0.237v-0.51h-0.47-0.237v-0.507-0.255-0.509-0.255-0.636-0.255-0.381h-0.47-0.236-0.234-0.236 0.236-0.236v2.798h-0.706v0.51h0.47 0.236v0.635z" fill="#110f0d"/></g><g id="g432" transform="translate(353.1 122.34)"><path id="path434" d="m0 0c-0.301-0.017-0.456-0.268-0.465-0.753h0.449 0.226 0.226c-3e-3 0.463-0.149 0.714-0.436 0.753m-0.016 0.342c1.024-0.034 1.559-0.562 1.608-1.583h-0.366-0.226-0.564-0.226-0.337-0.338c-0.015-0.677 0.061-1.061 0.229-1.15 0.167-0.088 0.334-0.077 0.498 0.033 0.168 0.11 0.235 0.362 0.2 0.754h0.426 0.226 0.226 0.226-0.226 0.226c-0.154-0.671-0.478-1.063-0.972-1.176-0.493-0.114-0.956-0.081-1.389 0.1-0.431 0.183-0.711 0.601-0.841 1.255l-3e-3 0.218c0.128 0.986 0.67 1.502 1.623 1.549" fill="#110f0d"/></g><g id="g436" transform="translate(357.14 122.71)"><path id="path438" d="m0 0c0.9 0.078 1.361-0.278 1.384-1.07v-0.134 0.067 0.067-0.268 0.134-0.134-0.67-0.268-0.269-0.269-0.403h-0.496-0.249-0.249-0.25 0.25-0.25v2.147c2e-3 0.282-0.18 0.439-0.545 0.471-0.258 0.02-0.451-0.092-0.579-0.336v-0.538-0.266-0.672-0.269-0.537h-0.621-0.249-0.249-0.146v3.088h0.395 0.249 0.25 0.246-0.246 0.376l-3e-3 -0.375c0.277 0.291 0.605 0.459 0.982 0.504" fill="#110f0d"/></g><g id="g440" transform="translate(360.71 122.34)"><path id="path442" d="m0 0c-0.325-0.015-0.494-0.287-0.506-0.815v-0.845c0.026-0.52 0.198-0.791 0.516-0.815 0.312 0.035 0.465 0.185 0.46 0.45v1.476c0.024 0.334-0.132 0.517-0.47 0.549m0.455 1.767h0.488 0.241 0.245 0.243-0.243 0.243v-0.526-0.261-0.655-0.263-0.392-0.264-0.523-0.395-0.524-0.263-0.555h-1.22l-3e-3 0.107c-0.095-0.08-0.385-0.111-0.869-0.092-0.496 0.011-0.859 0.181-1.091 0.509-0.232 0.331-0.333 0.689-0.304 1.076 5e-3 0.354 0.098 0.676 0.278 0.965 0.18 0.29 0.525 0.504 1.034 0.642 0.482 0.035 0.802-0.018 0.958-0.16v1.574z" fill="#110f0d"/></g><g id="g444" transform="translate(364.32 122.29)"><path id="path446" d="m0 0c-0.344-0.011-0.521-0.254-0.53-0.728v-0.935c0.025-0.463 0.205-0.707 0.54-0.731 0.333 0.033 0.496 0.283 0.489 0.748v0.907c-9e-3 0.489-0.175 0.735-0.499 0.739m-1.706-1.092c0.045 0.558 0.222 0.948 0.532 1.17 0.31 0.223 0.682 0.326 1.117 0.311h0.192c0.474-0.026 0.845-0.162 1.111-0.407 0.267-0.246 0.418-0.601 0.455-1.066 0.012-0.576-0.137-0.995-0.447-1.254-0.308-0.256-0.684-0.408-1.127-0.457h-0.2c-0.569 0.047-0.981 0.208-1.233 0.482-0.251 0.271-0.385 0.678-0.4 1.221" fill="#110f0d"/></g></g></g></g></svg>
