<?xml version="1.0" encoding="UTF-8"?>
<!-- Generator: Adobe Illustrator 19.0.0, SVG Export Plug-In . SVG Version: 6.00 Build 0)  -->
<svg id="Layer_1" width="773.61" height="342.6" version="1.1" viewBox="0 0 773.61 342.6" xml:space="preserve" xmlns="http://www.w3.org/2000/svg" xmlns:cc="http://creativecommons.org/ns#" xmlns:dc="http://purl.org/dc/elements/1.1/" xmlns:rdf="http://www.w3.org/1999/02/22-rdf-syntax-ns#"><metadata id="metadata642"><rdf:RDF><cc:Work rdf:about=""><dc:format>image/svg+xml</dc:format><dc:type rdf:resource="http://purl.org/dc/dcmitype/StillImage"/><dc:title/></cc:Work></rdf:RDF></metadata><path id="path3" d="m1020.6 444.1" fill="#181515"/><g id="g5"><rect id="rect7" width="549" height="342.6" fill="#2d2a2a"/><polygon id="polygon9" points="9 342.6 0 342.6 0 0 20 0 20 214.3 9 234.4" fill="#231e1e"/><polygon id="polygon11" points="540 342.6 549 342.6 549 0 529 0 528.9 214.1 540 234.4" fill="#231e1e"/><path id="path13" d="m239.6 221.7h-210.4c-4.6 0-8.4-3.3-9.1-7.7l-11.1 20.4c3.3 4.3 9.7 7.3 14.5 5.8 5.7-1.8 8.3-7 8.3-14.5h110.2v0.2c0.1 7.1 2.6 12 8.3 13.8h89.3c15.5-0.3 18.3 1.7 26.7 10.9 22.6 26.8 60.5 44.4 103.4 44.4 43 0 80.9-17.6 103.4-44.4 5.4-6.4 6.6-9.3 15-10.1 10.3-0.9 48 0 51.9-6.1l-11.1-20.3c-0.8 4.3-4.6 7.7-9.1 7.7-11.6 0.7-26.8-0.3-29.4 3.4-16 22.2-54.9 62.2-119.2 62.2s-90.5-29.4-116.4-57.1c-5.7-6.8-6.4-8.8-15.2-8.6" fill="#181515"/><path id="path15" d="m519.6 221.8c-11.6 0.7-29.6-0.3-32.2 3.4-16 22.2-52.2 62.2-116.6 62.2s-90.6-29.4-116.6-57.1c-5.7-6.7-6.4-8.7-15.2-8.5h-210.7c-5.1 0-9.3-4.2-9.3-9.3v-212.5h509.9v212.5c0 5.1-4.2 9.2-9.3 9.3" fill="#312f2f"/><path id="path17" d="m528.8 217.1" fill="none" stroke="#d6d5d5" stroke-miterlimit="10"/><path id="path19" d="m36.2 317.5-10.9-78c3.2-1.6 5.2-4.5 6.1-8.5l4.8 86.5z" fill="#181515"/><path id="path21" d="m138.7 317.5 3.3-91.6c0.1 7.1 2.6 12 8.3 13.8l-11.6 77.8z" fill="#181515"/><g id="g23"><rect id="rect25" x="49.9" y="243.5" width="19.3" height="69.5"/><rect id="rect27" x="50.6" y="244.2" width="6.5" height="68.9" fill="#1b1818"/><rect id="rect29" x="61.9" y="244.2" width="6.5" height="68.9" fill="#1b1818"/><g id="g31"><rect id="rect33" x="52.4" y="248" width="14.2" height="6.9" fill="#2b2828"/><rect id="rect35" x="52.4" y="262.4" width="14.2" height=".4" fill="#3c3b3b"/><rect id="rect37" x="52.4" y="267.2" width="14.2" height="10.1" fill="#3f3f3e"/><rect id="rect39" x="52.4" y="254.9" width="14.2" height="7.5" fill="#333030"/><rect id="rect41" x="52.4" y="249.1" width="14.2" height=".8" fill="#5d1314"/><rect id="rect43" x="52.4" y="262.9" width="14.2" height=".9" fill="#414040"/><rect id="rect45" x="52.4" y="263.7" width="14.2" height=".4" fill="#464646"/><rect id="rect47" x="52.4" y="264.2" width="14.2" height=".4" fill="#535353"/><rect id="rect49" x="52.4" y="264.6" width="14.2" height=".4" fill="#5f5f5f"/><rect id="rect51" x="52.4" y="265" width="14.2" height=".4" fill="#6a6a6a"/><rect id="rect53" x="52.4" y="265.5" width="14.2" height=".4" fill="#707070"/><rect id="rect55" x="52.4" y="265.9" width="14.2" height=".4" fill="#6a6969"/><rect id="rect57" x="52.4" y="266.4" width="14.2" height=".4" fill="#5a5a5a"/><rect id="rect59" x="52.4" y="266.8" width="14.2" height=".4" fill="#484848"/></g><polygon id="polygon61" points="49.9 243.5 47.4 239.8 71.6 239.8 69.1 243.5" fill="#0d0d0c"/><polygon id="polygon63" points="49.9 313.1 47.4 316.8 71.6 316.8 69.1 313.1" fill="#4e4b4a"/><polygon id="polygon65" points="47.4 316.8 47.4 239.8 49.9 243.5 49.9 313.1" fill="#211e1d"/><polygon id="polygon67" points="71.6 316.8 71.6 239.8 69.1 243.5 69.1 313.1" fill="#211e1d"/></g><g id="g69"><path id="path71" d="m116.6 248.1" fill="none" stroke="#5d1314" stroke-miterlimit="10"/><path id="path73" d="m116.6 255.8" fill="none" stroke="#5d1314" stroke-miterlimit="10"/><path id="path75" d="m127.3 255.8" fill="none" stroke="#5d1314" stroke-miterlimit="10"/><g id="g77"><rect id="rect79" x="100.3" y="248" width="9.2" height="7.6" fill="#414748"/><polygon id="polygon81" points="100.3 248 89.7 243.8 120.1 243.8 109.5 248" fill="#262323"/><polygon id="polygon83" points="89.7 259.7 89.7 243.8 100.3 248 100.3 255.6" fill="#33302f"/><polygon id="polygon85" points="100.3 255.6 89.7 259.7 120.1 259.7 109.5 255.6" fill="#262323"/><path id="path87" d="m105 257.8c-0.3 0-0.5-0.2-0.5-0.4v-11.2c0-0.2 0.2-0.4 0.4-0.4h0.1c0.2 0 0.4 0.2 0.4 0.4v11.2c-0.1 0.2-0.2 0.4-0.4 0.4z" fill="#5d1314"/><polygon id="polygon89" points="120.1 259.7 120.1 243.8 109.5 248 109.5 255.6" fill="#33302f"/></g><rect id="rect91" x="120.1" y="243.8" width="7.7" height="15.9" fill="#282828"/><polygon id="polygon93" points="89.7 243.8 86.9 241.1 130.7 241.1 127.8 243.8" fill="#0d0d0c"/><polygon id="polygon95" points="89.7 259.7 86.9 262.5 130.7 262.5 127.8 259.7" fill="#4e4b4a"/><polygon id="polygon97" points="89.7 259.7 89.7 243.8 86.9 241.1 86.9 262.5" fill="#211e1d"/><polygon id="polygon99" points="127.8 259.7 127.8 243.8 130.7 241.1 130.7 262.5" fill="#211e1d"/><g id="g101" fill="#c4c4c4"><path id="path103" d="m86.3 265.9c0-0.4 0.1-0.8 0.2-1.1 0.1-0.2 0.2-0.4 0.4-0.6s0.4-0.3 0.6-0.4c0.3-0.1 0.6-0.2 0.9-0.2 0.6 0 1.1 0.2 1.5 0.6s0.6 0.9 0.6 1.6-0.2 1.2-0.6 1.6-0.9 0.6-1.5 0.6-1.1-0.2-1.5-0.6c-0.4-0.3-0.6-0.8-0.6-1.5zm0.9-0.1c0 0.5 0.1 0.9 0.3 1.1 0.2 0.3 0.5 0.4 0.9 0.4s0.6-0.1 0.9-0.4c0.2-0.3 0.3-0.6 0.3-1.1s-0.1-0.9-0.3-1.1-0.5-0.4-0.9-0.4-0.6 0.1-0.9 0.4c-0.2 0.3-0.3 0.7-0.3 1.1z"/><path id="path105" d="m91.2 268v-4.3h0.8l1.8 2.9v-2.9h0.8v4.3h-0.9l-1.7-2.8v2.8h-0.8z"/></g><g id="g107" fill="#c4c4c4"><path id="path109" d="m119.3 265.9c0-0.4 0.1-0.8 0.2-1.1 0.1-0.2 0.2-0.4 0.4-0.6s0.4-0.3 0.6-0.4c0.3-0.1 0.6-0.2 0.9-0.2 0.6 0 1.1 0.2 1.5 0.6s0.6 0.9 0.6 1.6-0.2 1.2-0.6 1.6-0.9 0.6-1.5 0.6-1.1-0.2-1.5-0.6c-0.4-0.3-0.6-0.8-0.6-1.5zm0.9-0.1c0 0.5 0.1 0.9 0.3 1.1 0.2 0.3 0.5 0.4 0.9 0.4s0.6-0.1 0.9-0.4c0.2-0.3 0.3-0.6 0.3-1.1s-0.1-0.9-0.3-1.1-0.5-0.4-0.9-0.4-0.6 0.1-0.9 0.4c-0.2 0.3-0.3 0.7-0.3 1.1z"/><path id="path111" d="m124.2 268v-4.3h2.9v0.7h-2.1v1h1.8v0.7h-1.8v1.8h-0.8z"/><path id="path113" d="m127.9 268v-4.3h2.9v0.7h-2.1v1h1.8v0.7h-1.8v1.8h-0.8z"/></g></g><g id="g115"><g id="g117" fill="#c4c4c4"><rect id="rect119" x="42.6" y="246.2" width="2.9" height="1"/><rect id="rect121" x="42.6" y="249.6" width="2.9" height="1"/><rect id="rect123" x="42.6" y="253" width="2.9" height="1"/><rect id="rect125" x="42.6" y="255.9" width="2.9" height="1"/><rect id="rect127" x="42.6" y="259.3" width="2.9" height="1"/><rect id="rect129" x="42.6" y="262.7" width="2.9" height="1"/><rect id="rect131" x="42.5" y="266" width="2.9" height="1"/><rect id="rect133" x="42.6" y="269.2" width="2.9" height="1"/><rect id="rect135" x="42.6" y="272.4" width="2.9" height="1"/><rect id="rect137" x="42.6" y="275.7" width="2.9" height="1"/><rect id="rect139" x="42.6" y="279.1" width="2.9" height="1"/></g><g id="g141" fill="#c4c4c4"><path id="path143" d="m38.7 248.4h-0.7v-2.6c-0.3 0.2-0.5 0.4-0.9 0.5v-0.6l0.6-0.3c0.2-0.2 0.4-0.4 0.4-0.6h0.6v3.6z"/><path id="path145" d="m40.9 244.8c0.3 0 0.6 0.1 0.8 0.4s0.3 0.8 0.3 1.5-0.1 1.2-0.4 1.5c-0.2 0.2-0.5 0.4-0.8 0.4s-0.6-0.1-0.8-0.4-0.3-0.7-0.3-1.4 0.1-1.2 0.4-1.5c0.1-0.4 0.4-0.5 0.8-0.5zm0 0.6c-0.1 0-0.2 0-0.2 0.1s-0.1 0.1-0.2 0.3c0 0.2-0.1 0.5-0.1 0.9s0 0.7 0.1 0.9 0.1 0.3 0.2 0.3c0.1 0.1 0.1 0.1 0.2 0.1s0.2 0 0.2-0.1 0.1-0.1 0.2-0.3c0-0.2 0.1-0.5 0.1-0.9s0-0.7-0.1-0.9-0.1-0.3-0.2-0.3c-0.1-0.1-0.2-0.1-0.2-0.1z"/></g><g id="g147"><path id="path149" d="m39.6 263.9 0.7-0.1c0 0.2 0.1 0.3 0.2 0.4s0.2 0.1 0.3 0.1 0.3-0.1 0.4-0.2 0.1-0.3 0.1-0.5 0-0.4-0.1-0.5-0.2-0.2-0.4-0.2-0.4 0.1-0.5 0.3l-0.6-0.1 0.4-1.9h1.8v0.6h-1.3l-0.1 0.6c0.2-0.1 0.3-0.1 0.5-0.1 0.3 0 0.6 0.1 0.8 0.3s0.3 0.5 0.3 0.9c0 0.3-0.1 0.6-0.3 0.8-0.2 0.3-0.6 0.5-1 0.5-0.3 0-0.6-0.1-0.8-0.3s-0.4-0.3-0.4-0.6z" fill="#c4c4c4"/></g><g id="g151"><path id="path153" d="m40.7 277.8c0.3 0 0.6 0.1 0.8 0.4s0.3 0.8 0.3 1.5-0.1 1.2-0.4 1.5c-0.2 0.2-0.5 0.4-0.8 0.4s-0.6-0.1-0.8-0.4-0.3-0.7-0.3-1.4 0.1-1.2 0.4-1.5c0.2-0.4 0.5-0.5 0.8-0.5zm0 0.5c-0.1 0-0.2 0-0.2 0.1s-0.1 0.1-0.2 0.3c0 0.2-0.1 0.5-0.1 0.9s0 0.7 0.1 0.9 0.1 0.3 0.2 0.3c0.1 0.1 0.1 0.1 0.2 0.1s0.2 0 0.2-0.1 0.1-0.1 0.2-0.3c0-0.2 0.1-0.5 0.1-0.9s0-0.7-0.1-0.9-0.1-0.3-0.2-0.3c0 0-0.1-0.1-0.2-0.1z" fill="#c4c4c4"/></g></g><path id="path155" d="m70.5 41h-70.5v157.9h70.5c3.3 0 6-2.7 6-6v-145.9c0-3.3-2.7-6-6-6z" fill="#1e1b1b"/><g id="g157"><path id="path159" d="m71.5 52.3h-71.5v-6.2h71.5c0.5 0 0.9 0.4 0.9 0.9v4.3c0 0.6-0.4 1-0.9 1z" fill="#070606"/><path id="path161" d="m71.1 51.2h-52.1v-6h52.1c0.5 0 0.9 0.4 0.9 0.9v4.1c0.1 0.6-0.3 1-0.9 1z" fill="#282424"/><rect id="rect163" y="45.2" width="19" height="6" fill="#1e1b1b"/><rect id="rect165" y="45.2" width="19" height=".9" fill="#252222"/><path id="path167" d="m72.1 46.1h-53.1v-0.9h52.1c0.6 0 1 0.4 1 0.9z" fill="#3c3939"/></g><path id="path169" d="m469.4 242.9" fill="none" stroke="#d6d5d5" stroke-miterlimit="10"/><path id="path171" d="m366.1 269.4" fill="none" stroke="#d6d5d5" stroke-miterlimit="10"/><ellipse id="ellipse173" cx="370.8" cy="143.7" rx="140.5" ry="141" fill="#1b1818"/><ellipse id="ellipse175" cx="370.2" cy="140.5" rx="121.2" ry="116.7" fill="#2c2929"/><g id="g177"><polygon id="polygon179" points="350.5 116.8 341 130.6 288.2 130.6 277.5 136.9 277.5 151.7 288.9 158.4 451.5 158.4 462.9 151.7 462.9 137 452.1 130.6 398.6 130.6 388.9 116.8" fill="#d2d2d2"/><g id="g181" fill="#1b1d1f"><path id="path11" d="m362.7 127.3c0 0.7 0.6 1.3 1.3 1.3h5.2v-1.6h-4.9v-0.5h3.9v-1.6h-5.5v2.4z"/><path id="path184" d="m362.7 122c0-0.7 0.6-1.3 1.3-1.3h5.2v1.6h-4.9v0.5h3.9v1.6h-5.5v-2.4z"/><polygon id="polygon15" points="390.2 140.2 396.3 136 396.3 136 414.6 136 408.5 140.1 397.6 140.1 397.6 142.6 414.2 142.6 414.2 149.3 408.3 153.4 390 153.4 396 149.3 406.8 149.3 406.8 146.7 390.2 146.7"/><polygon id="polygon17" points="416.5 153.4 416.5 136 416.5 136 424 136 424 153.4"/><polygon id="polygon19" points="426.8 140.2 433 136 433 136 451.2 136 445.2 140.1 434.3 140.1 434.3 142.6 450.9 142.6 450.9 149.3 444.9 153.4 426.6 153.4 432.7 149.3 443.4 149.3 443.4 146.7 426.8 146.7"/><polygon id="polygon21" points="366.6 140 366.6 140 366.6 153.4 384.6 153.4 390.7 149.3 374 149.3 374 146.7 381.2 146.7 387.2 142.6 374 142.6 374 140.1 384.8 140.1 390.8 136 373.1 136"/><polygon id="polygon23" points="314.5 140 314.5 140 314.5 153.4 332.5 153.4 338.6 149.3 321.9 149.3 321.9 146.7 329.1 146.7 335.1 142.6 321.9 142.6 321.9 140.1 332.7 140.1 338.7 136 321 136"/><polygon id="polygon25" points="364.5 136 364.5 153.4 357.1 153.4 357.1 147.6 347.8 141.8 347.8 153.4 340.4 153.4 340.4 136 347.9 136 357.1 141.1 357.1 136 357.1 136"/><polygon id="polygon27" points="288.4 153.4 288.4 140.2 288.4 140.2 294.6 136 314.8 136 308.8 140.1 295.9 140.1 295.9 149.3 305.1 149.3 305.1 146.7 297.5 146.7 303.6 142.6 312.6 142.6 312.6 149.5 306.9 153.4"/><path id="path29" d="m363.7 118.5c-1.8 0-3.2 1.5-3.2 3.3v5.7c0 1.8 1.4 3.3 3.2 3.3h5.4v-1.6h-5.3c-0.9 0-1.8-0.9-1.8-1.8v-5.4c0-0.9 0.8-1.8 1.8-1.8h5.3v-1.6l-5.4-0.1z"/><path id="path31" d="m374 127v-4.7h5.2v-1.6h-5.5c-0.7 0-1.3 0.6-1.3 1.3v5.3c0 0.7 0.6 1.3 1.3 1.3h3.3v-3.7h-2.5v1.6h0.9v0.5h-1.4z"/><path id="path33" d="m359 118.5h-5.2c-2.2 0-4 1.8-4 4s1.8 4 4 3.9h1.6v0.5h-5.5v1.6h5.3c1 0 1.8-0.8 1.8-1.8s-0.8-1.8-1.8-1.8h-1.4c-1.3 0-2.4-1.1-2.4-2.4s1.1-2.4 2.4-2.4h5.2v-1.6z"/><path id="path35" d="m359 122.3h-5.4v0.5h1.6c2.2 0 4 1.8 4 4s-1.8 4-4 4h-5.3v-1.6h5.3c1.3 0 2.4-1.1 2.4-2.4s-1.1-2.4-2.4-2.4h-1.4c-1 0-1.8-0.8-1.8-1.8s0.8-1.8 1.8-1.8h5.2v1.5z"/><path id="path37" d="m385.2 120.4c-0.1-0.2-0.1-0.2-0.3-0.2s-0.2 0.1-0.3 0.2l-3.3 10.3h1.7l1.9-5.7 0.6 1.9h-1.2v1.6h3.5l-2.6-8.1z"/><path id="path39" d="m373.5 130.7c-1.8 0-3.2-1.5-3.2-3.3v-5.7c0-1.8 1.4-3.3 3.2-3.3h5.6v1.6h-5.5c-0.9 0-1.8 0.9-1.8 1.8v5.3c0 0.9 0.8 1.8 1.8 1.8h3.9v-4.8h-3v-1.6h4.6v7.6l3.3-10.4c0.4-1 1.3-1.8 2.5-1.8s2.1 0.8 2.5 1.8l3.4 10.7h-6.5v-1.6h4.2l-2.9-8.9c-0.2-0.5-0.5-0.5-0.8-0.5s-0.6 0.1-0.8 0.6l-3.4 10.5-7.1 0.2z"/></g></g><g id="g199"><g id="g201" fill="#e0e0e0"><path id="path203" d="m294.1 43.2c-0.6 0.4-0.8 0.6-1.4 1-0.9-1.1-1.4-1.6-2.2-2.7-1.3 0.9-1.9 1.4-3.2 2.4 0.9 1.1 1.4 1.6 2.3 2.6-0.5 0.4-0.8 0.6-1.3 1.1-2.1-2.4-3.2-3.5-5.4-5.9 0.6-0.5 0.9-0.7 1.4-1.1 0.8 0.9 1.2 1.4 2 2.3 1.3-1 1.9-1.5 3.2-2.4-0.8-0.9-1.2-1.4-2-2.4 0.6-0.4 0.9-0.6 1.5-1.1 2.1 2.5 3.1 3.7 5.1 6.2z"/><path id="path205" d="m297.3 41c-0.6 0.4-0.8 0.6-1.4 0.9-1.9-2.5-2.9-3.8-4.9-6.3l1.5-1c1.9 2.6 2.9 3.8 4.8 6.4z"/><path id="path207" d="m302.5 37.8c-0.6 0.3-1.1 0.6-1.7 0.7s-1.1 0.1-1.7 0.1c-0.5-0.1-1-0.3-1.5-0.6s-0.9-0.7-1.3-1.2-0.6-1-0.7-1.5-0.1-1 0-1.5 0.4-1 0.8-1.4c0.4-0.5 0.9-0.9 1.4-1.2s1-0.5 1.5-0.6 1-0.2 1.4-0.2c0.5 0 0.9 0.1 1.3 0.3s0.7 0.4 1 0.8c-0.6 0.3-0.9 0.5-1.6 0.9-0.2-0.2-0.3-0.3-0.5-0.4s-0.4-0.2-0.7-0.2c-0.2 0-0.5 0-0.8 0.1s-0.6 0.2-0.9 0.4c-0.4 0.2-0.6 0.5-0.9 0.7-0.2 0.3-0.4 0.6-0.4 0.9-0.1 0.3-0.1 0.7 0 1s0.3 0.7 0.5 1.1c0.3 0.4 0.5 0.6 0.8 0.8s0.6 0.3 1 0.4c0.3 0.1 0.7 0.1 1 0 0.4-0.1 0.7-0.2 1-0.4 0.5-0.3 0.9-0.6 1.1-0.9 0.3-0.3 0.4-0.7 0.5-1.1-0.2-0.3-0.3-0.4-0.5-0.7-0.8 0.5-1.2 0.7-2 1.2-0.3-0.4-0.5-0.7-0.8-1.1l3.5-2c0.9 1.4 1.4 2.2 2.3 3.6-0.5 0.3-0.7 0.4-1.1 0.6-0.2-0.1-0.3-0.2-0.5-0.4-0.1 0.3-0.4 0.7-0.7 1 0 0.3-0.3 0.6-0.8 0.8z"/><path id="path209" d="m314.1 31.5c-0.6 0.3-0.9 0.4-1.5 0.7-0.7-1.2-1-1.8-1.7-3-1.4 0.7-2.1 1-3.5 1.8 0.7 1.2 1.1 1.8 1.8 3-0.6 0.3-0.9 0.5-1.5 0.8-1.6-2.7-2.5-4-4.1-6.7 0.6-0.3 0.9-0.5 1.6-0.8 0.6 1 0.9 1.6 1.5 2.6 1.4-0.7 2.1-1.1 3.6-1.8-0.6-1.1-0.9-1.6-1.5-2.7l1.6-0.8c1.5 2.8 2.2 4.2 3.7 6.9z"/><path id="path211" d="m324.8 22.9c1 2.4 0 4.1-2.8 5.2-1.1 0.4-1.6 0.6-2.7 1.1-1.3-2.8-2-4.2-3.4-7.1 1.2-0.5 1.7-0.7 2.9-1.2 3-1 5-0.4 6 2zm-1.7 0.6c-0.2-0.4-0.3-0.7-0.5-0.9-0.2-0.3-0.5-0.4-0.8-0.6-0.3-0.1-0.7-0.2-1.1-0.1-0.4 0-0.9 0.2-1.4 0.4s-0.7 0.3-1.2 0.5c0.9 1.9 1.3 2.8 2.1 4.7 0.5-0.2 0.7-0.3 1.2-0.5s0.9-0.4 1.2-0.7c0.3-0.2 0.5-0.5 0.6-0.8s0.2-0.6 0.1-0.9c0.1-0.3 0-0.7-0.2-1.1z"/><path id="path213" d="m334.4 24c-2.6 0.7-3.9 1.1-6.5 2-1.1-2.9-1.7-4.4-2.8-7.3 2.7-0.9 4-1.3 6.7-2.1 0.2 0.5 0.2 0.8 0.4 1.3l-5 1.5c0.2 0.7 0.4 1 0.6 1.7 1.8-0.6 2.7-0.9 4.6-1.4 0.2 0.5 0.2 0.8 0.4 1.3-1.8 0.5-2.7 0.8-4.5 1.4 0.3 0.8 0.4 1.1 0.7 1.9l5-1.5c0.1 0.5 0.2 0.7 0.4 1.2z"/><path id="path215" d="m340.5 15.9c-1.9 0.4-2.8 0.6-4.7 1.1 0.2 0.7 0.3 1 0.5 1.7 1.6-0.4 2.4-0.6 4-0.9 0.1 0.5 0.2 0.8 0.3 1.3-1.6 0.4-2.4 0.5-3.9 0.9 0.4 1.3 0.6 1.9 0.9 3.2-0.6 0.2-1 0.2-1.6 0.4-0.9-3-1.4-4.5-2.3-7.4 2.5-0.7 3.8-1 6.4-1.5 0.3 0.4 0.3 0.7 0.4 1.2z"/><path id="path217" d="m345.4 21.4c-0.6 0.1-1 0.2-1.6 0.3-0.7-3-1.1-4.5-1.8-7.6 0.7-0.1 1-0.2 1.7-0.3 0.7 3.1 1 4.6 1.7 7.6z"/><path id="path219" d="m354.4 20c-0.6 0.1-0.9 0.1-1.5 0.2-1.9-1.8-2.9-2.7-4.9-4.5 0.4 2 0.6 3.1 1 5.1-0.6 0.1-0.9 0.2-1.6 0.3-0.6-3-0.9-4.6-1.5-7.6 0.7-0.1 1-0.2 1.6-0.3 2 1.8 3 2.7 4.9 4.5-0.3-2.1-0.5-3.1-0.8-5.1 0.7-0.1 1-0.1 1.7-0.2 0.4 3 0.7 4.6 1.1 7.6z"/><path id="path221" d="m358.2 19.6c-0.7 0.1-1 0.1-1.6 0.2-0.4-3.1-0.6-4.6-0.9-7.7 0.7-0.1 1-0.1 1.7-0.2 0.3 3.1 0.4 4.7 0.8 7.7z"/><path id="path223" d="m366.4 12.7c-1.2 0-1.7 0.1-2.9 0.1 0.2 2.6 0.2 3.8 0.4 6.4-0.7 0-1 0.1-1.7 0.1-0.2-2.6-0.3-3.8-0.5-6.4-1.2 0.1-1.7 0.1-2.9 0.2-0.1-0.5-0.1-0.8-0.1-1.3 3-0.3 4.6-0.3 7.6-0.4 0 0.5 0 0.8 0.1 1.3z"/><path id="path225" d="m369.7 19.1h-1.6c-0.1-3.1-0.1-4.6-0.2-7.7h1.8c-0.1 3-0.1 4.6 0 7.7z"/><path id="path227" d="m375.8 11.3c0.7 0 1.3 0.1 1.8 0.4 0.5 0.2 1 0.5 1.4 0.9s0.7 0.8 0.8 1.3 0.3 1.1 0.2 1.7c0 0.6-0.2 1.1-0.4 1.6s-0.6 0.9-1 1.2-0.9 0.6-1.4 0.7c-0.5 0.2-1.1 0.2-1.7 0.2s-1.2-0.1-1.7-0.3-1-0.5-1.3-0.8c-0.4-0.4-0.7-0.8-0.9-1.3s-0.3-1-0.3-1.6 0.1-1.1 0.3-1.6 0.5-0.9 0.9-1.3c0.4-0.3 0.9-0.6 1.4-0.8 0.7-0.3 1.3-0.4 1.9-0.3zm-0.2 6.7c0.4 0 0.7 0 1.1-0.1 0.3-0.1 0.6-0.3 0.9-0.5 0.2-0.2 0.4-0.5 0.6-0.8 0.1-0.3 0.2-0.7 0.3-1.1 0-0.4 0-0.8-0.1-1.2-0.1-0.3-0.3-0.6-0.5-0.9-0.2-0.2-0.5-0.4-0.8-0.6-0.3-0.1-0.7-0.2-1.1-0.2s-0.8 0-1.1 0.2c-0.3 0.1-0.6 0.3-0.9 0.5-0.2 0.2-0.4 0.5-0.6 0.8-0.1 0.3-0.2 0.7-0.2 1.1s0.1 0.8 0.2 1.1 0.3 0.6 0.5 0.9c0.2 0.2 0.5 0.4 0.8 0.6 0.2 0.1 0.5 0.2 0.9 0.2z"/><path id="path229" d="m388.6 20.2c-0.6-0.1-0.9-0.1-1.5-0.2-1.3-2.2-2-3.4-3.4-5.6-0.2 2.1-0.3 3.1-0.5 5.2-0.6-0.1-1-0.1-1.6-0.1 0.3-3.1 0.4-4.6 0.7-7.7 0.7 0.1 1 0.1 1.7 0.1 1.5 2.2 2.1 3.3 3.5 5.6 0.3-2.1 0.4-3.1 0.7-5.1 0.7 0.1 1 0.1 1.7 0.2-0.6 3-0.9 4.5-1.3 7.6z"/><path id="path231" d="m397.9 21.9c-0.6-0.1-1.2-0.3-1.7-0.6s-0.9-0.6-1.2-1-0.5-0.9-0.6-1.4-0.1-1.1 0-1.7 0.3-1.1 0.6-1.6c0.3-0.4 0.7-0.8 1.2-1.1s1-0.4 1.6-0.5 1.2-0.1 1.9 0.1c0.6 0.1 1.1 0.3 1.5 0.5s0.8 0.5 1.1 0.8 0.5 0.7 0.6 1.1 0.2 0.8 0.1 1.2c-0.7-0.2-1-0.2-1.7-0.4 0-0.2 0-0.5-0.1-0.7l-0.3-0.6c-0.2-0.2-0.4-0.3-0.6-0.4s-0.6-0.2-0.9-0.3c-0.4-0.1-0.8-0.1-1.1 0-0.4 0.1-0.7 0.2-1 0.3-0.3 0.2-0.5 0.4-0.7 0.7s-0.3 0.7-0.4 1.1-0.1 0.8 0 1.2 0.2 0.7 0.4 0.9c0.2 0.3 0.4 0.5 0.7 0.7s0.6 0.3 1 0.4c0.5 0.1 1 0.1 1.4 0.1 0.4-0.1 0.8-0.2 1.1-0.4 0.1-0.3 0.1-0.5 0.2-0.8-0.9-0.2-1.3-0.3-2.2-0.5 0.1-0.5 0.2-0.8 0.3-1.3 1.6 0.3 2.3 0.5 3.9 0.9-0.4 1.6-0.7 2.4-1.1 4.1-0.5-0.1-0.7-0.2-1.2-0.3 0-0.2 0-0.4-0.1-0.6-0.4 0.2-0.8 0.2-1.2 0.3-0.5-0.1-0.9-0.1-1.5-0.2z"/><path id="path233" d="m411.1 25.1c-0.7-0.2-1-0.3-1.7-0.5-0.1-0.9-0.1-1.3-0.1-2.3 0-0.2-0.1-0.3-0.1-0.5-0.1-0.1-0.1-0.3-0.2-0.4s-0.2-0.2-0.4-0.3c-0.1-0.1-0.3-0.2-0.5-0.2-0.7-0.2-1.1-0.3-1.8-0.5-0.4 1.2-0.5 1.8-0.9 3-0.6-0.2-1-0.3-1.6-0.4 0.9-3 1.3-4.5 2.1-7.5 1.6 0.4 2.5 0.6 4.1 1.1 0.2 0.1 0.5 0.1 0.7 0.2s0.4 0.2 0.6 0.2c0.2 0.1 0.4 0.2 0.5 0.3 0.2 0.1 0.3 0.3 0.4 0.4s0.2 0.3 0.3 0.5 0.1 0.3 0.1 0.5v0.5c0 0.2-0.1 0.3-0.1 0.5-0.2 0.4-0.4 0.8-0.8 1s-0.8 0.4-1.3 0.4c0.3 0.4 0.5 0.8 0.5 1.4 0.1 1.2 0.2 1.7 0.2 2.6zm-4.4-5.9c0.9 0.2 1.3 0.4 2.2 0.6 0.3 0.1 0.6 0.1 0.8 0.2h0.6c0.2 0 0.3-0.1 0.4-0.2s0.2-0.3 0.2-0.4c0.1-0.3 0.1-0.6-0.1-0.8s-0.6-0.4-1.1-0.6c-1-0.3-1.4-0.4-2.4-0.7-0.3 0.7-0.4 1.1-0.6 1.9z"/><path id="path235" d="m419.8 28.2c-0.7-0.3-1-0.4-1.7-0.7 0-1 0-1.4-0.1-2.4-1.2-0.4-1.8-0.6-3-1.1-0.7 0.7-1 1.1-1.7 1.8-0.7-0.2-1-0.3-1.7-0.5 2.4-2.5 3.6-3.8 6.1-6.2 0.6 0.2 1 0.3 1.6 0.6 0.3 3.4 0.4 5.1 0.5 8.5zm-1.9-4.4c0-1.1-0.1-1.6-0.1-2.7-0.8 0.8-1.2 1.2-1.9 2 0.8 0.2 1.2 0.4 2 0.7z"/><path id="path237" d="m423.9 21.4c1.4 0.5 2 0.8 3.4 1.4 0.3 0.1 0.6 0.3 0.9 0.4 0.3 0.2 0.5 0.3 0.7 0.5l0.6 0.6c0.2 0.2 0.3 0.4 0.3 0.6s0.1 0.5 0.1 0.7c0 0.3-0.1 0.5-0.3 0.8-0.4 0.7-1 1.2-1.7 1.3s-1.6 0-2.7-0.5c-0.7-0.3-1-0.4-1.7-0.7-0.5 1.1-0.8 1.6-1.3 2.7-0.6-0.3-0.9-0.4-1.5-0.6 1.3-2.9 1.9-4.3 3.2-7.2zm0.2 3.9c0.7 0.3 1.1 0.4 1.8 0.7 0.3 0.1 0.5 0.2 0.8 0.3 0.2 0 0.4 0.1 0.6 0 0.2 0 0.3-0.1 0.4-0.2s0.2-0.2 0.3-0.4 0.1-0.4 0.1-0.5c0-0.2-0.1-0.3-0.2-0.4s-0.3-0.3-0.5-0.4l-0.6-0.3c-0.7-0.3-1.1-0.5-1.8-0.7-0.4 0.7-0.6 1.1-0.9 1.9z"/><path id="path239" d="m435 35.2c-0.6-0.3-0.9-0.5-1.5-0.8 0.7-1.2 1.1-1.8 1.8-3-1.4-0.7-2.1-1.1-3.5-1.8-0.7 1.2-1 1.8-1.7 3-0.6-0.3-0.9-0.4-1.5-0.7 1.5-2.8 2.3-4.1 3.8-6.9l1.6 0.8c-0.6 1.1-0.9 1.6-1.5 2.6 1.4 0.7 2.1 1.1 3.6 1.8 0.6-1 0.9-1.6 1.6-2.6 0.6 0.3 1 0.5 1.6 0.9-1.8 2.7-2.7 4.1-4.3 6.7z"/><path id="path241" d="m438.3 37.2c-0.6-0.3-0.9-0.5-1.4-0.8 1.7-2.6 2.6-4 4.3-6.6 0.6 0.4 0.9 0.5 1.5 0.9-1.7 2.5-2.6 3.8-4.4 6.5z"/><path id="path243" d="m448.2 37.2c0.1-0.2 0.2-0.4 0.2-0.6s0-0.4-0.1-0.6-0.2-0.4-0.4-0.6-0.4-0.4-0.6-0.5c-0.3-0.2-0.7-0.4-1-0.5s-0.7-0.1-1 0-0.7 0.2-1 0.4-0.6 0.5-0.8 0.9c-0.3 0.4-0.4 0.7-0.5 1.1-0.1 0.3-0.1 0.7-0.1 1s0.2 0.6 0.4 0.9 0.4 0.5 0.8 0.7c0.2 0.2 0.5 0.3 0.7 0.4s0.5 0.1 0.7 0.1 0.5-0.1 0.7-0.2 0.4-0.2 0.6-0.4l1.5 1c-0.3 0.3-0.7 0.6-1.1 0.8s-0.8 0.3-1.2 0.3-0.9-0.1-1.3-0.2-0.9-0.3-1.3-0.6c-0.5-0.4-1-0.7-1.3-1.2-0.3-0.4-0.5-0.9-0.7-1.4-0.1-0.5-0.1-1 0-1.5s0.3-1 0.7-1.5 0.8-0.9 1.2-1.2c0.5-0.3 1-0.5 1.5-0.6s1.1-0.1 1.7 0.1c0.6 0.1 1.2 0.4 1.7 0.8 0.4 0.3 0.8 0.6 1.1 1s0.5 0.7 0.7 1.1c0.1 0.4 0.2 0.8 0.2 1.2s-0.2 0.8-0.4 1.2c-0.7-0.8-1-1-1.6-1.4z"/><path id="path245" d="m450.7 45.5c-0.5-0.4-0.9-0.8-1.2-1.2s-0.5-0.8-0.6-1.2-0.1-0.8 0-1.2 0.3-0.8 0.5-1.1c0.6 0.4 0.8 0.6 1.4 1-0.2 0.2-0.2 0.5-0.3 0.7 0 0.2 0 0.5 0.1 0.7s0.2 0.4 0.4 0.6l0.6 0.6c0.2 0.2 0.4 0.3 0.7 0.4 0.2 0.1 0.4 0.2 0.6 0.2h0.5c0.2 0 0.3-0.1 0.4-0.2s0.2-0.3 0.2-0.4 0-0.3-0.1-0.5-0.2-0.4-0.5-0.7c-0.2-0.3-0.5-0.5-0.8-0.9-0.4-0.4-0.7-0.8-0.9-1.1s-0.4-0.6-0.5-0.9-0.1-0.6-0.1-0.8 0.2-0.5 0.4-0.7c0.2-0.3 0.5-0.5 0.8-0.6s0.7-0.2 1-0.1c0.4 0 0.8 0.1 1.2 0.3s0.9 0.4 1.3 0.7 0.8 0.7 1.1 1.1 0.5 0.7 0.6 1.1 0.1 0.8 0 1.1c-0.1 0.4-0.3 0.7-0.5 1-0.5-0.4-0.8-0.6-1.3-1.1 0.5-0.8 0.3-1.5-0.7-2.2-0.5-0.4-0.9-0.6-1.2-0.6-0.4-0.1-0.6 0-0.8 0.2-0.1 0.1-0.1 0.2-0.1 0.3s0 0.2 0.1 0.4c0.1 0.1 0.2 0.3 0.3 0.5s0.3 0.4 0.6 0.6l0.6 0.6c0.2 0.2 0.4 0.5 0.6 0.7s0.3 0.5 0.4 0.7 0.2 0.5 0.2 0.7 0 0.5-0.1 0.7-0.2 0.5-0.4 0.7c-0.2 0.3-0.5 0.5-0.9 0.6-0.3 0.1-0.7 0.2-1.1 0.1-0.4 0-0.8-0.1-1.2-0.3-0.5 0.1-0.9-0.2-1.3-0.5z"/></g></g><path id="path247" d="m456.9 115h-173.4c-10.3 0-18.8-8.5-18.8-18.8s8.5-18.8 18.8-18.8h173.4c10.3 0 18.8 8.5 18.8 18.8s-8.5 18.8-18.8 18.8z" fill="#181515"/><path id="path249" d="m369.9 110.8h83.2c5.6 0 10.1-4.3 10.1-19h-10.1v-7.6h0.3-83.2-83.2 0.3v7.6h-10.1c0 14.7 4.5 19 10.1 19h83.2"/><path id="path251" d="m369.9 109.8h82.4c5.5 0 10-4 10-17.6h-10v-7h0.3-82.4-82.4 0.3v7h-10c0 13.6 4.5 17.6 10 17.6h82.4" fill="#282424"/><rect id="rect253" x="278.6" y="98.7" width="183.2" height=".9" fill="#010102"/><g id="g255"><g id="g257"><path id="path259" d="m300 87.8h-1.8c0-0.4 0.4-0.7 0.9-0.7s0.9 0.3 0.9 0.7z" fill="#363636"/><path id="path261" d="m300 95.8h-1.8c0 0.4 0.4 0.7 0.9 0.7s0.9-0.3 0.9-0.7z" fill="#464646"/><rect id="rect263" x="298.2" y="87.8" width="1.8" height="8" fill="#424141"/></g><g id="g265"><path id="path267" d="m300 101.8h-1.8c0-0.3 0.4-0.6 0.9-0.6s0.9 0.3 0.9 0.6z" fill="#363636"/><path id="path269" d="m300 108.2h-1.8c0 0.3 0.4 0.6 0.9 0.6s0.9-0.2 0.9-0.6z" fill="#464646"/><rect id="rect271" x="298.2" y="101.8" width="1.8" height="6.5" fill="#424141"/></g><g id="g273"><path id="path275" d="m440.4 87.8h1.8c0-0.4-0.4-0.7-0.9-0.7s-0.9 0.3-0.9 0.7z" fill="#363636"/><path id="path277" d="m440.4 95.8h1.8c0 0.4-0.4 0.7-0.9 0.7s-0.9-0.3-0.9-0.7z" fill="#464646"/><rect id="rect279" x="440.4" y="87.8" width="1.8" height="8" fill="#424141"/></g><g id="g281"><path id="path283" d="m440.4 101.8h1.8c0-0.3-0.4-0.6-0.9-0.6s-0.9 0.3-0.9 0.6z" fill="#363636"/><path id="path285" d="m440.4 108.2h1.8c0 0.3-0.4 0.6-0.9 0.6s-0.9-0.2-0.9-0.6z" fill="#464646"/><rect id="rect287" x="440.4" y="101.8" width="1.8" height="6.5" fill="#424141"/></g></g><path id="path289" d="m320 276.5v-29.7c15.3 6.7 32.3 10.4 50.2 10.4s34.9-3.7 50.2-10.4v29.6-0.8c-15.7 5.5-32.6 9.1-50.2 9.1s-34.5-4.1-50.2-9.6" fill="#811b15"/><g id="g291"><ellipse id="ellipse293" cx="370.2" cy="270.3" rx="3.3" ry="3.5" fill="#631418"/><circle id="ellipse295" cx="370.2" cy="270.3" r="2.3" fill="#f95d5d"/><g id="g297"><g id="g299" fill="#391516"><path id="path301" d="m343.1 266.2c0.6 0.1 0.8 0.1 1.4 0.2 0.1 0 0.3 0 0.4 0.1 0.1 0 0.2 0.1 0.3 0.1s0.2 0.1 0.3 0.2 0.2 0.1 0.2 0.2 0.1 0.2 0.1 0.3v0.4c0 0.4-0.2 0.7-0.5 0.8-0.3 0.2-0.6 0.2-1.1 0.2-0.3 0-0.5-0.1-0.8-0.1-0.1 0.6-0.1 0.8-0.2 1.4-0.3 0-0.4-0.1-0.7-0.1 0.3-1.5 0.4-2.2 0.6-3.7zm0.5 1.8c0.3 0 0.5 0.1 0.8 0.1h0.3c0.1 0 0.2 0 0.2-0.1 0.1 0 0.1-0.1 0.1-0.2s0.1-0.1 0.1-0.2v-0.3c0-0.1-0.1-0.1-0.1-0.2-0.1 0-0.1-0.1-0.2-0.1s-0.2 0-0.3-0.1c-0.3 0-0.5-0.1-0.8-0.1 0 0.6-0.1 0.8-0.1 1.2z"/><path id="path303" d="m348.3 266.8c0.3 0 0.5 0.1 0.7 0.2s0.4 0.3 0.5 0.4l0.3 0.6c0.1 0.2 0.1 0.5 0.1 0.8s-0.1 0.5-0.2 0.8-0.3 0.4-0.4 0.6c-0.2 0.1-0.4 0.3-0.6 0.3-0.2 0.1-0.5 0.1-0.7 0.1-0.3 0-0.5-0.1-0.7-0.2s-0.4-0.3-0.5-0.5l-0.3-0.6c-0.1-0.2-0.1-0.5 0-0.8 0-0.3 0.1-0.5 0.2-0.8 0.1-0.2 0.3-0.4 0.4-0.6 0.2-0.1 0.4-0.3 0.6-0.3h0.6zm-0.3 3.2h0.5c0.1 0 0.3-0.1 0.4-0.2s0.2-0.2 0.3-0.4 0.1-0.3 0.1-0.5v-0.6c0-0.2-0.1-0.3-0.2-0.4l-0.3-0.3c-0.1-0.1-0.3-0.1-0.4-0.1h-0.4c-0.1 0-0.3 0.1-0.4 0.2s-0.2 0.2-0.3 0.4-0.1 0.3-0.1 0.5v0.6c0 0.2 0.1 0.3 0.2 0.4l0.3 0.3c0 0.1 0.1 0.1 0.3 0.1z"/><path id="path305" d="m355.3 267.6c-0.5 1.4-0.8 2.2-1.3 3.6-0.3 0-0.4 0-0.6-0.1-0.2-1.1-0.3-1.7-0.5-2.8-0.4 1.1-0.6 1.6-1 2.6-0.3 0-0.4 0-0.6-0.1-0.3-1.5-0.4-2.3-0.7-3.8 0.3 0 0.4 0 0.7 0.1 0.1 1 0.2 1.5 0.4 2.5 0.4-1 0.6-1.4 0.9-2.4 0.3 0 0.4 0 0.7 0.1l0.5 2.5c0.3-1 0.5-1.5 0.8-2.4 0.2 0.1 0.4 0.1 0.7 0.2z"/><path id="path307" d="m358.4 271.5c-1.2-0.1-1.7-0.1-2.9-0.2 0.1-1.5 0.2-2.2 0.3-3.7 1.1 0.1 1.7 0.1 2.8 0.2v0.6c-0.8-0.1-1.2-0.1-2.1-0.1 0 0.3 0 0.5-0.1 0.8 0.8 0.1 1.2 0.1 1.9 0.1v0.6c-0.8 0-1.2-0.1-2-0.1 0 0.4 0 0.6-0.1 1 0.9 0.1 1.3 0.1 2.2 0.1 0.1 0.3 0 0.5 0 0.7z"/><path id="path309" d="m362.4 271.7h-0.8c-0.1-0.4-0.2-0.6-0.3-1 0-0.1-0.1-0.1-0.1-0.2s-0.1-0.1-0.1-0.2c-0.1 0-0.1-0.1-0.2-0.1h-0.2-0.8c0 0.6 0 0.9-0.1 1.5h-0.7c0.1-1.5 0.1-2.2 0.2-3.7 0.7 0 1 0.1 1.7 0.1h0.3 0.3c0.1 0 0.2 0 0.2 0.1 0.1 0 0.1 0.1 0.2 0.1l0.2 0.2c0 0.1 0.1 0.1 0.1 0.2s0 0.1 0.1 0.2v0.2c0 0.2-0.1 0.4-0.2 0.6s-0.3 0.3-0.5 0.4c0.2 0.1 0.3 0.3 0.4 0.6s0.2 0.6 0.3 1zm-2.4-2.2h0.9 0.3c0.1 0 0.2 0 0.2-0.1 0.1 0 0.1-0.1 0.1-0.1v-0.2c0-0.2 0-0.3-0.1-0.4s-0.3-0.1-0.5-0.1h-1c0.1 0.3 0.1 0.5 0.1 0.9z"/><path id="path311" d="m391.8 266.9c0.3 0 0.5 0 0.7 0.1l0.6 0.3c0.2 0.1 0.3 0.3 0.4 0.6 0.1 0.2 0.2 0.5 0.2 0.8v0.8c-0.1 0.2-0.2 0.5-0.3 0.6-0.1 0.2-0.3 0.3-0.5 0.5s-0.4 0.2-0.7 0.2-0.5 0-0.7-0.1l-0.6-0.3c-0.2-0.1-0.3-0.3-0.4-0.6-0.1-0.2-0.2-0.5-0.2-0.8s0-0.6 0.1-0.8 0.2-0.5 0.3-0.6c0.1-0.2 0.3-0.3 0.5-0.4 0.1-0.2 0.3-0.3 0.6-0.3zm0.4 3.2c0.2 0 0.3-0.1 0.4-0.1l0.3-0.3c0.1-0.1 0.1-0.3 0.2-0.4v-0.6c0-0.2-0.1-0.4-0.1-0.5-0.1-0.2-0.2-0.3-0.3-0.4s-0.2-0.2-0.4-0.2c-0.1 0-0.3-0.1-0.4 0-0.2 0-0.3 0.1-0.4 0.1s-0.2 0.2-0.3 0.3-0.1 0.3-0.2 0.4v0.5c0 0.2 0.1 0.4 0.1 0.5 0.1 0.2 0.2 0.3 0.3 0.4s0.2 0.2 0.4 0.2 0.2 0.1 0.4 0.1z"/><path id="path313" d="m397.8 269.9c-0.3 0-0.4 0.1-0.7 0.1-0.8-0.9-1.2-1.3-2-2.2 0.1 1 0.2 1.5 0.3 2.5-0.3 0-0.4 0.1-0.7 0.1-0.2-1.5-0.3-2.2-0.5-3.7 0.3 0 0.4 0 0.7-0.1 0.8 0.9 1.2 1.3 2 2.2-0.1-1-0.2-1.5-0.3-2.5 0.3 0 0.4-0.1 0.7-0.1 0.2 1.5 0.3 2.2 0.5 3.7z"/><path id="path315" d="m388.4 269.3v0.7c0 0.1-3.1 0.3-6.9 0.5s-6.9 0.4-6.9 0.3v-0.7c0 0.1 3.1-0.1 6.9-0.3s6.9-0.5 6.9-0.5z"/></g></g></g><path id="path317" d="m421.9 175.5v71.2c-15.7 6.8-33.2 10.6-51.7 10.6-18.4 0-35.9-3.8-51.7-10.6v-71.2c0-6.7 5.6-12.1 12.4-12.1h78.6c6.8 0 12.4 5.4 12.4 12.1z"/><path id="path319" d="m419.9 176.5v70.3c-15.3 6.7-32.3 10.4-50.2 10.4s-34.9-3.7-50.2-10.4v-70.3c0-6.6 5.4-12 12-12h76.3c6.7 0 12.1 5.4 12.1 12z" fill="#211f1f"/><g id="g321"><path id="path323" d="m71.5 62h-71.5v-6.2h71.5c0.5 0 0.9 0.4 0.9 0.9v4.3c0 0.6-0.4 1-0.9 1z" fill="#070606"/><path id="path325" d="m71.1 60.9h-52.1v-6h52.1c0.5 0 0.9 0.4 0.9 0.9v4.2c0.1 0.5-0.3 0.9-0.9 0.9z" fill="#282424"/><rect id="rect327" y="54.9" width="19" height="6" fill="#1e1b1b"/><rect id="rect329" y="54.9" width="19" height=".9" fill="#252222"/><path id="path331" d="m72.1 55.8h-53.1v-0.9h52.1c0.6 0 1 0.4 1 0.9z" fill="#3c3939"/></g><g id="g333"><path id="path335" d="m71.5 71.7h-71.5v-6.2h71.5c0.5 0 0.9 0.4 0.9 0.9v4.3c0 0.6-0.4 1-0.9 1z" fill="#070606"/><path id="path337" d="m71.1 70.6h-52.1v-6h52.1c0.5 0 0.9 0.4 0.9 0.9v4.1c0.1 0.6-0.3 1-0.9 1z" fill="#282424"/><rect id="rect339" y="64.6" width="19" height="6" fill="#1e1b1b"/><rect id="rect341" y="64.6" width="19" height=".9" fill="#252222"/><path id="path343" d="m72.1 65.5h-53.1v-0.9h52.1c0.6 0 1 0.4 1 0.9z" fill="#3c3939"/></g><g id="g345"><path id="path347" d="m71.5 81.4h-71.5v-6.2h71.5c0.5 0 0.9 0.4 0.9 0.9v4.3c0 0.6-0.4 1-0.9 1z" fill="#070606"/><path id="path349" d="m71.1 80.3h-52.1v-6h52.1c0.5 0 0.9 0.4 0.9 0.9v4.1c0.1 0.6-0.3 1-0.9 1z" fill="#282424"/><rect id="rect351" y="74.3" width="19" height="6" fill="#1e1b1b"/><rect id="rect353" y="74.3" width="19" height=".9" fill="#252222"/><path id="path355" d="m72.1 75.2h-53.1v-0.9h52.1c0.6 0 1 0.4 1 0.9z" fill="#3c3939"/></g><g id="g357"><path id="path359" d="m71.5 91.1h-71.5v-6.2h71.5c0.5 0 0.9 0.4 0.9 0.9v4.3c0 0.6-0.4 1-0.9 1z" fill="#070606"/><path id="path361" d="m71.1 90h-52.1v-6h52.1c0.5 0 0.9 0.4 0.9 0.9v4.1c0.1 0.6-0.3 1-0.9 1z" fill="#282424"/><rect id="rect363" y="84" width="19" height="6" fill="#1e1b1b"/><rect id="rect365" y="84" width="19" height=".9" fill="#252222"/><path id="path367" d="m72.1 84.9h-53.1v-0.9h52.1c0.6 0 1 0.4 1 0.9z" fill="#3c3939"/></g><g id="g369"><path id="path371" d="m71.5 100.8h-71.5v-6.2h71.5c0.5 0 0.9 0.4 0.9 0.9v4.3c0 0.6-0.4 1-0.9 1z" fill="#070606"/><path id="path373" d="m71.1 99.7h-52.1v-6h52.1c0.5 0 0.9 0.4 0.9 0.9v4.1c0.1 0.6-0.3 1-0.9 1z" fill="#282424"/><rect id="rect375" y="93.7" width="19" height="6" fill="#1e1b1b"/><rect id="rect377" y="93.7" width="19" height=".9" fill="#252222"/><path id="path379" d="m72.1 94.6h-53.1v-0.9h52.1c0.6 0 1 0.4 1 0.9z" fill="#3c3939"/></g><g id="g381"><path id="path383" d="m71.5 110.5h-71.5v-6.2h71.5c0.5 0 0.9 0.4 0.9 0.9v4.3c0 0.5-0.4 1-0.9 1z" fill="#070606"/><path id="path385" d="m71.1 109.4h-52.1v-6h52.1c0.5 0 0.9 0.4 0.9 0.9v4.1c0.1 0.6-0.3 1-0.9 1z" fill="#282424"/><rect id="rect387" y="103.4" width="19" height="6" fill="#1e1b1b"/><rect id="rect389" y="103.4" width="19" height=".9" fill="#252222"/><path id="path391" d="m72.1 104.3h-53.1v-0.9h52.1c0.6 0 1 0.4 1 0.9z" fill="#3c3939"/></g><g id="g393"><path id="path395" d="m71.5 120.2h-71.5v-6.2h71.5c0.5 0 0.9 0.4 0.9 0.9v4.3c0 0.5-0.4 1-0.9 1z" fill="#070606"/><path id="path397" d="m71.1 119.1h-52.1v-6h52.1c0.5 0 0.9 0.4 0.9 0.9v4.1c0.1 0.6-0.3 1-0.9 1z" fill="#282424"/><rect id="rect399" y="113.1" width="19" height="6" fill="#1e1b1b"/><rect id="rect401" y="113.1" width="19" height=".9" fill="#252222"/><path id="path403" d="m72.1 114h-53.1v-1h52.1c0.6 0 1 0.5 1 1z" fill="#3c3939"/></g><g id="g405"><path id="path407" d="m71.5 129.9h-71.5v-6.2h71.5c0.5 0 0.9 0.4 0.9 0.9v4.3c0 0.5-0.4 1-0.9 1z" fill="#070606"/><path id="path409" d="m71.1 128.8h-52.1v-6h52.1c0.5 0 0.9 0.4 0.9 0.9v4.1c0.1 0.5-0.3 1-0.9 1z" fill="#282424"/><rect id="rect411" y="122.8" width="19" height="6" fill="#1e1b1b"/><rect id="rect413" y="122.8" width="19" height=".9" fill="#252222"/><path id="path415" d="m72.1 123.7h-53.1v-0.9h52.1c0.6-0.1 1 0.4 1 0.9z" fill="#3c3939"/></g><g id="g417"><path id="path419" d="m71.5 139.5h-71.5v-6.2h71.5c0.5 0 0.9 0.4 0.9 0.9v4.3c0 0.6-0.4 1-0.9 1z" fill="#070606"/><path id="path421" d="m71.1 138.5h-52.1v-6h52.1c0.5 0 0.9 0.4 0.9 0.9v4.1c0.1 0.5-0.3 1-0.9 1z" fill="#282424"/><rect id="rect423" y="132.5" width="19" height="6" fill="#1e1b1b"/><rect id="rect425" y="132.5" width="19" height=".9" fill="#252222"/><path id="path427" d="m72.1 133.4h-53.1v-0.9h52.1c0.6-0.1 1 0.3 1 0.9z" fill="#3c3939"/></g><g id="g429"><path id="path431" d="m71.5 149.2h-71.5v-6.2h71.5c0.5 0 0.9 0.4 0.9 0.9v4.3c0 0.6-0.4 1-0.9 1z" fill="#070606"/><path id="path433" d="m71.1 148.2h-52.1v-6h52.1c0.5 0 0.9 0.4 0.9 0.9v4.1c0.1 0.5-0.3 1-0.9 1z" fill="#282424"/><rect id="rect435" y="142.2" width="19" height="6" fill="#1e1b1b"/><rect id="rect437" y="142.2" width="19" height=".9" fill="#252222"/><path id="path439" d="m72.1 143.1h-53.1v-0.9h52.1c0.6-0.1 1 0.3 1 0.9z" fill="#3c3939"/></g><g id="g441"><path id="path443" d="m71.5 158.9h-71.5v-6.2h71.5c0.5 0 0.9 0.4 0.9 0.9v4.3c0 0.6-0.4 1-0.9 1z" fill="#070606"/><path id="path445" d="m71.1 157.8h-52.1v-6h52.1c0.5 0 0.9 0.4 0.9 0.9v4.1c0.1 0.6-0.3 1-0.9 1z" fill="#282424"/><rect id="rect447" y="151.8" width="19" height="6" fill="#1e1b1b"/><rect id="rect449" y="151.8" width="19" height=".9" fill="#252222"/><path id="path451" d="m72.1 152.8h-53.1v-0.9h52.1c0.6-0.1 1 0.3 1 0.9z" fill="#3c3939"/></g><g id="g453"><path id="path455" d="m71.5 168.6h-71.5v-6.2h71.5c0.5 0 0.9 0.4 0.9 0.9v4.3c0 0.6-0.4 1-0.9 1z" fill="#070606"/><path id="path457" d="m71.1 167.5h-52.1v-6h52.1c0.5 0 0.9 0.4 0.9 0.9v4.1c0.1 0.6-0.3 1-0.9 1z" fill="#282424"/><rect id="rect459" y="161.5" width="19" height="6" fill="#1e1b1b"/><rect id="rect461" y="161.5" width="19" height=".9" fill="#252222"/><path id="path463" d="m72.1 162.4h-53.1v-0.9h52.1c0.6 0 1 0.4 1 0.9z" fill="#3c3939"/></g><g id="g465"><path id="path467" d="m71.5 178.3h-71.5v-6.2h71.5c0.5 0 0.9 0.4 0.9 0.9v4.3c0 0.6-0.4 1-0.9 1z" fill="#070606"/><path id="path469" d="m71.1 177.2h-52.1v-6h52.1c0.5 0 0.9 0.4 0.9 0.9v4.1c0.1 0.6-0.3 1-0.9 1z" fill="#282424"/><rect id="rect471" y="171.2" width="19" height="6" fill="#1e1b1b"/><rect id="rect473" y="171.2" width="19" height=".9" fill="#252222"/><path id="path475" d="m72.1 172.1h-53.1v-0.9h52.1c0.6 0 1 0.4 1 0.9z" fill="#3c3939"/></g><g id="g477"><path id="path479" d="m71.5 188h-71.5v-6.2h71.5c0.5 0 0.9 0.4 0.9 0.9v4.3c0 0.6-0.4 1-0.9 1z" fill="#070606"/><path id="path481" d="m71.1 186.9h-52.1v-6h52.1c0.5 0 0.9 0.4 0.9 0.9v4.1c0.1 0.6-0.3 1-0.9 1z" fill="#282424"/><rect id="rect483" y="180.9" width="19" height="6" fill="#1e1b1b"/><rect id="rect485" y="180.9" width="19" height=".9" fill="#252222"/><path id="path487" d="m72.1 181.8h-53.1v-0.9h52.1c0.6 0 1 0.4 1 0.9z" fill="#3c3939"/></g><g id="g489"><path id="path491" d="m71.5 197.7h-71.5v-6.2h71.5c0.5 0 0.9 0.4 0.9 0.9v4.3c0 0.6-0.4 1-0.9 1z" fill="#070606"/><path id="path493" d="m71.1 196.6h-52.1v-6h52.1c0.5 0 0.9 0.4 0.9 0.9v4.1c0.1 0.6-0.3 1-0.9 1z" fill="#282424"/><rect id="rect495" y="190.6" width="19" height="6" fill="#1e1b1b"/><rect id="rect497" y="190.6" width="19" height=".9" fill="#252222"/><path id="path499" d="m72.1 191.5h-53.1v-0.9h52.1c0.6 0 1 0.4 1 0.9z" fill="#3c3939"/></g><rect id="rect501" x="9" y="327.2" width="531" height="1.7" fill="#323030"/><rect id="rect503" x="9" y="328.9" width="531" height="3.4" fill="#383736"/><rect id="rect505" x="9" y="332.3" width="531" height="1.7" fill="#3f3e3d"/><rect id="rect507" x="9" y="334" width="531" height="1.7" fill="#444241"/><rect id="rect509" x="9" y="335.7" width="531" height="1.7" fill="#4a4747"/><rect id="rect511" x="9" y="337.4" width="531" height="1.7" fill="#504d4c"/><rect id="rect513" x="9" y="339.1" width="531" height="1.7" fill="#565252"/><rect id="rect515" x="9" y="340.9" width="531" height="1.7" fill="#5b5857"/><rect id="rect517" y="327.2" width="9" height="1.7" fill="#292424"/><rect id="rect519" y="328.9" width="9" height="3.4" fill="#302a2b"/><rect id="rect521" y="332.3" width="9" height="1.7" fill="#363031"/><rect id="rect523" y="334" width="9" height="1.7" fill="#3c3636"/><rect id="rect525" y="335.7" width="9" height="1.7" fill="#423b3c"/><rect id="rect527" y="337.4" width="9" height="1.7" fill="#484141"/><rect id="rect529" y="339.1" width="9" height="1.7" fill="#4e4646"/><rect id="rect531" y="340.9" width="9" height="1.7" fill="#544b4c"/><rect id="rect533" x="540" y="327.2" width="9" height="1.7" fill="#292424"/><rect id="rect535" x="540" y="328.9" width="9" height="3.4" fill="#302a2b"/><rect id="rect537" x="540" y="332.3" width="9" height="1.7" fill="#363031"/><rect id="rect539" x="540" y="334" width="9" height="1.7" fill="#3c3636"/><rect id="rect541" x="540" y="335.7" width="9" height="1.7" fill="#423b3c"/><rect id="rect543" x="540" y="337.4" width="9" height="1.7" fill="#484141"/><rect id="rect545" x="540" y="339.1" width="9" height="1.7" fill="#4e4646"/><rect id="rect547" x="540" y="340.9" width="9" height="1.7" fill="#544b4c"/><g id="g549"><path id="path551" d="m56.7 329.1c0-1.4-0.9-3.1-1.7-3.1s-1.7 1.3-1.7 2.8c0 1.4 1.3 2.9 2.1 2.9s1.3-1.2 1.3-2.6z" fill="#c4c4c4"/><g id="g553"><path id="path555" d="m65.7 328.8-0.9-0.5c0.5-0.9 0.7-1.9 0.7-2.8 0-3.3-2.7-6-6.1-6-3.3 0-6.1 2.7-6.1 6 0 1 0.3 2 0.7 2.8l-0.9 0.5c-0.6-1-0.9-2.2-0.9-3.3 0-3.8 3.2-6.9 7-7 3.9 0 7 3.1 7 7 0.4 1.2 0.1 2.3-0.5 3.3z" fill="#c4c4c4"/></g><path id="path557" d="m62.3 329.1c0-1.4 0.9-3.1 1.7-3.1s1.7 1.3 1.7 2.8c0 1.4-1.3 2.9-2.1 2.9s-1.3-1.2-1.3-2.6z" fill="#c4c4c4"/></g><g id="g559" fill="#c4c4c4"><path id="path561" d="m48.2 337.5-1.5-4.3h0.9l1.1 3.2 1.1-3.2h0.9l-1.5 4.3h-1z"/><path id="path563" d="m50.9 335.4c0-0.4 0.1-0.8 0.2-1.1 0.1-0.2 0.2-0.4 0.4-0.6s0.4-0.3 0.6-0.4c0.3-0.1 0.6-0.2 0.9-0.2 0.6 0 1.1 0.2 1.5 0.6s0.6 0.9 0.6 1.6-0.2 1.2-0.6 1.6-0.9 0.6-1.5 0.6-1.1-0.2-1.5-0.6c-0.4-0.3-0.6-0.8-0.6-1.5zm0.9-0.1c0 0.5 0.1 0.9 0.3 1.1 0.2 0.3 0.5 0.4 0.9 0.4s0.6-0.1 0.9-0.4c0.2-0.3 0.3-0.6 0.3-1.1s-0.1-0.9-0.3-1.1-0.5-0.4-0.9-0.4-0.6 0.1-0.9 0.4c-0.2 0.3-0.3 0.7-0.3 1.1z"/><path id="path565" d="m55.8 337.5v-4.3h0.9v3.5h2.2v0.7h-3.1z"/><path id="path567" d="m59.4 333.2h0.9v2.3 0.7c0 0.2 0.1 0.3 0.3 0.4 0.1 0.1 0.3 0.2 0.6 0.2 0.2 0 0.4 0 0.6-0.2s0.2-0.2 0.2-0.4v-0.7-2.4h0.9v2.3c0 0.5 0 0.9-0.1 1.1s-0.1 0.4-0.3 0.5-0.3 0.3-0.5 0.4-0.5 0.1-0.8 0.1c-0.4 0-0.7 0-0.9-0.1s-0.4-0.2-0.5-0.4-0.2-0.3-0.2-0.5c-0.1-0.2-0.1-0.6-0.1-1.1v-2.2z"/><path id="path569" d="m63.8 337.5v-4.3h1.3l0.8 2.9 0.8-2.9h1.3v4.3h-0.8v-3.4l-0.9 3.4h-0.8l-0.8-3.4v3.4h-0.9z"/><path id="path571" d="m68.8 337.5v-4.3h3.2v0.7h-2.3v1h2.2v0.7h-2.2v1.2h2.3v0.7h-3.2z"/></g><g id="g573"><g id="g575"><rect id="rect577" x="91.8" y="297.7" width="35.3" height="15.7"/><rect id="rect579" x="92.3" y="298.3" width="34.3" height="14.5" fill="#dbdbdb"/></g><g id="g581" fill="#ceccce"><path id="path583" d="m99.4 304.9c-0.7 0-1.3-0.6-1.3-1.2 0-0.7 0.6-1.3 1.3-1.3s1.3 0.6 1.3 1.3c0 0.6-0.6 1.2-1.3 1.2z"/><path id="path585" d="m119.4 304.9c-0.7 0-1.3-0.6-1.3-1.2 0-0.7 0.6-1.3 1.3-1.3s1.3 0.6 1.3 1.3c0 0.6-0.6 1.2-1.3 1.2z"/><path id="path587" d="m119.4 308.7c-0.7 0-1.3-0.6-1.3-1.2 0-0.7 0.6-1.3 1.3-1.3s1.3 0.6 1.3 1.3c0 0.6-0.6 1.2-1.3 1.2z"/><path id="path589" d="m99.4 308.7c-0.7 0-1.3-0.6-1.3-1.2 0-0.7 0.6-1.3 1.3-1.3s1.3 0.6 1.3 1.3c0 0.6-0.6 1.2-1.3 1.2z"/><path id="path591" d="m102.8 308.7c-0.7 0-1.3-0.6-1.3-1.2 0-0.7 0.6-1.3 1.3-1.3s1.3 0.6 1.3 1.3c-0.1 0.6-0.7 1.2-1.3 1.2z"/><path id="path593" d="m106.1 308.7c-0.7 0-1.3-0.6-1.3-1.2 0-0.7 0.6-1.3 1.3-1.3s1.3 0.6 1.3 1.3c-0.1 0.6-0.6 1.2-1.3 1.2z"/><path id="path595" d="m109.4 308.7c-0.7 0-1.3-0.6-1.3-1.2 0-0.7 0.6-1.3 1.3-1.3s1.3 0.6 1.3 1.3c0 0.6-0.6 1.2-1.3 1.2z"/><path id="path597" d="m112.7 308.7c-0.7 0-1.3-0.6-1.3-1.2 0-0.7 0.6-1.3 1.2-1.3 0.7 0 1.3 0.6 1.3 1.3 0.1 0.6-0.5 1.2-1.2 1.2z"/><path id="path599" d="m116.1 308.7c-0.7 0-1.3-0.6-1.3-1.2 0-0.7 0.6-1.3 1.3-1.3s1.3 0.6 1.3 1.3c-0.1 0.6-0.6 1.2-1.3 1.2z"/><path id="path601" d="m102.8 304.9c-0.7 0-1.3-0.6-1.3-1.2 0-0.7 0.6-1.3 1.3-1.3s1.3 0.6 1.3 1.3c-0.1 0.6-0.7 1.2-1.3 1.2z"/><path id="path603" d="m106.1 304.9c-0.7 0-1.3-0.6-1.3-1.2 0-0.7 0.6-1.3 1.3-1.3s1.3 0.6 1.3 1.3c-0.1 0.6-0.6 1.2-1.3 1.2z"/><path id="path605" d="m109.4 304.9c-0.7 0-1.3-0.6-1.3-1.2 0-0.7 0.6-1.3 1.3-1.3s1.3 0.6 1.3 1.3c0 0.6-0.6 1.2-1.3 1.2z"/><path id="path607" d="m112.7 304.9c-0.7 0-1.3-0.6-1.3-1.2 0-0.7 0.6-1.3 1.2-1.3 0.7 0 1.3 0.6 1.3 1.3 0.1 0.6-0.5 1.2-1.2 1.2z"/><path id="path609" d="m116.1 304.9c-0.7 0-1.3-0.6-1.3-1.2 0-0.7 0.6-1.3 1.3-1.3s1.3 0.6 1.3 1.3c-0.1 0.6-0.6 1.2-1.3 1.2z"/></g><polygon id="polygon611" points="91.8 297.7 88.5 295.2 130.3 295.2 127.1 297.7" fill="#0d0d0c"/><polygon id="polygon613" points="88.5 315.9 91.8 313.4 127.1 313.4 130.3 315.9" fill="#4e4b4a"/><polygon id="polygon615" points="88.5 315.9 88.5 295.2 91.8 297.7 91.8 313.4" fill="#211e1d"/><polygon id="polygon617" points="127.1 313.4 127.1 297.7 130.3 295.2 130.3 315.9" fill="#211e1d"/><g id="g619" fill="#c4c4c4"><path id="path621" d="m102.5 321.1v-3.2h1.4c0.3 0 0.6 0 0.8 0.1s0.3 0.2 0.4 0.3 0.1 0.3 0.1 0.5-0.1 0.4-0.2 0.6-0.4 0.3-0.6 0.3c0.1 0.1 0.3 0.2 0.3 0.3 0.1 0.1 0.2 0.3 0.4 0.5l0.4 0.6h-0.8l-0.5-0.7c-0.2-0.3-0.3-0.4-0.3-0.5-0.1-0.1-0.1-0.1-0.2-0.1h-0.3-0.1v1.3h-0.8zm0.6-1.8h0.5 0.6c0.1 0 0.1-0.1 0.2-0.1 0-0.1 0.1-0.1 0.1-0.2s0-0.2-0.1-0.3-0.1-0.1-0.2-0.1h-0.5-0.5v0.7z"/><path id="path623" d="m105.7 321.1v-3.2h2.4v0.5h-1.7v0.7h1.6v0.5h-1.6v0.9h1.8v0.5h-2.5z"/><path id="path625" d="m108.5 320.1 0.6-0.1c0 0.2 0.1 0.4 0.2 0.5s0.3 0.1 0.5 0.1 0.4 0 0.5-0.1 0.2-0.2 0.2-0.3 0-0.1-0.1-0.2c0-0.1-0.1-0.1-0.2-0.1s-0.2-0.1-0.5-0.1c-0.3-0.1-0.6-0.2-0.7-0.3-0.2-0.2-0.3-0.4-0.3-0.6s0-0.3 0.1-0.5c0.1-0.1 0.2-0.3 0.4-0.3 0.2-0.1 0.4-0.1 0.6-0.1 0.4 0 0.7 0.1 0.9 0.3s0.3 0.4 0.3 0.7h-0.7c0-0.2-0.1-0.3-0.2-0.4s-0.2-0.1-0.4-0.1-0.3 0-0.4 0.1c-0.1 0-0.1 0.1-0.1 0.2s0 0.1 0.1 0.2 0.3 0.1 0.6 0.2 0.6 0.2 0.7 0.2c0.2 0.1 0.3 0.2 0.4 0.3s0.1 0.3 0.1 0.5-0.1 0.4-0.2 0.5-0.2 0.3-0.4 0.4-0.4 0.1-0.7 0.1c-0.4 0-0.7-0.1-0.9-0.3s-0.3-0.5-0.4-0.8z"/><path id="path627" d="m111.7 321.1v-3.2h2.4v0.5h-1.7v0.7h1.6v0.5h-1.6v0.9h1.8v0.5h-2.5z"/><path id="path629" d="m115.4 321.1v-2.7h-1v-0.5h2.6v0.5h-1v2.7h-0.6z"/></g></g><g id="_x31_6bit_1_" fill="#c6c6c6"><path id="XMLID_659_" d="m341.3 218.4v-2.5c2.5-0.6 4.2-1.5 5-2.5h2.5v10.3 2.3h-3.3v-2.3-7.1c-1.9 0.9-3.3 1.5-4.2 1.8z"/><path id="XMLID_656_" d="m362.1 216.7-3 0.7c-0.3-1.3-1-1.9-2.2-1.9-1.7 0-2.6 1.4-2.6 4.1 0.7-0.9 1.8-1.4 3.3-1.4 1.4 0 2.5 0.4 3.4 1.1s1.3 1.6 1.3 2.7-0.5 2.1-1.4 2.9c-1 0.8-2.2 1.3-3.8 1.3s-2.8-0.3-3.7-1-1.5-1.5-1.9-2.4c-0.3-0.9-0.5-1.9-0.5-2.7 0-1.9 0.5-3.4 1.5-4.7 1-1.2 2.5-1.8 4.5-1.8 1.4 0 2.6 0.3 3.5 1 0.8 0.4 1.4 1.1 1.6 2.1zm-5.4 7.3c0.6 0 1.1-0.2 1.6-0.5 0.4-0.4 0.6-0.8 0.6-1.5 0-0.6-0.2-1-0.7-1.4-0.4-0.3-1-0.5-1.5-0.5-0.6 0-1.1 0.2-1.5 0.5-0.4 0.4-0.7 0.8-0.7 1.4 0 0.5 0.2 1 0.6 1.4s1 0.6 1.6 0.6z"/><path id="XMLID_654_" d="m363.2 219.3h5.2v2.2h-5.2v-2.2z"/><path id="XMLID_650_" d="m370.2 213.6h6.9c1.2 0 2.2 0.1 2.8 0.4s1.1 0.6 1.5 1.1 0.6 1 0.6 1.7c0 1.4-0.9 2.3-2.7 2.7 1 0.2 1.8 0.6 2.3 1.1 0.5 0.6 0.8 1.2 0.8 1.9 0 0.9-0.4 1.7-1.3 2.4-0.8 0.7-2.2 1-4.1 1h-6.9v-12.3zm3.4 2.1v2.7h2.6c1 0 1.6-0.2 1.8-0.5s0.4-0.6 0.4-0.9-0.1-0.6-0.3-0.8-0.4-0.4-0.7-0.4c-0.2-0.1-0.7-0.1-1.4-0.1h-2.4zm0 4.9v3h2.6c0.9 0 1.5-0.1 1.9-0.4s0.6-0.6 0.6-1.1c0-0.4-0.2-0.7-0.5-1-0.4-0.3-1-0.4-1.8-0.4h-2.8z"/><path id="XMLID_648_" d="m386.6 213.6v12.3h-3.4v-12.3h3.4z"/><path id="XMLID_646_" d="m398.2 213.6v2.4h-3.6v9.9h-3.5v-9.9h-3.7v-2.4h10.8z"/></g></g><g id="g4311" transform="matrix(1.2543 0 0 1.2543 603.27 225.82)"><path id="XMLID_2_" d="m67.9 93.1h57.9c5.5 0 10-0.1 10-5.6v-80.6c0-5.5-9.5-6.9-15-6.9h-52.9l-52.9 0.1c-5.5 0-15 1.3-15 6.8v80.5c0 5.5 4.5 5.6 10 5.6h57.9" fill="#121115"/><path id="XMLID_1_" d="m115.1 2.7v74.5c0 1.6-0.9 3-2.2 3.7l-0.6 0.3c-0.4 0.2-0.9 0.2-1.4 0.2h-86c-0.5 0-1-0.1-1.4-0.2l-0.6-0.3c-1.3-0.7-2.2-2.1-2.2-3.7v-74.5c0-1 0.3-1.9 0.9-2.6h92.6c0.6 0.7 0.9 1.6 0.9 2.6z" fill="#232223"/><g id="g4315"><polyline id="polyline4317" points="20.8 62.7 54.6 62.7 58.2 57.1 77.7 57.1 81.4 62.7 115.2 62.7" fill="none" stroke="#bbb8be" stroke-miterlimit="10"/><rect id="rect4319" x="20.8" y="65.1" width="94.4" height=".4" fill="#bbb8be"/><rect id="rect4321" x="20.8" y="69.2" width="94.4" height=".4" fill="#bbb8be"/><rect id="rect4323" x="20.8" y="73.2" width="94.4" height=".4" fill="#bbb8be"/><rect id="rect4325" x="20.7" y="77.3" width="94.4" height=".4" fill="#bbb8be"/><rect id="rect4327" x="23.8" y="62.7" width=".4" height="18.6" fill="#bbb8be"/><rect id="rect4329" x="28.7" y="62.7" width=".4" height="18.6" fill="#bbb8be"/><rect id="rect4331" x="33.6" y="62.7" width=".4" height="18.6" fill="#bbb8be"/><rect id="rect4333" x="38.5" y="62.7" width=".4" height="18.6" fill="#bbb8be"/><rect id="rect4335" x="43.4" y="62.7" width=".4" height="18.6" fill="#bbb8be"/><rect id="rect4337" x="48.3" y="62.7" width=".4" height="18.6" fill="#bbb8be"/><rect id="rect4339" x="53.2" y="62.7" width=".4" height="18.6" fill="#bbb8be"/><rect id="rect4341" x="58.1" y="57.1" width=".4" height="24.2" fill="#bbb8be"/><rect id="rect4343" x="63" y="57.1" width=".4" height="24.2" fill="#bbb8be"/><rect id="rect4345" x="67.9" y="57.1" width=".4" height="24.2" fill="#bbb8be"/><rect id="rect4347" x="72.8" y="57.1" width=".4" height="24.2" fill="#bbb8be"/><rect id="rect4349" x="77.5" y="57.1" width=".4" height="24.2" fill="#bbb8be"/><rect id="rect4351" x="82.6" y="62.7" width=".4" height="18.6" fill="#bbb8be"/><rect id="rect4353" x="87.5" y="62.7" width=".4" height="18.6" fill="#bbb8be"/><rect id="rect4355" x="92.4" y="62.7" width=".4" height="18.6" fill="#bbb8be"/><rect id="rect4357" x="97.3" y="62.7" width=".4" height="18.6" fill="#bbb8be"/><rect id="rect4359" x="102.3" y="62.7" width=".4" height="18.6" fill="#bbb8be"/><rect id="rect4361" x="107.2" y="62.7" width=".4" height="18.6" fill="#bbb8be"/><rect id="rect4363" x="112.1" y="62.7" width=".4" height="18.6" fill="#bbb8be"/><rect id="rect4365" x="55.5" y="61" width="24.8" height=".4" fill="#bbb8be"/></g><g id="g4367"><g id="g4369"><g id="g3_4_" transform="translate(-24.5,-231.5)"><path id="path5_4_" d="m59 301.2v4.8l4.3 2.4h58.3l4.3-2.4v-4.8l-4.3-2.4h-19.7l-3.2-5.2h-14l-3.3 5.2h-18.1l-4.3 2.4zm22.6-0.9h2.2l4 2.3v-2.3h2.2v6.3h-2.2v-2.3l-4.1-2.3v4.6h-2.2v-6.3zm28.1 6.3v-6.3h2.2v6.3h-2.2zm-18.6 0v-4.8l2.2-1.4h5.7l-2.1 1.3h-3.6v1.3h4.3l-2.1 1.3h-2.2v1.3h5.8l-2.1 1.3h-5.9zm-19 0v-4.8l2.2-1.4h5.7l-2.1 1.3h-3.6v1.3h4.3l-2.1 1.3h-2.2v1.3h5.8l-2.1 1.3h-5.9zm-1.5-4v2.6l-2.2 1.4h-6.2v-4.8l2.2-1.4h6.6l-2.1 1.3h-4.5v3.8h4v-1.5h-2.4l2.1-1.3h2.5zm37.6 2.8-2.1 1.3h-6.4l2.1-1.3h4v-1.3h-6.1v-2.4l2.1-1.3h6.5l-2.1 1.3h-4.2v1.2h6.2v2.5zm13.7 0-2.1 1.3h-6.4l2.1-1.3h4v-1.3h-6.1v-2.4l2.1-1.3h6.5l-2.1 1.3h-4.2v1.2h6.2v2.5z" fill="#c2c4d1"/><linearGradient id="path14_1_" x1="116.94" x2="116.94" y1="33.834" y2="19.917" gradientTransform="matrix(1 0 0 -1 -24.5 327.72)" gradientUnits="userSpaceOnUse"><stop id="stop4374" stop-color="#D9DDE9" offset="0"/><stop id="stop4376" stop-color="#448074" offset=".39"/><stop id="stop4378" stop-color="#D9DDE9" offset="1"/></linearGradient><path id="path14_4_" d="m101.9 299.3-3.5-5.4h-13.5l-3.6 5.4h-18l-3.8 2.1v4.3l3.8 2.1h58.3l3.8-2.1v-4.3l-3.8-2.1h-19.7zm-20.3 1h2.2l4 2.3v-2.3h2.2v6.3h-2.2v-2.3l-4.1-2.3v4.6h-2.2v-6.3zm28.1 6.3v-6.3h2.2v6.3h-2.2zm-18.6 0v-4.8l2.2-1.4h5.7l-2.1 1.3h-3.6v1.3h4.3l-2.1 1.3h-2.2v1.3h5.8l-2.1 1.3h-5.9zm-19 0v-4.8l2.2-1.4h5.7l-2.1 1.3h-3.6v1.3h4.3l-2.1 1.3h-2.2v1.3h5.8l-2.1 1.3h-5.9zm-1.5-4v2.6l-2.2 1.4h-6.2v-4.8l2.2-1.4h6.6l-2.1 1.3h-4.5v3.8h4v-1.5h-2.4l2.1-1.3h2.5zm37.6 2.8-2.1 1.3h-6.4l2.1-1.3h4v-1.3h-6.1v-2.4l2.1-1.3h6.5l-2.1 1.3h-4.2v1.2h6.2v2.5zm13.7 0-2.1 1.3h-6.4l2.1-1.3h4v-1.3h-6.1v-2.4l2.1-1.3h6.5l-2.1 1.3h-4.2v1.2h6.2v2.5z" fill="url(#path14_1_)"/></g><linearGradient id="polygon37_1_" x1="82.173" x2="88.197" y1="-203.64" y2="-209.66" gradientTransform="matrix(1 0 0 -1 -24.5 -135.28)" gradientUnits="userSpaceOnUse"><stop id="stop4382" stop-color="#010101" offset="0"/><stop id="stop4384" offset=".11"/><stop id="stop4386" stop-color="#191918" offset=".22"/><stop id="stop4388" offset=".34"/><stop id="stop4390" stop-color="#010101" offset=".47"/><stop id="stop4392" offset=".59"/><stop id="stop4394" stop-color="#010101" offset=".72"/><stop id="stop4396" offset=".84"/><stop id="stop4398" stop-color="#010101" offset=".98"/></linearGradient><polygon id="polygon37_4_" points="63.4 68.8 65.5 68.8 65.5 75.1 63.4 75.1 63.4 72.8 59.2 70.5 59.2 75.1 57.1 75.1 57.1 68.8 59.3 68.8 63.4 71.1" fill="url(#polygon37_1_)"/><linearGradient id="rect58_1_" x1="108.7" x2="114.69" y1="-205.08" y2="-211.45" gradientTransform="matrix(1 0 0 -1 -24.5 -135.28)" gradientUnits="userSpaceOnUse"><stop id="stop4402" stop-color="#010101" offset="0"/><stop id="stop4404" offset=".11"/><stop id="stop4406" stop-color="#191918" offset=".22"/><stop id="stop4408" offset=".34"/><stop id="stop4410" stop-color="#010101" offset=".47"/><stop id="stop4412" offset=".59"/><stop id="stop4414" stop-color="#010101" offset=".72"/><stop id="stop4416" offset=".84"/><stop id="stop4418" stop-color="#010101" offset=".98"/></linearGradient><rect id="rect58_4_" x="85.2" y="68.8" width="2.2" height="6.3" fill="url(#rect58_1_)"/><linearGradient id="polygon79_1_" x1="91.484" x2="97.444" y1="-203.75" y2="-209.71" gradientTransform="matrix(1 0 0 -1 -24.5 -135.28)" gradientUnits="userSpaceOnUse"><stop id="stop4422" stop-color="#010101" offset="0"/><stop id="stop4424" offset=".11"/><stop id="stop4426" stop-color="#191918" offset=".22"/><stop id="stop4428" offset=".34"/><stop id="stop4430" stop-color="#010101" offset=".47"/><stop id="stop4432" offset=".59"/><stop id="stop4434" stop-color="#010101" offset=".72"/><stop id="stop4436" offset=".84"/><stop id="stop4438" stop-color="#010101" offset=".98"/></linearGradient><polygon id="polygon79_4_" points="72.5 75.1 66.6 75.1 66.6 70.3 68.8 68.8 74.4 68.8 72.4 70.1 68.8 70.1 68.8 71.4 73.1 71.4 71 72.6 68.8 72.6 68.8 73.9 74.6 73.9" fill="url(#polygon79_1_)"/><linearGradient id="polygon100_1_" x1="73.727" x2="77.498" y1="-203.37" y2="-209.9" gradientTransform="matrix(1 0 0 -1 -24.5 -135.28)" gradientUnits="userSpaceOnUse"><stop id="stop4442" stop-color="#010101" offset="0"/><stop id="stop4444" offset=".11"/><stop id="stop4446" stop-color="#191918" offset=".22"/><stop id="stop4448" offset=".34"/><stop id="stop4450" stop-color="#010101" offset=".47"/><stop id="stop4452" offset=".59"/><stop id="stop4454" stop-color="#010101" offset=".72"/><stop id="stop4456" offset=".84"/><stop id="stop4458" stop-color="#010101" offset=".98"/></linearGradient><polygon id="polygon100_4_" points="53.5 75.1 47.6 75.1 47.6 70.3 49.7 68.8 55.4 68.8 53.3 70.1 49.7 70.1 49.7 71.4 54 71.4 52 72.6 49.7 72.6 49.7 73.9 55.6 73.9" fill="url(#polygon100_1_)"/><linearGradient id="polygon121_1_" x1="63.617" x2="69.496" y1="-204.24" y2="-210.12" gradientTransform="matrix(1 0 0 -1 -24.5 -135.28)" gradientUnits="userSpaceOnUse"><stop id="stop4462" stop-color="#010101" offset="0"/><stop id="stop4464" offset=".11"/><stop id="stop4466" stop-color="#191918" offset=".22"/><stop id="stop4468" offset=".34"/><stop id="stop4470" stop-color="#010101" offset=".47"/><stop id="stop4472" offset=".59"/><stop id="stop4474" stop-color="#010101" offset=".72"/><stop id="stop4476" offset=".84"/><stop id="stop4478" stop-color="#010101" offset=".98"/></linearGradient><polygon id="polygon121_4_" points="44 72.3 41.5 72.3 43.5 71.1 46.1 71.1 46.1 73.7 44 75.1 37.8 75.1 37.8 70.3 39.9 68.8 46.5 68.8 44.4 70.1 39.9 70.1 39.9 73.9 44 73.9" fill="url(#polygon121_1_)"/><linearGradient id="polygon142_1_" x1="100.35" x2="106.35" y1="-203.68" y2="-209.68" gradientTransform="matrix(1 0 0 -1 -24.5 -135.28)" gradientUnits="userSpaceOnUse"><stop id="stop4482" stop-color="#010101" offset="0"/><stop id="stop4484" offset=".11"/><stop id="stop4486" stop-color="#191918" offset=".22"/><stop id="stop4488" offset=".34"/><stop id="stop4490" stop-color="#010101" offset=".47"/><stop id="stop4492" offset=".59"/><stop id="stop4494" stop-color="#010101" offset=".72"/><stop id="stop4496" offset=".84"/><stop id="stop4498" stop-color="#010101" offset=".98"/></linearGradient><polygon id="polygon142_4_" points="77.5 70.2 77.5 71.4 83.7 71.4 83.7 73.9 81.6 75.1 75.2 75.1 77.3 73.9 81.3 73.9 81.3 72.6 75.2 72.6 75.2 70.2 77.3 68.9 83.7 68.9 81.7 70.2" fill="url(#polygon142_1_)"/><linearGradient id="polygon163_1_" x1="114.08" x2="120.09" y1="-203.68" y2="-209.68" gradientTransform="matrix(1 0 0 -1 -24.5 -135.28)" gradientUnits="userSpaceOnUse"><stop id="stop4502" stop-color="#010101" offset="0"/><stop id="stop4504" offset=".11"/><stop id="stop4506" stop-color="#191918" offset=".22"/><stop id="stop4508" offset=".34"/><stop id="stop4510" stop-color="#010101" offset=".47"/><stop id="stop4512" offset=".59"/><stop id="stop4514" stop-color="#010101" offset=".72"/><stop id="stop4516" offset=".84"/><stop id="stop4518" stop-color="#010101" offset=".98"/></linearGradient><polygon id="polygon163_4_" points="91.2 70.2 91.2 71.4 97.4 71.4 97.4 73.9 95.3 75.1 89 75.1 91 73.9 95.1 73.9 95.1 72.6 89 72.6 89 70.2 91 68.9 97.5 68.9 95.4 70.2" fill="url(#polygon163_1_)"/></g><g id="g4521"><path id="path4523" d="m73.4 63.9c-0.1-0.4-0.5-0.6-1-0.6s-0.9 0.3-1 0.6l-0.7 1.9v-2.5h-2.6c-0.3 0-0.6 0.5-0.6 1.1v-1.1h-2.6c-0.4 0-0.7 0.5-0.7 1.1v-1.1h-2.2c-0.7 0-1.3 0.7-1.3 1.5 0 0.4 0.2 0.8 0.4 1.1h-0.5v1.7h2.6c0.6 0 1-0.4 1-0.9 0 0.5 0.4 0.9 0.8 0.9h2.6v-1.1c0 0.6 0.2 1.1 0.6 1.1h6.6l-1.4-3.7" fill="#fff"/><path id="path16_2_" d="m71.5 64.1-1.1 3.2h0.6l1.1-3.1c0-0.1 0.2-0.2 0.3-0.2s0.3 0.1 0.3 0.2l0.9 2.6h-1.5v0.5h2.2l-1.1-3.2c-0.1-0.4-0.5-0.6-0.9-0.6-0.3 0-0.7 0.3-0.8 0.6zm0.7 2 0.2-0.5 0.2 0.5h-0.4zm-0.1-1.5-1 2.8h0.6l0.4-1.2v0.5h1.3l-0.8-2.2c0-0.1-0.2-0.5-0.3-0.5 0 0.1-0.2 0.4-0.2 0.6zm-3.5-0.5h1.9v-0.5h-2c-0.5 0-1 0.4-1 0.9v1.9c0 0.5 0.4 0.9 1 0.9h2v-2.4h-1.6v0.5h1v1.4h-1.4c-0.3 0-0.5-0.2-0.5-0.4v-1.8c0.1-0.3 0.3-0.5 0.6-0.5zm0.3 1.4v0.5h0.3v0.1h-0.3c-0.1 0-0.1-0.1-0.1-0.1v-1.1c0-0.1 0.1-0.1 0.1-0.1h1.6v-0.5h-1.8c-0.3 0-0.5 0.2-0.5 0.4v1.6c0 0.2 0.2 0.4 0.5 0.4h1.1v-1.2h-0.9zm-3.5-1.4h1.9v-0.5h-2c-0.5 0-1 0.4-1 0.9v1.9c0 0.5 0.4 0.9 1 0.9h2v-0.5h-1.9c-0.3 0-0.5-0.2-0.5-0.4v-1.8c0-0.3 0.2-0.5 0.5-0.5zm1.5 1.3v-0.5h-1.3c0-0.1 0.1-0.1 0.1-0.1h1.6v-0.5h-1.8c-0.3 0-0.5 0.2-0.5 0.4v0.7h1.9zm0 0.2v0.4h-1.3c0 0.1 0.1 0.1 0.1 0.1h1.6v0.5h-1.8c-0.3 0-0.5-0.2-0.5-0.4v-0.7h1.9v0.1zm-4.8 0.6h-1.1v0.5h1.8c0.3 0 0.6-0.3 0.6-0.6s-0.3-0.6-0.6-0.6h-0.7c-0.3-0.1-0.5-0.4-0.5-0.7 0-0.4 0.4-0.7 0.8-0.7h1.7v-0.5h-1.8c-0.7 0-1.3 0.5-1.3 1.2s0.6 1.2 1.3 1.2h0.4c0.1 0 0.1 0 0.1 0.1s0 0.1-0.1 0.1h-0.6zm0.8-1.5h1.2v-0.5h-1.8c-0.3 0-0.6 0.3-0.6 0.6s0.3 0.6 0.6 0.6h0.7c0.3 0.1 0.5 0.4 0.5 0.7 0 0.4-0.4 0.7-0.8 0.7h-1.7v0.5h1.8c0.7 0 1.3-0.5 1.3-1.2s-0.6-1.2-1.3-1.2h-0.4c-0.1 0-0.1 0-0.1-0.1 0 0 0-0.1 0.1-0.1h0.5z" fill="#3e64af"/></g></g></g></svg>
