<?xml version="1.0" encoding="UTF-8"?>
<!-- Generator: Adobe Illustrator 19.0.0, SVG Export Plug-In . SVG Version: 6.00 Build 0)  -->
<svg id="Layer_1" width="773.61" height="342.6" version="1.1" viewBox="0 0 773.61 342.6" xml:space="preserve" xmlns="http://www.w3.org/2000/svg" xmlns:cc="http://creativecommons.org/ns#" xmlns:dc="http://purl.org/dc/elements/1.1/" xmlns:rdf="http://www.w3.org/1999/02/22-rdf-syntax-ns#"><metadata id="metadata642"><rdf:RDF><cc:Work rdf:about=""><dc:format>image/svg+xml</dc:format><dc:type rdf:resource="http://purl.org/dc/dcmitype/StillImage"/><dc:title/></cc:Work></rdf:RDF></metadata><defs id="defs640"><clipPath id="clipPath16"><path id="path18" d="m0 93.146h136.27v-93.146h-136.27v93.146z"/></clipPath><clipPath id="clipPath40"><path id="path42" d="m31.948 29.258h73.084v-11.742h-73.084v11.742z"/></clipPath></defs><path id="path3" d="m1020.6 444.1" fill="#181515"/><g id="g5"><rect id="rect7" width="549" height="342.6" fill="#2d2a2a"/><polygon id="polygon9" points="9 342.6 0 342.6 0 0 20 0 20 214.3 9 234.4" fill="#231e1e"/><polygon id="polygon11" points="540 342.6 549 342.6 549 0 529 0 528.9 214.1 540 234.4" fill="#231e1e"/><path id="path13" d="m239.6 221.7h-210.4c-4.6 0-8.4-3.3-9.1-7.7l-11.1 20.4c3.3 4.3 9.7 7.3 14.5 5.8 5.7-1.8 8.3-7 8.3-14.5h110.2v0.2c0.1 7.1 2.6 12 8.3 13.8h89.3c15.5-0.3 18.3 1.7 26.7 10.9 22.6 26.8 60.5 44.4 103.4 44.4 43 0 80.9-17.6 103.4-44.4 5.4-6.4 6.6-9.3 15-10.1 10.3-0.9 48 0 51.9-6.1l-11.1-20.3c-0.8 4.3-4.6 7.7-9.1 7.7-11.6 0.7-26.8-0.3-29.4 3.4-16 22.2-54.9 62.2-119.2 62.2s-90.5-29.4-116.4-57.1c-5.7-6.8-6.4-8.8-15.2-8.6" fill="#181515"/><path id="path15" d="m519.6 221.8c-11.6 0.7-29.6-0.3-32.2 3.4-16 22.2-52.2 62.2-116.6 62.2s-90.6-29.4-116.6-57.1c-5.7-6.7-6.4-8.7-15.2-8.5h-210.7c-5.1 0-9.3-4.2-9.3-9.3v-212.5h509.9v212.5c0 5.1-4.2 9.2-9.3 9.3" fill="#312f2f"/><path id="path17" d="m528.8 217.1" fill="none" stroke="#d6d5d5" stroke-miterlimit="10"/><path id="path19" d="m36.2 317.5-10.9-78c3.2-1.6 5.2-4.5 6.1-8.5l4.8 86.5z" fill="#181515"/><path id="path21" d="m138.7 317.5 3.3-91.6c0.1 7.1 2.6 12 8.3 13.8l-11.6 77.8z" fill="#181515"/><g id="g23"><rect id="rect25" x="49.9" y="243.5" width="19.3" height="69.5"/><rect id="rect27" x="50.6" y="244.2" width="6.5" height="68.9" fill="#1b1818"/><rect id="rect29" x="61.9" y="244.2" width="6.5" height="68.9" fill="#1b1818"/><g id="g31"><rect id="rect33" x="52.4" y="248" width="14.2" height="6.9" fill="#2b2828"/><rect id="rect35" x="52.4" y="262.4" width="14.2" height=".4" fill="#3c3b3b"/><rect id="rect37" x="52.4" y="267.2" width="14.2" height="10.1" fill="#3f3f3e"/><rect id="rect39" x="52.4" y="254.9" width="14.2" height="7.5" fill="#333030"/><rect id="rect41" x="52.4" y="249.1" width="14.2" height=".8" fill="#5d1314"/><rect id="rect43" x="52.4" y="262.9" width="14.2" height=".9" fill="#414040"/><rect id="rect45" x="52.4" y="263.7" width="14.2" height=".4" fill="#464646"/><rect id="rect47" x="52.4" y="264.2" width="14.2" height=".4" fill="#535353"/><rect id="rect49" x="52.4" y="264.6" width="14.2" height=".4" fill="#5f5f5f"/><rect id="rect51" x="52.4" y="265" width="14.2" height=".4" fill="#6a6a6a"/><rect id="rect53" x="52.4" y="265.5" width="14.2" height=".4" fill="#707070"/><rect id="rect55" x="52.4" y="265.9" width="14.2" height=".4" fill="#6a6969"/><rect id="rect57" x="52.4" y="266.4" width="14.2" height=".4" fill="#5a5a5a"/><rect id="rect59" x="52.4" y="266.8" width="14.2" height=".4" fill="#484848"/></g><polygon id="polygon61" points="71.6 239.8 69.1 243.5 49.9 243.5 47.4 239.8" fill="#0d0d0c"/><polygon id="polygon63" points="71.6 316.8 69.1 313.1 49.9 313.1 47.4 316.8" fill="#4e4b4a"/><polygon id="polygon65" points="49.9 243.5 49.9 313.1 47.4 316.8 47.4 239.8" fill="#211e1d"/><polygon id="polygon67" points="69.1 243.5 69.1 313.1 71.6 316.8 71.6 239.8" fill="#211e1d"/></g><g id="g69"><path id="path71" d="m116.6 248.1" fill="none" stroke="#5d1314" stroke-miterlimit="10"/><path id="path73" d="m116.6 255.8" fill="none" stroke="#5d1314" stroke-miterlimit="10"/><path id="path75" d="m127.3 255.8" fill="none" stroke="#5d1314" stroke-miterlimit="10"/><g id="g77"><rect id="rect79" x="100.3" y="248" width="9.2" height="7.6" fill="#414748"/><polygon id="polygon81" points="120.1 243.8 109.5 248 100.3 248 89.7 243.8" fill="#262323"/><polygon id="polygon83" points="100.3 248 100.3 255.6 89.7 259.7 89.7 243.8" fill="#33302f"/><polygon id="polygon85" points="120.1 259.7 109.5 255.6 100.3 255.6 89.7 259.7" fill="#262323"/><path id="path87" d="m105 257.8c-0.3 0-0.5-0.2-0.5-0.4v-11.2c0-0.2 0.2-0.4 0.4-0.4h0.1c0.2 0 0.4 0.2 0.4 0.4v11.2c-0.1 0.2-0.2 0.4-0.4 0.4z" fill="#5d1314"/><polygon id="polygon89" points="109.5 248 109.5 255.6 120.1 259.7 120.1 243.8" fill="#33302f"/></g><rect id="rect91" x="120.1" y="243.8" width="7.7" height="15.9" fill="#282828"/><polygon id="polygon93" points="130.7 241.1 127.8 243.8 89.7 243.8 86.9 241.1" fill="#0d0d0c"/><polygon id="polygon95" points="130.7 262.5 127.8 259.7 89.7 259.7 86.9 262.5" fill="#4e4b4a"/><polygon id="polygon97" points="86.9 241.1 86.9 262.5 89.7 259.7 89.7 243.8" fill="#211e1d"/><polygon id="polygon99" points="130.7 241.1 130.7 262.5 127.8 259.7 127.8 243.8" fill="#211e1d"/><g id="g101" fill="#c4c4c4"><path id="path103" d="m86.3 265.9c0-0.4 0.1-0.8 0.2-1.1 0.1-0.2 0.2-0.4 0.4-0.6s0.4-0.3 0.6-0.4c0.3-0.1 0.6-0.2 0.9-0.2 0.6 0 1.1 0.2 1.5 0.6s0.6 0.9 0.6 1.6-0.2 1.2-0.6 1.6-0.9 0.6-1.5 0.6-1.1-0.2-1.5-0.6c-0.4-0.3-0.6-0.8-0.6-1.5zm0.9-0.1c0 0.5 0.1 0.9 0.3 1.1 0.2 0.3 0.5 0.4 0.9 0.4s0.6-0.1 0.9-0.4c0.2-0.3 0.3-0.6 0.3-1.1s-0.1-0.9-0.3-1.1-0.5-0.4-0.9-0.4-0.6 0.1-0.9 0.4c-0.2 0.3-0.3 0.7-0.3 1.1z"/><path id="path105" d="m91.2 268v-4.3h0.8l1.8 2.9v-2.9h0.8v4.3h-0.9l-1.7-2.8v2.8h-0.8z"/></g><g id="g107" fill="#c4c4c4"><path id="path109" d="m119.3 265.9c0-0.4 0.1-0.8 0.2-1.1 0.1-0.2 0.2-0.4 0.4-0.6s0.4-0.3 0.6-0.4c0.3-0.1 0.6-0.2 0.9-0.2 0.6 0 1.1 0.2 1.5 0.6s0.6 0.9 0.6 1.6-0.2 1.2-0.6 1.6-0.9 0.6-1.5 0.6-1.1-0.2-1.5-0.6c-0.4-0.3-0.6-0.8-0.6-1.5zm0.9-0.1c0 0.5 0.1 0.9 0.3 1.1 0.2 0.3 0.5 0.4 0.9 0.4s0.6-0.1 0.9-0.4c0.2-0.3 0.3-0.6 0.3-1.1s-0.1-0.9-0.3-1.1-0.5-0.4-0.9-0.4-0.6 0.1-0.9 0.4c-0.2 0.3-0.3 0.7-0.3 1.1z"/><path id="path111" d="m124.2 268v-4.3h2.9v0.7h-2.1v1h1.8v0.7h-1.8v1.8h-0.8z"/><path id="path113" d="m127.9 268v-4.3h2.9v0.7h-2.1v1h1.8v0.7h-1.8v1.8h-0.8z"/></g></g><g id="g115"><g id="g117" fill="#c4c4c4"><rect id="rect119" x="42.6" y="246.2" width="2.9" height="1"/><rect id="rect121" x="42.6" y="249.6" width="2.9" height="1"/><rect id="rect123" x="42.6" y="253" width="2.9" height="1"/><rect id="rect125" x="42.6" y="255.9" width="2.9" height="1"/><rect id="rect127" x="42.6" y="259.3" width="2.9" height="1"/><rect id="rect129" x="42.6" y="262.7" width="2.9" height="1"/><rect id="rect131" x="42.5" y="266" width="2.9" height="1"/><rect id="rect133" x="42.6" y="269.2" width="2.9" height="1"/><rect id="rect135" x="42.6" y="272.4" width="2.9" height="1"/><rect id="rect137" x="42.6" y="275.7" width="2.9" height="1"/><rect id="rect139" x="42.6" y="279.1" width="2.9" height="1"/></g><g id="g141" fill="#c4c4c4"><path id="path143" d="m38.7 248.4h-0.7v-2.6c-0.3 0.2-0.5 0.4-0.9 0.5v-0.6l0.6-0.3c0.2-0.2 0.4-0.4 0.4-0.6h0.6v3.6z"/><path id="path145" d="m40.9 244.8c0.3 0 0.6 0.1 0.8 0.4s0.3 0.8 0.3 1.5-0.1 1.2-0.4 1.5c-0.2 0.2-0.5 0.4-0.8 0.4s-0.6-0.1-0.8-0.4-0.3-0.7-0.3-1.4 0.1-1.2 0.4-1.5c0.1-0.4 0.4-0.5 0.8-0.5zm0 0.6c-0.1 0-0.2 0-0.2 0.1s-0.1 0.1-0.2 0.3c0 0.2-0.1 0.5-0.1 0.9s0 0.7 0.1 0.9 0.1 0.3 0.2 0.3c0.1 0.1 0.1 0.1 0.2 0.1s0.2 0 0.2-0.1 0.1-0.1 0.2-0.3c0-0.2 0.1-0.5 0.1-0.9s0-0.7-0.1-0.9-0.1-0.3-0.2-0.3c-0.1-0.1-0.2-0.1-0.2-0.1z"/></g><g id="g147"><path id="path149" d="m39.6 263.9 0.7-0.1c0 0.2 0.1 0.3 0.2 0.4s0.2 0.1 0.3 0.1 0.3-0.1 0.4-0.2 0.1-0.3 0.1-0.5 0-0.4-0.1-0.5-0.2-0.2-0.4-0.2-0.4 0.1-0.5 0.3l-0.6-0.1 0.4-1.9h1.8v0.6h-1.3l-0.1 0.6c0.2-0.1 0.3-0.1 0.5-0.1 0.3 0 0.6 0.1 0.8 0.3s0.3 0.5 0.3 0.9c0 0.3-0.1 0.6-0.3 0.8-0.2 0.3-0.6 0.5-1 0.5-0.3 0-0.6-0.1-0.8-0.3s-0.4-0.3-0.4-0.6z" fill="#c4c4c4"/></g><g id="g151"><path id="path153" d="m40.7 277.8c0.3 0 0.6 0.1 0.8 0.4s0.3 0.8 0.3 1.5-0.1 1.2-0.4 1.5c-0.2 0.2-0.5 0.4-0.8 0.4s-0.6-0.1-0.8-0.4-0.3-0.7-0.3-1.4 0.1-1.2 0.4-1.5c0.2-0.4 0.5-0.5 0.8-0.5zm0 0.5c-0.1 0-0.2 0-0.2 0.1s-0.1 0.1-0.2 0.3c0 0.2-0.1 0.5-0.1 0.9s0 0.7 0.1 0.9 0.1 0.3 0.2 0.3c0.1 0.1 0.1 0.1 0.2 0.1s0.2 0 0.2-0.1 0.1-0.1 0.2-0.3c0-0.2 0.1-0.5 0.1-0.9s0-0.7-0.1-0.9-0.1-0.3-0.2-0.3c0 0-0.1-0.1-0.2-0.1z" fill="#c4c4c4"/></g></g><path id="path155" d="m70.5 41h-70.5v157.9h70.5c3.3 0 6-2.7 6-6v-145.9c0-3.3-2.7-6-6-6z" fill="#1e1b1b"/><g id="g157"><path id="path159" d="m71.5 52.3h-71.5v-6.2h71.5c0.5 0 0.9 0.4 0.9 0.9v4.3c0 0.6-0.4 1-0.9 1z" fill="#070606"/><path id="path161" d="m71.1 51.2h-52.1v-6h52.1c0.5 0 0.9 0.4 0.9 0.9v4.1c0.1 0.6-0.3 1-0.9 1z" fill="#282424"/><rect id="rect163" y="45.2" width="19" height="6" fill="#1e1b1b"/><rect id="rect165" y="45.2" width="19" height=".9" fill="#252222"/><path id="path167" d="m72.1 46.1h-53.1v-0.9h52.1c0.6 0 1 0.4 1 0.9z" fill="#3c3939"/></g><path id="path169" d="m469.4 242.9" fill="none" stroke="#d6d5d5" stroke-miterlimit="10"/><path id="path171" d="m366.1 269.4" fill="none" stroke="#d6d5d5" stroke-miterlimit="10"/><ellipse id="ellipse173" cx="370.8" cy="143.7" rx="140.5" ry="141" fill="#1b1818"/><ellipse id="ellipse175" cx="370.2" cy="140.5" rx="121.2" ry="116.7" fill="#2c2929"/><g id="g177"/><g id="g199"/><path id="path247" d="m456.9 115h-173.4c-10.3 0-18.8-8.5-18.8-18.8s8.5-18.8 18.8-18.8h173.4c10.3 0 18.8 8.5 18.8 18.8s-8.5 18.8-18.8 18.8z" fill="#181515"/><path id="path249" d="m369.9 110.8h83.2c5.6 0 10.1-4.3 10.1-19h-10.1v-7.6h0.3-83.2-83.2 0.3v7.6h-10.1c0 14.7 4.5 19 10.1 19h83.2"/><path id="path251" d="m369.9 109.8h82.4c5.5 0 10-4 10-17.6h-10v-7h0.3-82.4-82.4 0.3v7h-10c0 13.6 4.5 17.6 10 17.6h82.4" fill="#282424"/><rect id="rect253" x="278.6" y="98.7" width="183.2" height=".9" fill="#010102"/><g id="g255"><g id="g257"><path id="path259" d="m300 87.8h-1.8c0-0.4 0.4-0.7 0.9-0.7s0.9 0.3 0.9 0.7z" fill="#363636"/><path id="path261" d="m300 95.8h-1.8c0 0.4 0.4 0.7 0.9 0.7s0.9-0.3 0.9-0.7z" fill="#464646"/><rect id="rect263" x="298.2" y="87.8" width="1.8" height="8" fill="#424141"/></g><g id="g265"><path id="path267" d="m300 101.8h-1.8c0-0.3 0.4-0.6 0.9-0.6s0.9 0.3 0.9 0.6z" fill="#363636"/><path id="path269" d="m300 108.2h-1.8c0 0.3 0.4 0.6 0.9 0.6s0.9-0.2 0.9-0.6z" fill="#464646"/><rect id="rect271" x="298.2" y="101.8" width="1.8" height="6.5" fill="#424141"/></g><g id="g273"><path id="path275" d="m440.4 87.8h1.8c0-0.4-0.4-0.7-0.9-0.7s-0.9 0.3-0.9 0.7z" fill="#363636"/><path id="path277" d="m440.4 95.8h1.8c0 0.4-0.4 0.7-0.9 0.7s-0.9-0.3-0.9-0.7z" fill="#464646"/><rect id="rect279" x="440.4" y="87.8" width="1.8" height="8" fill="#424141"/></g><g id="g281"><path id="path283" d="m440.4 101.8h1.8c0-0.3-0.4-0.6-0.9-0.6s-0.9 0.3-0.9 0.6z" fill="#363636"/><path id="path285" d="m440.4 108.2h1.8c0 0.3-0.4 0.6-0.9 0.6s-0.9-0.2-0.9-0.6z" fill="#464646"/><rect id="rect287" x="440.4" y="101.8" width="1.8" height="6.5" fill="#424141"/></g></g><path id="path289" d="m320 276.5v-29.7c15.3 6.7 32.3 10.4 50.2 10.4s34.9-3.7 50.2-10.4v29.6-0.8c-15.7 5.5-32.6 9.1-50.2 9.1s-34.5-4.1-50.2-9.6" fill="#dbdbdb"/><g id="g291"><ellipse id="ellipse293" cx="370.2" cy="270.3" rx="3.3" ry="3.5" fill="#631418"/><circle id="ellipse295" cx="370.2" cy="270.3" r="2.3" fill="#f95d5d"/><g id="g297"><g id="g299" fill="#391516"><path id="path301" d="m343.1 266.2c0.6 0.1 0.8 0.1 1.4 0.2 0.1 0 0.3 0 0.4 0.1 0.1 0 0.2 0.1 0.3 0.1s0.2 0.1 0.3 0.2 0.2 0.1 0.2 0.2 0.1 0.2 0.1 0.3v0.4c0 0.4-0.2 0.7-0.5 0.8-0.3 0.2-0.6 0.2-1.1 0.2-0.3 0-0.5-0.1-0.8-0.1-0.1 0.6-0.1 0.8-0.2 1.4-0.3 0-0.4-0.1-0.7-0.1 0.3-1.5 0.4-2.2 0.6-3.7zm0.5 1.8c0.3 0 0.5 0.1 0.8 0.1h0.3c0.1 0 0.2 0 0.2-0.1 0.1 0 0.1-0.1 0.1-0.2s0.1-0.1 0.1-0.2v-0.3c0-0.1-0.1-0.1-0.1-0.2-0.1 0-0.1-0.1-0.2-0.1s-0.2 0-0.3-0.1c-0.3 0-0.5-0.1-0.8-0.1 0 0.6-0.1 0.8-0.1 1.2z"/><path id="path303" d="m348.3 266.8c0.3 0 0.5 0.1 0.7 0.2s0.4 0.3 0.5 0.4l0.3 0.6c0.1 0.2 0.1 0.5 0.1 0.8s-0.1 0.5-0.2 0.8-0.3 0.4-0.4 0.6c-0.2 0.1-0.4 0.3-0.6 0.3-0.2 0.1-0.5 0.1-0.7 0.1-0.3 0-0.5-0.1-0.7-0.2s-0.4-0.3-0.5-0.5l-0.3-0.6c-0.1-0.2-0.1-0.5 0-0.8 0-0.3 0.1-0.5 0.2-0.8 0.1-0.2 0.3-0.4 0.4-0.6 0.2-0.1 0.4-0.3 0.6-0.3h0.6zm-0.3 3.2h0.5c0.1 0 0.3-0.1 0.4-0.2s0.2-0.2 0.3-0.4 0.1-0.3 0.1-0.5v-0.6c0-0.2-0.1-0.3-0.2-0.4l-0.3-0.3c-0.1-0.1-0.3-0.1-0.4-0.1h-0.4c-0.1 0-0.3 0.1-0.4 0.2s-0.2 0.2-0.3 0.4-0.1 0.3-0.1 0.5v0.6c0 0.2 0.1 0.3 0.2 0.4l0.3 0.3c0 0.1 0.1 0.1 0.3 0.1z"/><path id="path305" d="m355.3 267.6c-0.5 1.4-0.8 2.2-1.3 3.6-0.3 0-0.4 0-0.6-0.1-0.2-1.1-0.3-1.7-0.5-2.8-0.4 1.1-0.6 1.6-1 2.6-0.3 0-0.4 0-0.6-0.1-0.3-1.5-0.4-2.3-0.7-3.8 0.3 0 0.4 0 0.7 0.1 0.1 1 0.2 1.5 0.4 2.5 0.4-1 0.6-1.4 0.9-2.4 0.3 0 0.4 0 0.7 0.1l0.5 2.5c0.3-1 0.5-1.5 0.8-2.4 0.2 0.1 0.4 0.1 0.7 0.2z"/><path id="path307" d="m358.4 271.5c-1.2-0.1-1.7-0.1-2.9-0.2 0.1-1.5 0.2-2.2 0.3-3.7 1.1 0.1 1.7 0.1 2.8 0.2v0.6c-0.8-0.1-1.2-0.1-2.1-0.1 0 0.3 0 0.5-0.1 0.8 0.8 0.1 1.2 0.1 1.9 0.1v0.6c-0.8 0-1.2-0.1-2-0.1 0 0.4 0 0.6-0.1 1 0.9 0.1 1.3 0.1 2.2 0.1 0.1 0.3 0 0.5 0 0.7z"/><path id="path309" d="m362.4 271.7h-0.8c-0.1-0.4-0.2-0.6-0.3-1 0-0.1-0.1-0.1-0.1-0.2s-0.1-0.1-0.1-0.2c-0.1 0-0.1-0.1-0.2-0.1h-0.2-0.8c0 0.6 0 0.9-0.1 1.5h-0.7c0.1-1.5 0.1-2.2 0.2-3.7 0.7 0 1 0.1 1.7 0.1h0.3 0.3c0.1 0 0.2 0 0.2 0.1 0.1 0 0.1 0.1 0.2 0.1l0.2 0.2c0 0.1 0.1 0.1 0.1 0.2s0 0.1 0.1 0.2v0.2c0 0.2-0.1 0.4-0.2 0.6s-0.3 0.3-0.5 0.4c0.2 0.1 0.3 0.3 0.4 0.6s0.2 0.6 0.3 1zm-2.4-2.2h0.9 0.3c0.1 0 0.2 0 0.2-0.1 0.1 0 0.1-0.1 0.1-0.1v-0.2c0-0.2 0-0.3-0.1-0.4s-0.3-0.1-0.5-0.1h-1c0.1 0.3 0.1 0.5 0.1 0.9z"/><path id="path311" d="m391.8 266.9c0.3 0 0.5 0 0.7 0.1l0.6 0.3c0.2 0.1 0.3 0.3 0.4 0.6 0.1 0.2 0.2 0.5 0.2 0.8v0.8c-0.1 0.2-0.2 0.5-0.3 0.6-0.1 0.2-0.3 0.3-0.5 0.5s-0.4 0.2-0.7 0.2-0.5 0-0.7-0.1l-0.6-0.3c-0.2-0.1-0.3-0.3-0.4-0.6-0.1-0.2-0.2-0.5-0.2-0.8s0-0.6 0.1-0.8 0.2-0.5 0.3-0.6c0.1-0.2 0.3-0.3 0.5-0.4 0.1-0.2 0.3-0.3 0.6-0.3zm0.4 3.2c0.2 0 0.3-0.1 0.4-0.1l0.3-0.3c0.1-0.1 0.1-0.3 0.2-0.4v-0.6c0-0.2-0.1-0.4-0.1-0.5-0.1-0.2-0.2-0.3-0.3-0.4s-0.2-0.2-0.4-0.2c-0.1 0-0.3-0.1-0.4 0-0.2 0-0.3 0.1-0.4 0.1s-0.2 0.2-0.3 0.3-0.1 0.3-0.2 0.4v0.5c0 0.2 0.1 0.4 0.1 0.5 0.1 0.2 0.2 0.3 0.3 0.4s0.2 0.2 0.4 0.2 0.2 0.1 0.4 0.1z"/><path id="path313" d="m397.8 269.9c-0.3 0-0.4 0.1-0.7 0.1-0.8-0.9-1.2-1.3-2-2.2 0.1 1 0.2 1.5 0.3 2.5-0.3 0-0.4 0.1-0.7 0.1-0.2-1.5-0.3-2.2-0.5-3.7 0.3 0 0.4 0 0.7-0.1 0.8 0.9 1.2 1.3 2 2.2-0.1-1-0.2-1.5-0.3-2.5 0.3 0 0.4-0.1 0.7-0.1 0.2 1.5 0.3 2.2 0.5 3.7z"/><path id="path315" d="m388.4 269.3v0.7c0 0.1-3.1 0.3-6.9 0.5s-6.9 0.4-6.9 0.3v-0.7c0 0.1 3.1-0.1 6.9-0.3s6.9-0.5 6.9-0.5z"/></g></g></g><path id="path317" d="m421.9 175.5v71.2c-15.7 6.8-33.2 10.6-51.7 10.6-18.4 0-35.9-3.8-51.7-10.6v-71.2c0-6.7 5.6-12.1 12.4-12.1h78.6c6.8 0 12.4 5.4 12.4 12.1z"/><path id="path319" d="m419.9 176.5v70.3c-15.3 6.7-32.3 10.4-50.2 10.4s-34.9-3.7-50.2-10.4v-70.3c0-6.6 5.4-12 12-12h76.3c6.7 0 12.1 5.4 12.1 12z" fill="#211f1f"/><g id="g321"><path id="path323" d="m71.5 62h-71.5v-6.2h71.5c0.5 0 0.9 0.4 0.9 0.9v4.3c0 0.6-0.4 1-0.9 1z" fill="#070606"/><path id="path325" d="m71.1 60.9h-52.1v-6h52.1c0.5 0 0.9 0.4 0.9 0.9v4.2c0.1 0.5-0.3 0.9-0.9 0.9z" fill="#282424"/><rect id="rect327" y="54.9" width="19" height="6" fill="#1e1b1b"/><rect id="rect329" y="54.9" width="19" height=".9" fill="#252222"/><path id="path331" d="m72.1 55.8h-53.1v-0.9h52.1c0.6 0 1 0.4 1 0.9z" fill="#3c3939"/></g><g id="g333"><path id="path335" d="m71.5 71.7h-71.5v-6.2h71.5c0.5 0 0.9 0.4 0.9 0.9v4.3c0 0.6-0.4 1-0.9 1z" fill="#070606"/><path id="path337" d="m71.1 70.6h-52.1v-6h52.1c0.5 0 0.9 0.4 0.9 0.9v4.1c0.1 0.6-0.3 1-0.9 1z" fill="#282424"/><rect id="rect339" y="64.6" width="19" height="6" fill="#1e1b1b"/><rect id="rect341" y="64.6" width="19" height=".9" fill="#252222"/><path id="path343" d="m72.1 65.5h-53.1v-0.9h52.1c0.6 0 1 0.4 1 0.9z" fill="#3c3939"/></g><g id="g345"><path id="path347" d="m71.5 81.4h-71.5v-6.2h71.5c0.5 0 0.9 0.4 0.9 0.9v4.3c0 0.6-0.4 1-0.9 1z" fill="#070606"/><path id="path349" d="m71.1 80.3h-52.1v-6h52.1c0.5 0 0.9 0.4 0.9 0.9v4.1c0.1 0.6-0.3 1-0.9 1z" fill="#282424"/><rect id="rect351" y="74.3" width="19" height="6" fill="#1e1b1b"/><rect id="rect353" y="74.3" width="19" height=".9" fill="#252222"/><path id="path355" d="m72.1 75.2h-53.1v-0.9h52.1c0.6 0 1 0.4 1 0.9z" fill="#3c3939"/></g><g id="g357"><path id="path359" d="m71.5 91.1h-71.5v-6.2h71.5c0.5 0 0.9 0.4 0.9 0.9v4.3c0 0.6-0.4 1-0.9 1z" fill="#070606"/><path id="path361" d="m71.1 90h-52.1v-6h52.1c0.5 0 0.9 0.4 0.9 0.9v4.1c0.1 0.6-0.3 1-0.9 1z" fill="#282424"/><rect id="rect363" y="84" width="19" height="6" fill="#1e1b1b"/><rect id="rect365" y="84" width="19" height=".9" fill="#252222"/><path id="path367" d="m72.1 84.9h-53.1v-0.9h52.1c0.6 0 1 0.4 1 0.9z" fill="#3c3939"/></g><g id="g369"><path id="path371" d="m71.5 100.8h-71.5v-6.2h71.5c0.5 0 0.9 0.4 0.9 0.9v4.3c0 0.6-0.4 1-0.9 1z" fill="#070606"/><path id="path373" d="m71.1 99.7h-52.1v-6h52.1c0.5 0 0.9 0.4 0.9 0.9v4.1c0.1 0.6-0.3 1-0.9 1z" fill="#282424"/><rect id="rect375" y="93.7" width="19" height="6" fill="#1e1b1b"/><rect id="rect377" y="93.7" width="19" height=".9" fill="#252222"/><path id="path379" d="m72.1 94.6h-53.1v-0.9h52.1c0.6 0 1 0.4 1 0.9z" fill="#3c3939"/></g><g id="g381"><path id="path383" d="m71.5 110.5h-71.5v-6.2h71.5c0.5 0 0.9 0.4 0.9 0.9v4.3c0 0.5-0.4 1-0.9 1z" fill="#070606"/><path id="path385" d="m71.1 109.4h-52.1v-6h52.1c0.5 0 0.9 0.4 0.9 0.9v4.1c0.1 0.6-0.3 1-0.9 1z" fill="#282424"/><rect id="rect387" y="103.4" width="19" height="6" fill="#1e1b1b"/><rect id="rect389" y="103.4" width="19" height=".9" fill="#252222"/><path id="path391" d="m72.1 104.3h-53.1v-0.9h52.1c0.6 0 1 0.4 1 0.9z" fill="#3c3939"/></g><g id="g393"><path id="path395" d="m71.5 120.2h-71.5v-6.2h71.5c0.5 0 0.9 0.4 0.9 0.9v4.3c0 0.5-0.4 1-0.9 1z" fill="#070606"/><path id="path397" d="m71.1 119.1h-52.1v-6h52.1c0.5 0 0.9 0.4 0.9 0.9v4.1c0.1 0.6-0.3 1-0.9 1z" fill="#282424"/><rect id="rect399" y="113.1" width="19" height="6" fill="#1e1b1b"/><rect id="rect401" y="113.1" width="19" height=".9" fill="#252222"/><path id="path403" d="m72.1 114h-53.1v-1h52.1c0.6 0 1 0.5 1 1z" fill="#3c3939"/></g><g id="g405"><path id="path407" d="m71.5 129.9h-71.5v-6.2h71.5c0.5 0 0.9 0.4 0.9 0.9v4.3c0 0.5-0.4 1-0.9 1z" fill="#070606"/><path id="path409" d="m71.1 128.8h-52.1v-6h52.1c0.5 0 0.9 0.4 0.9 0.9v4.1c0.1 0.5-0.3 1-0.9 1z" fill="#282424"/><rect id="rect411" y="122.8" width="19" height="6" fill="#1e1b1b"/><rect id="rect413" y="122.8" width="19" height=".9" fill="#252222"/><path id="path415" d="m72.1 123.7h-53.1v-0.9h52.1c0.6-0.1 1 0.4 1 0.9z" fill="#3c3939"/></g><g id="g417"><path id="path419" d="m71.5 139.5h-71.5v-6.2h71.5c0.5 0 0.9 0.4 0.9 0.9v4.3c0 0.6-0.4 1-0.9 1z" fill="#070606"/><path id="path421" d="m71.1 138.5h-52.1v-6h52.1c0.5 0 0.9 0.4 0.9 0.9v4.1c0.1 0.5-0.3 1-0.9 1z" fill="#282424"/><rect id="rect423" y="132.5" width="19" height="6" fill="#1e1b1b"/><rect id="rect425" y="132.5" width="19" height=".9" fill="#252222"/><path id="path427" d="m72.1 133.4h-53.1v-0.9h52.1c0.6-0.1 1 0.3 1 0.9z" fill="#3c3939"/></g><g id="g429"><path id="path431" d="m71.5 149.2h-71.5v-6.2h71.5c0.5 0 0.9 0.4 0.9 0.9v4.3c0 0.6-0.4 1-0.9 1z" fill="#070606"/><path id="path433" d="m71.1 148.2h-52.1v-6h52.1c0.5 0 0.9 0.4 0.9 0.9v4.1c0.1 0.5-0.3 1-0.9 1z" fill="#282424"/><rect id="rect435" y="142.2" width="19" height="6" fill="#1e1b1b"/><rect id="rect437" y="142.2" width="19" height=".9" fill="#252222"/><path id="path439" d="m72.1 143.1h-53.1v-0.9h52.1c0.6-0.1 1 0.3 1 0.9z" fill="#3c3939"/></g><g id="g441"><path id="path443" d="m71.5 158.9h-71.5v-6.2h71.5c0.5 0 0.9 0.4 0.9 0.9v4.3c0 0.6-0.4 1-0.9 1z" fill="#070606"/><path id="path445" d="m71.1 157.8h-52.1v-6h52.1c0.5 0 0.9 0.4 0.9 0.9v4.1c0.1 0.6-0.3 1-0.9 1z" fill="#282424"/><rect id="rect447" y="151.8" width="19" height="6" fill="#1e1b1b"/><rect id="rect449" y="151.8" width="19" height=".9" fill="#252222"/><path id="path451" d="m72.1 152.8h-53.1v-0.9h52.1c0.6-0.1 1 0.3 1 0.9z" fill="#3c3939"/></g><g id="g453"><path id="path455" d="m71.5 168.6h-71.5v-6.2h71.5c0.5 0 0.9 0.4 0.9 0.9v4.3c0 0.6-0.4 1-0.9 1z" fill="#070606"/><path id="path457" d="m71.1 167.5h-52.1v-6h52.1c0.5 0 0.9 0.4 0.9 0.9v4.1c0.1 0.6-0.3 1-0.9 1z" fill="#282424"/><rect id="rect459" y="161.5" width="19" height="6" fill="#1e1b1b"/><rect id="rect461" y="161.5" width="19" height=".9" fill="#252222"/><path id="path463" d="m72.1 162.4h-53.1v-0.9h52.1c0.6 0 1 0.4 1 0.9z" fill="#3c3939"/></g><g id="g465"><path id="path467" d="m71.5 178.3h-71.5v-6.2h71.5c0.5 0 0.9 0.4 0.9 0.9v4.3c0 0.6-0.4 1-0.9 1z" fill="#070606"/><path id="path469" d="m71.1 177.2h-52.1v-6h52.1c0.5 0 0.9 0.4 0.9 0.9v4.1c0.1 0.6-0.3 1-0.9 1z" fill="#282424"/><rect id="rect471" y="171.2" width="19" height="6" fill="#1e1b1b"/><rect id="rect473" y="171.2" width="19" height=".9" fill="#252222"/><path id="path475" d="m72.1 172.1h-53.1v-0.9h52.1c0.6 0 1 0.4 1 0.9z" fill="#3c3939"/></g><g id="g477"><path id="path479" d="m71.5 188h-71.5v-6.2h71.5c0.5 0 0.9 0.4 0.9 0.9v4.3c0 0.6-0.4 1-0.9 1z" fill="#070606"/><path id="path481" d="m71.1 186.9h-52.1v-6h52.1c0.5 0 0.9 0.4 0.9 0.9v4.1c0.1 0.6-0.3 1-0.9 1z" fill="#282424"/><rect id="rect483" y="180.9" width="19" height="6" fill="#1e1b1b"/><rect id="rect485" y="180.9" width="19" height=".9" fill="#252222"/><path id="path487" d="m72.1 181.8h-53.1v-0.9h52.1c0.6 0 1 0.4 1 0.9z" fill="#3c3939"/></g><g id="g489"><path id="path491" d="m71.5 197.7h-71.5v-6.2h71.5c0.5 0 0.9 0.4 0.9 0.9v4.3c0 0.6-0.4 1-0.9 1z" fill="#070606"/><path id="path493" d="m71.1 196.6h-52.1v-6h52.1c0.5 0 0.9 0.4 0.9 0.9v4.1c0.1 0.6-0.3 1-0.9 1z" fill="#282424"/><rect id="rect495" y="190.6" width="19" height="6" fill="#1e1b1b"/><rect id="rect497" y="190.6" width="19" height=".9" fill="#252222"/><path id="path499" d="m72.1 191.5h-53.1v-0.9h52.1c0.6 0 1 0.4 1 0.9z" fill="#3c3939"/></g><rect id="rect501" x="9" y="327.2" width="531" height="1.7" fill="#323030"/><rect id="rect503" x="9" y="328.9" width="531" height="3.4" fill="#383736"/><rect id="rect505" x="9" y="332.3" width="531" height="1.7" fill="#3f3e3d"/><rect id="rect507" x="9" y="334" width="531" height="1.7" fill="#444241"/><rect id="rect509" x="9" y="335.7" width="531" height="1.7" fill="#4a4747"/><rect id="rect511" x="9" y="337.4" width="531" height="1.7" fill="#504d4c"/><rect id="rect513" x="9" y="339.1" width="531" height="1.7" fill="#565252"/><rect id="rect515" x="9" y="340.9" width="531" height="1.7" fill="#5b5857"/><rect id="rect517" y="327.2" width="9" height="1.7" fill="#292424"/><rect id="rect519" y="328.9" width="9" height="3.4" fill="#302a2b"/><rect id="rect521" y="332.3" width="9" height="1.7" fill="#363031"/><rect id="rect523" y="334" width="9" height="1.7" fill="#3c3636"/><rect id="rect525" y="335.7" width="9" height="1.7" fill="#423b3c"/><rect id="rect527" y="337.4" width="9" height="1.7" fill="#484141"/><rect id="rect529" y="339.1" width="9" height="1.7" fill="#4e4646"/><rect id="rect531" y="340.9" width="9" height="1.7" fill="#544b4c"/><rect id="rect533" x="540" y="327.2" width="9" height="1.7" fill="#292424"/><rect id="rect535" x="540" y="328.9" width="9" height="3.4" fill="#302a2b"/><rect id="rect537" x="540" y="332.3" width="9" height="1.7" fill="#363031"/><rect id="rect539" x="540" y="334" width="9" height="1.7" fill="#3c3636"/><rect id="rect541" x="540" y="335.7" width="9" height="1.7" fill="#423b3c"/><rect id="rect543" x="540" y="337.4" width="9" height="1.7" fill="#484141"/><rect id="rect545" x="540" y="339.1" width="9" height="1.7" fill="#4e4646"/><rect id="rect547" x="540" y="340.9" width="9" height="1.7" fill="#544b4c"/><g id="g549"><path id="path551" d="m56.7 329.1c0-1.4-0.9-3.1-1.7-3.1s-1.7 1.3-1.7 2.8c0 1.4 1.3 2.9 2.1 2.9s1.3-1.2 1.3-2.6z" fill="#c4c4c4"/><g id="g553"><path id="path555" d="m65.7 328.8-0.9-0.5c0.5-0.9 0.7-1.9 0.7-2.8 0-3.3-2.7-6-6.1-6-3.3 0-6.1 2.7-6.1 6 0 1 0.3 2 0.7 2.8l-0.9 0.5c-0.6-1-0.9-2.2-0.9-3.3 0-3.8 3.2-6.9 7-7 3.9 0 7 3.1 7 7 0.4 1.2 0.1 2.3-0.5 3.3z" fill="#c4c4c4"/></g><path id="path557" d="m62.3 329.1c0-1.4 0.9-3.1 1.7-3.1s1.7 1.3 1.7 2.8c0 1.4-1.3 2.9-2.1 2.9s-1.3-1.2-1.3-2.6z" fill="#c4c4c4"/></g><g id="g559" fill="#c4c4c4"><path id="path561" d="m48.2 337.5-1.5-4.3h0.9l1.1 3.2 1.1-3.2h0.9l-1.5 4.3h-1z"/><path id="path563" d="m50.9 335.4c0-0.4 0.1-0.8 0.2-1.1 0.1-0.2 0.2-0.4 0.4-0.6s0.4-0.3 0.6-0.4c0.3-0.1 0.6-0.2 0.9-0.2 0.6 0 1.1 0.2 1.5 0.6s0.6 0.9 0.6 1.6-0.2 1.2-0.6 1.6-0.9 0.6-1.5 0.6-1.1-0.2-1.5-0.6c-0.4-0.3-0.6-0.8-0.6-1.5zm0.9-0.1c0 0.5 0.1 0.9 0.3 1.1 0.2 0.3 0.5 0.4 0.9 0.4s0.6-0.1 0.9-0.4c0.2-0.3 0.3-0.6 0.3-1.1s-0.1-0.9-0.3-1.1-0.5-0.4-0.9-0.4-0.6 0.1-0.9 0.4c-0.2 0.3-0.3 0.7-0.3 1.1z"/><path id="path565" d="m55.8 337.5v-4.3h0.9v3.5h2.2v0.7h-3.1z"/><path id="path567" d="m59.4 333.2h0.9v2.3 0.7c0 0.2 0.1 0.3 0.3 0.4 0.1 0.1 0.3 0.2 0.6 0.2 0.2 0 0.4 0 0.6-0.2s0.2-0.2 0.2-0.4v-0.7-2.4h0.9v2.3c0 0.5 0 0.9-0.1 1.1s-0.1 0.4-0.3 0.5-0.3 0.3-0.5 0.4-0.5 0.1-0.8 0.1c-0.4 0-0.7 0-0.9-0.1s-0.4-0.2-0.5-0.4-0.2-0.3-0.2-0.5c-0.1-0.2-0.1-0.6-0.1-1.1v-2.2z"/><path id="path569" d="m63.8 337.5v-4.3h1.3l0.8 2.9 0.8-2.9h1.3v4.3h-0.8v-3.4l-0.9 3.4h-0.8l-0.8-3.4v3.4h-0.9z"/><path id="path571" d="m68.8 337.5v-4.3h3.2v0.7h-2.3v1h2.2v0.7h-2.2v1.2h2.3v0.7h-3.2z"/></g><g id="g573"><g id="g575"><rect id="rect577" x="91.8" y="297.7" width="35.3" height="15.7"/><rect id="rect579" x="92.3" y="298.3" width="34.3" height="14.5" fill="#dbdbdb"/></g><g id="g581" fill="#ceccce"><path id="path583" d="m99.4 304.9c-0.7 0-1.3-0.6-1.3-1.2 0-0.7 0.6-1.3 1.3-1.3s1.3 0.6 1.3 1.3c0 0.6-0.6 1.2-1.3 1.2z"/><path id="path585" d="m119.4 304.9c-0.7 0-1.3-0.6-1.3-1.2 0-0.7 0.6-1.3 1.3-1.3s1.3 0.6 1.3 1.3c0 0.6-0.6 1.2-1.3 1.2z"/><path id="path587" d="m119.4 308.7c-0.7 0-1.3-0.6-1.3-1.2 0-0.7 0.6-1.3 1.3-1.3s1.3 0.6 1.3 1.3c0 0.6-0.6 1.2-1.3 1.2z"/><path id="path589" d="m99.4 308.7c-0.7 0-1.3-0.6-1.3-1.2 0-0.7 0.6-1.3 1.3-1.3s1.3 0.6 1.3 1.3c0 0.6-0.6 1.2-1.3 1.2z"/><path id="path591" d="m102.8 308.7c-0.7 0-1.3-0.6-1.3-1.2 0-0.7 0.6-1.3 1.3-1.3s1.3 0.6 1.3 1.3c-0.1 0.6-0.7 1.2-1.3 1.2z"/><path id="path593" d="m106.1 308.7c-0.7 0-1.3-0.6-1.3-1.2 0-0.7 0.6-1.3 1.3-1.3s1.3 0.6 1.3 1.3c-0.1 0.6-0.6 1.2-1.3 1.2z"/><path id="path595" d="m109.4 308.7c-0.7 0-1.3-0.6-1.3-1.2 0-0.7 0.6-1.3 1.3-1.3s1.3 0.6 1.3 1.3c0 0.6-0.6 1.2-1.3 1.2z"/><path id="path597" d="m112.7 308.7c-0.7 0-1.3-0.6-1.3-1.2 0-0.7 0.6-1.3 1.2-1.3 0.7 0 1.3 0.6 1.3 1.3 0.1 0.6-0.5 1.2-1.2 1.2z"/><path id="path599" d="m116.1 308.7c-0.7 0-1.3-0.6-1.3-1.2 0-0.7 0.6-1.3 1.3-1.3s1.3 0.6 1.3 1.3c-0.1 0.6-0.6 1.2-1.3 1.2z"/><path id="path601" d="m102.8 304.9c-0.7 0-1.3-0.6-1.3-1.2 0-0.7 0.6-1.3 1.3-1.3s1.3 0.6 1.3 1.3c-0.1 0.6-0.7 1.2-1.3 1.2z"/><path id="path603" d="m106.1 304.9c-0.7 0-1.3-0.6-1.3-1.2 0-0.7 0.6-1.3 1.3-1.3s1.3 0.6 1.3 1.3c-0.1 0.6-0.6 1.2-1.3 1.2z"/><path id="path605" d="m109.4 304.9c-0.7 0-1.3-0.6-1.3-1.2 0-0.7 0.6-1.3 1.3-1.3s1.3 0.6 1.3 1.3c0 0.6-0.6 1.2-1.3 1.2z"/><path id="path607" d="m112.7 304.9c-0.7 0-1.3-0.6-1.3-1.2 0-0.7 0.6-1.3 1.2-1.3 0.7 0 1.3 0.6 1.3 1.3 0.1 0.6-0.5 1.2-1.2 1.2z"/><path id="path609" d="m116.1 304.9c-0.7 0-1.3-0.6-1.3-1.2 0-0.7 0.6-1.3 1.3-1.3s1.3 0.6 1.3 1.3c-0.1 0.6-0.6 1.2-1.3 1.2z"/></g><polygon id="polygon611" points="130.3 295.2 127.1 297.7 91.8 297.7 88.5 295.2" fill="#0d0d0c"/><polygon id="polygon613" points="127.1 313.4 130.3 315.9 88.5 315.9 91.8 313.4" fill="#4e4b4a"/><polygon id="polygon615" points="91.8 297.7 91.8 313.4 88.5 315.9 88.5 295.2" fill="#211e1d"/><polygon id="polygon617" points="130.3 295.2 130.3 315.9 127.1 313.4 127.1 297.7" fill="#211e1d"/><g id="g619" fill="#c4c4c4"><path id="path621" d="m102.5 321.1v-3.2h1.4c0.3 0 0.6 0 0.8 0.1s0.3 0.2 0.4 0.3 0.1 0.3 0.1 0.5-0.1 0.4-0.2 0.6-0.4 0.3-0.6 0.3c0.1 0.1 0.3 0.2 0.3 0.3 0.1 0.1 0.2 0.3 0.4 0.5l0.4 0.6h-0.8l-0.5-0.7c-0.2-0.3-0.3-0.4-0.3-0.5-0.1-0.1-0.1-0.1-0.2-0.1h-0.3-0.1v1.3h-0.8zm0.6-1.8h0.5 0.6c0.1 0 0.1-0.1 0.2-0.1 0-0.1 0.1-0.1 0.1-0.2s0-0.2-0.1-0.3-0.1-0.1-0.2-0.1h-0.5-0.5v0.7z"/><path id="path623" d="m105.7 321.1v-3.2h2.4v0.5h-1.7v0.7h1.6v0.5h-1.6v0.9h1.8v0.5h-2.5z"/><path id="path625" d="m108.5 320.1 0.6-0.1c0 0.2 0.1 0.4 0.2 0.5s0.3 0.1 0.5 0.1 0.4 0 0.5-0.1 0.2-0.2 0.2-0.3 0-0.1-0.1-0.2c0-0.1-0.1-0.1-0.2-0.1s-0.2-0.1-0.5-0.1c-0.3-0.1-0.6-0.2-0.7-0.3-0.2-0.2-0.3-0.4-0.3-0.6s0-0.3 0.1-0.5c0.1-0.1 0.2-0.3 0.4-0.3 0.2-0.1 0.4-0.1 0.6-0.1 0.4 0 0.7 0.1 0.9 0.3s0.3 0.4 0.3 0.7h-0.7c0-0.2-0.1-0.3-0.2-0.4s-0.2-0.1-0.4-0.1-0.3 0-0.4 0.1c-0.1 0-0.1 0.1-0.1 0.2s0 0.1 0.1 0.2 0.3 0.1 0.6 0.2 0.6 0.2 0.7 0.2c0.2 0.1 0.3 0.2 0.4 0.3s0.1 0.3 0.1 0.5-0.1 0.4-0.2 0.5-0.2 0.3-0.4 0.4-0.4 0.1-0.7 0.1c-0.4 0-0.7-0.1-0.9-0.3s-0.3-0.5-0.4-0.8z"/><path id="path627" d="m111.7 321.1v-3.2h2.4v0.5h-1.7v0.7h1.6v0.5h-1.6v0.9h1.8v0.5h-2.5z"/><path id="path629" d="m115.4 321.1v-2.7h-1v-0.5h2.6v0.5h-1v2.7h-0.6z"/></g></g><g id="_x31_6bit_1_" fill="#d4aa6f"><path id="XMLID_659_" d="m341.3 218.4v-2.5c2.5-0.6 4.2-1.5 5-2.5h2.5v10.3 2.3h-3.3v-2.3-7.1c-1.9 0.9-3.3 1.5-4.2 1.8z"/><path id="XMLID_656_" d="m362.1 216.7-3 0.7c-0.3-1.3-1-1.9-2.2-1.9-1.7 0-2.6 1.4-2.6 4.1 0.7-0.9 1.8-1.4 3.3-1.4 1.4 0 2.5 0.4 3.4 1.1s1.3 1.6 1.3 2.7-0.5 2.1-1.4 2.9c-1 0.8-2.2 1.3-3.8 1.3s-2.8-0.3-3.7-1-1.5-1.5-1.9-2.4c-0.3-0.9-0.5-1.9-0.5-2.7 0-1.9 0.5-3.4 1.5-4.7 1-1.2 2.5-1.8 4.5-1.8 1.4 0 2.6 0.3 3.5 1 0.8 0.4 1.4 1.1 1.6 2.1zm-5.4 7.3c0.6 0 1.1-0.2 1.6-0.5 0.4-0.4 0.6-0.8 0.6-1.5 0-0.6-0.2-1-0.7-1.4-0.4-0.3-1-0.5-1.5-0.5-0.6 0-1.1 0.2-1.5 0.5-0.4 0.4-0.7 0.8-0.7 1.4 0 0.5 0.2 1 0.6 1.4s1 0.6 1.6 0.6z"/><path id="XMLID_654_" d="m363.2 219.3h5.2v2.2h-5.2v-2.2z"/><path id="XMLID_650_" d="m370.2 213.6h6.9c1.2 0 2.2 0.1 2.8 0.4s1.1 0.6 1.5 1.1 0.6 1 0.6 1.7c0 1.4-0.9 2.3-2.7 2.7 1 0.2 1.8 0.6 2.3 1.1 0.5 0.6 0.8 1.2 0.8 1.9 0 0.9-0.4 1.7-1.3 2.4-0.8 0.7-2.2 1-4.1 1h-6.9v-12.3zm3.4 2.1v2.7h2.6c1 0 1.6-0.2 1.8-0.5s0.4-0.6 0.4-0.9-0.1-0.6-0.3-0.8-0.4-0.4-0.7-0.4c-0.2-0.1-0.7-0.1-1.4-0.1h-2.4zm0 4.9v3h2.6c0.9 0 1.5-0.1 1.9-0.4s0.6-0.6 0.6-1.1c0-0.4-0.2-0.7-0.5-1-0.4-0.3-1-0.4-1.8-0.4h-2.8z"/><path id="XMLID_648_" d="m386.6 213.6v12.3h-3.4v-12.3h3.4z"/><path id="XMLID_646_" d="m398.2 213.6v2.4h-3.6v9.9h-3.5v-9.9h-3.7v-2.4h10.8z"/></g></g><path id="XMLID_645_" d="m526 320.1h-7.1v-1.7h4.9c-0.4-1.1-0.6-1.9-0.9-2.8-0.7-2.2-1.4-4.4-2.1-6.5-0.2-0.5-0.7-1.2-1.2-1.3-0.8-0.2-1 0.6-1.3 1.3-1.1 3.3-2.2 6.7-3.2 10-0.2 0.8-0.6 1.1-1.4 1-2.2-0.1-4.4 0-6.5 0-2.2 0-3.7-1.5-3.7-3.8v-6.2c0.1-2.3 1.5-3.7 3.7-3.8h6v1.8h-5.1c-2.4 0-2.9 0.6-2.9 3.1v4.7c0 1.7 0.8 2.5 2.3 2.5h3.9v-5.4h-3.2v-1.7h5v7.1h0.3c1.1-3.3 2.1-6.6 3.2-9.9 0.6-1.9 1.7-2.6 3.5-2.4 1 0.2 1.7 0.7 2.1 1.7 1.3 3.9 2.6 7.9 3.8 11.9 0 0.2-0.1 0.3-0.1 0.4z" fill="#c2c2c2"/><path id="XMLID_644_" d="m481.5 320.1v-1.7h5.6c1.6 0 2.7-1.2 2.8-2.6s-1.1-2.7-2.6-2.8c-0.6 0-1.3 0-1.9-0.1-1-0.1-1.6-1-1.6-2 0-1.1 0.7-2 1.6-2 2-0.1 4.1 0 6.2 0v1.7h-3.1-2.9v0.6c0.6 0 1.1 0.1 1.7 0.1 2.1 0 3.7 1.3 4.2 3.4 0.7 2.6-1.2 5.4-3.8 5.5-2 0-4.1-0.1-6.2-0.1z" fill="#c2c2c2"/><path id="XMLID_643_" d="m481.4 317.7v-1.8h6v-0.5c-0.6 0-1.2-0.1-1.8-0.1-1.7 0-3-0.9-3.7-2.4-0.8-1.6-0.6-3.2 0.4-4.7 0.7-1 1.7-1.7 2.9-1.7 2.1-0.1 4.2 0 6.4 0v1.7h-5.7c-1.9 0-3.1 1.8-2.5 3.6 0.3 1.1 1.3 1.8 2.6 1.9 0.6 0 1.2 0 1.8 0.1 0.9 0.1 1.7 1 1.7 2s-0.7 2-1.6 2c-2.3 0-4.3-0.1-6.5-0.1z" fill="#c2c2c2"/><path id="XMLID_642_" d="m502.5 306.5v1.7h-5.6c-2 0-2.6 0.7-2.6 2.7v4.9c0 1.9 0.7 2.6 2.5 2.6h5.7v1.7h-4.1-2.6c-1.6-0.1-3-1.6-3.1-3.3-0.1-2.4-0.1-4.8 0-7.2 0-1.5 1.3-3.1 2.8-3.2 2.3 0 4.6 0.1 7 0.1z" fill="#c2c2c2"/><path id="XMLID_639_" d="m515.3 320.1c1.2-3.7 2.4-7.4 3.6-11 0.1-0.3 0.4-0.5 0.6-0.6 0.1 0 0.5 0.2 0.6 0.4 1 2.9 1.9 5.8 2.9 8.8h-4.1c0-0.4-0.1-0.8-0.1-1.2-0.1 0-0.1 0-0.2-0.1-0.2 0.7-0.5 1.3-0.7 2-0.6 1.9-0.6 1.9-2.6 1.7zm3.5-4.3h1.4c-0.2-0.7-0.4-1.3-0.6-1.9h-0.2c-0.2 0.6-0.4 1.2-0.6 1.9z" fill="#c2c2c2"/><path id="XMLID_638_" d="m509.3 315.6c-0.5-0.2-0.8-0.2-1.2-0.4v-1.5h2.6v4c-1.4 0-2.7 0.1-4-0.1-0.3 0-0.9-0.7-0.9-1.1-0.1-2.2-0.1-4.3 0-6.5 0-0.8 0.5-1.2 1.2-1.2h6.1v1.7h-4.5c-0.9 0-1.3 0.3-1.2 1.3s0 2 0 3c0 1.3 0.6 1.5 1.9 0.8z" fill="#c2c2c2"/><path id="XMLID_637_" d="m496.7 315.9c1.9 0.3 3.8 0 5.7 0.2v1.6c-2.2 0-4.4 0.1-6.5-0.1-0.3 0-0.9-0.7-0.9-1.2-0.2-0.9 0-1.8 0-2.8h6.1v1.6h-4.3c0 0.3 0 0.5-0.1 0.7z" fill="#c2c2c2"/><path id="XMLID_636_" d="m502.5 308.9v1.6c-1.9 0.3-3.9-0.2-5.8 0.2v0.4h4.3v1.7h-6.1c0-1-0.1-2 0-3.1 0-0.4 0.6-0.9 1-0.9 2.2 0 4.4 0.1 6.6 0.1z" fill="#c2c2c2"/><g id="text4430" fill="#c2c2c2" stroke-width="1px"><path id="path4435" d="m407.9 317.54v-0.95361h8.5825q0.63574 0 0.63574 0.95361h-9.2182zm0 2.8608v-2.543h1.5894v2.543h-1.5894zm3.8144 0v-2.543h1.5894v2.543h-1.5894zm3.8144 0v-2.543h1.5894v2.543h-1.5894z"/><path id="path4437" d="m417.75 319.45v-1.5894h1.5894q0 0.31787 0.31787 0.31787h3.8144v0.95361h-4.1323q0 0.31787 0.31787 0.31787h4.1323v0.95361h-5.4038q-0.63574 0-0.63574-0.95361zm0-1.9072v-0.95361h6.0395v0.95361h-6.0395z"/><path id="path4439" d="m424.43 317.54q0-0.95361 0.63574-0.95361h5.7217v0.95361h-6.3574zm0 1.9072v-1.5894h1.5894v1.5894h3.1787q0.31787 0 0.31787-0.15893 0-0.15894-0.31787-0.15894h-1.9072v-0.95361h2.8608q0.95361 0 0.95361 0.95361v0.31787q0 0.95361-0.63574 0.95361h-5.4038q-0.63574 0-0.63574-0.95361z"/><path id="path4441" d="m431.74 320.4v-2.543h1.5894v2.543h-1.5894zm5.0859 0v-0.63574h-3.1787v-0.95361h3.1787v-0.95361h1.5894v2.543h-1.5894zm-5.0859-2.8608q0-0.95361 0.63574-0.95361h5.4038q0.63574 0 0.63574 0.95361h-6.6753z"/><path id="path4443" d="m441.38 320.4v-2.543h1.5894v2.543h-1.5894zm6.0395 0h-4.1323v-0.95361h3.1787v-1.5894h1.5894v1.5894q0 0.95361-0.63574 0.95361zm-6.0395-2.8608v-0.95361h6.0395q0.63574 0 0.63574 0.95361h-6.6753z"/><path id="path4445" d="m448.69 320.4v-2.543h1.5894v2.543h-1.5894zm0-2.8608q0-0.95361 0.63574-0.95361h5.4038q0.63574 0 0.63574 0.95361h-6.6753zm1.9072 2.2251v-0.95361h2.8608q0.31787 0 0.31787-0.31787v-0.63574h1.5894v0.95361q0 0.95361-0.63574 0.95361l0.95361 0.63574h-1.5894l-0.95361-0.63574h-2.543z"/><path id="path4447" d="m456.32 320.4v-2.543h1.5894v2.543h-1.5894zm0-2.8608v-0.95361h1.5894v0.95361h-1.5894z"/><path id="path4449" d="m459.18 317.54-0.63574-0.95361h1.9072l0.63574 0.95361h-1.9072zm1.9072 2.8608-1.5894-2.543h1.9072l0.95361 1.5258 0.95361-1.5258h1.9072l-1.5894 2.543h-2.543zm2.4976-2.8608 0.63574-0.95361h1.9072l-0.63574 0.95361h-1.9072z"/><path id="path4451" d="m466.76 319.45v-1.5894h1.5894q0 0.31787 0.31787 0.31787h3.8144v0.95361h-4.1323q0 0.31787 0.31787 0.31787h4.1323v0.95361h-5.4038q-0.63574 0-0.63574-0.95361zm0-1.9072v-0.95361h6.0395v0.95361h-6.0395z"/></g><g id="g10" transform="matrix(1.25 0 0 -1.25 603.27 342.6)"><g id="g12"><g id="g14" clip-path="url(#clipPath16)"><g id="g20" transform="translate(132.56 1e-4)"><path id="path22" d="m0 0h-128.85c-3.712 0-3.712 0-3.712 3.712v85.722c0 2.042 1.671 3.712 3.712 3.712h128.85c2.041 0 3.712-1.67 3.712-3.712v-85.722c0-3.778 0-3.712-3.712-3.712" fill="#393536"/></g><g id="g24" transform="translate(115.77 90.495)"><path id="path26" d="m0 0v-74.764c0-1.605-0.901-3.008-2.223-3.73-0.191-0.102-0.389-0.19-0.594-0.265-0.446-0.159-0.927-0.247-1.425-0.247h-86.076c-0.498 0-0.979 0.088-1.425 0.247-0.205 0.075-0.403 0.163-0.593 0.265-1.322 0.722-2.224 2.125-2.224 3.73v74.764c0 1 0.35 1.923 0.937 2.651h92.686c0.587-0.728 0.937-1.651 0.937-2.651" fill="#201e1d"/></g><g id="g28" transform="translate(112.1 25.611)"><path id="path30" d="m0 0v3.648h-0.205v-3.648h-3.977v3.648h-0.205v-3.648h-4.065v3.648h-0.209v-3.648h-4.033v3.648h-0.209v-3.648h-3.842v3.648h-0.205v-3.648h-3.92v3.648h-0.205v-3.648h-3.977v3.648h-0.205v-3.648h-3.977v3.648h-0.209v-3.648h-4.065v4.27h3.404c-0.084 0.089-0.173 0.177-0.265 0.265h-3.139v2.263c-0.067 0.039-0.134 0.074-0.205 0.109v-2.372h-4.037v3.921h-0.205v-3.921h-3.637v4.603c-0.071 3e-3 -0.138 0.01-0.209 0.014v-4.617h-3.917v4.592c-0.067-3e-3 -0.137-0.01-0.205-0.017v-4.575h-3.976v3.818c-0.071-0.021-0.142-0.042-0.209-0.064v-3.754h-3.977v2.054c-0.07-0.039-0.138-0.081-0.205-0.12v-1.934h-2.563c-0.091-0.088-0.18-0.176-0.265-0.265h2.828v-4.27h-4.065v3.648h-0.205v-3.648h-4.037v3.648h-0.205v-3.648h-3.902v3.648h-0.209v-3.648h-3.917v3.648h-0.205v-3.648h-3.977v3.648h-0.208v-3.648h-3.977v3.648h-0.205v-3.648h-4.065v3.648h-0.205v-3.648h-4.037v3.648h-0.205v-3.648h-2.796v64.739c0 0.997 0.346 1.916 0.933 2.641h92.333c0.587-0.725 0.933-1.644 0.933-2.641v-64.739h-3.489zm3.489-4.447h-3.489v4.182h3.489v-4.182zm0-4.479h-3.489v4.214h3.489v-4.214zm0-0.816c0-1.598-0.898-2.998-2.213-3.716-0.102-0.056-0.208-0.106-0.318-0.152h-0.958v4.419h3.489v-0.551zm-3.694-3.868h-3.977v4.419h3.977v-4.419zm-3.977 13.345h3.977v-4.182h-3.977v4.182zm3.977-8.661h-3.977v4.214h3.977v-4.214zm-4.182-4.684h-4.065v4.419h4.065v-4.419zm-4.065 13.345h4.065v-4.182h-4.065v4.182zm4.065-8.661h-4.065v4.214h4.065v-4.214zm-4.274-4.684h-4.033v4.419h4.033v-4.419zm-4.033 13.345h4.033v-4.182h-4.033v4.182zm4.033-8.661h-4.033v4.214h4.033v-4.214zm-4.242-4.684h-3.842v4.419h3.842v-4.419zm-3.842 13.345h3.842v-4.182h-3.842v4.182zm3.842-8.661h-3.842v4.214h3.842v-4.214zm-4.047-4.684h-3.92v4.419h3.92v-4.419zm-3.92 13.345h3.92v-4.182h-3.92v4.182zm3.92-8.661h-3.92v4.214h3.92v-4.214zm-4.125-4.684h-3.977v4.419h3.977v-4.419zm-3.977 13.345h3.977v-4.182h-3.977v4.182zm3.977-8.661h-3.977v4.214h3.977v-4.214zm-4.182-4.684h-3.977v4.419h3.977v-4.419zm-3.977 13.345h3.977v-4.182h-3.977v4.182zm3.977-8.661h-3.977v4.214h3.977v-4.214zm-4.186-4.684h-4.065v4.419h4.065v-4.419zm-4.065 13.345h4.065v-4.182h-4.065v4.182zm4.065-8.661h-4.065v4.214h4.065v-4.214zm-4.27-4.684h-4.037v4.419h4.037v-4.419zm0 4.684h-4.037v4.214h4.037v-4.214zm-4.037 13.196h4.037v-4.27h-4.037v4.27zm4.037-8.717h-4.037v4.182h4.037v-4.182zm-4.242-9.163h-3.637v4.419h3.637v-4.419zm0 4.684h-3.637v4.214h3.637v-4.214zm-3.637 13.196h3.637v-4.27h-3.637v4.27zm3.637-8.717h-3.637v4.182h3.637v-4.182zm-3.846-9.163h-3.917v4.419h3.917v-4.419zm0 4.684h-3.917v4.214h3.917v-4.214zm-3.917 13.196h3.917v-4.27h-3.917v4.27zm3.917-8.717h-3.917v4.182h3.917v-4.182zm-4.122-9.163h-3.977v4.419h3.977v-4.419zm0 4.684h-3.977v4.214h3.977v-4.214zm-3.976 13.196h3.977v-4.27h-3.977v4.27zm3.976-8.717h-3.977v4.182h3.977v-4.182zm-4.185-9.163h-3.977v4.419h3.977v-4.419zm0 4.684h-3.977v4.214h3.977v-4.214zm-3.977 13.196h3.977v-4.27h-3.977v4.27zm3.977-8.717h-3.977v4.182h3.977v-4.182zm-4.182-9.163h-4.065v4.419h4.065v-4.419zm-4.065 13.345h4.065v-4.182h-4.065v4.182zm4.065-8.661h-4.065v4.214h4.065v-4.214zm-4.27-4.684h-4.037v4.419h4.037v-4.419zm-4.037 13.345h4.037v-4.182h-4.037v4.182zm4.037-8.661h-4.037v4.214h4.037v-4.214zm-4.242-4.684h-3.903v4.419h3.903v-4.419zm-3.902 13.345h3.903v-4.182h-3.903v4.182zm3.902-8.661h-3.903v4.214h3.903v-4.214zm-4.111-4.684h-3.917v4.419h3.917v-4.419zm-3.917 13.345h3.917v-4.182h-3.917v4.182zm3.917-8.661h-3.917v4.214h3.917v-4.214zm-4.122-4.684h-3.977v4.419h3.977v-4.419zm-3.977 13.345h3.977v-4.182h-3.977v4.182zm3.977-8.661h-3.977v4.214h3.977v-4.214zm-4.185-4.684h-3.977v4.419h3.977v-4.419zm-3.977 13.345h3.977v-4.182h-3.977v4.182zm3.977-8.661h-3.977v4.214h3.977v-4.214zm-4.182-4.684h-4.065v4.419h4.065v-4.419zm-4.065 13.345h4.065v-4.182h-4.065v4.182zm4.065-8.661h-4.065v4.214h4.065v-4.214zm78.667-5.041h-85.751c-0.297 0-0.59 0.032-0.87 0.092h87.49c-0.279-0.06-0.572-0.092-0.869-0.092m-82.937 0.357h-4.037v4.419h4.037v-4.419zm-4.037 13.345h4.037v-4.182h-4.037v4.182zm4.037-8.661h-4.037v4.214h4.037v-4.214zm-4.242 4.479h-2.796v4.182h2.796v-4.182zm0-4.479h-2.796v4.214h2.796v-4.214zm0-4.684h-0.265c-0.11 0.046-0.216 0.096-0.318 0.152-1.315 0.718-2.213 2.118-2.213 3.716v0.551h2.796v-4.419zm90.647 81.145h-92.687c-0.587-0.728-0.937-1.651-0.937-2.651v-74.764c0-1.605 0.902-3.008 2.224-3.73 0.191-0.102 0.389-0.19 0.594-0.265 0.445-0.159 0.926-0.247 1.424-0.247h86.076c0.499 0 0.98 0.088 1.425 0.247 0.205 0.075 0.403 0.163 0.594 0.265 1.322 0.722 2.223 2.125 2.223 3.73v74.764c0 1-0.35 1.923-0.936 2.651" fill="#b1ada6"/></g><g id="g32" transform="translate(115.77 30.164)"><path id="path34" d="m0 0v-0.905h-33.2c-0.181 0.212-0.371 0.421-0.573 0.622-0.085 0.089-0.173 0.177-0.265 0.265-0.113 0.106-0.23 0.212-0.346 0.318-0.813 0.725-1.754 1.379-2.793 1.945-0.067 0.039-0.134 0.074-0.205 0.109-2.241 1.188-4.938 1.98-7.879 2.231-0.071 3e-3 -0.138 0.01-0.209 0.014-0.594 0.046-1.198 0.071-1.81 0.071-0.714 0-1.417-0.032-2.107-0.096-0.067-3e-3 -0.138-0.01-0.205-0.017-1.389-0.135-2.722-0.393-3.977-0.757-0.07-0.021-0.141-0.042-0.208-0.064-1.45-0.431-2.786-1.007-3.977-1.7-0.071-0.039-0.138-0.081-0.205-0.12-0.813-0.488-1.555-1.029-2.216-1.616-0.117-0.106-0.234-0.212-0.347-0.318-0.092-0.088-0.18-0.176-0.265-0.265-0.201-0.201-0.392-0.41-0.573-0.622h-33.2v0.905h32.766c3.181 3.185 8.494 5.274 14.514 5.274s11.333-2.089 14.515-5.274h32.765z" fill="#b1ada6"/></g><g id="g36"><g id="g44"><g id="g46" clip-path="url(#clipPath40)"><g id="g48" transform="translate(34.325 20.171)"><path id="path50" d="m0 0c0.478-0.393 1.019-0.751 1.589-0.982 1.729-0.697 3.56-0.962 5.409-0.998 3.779-0.072 7.559-0.11 11.339-0.115 6.167-7e-3 12.335 0.024 18.502 0.039 8.072 0.02 16.145 0.035 24.217 0.067 1.528 6e-3 3.044 0.187 4.524 0.588 0.971 0.264 1.922 0.58 2.71 1.252 0.836 0.713 0.856 1.487 0.024 2.195-0.684 0.583-1.502 0.904-2.353 1.14-1.725 0.479-3.493 0.627-5.274 0.643-3.227 0.028-6.457-0.079-9.678 0.229-1.558 0.15-3.105 0.376-4.611 0.808-0.906 0.26-1.791 0.591-2.73 0.905 1e-3 0 1e-3 1e-3 1e-3 1e-3 -4e-3 0-0.043-0.015-0.074-0.041-0.898-0.773-1.948-1.229-3.091-1.507-1.881-0.458-3.791-0.585-5.72-0.582-1.836 3e-3 -3.672-0.022-5.49 0.303-1.036 0.186-2.078 0.369-3.021 0.862-0.544 0.285-1.053 0.635-1.614 0.978 0.014 4e-3 -0.023-3e-3 -0.058-0.018-1.034-0.459-2.104-0.809-3.204-1.073-2.599-0.622-5.247-0.792-7.905-0.848-2.415-0.05-4.832-0.029-7.248-0.083-1.305-0.029-2.596-0.229-3.853-0.598-0.884-0.26-1.741-0.595-2.419-1.253-0.625-0.607-0.64-1.363 0.028-1.912m27.138 6.144c4e-3 -0.352 0.29-0.499 0.541-0.661 0.033-0.021 0.067-0.04 0.104-0.052 0.519-0.175 1.029-0.392 1.561-0.514 1.674-0.383 3.38-0.482 5.606-0.482 1.383 8e-3 3.272 0.104 5.114 0.602 0.468 0.127 0.932 0.324 1.351 0.568 0.529 0.31 0.518 0.747 8e-3 1.094-0.229 0.156-0.487 0.28-0.748 0.375-1.346 0.487-2.757 0.647-4.171 0.746-2.146 0.149-4.285 0.087-6.41-0.278-0.837-0.144-1.67-0.314-2.423-0.735-0.261-0.145-0.537-0.31-0.533-0.663m15.874 0.755c1.412-0.897 2.985-1.35 4.592-1.693 1.912-0.409 3.855-0.612 5.808-0.644 2.173-0.034 4.348-0.012 6.522 6e-3 2.248 0.018 4.481-0.105 6.672-0.647 1.148-0.284 2.256-0.679 3.225-1.387 0.513-0.374 0.899-0.826 0.874-1.511-0.015-0.424-0.206-0.778-0.457-1.105-0.475-0.619-1.136-0.975-1.821-1.3-1.221-0.58-2.531-0.8-3.852-0.995-2.249-0.331-4.514-0.246-6.772-0.257-5.085-0.025-10.169-0.014-15.254-0.016-2.803-2e-3 -5.606 0-8.409 0v-4e-3c-6.805 0-13.611-5e-3 -20.416 2e-3 -2.397 2e-3 -4.794 2e-3 -7.19 0.056-2.013 0.045-4.012 0.255-5.928 0.929-0.728 0.256-1.44 0.572-2.03 1.089-0.23 0.202-0.446 0.434-0.618 0.686-0.536 0.785-0.424 1.606 0.298 2.226 0.639 0.548 1.388 0.902 2.174 1.188 1.676 0.611 3.422 0.905 5.19 0.962 2.075 0.067 4.154 0.022 6.231 9e-3 2.768-0.018 5.527 0.104 8.255 0.593 1.937 0.348 3.797 0.906 5.494 1.971 1.709 1.072 3.618 1.619 5.618 1.858 1.618 0.194 3.24 0.214 4.862 0.105 2.473-0.167 4.82-0.78 6.932-2.121" fill="#231f20"/></g><g id="g52" transform="translate(35.552 20.485)"><path id="path54" d="m0 0c0.417-0.473 0.929-0.807 1.527-1.016 1.103-0.385 2.244-0.574 3.405-0.623 1.197-0.05 2.396-0.065 3.594-0.066 8.13-6e-3 16.26-3e-3 24.391-3e-3h3.625c7.57 1e-3 15.14-3e-3 22.709 8e-3 1.537 3e-3 3.069 0.09 4.562 0.515 0.767 0.219 1.472 0.535 2.015 1.137 0.428 0.474 0.44 0.929-0.04 1.34-0.353 0.302-0.764 0.563-1.191 0.745-1.166 0.497-2.408 0.701-3.667 0.756-1.206 0.052-2.414 0.064-3.622 0.064-16.251 5e-3 -32.502 3e-3 -48.753 3e-3 -0.89 0-1.78 0.02-2.668-0.01-1.47-0.049-2.929-0.188-4.328-0.691-0.578-0.208-1.133-0.453-1.553-0.92-0.378-0.421-0.381-0.815-6e-3 -1.239m23.432 5.471c0.561-0.343 1.07-0.693 1.614-0.978 0.944-0.493 1.985-0.676 3.021-0.862 1.818-0.325 3.654-0.3 5.49-0.302 1.929-4e-3 3.839 0.123 5.721 0.581 1.142 0.278 2.192 0.734 3.09 1.507 0.031 0.027 0.07 0.042 0.075 0.042 0 0-1e-3 -2e-3 -2e-3 -2e-3 0.939-0.313 1.824-0.645 2.73-0.904 1.506-0.433 3.053-0.659 4.611-0.809 3.221-0.308 6.451-0.201 9.678-0.229 1.781-0.016 3.549-0.164 5.274-0.642 0.851-0.237 1.669-0.558 2.353-1.141 0.832-0.708 0.813-1.481-0.024-2.194-0.788-0.673-1.738-0.989-2.709-1.253-1.481-0.401-2.997-0.582-4.525-0.588-8.072-0.032-16.144-0.046-24.216-0.067-6.168-0.015-12.336-0.045-18.503-0.039-3.78 5e-3 -7.56 0.043-11.339 0.115-1.848 0.036-3.68 0.301-5.409 0.999-0.57 0.23-1.111 0.588-1.589 0.981-0.668 0.549-0.652 1.305-0.028 1.912 0.678 0.659 1.535 0.993 2.419 1.253 1.257 0.369 2.549 0.569 3.853 0.598 2.416 0.054 4.833 0.033 7.248 0.083 2.658 0.056 5.306 0.226 7.905 0.848 1.101 0.264 2.17 0.615 3.205 1.073 0.034 0.015 0.071 0.022 0.057 0.018" fill="#fff"/></g><g id="g56" transform="translate(99.94 20.211)"><path id="path58" d="m0 0c-0.495-2e-3 -0.932 0.424-0.936 0.912-3e-3 0.486 0.432 0.909 0.934 0.907 0.506-2e-3 0.929-0.423 0.919-0.918-9e-3 -0.484-0.431-0.899-0.917-0.901" fill="#fff"/></g><path id="path60" d="m97.086 21.921h-4.99v0.786h4.99v-0.786z" fill="#fff"/><g id="g62" transform="translate(93.475 21.678)"><path id="path64" d="m0 0c0.061-0.342 0.335-0.317 0.6-0.316 0.802 2e-3 1.604 1e-3 2.405-1e-3 0.123 0 0.246-0.012 0.379-0.02v-0.705h-3.316c-0.063-0.39 0.034-0.516 0.378-0.517 0.917-5e-3 1.835-2e-3 2.753-3e-3h0.405v-0.763c-0.088-6e-3 -0.189-0.019-0.291-0.019-1.217-1e-3 -2.434-4e-3 -3.651 0-0.726 3e-3 -1.051 0.342-1.047 1.074 2e-3 0.411 0 0.823 0 1.24 0.055 0.013 0.091 0.029 0.127 0.029 0.406 2e-3 0.812 1e-3 1.258 1e-3" fill="#fff"/></g><g id="g66" transform="translate(89.952 22.767)"><path id="path68" d="m0 0h1.592c-0.205-0.31-0.383-0.577-0.561-0.848h-1.587c0.206 0.314 0.381 0.582 0.556 0.848" fill="#fff"/></g><g id="g70" transform="translate(89.219 21.665)"><path id="path72" d="m0 0h1.589c-0.531-0.796-1.036-1.552-1.547-2.317h-1.749c-0.507 0.757-1.014 1.513-1.548 2.311h1.588c0.257-0.39 0.531-0.804 0.834-1.263 0.293 0.446 0.56 0.854 0.833 1.269" fill="#fff"/></g><g id="g74" transform="translate(86.818 22.765)"><path id="path76" d="m0 0c0.174-0.26 0.353-0.528 0.564-0.843h-1.594c-0.166 0.25-0.348 0.526-0.558 0.843h1.588z" fill="#fff"/></g><path id="path78" d="m84.732 21.919h-1.383v0.784h1.383v-0.784z" fill="#fff"/><path id="path80" d="m84.724 19.352h-1.378v2.307h1.378v-2.307z" fill="#fff"/><g id="g82" transform="translate(82.47 21.662)"><path id="path84" d="m0 0c0.107-0.578-0.034-1.039-0.632-1.388 0.348-0.286 0.665-0.546 0.982-0.806-0.03-0.045-0.061-0.089-0.091-0.133-0.5 0-1-0.019-1.498 0.014-0.133 9e-3 -0.284 0.157-0.378 0.279-0.258 0.34-0.576 0.458-1 0.423-0.441-0.037-0.886-9e-3 -1.356-9e-3v0.937h1.424c0.251 0 0.502-1e-3 0.753 1e-3 0.328 3e-3 0.389 0.064 0.399 0.384 2e-3 0.094 9e-3 0.188 0.015 0.298h1.382z" fill="#fff"/></g><g id="g86" transform="translate(81.776 22.716)"><path id="path88" d="m0 0c0.443-4e-3 0.732-0.361 0.686-0.799h-5.682c-0.038 0.439 0.249 0.796 0.684 0.799 1.438 0.013 2.875 0.013 4.312 0" fill="#fff"/></g><path id="path90" d="m78.156 19.356h-1.398v2.307h1.398v-2.307z" fill="#fff"/><g id="g92" transform="translate(75.833 21.656)"><path id="path94" d="m0 0c0-0.194 1e-3 -0.391-1e-3 -0.588-2e-3 -0.271-7e-3 -0.541-0.011-0.812-7e-3 -0.489-0.319-0.894-0.797-0.905-1.138-0.028-2.277-9e-3 -3.451-9e-3v0.755c0.126 7e-3 0.238 0.018 0.35 0.018 0.696 2e-3 1.392-1e-3 2.088 2e-3 0.323 2e-3 0.396 0.073 0.398 0.389 5e-3 0.376 2e-3 0.751 2e-3 1.15h1.422z" fill="#fff"/></g><g id="g96" transform="translate(75.799 21.92)"><path id="path98" d="m0 0h-5.841c-7e-3 0.106-0.017 0.19-0.019 0.274-2e-3 0.162-1e-3 0.324-1e-3 0.498 0.096 0.013 0.16 0.03 0.224 0.03 1.623 1e-3 3.246 4e-3 4.869-1e-3 0.49-1e-3 0.792-0.314 0.768-0.801" fill="#fff"/></g><g id="g100" transform="translate(71.712 25.705)"><path id="path102" d="m0 0c-0.092-0.247-0.165-0.443-0.241-0.647h-0.376c0.249 0.723 0.489 1.42 0.73 2.116 0.042 2e-3 0.085 3e-3 0.128 4e-3 0.193-0.561 0.385-1.123 0.589-1.714h-0.755c-0.018 0.06-0.038 0.124-0.075 0.241m0.047 0.138c0.097 9e-3 0.161 0.014 0.256 0.022-0.048 0.111-0.082 0.189-0.143 0.331-0.049-0.152-0.076-0.236-0.113-0.353" fill="#231f20"/></g><g id="g104" transform="translate(69.548 25.371)"><path id="path106" d="m0 0c0.258 3e-3 0.517 1e-3 0.795 1e-3v0.946c-0.189 0.015-0.377 0.03-0.593 0.048-5e-3 0.088-9e-3 0.166-0.014 0.262h0.944v-1.218c0.02-5e-3 0.04-0.011 0.061-0.016 0.029 0.059 0.066 0.115 0.087 0.177 0.174 0.511 0.349 1.022 0.512 1.537 0.086 0.271 0.257 0.445 0.536 0.451 0.293 4e-3 0.471-0.176 0.562-0.456 0.195-0.606 0.4-1.209 0.599-1.813 0.022-0.07 0.03-0.144 0.048-0.233h-1.309c-4e-3 0.085-7e-3 0.157-0.012 0.276h0.932c-0.221 0.64-0.416 1.22-0.626 1.795-0.021 0.058-0.155 0.129-0.203 0.11-0.083-0.034-0.172-0.122-0.202-0.207-0.197-0.544-0.378-1.094-0.565-1.641-0.037-0.109-0.08-0.217-0.127-0.345-0.534 0-1.065-0.013-1.594 5e-3 -0.29 0.01-0.512 0.264-0.519 0.564-0.01 0.435-0.01 0.87 1e-3 1.305 8e-3 0.326 0.23 0.565 0.569 0.584 0.403 0.022 0.808 5e-3 1.241 5e-3v-0.318c-0.361 0-0.708 2e-3 -1.053 0-0.337-4e-3 -0.433-0.098-0.436-0.429-2e-3 -0.338 3e-3 -0.676 0-1.015-2e-3 -0.25 0.11-0.378 0.366-0.375" fill="#231f20"/></g><g id="g108" transform="translate(71.759 25.843)"><path id="path110" d="M 0,0 C 0.037,0.117 0.064,0.201 0.113,0.353 0.174,0.211 0.208,0.133 0.256,0.022 0.161,0.014 0.097,0.009 0,0" fill="#fff"/></g><path id="path112" d="m71.344 19.356h-1.389v2.304h1.389v-2.304z" fill="#fff"/><g id="g114" transform="translate(69.636 25.837)"><path id="path116" d="m0 0c0.074-0.012 0.151-0.024 0.228-0.036-0.06 0.142-0.111 0.262-0.178 0.421h0.534v-0.731c-0.24 0-0.471-0.027-0.69 0.014-0.095 0.017-0.224 0.17-0.232 0.27-0.028 0.334-0.016 0.673-3e-3 1.009 7e-3 0.178 0.114 0.278 0.303 0.276 0.347-4e-3 0.692-1e-3 1.075-1e-3v-0.301h-1.037v-0.921z" fill="#231f20"/></g><g id="g118" transform="translate(68.652 25.812)"><path id="path120" d="m0 0v-0.315c-0.39 0-0.772-0.017-1.15 0.013-0.077 7e-3 -0.167 0.178-0.205 0.29-0.035 0.102-7e-3 0.226-7e-3 0.369h1.115c5e-3 -0.074 9e-3 -0.145 0.015-0.256h-0.747c-1e-3 -0.034-1e-3 -0.067-2e-3 -0.101h0.981z" fill="#231f20"/></g><g id="g122" transform="translate(68.642 26.746)"><path id="path124" d="m0 0h-0.961c1e-3 -0.03 1e-3 -0.059 2e-3 -0.089h0.718c6e-3 -0.11 0.01-0.187 0.015-0.29h-1.124c0 0.163-0.035 0.301 9e-3 0.406 0.046 0.11 0.16 0.262 0.256 0.271 0.351 0.032 0.708 0.013 1.085 0.013v-0.311z" fill="#231f20"/></g><g id="g126" transform="translate(67.168 25.766)"><path id="path128" d="m0 0c3e-3 -0.256 0.132-0.39 0.396-0.389 0.355 3e-3 0.71 1e-3 1.086 1e-3v-0.32c-0.44 0-0.863-0.021-1.284 6e-3 -0.29 0.019-0.492 0.236-0.507 0.543-0.023 0.452-0.021 0.907 8e-3 1.358 0.02 0.319 0.227 0.517 0.546 0.536 0.402 0.024 0.806 6e-3 1.231 6e-3v-0.316c-0.347 0-0.682 2e-3 -1.017-1e-3 -0.357-3e-3 -0.46-0.105-0.463-0.469-3e-3 -0.318-1e-3 -0.637 4e-3 -0.955" fill="#231f20"/></g><g id="g130" transform="translate(66.636 21.661)"><path id="path132" d="m0 0v-2.304h-1.381c-0.01 0.214-0.019 0.422-0.03 0.67h-2.508v0.943h2.516v0.691h1.403z" fill="#fff"/></g><g id="g134" transform="translate(65.812 26.319)"><path id="path136" d="m0 0c-0.087 2e-3 -0.174-3e-3 -0.26 3e-3 -0.057 5e-3 -0.139 5e-3 -0.163 0.039-0.081 0.119-0.213 0.265-0.191 0.374 0.025 0.123 0.188 0.293 0.305 0.306 0.361 0.04 0.728 0.015 1.112 0.015 5e-3 -0.095 9e-3 -0.166 0.015-0.29h-1.095c-3e-3 -0.029-6e-3 -0.058-8e-3 -0.086 0.109-0.014 0.218-0.029 0.328-0.041 0.473-0.054 0.787-0.377 0.785-0.808-3e-3 -0.407-0.301-0.759-0.703-0.781-0.384-0.022-0.769-5e-3 -1.181-5e-3 -6e-3 0.109-0.011 0.198-0.019 0.328 0.379 0 0.735-0.01 1.088 3e-3 0.299 0.011 0.497 0.227 0.488 0.499-9e-3 0.265-0.203 0.436-0.501 0.444" fill="#231f20"/></g><g id="g138" transform="translate(61.04 21.924)"><path id="path140" d="m0 0c9e-3 0.48 0.277 0.791 0.719 0.794 1.389 0.011 2.778 0.011 4.168 0 0.437-4e-3 0.728-0.348 0.7-0.794h-5.587z" fill="#fff"/></g><g id="g142" transform="translate(65.117 26.514)"><path id="path144" d="m0 0c0.054-0.121 0.228-0.212 0.368-0.264 0.12-0.045 0.271 3e-3 0.402-0.023 0.2-0.039 0.332-0.176 0.324-0.385-7e-3 -0.206-0.133-0.347-0.349-0.353-0.356-0.01-0.713-3e-3 -1.097-3e-3 -9e-3 0.097-0.016 0.175-0.027 0.295h1.109c3e-3 0.029 6e-3 0.06 0.01 0.089-0.091 0.015-0.181 0.038-0.273 0.042-0.48 0.02-0.837 0.345-0.845 0.776-9e-3 0.445 0.319 0.794 0.8 0.819 0.355 0.018 0.71 3e-3 1.081 3e-3v-0.32c-0.32 0-0.639 0.025-0.951-0.01-0.177-0.019-0.382-0.098-0.499-0.222-0.087-0.09-0.108-0.322-0.053-0.444" fill="#231f20"/></g><g id="g146" transform="translate(69.275 24.606)"><path id="path148" d="m0 0c-2.226 1e-3 -3.932 0.099-5.607 0.482-0.531 0.122-1.041 0.339-1.561 0.514-0.036 0.012-0.07 0.031-0.103 0.052-0.251 0.163-0.537 0.309-0.541 0.661-4e-3 0.353 0.272 0.518 0.533 0.664 0.752 0.42 1.586 0.59 2.423 0.734 2.124 0.365 4.264 0.427 6.409 0.278 1.415-0.099 2.825-0.258 4.172-0.746 0.261-0.095 0.519-0.219 0.748-0.374 0.509-0.348 0.521-0.785-8e-3 -1.094-0.419-0.245-0.883-0.442-1.352-0.568-1.841-0.499-3.73-0.595-5.113-0.603m-3.45 0.77c-0.354-0.013-0.709-3e-3 -1.089-3e-3 8e-3 -0.13 0.013-0.219 0.02-0.328 0.411 0 0.797-0.017 1.18 5e-3 0.402 0.022 0.701 0.374 0.703 0.781 2e-3 0.431-0.312 0.754-0.785 0.808-0.109 0.012-0.219 0.027-0.328 0.041 2e-3 0.028 5e-3 0.057 8e-3 0.086h1.095c-6e-3 0.124-0.01 0.195-0.014 0.29-0.384 0-0.752 0.025-1.112-0.015-0.118-0.013-0.28-0.183-0.305-0.306-0.022-0.109 0.109-0.255 0.19-0.374 0.024-0.034 0.107-0.034 0.163-0.039 0.086-6e-3 0.173-1e-3 0.26-3e-3 0.298-8e-3 0.493-0.179 0.501-0.444 0.01-0.272-0.189-0.488-0.487-0.499m-1.06 0.111c0.384 0 0.74-8e-3 1.096 2e-3 0.217 6e-3 0.342 0.147 0.349 0.354 9e-3 0.208-0.123 0.345-0.324 0.385-0.13 0.025-0.281-0.022-0.401 0.023-0.141 0.051-0.315 0.142-0.369 0.263-0.054 0.123-0.033 0.354 0.053 0.445 0.117 0.123 0.323 0.202 0.5 0.221 0.312 0.035 0.63 0.01 0.95 0.01v0.32c-0.37 0-0.726 0.015-1.08-3e-3 -0.481-0.025-0.81-0.374-0.801-0.818 9e-3 -0.431 0.365-0.756 0.845-0.776 0.092-4e-3 0.182-0.028 0.273-0.042-4e-3 -0.03-6e-3 -0.06-0.01-0.09h-1.108c0.011-0.119 0.018-0.198 0.027-0.294m2.403 0.279c-5e-3 0.318-7e-3 0.637-4e-3 0.955 3e-3 0.363 0.106 0.466 0.463 0.469 0.335 3e-3 0.671 0 1.017 0v0.316c-0.425 0-0.829 0.018-1.231-5e-3 -0.319-0.019-0.526-0.217-0.546-0.536-0.029-0.452-0.031-0.906-8e-3 -1.358 0.015-0.308 0.217-0.525 0.508-0.543 0.42-0.027 0.844-7e-3 1.283-7e-3v0.321c-0.376 0-0.731 1e-3 -1.086-1e-3 -0.264-2e-3 -0.392 0.132-0.396 0.389m0.122 0.403c0-0.143-0.028-0.267 7e-3 -0.369 0.038-0.112 0.128-0.283 0.205-0.29 0.378-0.03 0.76-0.013 1.15-0.013v0.315h-0.981c1e-3 0.034 1e-3 0.067 2e-3 0.101h0.747c-6e-3 0.111-0.01 0.181-0.015 0.256h-1.115zm0.011 0.604c-0.044-0.105-9e-3 -0.243-9e-3 -0.406h1.124c-5e-3 0.103-9e-3 0.18-0.015 0.29h-0.718c-1e-3 0.03-1e-3 0.059-2e-3 0.089h0.961v0.311c-0.377 0-0.734 0.019-1.085-0.013-0.096-9e-3 -0.21-0.161-0.256-0.271m1.559-1.159c7e-3 -0.3 0.228-0.554 0.519-0.564 0.529-0.018 1.06-5e-3 1.594-5e-3 0.047 0.128 0.089 0.236 0.126 0.345 0.188 0.547 0.369 1.097 0.565 1.641 0.031 0.085 0.12 0.173 0.203 0.207 0.047 0.019 0.181-0.052 0.202-0.11 0.211-0.575 0.406-1.155 0.626-1.795h-0.931c5e-3 -0.119 8e-3 -0.191 0.012-0.276h1.309c-0.018 0.089-0.026 0.163-0.049 0.233-0.199 0.604-0.403 1.207-0.598 1.813-0.091 0.28-0.269 0.46-0.562 0.456-0.279-6e-3 -0.45-0.18-0.536-0.451-0.163-0.515-0.339-1.026-0.512-1.537-0.021-0.062-0.058-0.118-0.088-0.177-0.02 6e-3 -0.04 0.011-0.061 0.016v1.218h-0.943c5e-3 -0.096 9e-3 -0.174 0.014-0.262 0.215-0.017 0.403-0.033 0.593-0.048v-0.946c-0.279 0-0.537 2e-3 -0.795-1e-3 -0.257-3e-3 -0.369 0.125-0.366 0.375 3e-3 0.339-3e-3 0.677 0 1.016 3e-3 0.33 0.098 0.424 0.435 0.428 0.346 3e-3 0.692 0 1.054 0v0.318c-0.433 0-0.839 0.018-1.242-5e-3 -0.338-0.019-0.56-0.258-0.568-0.584-0.011-0.435-0.011-0.87-1e-3 -1.305m0.437 0.161c8e-3 -0.1 0.138-0.253 0.232-0.27 0.219-0.041 0.45-0.014 0.69-0.014v0.731h-0.534c0.067-0.159 0.118-0.279 0.178-0.421-0.077 0.012-0.154 0.024-0.228 0.036v0.921h1.037v0.301c-0.382 0-0.728-3e-3 -1.074 1e-3 -0.19 2e-3 -0.296-0.098-0.303-0.276-0.014-0.336-0.026-0.675 2e-3 -1.009m1.798-0.718h0.376c0.076 0.205 0.149 0.401 0.241 0.648 0.036-0.117 0.057-0.181 0.075-0.241h0.754c-0.203 0.591-0.395 1.153-0.588 1.714-0.043-1e-3 -0.086-3e-3 -0.129-4e-3 -0.24-0.697-0.48-1.393-0.729-2.117" fill="#fff"/></g><path id="path150" d="m62.421 19.355h-1.397v2.304h1.397v-2.304z" fill="#fff"/><g id="g152" transform="translate(60.311 22.723)"><path id="path154" d="m0 0v-0.798h-5.893c-0.051 0.456 0.257 0.788 0.746 0.796 0.561 8e-3 1.122 2e-3 1.682 2e-3h3.103 0.362z" fill="#fff"/></g><g id="g156" transform="translate(55.8 20.602)"><path id="path158" d="m0 0c2e-3 -0.443 0.044-0.485 0.476-0.486h2.144c0.058 0 0.116-1e-3 0.174 3e-3 0.166 0.012 0.305 0.093 0.261 0.265-0.025 0.096-0.169 0.221-0.265 0.227-0.433 0.025-0.869 0.012-1.303 0.012h-0.384v0.678c0.016 0.013 0.03 0.035 0.044 0.035 0.859 0 1.718 0.025 2.575-0.012 0.468-0.021 0.832-0.551 0.801-1.049-0.03-0.511-0.444-0.929-0.963-0.938-0.763-0.012-1.526-4e-3 -2.288-4e-3 -0.571-1e-3 -1.14-5e-3 -1.71 2e-3 -0.613 6e-3 -0.971 0.371-0.973 0.975-1e-3 0.442 0 0.884 0 1.37h0.704 0.707c0-0.373-1e-3 -0.726 0-1.078" fill="#fff"/></g><path id="path160" d="m41.596 21.666h-1.377v-2.312h1.377v2.312zm3.107-0.01h-1.369v-2.306h1.369v2.306zm3.124 0.262c0.022 0.49-0.283 0.803-0.788 0.803-2.193 4e-3 -4.386 2e-3 -6.579 1e-3 -0.075 0-0.149-0.015-0.24-0.023v-0.781h7.607zm7e-3 -0.262h-1.41v-2.301h1.41v2.301zm5.808 1.046h-4.986v-0.781h4.986v0.781zm8.779-1.043h-1.397v-2.304h1.397v2.304zm4.206 0.265c0.027 0.445-0.263 0.79-0.701 0.793-1.389 0.011-2.778 0.011-4.167 1e-3 -0.442-4e-3 -0.71-0.315-0.719-0.794h5.587zm4.717-0.264h-1.389v-2.304h1.389v2.304zm4.489-0.592c1e-3 0.197 0 0.395 0 0.588h-1.422c0-0.399 3e-3 -0.774-1e-3 -1.149-3e-3 -0.317-0.076-0.388-0.399-0.39-0.696-3e-3 -1.392 0-2.088-1e-3 -0.112-1e-3 -0.224-0.012-0.35-0.019v-0.755c1.174 0 2.313-0.019 3.451 9e-3 0.479 0.012 0.79 0.416 0.797 0.906 4e-3 0.27 9e-3 0.541 0.012 0.811m2.323 0.595h-1.398v-2.307h1.398v2.307zm6.568-4e-3h-1.378v-2.307h1.378v2.307zm8e-3 1.044h-1.383v-0.784h1.383v0.784zm6.077-1.038h-1.59c-0.272-0.415-0.54-0.823-0.833-1.269-0.303 0.459-0.576 0.873-0.833 1.263h-1.589c0.535-0.798 1.042-1.554 1.548-2.311h1.749c0.511 0.765 1.016 1.521 1.548 2.317m0.174 0.255c0.179 0.27 0.356 0.537 0.561 0.847h-1.592c-0.174-0.266-0.35-0.534-0.555-0.847h1.586zm6.103 0.787h-4.99v-0.786h4.99v0.786zm-47.379-3.373c1.209-3e-3 2.417-1e-3 3.625 0 0.103 0 0.205 0.012 0.306 0.018v0.764h-0.371c-0.928 1e-3 -1.856-2e-3 -2.784 2e-3 -0.342 2e-3 -0.44 0.125-0.39 0.515h3.322v0.729h-0.404c-0.812 0-1.624 4e-3 -2.437-2e-3 -0.249-2e-3 -0.464 0.029-0.538 0.298h-1.389c0-0.436 2e-3 -0.849 0-1.262-2e-3 -0.724 0.328-1.06 1.06-1.062m4.682 0.976c2e-3 -0.604 0.36-0.968 0.973-0.975 0.57-7e-3 1.139-2e-3 1.709-2e-3 0.763 0 1.526-7e-3 2.289 5e-3 0.518 8e-3 0.933 0.426 0.963 0.938 0.031 0.497-0.333 1.027-0.801 1.048-0.857 0.038-1.716 0.013-2.575 0.013-0.014 0-0.028-0.022-0.044-0.036v-0.677h0.384c0.434-1e-3 0.87 0.012 1.303-0.013 0.096-5e-3 0.24-0.131 0.265-0.226 0.044-0.173-0.095-0.254-0.261-0.266-0.058-4e-3 -0.116-2e-3 -0.174-2e-3 -0.715-1e-3 -1.43-1e-3 -2.144 0-0.433 0-0.474 0.043-0.476 0.485-1e-3 0.352 0 0.705 0 1.078h-0.707-0.704c0-0.486-1e-3 -0.928 0-1.37m0.029 1.615h5.893v0.798h-0.362-3.103c-0.561 0-1.122 6e-3 -1.682-2e-3 -0.489-8e-3 -0.797-0.34-0.746-0.796m10.807-1.898c0.011-0.248 0.02-0.456 0.03-0.67h1.381v2.304h-1.403v-0.692h-2.516v-0.942h2.508zm4.732 1.893h5.842c0.024 0.486-0.279 0.8-0.768 0.801-1.623 5e-3 -3.246 2e-3 -4.869 0-0.064 0-0.129-0.016-0.224-0.029 0-0.174-1e-3 -0.336 1e-3 -0.498 2e-3 -0.085 0.012-0.169 0.018-0.274m-32.954-1.709c0.487 3e-3 0.914 0.426 0.917 0.908 3e-3 0.498-0.424 0.914-0.934 0.911-0.49-3e-3 -0.913-0.418-0.917-0.9-4e-3 -0.487 0.438-0.922 0.934-0.919m42.85-0.16c0.424 0.036 0.743-0.083 1.001-0.423 0.093-0.122 0.244-0.27 0.377-0.279 0.498-0.033 0.999-0.014 1.499-0.014 0.03 0.044 0.06 0.089 0.091 0.133-0.317 0.26-0.634 0.521-0.982 0.807 0.598 0.348 0.739 0.809 0.632 1.387h-1.382c-6e-3 -0.11-0.014-0.203-0.016-0.297-0.01-0.321-0.071-0.382-0.398-0.385-0.252-2e-3 -0.503-1e-3 -0.754-1e-3h-1.424v-0.936c0.471 0 0.916-0.029 1.356 8e-3m2.608 1.866c0.047 0.438-0.243 0.795-0.685 0.799-1.438 0.013-2.875 0.013-4.312 0-0.435-3e-3 -0.722-0.36-0.684-0.799h5.681zm3.327 4e-3h1.594c-0.21 0.315-0.39 0.583-0.564 0.844h-1.587c0.209-0.317 0.392-0.594 0.557-0.844m7.349-2.587c1.217-4e-3 2.435-1e-3 3.652 0 0.101 0 0.202 0.013 0.29 0.019v0.763h-0.405c-0.918 1e-3 -1.835-2e-3 -2.753 3e-3 -0.344 1e-3 -0.44 0.127-0.378 0.516h3.316v0.706c-0.132 7e-3 -0.255 0.02-0.378 0.02-0.802 2e-3 -1.604 2e-3 -2.406 1e-3 -0.265-1e-3 -0.539-0.026-0.6 0.316-0.446 0-0.852 0-1.257-1e-3 -0.036 0-0.073-0.017-0.128-0.029 0-0.417 2e-3 -0.829 0-1.241-3e-3 -0.732 0.321-1.07 1.047-1.073m3.345 3.944c1.259-0.055 2.501-0.258 3.667-0.756 0.427-0.182 0.838-0.443 1.191-0.745 0.48-0.411 0.468-0.866 0.04-1.339-0.543-0.603-1.248-0.919-2.015-1.137-1.493-0.426-3.025-0.513-4.562-0.516-7.569-0.011-15.139-6e-3 -22.708-8e-3h-3.626c-8.13 0-16.261-3e-3 -24.391 3e-3 -1.198 1e-3 -2.397 0.017-3.594 0.066-1.161 0.049-2.302 0.238-3.405 0.623-0.598 0.209-1.11 0.543-1.527 1.016-0.375 0.424-0.372 0.819 6e-3 1.239 0.42 0.467 0.975 0.713 1.553 0.92 1.399 0.503 2.858 0.642 4.328 0.691 0.888 0.03 1.778 0.01 2.668 0.01 16.251 1e-3 32.502 2e-3 48.753-2e-3 1.208 0 2.416-0.013 3.622-0.065m3.458-3.067c0.486 2e-3 0.908 0.417 0.917 0.901 0.01 0.494-0.413 0.916-0.919 0.918-0.502 2e-3 -0.937-0.421-0.933-0.907 3e-3 -0.488 0.441-0.915 0.935-0.912" fill="#231f20"/><path id="path162" d="m53.642 21.921h-4.986v0.781h4.986v-0.781z" fill="#fff"/><g id="g164" transform="translate(50.093 20.633)"><path id="path166" d="m0 0c-0.05-0.39 0.048-0.513 0.39-0.515 0.928-4e-3 1.856-1e-3 2.784-2e-3h0.371v-0.764c-0.101-6e-3 -0.203-0.018-0.306-0.018-1.208-2e-3 -2.416-3e-3 -3.625 0-0.732 2e-3 -1.062 0.338-1.06 1.062 2e-3 0.413 0 0.826 0 1.262h1.389c0.074-0.269 0.289-0.3 0.538-0.298 0.813 6e-3 1.625 2e-3 2.437 2e-3h0.404v-0.729h-3.322z" fill="#fff"/></g><path id="path168" d="m47.834 19.355h-1.41v2.301h1.41v-2.301z" fill="#fff"/><g id="g170" transform="translate(47.827 21.918)"><path id="path172" d="m0 0h-7.607v0.781c0.091 9e-3 0.165 0.023 0.24 0.023 2.193 1e-3 4.386 3e-3 6.579-1e-3 0.504 0 0.81-0.313 0.788-0.803" fill="#fff"/></g><path id="path174" d="m44.703 19.349h-1.369v2.306h1.369v-2.306z" fill="#fff"/><path id="path176" d="m41.596 19.353h-1.377v2.312h1.377v-2.312z" fill="#fff"/><g id="g178" transform="translate(36.986 22.03)"><path id="path180" d="m0 0c0.51 3e-3 0.937-0.412 0.934-0.911-3e-3 -0.482-0.43-0.905-0.917-0.908-0.496-3e-3 -0.938 0.432-0.934 0.919 4e-3 0.482 0.427 0.897 0.917 0.9" fill="#fff"/></g></g></g></g></g></g></g></svg>
