<?xml version="1.0" encoding="UTF-8"?>
<!-- Generator: Adobe Illustrator 19.0.0, SVG Export Plug-In . SVG Version: 6.00 Build 0)  -->
<svg id="Layer_1" width="835.07" height="311.97" version="1.1" viewBox="0 0 835.07 311.97" xml:space="preserve" xmlns="http://www.w3.org/2000/svg" xmlns:cc="http://creativecommons.org/ns#" xmlns:dc="http://purl.org/dc/elements/1.1/" xmlns:rdf="http://www.w3.org/1999/02/22-rdf-syntax-ns#"><metadata id="metadata413"><rdf:RDF><cc:Work rdf:about=""><dc:format>image/svg+xml</dc:format><dc:type rdf:resource="http://purl.org/dc/dcmitype/StillImage"/><dc:title/></cc:Work></rdf:RDF></metadata><path id="path3" d="m427.6 413.17" fill="#181515"/><g id="g5" transform="matrix(.90927 0 0 .90927 0 .090927)"><g id="g7" fill="#282424"><rect id="rect9" x="327.7" y="-.1" width="65.8" height="343"/><rect id="rect11" x="393.5" y="335.1" width="30.4" height="7.8"/></g><g id="g13"><path id="path15" d="m24.7 0h10.1v1.9h287.4v-1.9h8.7 1.4c22.4 0.9 24.7 20.4 24.7 20.4v286.8s0.6 5.7-2.1 8.5c-5.2 5.4-23.2 23.3-27.2 27.3h-301.6s-21.3-20.6-23.5-21.6c-1.5-2-2.6-5.4-2.6-13.7v-287.4s2.4-19.3 24.7-20.3z" fill="#312f2f"/><path id="XMLID_748_" d="m327.9 342.3c-0.1 0.3-0.1 0.5-0.2 0.6h-299.6s-8.2-138.1 41.8-144.9c9.2-1.1 20.8 1.3 46.9 7.6 26.2 6.2 95.9 6.2 122.1 0s37.6-7.6 46.9-7.6c17.3 0 28 16.9 34.5 39.2 11.7 40.1 9.6 97.6 7.6 105.1z" fill="#3f3f3f"/><path id="XMLID_746_" d="m178.6 215.1c-35.4 0-42.4-1.7-48.5-2.5-6-0.8-4.2 4.7-4.2 4.7s3.1 20.4 3.5 28.1 8.7 6.7 8.7 6.7h81s8.3 1.1 8.7-6.7 3.5-28.1 3.5-28.1 1.8-5.5-4.2-4.7c-6.1 0.8-13.2 2.5-48.5 2.5z" fill="#181515"/><ellipse id="XMLID_745_" cx="178.6" cy="106" rx="152.1" ry="87.4" fill="#30302f"/><ellipse id="XMLID_744_" cx="178.6" cy="105.8" rx="150.5" ry="85.7" fill="#181515"/><ellipse id="XMLID_743_" cx="178.6" cy="103.8" rx="123.7" ry="69.5" fill="#2c2929"/><polygon id="XMLID_742_" points="186.3 140.3 178.4 132.3 170.8 140.3" fill="#241c1e"/><g id="SEGA_1_" fill="#929397"><path id="XMLID_724_" d="m202.3 239h-7.6v-1.8h5.2c-0.4-1.1-0.7-2.1-1-3-0.8-2.3-1.5-4.7-2.3-7-0.2-0.6-0.7-1.2-1.2-1.4-0.8-0.2-1.1 0.7-1.3 1.4-1.2 3.6-2.3 7.1-3.5 10.7-0.3 0.8-0.6 1.1-1.5 1.1-2.3-0.1-4.7 0-7 0-2.4 0-3.9-1.6-3.9-4 0-2.2-0.1-4.4 0-6.6 0.1-2.5 1.5-4 3.9-4h6.4v1.9h-5.4c-2.5 0-3.1 0.6-3.1 3.3v5c0 1.8 0.8 2.6 2.5 2.7h4.1v-5.8h-3.4v-1.8h5.4v7.6h0.3c1.1-3.5 2.3-7 3.4-10.5 0.6-2 1.8-2.8 3.8-2.5 1.1 0.2 1.9 0.8 2.2 1.8 1.4 4.2 2.7 8.4 4.1 12.6 0 0.1-0.1 0.2-0.1 0.3z"/><path id="XMLID_723_" d="m154.8 239v-1.8h6c1.7 0 2.9-1.2 3-2.8 0.1-1.5-1.2-2.9-2.8-3-0.7 0-1.3 0-2-0.1-1-0.1-1.8-1.1-1.8-2.2s0.7-2.1 1.8-2.1c2.2-0.1 4.3 0 6.6 0v1.8h-3.3-3.1v0.6c0.6 0 1.2 0.1 1.8 0.1 2.3 0.1 3.9 1.4 4.5 3.7 0.7 2.8-1.3 5.7-4 5.8-2.2 0.1-4.3 0-6.7 0z"/><path id="XMLID_722_" d="m154.8 236.5v-1.9h6.4v-0.5c-0.7 0-1.3-0.1-2-0.1-1.8 0-3.2-0.9-4-2.6s-0.7-3.4 0.4-5c0.7-1.1 1.8-1.8 3-1.9 2.2-0.1 4.5 0 6.8 0v1.8h-6.1c-2 0-3.3 1.9-2.7 3.8 0.4 1.1 1.4 1.9 2.7 2 0.6 0 1.3 0 1.9 0.1 1 0.1 1.8 1.1 1.8 2.1 0 1.1-0.8 2.1-1.7 2.2h-6.5z"/><path id="XMLID_721_" d="m177.3 224.5v1.8h-6c-2.1 0-2.8 0.7-2.8 2.9v5.2c0 2 0.8 2.8 2.7 2.8h6v1.9h-4.4-2.8c-1.7-0.1-3.2-1.7-3.3-3.5-0.1-2.5-0.1-5.1 0-7.6 0-1.6 1.4-3.3 3-3.4 2.5-0.2 5-0.1 7.6-0.1z"/><path id="XMLID_718_" d="m190.9 238.9c1.3-4 2.5-7.9 3.8-11.7 0.1-0.3 0.4-0.6 0.6-0.7 0.1-0.1 0.5 0.3 0.6 0.5 1 3.1 2.1 6.2 3.1 9.4h-4.3c0-0.5-0.1-0.9-0.1-1.3-0.1 0-0.1 0-0.2-0.1-0.2 0.7-0.5 1.4-0.7 2.2-0.7 2-0.7 2-2.8 1.7zm3.7-4.5h1.5c-0.2-0.7-0.4-1.4-0.6-2h-0.3c-0.1 0.6-0.3 1.2-0.6 2z"/><path id="XMLID_717_" d="m184.5 234.2c-0.6-0.2-0.9-0.3-1.3-0.4v-1.6h2.8v4.3c-1.4 0-2.9 0.1-4.3-0.1-0.4 0-0.9-0.7-1-1.2-0.1-2.3-0.1-4.6 0-6.9 0-0.8 0.5-1.3 1.3-1.3h6.5v1.8h-4.8c-1 0-1.3 0.3-1.3 1.3 0.1 1.1 0 2.2 0 3.2 0.1 1.4 0.7 1.7 2.1 0.9z"/><path id="XMLID_359_" d="m171.1 234.5c2 0.4 4 0 6.1 0.2v1.7c-2.4 0-4.7 0.1-7-0.1-0.4 0-0.9-0.8-1-1.3-0.2-0.9 0-1.9 0-3h6.6v1.7h-4.6c0 0.4-0.1 0.6-0.1 0.8z"/><path id="XMLID_358_" d="m177.3 227v1.7c-2 0.3-4.1-0.2-6.1 0.3v0.5h4.6v1.8h-6.5c0-1.1-0.1-2.2 0-3.3 0.1-0.4 0.7-1 1-1h7z"/></g><g id="XMLID_212_" fill="#241c1e"><path id="XMLID_89_" d="m152.6 144.9-1.3 0.1c0-0.9-0.3-1.4-0.9-1.4-0.7 0-1 0.7-1 2.1 0 0.8 0.1 1.4 0.3 1.6 0.2 0.3 0.4 0.4 0.8 0.4 0.5 0 0.8-0.4 1-1.2l1.2 0.1c-0.1 0.8-0.3 1.4-0.7 1.8s-0.9 0.6-1.5 0.6c-0.7 0-1.3-0.3-1.8-0.9-0.4-0.6-0.7-1.4-0.7-2.4s0.2-1.8 0.7-2.4c0.4-0.6 1-0.9 1.8-0.9 1.2 0 1.9 0.8 2.1 2.5z"/><path id="XMLID_86_" d="m155.5 142.5 1.7 6.4h-1.4l-0.3-1.3h-1.8l-0.3 1.3h-1.1l1.7-6.4h1.5zm-1.4 3.9h1.2l-0.6-2.3-0.6 2.3z"/><path id="XMLID_83_" d="m158.8 146.4v2.5h-1.3v-6.4h2.4c0.4 0 0.8 0.1 1.1 0.2s0.5 0.3 0.7 0.7c0.2 0.3 0.3 0.7 0.3 1.1 0 0.8-0.3 1.3-0.9 1.7l1 2.8h-1.4l-0.8-2.5h-1.1zm0-2.7v1.6h0.8c0.3 0 0.4 0 0.6-0.1 0.1 0 0.2-0.1 0.3-0.3 0.1-0.1 0.1-0.3 0.1-0.5s0-0.3-0.1-0.5-0.2-0.2-0.3-0.3h-0.6-0.8z"/><path id="XMLID_81_" d="m166.1 142.5v1.3h-1.3v5.2h-1.3v-5.2h-1.4v-1.3h4z"/><path id="XMLID_78_" d="m167.8 146.4v2.5h-1.3v-6.4h2.4c0.4 0 0.8 0.1 1.1 0.2s0.5 0.3 0.7 0.7c0.2 0.3 0.3 0.7 0.3 1.1 0 0.8-0.3 1.3-0.9 1.7l1 2.8h-1.4l-0.8-2.5h-1.1zm0-2.7v1.6h0.8c0.3 0 0.4 0 0.6-0.1 0.1 0 0.2-0.1 0.3-0.3 0.1-0.1 0.1-0.3 0.1-0.5s0-0.3-0.1-0.5l-0.3-0.3h-0.6-0.8z"/><path id="XMLID_76_" d="m172.5 142.5v6.4h-1.3v-6.4h1.3z"/><path id="XMLID_17_" d="m172.9 142.5h1.7c0.7 0 1.2 0.1 1.5 0.3s0.6 0.6 0.9 1.1 0.4 1.1 0.4 1.8c0 0.9-0.2 1.7-0.7 2.3s-1.1 0.9-1.9 0.9h-1.9v-6.4zm1.3 1.2v4h0.5c0.5 0 0.8-0.2 1-0.6s0.3-0.9 0.3-1.4c0-0.4-0.1-0.7-0.2-1.1-0.1-0.3-0.3-0.6-0.5-0.7s-0.4-0.2-0.7-0.2h-0.4z"/><path id="XMLID_15_" d="m182.1 145.5s0 2-0.7 2.8c-0.7 0.7-0.9 0.8-1.5 0.8-0.7 0-1.3-0.3-1.7-0.9s-0.6-1.4-0.6-2.3c0-1 0.2-1.8 0.6-2.5 0.4-0.6 1-0.9 1.7-0.9 0.6 0 1.1 0.2 1.5 0.6s0.6 0.9 0.7 1.6l-1.2 0.2c-0.1-0.8-0.4-1.2-0.9-1.2-0.3 0-0.6 0.2-0.8 0.6s-0.3 0.9-0.3 1.6 0.1 1.2 0.3 1.5 0.5 0.5 0.8 0.5c0.2 0 0.4-0.1 0.6-0.3s0.3-0.5 0.3-0.8h-1v-1.2h2.2z"/><path id="XMLID_13_" d="m186.3 143.7h-2.6v1.3h2v1.2h-2v1.4h2.6v1.3h-3.9v-6.4h3.9v1.2z"/><path id="XMLID_11_" d="m191.3 142.5v6.4h-1.3v-6.4h1.3z"/><path id="XMLID_9_" d="m195.8 142.5v6.4h-1.1l-2.1-4.3v0.2 0.3 3.8h-1v-6.4h1.4l1.8 3.8v-0.4-3.4h1z"/><path id="XMLID_6_" d="m197.3 146.6v2.4h-1.3v-6.4h2.1c0.5 0 0.8 0.1 1.1 0.2s0.5 0.3 0.7 0.6 0.3 0.7 0.3 1.1c0 0.3-0.1 0.6-0.2 0.9s-0.3 0.5-0.4 0.7c-0.2 0.2-0.4 0.3-0.6 0.3-0.2 0.1-0.5 0.1-0.9 0.1h-0.8zm0-1.2h0.8c0.3 0 0.5-0.1 0.7-0.3s0.2-0.4 0.2-0.6c0-0.3-0.1-0.5-0.2-0.6-0.1-0.2-0.4-0.2-0.6-0.2h-0.8v1.7z"/><path id="XMLID_4_" d="m204.8 142.5v4c0 0.6-0.1 1.1-0.2 1.4s-0.4 0.6-0.7 0.8-0.8 0.3-1.3 0.3-0.9-0.1-1.2-0.3-0.5-0.4-0.7-0.8-0.2-0.8-0.2-1.5v-4h1.4v4c0 0.3 0 0.6 0.1 0.8 0 0.2 0.1 0.3 0.3 0.4s0.3 0.1 0.5 0.1 0.4 0 0.6-0.1 0.2-0.2 0.3-0.4c0-0.2 0.1-0.4 0.1-0.8v-4h1z"/><path id="XMLID_2_" d="m209.1 142.5v1.3h-1.3v5.2h-1.3v-5.2h-1.4v-1.3h4z"/></g><g id="g47"><path id="path49" d="m272.3 122.3h-187.5c-10.3 0-18.8-8.5-18.8-18.8v-2.5c0-10.3 8.5-18.8 18.8-18.8h187.4c10.3 0 18.8 8.5 18.8 18.8v2.5c0.1 10.3-8.4 18.8-18.7 18.8z" fill="#181515"/><g id="g51"><rect id="rect53" x="79.3" y="88.7" width="198.4" height="28.2"/><rect id="rect55" x="80.3" y="89.7" width="196.4" height="26.2" fill="#732a46"/><rect id="rect57" x="79.3" y="102.3" width="198.4" height="1" fill="#010102"/></g></g><path id="XMLID_250_" d="m43.5 220.3c6.2-12.2 16-18.4 27.5-20 9.2-1.1 22.7 3.9 48.9 10.1 13.1 3.1 33.9 4.7 58 4.6 24.1 0 44.9-1.5 58-4.6 26.2-6.2 39.6-11.2 48.9-10.1 11.5 1.6 22.5 7.4 28.6 19.6-6.5-13.2-15.5-21.9-28-21.9-9.3 0-20.8 1.3-46.9 7.6-13 3.1-36.8 4.7-60.6 4.7-24.1 0-48.3-1.5-61.4-4.7-26.2-6.2-37.7-8.7-46.9-7.6-11.5 1.6-19.9 10.1-26.1 22.3z" fill="#181515"/><g id="g60"><path id="XMLID_350_" d="m286.3 277.2c0 13.2-15.2 15.5-15.2 15.5h-92.5-92.5c-2.7 0-15.2-2.2-15.2-15.5 0-13.2 15.2-15.5 15.2-15.5h92.5 92.5s15.2 2.3 15.2 15.5z" fill="#3f4040"/><path id="XMLID_349_" d="m274 289.1h-190.6c-4.8 0-8.8-3.9-8.8-8.8v-6.1c0-4.8 3.9-8.8 8.8-8.8h190.6c4.8 0 8.8 3.9 8.8 8.8v6.1c0 4.9-3.9 8.8-8.8 8.8z" fill="#333"/><path id="bouton_8_" d="m269.7 285.4h-31.4c-4.5 0-8.2-3.7-8.2-8.2s3.7-8.2 8.2-8.2h31.4c4.5 0 8.2 3.7 8.2 8.2s-3.7 8.2-8.2 8.2z" fill="#212020"/><path id="bouton_7_" d="m270.1 282.2h-32.2c-2.5 0-4.6-2.1-4.6-4.6v-0.9c0-2.5 2.1-4.6 4.6-4.6h32.2c2.5 0 4.6 2.1 4.6 4.6v0.9c-0.1 2.6-2.1 4.6-4.6 4.6z" fill="#6177b3"/><circle id="circle66" cx="240.1" cy="277.3" r="1" fill="#45537c"/><circle id="circle68" cx="247" cy="277.3" r="1" fill="#45537c"/><circle id="circle70" cx="253.9" cy="277.3" r="1" fill="#45537c"/><circle id="circle72" cx="260.8" cy="277.3" r="1" fill="#45537c"/><circle id="circle74" cx="267.7" cy="277.3" r="1" fill="#45537c"/><path id="bouton_13_" d="m119 285.4h-31.4c-4.5 0-8.2-3.7-8.2-8.2s3.7-8.2 8.2-8.2h31.4c4.5 0 8.2 3.7 8.2 8.2s-3.7 8.2-8.2 8.2z" fill="#212020"/><path id="bouton_10_" d="m119.4 282.2h-32.3c-2.5 0-4.6-2.1-4.6-4.6v-0.9c0-2.5 2.1-4.6 4.6-4.6h32.2c2.5 0 4.6 2.1 4.6 4.6v0.9c0 2.6-2 4.6-4.5 4.6z" fill="#cbcfd8"/><path id="path78" d="m106.1 272.2c-2 0-3.5 2.2-3.5 5s1.6 5 3.5 5h-11.4c2 0 3.5-2.2 3.5-5s-1.6-5-3.5-5h11.4z" fill="#7d8189"/><rect id="rect80" x="99.8" y="272.2" width="1.1" height="10" fill="#6b6d72"/><path id="path82" d="m94.7 272.2h-8c-2 0-3.5 2.2-3.5 5s1.6 5 3.5 5h8c2 0 3.5-2.2 3.5-5s-1.6-5-3.5-5z" fill="#929397"/><path id="path84" d="m114.1 272.2h-8c-2 0-3.5 2.2-3.5 5s1.6 5 3.5 5h8c2 0 3.5-2.2 3.5-5s-1.6-5-3.5-5z" fill="#929397"/></g><g id="g86"><path id="XMLID_747_" d="m322.2 1.9v12s-0.1 1.5-2.1 1.5h-141.6-141.5c-2 0-2.1-1.5-2.1-1.5v-12l143.7 0.1 143.6-0.1z" fill="#444546"/><g id="XMLID_139_" fill="#282424"><rect id="XMLID_211_" x="36.1" width="2.6" height="13.7"/><rect id="XMLID_210_" x="40.1" width="2.6" height="13.7"/><rect id="XMLID_209_" x="44.1" width="2.6" height="13.7"/><rect id="XMLID_208_" x="48.1" width="2.6" height="13.7"/><rect id="XMLID_207_" x="52.1" width="2.6" height="13.7"/><rect id="XMLID_206_" x="56.1" width="2.6" height="13.7"/><rect id="XMLID_205_" x="60.2" width="2.6" height="13.7"/><rect id="XMLID_204_" x="64.2" width="2.6" height="13.7"/><rect id="XMLID_203_" x="68.3" width="2.6" height="13.7"/><rect id="XMLID_202_" x="72.3" width="2.6" height="13.7"/><rect id="XMLID_201_" x="76.4" width="2.6" height="13.7"/><rect id="XMLID_200_" x="80.4" width="2.6" height="13.7"/><rect id="XMLID_199_" x="84.3" width="2.6" height="13.7"/><rect id="XMLID_198_" x="88.3" width="2.6" height="13.7"/><rect id="XMLID_197_" x="92.4" width="2.6" height="13.7"/><rect id="XMLID_196_" x="96.4" width="2.6" height="13.7"/><rect id="XMLID_195_" x="100.5" width="2.6" height="13.7"/><rect id="XMLID_194_" x="104.5" width="2.6" height="13.7"/><rect id="XMLID_193_" x="108.5" width="2.6" height="13.7"/><rect id="XMLID_192_" x="112.5" width="2.6" height="13.7"/><rect id="XMLID_191_" x="116.5" width="2.6" height="13.7"/><rect id="XMLID_190_" x="120.5" width="2.6" height="13.7"/><rect id="XMLID_189_" x="124.6" width="2.6" height="13.7"/><rect id="XMLID_188_" x="128.6" width="2.6" height="13.7"/><rect id="XMLID_187_" x="132.6" width="2.6" height="13.7"/><rect id="XMLID_186_" x="136.6" width="2.6" height="13.7"/><rect id="XMLID_185_" x="140.7" width="2.6" height="13.7"/><rect id="XMLID_184_" x="144.7" width="2.6" height="13.7"/><rect id="XMLID_183_" x="148.6" width="2.6" height="13.7"/><rect id="XMLID_182_" x="152.7" width="2.6" height="13.7"/><rect id="XMLID_181_" x="156.7" width="2.6" height="13.7"/><rect id="XMLID_180_" x="160.7" width="2.6" height="13.7"/><rect id="XMLID_179_" x="165" width="2.6" height="13.7"/><rect id="XMLID_178_" x="169.1" width="2.6" height="13.7"/><rect id="XMLID_177_" x="173.1" width="2.6" height="13.7"/><rect id="XMLID_176_" x="177" width="2.6" height="13.7"/><rect id="XMLID_175_" x="181" width="2.6" height="13.7"/><rect id="XMLID_174_" x="185.1" width="2.6" height="13.7"/><rect id="XMLID_173_" x="189.1" width="2.6" height="13.7"/><rect id="XMLID_172_" x="193.2" width="2.6" height="13.7"/><rect id="XMLID_171_" x="197.2" width="2.6" height="13.7"/><rect id="XMLID_170_" x="201.3" width="2.6" height="13.7"/><rect id="XMLID_169_" x="205.3" width="2.6" height="13.7"/><rect id="XMLID_168_" x="209.2" width="2.6" height="13.7"/><rect id="XMLID_167_" x="213.2" width="2.6" height="13.7"/><rect id="XMLID_166_" x="217.3" width="2.6" height="13.7"/><rect id="XMLID_165_" x="221.3" width="2.6" height="13.7"/><rect id="XMLID_164_" x="225.7" width="2.6" height="13.7"/><rect id="XMLID_163_" x="229.8" width="2.6" height="13.7"/><rect id="XMLID_162_" x="233.8" width="2.6" height="13.7"/><rect id="XMLID_161_" x="237.7" width="2.6" height="13.7"/><rect id="XMLID_160_" x="241.7" width="2.6" height="13.7"/><rect id="XMLID_159_" x="245.8" width="2.6" height="13.7"/><rect id="XMLID_158_" x="249.8" width="2.6" height="13.7"/><rect id="XMLID_157_" x="253.9" width="2.6" height="13.7"/><rect id="XMLID_156_" x="257.9" width="2.6" height="13.7"/><rect id="XMLID_155_" x="262" width="2.6" height="13.7"/><rect id="XMLID_154_" x="266" width="2.6" height="13.7"/><rect id="XMLID_153_" x="269.9" width="2.6" height="13.7"/><rect id="XMLID_152_" x="273.9" width="2.6" height="13.7"/><rect id="XMLID_151_" x="278" width="2.6" height="13.7"/><rect id="XMLID_150_" x="282" width="2.6" height="13.7"/><rect id="XMLID_149_" x="286.2" width="2.6" height="13.7"/><rect id="XMLID_148_" x="290.3" width="2.6" height="13.7"/><rect id="XMLID_146_" x="294.3" width="2.6" height="13.7"/><rect id="XMLID_145_" x="298.2" width="2.6" height="13.7"/><rect id="XMLID_144_" x="302.2" width="2.6" height="13.7"/><rect id="XMLID_143_" x="306.3" width="2.6" height="13.7"/><rect id="XMLID_142_" x="310.3" width="2.6" height="13.7"/><rect id="XMLID_141_" x="314.4" width="2.6" height="13.7"/><rect id="XMLID_140_" x="318.4" width="2.6" height="13.7"/></g></g><g id="g161" fill="#82888b"><path id="path163" d="m248.4 299.2h-0.7l-0.4-1c0-0.1-0.1-0.1-0.1-0.2s-0.1-0.1-0.1-0.2c-0.1 0-0.1-0.1-0.2-0.1h-0.2-0.7v1.5h-0.7v-3.7h1.7 0.3 0.3c0.1 0 0.2 0 0.2 0.1 0.1 0 0.1 0.1 0.2 0.1l0.2 0.2c0.1 0.1 0.1 0.1 0.1 0.2s0.1 0.1 0.1 0.2v0.2c0 0.2-0.1 0.4-0.2 0.6s-0.3 0.3-0.5 0.4c0.2 0.1 0.3 0.3 0.4 0.6l0.3 1.1zm-2.5-2.1h0.9 0.3c0.1 0 0.2 0 0.2-0.1 0.1 0 0.1-0.1 0.1-0.2v-0.2c0-0.2-0.1-0.3-0.2-0.4s-0.3-0.1-0.5-0.1h-1v1z"/><path id="path165" d="m251.9 299.2h-2.9v-3.7h2.8v0.6h-2.1v0.8h1.9v0.6h-1.9v1h2.1v0.7z"/><path id="path167" d="m254 299.3c-0.3 0-0.5 0-0.7-0.1s-0.4-0.2-0.5-0.3-0.2-0.3-0.3-0.4c-0.1-0.2-0.1-0.4-0.1-0.6h0.7c0 0.1 0 0.2 0.1 0.3s0.1 0.2 0.2 0.2c0.1 0.1 0.2 0.1 0.3 0.1h0.3 0.3c0.1 0 0.2-0.1 0.2-0.1 0.1 0 0.1-0.1 0.2-0.2 0-0.1 0.1-0.1 0.1-0.2s0-0.1-0.1-0.2c0-0.1-0.1-0.1-0.2-0.1s-0.2-0.1-0.3-0.1-0.3-0.1-0.5-0.1-0.4-0.1-0.5-0.2-0.3-0.1-0.4-0.2-0.2-0.2-0.2-0.3-0.1-0.2-0.1-0.4 0-0.3 0.1-0.4l0.3-0.3c0.1-0.1 0.3-0.2 0.4-0.2 0.2-0.1 0.4-0.1 0.6-0.1s0.4 0 0.6 0.1 0.3 0.1 0.5 0.2 0.2 0.2 0.3 0.4 0.1 0.3 0.1 0.5h-0.7c0-0.4-0.3-0.6-0.8-0.6-0.2 0-0.4 0-0.5 0.1s-0.2 0.2-0.2 0.3v0.1l0.1 0.1s0.1 0.1 0.2 0.1 0.2 0.1 0.3 0.1 0.2 0 0.3 0.1c0.1 0 0.2 0.1 0.3 0.1s0.2 0.1 0.3 0.1c0.1 0.1 0.2 0.1 0.3 0.2s0.1 0.2 0.2 0.3c0 0.1 0.1 0.2 0.1 0.4s0 0.3-0.1 0.5-0.2 0.3-0.3 0.4-0.3 0.2-0.4 0.2c-0.1 0.2-0.3 0.2-0.5 0.2z"/><path id="path169" d="m259 299.2h-2.8v-3.7h2.8v0.6h-2.1v0.8h1.9v0.6h-1.9v1h2.1v0.7z"/><path id="path171" d="m262.4 296.2h-1.2v3.1h-0.7v-3.1h-1.1v-0.6h3v0.6z"/></g><g id="g173" fill="#82888b"><path id="path175" d="m91.9 295.3h1.5 0.4c0.1 0 0.3 0 0.4 0.1 0.1 0 0.2 0.1 0.3 0.1 0.1 0.1 0.2 0.1 0.2 0.2 0.1 0.1 0.1 0.2 0.2 0.3 0 0.1 0.1 0.3 0.1 0.4 0 0.4-0.1 0.7-0.4 0.9s-0.6 0.3-1.1 0.3h-0.8v1.5h-0.7v-3.8zm0.7 1.8h0.8 0.3l0.2-0.1c0.1 0 0.1-0.1 0.1-0.2v-0.2c0-0.1 0-0.2-0.1-0.3 0-0.1-0.1-0.1-0.2-0.2-0.1 0-0.2-0.1-0.2-0.1h-0.3-0.8v1.1z"/><path id="path177" d="m97.4 295.2c0.3 0 0.5 0 0.8 0.1s0.4 0.2 0.6 0.4 0.3 0.4 0.4 0.6c0.1 0.3 0.1 0.5 0.1 0.8s0 0.6-0.1 0.8c-0.1 0.3-0.2 0.5-0.4 0.6-0.2 0.2-0.4 0.3-0.6 0.4s-0.5 0.1-0.8 0.1-0.5 0-0.8-0.1c-0.2-0.1-0.4-0.2-0.6-0.4s-0.3-0.4-0.4-0.6c-0.1-0.3-0.1-0.5-0.1-0.8s0-0.6 0.1-0.8c0.1-0.3 0.2-0.5 0.4-0.6 0.2-0.2 0.4-0.3 0.6-0.4 0.3 0 0.6-0.1 0.8-0.1zm0 3.5c0.2 0 0.3 0 0.5-0.1 0.1-0.1 0.3-0.2 0.4-0.3s0.2-0.3 0.2-0.4c0.1-0.2 0.1-0.4 0.1-0.6s0-0.4-0.1-0.6-0.1-0.3-0.2-0.4-0.2-0.2-0.4-0.3c-0.1-0.1-0.3-0.1-0.5-0.1s-0.3 0-0.5 0.1c-0.1 0.1-0.3 0.2-0.4 0.3s-0.2 0.3-0.2 0.4c-0.1 0.2-0.1 0.4-0.1 0.6s0 0.4 0.1 0.6 0.1 0.3 0.2 0.4 0.2 0.2 0.4 0.3c0.2 0 0.4 0.1 0.5 0.1z"/><path id="path179" d="m104.9 295.3-1.1 4h-0.7l-0.8-2.9-0.8 2.9h-0.7l-1.1-4h0.8l0.7 2.7 0.7-2.7h0.8l0.7 2.7 0.7-2.7h0.8z"/><path id="path181" d="m108.5 299.3h-3v-4h2.9v0.7h-2.2v0.9h2.1v0.7h-2.1v1h2.3v0.7z"/><path id="path183" d="m112.7 299.3h-0.8l-0.4-1.1c0-0.1-0.1-0.1-0.1-0.2s-0.1-0.1-0.2-0.2c-0.1 0-0.1-0.1-0.2-0.1h-0.2-0.8v1.6h-0.7v-4h1.8 0.3 0.3c0.1 0 0.2 0 0.3 0.1 0.1 0 0.2 0.1 0.2 0.1l0.2 0.2c0 0.1 0.1 0.1 0.1 0.2s0.1 0.2 0.1 0.2v0.2c0 0.2-0.1 0.4-0.2 0.6s-0.3 0.3-0.5 0.4c0.2 0.1 0.3 0.3 0.4 0.6l0.4 1.4zm-2.7-2.3h1 0.3c0.1 0 0.2 0 0.2-0.1 0.1 0 0.1-0.1 0.1-0.2v-0.2c0-0.2-0.1-0.3-0.2-0.4s-0.3-0.1-0.5-0.1h-0.9v1z"/></g><g id="g185" fill="#929397"><path id="XMLID_333_" d="m77.2 319v-1.9c1.9-0.5 3.2-1.1 3.8-1.9h1.9v7.8 1.7h-2.5v-1.7-5.4c-1.4 0.7-2.5 1.1-3.2 1.4z"/><rect id="XMLID_322_" x="105" y="315.3" width="2.6" height="9.4"/><polygon id="XMLID_319_" points="111.1 317.1 108.3 317.1 108.3 315.3 116.5 315.3 116.5 317.1 113.7 317.1 113.7 324.7 111.1 324.7"/><path id="path190" d="m95.2 316.3c0-0.6 0.5-1 1-1h4.2c0.9 0 1.6 0.1 2.1 0.3s0.9 0.5 1.2 0.8c0.3 0.4 0.5 0.8 0.5 1.3 0 1-0.7 1.7-2 2.1 0.8 0.1 1.4 0.4 1.7 0.9 0.4 0.4 0.6 0.9 0.6 1.4 0 0.7-0.3 1.3-1 1.8-0.6 0.5-1.7 0.8-3.1 0.8h-4.2c-0.6 0-1-0.5-1-1v-7.4zm2.6 1.4c0 0.2 0.5 0.4 1 0.4h1c0.7 0 1.2 0 1.4-0.1s0.3-0.2 0.3-0.2c0-0.1-0.1-0.2-0.2-0.2-0.2-0.1-0.3-0.1-0.5-0.1h-1.1-0.8c-0.7-0.2-1.1 0-1.1 0.2zm0.6 3.7h0.4 1c0.7 0 1.2 0 1.5-0.1s0.4-0.2 0.4-0.3-0.1-0.2-0.4-0.3-0.7-0.1-1.4-0.1h-1.1c-0.6 0-1 0.2-1 0.4v3.6h0.6v-3.2z"/><path id="path192" d="m87.1 317.7h6.6v-2.6h-7.6c-1.1 0-2 0.9-2 2v5.7c0 1.1 0.9 2 2 2h5.6c1.1 0 2-0.9 2-2v-2.3c0-1-0.8-1.8-1.8-2.1h-4.2v2.2h3.1v0.8h-3.8v-3.7z"/></g><g id="g194"><path id="text8337_4_" d="m226.1 323 4.3-6.5c0.2-0.4 0.4-0.6 0.6-0.6h3.1v0.9l0.2-0.3c0.2-0.4 0.4-0.6 0.6-0.6h3.7v7h-2.5v-5.5l-3.7 5.5h-2.4l3.7-5.5h-1.2c-0.1 0-0.3 0.1-0.4 0.2l-3.5 5.4h-2.5zm15.7-2.8v1.3h5.7v1.5h-8.2v-4.6c0-0.1 0-0.2 0.1-0.4l1.1-1.8c0.1-0.1 0.2-0.2 0.4-0.2h6.5v1.5h-4.9c-0.1 0-0.2 0.1-0.3 0.2l-0.5 1.1h5.7l-0.8 1.5h-4.8zm9 1.3h4.1v-1.3h-1.6l0.8-1.5h3.3v3.9c0 0.2-0.1 0.4-0.4 0.4h-8.2c-0.3 0-0.4-0.1-0.4-0.4v-4.2c0-0.1 0-0.2 0.1-0.4l1.1-1.8c0.1-0.1 0.2-0.2 0.4-0.2h6.9v1.5h-5.3c-0.1 0-0.2 0.1-0.3 0.2l-0.5 1.1v2.7zm17.6 1.5h-2.9l-1.1-1.5h-3l-0.8-1.3v2.8h-2.5v-7h4.7c0.2 0 0.4 0.2 0.6 0.6l5 6.4zm-5.1-3-1.8-2.4c-0.1-0.1-0.3-0.2-0.4-0.2h-0.4v2.6h2.6z" fill="#929397"/><g id="g197" fill="#929397"><path id="path199" d="m302.9 314.1h-10.2c2.2-1.2 5.4-2.9 6.8-4.7 2.7-3.4-1.7-5.8-5.3-4.6-5 1.7-7.1 4.1-10 6.6h-5.9c4.2-8.1 9.5-12.4 17.5-14.6 8.6-2.3 12.6 3.3 11 9.9-0.8 3.5-1.2 4.1-3.9 7.4z"/><path id="path201" d="m289.4 327.3c0-0.3 0.2-0.6 0.4-1 0.2-0.5 0.6-0.8 0.7-1h-10.2c-0.8 1.4-1.5 2.1-2 4.7-0.5 2.8 1.1 4.1 2 4.1h24.6l3.6-6.9h-19.1z"/></g><path id="text8339_2_" d="m272.4 321.7h2.6c0.1 0 0.2-0.1 0.3-0.2l0.8-1.7v-0.2-0.2l-0.8-1.7c-0.1-0.1-0.2-0.2-0.3-0.2h-2.6v4.2zm-2.2-5.7h6.3c0.2 0 0.3 0.1 0.5 0.4l1.5 3v0.2 0.2l-1.5 3c-0.1 0.3-0.3 0.4-0.5 0.4h-6.3v-7.2zm9 0h6c0.2 0 0.3 0.1 0.5 0.4l1 2.1v0.2 0.2l-1.5 1.7 1.5 2.6h-2.3l-2.2-3.6h1.1c0.1 0 0.2 0 0.3-0.1l0.8-0.9-0.4-0.9c-0.1-0.1-0.2-0.2-0.3-0.2h-2.4v5.7h-2.3v-7.2h0.2zm10.6 7.2h-2.3v-7.2h2.3v7.2zm3-4.8 2.3 3.3 2.3-3.3v-2.4h2.3v2.6c0 0.3 0 0.4-0.1 0.6l-2.5 4h-3.8l-2.5-4c-0.1-0.1-0.1-0.3-0.1-0.6v-2.6h2.3v2.4h-0.2zm9.8 2v1.3h5.3v1.5h-7.5v-4.7c0-0.1 0-0.3 0.1-0.4l1-1.9c0.1-0.1 0.2-0.2 0.4-0.2h6v1.5h-4.5c-0.1 0-0.2 0.1-0.3 0.2l-0.5 1.1h5.3l-0.8 1.5h-4.5v0.1z" fill="#8c8e92"/></g><g id="g204" fill="#929397"><path id="path206" d="m78.4 297.3c0-0.4 0.1-0.8 0.2-1.1 0.1-0.2 0.2-0.4 0.4-0.6s0.4-0.3 0.6-0.4c0.3-0.1 0.6-0.2 0.9-0.2 0.6 0 1.1 0.2 1.5 0.6s0.6 0.9 0.6 1.6-0.2 1.2-0.6 1.6-0.9 0.6-1.5 0.6-1.1-0.2-1.5-0.6c-0.4-0.3-0.6-0.8-0.6-1.5zm0.9 0c0 0.5 0.1 0.9 0.3 1.1 0.2 0.3 0.5 0.4 0.9 0.4s0.6-0.1 0.9-0.4c0.2-0.3 0.3-0.6 0.3-1.1s-0.1-0.9-0.3-1.1-0.5-0.4-0.9-0.4-0.6 0.1-0.9 0.4c-0.2 0.2-0.3 0.6-0.3 1.1z"/><path id="path208" d="m83.3 299.4v-4.3h0.8l1.8 2.9v-2.9h0.8v4.3h-0.9l-1.7-2.8v2.8h-0.8z"/></g><g id="g210" fill="#929397"><path id="path212" d="m118.1 297.3c0-0.4 0.1-0.8 0.2-1.1 0.1-0.2 0.2-0.4 0.4-0.6s0.4-0.3 0.6-0.4c0.3-0.1 0.6-0.2 0.9-0.2 0.6 0 1.1 0.2 1.5 0.6s0.6 0.9 0.6 1.6-0.2 1.2-0.6 1.6-0.9 0.6-1.5 0.6-1.1-0.2-1.5-0.6c-0.4-0.3-0.6-0.8-0.6-1.5zm0.9 0c0 0.5 0.1 0.9 0.3 1.1 0.2 0.3 0.5 0.4 0.9 0.4s0.6-0.1 0.9-0.4c0.2-0.3 0.3-0.6 0.3-1.1s-0.1-0.9-0.3-1.1-0.5-0.4-0.9-0.4-0.6 0.1-0.9 0.4c-0.2 0.2-0.3 0.6-0.3 1.1z"/><path id="path214" d="m123 299.4v-4.3h2.9v0.7h-2.1v1h1.8v0.7h-1.8v1.8h-0.8z"/><path id="path216" d="m126.7 299.4v-4.3h2.9v0.7h-2.1v1h1.8v0.7h-1.8v1.8h-0.8z"/></g><g id="g218"><path id="path220" d="m85.4 301.8h-5.3c-2.2 0-4.1-1.8-4.1-4.1v-1c0-2.2 1.8-4.1 4.1-4.1h5.3c2.2 0 4.1 1.8 4.1 4.1v1c-0.1 2.3-1.9 4.1-4.1 4.1zm-5.3-8.1c-1.7 0-3.1 1.4-3.1 3.1v1c0 1.7 1.4 3.1 3.1 3.1h5.3c1.7 0 3.1-1.4 3.1-3.1v-1c0-1.7-1.4-3.1-3.1-3.1h-5.3z" fill="#929397"/></g><g id="g222"><path id="path224" d="m127.6 301.8h-7.6c-2.2 0-4.1-1.8-4.1-4.1v-1c0-2.2 1.8-4.1 4.1-4.1h7.6c2.2 0 4.1 1.8 4.1 4.1v1c0 2.3-1.8 4.1-4.1 4.1zm-7.5-8.1c-1.7 0-3.1 1.4-3.1 3.1v1c0 1.7 1.4 3.1 3.1 3.1h7.6c1.7 0 3.1-1.4 3.1-3.1v-1c0-1.7-1.4-3.1-3.1-3.1h-7.6z" fill="#929397"/></g></g><g id="g226"><path id="path228" d="m364.5 309.1v-294.9c0-7.8 5.5-14.2 12.1-14.2h17v1.9h223.8v-1.9h17.9c6.6 0 12.1 6.4 12.1 14.2v202.8c0 69.3-48.2 126-107 126h-118.2c-18 0-35.4-9.5-46.7-22.1" fill="#3f3f3f"/><path id="path230" d="m540.3 291h-118.7c-9.5 0-19 1.5-28.1 4.4l-29 13.7v-297.1c0-6.6 5.4-12 12.1-12h17v1.9l223.8 0.4v-2.3h17.9c6.6 0 12.1 5.4 12.1 12v172.1c-0.1 58.8-48.2 106.9-107.1 106.9z" fill="#312f2f"/><g id="g232"><path id="path234" d="m526.4 277.4h-85.2c-31.6 0-57.4-25.7-57.4-57.3v-153.5c0-14.5 11.8-26.3 26.3-26.3h196.8c14.5 0 26.3 11.8 26.3 26.3v104.1c0 58.9-47.9 106.7-106.8 106.7zm-116.3-236.1c-14 0-25.3 11.3-25.3 25.3v153.5c0 31.1 25.3 56.3 56.4 56.3h85.2c58.3 0 105.8-47.4 105.8-105.7v-104.1c0-13.9-11.4-25.3-25.3-25.3h-196.8z" fill="#181515"/></g><rect id="rect236" x="384.3" y="94.8" width="248.4" height="1.8" fill="#181515"/><g id="g238" fill="#929397"><path id="path240" d="m520.5 162.1v0.2c0 0.2 0 0.3-0.7 0.3s-0.6-0.1-0.7-0.3v-0.7-0.7c0-0.2 0-0.3 0.7-0.3s0.6 0.1 0.7 0.3v0.2h0.9v-0.5c-0.1-0.5 0.1-0.9-1.5-0.9-1.7 0-1.5 0.4-1.5 0.9v0.9 0.9c0.1 0.5-0.1 0.9 1.5 0.9 1.7 0 1.5-0.4 1.5-0.9v-0.4h-0.9v0.1z"/><polygon id="polygon242" points="507.8 163.4 507.8 160.9 508.7 163.4 509.5 163.4 510.4 160.9 510.4 163.4 511.3 163.4 511.3 160 510 160 509.1 162.5 508.2 160 506.9 160 506.9 163.4"/><polygon id="polygon244" points="522.4 163.4 522.4 160.9 521.6 160.9 521.6 160 524.1 160 524.1 160.9 523.3 160.9 523.3 163.4"/><polygon id="polygon246" points="517.1 162.7 516 162.7 516.2 162.1 517 162.1 516.6 160.8 515.8 163.4 514.9 163.4 515.9 160 517.2 160 518.2 163.4 517.3 163.4"/><path id="path248" d="m504.8 160.7c0.7 0 0.6 0.1 0.7 0.3v0.7 0.7c0 0.2 0 0.3-0.7 0.3s-0.6-0.1-0.7-0.3v-0.7-0.7c0.1-0.2 0.1-0.3 0.7-0.3v-0.8c-1.7 0-1.5 0.4-1.5 0.9v0.9 0.9c0.1 0.5-0.1 0.9 1.5 0.9 1.7 0 1.5-0.4 1.5-0.9v-0.9-0.9c-0.1-0.5 0.1-0.9-1.5-0.9v0.8z"/><path id="path250" d="m501.9 162.1v0.2c0 0.2 0 0.3-0.7 0.3s-0.6-0.1-0.7-0.3v-0.7-0.7c0-0.2 0-0.3 0.7-0.3s0.6 0.1 0.7 0.3v0.2h0.9v-0.5c-0.1-0.5 0.1-0.9-1.5-0.9-1.7 0-1.5 0.4-1.5 0.9v0.9 0.9c0.1 0.5-0.1 0.9 1.5 0.9 1.7 0 1.5-0.4 1.5-0.9v-0.4h-0.9z"/><path id="path252" d="m513.4 162.6h-0.5v-0.8h0.5c0.7 0 0.6-0.1 0.7-0.3v-0.2-0.2c0-0.2 0-0.3-0.7-0.3h-0.5v2.6h-0.9v-3.4h1.4c1.7 0 1.5 0.4 1.5 0.9v0.4 0.4c0 0.5 0.1 0.9-1.5 0.9z"/><path id="path254" d="m496.5 176.2h-5.4c-0.8 0-1.4-0.6-1.4-1.4v-8.3c0-0.8 0.6-1.4 1.4-1.4h3.4c0.4 0 0.7-0.3 0.7-0.7v-3.3c0-0.2 0.1-0.3 0.3-0.3h2c0.2 0 0.3 0.1 0.3 0.3v14.9c0 0.2-0.1 0.3-0.3 0.3l-1-0.1v0.7h1.4c0.4 0 0.7-0.3 0.7-0.7v-15.5c0-0.4-0.3-0.7-0.7-0.7h-2.6c-0.4 0-0.7 0.3-0.7 0.7v3.3c0 0.2-0.1 0.3-0.3 0.3h-3.1c-1.2 0-2.2 1-2.2 2.2v8.3c0 1.2 1 2.2 2.2 2.2h5.4l-0.1-0.8z"/><path id="path256" d="m494.4 173.2v-5.4c0-0.4-0.4-0.8-0.8-0.8s-0.8 0.4-0.8 0.8v5.8c0 0.4 0.4 0.8 0.8 0.8s0.8-0.4 0.8-0.8v-0.4h0.7v0.4c0 0.9-0.7 1.6-1.6 1.6s-1.6-0.7-1.6-1.6v-5.8c0-0.9 0.7-1.6 1.6-1.6s1.6 0.7 1.6 1.6v5.4h-0.7z"/><path id="path258" d="m501.6 176.2h-1c-0.2 0-0.3-0.1-0.3-0.3v-10.5c0-0.2 0.1-0.3 0.3-0.3h2c0.2 0 0.3 0.1 0.3 0.3v10.5c0 0.2-0.1 0.3-0.3 0.3h-1v0.7h1.3c0.4 0 0.7-0.3 0.7-0.7v-11.1c0-0.4-0.3-0.7-0.7-0.7h-2.6c-0.4 0-0.7 0.3-0.7 0.7v11.1c0 0.4 0.3 0.7 0.7 0.7h1.3v-0.7z"/><path id="path260" d="m511.1 167.2h-2.2c-0.7 0-1.2 0.5-1.2 1.2s0.5 1.2 1.2 1.2h3c0.8 0 1.4 0.6 1.4 1.4v3.7c0 0.8-0.6 1.4-1.4 1.4h-6c-0.2 0-0.3-0.1-0.3-0.3v-1.4c0-0.2 0.1-0.3 0.3-0.3h4.1c0.7 0 1.2-0.5 1.2-1.2s-0.5-1.2-1.2-1.2h-2.9c-0.8 0-1.4-0.6-1.4-1.4v-3.7c0-0.8 0.6-1.4 1.4-1.4h5.5c0.2 0 0.3 0.1 0.3 0.3v1.5c0 0.2-0.1 0.3-0.3 0.3l-1.5-0.1v0.7h1.8c0.4 0 0.7-0.3 0.7-0.7v-2.1c0-0.4-0.3-0.7-0.7-0.7h-5.8c-1.2 0-2.2 1-2.2 2.2v3.7c0 1.2 1 2.2 2.2 2.2h2.9c0.3 0 0.5 0.2 0.5 0.5s-0.2 0.5-0.5 0.5h-4.4c-0.4 0-0.7 0.3-0.7 0.7v2.1c0 0.4 0.3 0.7 0.7 0.7h6.3c1.2 0 2.2-1 2.2-2.2v-3.7c0-1.2-1-2.2-2.2-2.2h-3c-0.3 0-0.5-0.2-0.5-0.5s0.2-0.5 0.5-0.5h2.2v-0.7z"/><path id="path262" d="m522.1 169.2h0.9c0.2 0 0.3-0.1 0.3-0.3v-2.4c0-0.8-0.6-1.4-1.4-1.4h-4.7c-0.8 0-1.4 0.6-1.4 1.4v8.3c0 0.8 0.6 1.4 1.4 1.4h4.7c0.8 0 1.4-0.6 1.4-1.4v-2.3c0-0.2-0.1-0.3-0.3-0.3h-1.8c-0.2 0-0.3 0.1-0.3 0.3v1.1c0 0.9-0.5 1.6-1.4 1.6s-1.4-0.7-1.4-1.6v-5.8c0-0.9 0.5-1.6 1.4-1.6s1.4 0.7 1.4 1.6v1.1c0 0.2 0.1 0.3 0.3 0.3h0.9v0.7h-1.1c-0.4 0-0.7-0.3-0.7-0.7v-1.4c0-0.4-0.2-0.8-0.7-0.8s-0.7 0.4-0.7 0.8v5.8c0 0.4 0.2 0.8 0.7 0.8s0.7-0.4 0.7-0.8v-1.4c0-0.4 0.3-0.7 0.7-0.7h2.4c0.4 0 0.7 0.3 0.7 0.7v2.6c0 1.2-1 2.2-2.2 2.2h-4.7c-1.2 0-2.2-1-2.2-2.2v-8.3c0-1.2 1-2.2 2.2-2.2h4.7c1.2 0 2.2 1 2.2 2.2v2.7c0 0.4-0.3 0.7-0.7 0.7h-1.3v-0.7z"/></g><path id="path264" d="m543.1 186c-34.3 32.7-52.8 60.1-39.9 73.7 13 13.6 54 9.2 88.3-23.5s42.3-73.6 29.3-87.1-43.4 4.2-77.7 36.9z" fill="#181515"/><path id="path266" d="m549.5 194.4c-20.3 19.4-29.9 42.4-21.2 51.5s32.1 0.6 52.5-18.7c20.3-19.4 29.9-42.4 21.2-51.5s-32.1-0.7-52.5 18.7z" fill="#2c2929"/><circle id="circle268" cx="549.6" cy="225.3" r="2.9" fill="#181515"/><circle id="circle270" cx="558.5" cy="216.2" r="2.9" fill="#181515"/><circle id="circle272" cx="567.4" cy="207.1" r="2.9" fill="#181515"/><circle id="circle274" cx="576.3" cy="198.4" r="2.9" fill="#181515"/><g id="g276" fill="#241c1e"><path id="path278" d="m446.3 325h-1l-0.5-1.9h-1.8l-0.5 1.9h-1l1.9-6.7h0.9l2 6.7zm-1.9-3-0.6-2.1-0.6 2.1h1.2z"/><path id="path280" d="m450 320.6c0-0.2 0-0.4-0.1-0.5-0.1-0.2-0.1-0.3-0.2-0.4l-0.3-0.3c-0.1-0.1-0.3-0.1-0.4-0.1-0.2 0-0.4 0.1-0.6 0.2s-0.3 0.3-0.4 0.4c-0.1 0.2-0.2 0.4-0.3 0.7s-0.1 0.6-0.1 1 0 0.7 0.1 1 0.2 0.5 0.3 0.7 0.3 0.3 0.4 0.5c0.2 0.1 0.4 0.2 0.6 0.2s0.3 0 0.4-0.1 0.2-0.1 0.3-0.3c0.1-0.1 0.2-0.3 0.2-0.4 0.1-0.2 0.1-0.4 0.1-0.6h0.9c0 0.4-0.1 0.8-0.2 1.1s-0.3 0.6-0.4 0.8c-0.2 0.2-0.4 0.4-0.6 0.5s-0.5 0.2-0.8 0.2c-0.4 0-0.7-0.1-1-0.2-0.3-0.2-0.5-0.4-0.7-0.7s-0.4-0.7-0.5-1.1-0.2-0.9-0.2-1.4 0.1-1 0.2-1.4 0.3-0.8 0.5-1.1 0.4-0.5 0.7-0.7 0.6-0.2 0.9-0.2 0.5 0.1 0.7 0.2 0.4 0.3 0.6 0.5 0.3 0.5 0.4 0.8 0.2 0.6 0.2 1h-0.7z"/><path id="path282" d="m455.1 320.6c0-0.2 0-0.4-0.1-0.5-0.1-0.2-0.1-0.3-0.2-0.4l-0.3-0.3c-0.1-0.1-0.3-0.1-0.4-0.1-0.2 0-0.4 0.1-0.6 0.2s-0.3 0.3-0.4 0.4c-0.1 0.2-0.2 0.4-0.3 0.7s-0.1 0.6-0.1 1 0 0.7 0.1 1 0.2 0.5 0.3 0.7 0.3 0.3 0.4 0.5c0.2 0.1 0.4 0.2 0.6 0.2s0.3 0 0.4-0.1 0.2-0.1 0.3-0.3c0.1-0.1 0.2-0.3 0.2-0.4 0.1-0.2 0.1-0.4 0.1-0.6h0.9c0 0.4-0.1 0.8-0.2 1.1s-0.3 0.6-0.4 0.8c-0.2 0.2-0.4 0.4-0.6 0.5s-0.5 0.2-0.8 0.2c-0.4 0-0.7-0.1-1-0.2-0.3-0.2-0.5-0.4-0.7-0.7s-0.4-0.7-0.5-1.1-0.2-0.9-0.2-1.4 0.1-1 0.2-1.4 0.3-0.8 0.5-1.1 0.4-0.5 0.7-0.7 0.6-0.2 0.9-0.2 0.5 0.1 0.7 0.2 0.4 0.3 0.6 0.5 0.3 0.5 0.4 0.8 0.2 0.6 0.2 1h-0.7z"/><path id="path284" d="m460.7 325h-3.7v-6.7h3.6v1.2h-2.7v1.5h2.5v1.1h-2.5v1.7h2.8v1.2z"/><path id="path286" d="m463.6 325.1c-0.4 0-0.7-0.1-0.9-0.2-0.3-0.1-0.5-0.3-0.7-0.5s-0.3-0.5-0.4-0.8-0.1-0.7-0.2-1h0.9c0 0.2 0.1 0.4 0.1 0.6 0.1 0.2 0.2 0.3 0.3 0.4s0.2 0.2 0.4 0.3c0.1 0.1 0.3 0.1 0.4 0.1s0.3 0 0.4-0.1c0.1 0 0.2-0.1 0.3-0.2s0.2-0.2 0.2-0.3 0.1-0.2 0.1-0.4c0-0.1 0-0.3-0.1-0.4 0-0.1-0.1-0.2-0.2-0.3s-0.2-0.1-0.4-0.2-0.4-0.1-0.6-0.2c-0.3-0.1-0.5-0.2-0.7-0.3s-0.4-0.2-0.5-0.4-0.2-0.3-0.3-0.5-0.1-0.4-0.1-0.7 0-0.5 0.1-0.8c0.1-0.2 0.2-0.4 0.4-0.6s0.3-0.3 0.6-0.4c0.2-0.1 0.5-0.1 0.7-0.1 0.3 0 0.5 0.1 0.8 0.2 0.2 0.1 0.4 0.3 0.6 0.4 0.2 0.2 0.3 0.4 0.4 0.7s0.1 0.6 0.2 1h-0.9c-0.1-0.8-0.4-1.1-1-1.1-0.3 0-0.5 0.1-0.7 0.2s-0.2 0.3-0.2 0.6c0 0.1 0 0.2 0.1 0.3 0 0.1 0.1 0.1 0.2 0.2s0.2 0.1 0.3 0.2c0.1 0 0.3 0.1 0.4 0.1s0.3 0.1 0.5 0.1 0.3 0.1 0.5 0.2c0.1 0.1 0.3 0.2 0.4 0.3s0.2 0.2 0.3 0.4 0.2 0.3 0.2 0.5c0.1 0.2 0.1 0.4 0.1 0.7s0 0.6-0.1 0.8c-0.1 0.3-0.2 0.5-0.4 0.7s-0.4 0.3-0.6 0.4c-0.4 0-0.7 0.1-0.9 0.1z"/><path id="path288" d="m468.3 325.1c-0.4 0-0.7-0.1-0.9-0.2-0.3-0.1-0.5-0.3-0.7-0.5s-0.3-0.5-0.4-0.8-0.1-0.7-0.2-1h0.9c0 0.2 0.1 0.4 0.1 0.6 0.1 0.2 0.2 0.3 0.3 0.4s0.2 0.2 0.4 0.3c0.1 0.1 0.3 0.1 0.4 0.1s0.3 0 0.4-0.1c0.1 0 0.2-0.1 0.3-0.2s0.2-0.2 0.2-0.3 0.1-0.2 0.1-0.4c0-0.1 0-0.3-0.1-0.4 0-0.1-0.1-0.2-0.2-0.3s-0.2-0.1-0.4-0.2-0.4-0.1-0.6-0.2c-0.3-0.1-0.5-0.2-0.7-0.3s-0.4-0.2-0.5-0.4-0.2-0.3-0.3-0.5-0.1-0.4-0.1-0.7 0-0.5 0.1-0.8c0.1-0.2 0.2-0.4 0.4-0.6s0.3-0.3 0.6-0.4c0.2-0.1 0.5-0.1 0.7-0.1 0.3 0 0.5 0.1 0.8 0.2 0.2 0.1 0.4 0.3 0.6 0.4 0.2 0.2 0.3 0.4 0.4 0.7s0.1 0.6 0.2 1h-0.9c-0.1-0.8-0.4-1.1-1-1.1-0.3 0-0.5 0.1-0.7 0.2s-0.2 0.3-0.2 0.6c0 0.1 0 0.2 0.1 0.3 0 0.1 0.1 0.1 0.2 0.2s0.2 0.1 0.3 0.2c0.1 0 0.3 0.1 0.4 0.1s0.3 0.1 0.5 0.1 0.3 0.1 0.5 0.2c0.1 0.1 0.3 0.2 0.4 0.3s0.2 0.2 0.3 0.4c0.1 0.1 0.2 0.3 0.2 0.5 0.1 0.2 0.1 0.4 0.1 0.7s0 0.6-0.1 0.8-0.2 0.5-0.4 0.7-0.4 0.3-0.6 0.4c-0.4 0-0.6 0.1-0.9 0.1z"/></g><path id="voyant_2_" d="m422.7 323v-3.2c0-0.3 0.3-0.6 0.6-0.6h12.2c0.3 0 0.6 0.3 0.6 0.6v3.2c0 0.3-0.3 0.6-0.6 0.6h-12.2c-0.3 0-0.6-0.2-0.6-0.6z" fill="#631418"/><path id="voyant_1_" d="m424 322.2v-1.6c0-0.3 0.3-0.6 0.6-0.6h9.7c0.3 0 0.6 0.3 0.6 0.6v1.6c0 0.3-0.3 0.6-0.6 0.6h-9.7c-0.3 0-0.6-0.2-0.6-0.6z" fill="#f95d5d"/><path id="path292" d="m620.1 270.6c-2.9-2.9-2.9-7.7 0-10.6l9.2-8.9c2.9-2.9 5.2-0.7 8.1 2.2s2 7 0 10.6l-6.5 12c-3 2.9-7.9-2.4-10.8-5.3z" fill="#181515"/><path id="path294" d="m614.4 286.7c0.5-0.5 0.7-1.1 0.4-1.4l-7.3-7.2 1.6-1.6 8 8c0.7 0.7 0.1 2.4-1.2 3.8l2.3 2.3-5.9-0.1-0.1-5.9 2.2 2.1" fill="#241c1e"/><g id="g296" fill="#241c1e"><path id="path298" d="m617.5 274.1c0.2 0.2 0.4 0.5 0.4 0.7 0.1 0.3 0.1 0.6 0 0.9s-0.2 0.6-0.4 1c-0.2 0.3-0.5 0.7-0.8 1s-0.6 0.6-1 0.8c-0.3 0.2-0.7 0.3-1 0.4s-0.6 0.1-0.9 0-0.5-0.2-0.8-0.4c-0.2-0.2-0.4-0.5-0.4-0.8s-0.1-0.6 0-0.9 0.2-0.6 0.4-1c0.2-0.3 0.5-0.7 0.8-1s0.7-0.6 1-0.8 0.7-0.3 1-0.4 0.6 0 0.9 0c0.3 0.2 0.6 0.3 0.8 0.5zm-3.7 3.7c0.1 0.1 0.3 0.2 0.5 0.3s0.4 0 0.6 0 0.4-0.1 0.6-0.3 0.5-0.3 0.7-0.6c0.2-0.2 0.4-0.5 0.6-0.7l0.3-0.6v-0.6c0-0.2-0.1-0.3-0.3-0.5-0.1-0.1-0.3-0.2-0.5-0.3h-0.6c-0.2 0-0.4 0.1-0.6 0.3-0.2 0.1-0.5 0.3-0.7 0.5s-0.4 0.5-0.6 0.7-0.2 0.4-0.3 0.6c0 0.2-0.1 0.4 0 0.6 0.1 0.3 0.2 0.4 0.3 0.6z"/><path id="path300" d="m619.5 276.3 1.5 1.5c0.1 0.1 0.2 0.2 0.2 0.4 0 0.1 0.1 0.3 0.1 0.4v0.4c0 0.2-0.1 0.3-0.2 0.5s-0.2 0.3-0.4 0.5c-0.4 0.4-0.9 0.7-1.3 0.7s-0.8-0.2-1.2-0.5l-0.6-0.6-1.6 1.6-0.6-0.6 4.1-4.3zm-1.3 2.5 0.6 0.6c0.1 0.1 0.2 0.2 0.3 0.2s0.2 0.1 0.3 0.1 0.2 0 0.3-0.1 0.2-0.1 0.3-0.2 0.2-0.2 0.2-0.3 0.1-0.2 0-0.3 0-0.2-0.1-0.3-0.1-0.2-0.2-0.2l-0.6-0.6-1.1 1.1z"/><path id="path302" d="m620.6 285.8-2.3-2.3 4.2-4.2 2.3 2.3-0.7 0.7-1.7-1.7-0.9 0.9 1.6 1.6-0.7 0.7-1.6-1.6-1.1 1.1 1.8 1.8-0.9 0.7z"/><path id="path304" d="m623.6 288.8-0.5-0.5 1.4-4.2-2.8 2.8-0.6-0.6 4.2-4.2 0.5 0.5-1.5 4.2 2.8-2.8 0.6 0.6-4.1 4.2z"/></g><path id="path306" d="m638.2 254.1-1.3-1.4c-0.6-0.5-1.2-0.9-2-0.9-1 0-1.9 0.4-2.4 1.1l-11.9 15.3c-0.8 1-0.6 2.4 0.4 3.2l2.3 2.2c1 0.8 2.5 0.2 3.3-0.7l11.9-15.3c0.8-1 0.4-2.5-0.3-3.5z" fill="#6177b3"/><g id="g308"><path id="XMLID_74_" d="m617.3 1.9v12s-0.1 1.5-1.6 1.5h-110.3-110.3c-1.6 0-1.6-1.5-1.6-1.5v-12l111.9 0.1 111.9-0.1z" fill="#444546"/><g id="XMLID_1_" fill="#282424"><rect id="XMLID_73_" x="394.7" width="2.7" height="13.7"/><rect id="XMLID_72_" x="398.8" width="2.7" height="13.7"/><rect id="XMLID_71_" x="402.9" width="2.7" height="13.7"/><rect id="XMLID_70_" x="406.9" width="2.7" height="13.7"/><rect id="XMLID_69_" x="410.8" width="2.7" height="13.7"/><rect id="XMLID_68_" x="414.9" width="2.7" height="13.7"/><rect id="XMLID_67_" x="418.9" width="2.7" height="13.7"/><rect id="XMLID_66_" x="423" width="2.7" height="13.7"/><rect id="XMLID_65_" x="427.1" width="2.7" height="13.7"/><rect id="XMLID_64_" x="431.1" width="2.7" height="13.7"/><rect id="XMLID_63_" x="435.2" width="2.7" height="13.7"/><rect id="XMLID_62_" x="439.2" width="2.7" height="13.7"/><rect id="XMLID_61_" x="443.2" width="2.7" height="13.7"/><rect id="XMLID_60_" x="447.2" width="2.7" height="13.7"/><rect id="XMLID_59_" x="451.3" width="2.7" height="13.7"/><rect id="XMLID_58_" x="455.3" width="2.7" height="13.7"/><rect id="XMLID_57_" x="459.4" width="2.7" height="13.7"/><rect id="XMLID_56_" x="463.4" width="2.7" height="13.7"/><rect id="XMLID_55_" x="467.5" width="2.7" height="13.7"/><rect id="XMLID_54_" x="471.5" width="2.7" height="13.7"/><rect id="XMLID_53_" x="475.5" width="2.7" height="13.7"/><rect id="XMLID_52_" x="479.5" width="2.7" height="13.7"/><rect id="XMLID_51_" x="483.6" width="2.7" height="13.7"/><rect id="XMLID_50_" x="487.6" width="2.7" height="13.7"/><rect id="XMLID_49_" x="491.7" width="2.7" height="13.7"/><rect id="XMLID_48_" x="495.7" width="2.7" height="13.7"/><rect id="XMLID_47_" x="499.8" width="2.7" height="13.7"/><rect id="XMLID_46_" x="503.9" width="2.7" height="13.7"/><rect id="XMLID_45_" x="507.8" width="2.7" height="13.7"/><rect id="XMLID_44_" x="511.8" width="2.7" height="13.7"/><rect id="XMLID_43_" x="515.9" width="2.7" height="13.7"/><rect id="XMLID_42_" x="519.9" width="2.7" height="13.7"/><rect id="XMLID_41_" x="524.2" width="2.7" height="13.7"/><rect id="XMLID_40_" x="528.3" width="2.7" height="13.7"/><rect id="XMLID_39_" x="532.4" width="2.7" height="13.7"/><rect id="XMLID_38_" x="536.3" width="2.7" height="13.7"/><rect id="XMLID_37_" x="540.3" width="2.7" height="13.7"/><rect id="XMLID_36_" x="544.4" width="2.7" height="13.7"/><rect id="XMLID_35_" x="548.4" width="2.7" height="13.7"/><rect id="XMLID_34_" x="552.5" width="2.7" height="13.7"/><rect id="XMLID_33_" x="556.6" width="2.7" height="13.7"/><rect id="XMLID_32_" x="560.6" width="2.7" height="13.7"/><rect id="XMLID_31_" x="564.7" width="2.7" height="13.7"/><rect id="XMLID_30_" x="568.6" width="2.7" height="13.7"/><rect id="XMLID_29_" x="572.6" width="2.7" height="13.7"/><rect id="XMLID_28_" x="576.7" width="2.7" height="13.7"/><rect id="XMLID_27_" x="580.8" width="2.7" height="13.7"/><rect id="XMLID_26_" x="585.2" width="2.7" height="13.7"/><rect id="XMLID_25_" x="589.3" width="2.7" height="13.7"/><rect id="XMLID_24_" x="593.3" width="2.7" height="13.7"/><rect id="XMLID_23_" x="597.3" width="2.7" height="13.7"/><rect id="XMLID_22_" x="601.3" width="2.7" height="13.7"/><rect id="XMLID_21_" x="605.4" width="2.7" height="13.7"/><rect id="XMLID_20_" x="609.4" width="2.7" height="13.7"/><rect id="XMLID_19_" x="613.5" width="2.7" height="13.7"/></g></g><g id="g367" fill="#929397"><g id="g369"><path id="text8337_3_" d="m397.3 172.2 4.3-6.5c0.2-0.4 0.4-0.6 0.6-0.6h3.1v0.9l0.2-0.3c0.2-0.4 0.4-0.6 0.6-0.6h3.7v7h-2.5v-5.5l-3.7 5.5h-2.5l3.7-5.5h-1.2c-0.1 0-0.3 0.1-0.4 0.2l-3.5 5.4h-2.4zm15.8-2.8v1.3h5.7v1.5h-8.2v-4.6c0-0.1 0-0.2 0.1-0.4l1.1-1.8c0.1-0.1 0.2-0.2 0.4-0.2h6.5v1.5h-4.9c-0.1 0-0.2 0.1-0.3 0.2l-0.5 1.1h5.7l-0.8 1.5h-4.8zm8.9 1.3h4.1v-1.3h-1.6l0.8-1.5h3.3v3.9c0 0.2-0.1 0.4-0.4 0.4h-8.2c-0.3 0-0.4-0.1-0.4-0.4v-4.2c0-0.1 0-0.2 0.1-0.4l1.1-1.8c0.1-0.1 0.2-0.2 0.4-0.2h6.9v1.5h-5.3c-0.1 0-0.2 0.1-0.3 0.2l-0.5 1.1v2.7zm17.6 1.5h-2.9l-1.1-1.5h-3l-0.8-1.3v2.8h-2.5v-7h4.7c0.2 0 0.4 0.2 0.6 0.6l5 6.4zm-5.1-3-1.8-2.4c-0.1-0.1-0.3-0.2-0.4-0.2h-0.4v2.6h2.6z"/><polygon id="polygon372" points="444.9 168.7 446.4 166.4 452.1 166.4 452.1 165.2 444.8 165.2 442.6 168.7 444.8 172.2 452.1 172.2 452.1 171 446.4 171"/><rect id="rect374" x="439.3" y="167.9" width="2" height="1.7"/><path id="path376" d="m462.7 168.7-2.4 3.7h-6.9v-7.2h6.9l2.4 3.5zm-2.4 0-1.6-2.3h-3.2v4.9h3.2l1.6-2.6z"/></g><g id="g378"><path id="path380" d="m453.1 163.3h-10.2c2.2-1.2 5.4-2.9 6.8-4.7 2.7-3.4-1.7-5.8-5.3-4.6-5 1.7-7.1 4.1-10 6.6h-5.9c4.2-8.1 9.5-12.4 17.5-14.6 8.6-2.3 12.6 3.3 11 9.9-0.8 3.5-1.2 4.1-3.9 7.4z"/><path id="path382" d="m439.6 176.4c0-0.3 0.2-0.6 0.4-1 0.2-0.5 0.6-0.8 0.7-1h-10.2c-0.8 1.4-1.5 2.1-2 4.7-0.5 2.8 1.1 4.1 2 4.1h24.5l3.6-6.9h-19z"/></g></g><g id="SEGA_4_" fill="#929397"><path id="XMLID_332_" d="m620.7 116.5h-6.3v-1.5h4.3c-0.3-0.9-0.6-1.7-0.8-2.5-0.6-1.9-1.2-3.9-1.9-5.8-0.2-0.5-0.6-1-1-1.1-0.7-0.2-0.9 0.6-1.1 1.1-1 3-1.9 5.9-2.9 8.9-0.2 0.7-0.5 0.9-1.2 0.9-1.9-0.1-3.9 0-5.8 0-2 0-3.2-1.3-3.3-3.3v-5.5c0-2.1 1.3-3.3 3.3-3.3h5.3v1.5h-4.5c-2.1 0-2.6 0.5-2.6 2.7v4.1c0 1.5 0.7 2.2 2.1 2.2h3.4v-4.8h-2.9v-1.5h4.5v6.3h0.2c0.9-2.9 1.9-5.8 2.8-8.7 0.5-1.7 1.5-2.3 3.1-2.1 0.9 0.1 1.5 0.7 1.8 1.5 1.2 3.5 2.3 7 3.4 10.5 0.2 0.3 0.1 0.3 0.1 0.4z"/><path id="XMLID_331_" d="m581.3 116.6v-1.5h5c1.4 0 2.4-1 2.5-2.3 0-1.3-1-2.4-2.3-2.5h-1.7c-0.8-0.1-1.5-0.9-1.5-1.8s0.6-1.8 1.5-1.8c1.8-0.1 3.6 0 5.4 0v1.5h-2.7-2.6v0.5c0.5 0 1 0.1 1.5 0.1 1.9 0 3.3 1.2 3.7 3 0.6 2.3-1.1 4.7-3.3 4.8h-5.5z"/><path id="XMLID_330_" d="m581.3 114.4v-1.6h5.3v-0.4c-0.5 0-1.1-0.1-1.6-0.1-1.5 0-2.6-0.8-3.3-2.2s-0.6-2.9 0.3-4.2c0.6-0.9 1.5-1.5 2.5-1.5 1.9-0.1 3.7 0 5.7 0v1.5h-5c-1.7 0-2.7 1.6-2.2 3.2 0.3 0.9 1.2 1.6 2.3 1.6h1.6c0.8 0.1 1.5 0.9 1.5 1.8s-0.6 1.8-1.4 1.8c-2 0.2-3.8 0.1-5.7 0.1z"/><path id="XMLID_329_" d="m600 104.5v1.5h-4.9c-1.7 0-2.3 0.6-2.3 2.4v4.3c0 1.7 0.7 2.3 2.2 2.3h5v1.5h-3.6-2.3c-1.4-0.1-2.7-1.4-2.7-2.9-0.1-2.1 0-4.2 0-6.3 0-1.4 1.2-2.7 2.5-2.8 1.9-0.1 3.9 0 6.1 0z"/><path id="XMLID_324_" d="m611.3 116.5c1.1-3.3 2.1-6.5 3.2-9.7 0.1-0.2 0.3-0.5 0.5-0.5 0.1 0 0.4 0.2 0.5 0.4 0.9 2.6 1.7 5.2 2.6 7.8h-3.6c0-0.4-0.1-0.7-0.1-1.1-0.1 0-0.1 0-0.2-0.1l-0.6 1.8c-0.6 1.6-0.6 1.6-2.3 1.4zm3-3.8h1.3c-0.2-0.6-0.4-1.1-0.5-1.6h-0.2c-0.2 0.5-0.4 1-0.6 1.6z"/><path id="XMLID_323_" d="m605.9 112.5c-0.5-0.1-0.7-0.2-1.1-0.3v-1.4h2.3v3.6c-1.2 0-2.4 0.1-3.6 0-0.3 0-0.8-0.6-0.8-1-0.1-1.9-0.1-3.8 0-5.8 0-0.7 0.4-1.1 1.1-1.1h5.4v1.5h-4c-0.8 0-1.1 0.3-1.1 1.1 0.1 0.9 0 1.8 0 2.7 0.2 1.2 0.7 1.4 1.8 0.7z"/><path id="XMLID_321_" d="m594.8 112.8c1.6 0.3 3.4 0 5.1 0.2v1.5h-5.8c-0.3 0-0.8-0.6-0.8-1-0.1-0.8 0-1.6 0-2.5h5.4v1.4h-3.8c0 0.1 0 0.2-0.1 0.4z"/><path id="XMLID_318_" d="m600 106.6v1.4c-1.7 0.2-3.4-0.2-5.1 0.2v0.4h3.8v1.5h-5.4c0-0.9-0.1-1.8 0-2.7 0-0.3 0.5-0.8 0.8-0.8h5.9z"/></g><circle id="XMLID_335_" cx="602.5" cy="69.1" r="6.8" fill="#181515"/><circle id="XMLID_334_" cx="407.8" cy="69.1" r="6.8" fill="#181515"/><g id="g395" fill="#181515"><path id="path397" d="m451.1 66.4c-0.1-0.5-0.2-0.9-0.5-1.2-0.3-0.4-0.7-0.7-1.2-0.9-0.5-0.3-1.1-0.5-1.8-0.6s-1.4-0.2-2.2-0.2c-1.1 0-2.1 0.1-2.9 0.3-0.9 0.2-1.6 0.6-2.2 1-0.6 0.5-1.1 1-1.4 1.7s-0.5 1.4-0.5 2.3 0.2 1.6 0.5 2.3 0.8 1.2 1.4 1.7 1.3 0.8 2.2 1 1.8 0.4 2.9 0.4c0.8 0 1.5-0.1 2.2-0.2s1.3-0.3 1.8-0.6 0.9-0.6 1.2-1 0.5-0.9 0.6-1.4h4.8c-0.1 0.9-0.5 1.7-1.1 2.4s-1.3 1.3-2.2 1.8-2 0.9-3.2 1.1c-1.2 0.3-2.5 0.4-4 0.4-1.8 0-3.5-0.2-4.9-0.6-1.5-0.4-2.7-0.9-3.7-1.6s-1.8-1.5-2.4-2.5-0.8-2.1-0.8-3.3 0.3-2.3 0.8-3.3c0.6-1 1.4-1.8 2.4-2.5s2.3-1.2 3.7-1.6c1.5-0.4 3.1-0.6 4.9-0.6 1.4 0 2.6 0.1 3.9 0.4s2.3 0.6 3.2 1.1 1.7 1.1 2.3 1.8 1 1.4 1.1 2.3h-4.9z"/><path id="path399" d="m482 68.8c0 5.2-4.3 7.8-12.9 7.8h-8.3v-15.5h8.3c8.6 0 12.9 2.6 12.9 7.7zm-4.8 0c0-0.8-0.1-1.5-0.4-2.1s-0.7-1.1-1.3-1.6-1.5-0.8-2.5-1-2.4-0.3-3.9-0.3h-3.6v10.1h3.6c1.6 0 2.9-0.1 3.9-0.3s1.9-0.6 2.5-1 1.1-1 1.3-1.6c0.3-0.7 0.4-1.4 0.4-2.2z"/><path id="path401" d="m495 72.3h-10.2v-2.7h10.2v2.7z"/><path id="path403" d="m520.4 76.5h-5.1l-2.4-4.2c-0.2-0.3-0.4-0.6-0.7-0.8s-0.6-0.5-1-0.6c-0.4-0.2-0.8-0.3-1.3-0.4s-1-0.2-1.5-0.2h-5v6.2h-4.7v-15.4h11.3 1.9c0.6 0 1.2 0.1 1.8 0.1 0.6 0.1 1.1 0.2 1.6 0.3s1 0.3 1.5 0.6c0.4 0.2 0.8 0.5 1.1 0.7 0.3 0.3 0.6 0.5 0.8 0.8s0.4 0.6 0.5 0.9 0.2 0.6 0.2 1c0 0.9-0.4 1.7-1.1 2.4s-1.8 1.2-3.1 1.5c1.1 0.5 1.9 1.3 2.6 2.4l2.6 4.7zm-16.9-8.8h6.3c0.8 0 1.6 0 2.2-0.1s1.1-0.2 1.5-0.3 0.7-0.4 0.8-0.6c0.2-0.3 0.3-0.6 0.3-1 0-0.7-0.3-1.2-1-1.5s-1.8-0.5-3.2-0.5h-6.7v4z"/><path id="path405" d="m536 60.9c1.8 0 3.4 0.2 4.9 0.6s2.8 0.9 3.8 1.6c1.1 0.7 1.9 1.5 2.5 2.5s0.9 2.1 0.9 3.2c0 1.2-0.3 2.2-0.9 3.2s-1.4 1.8-2.5 2.5-2.4 1.2-3.8 1.6-3.1 0.6-4.9 0.6-3.4-0.2-4.9-0.6-2.8-0.9-3.8-1.6-1.9-1.5-2.5-2.5-0.9-2.1-0.9-3.2c0-1.2 0.3-2.3 0.9-3.3s1.4-1.8 2.5-2.5 2.4-1.2 3.8-1.6 3.1-0.5 4.9-0.5zm0 13.3c1.1 0 2.1-0.1 3-0.4 0.9-0.2 1.7-0.6 2.3-1.1s1.2-1 1.5-1.7c0.4-0.7 0.5-1.4 0.5-2.3s-0.2-1.6-0.5-2.3c-0.4-0.7-0.9-1.2-1.5-1.7s-1.4-0.8-2.3-1-1.9-0.4-2.9-0.4c-1.1 0-2 0.1-2.9 0.4-0.9 0.2-1.7 0.6-2.3 1.1-0.7 0.5-1.2 1-1.5 1.7s-0.5 1.4-0.5 2.3c0 0.8 0.2 1.6 0.5 2.3s0.9 1.2 1.5 1.7 1.4 0.8 2.3 1.1c0.7 0.2 1.7 0.3 2.8 0.3z"/><path id="path407" d="m577 76.5h-4.6v-9.8l-5.4 9.8h-4l-5.4-9.8v9.8h-4.5v-15.4h6.1l5.8 11 5.9-11h6.1v15.4z"/></g></g></g><g id="g3742" transform="matrix(1.2693 0 0 1.2693 620.05 96.946)"><path id="path3744" d="m166.9 84.7c0 45.4-36.8 82.2-82.2 82.2s-82.2-36.8-82.2-82.2 36.8-82.2 82.2-82.2 82.2 36.8 82.2 82.2zm-68.1-30c-4.3-2-9.1-3.2-14.1-3.2-18.3 0-33.1 14.8-33.1 33.1s14.8 33.1 33.1 33.1 33.1-14.8 33.1-33.1c0-13.1-7.8-24.5-19-29.9" fill="#5b98d0"/><g id="g3746"><path id="path3748" d="m84.7 169.4c-46.7 0-84.7-38-84.7-84.7s38-84.7 84.7-84.7 84.7 38 84.7 84.7-38 84.7-84.7 84.7zm0-169.3c-46.6 0-84.6 38-84.6 84.6s37.9 84.5 84.5 84.5 84.5-37.9 84.5-84.5c0.1-46.6-37.8-84.6-84.4-84.6z" fill="#0f1317"/></g><path id="path3750" d="m156.1 125.5c-14.2 24.7-40.8 41.4-71.4 41.4s-57.2-16.7-71.4-41.4h142.8" fill="#0f1317"/><g id="g3752"><path id="path3754" d="m84.7 117.8c-18.3 0-33.1-14.8-33.1-33.1s14.8-33.1 33.1-33.1 33.1 14.8 33.1 33.1-14.9 33.1-33.1 33.1zm0-65.2c-17.7 0-32.1 14.4-32.1 32.1s14.4 32.1 32.1 32.1 32.1-14.4 32.1-32.1-14.4-32.1-32.1-32.1z"/></g><g id="g3756"><path id="path3758" d="m84.7 99.4c-8.1 0-14.7-6.6-14.7-14.7s6.6-14.7 14.7-14.7 14.7 6.6 14.7 14.7-6.6 14.7-14.7 14.7zm0-28.4c-7.6 0-13.7 6.1-13.7 13.7 0 7.5 6.1 13.7 13.7 13.7 7.5 0 13.7-6.1 13.7-13.7s-6.2-13.7-13.7-13.7z" fill="#a299a1"/></g><g id="g3760"><path id="path3762" d="m84.7 96.5c-6.5 0-11.8-5.3-11.8-11.8s5.3-11.8 11.8-11.8 11.8 5.3 11.8 11.8-5.3 11.8-11.8 11.8zm0-22.7c-6 0-10.8 4.9-10.8 10.8 0 6 4.9 10.8 10.8 10.8 6 0 10.8-4.9 10.8-10.8s-4.8-10.8-10.8-10.8z" fill="#a299a1"/></g><g id="g3764"><path id="path3766" d="m117.3 84.7c0 18-14.6 32.6-32.6 32.6s-32.6-14.6-32.6-32.6 14.6-32.6 32.6-32.6 32.6 14.6 32.6 32.6zm-32.6-28.4c-15.7 0-28.4 12.7-28.4 28.4s12.7 28.3 28.4 28.3 28.3-12.7 28.3-28.3-12.7-28.4-28.3-28.4z" fill="#96b0c1"/></g><path id="path3768" d="m66.6 112.4" fill="none" stroke="#7ac143" stroke-miterlimit="10"/><path id="path3770" d="m84.7 117.8" fill="none" stroke="#7ac143" stroke-miterlimit="10"/><path id="path3772" d="m98.8 54.7" fill="none" stroke="#7ac143" stroke-miterlimit="10"/><path id="path3774" d="m84.7 51.6" fill="none" stroke="#7ac143" stroke-miterlimit="10"/><path id="path3776" d="m51.6 84.7" fill="none" stroke="#7ac143" stroke-miterlimit="10"/><path id="path3778" d="m51.9 89.2" fill="none" stroke="#7ac143" stroke-miterlimit="10"/><g id="g3780"><g id="g3782" fill="#929397"><path id="text8337_3_-2" d="m52 136.4 4.3-6.5c0.2-0.4 0.4-0.6 0.6-0.6h3.1v0.9l0.2-0.3c0.2-0.4 0.4-0.6 0.6-0.6h3.7v7h-2.5v-5.5l-3.7 5.5h-2.5l3.7-5.5h-1.2c-0.1 0-0.3 0.1-0.4 0.2l-3.5 5.4h-2.4zm15.7-2.8v1.3h5.7v1.5h-8.2v-4.6c0-0.1 0-0.2 0.1-0.4l1.1-1.8c0.1-0.1 0.2-0.2 0.4-0.2h6.5v1.5h-4.9c-0.1 0-0.2 0.1-0.3 0.2l-0.5 1.1h5.7l-0.8 1.5h-4.8zm9 1.3h4.1v-1.3h-1.6l0.8-1.5h3.3v3.9c0 0.2-0.1 0.4-0.4 0.4h-8.2c-0.3 0-0.4-0.1-0.4-0.4v-4.2c0-0.1 0-0.2 0.1-0.4l1.1-1.8c0.1-0.1 0.2-0.2 0.4-0.2h6.9v1.5h-5.3c-0.1 0-0.2 0.1-0.3 0.2l-0.5 1.1v2.7zm17.6 1.5h-2.9l-1.1-1.5h-3l-0.8-1.3v2.8h-2.5v-7h4.7c0.2 0 0.4 0.2 0.6 0.6l5 6.4zm-5.1-2.9-1.8-2.4c-0.1-0.1-0.3-0.2-0.4-0.2h-0.4v2.6h2.6z"/><polygon id="polygon3785" points="97.2 132.9 99.5 136.4 106.8 136.4 106.8 135.2 101 135.2 99.6 132.9 101 130.6 106.8 130.6 106.8 129.4 99.5 129.4"/><rect id="rect3787" x="93.9" y="132.2" width="2" height="1.7"/><path id="path3789" d="m117.4 132.9-2.4 3.7h-6.9v-7.2h6.9l2.4 3.5zm-2.4 0-1.6-2.3h-3.2v4.9h3.2l1.6-2.6z"/></g></g><g id="g3791"><rect id="rect3793" x="27.2" y="129.6" width="19" height="10.7" fill="#929397"/><rect id="rect3795" x="27.5" y="129.9" width="18.4" height="10.1" fill="#010101"/><g id="g3797"><g id="g3799" fill="#ed2224"><polygon id="polygon3801" points="28.4 138.6 33.4 138.6 33.4 131.1"/><polygon id="polygon3803" points="32.6 138.6 37.5 138.6 37.5 131.1"/></g><g id="g3805" fill="#11aa4b"><rect id="rect3807" x="38.6" y="131.3" width="2.4" height="7.4"/><path id="path3809" d="m42 131.4-0.5 2.5h-0.1v-2.5c0.2-0.1 0.4-0.1 0.6 0"/><path id="path3811" d="m41.7 133.9 0.7-2.4c0.2 0.1 0.4 0.1 0.6 0.2l-1.1 2.3c-0.1-0.1-0.2-0.1-0.2-0.1"/><path id="path3813" d="m42.1 134.1 1.7-1.9c-0.1-0.1-0.3-0.2-0.5-0.3l-1.3 2.1 0.1 0.1"/><path id="path3815" d="m42.3 134.3 2.1-1.3c-0.1-0.2-0.3-0.4-0.4-0.5l-1.8 1.7 0.1 0.1"/><path id="path3817" d="m42.4 134.5 2.4-0.6-0.3-0.6-2.1 1.2v0"/><path id="path3819" d="m45 134.9h-2.5c0-0.1 0-0.2-0.1-0.2l2.5-0.4c0.1 0.2 0.1 0.4 0.1 0.6"/><path id="path3821" d="m42.5 135.1c0 0.6-0.5 1.1-1.1 1.1v2.5c2 0 3.6-1.6 3.6-3.6h-2.5"/></g></g></g><g id="g3823"><rect id="rect3825" x="123.1" y="129.5" width="19" height="10.7" fill="#929397"/><g id="g3827"><rect id="rect3829" x="123.4" y="129.8" width="18.4" height="10.1" fill="#010101"/><path id="path3831" d="m132.5 137.6 2.5-2.5v-0.1l-2.6 1.9 2.6-2.7-2.6 2 2.5-2.6-2.5 2 2.4-2.7c-0.9-0.7-2.9-0.1-4.7 1.5-1.9 1.7-2.7 3.7-1.9 4.6s2.9 0.3 4.8-1.4c0.5-0.5 0.9-0.9 1.3-1.4l-1.8 1.4z" fill="#5b98d0"/><path id="path3833" d="m131.4 135.4h-0.9v2.2h0.9v-0.6h0.8v1.3h-2.1c-0.2 0-0.4-0.2-0.4-0.4v-2.8c0-0.3 0.1-0.4 0.4-0.4h2.1v1.5h-0.8v-0.8z" fill="#020202"/><path id="path3835" d="m137 132.1-2.5 2.5v0.1l2.6-1.9-2.6 2.7 2.6-2-2.5 2.6 2.5-2-2.4 2.7c0.9 0.7 2.9 0.1 4.7-1.5 1.9-1.7 2.7-3.7 1.9-4.6s-2.9-0.3-4.8 1.4c-0.5 0.5-0.9 0.9-1.3 1.4l1.8-1.4z" fill="#deae2c"/><g id="g3837"><path id="path3839" d="m139.8 134.6c0 0.2-0.2 0.4-0.4 0.4h-2.1v-3.6h2.1c0.2 0 0.4 0.2 0.4 0.4v2.8zm-1.7-0.3h0.9v-2.2h-0.9v2.2z" fill="#020202"/></g><g id="g3841"><path id="path3843" d="m125.1 130.5c0.1-0.1 0.2-0.2 0.3-0.2h0.8v0.3c0.1-0.1 0.2-0.3 0.4-0.3h1v2.1h-0.7v-1.5c-0.1 0-0.2 0.1-0.3 0.2-0.3 0.4-0.5 0.8-0.8 1.3h-0.7c0.3-0.5 0.6-1 0.9-1.5-0.2 0-0.4 0-0.5 0.1-0.3 0.5-0.6 0.9-0.9 1.4h-0.8c0.5-0.6 0.9-1.2 1.3-1.9z" fill="#fff"/><path id="path3845" d="m127.9 130.6c0.1-0.1 0.3-0.3 0.5-0.3h1.6v0.5h-1.2l-0.3 0.3h1.5c-0.1 0.1-0.2 0.3-0.3 0.4h-1.2v0.4h1.4v0.4h-2.2v-1.3c0-0.1 0.1-0.3 0.2-0.4z" fill="#fff"/><path id="path3847" d="m130.3 130.5c0.1-0.1 0.2-0.2 0.4-0.2h1.7v0.5h-1.1c-0.3 0-0.4 0.3-0.4 0.5 0 0.3-0.1 0.3 0 0.7h1v-0.3h-0.5c0.1-0.1 0.2-0.3 0.2-0.4h0.9v1c0 0.1 0 0.1-0.1 0.2h-2c-0.2 0-0.3-0.2-0.3-0.3v-1.1c0-0.3 0.1-0.4 0.2-0.6z" fill="#fff"/><g id="g3849"><path id="path3851" d="m132.7 130.3h1.1c0.2 0 0.4 0.2 0.5 0.3 0.4 0.6 0.7 1.2 1.1 1.8h-0.8c-0.1-0.1-0.2-0.3-0.3-0.4h-0.7c-0.1-0.1-0.1-0.2-0.2-0.3v0.7h-0.7v-2.1zm0.7 0.5v0.8h0.6c-0.1-0.2-0.2-0.4-0.4-0.6 0-0.2-0.1-0.2-0.2-0.2z" fill="#fff"/></g></g></g></g><g id="SEGA_2_"><path id="path3854" d="m90.6 162.2h-1.5-2.4c-1.6 0-2.6-1.1-2.7-2.7v-3.7c0-1.6 1.1-2.7 2.7-2.7h1.4 2.7v1.9h-3.5c-1.1 0-1.3 0.1-1.3 1.4v2.8c0 0.9 0.4 1 1 1.1h1.9v-2.4h-1.9v-1.9h3.9v2.4l1.2-3.7c0.4-1.2 1.1-1.8 2.1-1.8h0.5c0.8 0.1 1.4 0.6 1.6 1.3 0.6 1.8 1.2 3.7 1.8 5.5l0.6 1.8v0.2l-0.1 0.3-0.4 0.1h-4.7v-1.9h2.8l-0.8-2.2c-0.3-0.9-0.6-1.9-0.9-2.8-0.1-0.2-0.3-0.5-0.4-0.5s-0.2 0.3-0.2 0.5l-0.6 2c-0.4 1.4-0.9 2.7-1.3 4.1-0.4 0.6-0.8 0.9-1.5 0.9z" fill="#929397"/><path id="XMLID_20_-3" d="m98.1 161.7h-4.3v-1h2.9c-0.2-0.6-0.4-1.2-0.6-1.7-0.4-1.3-0.8-2.6-1.3-3.9-0.1-0.3-0.4-0.7-0.7-0.8-0.5-0.1-0.6 0.4-0.8 0.8-0.6 2-1.3 4-1.9 6-0.1 0.5-0.4 0.6-0.8 0.6h-3.9c-1.3 0-2.2-0.9-2.2-2.3v-3.7c0-1.4 0.9-2.2 2.2-2.3h3.6v1.1h-3c-1.4 0-1.8 0.3-1.8 1.8v2.8c0 1 0.5 1.5 1.4 1.5h2.3v-3.3h-1.9v-1h3v4.3h0.2c0.6-2 1.3-3.9 1.9-5.9 0.4-1.1 1-1.6 2.1-1.4 0.6 0.1 1.1 0.4 1.2 1 0.8 2.4 1.5 4.7 2.3 7.1 0.1 0.2 0.1 0.2 0.1 0.3z" fill="#3e64af"/><path id="path3857" d="m70.9 162.1v-1.9h2.5 1.3c0.7 0 1.2-0.5 1.2-1.1s-0.5-1.2-1.2-1.2h-0.3l-0.3-0.4v0.4h-0.5c-0.8-0.1-1.4-0.8-1.4-1.7s0.6-1.6 1.4-1.7h1.5 2.6v1.9h-1.3c0.6 0.4 1.1 1.1 1.3 1.9 0.2 0.9 0 1.9-0.5 2.7-0.5 0.7-1.3 1.1-2.1 1.2h-1.4l-2.8-0.1z" fill="#929397"/><path id="XMLID_19_-8" d="m71.3 161.7v-1h3.4c0.9 0 1.6-0.7 1.7-1.6 0-0.9-0.7-1.6-1.6-1.7h-1.1c-0.6-0.1-1-0.6-1-1.2s0.4-1.2 1-1.2h3.7v1h-1.9-1.7v0.3h1c1.3 0 2.2 0.8 2.5 2.1 0.4 1.6-0.7 3.2-2.3 3.3h-3.7z" fill="#3e64af"/><path id="path3860" d="m70.9 160.7v-2h1.2c-0.4-0.3-0.7-0.7-0.9-1.2-0.5-1.1-0.4-2.2 0.3-3.3 0.5-0.8 1.3-1.2 2.1-1.2h1.6 2.8v1.9h-2.6-1.3c-0.4 0-0.7 0.2-1 0.5-0.2 0.3-0.3 0.7-0.2 1.1 0.2 0.5 0.6 0.8 1.1 0.8h0.4 0.6c0.8 0.1 1.4 0.8 1.4 1.6 0 0.9-0.6 1.7-1.4 1.7h-1.6l-2.5 0.1z" fill="#929397"/><path id="XMLID_18_" d="m71.3 160.2v-1.1h3.6v-0.3h-1.1c-1 0-1.8-0.5-2.3-1.5s-0.4-1.9 0.2-2.8c0.4-0.6 1-1 1.7-1h3.8v1h-3.4c-1.1 0-1.9 1.1-1.5 2.1 0.2 0.6 0.8 1.1 1.5 1.1h1.1c0.6 0.1 1 0.6 1 1.2s-0.4 1.2-1 1.2c-1.1 0.2-2.3 0.1-3.6 0.1z" fill="#3e64af"/><path id="path3863" d="m80.7 162.1h-0.8c-1.2-0.1-2.2-1.2-2.3-2.4v-4.3c0-1.2 1-2.3 2.1-2.3h1.7 3v1.9h-3.8c-0.9 0-1.1 0.2-1.1 1.2v2.9c0 0.9 0.2 1.1 1.1 1.1h3.8v1.9h-3.7z" fill="#929397"/><path id="XMLID_17_-2" d="m84 153.5v1h-3.4c-1.2 0-1.6 0.4-1.6 1.6v2.9c0 1.1 0.4 1.6 1.5 1.6h3.4v1h-2.5-1.6c-1-0.1-1.8-1-1.8-2v-4.3c0-0.9 0.8-1.9 1.7-1.9 1.4 0 2.8 0.1 4.3 0.1z" fill="#3e64af"/><path id="path3866" d="m92.4 162.1c-0.2 0-0.4 0-0.8-0.1l-0.5-0.1 0.5-1.4c0.6-1.9 1.2-3.8 1.9-5.7 0.1-0.3 0.4-0.6 0.6-0.7h0.1 0.1c0.3 0 0.7 0.3 0.7 0.6 0.5 1.4 0.9 2.8 1.4 4.3l0.5 1.6h-3.2l-0.1 0.2c-0.3 0.9-0.4 1.3-1.2 1.3z" fill="#929397"/><path id="XMLID_14_" d="m91.6 161.6 2.1-6.6c0.1-0.2 0.2-0.3 0.4-0.4 0.1 0 0.3 0.1 0.3 0.3 0.6 1.7 1.2 3.5 1.7 5.3h-2.4c0-0.3-0.1-0.5-0.1-0.7h-0.1c-0.1 0.4-0.3 0.8-0.4 1.2-0.3 1.1-0.3 1.1-1.5 0.9zm2.1-2.5h0.9c-0.1-0.4-0.2-0.8-0.4-1.1h-0.1c-0.1 0.3-0.2 0.6-0.4 1.1z" fill="#3e64af"/><path id="path3869" d="m87.6 160.7h-1.1c-0.5 0-0.9-0.7-0.9-1.1-0.1-1.3 0-2.6 0-3.9 0-0.7 0.5-1.2 1.2-1.2h4.1v1.9h-2.1-1.1-0.2v0.3 0.7h2v3.3h-1.9z" fill="#929397"/><path id="XMLID_13_-0" d="m88 159c-0.3-0.1-0.5-0.1-0.7-0.2v-0.9h1.6v2.4h-2.4c-0.2 0-0.5-0.4-0.5-0.7-0.1-1.3 0-2.6 0-3.9 0-0.5 0.3-0.7 0.7-0.7h3.7v1h-2.7c-0.5 0-0.8 0.2-0.7 0.8v1.8c-0.1 0.6 0.2 0.8 1 0.4z" fill="#3e64af"/><path id="path3872" d="m82 160.7h-2c-0.5 0-0.9-0.7-1-1.1s-0.1-0.8 0-1.2v-0.5-0.4h4.6v1.4h0.4 0.4v1.8h-2.4z" fill="#929397"/><path id="XMLID_12_" d="m80.5 159.1c1.1 0.2 2.3 0 3.4 0.1v1h-3.9c-0.2 0-0.5-0.4-0.6-0.7-0.1-0.5 0-1.1 0-1.7h3.7v1h-2.6v0.3z" fill="#3e64af"/><path id="path3875" d="m79 157.8v-0.9-1.4c0.1-0.4 0.6-0.9 1-0.9h2 2.4v1.8l-0.4 0.1h-0.5v1.4h-4.5z" fill="#929397"/><path id="XMLID_11_-3" d="m84 154.9v1c-1.2 0.2-2.3-0.1-3.5 0.1v0.3h2.6v1h-3.7c0-0.6-0.1-1.2 0-1.8 0-0.2 0.4-0.5 0.6-0.6h4z" fill="#3e64af"/></g></g></svg>
