<?xml version="1.0" encoding="UTF-8"?>
<!-- Created with Inkscape (http://www.inkscape.org/) -->
<svg id="svg275" width="420mm" height="318mm" version="1.1" viewBox="0 0 420 318" xmlns="http://www.w3.org/2000/svg" xmlns:cc="http://creativecommons.org/ns#" xmlns:dc="http://purl.org/dc/elements/1.1/" xmlns:rdf="http://www.w3.org/1999/02/22-rdf-syntax-ns#">
 <metadata id="metadata272">
  <rdf:RDF>
   <cc:Work rdf:about="">
    <dc:format>image/svg+xml</dc:format>
    <dc:type rdf:resource="http://purl.org/dc/dcmitype/StillImage"/>
    <dc:title/>
   </cc:Work>
  </rdf:RDF>
 </metadata>
 <g id="layer1" transform="translate(0,21)">
  <g id="g1686" transform="translate(-20)">
   <path id="path2-6" d="m373.04 285.24h55.181c1.3022 0 2.3698-1.0664 2.3698-2.3698v-62.762c0-1.304-1.0673-2.3698-2.3698-2.3698h-57.549c-1.3038 0-2.3695 1.0658-2.3695 2.3698v60.394z" fill="#4e5895" stroke-width=".21592"/>
   <path id="path4-0" d="m410.36 230.7h-0.0912c-0.36901 0-0.8177-0.14359-1.1362-0.36966l-1.0623-0.63006c-0.21376-0.13712-0.45041-0.21355-0.55622-0.21355h-16.502c-0.1045 0-0.3364 0.0764-0.54347 0.20556l-1.1098 0.66007c-0.28394 0.20405-0.73284 0.34764-1.0999 0.34764l-19.997-1.2485-0.54996-0.035v-9.3084c0-1.6304 1.3251-2.9538 2.9553-2.9538h57.549c1.6304 0 2.9556 1.3234 2.9556 2.9538v9.2413l-0.5465 0.0402z" fill="#fff" stroke-width=".21592"/>
   <path id="path6-6" d="m428.22 217.73c1.3022 0 2.3698 1.0664 2.3698 2.3698v8.6931l-20.265 1.3137c-0.016 2e-3 -0.0358 2e-3 -0.0518 2e-3 -0.25803 0-0.58623-0.11596-0.80129-0.26451l-1.0999-0.65338c-0.24507-0.15525-0.59249-0.29711-0.85354-0.29711h-16.502c-0.26127 0-0.60718 0.14186-0.85527 0.29711l-1.0965 0.65338c-0.21873 0.14855-0.54369 0.26451-0.80302 0.26451-0.0162 0-0.0358 0-0.0522-2e-3l-19.907-1.25v-8.7568c0-1.3031 1.0658-2.3698 2.368-2.3698h57.55m0-1.1692h-57.55c-1.9517 0-3.5381 1.587-3.5381 3.539v9.8558l1.0967 0.0684 19.907 1.25 0.0376 3e-3 0.0881 2e-3c0.47978 0 1.0394-0.1803 1.462-0.4692l1.0364-0.61539c0.13712-0.0848 0.25933-0.12825 0.2969-0.13538l16.461 3e-3c5e-3 6e-3 0.12567 0.0505 0.22866 0.11422l1.126 0.67304c0.35714 0.24744 0.91854 0.42925 1.4 0.42925h0.0376l0.0898-5e-3 20.265-1.3137 1.0947-0.07v-9.7906c2.2e-4 -1.952-1.5875-3.539-3.5392-3.539" fill="#323133" stroke-width=".21592"/>
   <polygon id="polygon8-2" transform="matrix(.21592 0 0 .21592 358.67 210.93)" points="44.591 303.87 333.08 303.87 335.78 303.87 335.78 306.58 335.78 344.14 335.78 346.85 333.08 346.85 44.591 346.85 41.886 346.85 41.886 344.14 41.886 306.58 41.886 303.87" fill="#202020"/>
   <path id="path10-6" d="m430.59 285.24h-62.288v-8.1131h62.288v8.1131zm1.1699-9.284h-64.628v10.454h64.628v-10.454z" fill="#202020" stroke-width=".21592"/>
   <path id="path12-1" d="m438.41 214.88c0-1.3022-1.0673-2.3695-2.3698-2.3695h-73.416c-1.1422 0-2.0988 0.81662-2.3188 1.893-0.0343 0.15416-0.049 0.31416-0.049 0.47654v66.318c0 7.8138 6.3937 14.211 14.209 14.211h61.582c1.3022 0 2.3628-1.0682 2.3628-2.3698v-78.159zm-7.8235 67.983c0 1.3031-1.0673 2.3698-2.3698 2.3698h-54.489c-0.61668 0-0.81922-0.12394-1.2141-0.51994l-3.7923-3.7931c-0.34613-0.34612-0.42451-0.71384-0.42451-1.1481v-59.671c0-1.304 1.0658-2.3698 2.3698-2.3698h57.55c1.3022 0 2.3698 1.0658 2.3698 2.3698v62.762z" fill="#58595c" stroke-width=".21592"/>
   <path id="path14-8" d="m438.41 214.88c0-1.3022-1.0673-2.3695-2.3698-2.3695h-73.416c-1.1422 0-2.0988 0.81662-2.3188 1.893-0.0343 0.15416-0.049 0.31416-0.049 0.47654v66.318c0 7.8138 6.3937 14.211 14.209 14.211h61.582c1.3022 0 2.3628-1.0682 2.3628-2.3698v-78.159zm-7.8235 67.983c0 1.3031-1.0673 2.3698-2.3698 2.3698h-54.489c-0.61668 0-0.81922-0.12394-1.2141-0.51994l-3.7923-3.7931c-0.34613-0.34612-0.42451-0.71384-0.42451-1.1481v-59.671c0-1.304 1.0658-2.3698 2.3698-2.3698h57.55c1.3022 0 2.3698 1.0658 2.3698 2.3698v62.762z" fill="none" stroke="#323133" stroke-width="1.1697"/>
   <path id="path16-7" d="m436.04 212.51c1.3022 0 2.3698 1.068 2.3698 2.3695v78.159c0 1.3022-1.0606 2.3698-2.3628 2.3698h-61.582c-7.8166 0-14.209-6.398-14.209-14.211v-66.318c0-0.16151 0.0162-0.32238 0.0473-0.47568 0.22045-1.0779 1.1783-1.8939 2.3205-1.8939h73.416m0-1.587h-73.416c-1.8701 0-3.5003 1.3301-3.8741 3.1626-0.0538 0.24809-0.0816 0.51994-0.0816 0.79395v66.318c0 8.7112 7.0857 15.799 15.797 15.799h61.582c2.1786 0 3.9507-1.7764 3.9507-3.9574v-78.159c0-2.1802-1.7753-3.9566-3.9574-3.9566" fill="#323132" stroke-width=".21592"/>
   <polygon id="polygon18-9" transform="matrix(.21592 0 0 .21592 358.67 210.93)" points="188.34 379 155.43 357.06 221.25 357.06" fill="#323133"/>
   <polygon id="polygon20-2" transform="matrix(.21592 0 0 .21592 358.67 210.93)" points="106.54 60.644 96.944 51.303 96.944 60.644 94.608 60.644 94.608 48.034 96.604 48.034 106.07 57.221 106.07 48.034 107.93 48.034 108.36 48.034 108.36 60.644" fill="#010101"/>
   <path id="path22-0" d="m404.8 224.35h-2.1985c-0.31806 0-0.57781 0.26105-0.57781 0.57846v1.5676c0 0.31568 0.25975 0.57781 0.57781 0.57781h2.1985c0.31633 0 0.57738-0.26213 0.57738-0.57781v-1.5676c0-0.31741-0.26105-0.57846-0.57738-0.57846m0.0928 2.1426c0 0.0613-0.0505 0.11207-0.11249 0.11207h-2.1588c-0.062 0-0.1125-0.0505-0.1125-0.11207v-1.5624c0-0.062 0.0505-0.11012 0.1125-0.11012h2.1588c0.062 0 0.11249 0.0481 0.11249 0.11012z" fill="#939598" stroke-width=".21592"/>
   <polygon id="polygon24-2" transform="matrix(.21592 0 0 .21592 358.67 210.93)" points="129.95 60.644 120.35 51.303 120.35 60.644 118.02 60.644 118.02 48.034 120 48.034 129.46 57.221 129.46 48.034 131.33 48.034 131.76 48.034 131.76 60.644" fill="#010101"/>
   <polygon id="polygon26-3" transform="matrix(.21592 0 0 .21592 358.67 210.93)" points="178.46 60.644 168.86 51.303 168.86 60.644 166.53 60.644 166.53 48.034 168.52 48.034 177.97 57.221 177.97 48.034 179.85 48.034 180.28 48.034 180.28 60.644" fill="#010101"/>
   <polygon id="polygon28-7" transform="matrix(.21592 0 0 .21592 358.67 210.93)" points="112.02 60.644 112.02 48.037 113.93 48.037 114.35 48.037 114.35 60.644" fill="#010101"/>
   <polygon id="polygon30-5" transform="matrix(.21592 0 0 .21592 358.67 210.93)" points="134.41 50.21 134.41 48.037 147.66 48.037 148.1 48.037 148.1 50.21 142.46 50.21 142.46 60.644 140.05 60.644 140.05 50.21" fill="#010101"/>
   <polygon id="polygon32-9" transform="matrix(.21592 0 0 .21592 358.67 210.93)" points="153.05 53.037 160.79 53.037 160.79 55.202 153.05 55.202 153.05 58.475 163.05 58.475 163.05 60.644 150.75 60.644 150.75 48.037 162.63 48.037 163.05 48.037 163.05 50.21 153.05 50.21" fill="#010101"/>
   <path id="path34-2" d="m401.23 221.7c-0.19779-0.26191-0.48972-0.39902-0.84059-0.39902h-2.0202v2.7219h2.0202c0.35087 0 0.6428-0.13733 0.84059-0.39579 0.18439-0.24399 0.28221-0.57522 0.28221-0.96453s-0.098-0.72205-0.28221-0.96259m-0.82742 1.8554h-1.5471v-1.7837h1.5471c0.48453 0 0.65576 0.48 0.65576 0.89112 0 0.41111-0.17123 0.89262-0.65576 0.89262" fill="#010101" stroke-width=".21592"/>
   <path id="path36-2" d="m404.8 221.3h-2.1985c-0.31806 0-0.57781 0.26126-0.57781 0.57867v1.5674c0 0.31589 0.25975 0.57608 0.57781 0.57608h2.1985c0.31633 0 0.57738-0.26019 0.57738-0.57608v-1.5674c0-0.31741-0.26105-0.57867-0.57738-0.57867m0.0928 2.1428c0 0.0594-0.0505 0.11012-0.11249 0.11012h-2.1588c-0.062 0-0.1125-0.0505-0.1125-0.11012v-1.5624c0-0.062 0.0505-0.11034 0.1125-0.11034h2.1588c0.062 0 0.11249 0.0484 0.11249 0.11034z" fill="#010101" stroke-width=".21592"/>
   <path id="path38-8" d="m413.95 225.92c0.52383 0.20555 1.6252 0.37376 2.4874 0.37376 0.94294 0 1.3331-0.32561 1.3331-0.73047 0-0.36534-0.36232-0.57932-1.4035-0.96021-1.3921-0.51498-2.4119-0.91962-2.4119-1.8334 0-0.94575 1.2273-1.5039 3.1004-1.5039 1.0053 0 1.3512 0.0654 1.9876 0.18202l7e-3 0.89587c-0.62661-0.11919-1.1833-0.32237-2.0467-0.32237-0.92696 0-1.3199 0.29365-1.3199 0.59486 0 0.4407 0.60696 0.6495 1.6725 1.0306 1.4819 0.5303 2.3078 0.93905 2.3078 1.8349 0 0.92048-1.0315 1.5879-3.3619 1.5879-0.95784 0-1.6186-0.0652-2.3516-0.18267z" fill="#010101" stroke-width=".21592"/>
   <path id="path40-9" d="m411.97 226.65c-0.54995 0.24874-1.5862 0.40636-2.4954 0.40636h-3.4662v-5.777h3.4662c0.90925 0 1.9455 0.16064 2.4954 0.40809 1.3364 0.60459 1.7721 1.5674 1.7721 2.4812 0 0.91551-0.43228 1.8783-1.7721 2.4814m-2.9782-4.5864h-1.1083v4.1956h1.1083c1.7021 0 2.7774-0.72702 2.7774-2.0906 0-1.3636-1.0755-2.105-2.7774-2.105" fill="#010101" stroke-width=".21592"/>
   <path id="path42-7" d="m421.25 224.63c-0.66548 0-1.2074 0.54175-1.2074 1.2083 0 0.6685 0.54196 1.21 1.2074 1.21 0.66936 0 1.2111-0.54175 1.2111-1.21 0-0.66677-0.54196-1.2083-1.2111-1.2083m0 2.2111c-0.55125 0-1.0017-0.44956-1.0017-1.003 0-0.5547 0.45042-1.0012 1.0017-1.0012 0.55492 0 1.0021 0.44631 1.0021 1.0012-2.2e-4 0.55341-0.44718 1.003-1.0021 1.003" fill="#010101" stroke-width=".21592"/>
   <path id="path44-3" d="m421.26 225.96h-0.25436v0.54499h-0.20254v-1.3057h0.63664v3e-3c0.19908 0 0.36232 0.17857 0.36232 0.37938 0 0.18591-0.13711 0.34612-0.31676 0.36966l0.32647 0.55319h-0.22823zm-0.25436-0.18526h0.42108c0.10127 0 0.1831-0.0922 0.1831-0.19412 0-0.1004-0.0818-0.19735-0.1831-0.19735l-0.0132 2e-3 -0.40788-2e-3z" fill="#010101" stroke-width=".21592"/>
  </g>
  <g id="g1459">
   <path id="path2" d="m295.79 124.59c4.9547 1.6695 9.5048 6.3264 9.5048 13.589v3.51c-8e-3 1.0979 0.18341 2.0954 0.59053 3.1079 0.22109 0.5327 0.54764 1.0026 0.62808 1.603 0.0729 0.5653 0.91455 5.5878 0.91455 12.892v116.97c0 10.1-7.9547 18.409-18.045 18.842-22.743 0.99752-45.489 1.9774-68.25 1.4999-0.51508-7e-3 -1.1959-0.0352-1.907-0.15571-1.877-0.3041-3.7538-0.62568-5.6256-0.97986-0.71354-0.13829-2.1659-0.20599-2.1659-0.20599h-114.55s-1.4434 0.0677-2.1583 0.20599c-1.8755 0.35418-3.7511 0.67578-5.6319 0.97986-0.7022 0.12055-1.3794 0.14826-1.9057 0.15571-22.757 0.47745-45.512-0.5024-68.258-1.4999-10.093-0.43217-18.054-8.7411-18.046-18.842l0.011264-116.97c0-7.304 0.83288-12.326 0.89944-12.892 0.083022-0.60043 0.4071-1.0703 0.6257-1.603 0.41952-1.0125 0.60676-2.01 0.59665-3.1079v-3.5088c0-7.2587 4.544-11.918 9.51-13.59v-132.43c0-6.8328 5.544-12.374 12.367-12.374h258.51c6.8341 0 12.377 5.5414 12.377 12.374v132.43" fill="#5c67a9" stroke-width=".019866"/>
   <path id="path4" d="m12.328 124.58c-4.9611 1.6671-9.505 6.3241-9.505 13.594v3.5025c0.00375 0.7185-0.086697 1.3919-0.25874 2.0602h-1.4234c-0.83288 0-1.0779-0.5326-1.0728-1.5075l0.29649-8.5049c0-7.7185 5.1833-12.495 11.963-12.643v3.4987" fill="#313233" stroke-width=".019866"/>
   <path id="path6" d="m295.58 124.57v-3.4786c6.7864 0.13821 11.972 4.9146 11.972 12.631l0.29156 8.5049c5e-3 0.97489-0.24382 1.5075-1.0703 1.5075h-1.4272c-0.16577-0.66829-0.25624-1.3417-0.24865-2.0602v-3.5025c2e-3 -7.2726-4.5452-11.93-9.5175-13.602" fill="#313233" stroke-width=".019866"/>
   <path id="path8" d="m12.534 131.94c0 4.4234 3.4911 8.0553 7.9056 8.2486 22.576 0.95983 45.159 1.4322 67.755 1.4322v-21.899h131.94v21.899c22.6 0 45.185-0.48242 67.763-1.4396 4.402-0.18851 7.8945-3.8203 7.8945-8.2412v-139.78c0-6.8328-5.5377-12.374-12.377-12.374h-258.51c-6.8227 0-12.367 5.5414-12.367 12.374v139.78z" fill="none" stroke="#231f20" stroke-width=".34733"/>
   <path id="path10" d="m277.66 218.79c0 4.1482-3.3669 7.5174-7.5151 7.5174-4.1507 0-7.515-3.3693-7.515-7.5174 0-4.1457 3.3643-7.5176 7.515-7.5176 4.1482 0 7.5151 3.3668 7.5151 7.5176" fill="#545457" stroke="#373132" stroke-width=".019866"/>
   <path id="path12" d="m270.15 211.28c4.1508 0 7.5151 3.3643 7.5151 7.5151 0 4.1507-3.3643 7.5174-7.5151 7.5174-4.1507 0-7.515-3.3668-7.515-7.5174 0-4.1508 3.3643-7.5151 7.515-7.5151z" fill="none" stroke="#231f20" stroke-width=".34733"/>
   <path id="path14" d="m277.66 186.23c0 4.1457-3.3669 7.5125-7.5151 7.5125-4.1507 0-7.5225-3.3668-7.5225-7.5125 0-4.1482 3.3719-7.5174 7.5225-7.5174 4.1482-2e-5 7.5151 3.3668 7.5151 7.5174" fill="#313133" stroke-width=".019866"/>
   <path id="path16" d="m270.15 178.71c4.1507 0 7.5176 3.3643 7.5176 7.5174 0 4.1508-3.3669 7.5176-7.5176 7.5176-4.1506 0-7.5174-3.3668-7.5174-7.5176 0-4.1531 3.3668-7.5174 7.5174-7.5174z" fill="none" stroke="#231f20" stroke-width=".34733"/>
   <path id="path18" d="m294.08 202.51c0 4.1507-3.3668 7.5125-7.5226 7.5125-4.1482 0-7.515-3.3618-7.515-7.5125 0-4.1508 3.3668-7.5176 7.515-7.5176 4.1557 0 7.5226 3.3668 7.5226 7.5176" fill="#545457" stroke-width=".019866"/>
   <path id="path20" d="m286.56 194.99c4.1508 0 7.5176 3.3668 7.5176 7.52 0 4.1507-3.3668 7.5174-7.5176 7.5174-4.1507 0-7.5174-3.3668-7.5174-7.5174 0-4.1533 3.3668-7.52 7.5174-7.52z" fill="none" stroke="#231f20" stroke-width=".34733"/>
   <path id="path22" d="m261.48 202.51c0 4.1507-3.3668 7.5125-7.5149 7.5125-4.1483 0-7.5126-3.3618-7.5126-7.5125 0-4.1508 3.3643-7.5176 7.5126-7.5176 4.1481 0 7.5149 3.3668 7.5149 7.5176" fill="#313133" stroke="#313237" stroke-width=".019866"/>
   <path id="path24" d="m260.95 218.79v-6.1808c0-0.58805-0.24122-0.82658-0.82402-0.82658h-6.1834c-5.123 0-9.2762-4.1558-9.2762-9.2789 0-5.1205 4.1531-9.2712 9.2762-9.2712h6.1834c0.58541 0 0.82402-0.2412 0.82402-0.82414v-6.1808c0-5.1231 4.1483-9.2813 9.2763-9.2813 5.1206 0 9.2737 4.1582 9.2737 9.2813v6.1808c0 0.58793 0.24382 0.82414 0.82665 0.82414h6.1809c5.1204 0 9.2787 4.1507 9.2787 9.2712 0 5.1231-4.1582 9.2789-9.2787 9.2789h-6.1809c-0.58791 0-0.82665 0.2412-0.82665 0.82658v6.1808c0 5.123-4.1481 9.2788-9.2737 9.2788-5.128 0-9.2763-4.1558-9.2763-9.2788zm0.53272-16.286c0 4.1507-3.3668 7.5125-7.5149 7.5125-4.1483 0-7.5126-3.3618-7.5126-7.5125 0-4.1508 3.3643-7.5176 7.5126-7.5176 4.1481 0 7.5149 3.3668 7.5149 7.5176z" fill="none" stroke="#231f20" stroke-width=".34733"/>
   <path id="path26" d="m272.71 162.44h15.14c2.1282 5e-3 3.8543-1.7236 3.8543-3.8492 0-2.1307-1.7261-3.8493-3.8543-3.8417h-15.14c-0.29388 0-0.41704 0.11803-0.41704 0.40959v6.8642c0 0.29653 0.12318 0.41719 0.41704 0.41719" fill="#313233" stroke-width=".019866"/>
   <path id="path28" d="m272.71 162.44h15.14c2.1282 5e-3 3.8543-1.7236 3.8543-3.8492 0-2.1307-1.7261-3.8493-3.8543-3.8417h-15.14c-0.29388 0-0.41704 0.11803-0.41704 0.40959v6.8642c0 0.29653 0.12318 0.41719 0.41704 0.41719z" fill="none" stroke="#231f20" stroke-width=".34733"/>
   <path id="path30" d="m267.83 162.44h-15.156c-2.1155 5e-3 -3.8492-1.7236-3.8492-3.8492 0-2.1307 1.7337-3.8493 3.8492-3.8417h15.156c0.28395 0 0.41452 0.11803 0.41452 0.40959v6.8642c0 0.29653-0.13057 0.41719-0.41452 0.41719" fill="#313233" stroke-width=".019866"/>
   <path id="path32" d="m287.85 154.06h-35.256c-2.4949 0-4.5376 2.0252-4.5376 4.5302 0 2.51 2.0427 4.5451 4.5376 4.5451h35.256c2.5025 0 4.5376-2.0351 4.5376-4.5451 0-2.505-2.0351-4.5302-4.5376-4.5302zm-20.02 8.3769h-15.156c-2.1155 5e-3 -3.8492-1.7236-3.8492-3.8492 0-2.1307 1.7337-3.8493 3.8492-3.8417h15.156c0.28395 0 0.41452 0.11803 0.41452 0.40959v6.8642c0 0.29653-0.13057 0.41719-0.41452 0.41719z" fill="none" stroke="#231f20" stroke-width=".34733"/>
   <path id="path34" d="m92.325 282.77c0 0.33663-0.27257 0.61558-0.61682 0.61558h-1.2562c-0.3368 0-0.61433-0.27895-0.61433-0.61558v-4.8768c0-0.33676 0.27755-0.61066 0.61433-0.61066h1.2562c0.34425 0 0.61682 0.2739 0.61682 0.61066v4.8768" fill="#4c4c4e" stroke-width=".019866"/>
   <path id="path36" d="m211.05 282.77c0 0.33663-0.27638 0.61558-0.61812 0.61558h-1.2462c-0.34172 0-0.61811-0.27895-0.61811-0.61558v-4.8768c0-0.33676 0.27639-0.61066 0.61811-0.61066h1.2462c0.34174 0 0.61812 0.2739 0.61812 0.61066v4.8768" fill="#4c4c4e" stroke-width=".019866"/>
   <path id="path38" d="m218.5 282.77c0 0.33663-0.28133 0.61558-0.61797 0.61558h-1.2512c-0.34671 0-0.6257-0.27895-0.6257-0.61558v-4.8768c0-0.33676 0.27899-0.61066 0.6257-0.61066h1.2461c0.34177 0 0.62059 0.2739 0.62059 0.61066v4.8768" fill="#bbf607" stroke-width=".019866"/>
   <path id="path40" d="m14.821 210.05c-1.9498-4.8417-1.9498-10.249 0-15.093 0.2625-0.65331 0.63314-0.90951 1.3404-0.90951h12.667c0.57784 0 0.82285-0.24124 0.82039-0.81922v-12.656c0-0.71109 0.24998-1.0829 0.90832-1.3467 4.8441-1.9422 10.25-1.9422 15.095 0 0.65575 0.26889 0.90452 0.6356 0.90452 1.3467v12.656c0 0.58048 0.23744 0.81922 0.82402 0.81922h12.663c0.70478 0 1.0728 0.2562 1.3355 0.90951 1.9585 4.844 1.9585 10.251 0 15.093-0.26514 0.65827-0.63068 0.90702-1.3355 0.90702h-12.663c-0.58658 0-0.82402 0.24124-0.82402 0.82405v12.663c0 0.69855-0.24877 1.0704-0.90452 1.3266-4.8454 1.9648-10.251 1.9648-15.095 0-0.65836-0.2562-0.90832-0.628-0.90832-1.3266v-12.663c0.0025-0.58789-0.24253-0.82405-0.82039-0.82405h-12.667c-0.70727 0-1.0779-0.24875-1.3404-0.90702zm14.678-0.94728c1.1759 0 2.0025 0.82411 2.0025 2.005m178.94-83.019v-8.3666m-10.507 8.3666v-8.3666m-45.768 8.3666v-8.3666m-56.278 8.3666v-8.3666m101.15 3.3504v18.549h-43.981v-18.549zm20.211 18.88v-20.334h-7.8793v20.334zm-130.33 0v-20.334h8.0477v20.334zm206.88-17.365c4.9547 1.6695 9.5048 6.3264 9.5048 13.589v3.51c-8e-3 1.0979 0.18341 2.0954 0.59053 3.1079 0.22109 0.5327 0.54764 1.0026 0.62808 1.603 0.0729 0.5653 0.91455 5.5878 0.91455 12.892v116.97c0 10.1-7.9547 18.409-18.045 18.842-22.743 0.99752-45.489 1.9774-68.25 1.4999-0.51508-7e-3 -1.1959-0.0352-1.907-0.15571-1.877-0.3041-3.7538-0.62568-5.6256-0.97986-0.71354-0.13829-2.1659-0.20599-2.1659-0.20599h-114.55s-1.4434 0.0677-2.1583 0.20599c-1.8755 0.35418-3.7511 0.67578-5.6319 0.97986-0.7022 0.12055-1.3794 0.14826-1.9057 0.15571-22.757 0.47745-45.512-0.5024-68.258-1.4999-10.093-0.43217-18.054-8.7411-18.046-18.842l0.011264-116.97c0-7.304 0.83288-12.326 0.89944-12.892 0.083022-0.60043 0.4071-1.0703 0.6257-1.603 0.41952-1.0125 0.60676-2.01 0.59665-3.1079v-3.5088c0-7.2587 4.544-11.918 9.51-13.59m187.4 17.029v-13.528h10.507v13.528zm-102.05 0v-13.528h56.278v13.517zm197.9-15.387c3.4094 1.8241 5.8189 5.3593 5.8189 10.235v139.33c0 5.7362-5.1984 13.068-12.939 13.068-21.126-0.0728-42.256-0.0502-63.386 0.0654-1.7135 5e-3 -3.4322 0.015-5.1457 0.015h-131.94c-1.7185 0-3.4346-0.01-5.1506-0.015-21.123-0.11554-42.256-0.14065-63.381-0.0654-7.7474 0-12.952-7.3315-12.952-13.068v-139.33c0-4.8655 2.4133-8.4082 5.8254-10.23" fill="none" stroke="#231f20" stroke-width=".34733"/>
   <path id="path42" d="m29.499 209.1h-12.049c-0.76373 0-1.1444-0.27638-1.3781-1.01-1.2199-3.8793-1.2199-7.3014 0-11.181 0.23363-0.7287 0.62935-0.96732 1.3781-0.96732l12.049 0.0126c1.1369 0.01 2.0616-0.9146 2.0565-2.0552l-0.01633-12.045c-0.0025-0.74623 0.23492-1.1431 0.96482-1.3743 3.8756-1.2236 7.3015-1.2236 11.182 0 0.72743 0.23115 0.96992 0.62804 0.96992 1.3743l-0.01764 12.045c0 1.211 0.87432 2.0049 2.0604 2.0049h12.049c0.76883 0 1.1444 0.27141 1.3731 1.0051 1.2248 3.8794 1.2248 7.3014 0 11.181-0.22614 0.72871-0.60424 1.01-1.3731 1.01h-12.049c-1.186 0-2.0037 0.82411-2.0037 2.005v12.04c0 0.77382-0.279 1.1507-1.0064 1.3794-3.8768 1.2236-7.3064 1.2236-11.182 0-0.7299-0.22867-1.0049-0.60557-1.0049-1.3794v-12.04" fill="#414345" stroke-width=".019866"/>
   <path id="path44" d="m53.251 162.71c0 0.57796-0.4674 1.0378-1.034 1.0378h-28.24c-0.57158 0-1.0339-0.45981-1.0339-1.0378v-8.2435c0-0.56033 0.46607-1.0226 1.0339-1.0226h28.24c0.56659 0 1.034 0.46478 1.034 1.0226zm171 103.29h-140.18c-1.2727 0-2.0552-0.73863-2.0552-2.0804v-116.04c0-1.2362 1.0112-2.0653 2.0552-2.0653h140.18c1.5001 0 2.0579 1.0327 2.0579 2.0653v116.04c0 1.4271-1.0127 2.0803-2.0579 2.0803zm-179.54-63.497c0 3.6633-2.9724 6.6482-6.6332 6.6431-3.6682 0-6.6406-2.9748-6.6406-6.6431 0-3.6608 2.9724-6.6531 6.6406-6.6432 3.6608 0 6.6332 2.9724 6.6332 6.6432zm-15.211 6.5979h-12.049c-0.76373 0-1.1444-0.27638-1.3781-1.01-1.2199-3.8793-1.2199-7.3014 0-11.181 0.23363-0.7287 0.62935-0.96732 1.3781-0.96732l12.049 0.0126c1.1369 0.01 2.0616-0.9146 2.0565-2.0552l-0.01633-12.045c-0.0025-0.74623 0.23492-1.1431 0.96482-1.3743 3.8756-1.2236 7.3015-1.2236 11.182 0 0.72743 0.23115 0.96992 0.62804 0.96992 1.3743l-0.01764 12.045c0 1.211 0.87432 2.0049 2.0604 2.0049h12.049c0.76883 0 1.1444 0.27141 1.3731 1.0051 1.2248 3.8794 1.2248 7.3014 0 11.181-0.22614 0.72871-0.60424 1.01-1.3731 1.01h-12.049c-1.186 0-2.0037 0.82411-2.0037 2.005v12.04c0 0.77382-0.279 1.1507-1.0064 1.3794-3.8768 1.2236-7.3064 1.2236-11.182 0-0.7299-0.22867-1.0049-0.60557-1.0049-1.3794v-12.04" fill="none" stroke="#231f20" stroke-width=".34733"/>
   <path id="path46" d="m48.286 161.99c0 0.34669-0.28145 0.62303-0.62568 0.62303h-19.142c-0.3454 0-0.62061-0.27634-0.62061-0.62303v-6.799c0-0.34172 0.27521-0.62059 0.62061-0.62059h19.142c0.34425 0 0.62568 0.27887 0.62568 0.62059v6.799" fill="#313233" stroke-width=".019866"/>
   <path id="path48" d="m48.286 161.99c0 0.34669-0.28145 0.62303-0.62568 0.62303h-19.142c-0.3454 0-0.62061-0.27634-0.62061-0.62303v-6.799c0-0.34172 0.27521-0.62059 0.62061-0.62059h19.142c0.34425 0 0.62568 0.27887 0.62568 0.62059z" fill="none" stroke="#231f20" stroke-width=".34733"/>
   <path id="path50" d="m85.308-2.2777c-1.7073 0-3.0917 1.387-3.0917 3.0954v113.38c0 1.7135 1.3845 3.0954 3.0917 3.0954h137.71c1.6985 0 3.0855-1.3843 3.0855-3.0954v-113.38c0-1.7084-1.387-3.0954-3.0855-3.0954h-137.71" fill="#222021" stroke-width=".019866"/>
   <path id="path52" d="m240.33 121.52v-4.7474c0-0.85422 0.69354-1.544 1.5478-1.544h4.7461c0.84924 0 1.5453 0.69221 1.5453 1.544v4.745c0 0.85422-0.69604 1.5402-1.5453 1.5402h-4.7461c-0.8542-2e-5 -1.5478-0.68599-1.5478-1.5377zm0-123.9v-4.7461c0-0.85186 0.69354-1.544 1.5478-1.544h4.7461c0.84924 0 1.5453 0.69471 1.5453 1.544v4.7461c0 0.85426-0.69604 1.5489-1.5453 1.5489h-4.7461c-0.8542 0-1.5478-0.69467-1.5478-1.5489zm-180.17 123.9v-4.7474c0-0.85422 0.69225-1.544 1.5415-1.544h4.7448c0.85305 0 1.5403 0.69221 1.5403 1.544v4.745c0 0.85422-0.68726 1.5402-1.5403 1.5402h-4.7448c-0.84923-2e-5 -1.5415-0.68599-1.5415-1.5377zm0-123.9v-4.7461c0-0.85186 0.69225-1.544 1.5415-1.544h4.7448c0.85305 0 1.5403 0.69471 1.5403 1.544v4.7461c0 0.85426-0.68726 1.5489-1.5403 1.5489h-4.7448c-0.84923 0-1.5415-0.69467-1.5415-1.5489zm240.88 268.98s-9.2788 0.10799-13.912 0.10799h-48.359c-2.3844 0-5.0553-0.92208-5.0553-3.5101v-114.58c0-1.5276 1.2086-3.5 5.0553-3.5h48.359s9.2788 0.0327 13.912 0.0981c0 1-2.2336 1.1935-3.2286 1.1935h-57.776c-1.088 0-1.7236 1.3241-1.7236 1.9095v115.17c0 1.0252 0.72098 1.9096 1.7236 1.9096h57.776c2.2537 0 3.2286 0.60046 3.2286 1.1935zm-293.76 0s9.275 0.10799 13.913 0.10799h48.356c2.3881 0 5.054-0.92208 5.054-3.5101v-114.58c0-1.5276-1.2048-3.5-5.054-3.5h-48.356s-9.2826 0.0327-13.913 0.0981c0 1 2.2248 1.1935 3.2237 1.1935h57.786c1.0779 0 1.7185 1.3241 1.7185 1.9095v115.17c0 1.0252-0.71732 1.9096-1.7185 1.9096h-57.786c-2.2513 0-3.2237 0.60046-3.2237 1.1935zm78.028-268.87c-1.7073 0-3.0917 1.387-3.0917 3.0954v113.38c0 1.7135 1.3845 3.0954 3.0917 3.0954h137.71c1.6985 0 3.0855-1.3843 3.0855-3.0954v-113.38c0-1.7084-1.387-3.0954-3.0855-3.0954z" fill="none" stroke="#231f20" stroke-width=".34733"/>
   <path id="path54" d="m31.092 77.709c0-0.5654-0.46096-1.0264-1.0339-1.0264-0.5691 0-1.0302 0.46096-1.0302 1.0264 0 0.57655 0.46108 1.0327 1.0302 1.0327 0.57025 0 1.0339-0.4586 1.0339-1.0327" fill="#231f20" stroke-width=".019866"/>
   <path id="path56" d="m37.892 77.709c0-0.5654-0.45862-1.0264-1.0351-1.0264-0.5679 0-1.0289 0.46096-1.0289 1.0264 0 0.57655 0.46096 1.0327 1.0289 1.0327 0.57651 0 1.0351-0.4586 1.0351-1.0327" fill="#231f20" stroke-width=".019866"/>
   <path id="path58" d="m44.695 77.709c0-0.5654-0.46112-1.0264-1.0327-1.0264-0.56794 0-1.034 0.46096-1.034 1.0264 0 0.57655 0.46855 1.0327 1.034 1.0327 0.56906 0 1.0327-0.4586 1.0327-1.0327" fill="#231f20" stroke-width=".019866"/>
   <path id="path60" d="m51.502 77.709c0-0.5654-0.46867-1.0264-1.0351-1.0264-0.57037 0-1.0315 0.46096-1.0315 1.0264 0 0.57655 0.46112 1.0327 1.0315 1.0327 0.56645 0 1.0351-0.4586 1.0351-1.0327" fill="#231f20" stroke-width=".019866"/>
   <path id="path62" d="m58.305 77.709c0-0.5654-0.46869-1.0264-1.0327-1.0264-0.57796 0-1.0389 0.46096-1.0389 1.0264 0 0.57655 0.46096 1.0327 1.0389 1.0327 0.56397 0 1.0327-0.4586 1.0327-1.0327" fill="#231f20" stroke-width=".019866"/>
   <path id="path64" d="m65.096 77.709c0-0.5654-0.45983-1.0264-1.0264-1.0264-0.57158 0-1.0264 0.46096-1.0264 1.0264 0 0.57655 0.45848 1.0327 1.0264 1.0327 0.56657 0 1.0264-0.4586 1.0264-1.0327" fill="#231f20" stroke-width=".019866"/>
   <path id="path66" d="m71.907 77.709c0-0.5654-0.46724-1.0264-1.0389-1.0264-0.56659 0-1.0237 0.46096-1.0237 1.0264 0 0.57655 0.45717 1.0327 1.0237 1.0327 0.57172 0 1.0389-0.4586 1.0389-1.0327" fill="#231f20" stroke-width=".019866"/>
   <path id="path68" d="m31.092 87.187c0-0.57025-0.46096-1.0313-1.0339-1.0313-0.5691 0-1.0302 0.46108-1.0302 1.0313 0 0.5717 0.46108 1.0315 1.0302 1.0315 0.57025 0.0025 1.0339-0.45733 1.0339-1.0315" fill="#231f20" stroke-width=".019866"/>
   <path id="path70" d="m37.892 87.187c0-0.57025-0.45862-1.0313-1.0351-1.0313-0.5679 0-1.0289 0.46108-1.0289 1.0313 0 0.5717 0.46096 1.0315 1.0289 1.0315 0.57651 0.0025 1.0351-0.45733 1.0351-1.0315" fill="#231f20" stroke-width=".019866"/>
   <path id="path72" d="m44.695 87.187c0-0.57025-0.46112-1.0313-1.0327-1.0313-0.56794 0-1.034 0.46108-1.034 1.0313 0 0.5717 0.46855 1.0315 1.034 1.0315 0.56906 0.0025 1.0327-0.45733 1.0327-1.0315" fill="#231f20" stroke-width=".019866"/>
   <path id="path74" d="m51.502 87.187c0-0.57025-0.46867-1.0313-1.0351-1.0313-0.57037 0-1.0315 0.46108-1.0315 1.0313 0 0.5717 0.46112 1.0315 1.0315 1.0315 0.56645 0.0025 1.0351-0.45733 1.0351-1.0315" fill="#231f20" stroke-width=".019866"/>
   <path id="path76" d="m58.305 87.187c0-0.57025-0.46869-1.0313-1.0327-1.0313-0.57796 0-1.0389 0.46108-1.0389 1.0313 0 0.5717 0.46096 1.0315 1.0389 1.0315 0.56397 0.0025 1.0327-0.45733 1.0327-1.0315" fill="#231f20" stroke-width=".019866"/>
   <path id="path78" d="m65.096 87.187c0-0.57025-0.45983-1.0313-1.0264-1.0313-0.57158 0-1.0264 0.46108-1.0264 1.0313 0 0.5717 0.45848 1.0315 1.0264 1.0315 0.56657 0.0025 1.0264-0.45733 1.0264-1.0315" fill="#231f20" stroke-width=".019866"/>
   <path id="path80" d="m71.907 87.187c0-0.57025-0.46724-1.0313-1.0389-1.0313-0.56659 0-1.0237 0.46108-1.0237 1.0313 0 0.5717 0.45717 1.0315 1.0237 1.0315 0.57172 0.0025 1.0389-0.45733 1.0389-1.0315" fill="#231f20" stroke-width=".019866"/>
   <path id="path82" d="m31.092 96.663c0-0.57158-0.46096-1.0264-1.0339-1.0264-0.5691 0-1.0302 0.45729-1.0302 1.0264 0 0.57154 0.46108 1.0313 1.0302 1.0313 0.57025 0.0025 1.0339-0.45731 1.0339-1.0313" fill="#231f20" stroke-width=".019866"/>
   <path id="path84" d="m37.892 96.663c0-0.57158-0.45862-1.0264-1.0351-1.0264-0.5679 0-1.0289 0.45729-1.0289 1.0264 0 0.57154 0.46096 1.0313 1.0289 1.0313 0.57651 0.0025 1.0351-0.45731 1.0351-1.0313" fill="#231f20" stroke-width=".019866"/>
   <path id="path86" d="m44.695 96.663c0-0.57158-0.46112-1.0264-1.0327-1.0264-0.56794 0-1.034 0.45729-1.034 1.0264 0 0.57154 0.46855 1.0313 1.034 1.0313 0.56906 0.0025 1.0327-0.45731 1.0327-1.0313" fill="#231f20" stroke-width=".019866"/>
   <path id="path88" d="m51.502 96.663c0-0.57158-0.46867-1.0264-1.0351-1.0264-0.57037 0-1.0315 0.45729-1.0315 1.0264 0 0.57154 0.46112 1.0313 1.0315 1.0313 0.56645 0.0025 1.0351-0.45731 1.0351-1.0313" fill="#231f20" stroke-width=".019866"/>
   <path id="path90" d="m58.305 96.663c0-0.57158-0.46869-1.0264-1.0327-1.0264-0.57796 0-1.0389 0.45729-1.0389 1.0264 0 0.57154 0.46096 1.0313 1.0389 1.0313 0.56397 0.0025 1.0327-0.45731 1.0327-1.0313" fill="#231f20" stroke-width=".019866"/>
   <path id="path92" d="m65.096 96.663c0-0.57158-0.45983-1.0264-1.0264-1.0264-0.57158 0-1.0264 0.45729-1.0264 1.0264 0 0.57154 0.45848 1.0313 1.0264 1.0313 0.56657 0.0025 1.0264-0.45731 1.0264-1.0313" fill="#231f20" stroke-width=".019866"/>
   <path id="path94" d="m71.907 96.663c0-0.57158-0.46724-1.0264-1.0389-1.0264-0.56659 0-1.0237 0.45729-1.0237 1.0264 0 0.57154 0.45717 1.0313 1.0237 1.0313 0.57172 0.0025 1.0389-0.45731 1.0389-1.0313" fill="#231f20" stroke-width=".019866"/>
   <path id="path96" d="m31.092 106.15c0-0.57158-0.46096-1.0389-1.0339-1.0389-0.5691 0-1.0302 0.46734-1.0302 1.0389 0 0.56909 0.46108 1.0289 1.0302 1.0289 0.57025-2e-3 1.0339-0.46229 1.0339-1.0289" fill="#231f20" stroke-width=".019866"/>
   <path id="path98" d="m37.892 106.15c0-0.57158-0.45862-1.0389-1.0351-1.0389-0.5679 0-1.0289 0.46734-1.0289 1.0389 0 0.56909 0.46096 1.0289 1.0289 1.0289 0.57651-2e-3 1.0351-0.46229 1.0351-1.0289" fill="#231f20" stroke-width=".019866"/>
   <path id="path100" d="m44.695 106.15c0-0.57158-0.46112-1.0389-1.0327-1.0389-0.56794 0-1.034 0.46734-1.034 1.0389 0 0.56909 0.46855 1.0289 1.034 1.0289 0.56906-2e-3 1.0327-0.46229 1.0327-1.0289" fill="#231f20" stroke-width=".019866"/>
   <path id="path102" d="m51.502 106.15c0-0.57158-0.46867-1.0389-1.0351-1.0389-0.57037 0-1.0315 0.46734-1.0315 1.0389 0 0.56909 0.46112 1.0289 1.0315 1.0289 0.56645-2e-3 1.0351-0.46229 1.0351-1.0289" fill="#231f20" stroke-width=".019866"/>
   <path id="path104" d="m58.305 106.15c0-0.57158-0.46869-1.0389-1.0327-1.0389-0.57796 0-1.0389 0.46734-1.0389 1.0389 0 0.56909 0.46096 1.0289 1.0389 1.0289 0.56397-2e-3 1.0327-0.46229 1.0327-1.0289" fill="#231f20" stroke-width=".019866"/>
   <path id="path106" d="m65.096 106.15c0-0.57158-0.45983-1.0389-1.0264-1.0389-0.57158 0-1.0264 0.46734-1.0264 1.0389 0 0.56909 0.45848 1.0289 1.0264 1.0289 0.56657-2e-3 1.0264-0.46229 1.0264-1.0289" fill="#231f20" stroke-width=".019866"/>
   <path id="path108" d="m71.907 106.15c0-0.57158-0.46724-1.0389-1.0389-1.0389-0.56659 0-1.0237 0.46734-1.0237 1.0389 0 0.56909 0.45717 1.0289 1.0237 1.0289 0.57172-2e-3 1.0389-0.46229 1.0389-1.0289" fill="#231f20" stroke-width=".019866"/>
   <path id="path110" d="m238.48 77.709c0-0.5654-0.44723-1.0264-1.0302-1.0264-0.56777 0-1.0251 0.46096-1.0251 1.0264 0 0.57655 0.4573 1.0327 1.0251 1.0327 0.58296 0 1.0302-0.4586 1.0302-1.0327" fill="#231f20" stroke-width=".019866"/>
   <path id="path112" d="m245.29 77.709c0-0.5654-0.45991-1.0264-1.0277-1.0264-0.5754 0-1.0327 0.46096-1.0327 1.0264 0 0.57655 0.45981 1.0327 1.0327 1.0327 0.56774 0 1.0277-0.4586 1.0277-1.0327" fill="#231f20" stroke-width=".019866"/>
   <path id="path114" d="m252.1 77.709c0-0.5654-0.47247-1.0264-1.0402-1.0264-0.56779 0-1.0201 0.46096-1.0201 1.0264 0 0.57655 0.45232 1.0327 1.0201 1.0327 0.56776 0 1.0402-0.4586 1.0402-1.0327" fill="#231f20" stroke-width=".019866"/>
   <path id="path116" d="m258.89 77.709c0-0.5654-0.45979-1.0264-1.0276-1.0264-0.57041 0-1.0402 0.46096-1.0402 1.0264 0 0.57655 0.46984 1.0327 1.0402 1.0327 0.56778 0 1.0276-0.4586 1.0276-1.0327" fill="#231f20" stroke-width=".019866"/>
   <path id="path118" d="m265.69 77.709c0-0.5654-0.46229-1.0264-1.0251-1.0264-0.57289 0-1.0376 0.46096-1.0376 1.0264 0 0.57655 0.46984 1.0327 1.0376 1.0327 0.56282 0 1.0251-0.4586 1.0251-1.0327" fill="#231f20" stroke-width=".019866"/>
   <path id="path120" d="m272.49 77.709c0-0.5654-0.46986-1.0264-1.0251-1.0264-0.57041 0-1.0327 0.46096-1.0327 1.0264 0 0.57655 0.46478 1.0327 1.0327 1.0327 0.55521 0 1.0251-0.4586 1.0251-1.0327" fill="#231f20" stroke-width=".019866"/>
   <path id="path122" d="m279.29 77.709c0-0.5654-0.45981-1.0264-1.0376-1.0264-0.56282 0-1.0226 0.46096-1.0226 1.0264 0 0.57655 0.45979 1.0327 1.0226 1.0327 0.57782 0 1.0376-0.4586 1.0376-1.0327" fill="#231f20" stroke-width=".019866"/>
   <path id="path124" d="m238.48 87.187c0-0.57025-0.44723-1.0313-1.0302-1.0313-0.56777 0-1.0251 0.46108-1.0251 1.0313 0 0.5717 0.4573 1.0315 1.0251 1.0315 0.58296 0.0025 1.0302-0.45733 1.0302-1.0315" fill="#231f20" stroke-width=".019866"/>
   <path id="path126" d="m245.29 87.187c0-0.57025-0.45991-1.0313-1.0277-1.0313-0.5754 0-1.0327 0.46108-1.0327 1.0313 0 0.5717 0.45981 1.0315 1.0327 1.0315 0.56774 0.0025 1.0277-0.45733 1.0277-1.0315" fill="#231f20" stroke-width=".019866"/>
   <path id="path128" d="m252.1 87.187c0-0.57025-0.47247-1.0313-1.0402-1.0313-0.56779 0-1.0201 0.46108-1.0201 1.0313 0 0.5717 0.45232 1.0315 1.0201 1.0315 0.56776 0 1.0402-0.45733 1.0402-1.0315" fill="#231f20" stroke-width=".019866"/>
   <path id="path130" d="m258.89 87.187c0-0.57025-0.45979-1.0313-1.0276-1.0313-0.57041 0-1.0402 0.46108-1.0402 1.0313 0 0.5717 0.46984 1.0315 1.0402 1.0315 0.56778 0 1.0276-0.45733 1.0276-1.0315" fill="#231f20" stroke-width=".019866"/>
   <path id="path132" d="m265.69 87.187c0-0.57025-0.46229-1.0313-1.0251-1.0313-0.57289 0-1.0376 0.46108-1.0376 1.0313 0 0.5717 0.46984 1.0315 1.0376 1.0315 0.56282 0.0025 1.0251-0.45733 1.0251-1.0315" fill="#231f20" stroke-width=".019866"/>
   <path id="path134" d="m272.49 87.187c0-0.57025-0.46986-1.0313-1.0251-1.0313-0.57041 0-1.0327 0.46108-1.0327 1.0313 0 0.5717 0.46478 1.0315 1.0327 1.0315 0.55521 0.0025 1.0251-0.45733 1.0251-1.0315" fill="#231f20" stroke-width=".019866"/>
   <path id="path136" d="m279.29 87.187c0-0.57025-0.45981-1.0313-1.0376-1.0313-0.56282 0-1.0226 0.46108-1.0226 1.0313 0 0.5717 0.45979 1.0315 1.0226 1.0315 0.57782 0.0025 1.0376-0.45733 1.0376-1.0315" fill="#231f20" stroke-width=".019866"/>
   <path id="path138" d="m238.48 96.663c0-0.57158-0.44723-1.0264-1.0302-1.0264-0.56777 0-1.0251 0.45729-1.0251 1.0264 0 0.57154 0.4573 1.0313 1.0251 1.0313 0.58296 0.0025 1.0302-0.45731 1.0302-1.0313" fill="#231f20" stroke-width=".019866"/>
   <path id="path140" d="m245.29 96.663c0-0.57158-0.45991-1.0264-1.0277-1.0264-0.5754 0-1.0327 0.45729-1.0327 1.0264 0 0.57154 0.45981 1.0313 1.0327 1.0313 0.56774 0.0025 1.0277-0.45731 1.0277-1.0313" fill="#231f20" stroke-width=".019866"/>
   <path id="path142" d="m252.1 96.663c0-0.57158-0.47247-1.0264-1.0402-1.0264-0.56779 0-1.0201 0.45729-1.0201 1.0264 0 0.57154 0.45232 1.0313 1.0201 1.0313 0.56776-2e-5 1.0402-0.45731 1.0402-1.0313" fill="#231f20" stroke-width=".019866"/>
   <path id="path144" d="m258.89 96.663c0-0.57158-0.45979-1.0264-1.0276-1.0264-0.57041 0-1.0402 0.45729-1.0402 1.0264 0 0.57154 0.46984 1.0313 1.0402 1.0313 0.56778-2e-5 1.0276-0.45731 1.0276-1.0313" fill="#231f20" stroke-width=".019866"/>
   <path id="path146" d="m265.69 96.663c0-0.57158-0.46229-1.0264-1.0251-1.0264-0.57289 0-1.0376 0.45729-1.0376 1.0264 0 0.57154 0.46984 1.0313 1.0376 1.0313 0.56282 0.0025 1.0251-0.45731 1.0251-1.0313" fill="#231f20" stroke-width=".019866"/>
   <path id="path148" d="m272.49 96.663c0-0.57158-0.46986-1.0264-1.0251-1.0264-0.57041 0-1.0327 0.45729-1.0327 1.0264 0 0.57154 0.46478 1.0313 1.0327 1.0313 0.55521 0.0025 1.0251-0.45731 1.0251-1.0313" fill="#231f20" stroke-width=".019866"/>
   <path id="path150" d="m279.29 96.663c0-0.57158-0.45981-1.0264-1.0376-1.0264-0.56282 0-1.0226 0.45729-1.0226 1.0264 0 0.57154 0.45979 1.0313 1.0226 1.0313 0.57782 0.0025 1.0376-0.45731 1.0376-1.0313" fill="#231f20" stroke-width=".019866"/>
   <path id="path152" d="m238.48 106.15c0-0.57158-0.44723-1.0389-1.0302-1.0389-0.56777 0-1.0251 0.46734-1.0251 1.0389 0 0.56909 0.4573 1.0289 1.0251 1.0289 0.58296-2e-3 1.0302-0.46229 1.0302-1.0289" fill="#231f20" stroke-width=".019866"/>
   <path id="path154" d="m245.29 106.15c0-0.57158-0.45991-1.0389-1.0277-1.0389-0.5754 0-1.0327 0.46734-1.0327 1.0389 0 0.56909 0.45981 1.0289 1.0327 1.0289 0.56774-2e-3 1.0277-0.46229 1.0277-1.0289" fill="#231f20" stroke-width=".019866"/>
   <path id="path156" d="m252.1 106.15c0-0.57158-0.47247-1.0389-1.0402-1.0389-0.56779 0-1.0201 0.46734-1.0201 1.0389 0 0.56909 0.45232 1.0289 1.0201 1.0289 0.56776 0 1.0402-0.46229 1.0402-1.0289" fill="#231f20" stroke-width=".019866"/>
   <path id="path158" d="m258.89 106.15c0-0.57158-0.45979-1.0389-1.0276-1.0389-0.57041 0-1.0402 0.46734-1.0402 1.0389 0 0.56909 0.46984 1.0289 1.0402 1.0289 0.56778 0 1.0276-0.46229 1.0276-1.0289" fill="#231f20" stroke-width=".019866"/>
   <path id="path160" d="m265.69 106.15c0-0.57158-0.46229-1.0389-1.0251-1.0389-0.57289 0-1.0376 0.46734-1.0376 1.0389 0 0.56909 0.46984 1.0289 1.0376 1.0289 0.56282-2e-3 1.0251-0.46229 1.0251-1.0289" fill="#231f20" stroke-width=".019866"/>
   <path id="path162" d="m272.49 106.15c0-0.57158-0.46986-1.0389-1.0251-1.0389-0.57041 0-1.0327 0.46734-1.0327 1.0389 0 0.56909 0.46478 1.0289 1.0327 1.0289 0.55521-2e-3 1.0251-0.46229 1.0251-1.0289" fill="#231f20" stroke-width=".019866"/>
   <path id="path164" d="m279.29 106.15c0-0.57158-0.45981-1.0389-1.0376-1.0389-0.56282 0-1.0226 0.46734-1.0226 1.0389 0 0.56909 0.45979 1.0289 1.0226 1.0289 0.57782-2e-3 1.0376-0.46229 1.0376-1.0289" fill="#231f20" stroke-width=".019866"/>
   <path id="path166" d="m218.02 245.69 6.7286 19.208m-0.0477-117.92-5.6759 2.0201m-129.01 96.695-6.7349 19.208m0.04275-117.92 5.6758 2.0201" fill="none" stroke="#231f20" stroke-width=".34733"/>
   <path id="path168" d="m171.64 253.51v2.3543h-0.58791v-3.1733h0.49992l2.3894 2.3115v-2.3115h0.46734 0.11049v3.1733h-0.46229l-2.417-2.3543" fill="#272829" stroke-width=".019866"/>
   <path id="path170" d="m177.55 253.51v2.3543h-0.5955v-3.1733h0.50753l2.3869 2.3115v-2.3115h0.47492 0.108v3.1733h-0.46226l-2.4196-2.3543" fill="#272829" stroke-width=".019866"/>
   <path id="path172" d="m189.79 253.51v2.3543h-0.58545v-3.1733h0.49994l2.3769 2.3115v-2.3115h0.4824 0.11059v3.1733h-0.46487l-2.4195-2.3543" fill="#272829" stroke-width=".019866"/>
   <path id="path174" d="m175.92 252.69h0.11048v3.1733h-0.58544v-3.1733h0.47496" fill="#272829" stroke-width=".019866"/>
   <path id="path176" d="m184.44 252.69h0.1106v0.54264h-1.4172v2.6306h-0.613v-2.6306h-1.4271v-0.54264h3.3466" fill="#272829" stroke-width=".019866"/>
   <path id="path178" d="m188.22 252.69h0.10552v0.54264h-2.5251v0.71356h1.9573v0.54268h-1.9573v0.83419h2.5251v0.54019h-3.1055v-3.1733h2.9999" fill="#272829" stroke-width=".019866"/>
   <path id="path180" d="m195.94 255.32h-1.8041v-2.0904h1.8041c0.57025 0 0.7713 0.56282 0.7713 1.0351 0 0.49249-0.20105 1.0553-0.7713 1.0553m0.97473-2.1733c-0.23609-0.30157-0.57784-0.46487-0.98991-0.46487h-2.3617v3.1759h2.3617c0.41207 0 0.75382-0.1608 0.98991-0.45981 0.20866-0.28644 0.31663-0.67588 0.31663-1.1357 0-0.44972-0.10797-0.83171-0.31663-1.1156z" fill="#272829" stroke-width=".019866"/>
   <path id="path182" d="m201.21 255.19c0 0.0678-0.0629 0.13321-0.13821 0.13321h-2.5251c-0.0679 0-0.12812-0.0654-0.12812-0.13321v-1.8316c0-0.0703 0.0553-0.13072 0.12812-0.13072h2.5251c0.0728 0 0.13821 0.0579 0.13821 0.13072v1.8316m-0.11308-2.4999h-2.5653c-0.37442 0-0.68098 0.29898-0.68098 0.6733v1.8292c0 0.37428 0.30658 0.67329 0.68098 0.67329h2.5653c0.36932 0 0.67588-0.29901 0.67588-0.67329v-1.8292c0-0.37432-0.30656-0.6733-0.67588-0.6733z" fill="#272829" stroke-width=".019866"/>
   <path id="path184" d="m201.21 258.75c0 0.0704-0.0629 0.12304-0.13821 0.12304h-2.5251c-0.0679 0-0.12812-0.0527-0.12812-0.12304v-1.8292c0-0.0753 0.0553-0.12552 0.12812-0.12552h2.5251c0.0728 0 0.13821 0.0502 0.13821 0.12552v1.8292m-0.11308-2.5025h-2.5653c-0.37442 0-0.68098 0.29649-0.68098 0.6733v1.8292c0 0.37184 0.30658 0.6733 0.68098 0.6733h2.5653c0.36932 0 0.67588-0.30146 0.67588-0.6733v-1.8292c0-0.3718-0.30656-0.6733-0.67588-0.6733z" fill="#272829" stroke-width=".019866"/>
   <path id="path186" d="m211.79 258.08c0.60553 0.24875 1.897 0.44475 2.9045 0.44475 1.1005 0 1.5603-0.37941 1.5603-0.85438 0-0.4246-0.43221-0.68084-1.6432-1.123-1.6306-0.59794-2.8165-1.0754-2.8165-2.1407 0-1.108 1.4296-1.7588 3.618-1.7588 1.1709 0 1.5778 0.0729 2.3265 0.21113l5e-3 1.0477c-0.72872-0.1433-1.3845-0.3819-2.3919-0.3819-1.0855 0-1.5477 0.34409-1.5477 0.70347 0 0.51002 0.71352 0.7537 1.9597 1.1984 1.7312 0.62307 2.6935 1.098 2.6935 2.1457 0 1.0754-1.201 1.8517-3.9347 1.8517-1.1156 0-1.8793-0.0679-2.7336-0.20352v-1.1406" fill="#272829" stroke-width=".019866"/>
   <path id="path188" d="m205.99 253.58h-1.2914v4.902h1.2914c1.995 0 3.2462-0.84926 3.2462-2.4472 0-1.593-1.2512-2.4548-3.2462-2.4548m3.4848 5.3618c-0.64057 0.28395-1.8567 0.47741-2.9169 0.47741h-4.0528v-6.7537h4.0528c1.0602 0 2.2763 0.18082 2.9169 0.47481 1.5654 0.70098 2.0653 1.8392 2.0653 2.8994 0 1.0654-0.49992 2.1934-2.0653 2.902z" fill="#272829" stroke-width=".019866"/>
   <polyline id="polyline190" transform="matrix(.019866 0 0 .019866 152.57 136.77)" points="-2814.3 7123.7 -2794.7 7243.3 -2793.9 7243.3 -2778 7123.7 -2724.5 7123.7 -2703.4 7325.5 -2744.5 7325.5 -2753.8 7179.9 -2754.5 7179.9 -2760.8 7230.1 -2778 7325.5 -2809 7325.5 -2828.3 7228.7 -2835.3 7184.1 -2835.3 7179.9 -2835.8 7179.9 -2841.6 7325.5 -2884.5 7325.5 -2866.7 7123.7 -2814.3 7123.7" fill="#b2b4b6"/>
   <rect id="rect192" x="99.64" y="278.29" width=".79015" height="4.01" fill="#b2b4b6" stroke-width=".019866"/>
   <path id="path194" d="m103.39 279.05c-0.10052-0.0327-0.20106-0.0477-0.30161-0.0477-0.69469 0-0.99489 0.63561-0.99489 1.2488 0 0.59286 0.30018 1.3266 0.98993 1.3266 0.10054 0 0.20605-0.02 0.30397-0.0502v0.73864c-0.12434 0.0503-0.23742 0.0704-0.37049 0.0704-1.137 0-1.7751-1.03-1.7751-2.0804 0-0.99488 0.6632-2.0175 1.7411-2.0175 0.13948 0 0.26762 0.0226 0.402 0.0628v0.74869" fill="#b2b4b6" stroke-width=".019866"/>
   <path id="path196" d="m104.95 281.86c0 0.27898-0.2161 0.50504-0.50252 0.50504-0.28526 0-0.50385-0.22606-0.50385-0.50504 0-0.27634 0.21859-0.49496 0.50385-0.49496 0.28642 0 0.50252 0.21862 0.50252 0.49496" fill="#b2b4b6" stroke-width=".019866"/>
   <path id="path198" d="m269.36 182.72 0.41207 0.97985c0.12562 0.33924 0.26381 0.70608 0.34161 1.0653h0.01c0.0855-0.35926 0.191-0.71865 0.3216-1.0653l0.43223-0.97985h1.5301l-1.5301 3.3894 1.6382 3.6181h-1.6382l-0.45732-1.1156c-0.13061-0.35181-0.21103-0.69854-0.30658-1.0503h-0.0301c-0.10057 0.3543-0.18093 0.69851-0.30658 1.0503l-0.41704 1.1156h-1.5854l1.515-3.6181-1.515-3.3894h1.5854" fill="#939598" stroke-width=".019866"/>
   <polyline id="polyline200" transform="matrix(.019866 0 0 .019866 152.57 136.77)" points="5099.7 3270.3 5107.8 3244.3 5141.1 3142.9 5223.5 3142.9 5136.6 3341 5136.6 3495.8 5063.3 3495.8 5063.3 3341 4974.5 3142.9 5054.8 3142.9 5093.1 3253.3 5099.7 3270.3" fill="#939598"/>
   <path id="path202" d="m285.65 198.69-1.691 7.0049h1.4272l0.2638-1.1734h1.4573l0.26629 1.1734h1.5402l-1.7563-7.0049h-1.5075m1.2412 4.7336h-1.0201l0.31154-1.8694 0.15323-1.0654h0.0226l0.16591 1.0654z" fill="#bbbdc0" stroke-width=".019866"/>
   <path id="path204" d="m270.89 217.28c0 0.53512-0.33924 0.88193-0.90208 0.88193v-1.7036c0.57289-0.0377 0.90208 0.31661 0.90208 0.82166m-0.94481 5.02c1.3694 0 2.4724-0.58541 2.4724-1.9672 0-0.61314-0.30658-1.3518-0.92717-1.6332 0.55771-0.35418 0.80401-0.82911 0.80401-1.4472 0-0.5828-0.27141-1.211-0.76883-1.5854-0.47745-0.35678-0.97987-0.37941-1.5578-0.37941h-1.4622v7.0125h1.4396zm0.99748-2.1256c0 0.59041-0.35428 0.98746-0.94978 0.96483v-1.8969c0.58805-0.0152 0.94978 0.3718 0.94978 0.9321z" fill="#bbbdc0" stroke-width=".019866"/>
   <path id="path206" d="m253.92 157.55c-0.15831-0.12315-0.33664-0.23623-0.54776-0.23623-0.22107 0-0.37428 0.14326-0.37428 0.36944 0 0.62059 1.133 0.66076 1.133 1.6833 0 0.68084-0.37937 1.1885-1.0853 1.1885-0.20109 0-0.46738-0.0705-0.63317-0.1935v-0.71104c0.16579 0.12051 0.33664 0.20091 0.55275 0.20091 0.25125 0 0.43207-0.1608 0.43207-0.41704 0-0.294-0.21598-0.39439-0.43718-0.54776-0.422-0.29388-0.69588-0.5828-0.69588-1.123 0-0.60057 0.34421-1.1282 0.9874-1.1282 0.25127 0 0.45733 0.0678 0.66833 0.18849v0.7261" fill="#808285" stroke-width=".019866"/>
   <polyline id="polyline208" transform="matrix(.019866 0 0 .019866 152.57 136.77)" points="5222.8 1003.4 5222.8 1038.9 5184.1 1038.9 5184.1 1080.4 5218 1080.4 5218 1116 5184.1 1116 5184.1 1158.8 5222.8 1158.8 5222.8 1194.5 5146.5 1194.5 5146.5 1003.4 5222.8 1003.4" fill="#808285"/>
   <polyline id="polyline210" transform="matrix(.019866 0 0 .019866 152.57 136.77)" points="5306.6 1003.4 5306.6 1158.8 5343.3 1158.8 5343.3 1194.5 5268.7 1194.5 5268.7 1003.4 5306.6 1003.4" fill="#808285"/>
   <polyline id="polyline212" transform="matrix(.019866 0 0 .019866 152.57 136.77)" points="5452.8 1003.4 5452.8 1038.9 5414.6 1038.9 5414.6 1080.4 5448.5 1080.4 5448.5 1116 5414.6 1116 5414.6 1158.8 5453.3 1158.8 5453.3 1194.5 5376.9 1194.5 5376.9 1003.4 5452.8 1003.4" fill="#808285"/>
   <path id="path214" d="m263.46 157.42c-0.0956-0.0302-0.18092-0.0503-0.26891-0.0503-0.63066 0-0.90192 0.5955-0.90192 1.1858 0 0.56282 0.26879 1.2539 0.89447 1.2539 0.0954 0 0.1808-0.0252 0.27636-0.0528v0.70347c-0.11058 0.0503-0.22117 0.0653-0.33675 0.0653-1.03 0-1.608-0.97485-1.608-1.9648 0-0.94468 0.60553-1.9196 1.578-1.9196 0.12563 0 0.24122 0.0352 0.36683 0.0753v0.70359" fill="#808285" stroke-width=".019866"/>
   <polyline id="polyline216" transform="matrix(.019866 0 0 .019866 152.57 136.77)" points="5713.3 1003.4 5713.3 1038.9 5684 1038.9 5684 1194.5 5646.1 1194.5 5646.1 1038.9 5616.2 1038.9 5616.2 1003.4 5713.3 1003.4" fill="#808285"/>
   <path id="path218" d="m276.62 157.55c-0.14578-0.12315-0.33663-0.2412-0.53264-0.2412-0.2438 0-0.38698 0.14823-0.38698 0.37441 0 0.62059 1.1407 0.66076 1.1407 1.6833 0 0.68084-0.38684 1.1885-1.093 1.1885-0.20353 0-0.46736-0.0705-0.64319-0.1935v-0.71617c0.17583 0.12564 0.34422 0.19598 0.5704 0.19598 0.24368 0 0.43206-0.15323 0.43206-0.40698 0-0.294-0.22604-0.39439-0.43718-0.54776-0.43206-0.29388-0.70099-0.5828-0.70099-1.1281 0-0.5955 0.35179-1.1231 0.99501-1.1231 0.23365 0 0.45471 0.0678 0.66074 0.18849v0.7261" fill="#808285" stroke-width=".019866"/>
   <polyline id="polyline220" transform="matrix(.019866 0 0 .019866 152.57 136.77)" points="6379 1003.4 6379 1038.9 6349.5 1038.9 6349.5 1194.5 6311 1194.5 6311 1038.9 6282.2 1038.9 6282.2 1003.4 6379 1003.4" fill="#808285"/>
   <path id="path222" d="m280.44 156.7-0.87699 3.7964h0.74376l0.13321-0.63809h0.76124l0.14066 0.63809h0.79909l-0.91464-3.7964h-0.78633m0.64568 2.5653h-0.52007l0.15323-1.015 0.0905-0.58296h5e-3l0.0804 0.58296z" fill="#808285" stroke-width=".019866"/>
   <path id="path224" d="m283.51 160.5v-1.7588h0.0152l0.66072 1.7588h0.78899l-0.66584-1.7285c0.37693-0.20603 0.55525-0.56282 0.55525-0.97985 0-1.0402-0.86179-1.088-1.3442-1.088h-0.75369v3.7964h0.7436m0-3.1782h0.10054c0.37693-0.0226 0.51262 0.19847 0.51262 0.4773 0 0.30658-0.13817 0.54019-0.4824 0.54019l-0.13074-7e-3v-1.01z" fill="#808285" stroke-width=".019866"/>
   <polyline id="polyline226" transform="matrix(.019866 0 0 .019866 152.57 136.77)" points="6784.3 1003.4 6784.3 1038.9 6753.9 1038.9 6753.9 1194.5 6716.4 1194.5 6716.4 1038.9 6686.5 1038.9 6686.5 1003.4 6784.3 1003.4" fill="#808285"/>
   <path id="path228" d="m31.976 160.6v-1.5679l0.15961 8e-3c0.65959 0 1.0916-0.40466 1.0916-1.1131 0-1.2287-1.0653-1.1256-1.2148-1.1256h-0.73866v3.799h0.70218m0-3.1784h0.13948c0.31155 0 0.4045 0.21613 0.4045 0.48987 0 0.38947-0.19598 0.52267-0.5415 0.50765v-0.99752z" fill="#808285" stroke-width=".019866"/>
   <path id="path230" d="m35.023 156.74c-0.63062 0-1.2625 0.5326-1.2625 1.9622 0 1.4272 0.63183 1.9598 1.2625 1.9598 0.63563 0 1.2588-0.53264 1.2588-1.9598 0-1.4296-0.62321-1.9622-1.2588-1.9622m-0.49626 1.9597c0-0.34172 0.03403-1.2638 0.49626-1.2638 0.46855 0 0.50999 0.92209 0.50999 1.2638 0 0.30149-0.04144 1.2663-0.50999 1.2663-0.46223 0-0.49626-0.96482-0.49626-1.2663z" fill="#808285" stroke-width=".019866"/>
   <path id="path232" d="m37.413 156.8 0.30396 1.8116c0.04029 0.26877 0.04776 0.53757 0.07168 0.81147h0.01005c0.03385-0.2739 0.04887-0.54268 0.10303-0.81147l0.36302-1.8116h0.56035l0.45844 2.623h0.01011c0.02261-0.27126 0.02507-0.53264 0.06653-0.80154l0.27767-1.819h0.75119l-0.75119 3.7965h-0.61183l-0.36552-2.005c-0.01766-0.23115-0.06916-0.46229-0.10056-0.69342h-0.01005c-0.03387 0.23115-0.05398 0.46229-0.10798 0.69342l-0.41455 2.005h-0.61435l-0.72618-3.7965h0.72618" fill="#808285" stroke-width=".019866"/>
   <polyline id="polyline234" transform="matrix(.019866 0 0 .019866 152.57 136.77)" points="-5543.6 1008.6 -5543.6 1043.7 -5579.8 1043.7 -5579.8 1085.7 -5548 1085.7 -5548 1121.1 -5579.8 1121.1 -5579.8 1164.1 -5543 1164.1 -5543 1199.8 -5615.4 1199.8 -5615.4 1008.6 -5543.6 1008.6" fill="#808285"/>
   <path id="path236" d="m43.914 160.6v-1.7538h0.0075l0.62556 1.7538h0.74622l-0.62556-1.7287c0.35547-0.20095 0.50999-0.56778 0.50999-0.97985 0-1.0402-0.80517-1.0904-1.2638-1.0904h-0.70478v3.799h0.7048m0-3.1784h0.09544c0.36054-0.0177 0.4761 0.19847 0.4761 0.46985 0 0.31403-0.1243 0.54515-0.4459 0.54515l-0.12315-7e-3v-1.0076h-0.0025z" fill="#808285" stroke-width=".019866"/>
   <path id="path238" d="m308.05 142.25-0.29156-8.5124c0-7.716-5.1984-12.484-11.962-12.618v-128.96c0-6.8328-5.5402-12.367-12.374-12.367h-258.52c-6.8227 0-12.367 5.5338-12.367 12.367v128.94c-6.775 0.13569-11.967 4.9221-11.967 12.638l-0.29273 8.5124c-0.00743 0.96981 0.23623 1.5025 1.0729 1.5025h1.397c-0.093075 0.3416-0.16724 0.69586-0.31665 1.0401-0.21857 0.5327-0.54265 1.01-0.6257 1.603-0.06405 0.56775-0.89944 5.5929-0.89944 12.894l-0.011264 116.97c-0.00759 10.095 7.9508 18.407 18.046 18.839 22.746 0.99491 45.501 1.9798 68.258 1.4999 0.52634-7e-3 1.2035-0.0276 1.9057-0.14578 1.8807-0.31399 3.7564-0.63561 5.6319-0.98234 0.71486-0.14065 2.1583-0.21096 2.1583-0.21096h114.55s1.4497 0.0703 2.1657 0.21096c1.8718 0.34673 3.7488 0.66837 5.6256 0.98234 0.71106 0.11819 1.3919 0.13833 1.9095 0.14578 22.761 0.47993 45.507-0.50501 68.248-1.4999 10.09-0.43218 18.045-8.7437 18.045-18.839v-116.97c0-7.3013-0.84165-12.326-0.91452-12.894-0.0804-0.59305-0.40706-1.0703-0.62811-1.603-0.13325-0.34673-0.2211-0.69851-0.30658-1.0401h1.397c0.83165 0 1.0804-0.53272 1.0654-1.5025z" fill="none" stroke="#231f20" stroke-width=".54287"/>
   <path id="path240" d="m23.023 202.51c0-2.3417 0.55404-4.5578 1.5113-6.5427l-7.0778-0.015c-0.7525 0-1.1532 0.23612-1.3843 0.96728-1.2199 3.8769-1.2199 7.3089 0 11.178 0.22852 0.7388 0.61433 1.0125 1.3843 1.0125h7.103c-0.9724-2-1.5365-4.2335-1.5365-6.6004" fill="#313133" stroke-width=".019866"/>
   <path id="path242" d="m23.023 202.51c0-2.3417 0.55404-4.5578 1.5113-6.5427l-7.0778-0.015c-0.7525 0-1.1532 0.23612-1.3843 0.96728-1.2199 3.8769-1.2199 7.3089 0 11.178 0.22852 0.7388 0.61433 1.0125 1.3843 1.0125h7.103c-0.9724-2-1.5365-4.2335-1.5365-6.6004z" fill="none" stroke="#231f20" stroke-width=".34733"/>
   <path id="path244" d="m60.118 196.92c-0.23113-0.73118-0.60424-1.005-1.3731-1.005h-7.1633c0.97735 1.9874 1.5415 4.2286 1.5415 6.5903 0 2.3668-0.56411 4.603-1.5415 6.6005h7.1633c0.76883 0 1.1419-0.2739 1.3731-1.0125 1.2248-3.8644 1.2248-7.2964 0-11.173" fill="#313133" stroke-width=".019866"/>
   <path id="path246" d="m60.118 196.92c-0.23113-0.73118-0.60424-1.005-1.3731-1.005h-7.1633c0.97735 1.9874 1.5415 4.2286 1.5415 6.5903 0 2.3668-0.56411 4.603-1.5415 6.6005h7.1633c0.76883 0 1.1419-0.2739 1.3731-1.0125 1.2248-3.8644 1.2248-7.2964 0-11.173z" fill="none" stroke="#231f20" stroke-width=".34733"/>
   <path id="path248" d="m38.072 187.46c2.3618 0 4.5804 0.55773 6.579 1.5252l0.0076-7.1232c0-0.74622-0.24251-1.1406-0.96988-1.3743-3.8768-1.2261-7.3064-1.2261-11.182 0-0.72725 0.23367-0.96482 0.62804-0.96482 1.3743l0.0076 7.0979c1.9786-0.95723 4.1833-1.4999 6.5225-1.4999" fill="#313133" stroke-width=".019866"/>
   <path id="path250" d="m38.072 187.46c2.3618 0 4.5804 0.55773 6.579 1.5252l0.0076-7.1232c0-0.74622-0.24251-1.1406-0.96988-1.3743-3.8768-1.2261-7.3064-1.2261-11.182 0-0.72725 0.23367-0.96482 0.62804-0.96482 1.3743l0.0076 7.0979c1.9786-0.95723 4.1833-1.4999 6.5225-1.4999z" fill="none" stroke="#231f20" stroke-width=".34733"/>
   <path id="path252" d="m38.072 217.56c-2.3592 0-4.5842-0.55773-6.5678-1.5326v7.1255c0 0.77382 0.27257 1.1357 1.0025 1.3794 3.8756 1.2161 7.3015 1.2161 11.182 0 0.72739-0.24373 1.0064-0.60557 1.0064-1.3794v-7.1407c-2.0026 0.98-4.2462 1.5478-6.6231 1.5478" fill="#313133" stroke-width=".019866"/>
   <path id="path254" d="m218.62 243.61v-92.929c0-1.49-1.1382-2.1608-2.1508-2.1608h-124.6c-1.0163 0-2.1431 0.54267-2.1431 2.1608v92.929c0 1.6381 1.0753 2.1508 2.1431 2.1508h124.6c1.0504 0 2.1508-0.83423 2.1508-2.1508zm-180.55-26.055c-2.3592 0-4.5842-0.55773-6.5678-1.5326v7.1255c0 0.77382 0.27257 1.1357 1.0025 1.3794 3.8756 1.2161 7.3015 1.2161 11.182 0 0.72739-0.24373 1.0064-0.60557 1.0064-1.3794v-7.1407c-2.0026 0.98-4.2462 1.5478-6.6231 1.5478z" fill="none" stroke="#231f20" stroke-width=".34733"/>
   <path id="path256" d="m218.62 244.64c0 0.61811-0.46487 1.1231-1.0477 1.1231h-126.76c-0.57664 0-1.0452-0.50252-1.0452-1.1231v-95.049c0-0.62059 0.46855-1.1231 1.0452-1.1231h126.76c0.58529 0 1.0477 0.50004 1.0477 1.1231z" fill="#e1e7e7" stroke-width=".019866"/>
   <path id="path258" d="m218.62 105.03c0 0.61809-0.46487 1.122-1.0477 1.122h-126.76c-0.57664 0-1.0452-0.50125-1.0452-1.122v-95.048c0-0.62061 0.46855-1.1218 1.0452-1.1218h126.76c0.58529 0 1.0477 0.50121 1.0477 1.1218z" fill="#e1e7e7" stroke-width=".019866"/>
   <g id="g892" transform="matrix(.14986 0 0 .14986 99.229 37.981)">
    <path id="path100608" d="m458.94 98.497c0 1.0793-0.88502 2.0506-1.9751 2.0506h-37.797c-1.1009 0-1.9859-0.97132-1.9859-2.0506v-27.306c0-1.0793 0.88502-1.9427 1.9859-1.9427h37.797c1.0901 0 1.9751 0.86345 1.9751 1.9427zm-1.6405-37.451h-38.477c-5.5691 0-10.113 4.533-10.113 10.145v27.414c0 5.5044 4.5438 10.145 10.113 10.145h38.477c5.5799 0 10.113-4.641 10.113-10.145v-27.414c0-5.6123-4.533-10.145-10.113-10.145" fill="#929497"/>
    <path id="path100618" d="m15.917 20.032v35.293h-8.8286v-47.704h7.5442l35.757 34.753v-34.753h7.0693 1.6405v47.704h-6.8966l-36.286-35.293" fill="#221f1f"/>
    <path id="path100622" d="m104.43 20.032v35.293h-8.8286v-47.704h7.5334l35.757 34.753v-34.753h7.0801 1.6405v47.704h-6.8967l-36.286-35.293" fill="#221e1f"/>
    <path id="path100626" d="m287.88 20.032v35.293h-8.8286v-47.704h7.5334l35.757 34.753v-34.753h7.0801 1.6405v47.704h-6.8859l-36.296-35.293" fill="#221e1f"/>
    <path id="path100630" d="m80.124 7.6205h1.6297v47.704h-8.8286v-47.704h7.1988" fill="#221e1f"/>
    <path id="path100634" d="m207.74 7.6205h1.6189v8.2026h-21.284v39.502h-9.174v-39.502h-21.284v-8.2026h50.122" fill="#221e1f"/>
    <path id="path100638" d="m264.29 7.6205h1.6513v8.2026h-37.84v10.685h29.27v8.2026h-29.27v12.412h37.84v8.2026h-46.582v-47.704h44.931" fill="#221e1f"/>
    <path id="path100642" d="m380.14 47.122h-27.112v-31.299h27.112c8.4832 0 11.494 8.4184 11.494 15.65 0 7.1234-3.0112 15.65-11.494 15.65zm14.484-32.487c-3.4537-4.641-8.5588-7.0154-14.732-7.0154h-35.379v47.704h35.379c6.1735 0 11.279-2.4824 14.732-7.0154 3.2379-4.2093 4.9539-10.037 4.9539-16.837 0-6.7995-1.7161-12.628-4.9539-16.837" fill="#221e1f"/>
    <path id="path100646" d="m458.94 45.18c0 0.97131-0.88502 1.9427-1.9751 1.9427h-37.797c-1.1009 0-1.9859-0.9714-1.9859-1.9427v-27.414c0-1.0792 0.88502-1.9427 1.9859-1.9427h37.797c1.0901 0 1.9751 0.86346 1.9751 1.9427zm-1.6405-37.559h-38.477c-5.5691 0-10.113 4.533-10.113 10.145v27.414c0 5.6123 4.5438 10.145 10.113 10.145h38.477c5.5799 0 10.113-4.533 10.113-10.145v-27.414c0-5.6122-4.533-10.145-10.113-10.145" fill="#221e1f"/>
    <path id="path100656" d="m617.58 88.567c9.1524 3.6695 28.482 6.5836 43.571 6.5836 16.513 0 23.345-5.6123 23.345-12.736 0-6.4757-6.3463-10.145-24.575-16.837-24.381-8.9581-42.265-16.081-42.265-32.163 0-16.513 21.521-26.335 54.321-26.335 17.614 0 23.658 1.0792 34.839 3.1299l0.0864 15.758c-10.987-2.0506-20.722-5.6123-35.843-5.6123-16.211 0-23.118 5.1806-23.118 10.469 0 7.663 10.642 11.333 29.303 18.024 25.978 9.2819 40.43 16.405 40.43 32.055 0 16.189-18.1 27.846-58.918 27.846-16.761 0-28.321-1.0793-41.175-3.2379v-16.945" fill="#221e1f"/>
    <path id="path100660" d="m530.69 21.004h-19.427v73.608h19.427c29.821 0 48.633-12.844 48.633-36.696 0-23.852-18.812-36.912-48.633-36.912zm52.14 80.407c-9.6057 4.3172-27.781 7.1233-43.668 7.1233h-60.721v-101.24h60.721c15.887 0 34.062 2.8062 43.69 7.1233 23.388 10.577 31.008 27.522 31.008 43.495 0 15.973-7.555 32.918-31.03 43.495" fill="#221e1f"/>
   </g>
  </g>
 </g>
</svg>
