<?xml version="1.0" encoding="UTF-8"?>
<!-- Generator: Adobe Illustrator 19.0.0, SVG Export Plug-In . SVG Version: 6.00 Build 0)  -->
<svg id="Calque_1" width="1003.2" height="409.48" version="1.1" viewBox="0 0 1003.2 409.48" xml:space="preserve" xmlns="http://www.w3.org/2000/svg" xmlns:cc="http://creativecommons.org/ns#" xmlns:dc="http://purl.org/dc/elements/1.1/" xmlns:rdf="http://www.w3.org/1999/02/22-rdf-syntax-ns#"><metadata id="metadata727"><rdf:RDF><cc:Work rdf:about=""><dc:format>image/svg+xml</dc:format><dc:type rdf:resource="http://purl.org/dc/dcmitype/StillImage"/><dc:title/></cc:Work></rdf:RDF></metadata><g id="g3" transform="matrix(1.2737 0 0 1.2737 .12737 0)"><path id="path5" d="m23.8 0.1 9.5-0.1v2.2h269.4v-2.2h7.9 1.3c21 0.8 23.1 19.1 23.1 19.1v268.9s0.7 5.2-1.8 7.8c-4.8 5.1-21.6 22.4-25.4 25.4h-282.7s-20.3-19.1-22.4-20c-1.4-1.9-2.8-4.9-2.8-12.7v-269.4c0.1 0 2.9-18 23.9-19z" fill="#312f2f"/><path id="XMLID_748_" d="m308.1 320.9c-0.1 0.3-0.1 0.5-0.2 0.6h-280.9s-7.7-129.5 39.2-135.9c8.7-1 19.5 1.3 44 7.1 24.5 5.9 89.9 5.9 114.5 0 24.5-5.9 35.3-7.1 44-7.1 16.3 0 26.3 15.8 32.3 36.7 10.9 37.7 8.9 91.6 7.1 98.6z" fill="#3f3f3f"/><path id="XMLID_746_" d="m168 201.7c-33.2 0-39.8-1.6-45.4-2.4-5.7-0.8-4 4.4-4 4.4s2.9 19.1 3.2 26.4c0.4 7.3 8.2 6.3 8.2 6.3h76s7.8 1 8.2-6.3 3.2-26.4 3.2-26.4 1.7-5.1-4-4.4c-5.6 0.7-12.2 2.4-45.4 2.4z" fill="#181515"/><ellipse id="XMLID_745_" cx="168" cy="99.4" rx="142.6" ry="81.9" fill="#30302f"/><ellipse id="XMLID_744_" cx="168" cy="99.2" rx="141.1" ry="80.4" fill="#181515"/><ellipse id="XMLID_743_" cx="168" cy="97.3" rx="116" ry="65.2" fill="#2c2929"/><polygon id="XMLID_742_" points="160.7 131.6 175.3 131.6 167.9 124.1" fill="#241c1e"/><g id="SEGA_1_" fill="#eff8fb"><path id="XMLID_724_" d="m190.3 224.1h-7.1v-1.7h4.9c-0.4-1.1-0.6-1.9-0.9-2.8-0.7-2.2-1.4-4.4-2.1-6.5-0.2-0.5-0.7-1.2-1.2-1.3-0.8-0.2-1 0.6-1.2 1.3-1.1 3.3-2.2 6.7-3.2 10-0.2 0.8-0.6 1.1-1.4 1-2.2-0.1-4.4 0-6.5 0-2.2 0-3.7-1.5-3.7-3.8v-6.2c0.1-2.3 1.5-3.7 3.7-3.8h6v1.7h-5c-2.4 0-2.9 0.6-2.9 3.1v4.7c0 1.7 0.8 2.5 2.3 2.5h3.9v-5.4h-3.2v-1.7h5v7.1h0.3c1.1-3.3 2.1-6.6 3.2-9.9 0.6-1.9 1.7-2.6 3.5-2.4 1 0.2 1.7 0.7 2.1 1.7 1.3 3.9 2.6 7.9 3.8 11.9-0.2 0.3-0.3 0.3-0.3 0.5z"/><path id="XMLID_723_" d="m145.8 224.1v-1.7h5.6c1.6 0 2.7-1.2 2.8-2.6s-1.1-2.7-2.6-2.8c-0.6 0-1.2 0-1.9-0.1-1-0.1-1.6-1-1.6-2s0.7-2 1.6-2c2-0.1 4.1 0 6.2 0v1.7h-3.1-2.9v0.6c0.6 0 1.1 0.1 1.7 0.1 2.1 0 3.7 1.3 4.2 3.4 0.7 2.6-1.2 5.4-3.8 5.5-2 0-4-0.1-6.2-0.1z"/><path id="XMLID_722_" d="m145.8 221.7v-1.8h6v-0.5c-0.6 0-1.2-0.1-1.8-0.1-1.7 0-3-0.9-3.7-2.4-0.8-1.6-0.6-3.2 0.4-4.7 0.7-1 1.6-1.7 2.9-1.7 2.1-0.1 4.2 0 6.4 0v1.7h-5.7c-1.9 0-3.1 1.8-2.5 3.6 0.3 1.1 1.3 1.8 2.6 1.8 0.6 0 1.2 0 1.8 0.1 0.9 0.1 1.7 1 1.7 2s-0.7 2-1.6 2h-6.5z"/><path id="XMLID_721_" d="m166.8 210.5v1.7h-5.6c-2 0-2.6 0.7-2.6 2.7v4.9c0 1.9 0.7 2.6 2.5 2.6h5.7v1.7h-4.1-2.6c-1.6-0.1-3-1.6-3.1-3.3-0.1-2.4-0.1-4.8 0-7.1 0-1.5 1.3-3.1 2.8-3.2 2.3-0.1 4.6 0 7 0z"/><path id="XMLID_718_" d="m179.6 224c1.2-3.7 2.4-7.4 3.6-11 0.1-0.3 0.4-0.5 0.6-0.6 0.1 0 0.5 0.2 0.6 0.4 1 2.9 1.9 5.8 2.9 8.8h-4.1c0-0.4-0.1-0.8-0.1-1.2-0.1 0-0.1 0-0.2-0.1-0.2 0.7-0.5 1.3-0.7 2-0.6 1.9-0.6 1.9-2.6 1.7zm3.5-4.3h1.4c-0.2-0.7-0.4-1.3-0.6-1.9h-0.2c-0.2 0.6-0.4 1.2-0.6 1.9z"/><path id="XMLID_717_" d="m173.6 219.5c-0.5-0.2-0.8-0.2-1.2-0.4v-1.5h2.6v4c-1.3 0-2.7 0.1-4-0.1-0.3 0-0.9-0.7-0.9-1.1-0.1-2.2-0.1-4.3 0-6.5 0-0.8 0.5-1.2 1.2-1.2h6.1v1.7h-4.5c-0.9 0-1.3 0.3-1.2 1.2 0.1 1 0 2 0 3 0 1.4 0.6 1.7 1.9 0.9z"/><path id="XMLID_359_" d="m161.1 219.8c1.9 0.3 3.8 0 5.7 0.2v1.6c-2.2 0-4.4 0.1-6.5-0.1-0.3 0-0.9-0.7-0.9-1.2-0.2-0.9 0-1.8 0-2.8h6.1v1.6h-4.3c-0.1 0.4-0.1 0.5-0.1 0.7z"/><path id="XMLID_358_" d="m166.8 212.8v1.6c-1.9 0.3-3.9-0.2-5.8 0.2v0.4h4.3v1.7h-6.1c0-1-0.1-2 0-3.1 0-0.4 0.6-0.9 1-0.9 2.3 0.1 4.4 0.1 6.6 0.1z"/></g><g id="XMLID_212_" fill="#241c1e"><path id="XMLID_53_" d="m143.7 135.9-1.3 0.1c0-0.9-0.3-1.3-0.8-1.3-0.6 0-0.9 0.7-0.9 2 0 0.8 0.1 1.3 0.3 1.5 0.2 0.3 0.4 0.4 0.7 0.4 0.5 0 0.8-0.4 0.9-1.1l1.2 0.1c-0.1 0.7-0.3 1.3-0.7 1.6-0.4 0.4-0.8 0.6-1.4 0.6-0.7 0-1.2-0.3-1.6-0.8-0.4-0.6-0.6-1.3-0.6-2.3 0-0.9 0.2-1.7 0.6-2.2 0.4-0.6 1-0.9 1.7-0.9 1.1-0.1 1.7 0.7 1.9 2.3z"/><path id="XMLID_50_" d="m146.4 133.6 1.6 6h-1.3l-0.3-1.2h-1.6l-0.3 1.2h-1l1.6-6h1.3zm-1.3 3.7h1.1l-0.5-2.1-0.6 2.1z"/><path id="XMLID_47_" d="m149.5 137.2v2.4h-1.2v-6h2.2c0.4 0 0.7 0.1 1 0.2s0.5 0.3 0.6 0.6c0.2 0.3 0.2 0.6 0.2 1 0 0.7-0.3 1.2-0.9 1.6l0.9 2.7h-1.3l-0.8-2.4h-0.7zm0-2.5v1.5h0.7c0.2 0 0.4 0 0.5-0.1s0.2-0.1 0.3-0.3 0.1-0.3 0.1-0.5 0-0.3-0.1-0.5-0.2-0.2-0.3-0.2h-0.6-0.6z"/><path id="XMLID_45_" d="m156.3 133.6v1.2h-1.3v4.8h-1.2v-4.8h-1.3v-1.2h3.8z"/><path id="XMLID_42_" d="m157.9 137.2v2.4h-1.2v-6h2.2c0.4 0 0.7 0.1 1 0.2s0.5 0.3 0.6 0.6c0.2 0.3 0.2 0.6 0.2 1 0 0.7-0.3 1.2-0.9 1.6l0.9 2.7h-1.3l-0.8-2.4h-0.7zm0-2.5v1.5h0.7c0.2 0 0.4 0 0.5-0.1 0.1 0 0.2-0.1 0.3-0.3 0.1-0.1 0.1-0.3 0.1-0.5s0-0.3-0.1-0.5c-0.1-0.1-0.2-0.2-0.3-0.2h-0.6-0.6z"/><path id="XMLID_40_" d="m162.4 133.6v6h-1.2v-6h1.2z"/><path id="XMLID_37_" d="m162.7 133.6h1.6c0.6 0 1.1 0.1 1.4 0.3s0.6 0.5 0.8 1c0.2 0.4 0.4 1 0.4 1.7 0 0.9-0.2 1.6-0.6 2.2s-1 0.9-1.8 0.9h-1.8v-6.1zm1.2 1.1v3.8h0.5c0.4 0 0.8-0.2 1-0.6s0.3-0.8 0.3-1.4c0-0.4-0.1-0.7-0.2-1s-0.3-0.5-0.4-0.7c-0.2-0.1-0.4-0.2-0.6-0.2h-0.6z"/><path id="XMLID_35_" d="m171.3 136.4s0 1.9-0.7 2.6-0.8 0.7-1.4 0.7c-0.7 0-1.2-0.3-1.6-0.8-0.4-0.6-0.6-1.3-0.6-2.2 0-1 0.2-1.7 0.6-2.3s0.9-0.9 1.6-0.9c0.6 0 1 0.2 1.4 0.6s0.6 0.9 0.6 1.5l-1.1 0.2c-0.1-0.7-0.4-1.1-0.9-1.1-0.3 0-0.6 0.2-0.7 0.5-0.2 0.3-0.2 0.8-0.2 1.5 0 0.6 0.1 1.1 0.3 1.4s0.4 0.5 0.8 0.5c0.2 0 0.4-0.1 0.6-0.2s0.3-0.4 0.3-0.8h-1v-1.1h2z"/><path id="XMLID_33_" d="m175.3 134.8h-2.4v1.2h1.9v1.1h-1.9v1.3h2.4v1.2h-3.6v-6h3.6v1.2z"/><path id="XMLID_31_" d="m180 133.6v6h-1.2v-6h1.2z"/><path id="XMLID_29_" d="m184.2 133.6v6h-1l-2-4.1v0.2 0.3 3.6h-0.9v-6h1.3l1.7 3.6v-0.4-3.2h0.9z"/><path id="XMLID_26_" d="m185.6 137.4v2.2h-1.2v-6h2c0.4 0 0.8 0.1 1 0.2s0.4 0.3 0.6 0.6 0.3 0.6 0.3 1.1c0 0.3 0 0.6-0.1 0.9s-0.2 0.5-0.4 0.7-0.4 0.3-0.5 0.3c-0.2 0.1-0.4 0.1-0.8 0.1h-0.9zm0-1.1h0.8c0.3 0 0.5-0.1 0.6-0.2s0.2-0.3 0.2-0.6c0-0.2-0.1-0.4-0.2-0.6-0.1-0.1-0.3-0.2-0.6-0.2h-0.8v1.6z"/><path id="XMLID_24_" d="m192.7 133.6v3.8c0 0.6-0.1 1.1-0.2 1.4s-0.3 0.5-0.6 0.7-0.7 0.3-1.2 0.3-0.9-0.1-1.2-0.3-0.5-0.4-0.7-0.7-0.2-0.8-0.2-1.4v-3.8h1.3v3.8c0 0.3 0 0.6 0.1 0.7 0 0.2 0.1 0.3 0.3 0.4s0.3 0.1 0.5 0.1 0.4 0 0.5-0.1 0.2-0.2 0.3-0.4c0-0.1 0.1-0.4 0.1-0.7v-3.8h1z"/><path id="XMLID_1_" d="m196.7 133.6v1.2h-1.3v4.8h-1.2v-4.8h-1.2v-1.2h3.7z"/></g><g id="g37"><path id="path39" d="m254.7 114.6h-173.4c-10.3 0-18.8-8.5-18.8-18.8s8.5-18.8 18.8-18.8h173.4c10.3 0 18.8 8.5 18.8 18.8 0 10.4-8.4 18.8-18.8 18.8z" fill="#181515"/><path id="path41" d="m167.7 110.4h83.2c5.6 0 10.1-4.3 10.1-19h-10.1v-7.6h0.3-83.2-83.2 0.3v7.6h-10.1c0 14.7 4.5 19 10.1 19h83.2"/><path id="path43" d="m167.7 109.4h82.4c5.5 0 10-4 10-17.6h-10v-7h0.3-82.4-82.4 0.3v7h-10c0 13.6 4.5 17.6 10 17.6h82.4" fill="#282424"/><rect id="rect45" x="76.4" y="98.3" width="183.2" height=".9" fill="#010102"/><g id="g47"><g id="g49"><path id="path51" d="m97.8 87.4h-1.8c0-0.4 0.4-0.7 0.9-0.7s0.9 0.4 0.9 0.7z" fill="#363636"/><path id="path53" d="m97.8 95.5h-1.8c0 0.4 0.4 0.7 0.9 0.7s0.9-0.3 0.9-0.7z" fill="#464646"/><rect id="rect55" x="96.1" y="87.4" width="1.8" height="8" fill="#424141"/></g><g id="g57"><path id="path59" d="m97.8 101.4h-1.8c0-0.3 0.4-0.6 0.9-0.6s0.9 0.3 0.9 0.6z" fill="#363636"/><path id="path61" d="m97.8 107.9h-1.8c0 0.3 0.4 0.6 0.9 0.6s0.9-0.3 0.9-0.6z" fill="#464646"/><rect id="rect63" x="96.1" y="101.4" width="1.8" height="6.5" fill="#424141"/></g><g id="g65"><path id="path67" d="m238.2 87.4h1.8c0-0.4-0.4-0.7-0.9-0.7s-0.9 0.4-0.9 0.7z" fill="#363636"/><path id="path69" d="m238.2 95.5h1.8c0 0.4-0.4 0.7-0.9 0.7s-0.9-0.3-0.9-0.7z" fill="#464646"/><rect id="rect71" x="238.2" y="87.4" width="1.8" height="8" fill="#424141"/></g><g id="g73"><path id="path75" d="m238.2 101.4h1.8c0-0.3-0.4-0.6-0.9-0.6s-0.9 0.3-0.9 0.6z" fill="#363636"/><path id="path77" d="m238.2 107.9h1.8c0 0.3-0.4 0.6-0.9 0.6s-0.9-0.3-0.9-0.6z" fill="#464646"/><rect id="rect79" x="238.2" y="101.4" width="1.8" height="6.5" fill="#424141"/></g></g></g><path id="XMLID_250_" d="m41.4 206.5c5.8-11.4 15-17.2 25.8-18.7 8.7-1 21.3 3.6 45.8 9.5 12.3 2.9 31.8 4.4 54.4 4.3 22.6 0 42.1-1.4 54.4-4.3 24.5-5.9 37.2-10.5 45.8-9.5 10.8 1.5 21.1 6.9 26.8 18.4-6.1-12.4-14.6-20.5-26.2-20.5-8.7 0-19.5 1.3-44 7.1-12.2 2.9-34.5 4.4-56.9 4.4-22.6 0-45.3-1.4-57.6-4.4-24.5-5.9-35.3-8.1-44-7.1-10.6 1.4-18.5 9.4-24.3 20.8z" fill="#181515"/><g id="g82"><path id="XMLID_350_" d="m269 259.9c0 12.4-14.2 14.5-14.2 14.5h-86.8-86.7c-2.5 0-14.3-2.1-14.3-14.5s14.2-14.5 14.2-14.5h86.8 86.7c0.1 0 14.3 2.1 14.3 14.5z" fill="#3f4040"/><path id="XMLID_349_" d="m257 271h-177.6c-4.8 0-8.8-3.9-8.8-8.8v-4.6c0-4.8 3.9-8.8 8.8-8.8h177.6c4.8 0 8.8 3.9 8.8 8.8v4.6c0 4.9-4 8.8-8.8 8.8z" fill="#333"/><path id="voyant_6_" d="m164 266.3h-2.4c-0.3 0-0.6-0.3-0.6-0.6v-10.7c0-0.3 0.3-0.6 0.6-0.6h2.4c0.3 0 0.6 0.3 0.6 0.6v10.7c0 0.3-0.3 0.6-0.6 0.6z" fill="#631418"/><path id="voyant_5_" d="m169.2 266.3h-2.4c-0.3 0-0.6-0.3-0.6-0.6v-10.7c0-0.3 0.3-0.6 0.6-0.6h2.4c0.3 0 0.6 0.3 0.6 0.6v10.7c0 0.3-0.3 0.6-0.6 0.6z" fill="#631418"/><path id="voyant_4_" d="m174.4 266.3h-2.4c-0.3 0-0.6-0.3-0.6-0.6v-10.7c0-0.3 0.3-0.6 0.6-0.6h2.4c0.3 0 0.6 0.3 0.6 0.6v10.7c0 0.3-0.3 0.6-0.6 0.6z" fill="#631418"/><path id="bouton_8_" d="m255.1 267.6h-32.7c-3.4 0-6.1-2.7-6.1-6.1v-3.2c0-3.4 2.7-6.1 6.1-6.1h32.7c3.4 0 6.1 2.7 6.1 6.1v3.2c0 3.4-2.8 6.1-6.1 6.1z" fill="#212020"/><path id="bouton_6_" d="m114.3 267.6h-32.7c-3.4 0-6.1-2.7-6.1-6.1v-3.2c0-3.4 2.7-6.1 6.1-6.1h32.7c3.4 0 6.1 2.7 6.1 6.1v3.2c0 3.4-2.7 6.1-6.1 6.1z" fill="#212020"/><path id="bouton_5_" d="m109.6 263h-22.6c-1 0-1.8-0.8-1.8-1.8v-2.8c0-1 0.8-1.8 1.8-1.8h22.6c1 0 1.8 0.8 1.8 1.8v2.8c-0.1 1.1-0.9 1.8-1.8 1.8z" fill="#5c5c5c"/><g id="g92" fill="#241c1e"><path id="path94" d="m88.6 258.1h1.4 0.4c0.1 0 0.2 0 0.3 0.1 0.1 0 0.2 0.1 0.3 0.1 0.1 0.1 0.2 0.1 0.2 0.2s0.1 0.2 0.2 0.3c0 0.1 0.1 0.2 0.1 0.4 0 0.4-0.1 0.7-0.4 0.9-0.2 0.2-0.6 0.3-1.1 0.3h-0.8v1.4h-0.7v-3.7zm0.7 1.7h0.8 0.3c0.1 0 0.2-0.1 0.2-0.1 0.1 0 0.1-0.1 0.1-0.2v-0.2c0-0.1 0-0.2-0.1-0.3 0-0.1-0.1-0.1-0.2-0.2-0.1 0-0.1-0.1-0.2-0.1h-0.3-0.8v1.1z"/><path id="path96" d="m93.8 258c0.3 0 0.5 0 0.7 0.1s0.4 0.2 0.6 0.4 0.3 0.4 0.4 0.6 0.1 0.5 0.1 0.8 0 0.5-0.1 0.8c-0.1 0.2-0.2 0.4-0.4 0.6s-0.3 0.3-0.6 0.4-0.5 0.1-0.7 0.1-0.5 0-0.7-0.1-0.4-0.2-0.6-0.4-0.3-0.4-0.4-0.6-0.1-0.5-0.1-0.8 0-0.5 0.1-0.8c0.1-0.2 0.2-0.4 0.4-0.6s0.3-0.3 0.6-0.4c0.3 0 0.5-0.1 0.7-0.1zm0 3.3c0.2 0 0.3 0 0.4-0.1s0.2-0.1 0.3-0.3c0.1-0.1 0.2-0.2 0.2-0.4 0.1-0.2 0.1-0.3 0.1-0.5s0-0.4-0.1-0.5-0.1-0.3-0.2-0.4l-0.3-0.3c-0.1-0.1-0.3-0.1-0.4-0.1-0.2 0-0.3 0-0.4 0.1s-0.2 0.1-0.3 0.3c-0.1 0.1-0.2 0.2-0.2 0.4s-0.1 0.3-0.1 0.5 0 0.4 0.1 0.5 0.1 0.3 0.2 0.4l0.3 0.3c0.1 0 0.3 0.1 0.4 0.1z"/><path id="path98" d="m100.8 258.1-1 3.7h-0.6l-0.8-2.7-0.7 2.7h-0.7l-1-3.7h0.7l0.6 2.5 0.7-2.5h0.7l0.7 2.5 0.6-2.5h0.8z"/><path id="path100" d="m104.2 261.8h-2.8v-3.7h2.8v0.6h-2.2v0.8h1.9v0.6h-1.9v1h2.1v0.7z"/><path id="path102" d="m108.1 261.8h-0.7l-0.4-1c0-0.1-0.1-0.1-0.1-0.2s-0.1-0.1-0.1-0.2c-0.1 0-0.1-0.1-0.2-0.1h-0.2-0.7v1.5h-0.7v-3.7h1.7 0.3 0.3c0.1 0 0.2 0 0.2 0.1 0.1 0 0.1 0.1 0.2 0.1l0.2 0.2c0.1 0.1 0.1 0.1 0.1 0.2s0.1 0.1 0.1 0.2v0.2c0 0.2-0.1 0.4-0.2 0.6s-0.3 0.3-0.5 0.4c0.2 0.1 0.3 0.3 0.4 0.6l0.3 1.1zm-2.5-2.1h0.9 0.3c0.1 0 0.2 0 0.2-0.1 0.1 0 0.1-0.1 0.1-0.2v-0.2c0-0.2-0.1-0.3-0.2-0.4s-0.3-0.1-0.5-0.1h-1v1z"/></g><path id="bouton_7_" d="m250 263h-22.6c-1 0-1.8-0.8-1.8-1.8v-2.8c0-1 0.8-1.8 1.8-1.8h22.6c1 0 1.8 0.8 1.8 1.8v2.8c-0.1 1.1-0.8 1.8-1.8 1.8z" fill="#5c5c5c"/><g id="g105" fill="#241c1e"><path id="path107" d="m233.4 261.8h-0.7l-0.4-1c0-0.1-0.1-0.1-0.1-0.2s-0.1-0.1-0.1-0.2c-0.1 0-0.1-0.1-0.2-0.1h-0.2-0.7v1.5h-0.7v-3.7h1.7 0.3 0.3c0.1 0 0.2 0 0.2 0.1 0.1 0 0.1 0.1 0.2 0.1l0.2 0.2c0.1 0.1 0.1 0.1 0.1 0.2s0.1 0.1 0.1 0.2v0.2c0 0.2-0.1 0.4-0.2 0.6s-0.3 0.3-0.5 0.4c0.2 0.1 0.3 0.3 0.4 0.6l0.3 1.1zm-2.5-2.1h0.9 0.3c0.1 0 0.2 0 0.2-0.1 0.1 0 0.1-0.1 0.1-0.2v-0.2c0-0.2-0.1-0.3-0.2-0.4s-0.3-0.1-0.5-0.1h-1v1z"/><path id="path109" d="m236.9 261.8h-2.8v-3.7h2.8v0.6h-2.1v0.8h1.9v0.6h-1.9v1h2.1v0.7z"/><path id="path111" d="m239.1 261.9c-0.3 0-0.5 0-0.7-0.1s-0.4-0.2-0.5-0.3-0.2-0.3-0.3-0.4c-0.1-0.2-0.1-0.4-0.1-0.6h0.7c0 0.1 0 0.2 0.1 0.3s0.1 0.2 0.2 0.2c0.1 0.1 0.2 0.1 0.3 0.1h0.3 0.3c0.1 0 0.2-0.1 0.2-0.1 0.1 0 0.1-0.1 0.2-0.2 0-0.1 0.1-0.1 0.1-0.2s0-0.1-0.1-0.2c0-0.1-0.1-0.1-0.2-0.1s-0.2-0.1-0.3-0.1-0.3-0.1-0.5-0.1-0.4-0.1-0.5-0.2-0.3-0.1-0.4-0.2-0.2-0.2-0.2-0.3-0.1-0.2-0.1-0.4 0-0.3 0.1-0.4l0.3-0.3c0.1-0.1 0.3-0.2 0.4-0.2 0.2-0.1 0.4-0.1 0.6-0.1s0.4 0 0.6 0.1 0.3 0.1 0.5 0.2 0.2 0.2 0.3 0.4 0.1 0.3 0.1 0.5h-0.7c0-0.4-0.3-0.6-0.8-0.6-0.2 0-0.4 0-0.5 0.1s-0.2 0.2-0.2 0.3v0.1l0.1 0.1s0.1 0.1 0.2 0.1 0.2 0.1 0.3 0.1 0.2 0 0.3 0.1c0.1 0 0.2 0.1 0.3 0.1s0.2 0.1 0.3 0.1c0.1 0.1 0.2 0.1 0.3 0.2s0.1 0.2 0.2 0.3c0 0.1 0.1 0.2 0.1 0.4s0 0.3-0.1 0.5-0.2 0.3-0.3 0.4-0.3 0.2-0.4 0.2c-0.1 0.1-0.3 0.2-0.5 0.2z"/><path id="path113" d="m244 261.8h-2.8v-3.7h2.8v0.6h-2.1v0.8h1.9v0.6h-1.9v1h2.1v0.7z"/><path id="path115" d="m247.5 258.7h-1.2v3.1h-0.7v-3.1h-1.1v-0.6h3v0.6z"/></g><path id="voyant_7_" d="m173.7 265.1h-1.1c-0.3 0-0.6-0.3-0.6-0.6v-8.5c0-0.3 0.3-0.6 0.6-0.6h1.1c0.3 0 0.6 0.3 0.6 0.6v8.5c0 0.4-0.2 0.6-0.6 0.6z" fill="#f95d5d"/><path id="voyant_8_" d="m168.6 265.1h-1.1c-0.3 0-0.6-0.3-0.6-0.6v-8.5c0-0.3 0.3-0.6 0.6-0.6h1.1c0.3 0 0.6 0.3 0.6 0.6v8.5c0 0.4-0.3 0.6-0.6 0.6z" fill="#f95d5d"/><path id="voyant_9_" d="m163.3 265.1h-1.1c-0.3 0-0.6-0.3-0.6-0.6v-8.5c0-0.3 0.3-0.6 0.6-0.6h1.1c0.3 0 0.6 0.3 0.6 0.6v8.5c0 0.4-0.2 0.6-0.6 0.6z" fill="#f95d5d"/></g><g id="g120"><g id="polygon9_1_"><path id="path123" d="m221.8 68.6h-107.6l-7.9-4.6v-10.4l7.4-4.4h108.4l7.5 4.4v10.3l-7.8 4.7zm-107.3-1h107l7.2-4.2v-9.1l-6.7-4h-107.9l-6.7 3.9v9.2l7.1 4.2z" fill="#eff8fb"/></g><g id="g125" fill="#eff8fb"><polygon id="polygon15_1_" points="181.3 64.6 185.3 61.9 192.4 61.9 192.4 60.3 181.5 60.3 181.5 55.9 185.5 53.2 185.5 53.2 197.6 53.2 193.6 55.9 186.4 55.9 186.4 57.5 197.3 57.5 197.3 62 193.4 64.6"/><polygon id="polygon17_1_" points="198.8 64.6 198.8 53.2 198.8 53.2 203.8 53.2 203.8 64.6"/><polygon id="polygon19_1_" points="205.5 64.6 209.5 61.9 216.6 61.9 216.6 60.3 205.7 60.3 205.7 55.9 209.7 53.2 209.7 53.2 221.8 53.2 217.8 55.9 210.6 55.9 210.6 57.5 221.5 57.5 221.5 62 217.6 64.6"/><polygon id="polygon21_1_" points="170.8 57.5 170.8 55.9 177.9 55.9 181.9 53.2 170.2 53.2 165.9 55.8 165.9 55.8 165.9 64.6 177.8 64.6 181.8 61.9 170.8 61.9 170.8 60.3 175.5 60.3 179.5 57.5"/><polygon id="polygon23_1_" points="136.4 57.5 136.4 55.9 143.5 55.9 147.5 53.2 135.8 53.2 131.5 55.8 131.5 55.8 131.5 64.6 143.4 64.6 147.4 61.9 136.4 61.9 136.4 60.3 141.1 60.3 145.1 57.5"/><polygon id="polygon25_1_" points="148.6 53.2 153.6 53.2 159.6 56.5 159.6 53.2 159.6 53.2 164.5 53.2 164.5 64.6 159.6 64.6 159.6 60.8 153.5 57 153.5 64.6 148.6 64.6"/><polygon id="polygon27_1_" points="120.3 60.3 124.3 57.5 130.2 57.5 130.2 62.1 126.5 64.6 114.3 64.6 114.3 56 114.3 56 118.4 53.2 131.7 53.2 127.7 55.9 119.2 55.9 119.2 61.9 125.3 61.9 125.3 60.3"/></g></g><g id="g134"><path id="XMLID_747_" d="m302.7 1.8v11.2s-0.1 1.4-2 1.4h-132.7-132.7c-1.9 0-2-1.4-2-1.4v-11.2l134.7 0.1 134.7-0.1z" fill="#444546"/><g id="XMLID_139_" fill="#282424"><rect id="XMLID_211_" x="34.4" width="2.5" height="12.8"/><rect id="XMLID_210_" x="38.2" width="2.5" height="12.8"/><rect id="XMLID_209_" x="42" width="2.5" height="12.8"/><rect id="XMLID_208_" x="45.8" width="2.5" height="12.8"/><rect id="XMLID_207_" x="49.5" width="2.5" height="12.8"/><rect id="XMLID_206_" x="53.2" width="2.5" height="12.8"/><rect id="XMLID_205_" x="57" width="2.5" height="12.8"/><rect id="XMLID_204_" x="60.8" width="2.5" height="12.8"/><rect id="XMLID_203_" x="64.6" width="2.5" height="12.8"/><rect id="XMLID_202_" x="68.4" width="2.5" height="12.8"/><rect id="XMLID_201_" x="72.2" width="2.5" height="12.8"/><rect id="XMLID_200_" x="76" width="2.5" height="12.8"/><rect id="XMLID_199_" x="79.7" width="2.5" height="12.8"/><rect id="XMLID_198_" x="83.4" width="2.5" height="12.8"/><rect id="XMLID_197_" x="87.2" width="2.5" height="12.8"/><rect id="XMLID_196_" x="91" width="2.5" height="12.8"/><rect id="XMLID_195_" x="94.8" width="2.5" height="12.8"/><rect id="XMLID_194_" x="98.6" width="2.5" height="12.8"/><rect id="XMLID_193_" x="102.4" width="2.5" height="12.8"/><rect id="XMLID_192_" x="106.1" width="2.5" height="12.8"/><rect id="XMLID_191_" x="109.8" width="2.5" height="12.8"/><rect id="XMLID_190_" x="113.6" width="2.5" height="12.8"/><rect id="XMLID_189_" x="117.4" width="2.5" height="12.8"/><rect id="XMLID_188_" x="121.1" width="2.5" height="12.8"/><rect id="XMLID_187_" x="125" width="2.5" height="12.8"/><rect id="XMLID_186_" x="128.7" width="2.5" height="12.8"/><rect id="XMLID_185_" x="132.5" width="2.5" height="12.8"/><rect id="XMLID_184_" x="136.3" width="2.5" height="12.8"/><rect id="XMLID_183_" x="140" width="2.5" height="12.8"/><rect id="XMLID_182_" x="143.7" width="2.5" height="12.8"/><rect id="XMLID_181_" x="147.6" width="2.5" height="12.8"/><rect id="XMLID_180_" x="151.3" width="2.5" height="12.8"/><rect id="XMLID_179_" x="155.3" width="2.5" height="12.8"/><rect id="XMLID_178_" x="159.2" width="2.5" height="12.8"/><rect id="XMLID_177_" x="162.9" width="2.5" height="12.8"/><rect id="XMLID_176_" x="166.6" width="2.5" height="12.8"/><rect id="XMLID_175_" x="170.4" width="2.5" height="12.8"/><rect id="XMLID_174_" x="174.2" width="2.5" height="12.8"/><rect id="XMLID_173_" x="177.9" width="2.5" height="12.8"/><rect id="XMLID_172_" x="181.7" width="2.5" height="12.8"/><rect id="XMLID_171_" x="185.5" width="2.5" height="12.8"/><rect id="XMLID_170_" x="189.3" width="2.5" height="12.8"/><rect id="XMLID_169_" x="193.1" width="2.5" height="12.8"/><rect id="XMLID_168_" x="196.8" width="2.5" height="12.8"/><rect id="XMLID_167_" x="200.5" width="2.5" height="12.8"/><rect id="XMLID_166_" x="204.3" width="2.5" height="12.8"/><rect id="XMLID_165_" x="208.1" width="2.5" height="12.8"/><rect id="XMLID_164_" x="212.2" width="2.5" height="12.8"/><rect id="XMLID_163_" x="216" width="2.5" height="12.8"/><rect id="XMLID_162_" x="219.8" width="2.5" height="12.8"/><rect id="XMLID_161_" x="223.5" width="2.5" height="12.8"/><rect id="XMLID_160_" x="227.2" width="2.5" height="12.8"/><rect id="XMLID_159_" x="231.1" width="2.5" height="12.8"/><rect id="XMLID_158_" x="234.8" width="2.5" height="12.8"/><rect id="XMLID_157_" x="238.6" width="2.5" height="12.8"/><rect id="XMLID_156_" x="242.4" width="2.5" height="12.8"/><rect id="XMLID_155_" x="246.2" width="2.5" height="12.8"/><rect id="XMLID_154_" x="250" width="2.5" height="12.8"/><rect id="XMLID_153_" x="253.7" width="2.5" height="12.8"/><rect id="XMLID_152_" x="257.4" width="2.5" height="12.8"/><rect id="XMLID_151_" x="261.2" width="2.5" height="12.8"/><rect id="XMLID_150_" x="265" width="2.5" height="12.8"/><rect id="XMLID_149_" x="269" width="2.5" height="12.8"/><rect id="XMLID_148_" x="272.8" width="2.5" height="12.8"/><rect id="XMLID_146_" x="276.5" width="2.5" height="12.8"/><rect id="XMLID_145_" x="280.2" width="2.5" height="12.8"/><rect id="XMLID_144_" x="284" width="2.5" height="12.8"/><rect id="XMLID_143_" x="287.8" width="2.5" height="12.8"/><rect id="XMLID_142_" x="291.6" width="2.5" height="12.8"/><rect id="XMLID_141_" x="295.4" width="2.5" height="12.8"/><rect id="XMLID_140_" x="299.1" width="2.5" height="12.8"/></g></g></g><path id="path209" d="m355.1-20.421" fill="none" stroke="#fff" stroke-miterlimit="10" stroke-width=".3"/><g id="g211" transform="matrix(1.2737 0 0 1.2737 .12737 0)"><path id="XMLID_938_" d="m167.8 43.6c16.3 0 31.1 0.4 44.3 1 22 1 39.3 2.5 51.1 3.8 22.8 2.4 39.3 0.5 48.3 23.4 5 12.7 6 53.6 3.8 60s-3.4 11.3-11.8 14.2c-8.4 3-50.2 13.4-60.4 18.4-10.2 5.1-34 14.8-40.8 17l-6.8 2.2s-11.4 4.2-27.8 4.2-27.8-4.2-27.8-4.2l-6.8-2.2c-6.8-2.2-30.7-11.9-40.8-17-10-5.1-51.9-15.4-60.3-18.4s-9.6-7.9-11.8-14.2c-2.2-6.4-1.2-47.3 3.8-60 9-22.9 25.5-21 48.3-23.4 11.8-1.2 29.1-2.8 51.1-3.8 13.2-0.6 28-1 44.4-1" fill="#171819"/><path id="path214" d="m49.8 122.6" fill="none" stroke="#fff" stroke-miterlimit="10" stroke-width=".3"/><path id="path216" d="m168 55.6c44.4-0.5 107.9 2.6 116.4 9 16.3 9.1 15.9 22.4 16.8 32.6-0.3 5.2-1.8 14.7-8.4 23.6-2 2.8-5.6 6-7.6 7.7-24.8 17.5-61 47.7-117.2 50.8h-0.1c-56.2-3.1-92.3-33.3-117.2-50.8-2-1.8-5.6-5-7.6-7.8-6.6-9-8-18.5-8.4-23.6 0.9-10.2 0.5-23.6 16.8-32.6 8.6-6.4 72-9.5 116.4-9" fill="#171819"/><path id="path218" d="m168.2 125.4h-0.3l89.5-1.9c9.3-0.6 16.3-1.2 22.8-10 2.8-3.7 4.1-8.3 4.1-12.9v-3.3c0-18.5-9.4-25.5-25.1-28.5 0 0-37.4-4.1-91.3-4.1s-91.3 4.1-91.3 4.1c-15.7 3-25.1 10-25.1 28.5v3.3c0 4.6 1.4 9.2 4.1 12.9 6.5 8.8 13.4 9.3 22.8 10l89.5 1.9h-0.3" fill="#282827"/><path id="path220" d="m167.2 69.9c47.9 0 80.4 4 80.4 4 13.9 2.3 23 6.7 23 20.7v6.8c0 8-6.5 14.5-14.5 14.5h-88.9 0.3-88.8c-8 0-14.5-6.5-14.5-14.5v-6.8c0-14 9.1-18.4 23-20.7 0 0 32.5-4 80.4-4" fill="#1d1d1d"/><g id="g222"><rect id="rect224" x="75.2" y="82.2" width="183.6" height="30.2" fill="#1b1c1c"/><rect id="rect226" x="75.5" y="82.4" width="183.1" height="29.8" fill="#414446"/><path id="path228" d="m108.3 110.7" fill="none" stroke="#bd3126" stroke-miterlimit="10" stroke-width=".3"/><path id="path230" d="m166.8 112.1h63.2c13.2 0 24.6-8.7 28.6-12v-17.7h-91.7 0.4-91.8v17.8c4 3.3 15.4 12 28.6 12h63.1" fill="#1b1d1e"/><path id="path232" d="m75.5 88.9h12.4c0.4 0 0.8-0.4 0.8-0.8v-5.7h-13.2v6.5z" fill="#46494b"/><path id="path234" d="m258.6 88.9h-12.4c-0.4 0-0.8-0.4-0.8-0.8v-5.7h13.2v6.5z" fill="#46494b"/><path id="path236" d="m166.8 84.6h74.7c0.4 0 0.8 0.4 0.8 0.8v4.5c0 0.4 0.3 0.8 0.8 0.8h11.4 0.1v9.4c-7.3 6-15.6 10.6-29 10.6h-58.7-58.7c-13.4 0-21.7-4.6-29-10.6v-9.4h0.1 11.4c0.4 0 0.8-0.4 0.8-0.8v-4.5c0-0.4 0.4-0.8 0.8-0.8h74.5z" fill="#45494a"/><rect id="rect238" x="75.5" y="97.3" width="183.1" height=".6"/><g id="g240"><rect id="rect242" x="115.7" y="97.9" width="102.2" height="1.2" fill="#1c1e1f"/><rect id="rect244" x="115.7" y="99.1" width="102.2" height="1.2" fill="#202223"/><rect id="rect246" x="115.7" y="100.3" width="102.2" height="1.2" fill="#242627"/><rect id="rect248" x="115.7" y="101.5" width="102.2" height="1.2" fill="#292c2d"/><rect id="rect250" x="115.7" y="102.7" width="102.2" height="1.2" fill="#2f3133"/><rect id="rect252" x="115.7" y="103.9" width="102.2" height="1.2" fill="#333637"/><rect id="rect254" x="115.7" y="105.1" width="102.2" height="1.2" fill="#373a3c"/><rect id="rect256" x="115.7" y="106.3" width="102.2" height="1.2" fill="#3b3e3f"/><rect id="rect258" x="115.7" y="107.5" width="102.2" height="1.2" fill="#3f4244"/></g><path id="XMLID_843_" d="m118.9 97.9h-3.1v10.8c-0.1 0 0.7-9.1 3.1-10.8z" fill="#1b1d1e"/><path id="XMLID_842_" d="m214.8 97.9h3.1v10.8s-0.8-9.1-3.1-10.8z" fill="#1b1d1e"/><g id="g262"><rect id="rect264" x="115.7" y="96.1" width="102.2" height="1.2" fill="#1c1e1f"/><rect id="rect266" x="115.7" y="94.9" width="102.2" height="1.2" fill="#202223"/><rect id="rect268" x="115.7" y="93.7" width="102.2" height="1.2" fill="#242627"/><rect id="rect270" x="115.7" y="92.5" width="102.2" height="1.2" fill="#292c2d"/><rect id="rect272" x="115.7" y="91.3" width="102.2" height="1.2" fill="#2f3133"/><rect id="rect274" x="115.7" y="90.1" width="102.2" height="1.2" fill="#333637"/><rect id="rect276" x="115.7" y="88.9" width="102.2" height="1.2" fill="#373a3c"/><rect id="rect278" x="115.7" y="87.7" width="102.2" height="1.2" fill="#3b3e3f"/><rect id="rect280" x="115.7" y="86.5" width="102.2" height="1.2" fill="#3f4244"/></g><path id="XMLID_841_" d="m118.9 97.3h-3.1v-11.2c-0.1 0 0.7 9.4 3.1 11.2z" fill="#1b1d1e"/><path id="XMLID_247_" d="m214.8 97.3h3.1v-11.2s-0.8 9.4-3.1 11.2z" fill="#1b1d1e"/><g id="g284"><g id="g286"><path id="path288" d="m94.4 95.7h0.6c0 0.2-0.1 0.5-0.3 0.5-0.1-0.1-0.3-0.3-0.3-0.5z" fill="#0e1214"/><path id="path290" d="m94.4 86.5h0.6c0-0.2-0.1-0.5-0.3-0.5-0.1 0.1-0.3 0.3-0.3 0.5z" fill="#5e5e60"/><rect id="rect292" x="94.4" y="86.5" width=".6" height="9.2" fill="#393d3f"/></g><g id="g294"><path id="path296" d="m99.9 95.7h0.6c0 0.2-0.1 0.5-0.3 0.5-0.1-0.1-0.3-0.3-0.3-0.5z" fill="#0e1214"/><path id="path298" d="m99.9 86.5h0.6c0-0.2-0.1-0.5-0.3-0.5-0.1 0.1-0.3 0.3-0.3 0.5z" fill="#5e5e60"/><rect id="rect300" x="99.9" y="86.5" width=".6" height="9.2" fill="#393d3f"/></g><g id="g302"><path id="path304" d="m99.9 108.7h0.6c0 0.2-0.1 0.5-0.3 0.5-0.1-0.1-0.3-0.3-0.3-0.5z" fill="#0e1214"/><path id="path306" d="m99.9 99.5h0.6c0-0.2-0.1-0.5-0.3-0.5-0.1 0-0.3 0.2-0.3 0.5z" fill="#5e5e60"/><rect id="rect308" x="99.9" y="99.5" width=".6" height="9.2" fill="#393d3f"/></g><g id="g310"><path id="path312" d="m94.4 106.9h0.6c0 0.2-0.1 0.5-0.3 0.5-0.1 0-0.3-0.2-0.3-0.5z" fill="#0e1214"/><path id="path314" d="m94.4 99.5h0.6c0-0.2-0.1-0.5-0.3-0.5-0.1 0-0.3 0.2-0.3 0.5z" fill="#5e5e60"/><rect id="rect316" x="94.4" y="99.5" width=".6" height="7.5" fill="#393d3f"/></g><g id="g318"><path id="path320" d="m239.2 95.7h-0.6c0 0.2 0.1 0.5 0.3 0.5 0.2-0.1 0.3-0.3 0.3-0.5z" fill="#0e1214"/><path id="path322" d="m239.2 86.5h-0.6c0-0.2 0.1-0.5 0.3-0.5 0.2 0.1 0.3 0.3 0.3 0.5z" fill="#5e5e60"/><rect id="rect324" x="238.6" y="86.5" width=".6" height="9.2" fill="#393d3f"/></g><g id="g326"><path id="path328" d="m233.7 95.7h-0.6c0 0.2 0.1 0.5 0.3 0.5 0.2-0.1 0.3-0.3 0.3-0.5z" fill="#0e1214"/><path id="path330" d="m233.7 86.5h-0.6c0-0.2 0.1-0.5 0.3-0.5 0.2 0.1 0.3 0.3 0.3 0.5z" fill="#5e5e60"/><rect id="rect332" x="233.1" y="86.5" width=".6" height="9.2" fill="#393d3f"/></g><g id="g334"><path id="path336" d="m233.7 108.7h-0.6c0 0.2 0.1 0.5 0.3 0.5 0.2-0.1 0.3-0.3 0.3-0.5z" fill="#0e1214"/><path id="path338" d="m233.7 99.5h-0.6c0-0.2 0.1-0.5 0.3-0.5s0.3 0.2 0.3 0.5z" fill="#5e5e60"/><rect id="rect340" x="233.1" y="99.5" width=".6" height="9.2" fill="#393d3f"/></g><g id="g342"><path id="path344" d="m239.2 106.9h-0.6c0 0.2 0.1 0.5 0.3 0.5s0.3-0.2 0.3-0.5z" fill="#0e1214"/><path id="path346" d="m239.2 99.5h-0.6c0-0.2 0.1-0.5 0.3-0.5s0.3 0.2 0.3 0.5z" fill="#5e5e60"/><rect id="rect348" x="238.6" y="99.5" width=".6" height="7.5" fill="#393d3f"/></g></g><g id="g350"><rect id="rect352" x="92.4" y="82.2" width="7.1" height="2.2"/><path id="path354" d="m92.6 110.1v-1.9c2.1 0.8 4.4 1.4 6.9 1.9v1.8c-2.4-0.4-4.7-1.1-6.9-1.8"/><rect id="rect356" x="234.5" y="82.2" width="7.1" height="2.2"/><path id="path358" d="m241.4 110.1v-1.9c-2.1 0.8-4.4 1.4-6.9 1.9v1.8c2.5-0.4 4.8-1.1 6.9-1.8"/></g></g><path id="path360" d="m50.7 128.6" fill="none" stroke="#fff" stroke-miterlimit="10" stroke-width=".3"/><g id="g362"><path id="path364" d="m256.2 115.6h-177.4c-8.1 0-14.7-6.6-14.7-14.6v-6.8c0-14.2 9.2-18.6 23.1-20.8 0.3 0 32.9-4 80.1-4h0.3c47.2 0 79.8 4 80.1 4 13.9 2.2 23.1 6.6 23.1 20.8v6.8c0.1 8-6.5 14.6-14.6 14.6zm-88.5-0.3h88.6c7.9 0 14.3-6.4 14.3-14.4v-6.8c0-14-9.1-18.3-22.9-20.5-0.3 0-33-4-80.2-4s-79.9 4-80.2 4c-13.7 2.2-22.9 6.6-22.9 20.5v6.8c0 7.9 6.4 14.4 14.3 14.4h89z" fill="#2a2c2e"/></g><g id="g366"><path id="path368" d="m168.3 125.5h-0.7l-89.2-1.9c-9.1-0.6-16.3-1.1-22.9-10.1-2.7-3.6-4.2-8.2-4.2-13v-3.3c0-8.9 2.2-15.5 6.7-20.2 4-4.2 9.9-6.8 18.5-8.5 0.4 0 38-4.1 91.3-4.1s90.9 4.1 91.3 4.1c8.6 1.6 14.5 4.3 18.5 8.5 4.5 4.6 6.7 11.2 6.7 20.2v3.3c0 4.7-1.5 9.4-4.2 13-6.6 8.9-13.8 9.4-22.9 10.1l-88.9 1.9zm-0.3-60.7c-53.3 0-90.9 4.1-91.3 4.1-17.5 3.3-25 11.8-25 28.3v3.3c0 4.7 1.5 9.2 4.1 12.8 6.5 8.8 13.6 9.3 22.6 9.9l89.5 1.9 89.5-1.9c9-0.6 16.1-1.1 22.6-9.9 2.6-3.6 4.1-8.1 4.1-12.8v-3.3c0-16.5-7.5-25-25-28.3-0.2 0-37.8-4.1-91.1-4.1z" fill="#3f3f3f"/></g><path id="path370" d="m167.8 134.7c50.9 0 55.6 8.9 62.2 24 0.2 0.4 0 1-0.1 1.5s-0.4 0.9-0.8 1.1c-11.4 5.2-21.4 8.2-29.3 10.6-15.8 4.8-28.3 5.2-32 5.2s-16.2-0.4-32-5.2c-7.9-2.4-17.8-5.4-29.3-10.6-0.4-0.2-0.7-0.6-0.8-1.1s-0.3-1.1-0.1-1.5c6.6-15.1 11.3-24 62.2-24z" fill="#0b0c0d"/><g id="g372"><g id="g374" fill="#cdcaca"><path id="path376" d="m165.2 153.4c0.5 0 0.9-0.1 1.4-0.1 0.7 0 1.4 0.1 2.1 0.2 0.5 0.1 1 0.3 1.5 0.5 0.6 0.2 1.1 0.5 1.5 1 0.3 0.3 0.6 0.8 0.7 1.2 0 0.4 0.1 0.9-0.1 1.3-0.1 0.4-0.3 0.7-0.6 1-0.4 0.4-1 0.7-1.6 1-0.3 0.2-0.7 0.3-1 0.5-0.6 0.2-1.3 0.5-1.9 0.6-0.7 0.2-1.4 0.4-2 0.7-0.8 0.3-1.7 0.7-2.3 1.3-0.1 0.1-0.2 0.2-0.2 0.3 0.2 0.1 0.4 0.1 0.5 0.1h9.2c0.1 0 0.3 0 0.4-0.1 0.2-0.1 0.3-0.2 0.5-0.3 0.1 0.4 0 0.7 0 1.1v1.5h-0.2c-0.1-0.1-0.2-0.3-0.4-0.3-0.2-0.1-0.4 0-0.6-0.1h-12.7c-0.1 0-0.2 0-0.2-0.1 0-0.5 0.1-1.1 0.3-1.6 0.3-0.8 1-1.4 1.7-1.9 0.5-0.3 1-0.6 1.4-0.8 0.3-0.1 0.6-0.3 0.9-0.4 0.4-0.2 0.9-0.4 1.3-0.5 0.6-0.2 1.3-0.5 1.9-0.7s1.2-0.5 1.7-0.8c0.4-0.2 0.8-0.6 1-1.1 0.2-0.4 0-0.8-0.3-1.1-0.7-0.6-1.6-0.8-2.5-0.8-1.3 0-2.6 0.4-3.7 1.2-0.2 0.1-0.4 0.3-0.5 0.5-0.1 0.1-0.2 0.3-0.3 0.5s0 0.4 0 0.6c0 0.1-0.2 0.1-0.3 0-0.4-0.3-0.7-0.7-1.1-1-0.3-0.3-0.6-0.6-0.9-0.8-0.1-0.1-0.3-0.2-0.2-0.4 0.2-0.1 0.4 0 0.6-0.1 0.4-0.2 0.7-0.5 1.1-0.7 0.6-0.4 1.3-0.7 2-1 0.6-0.2 1.3-0.4 1.9-0.4z"/><path id="path378" d="m148.8 153.7c0.7-0.1 1.5-0.2 2.2-0.3 0.8 0 1.7 0 2.5 0.1 0.5 0.1 0.9 0.2 1.4 0.3 0.5 0.2 1 0.4 1.4 0.7 0.5 0.4 1 0.9 1.2 1.5 0.1 0.4 0.1 0.8 0 1.2-0.1 0.2-0.2 0.5-0.4 0.7s-0.4 0.3-0.7 0.4-0.5 0.2-0.8 0.3c0 0 0.1 0.1 0.1 0.2 0.3 0.1 0.7 0.2 1 0.4 0.5 0.2 0.9 0.6 1.2 0.9 0.2 0.3 0.4 0.7 0.5 1.1 0 0.2 0.1 0.5 0 0.7-0.1 0.5-0.3 0.9-0.6 1.3-0.5 0.5-1.1 0.9-1.8 1.1-0.6 0.2-1.3 0.4-2 0.5-1.3 0.2-2.6 0.2-4 0.1-0.9-0.1-1.8-0.2-2.7-0.4-0.7-0.2-1.4-0.4-2-0.7-0.2-0.1-0.5-0.2-0.7-0.3-0.2 0-0.4 0.1-0.6 0.1-0.1 0-0.1-0.1-0.1-0.2 0.1-0.2 0.2-0.4 0.3-0.5 0.3-0.4 0.5-0.9 0.8-1.3 0.1-0.2 0.2-0.4 0.4-0.6 0.1-0.1 0.3-0.1 0.3 0 0.1 0.2 0.2 0.5 0.4 0.7 0.5 0.4 1.2 0.7 1.8 0.9 0.5 0.1 1.1 0.3 1.6 0.3 1 0.2 2.1 0.2 3.2 0.1 0.5-0.1 1.1-0.2 1.6-0.4 0.4-0.2 0.8-0.5 1.1-0.9 0.3-0.5 0.1-1.1-0.4-1.4-0.6-0.5-1.4-0.7-2.1-0.8-0.6-0.1-1.2-0.1-1.9-0.1-0.4 0-0.8 0.1-1.2 0.2-0.2 0.1-0.3 0.2-0.4 0.2-0.1-0.1-0.1-0.2-0.1-0.4v-2.1c0.3 0 0.4 0.2 0.7 0.2 0.9 0.2 1.8 0.1 2.6 0 0.5-0.1 1-0.2 1.4-0.5 0.2-0.2 0.5-0.4 0.6-0.7s0-0.7-0.3-0.9c-0.2-0.2-0.4-0.3-0.6-0.4-0.5-0.2-1.1-0.3-1.6-0.4-0.6-0.1-1.1 0-1.7 0.1-0.8 0.1-1.5 0.3-2.2 0.6-0.4 0.2-0.8 0.4-1.1 0.7-0.2 0.2-0.2 0.4-0.2 0.7 0 0.1-0.2 0.2-0.3 0.1l-1.8-1.8c-0.1-0.1-0.2-0.2-0.2-0.3s0-0.1 0.1-0.2c0.2 0 0.5 0 0.7-0.1 0.6-0.3 1.1-0.6 1.7-0.9 0.5 0.5 1.1 0.3 1.7 0.2z"/><path id="path380" d="m174.7 153.5c1.4-0.1 2.8 0 4.2 0 0.1 0 0.3 0 0.4 0.1-0.1 0.1-0.2 0.2-0.2 0.4 0.5 0.5 1 1 1.4 1.5 0.5 0.5 1 1.1 1.6 1.6 0.1 0.1 0.2 0.2 0.3 0.1 0.3-0.2 0.6-0.6 0.8-0.8 0.7-0.7 1.3-1.4 2-2.1 0.1-0.1 0.2-0.2 0.2-0.4-0.1-0.1-0.1-0.2-0.2-0.3 0.3-0.1 0.7 0 1 0h3.5c0.1 0 0.1 0.1 0.2 0.2-0.2 0.1-0.5 0.1-0.8 0.3-0.4 0.2-0.7 0.5-1 0.8-0.5 0.4-0.9 0.9-1.3 1.4l-2.7 2.7c-0.1 0.1-0.1 0.2-0.1 0.3 0.3 0.4 0.6 0.6 0.9 1 0.3 0.2 0.5 0.5 0.7 0.8l3.3 3.3c0.2 0.2 0.5 0.4 0.8 0.5 0.2 0.1 0.4 0.1 0.5 0.3-0.3 0.1-0.5 0-0.8 0.1h-3.3c-0.2 0-0.4 0-0.6-0.1 0.1-0.1 0.2-0.2 0.2-0.4 0-0.1-0.1-0.2-0.2-0.2l-0.9-0.9c-0.7-0.8-1.4-1.4-2.1-2.2-0.2-0.1-0.3-0.3-0.5-0.4s-0.3 0.1-0.4 0.2c-0.7 0.7-1.4 1.4-2 2.1-0.4 0.5-0.8 0.9-1.2 1.3-0.1 0.1-0.2 0.2-0.1 0.3 0 0.1 0.1 0.2 0.2 0.2 0 0 0 0.1-0.1 0.1h-4c-0.2 0-0.4 0-0.6-0.1 0-0.1 0.1-0.2 0.2-0.2 0.3-0.1 0.6-0.2 0.9-0.4 0.4-0.3 0.7-0.7 1-1 1-1.1 2.1-2.1 3.1-3.2l1.1-1.1c0-0.2-0.1-0.3-0.2-0.4l-3.1-3.1c-0.3-0.4-0.7-0.7-1.1-1.1-0.2-0.2-0.3-0.4-0.6-0.5-0.2-0.1-0.5-0.2-0.8-0.3 0.4-0.2 0.5-0.3 0.4-0.4z"/></g><g id="g382"><rect id="rect384" x="139.7" y="146.6" width="55.2" height="5.3" fill="#cdcaca"/><g id="g386" fill="#2f3335"><path id="path388" d="m146.1 149.5h-0.8-0.1s0 0.1-0.1 0.1h-0.1v-0.8h0.1c0 0.1 0 0.1 0.1 0.1h0.1 1.6v0.1c-0.1 0-0.1 0-0.1 0.1v0.1 0.7 0.1s0.1 0 0.1 0.1v0.1c-0.6 0.4-1.2 0.5-1.8 0.5-0.5 0-1-0.1-1.3-0.4-0.4-0.3-0.6-0.8-0.6-1.3s0.2-1 0.6-1.3 0.8-0.4 1.4-0.4c0.2 0 0.4 0 0.5 0.1 0.2 0 0.4 0.1 0.6 0.2 0.1 0 0.2 0.1 0.2 0.1s0.1 0 0.1-0.1h0.1l-0.4 0.8h-0.1v-0.1s0-0.1-0.1-0.1c-0.1-0.1-0.2-0.1-0.4-0.2s-0.4-0.1-0.5-0.1c-0.3 0-0.6 0.1-0.9 0.3s-0.4 0.5-0.4 0.9 0.1 0.6 0.4 0.9c0.2 0.2 0.5 0.3 0.9 0.3 0.2 0 0.4 0 0.5-0.1 0.2 0 0.3-0.1 0.5-0.2v-0.5z"/><path id="path390" d="m152.1 149.2v0.9h2.1 0.1s0-0.1 0.1-0.1h0.1v0.9h-0.1c0-0.1 0-0.1-0.1-0.1h-0.1-3v-0.1c0.1 0 0.1 0 0.1-0.1v-0.1-2.8-0.1s-0.1 0-0.1-0.1v-0.1h3 0.1s0-0.1 0.1-0.1h0.1v0.9h-0.1c0-0.1 0-0.1-0.1-0.1h-0.1-2.1v0.8h1.4 0.1s0-0.1 0.1-0.1h0.1v0.8h-0.1c0-0.1 0-0.1-0.1-0.1h-0.1-1.4z"/><path id="path392" d="m159.6 148.4v2 0.1s0.1 0 0.1 0.1v0.1h-1v-0.1c0.1 0 0.1 0 0.1-0.1v-0.1-2.8-0.1s-0.1 0-0.1-0.1v-0.1h1.1v0.1c-0.1 0-0.1 0.1-0.1 0.1s0 0.1 0.1 0.1l1.8 1.9v-2-0.1s-0.1 0-0.1-0.1v-0.1h1v0.1c-0.1 0-0.1 0-0.1 0.1v0.1 2.8 0.1s0.1 0 0.1 0.1v0.1h-1v-0.1c0.1 0 0.1 0 0.1-0.1 0 0 0-0.1-0.1-0.2l-1.9-1.8z"/><path id="path394" d="m167.7 149.2v0.9h2.1 0.1s0-0.1 0.1-0.1h0.1v0.9h-0.1c0-0.1 0-0.1-0.1-0.1h-0.1-3v-0.1c0.1 0 0.1 0 0.1-0.1v-0.1-2.8-0.1s-0.1 0-0.1-0.1v-0.1h3 0.1s0-0.1 0.1-0.1h0.1v0.9h-0.1c0-0.1 0-0.1-0.1-0.1h-0.1-2.1v0.8h1.4 0.1s0-0.1 0.1-0.1h0.1v0.8h-0.1c0-0.1 0-0.1-0.1-0.1h-0.1-1.4z"/><path id="path396" d="m177.5 147.6-0.4 0.8h-0.1c0-0.1 0-0.1-0.1-0.2-0.3-0.2-0.6-0.3-1-0.3-0.2 0-0.3 0-0.5 0.1-0.1 0-0.2 0.1-0.2 0.1-0.1 0.1-0.1 0.1-0.1 0.2s0.1 0.2 0.2 0.3c0.1 0 0.2 0 0.5 0.1h0.4c0.2 0 0.4 0.1 0.6 0.1 0.1 0 0.3 0.1 0.4 0.2l0.3 0.3c0.1 0.1 0.1 0.3 0.1 0.4 0 0.2-0.1 0.4-0.2 0.6s-0.3 0.3-0.6 0.4c-0.2 0.1-0.4 0.1-0.7 0.1-0.4 0-0.9-0.1-1.3-0.3-0.1 0-0.1-0.1-0.2-0.1 0 0-0.1 0-0.1 0.1h-0.1l0.4-0.8h0.1c0 0.1 0 0.1 0.1 0.2s0.3 0.2 0.5 0.2c0.2 0.1 0.4 0.1 0.6 0.1s0.4 0 0.6-0.1c0.1 0 0.2-0.1 0.2-0.2s0.1-0.1 0.1-0.2-0.1-0.2-0.2-0.2-0.3-0.1-0.5-0.1h-0.4c-0.3 0-0.4-0.1-0.5-0.1s-0.2-0.1-0.3-0.1c-0.1-0.1-0.3-0.2-0.3-0.3-0.1-0.1-0.1-0.3-0.1-0.5 0-0.3 0.1-0.5 0.3-0.7 0.3-0.2 0.6-0.4 1.1-0.4 0.2 0 0.4 0 0.6 0.1 0.2 0 0.4 0.1 0.7 0.2 0.1 0 0.2 0.1 0.2 0.1-0.3 0-0.2-0.1-0.1-0.1z"/><path id="path398" d="m183.2 150.4v-2.8-0.1s-0.1 0-0.1-0.1v-0.1h1v0.1c-0.1 0-0.1 0-0.1 0.1v0.1 2.8 0.1s0.1 0 0.1 0.1v0.1h-1v-0.1c0.1 0 0.1 0 0.1-0.1-0.1 0 0 0 0-0.1z"/><path id="path400" d="m191.5 147.6-0.4 0.8h-0.1c0-0.1 0-0.1-0.1-0.2-0.3-0.2-0.6-0.3-1-0.3-0.2 0-0.3 0-0.5 0.1-0.1 0-0.2 0.1-0.2 0.1-0.1 0.1-0.1 0.1-0.1 0.2s0.1 0.2 0.2 0.3c0.1 0 0.2 0 0.5 0.1h0.4c0.2 0 0.4 0.1 0.6 0.1 0.1 0 0.3 0.1 0.4 0.2l0.3 0.3c0.1 0.1 0.1 0.3 0.1 0.4 0 0.2-0.1 0.4-0.2 0.6s-0.3 0.3-0.6 0.4c-0.2 0.1-0.4 0.1-0.7 0.1-0.4 0-0.9-0.1-1.3-0.3-0.1 0-0.1-0.1-0.2-0.1 0 0-0.1 0-0.1 0.1h-0.1l0.4-0.8h0.1c0 0.1 0 0.1 0.1 0.2s0.3 0.2 0.5 0.2c0.2 0.1 0.4 0.1 0.6 0.1s0.4 0 0.6-0.1c0.1 0 0.2-0.1 0.2-0.2s0.1-0.1 0.1-0.2-0.1-0.2-0.2-0.2-0.3-0.1-0.5-0.1h-0.4c-0.3 0-0.4-0.1-0.5-0.1s-0.2-0.1-0.3-0.1c-0.1-0.1-0.3-0.2-0.3-0.3-0.1-0.1-0.1-0.3-0.1-0.5 0-0.3 0.1-0.5 0.3-0.7 0.3-0.2 0.6-0.4 1.1-0.4 0.2 0 0.4 0 0.6 0.1 0.2 0 0.4 0.1 0.7 0.2 0.1 0 0.2 0.1 0.2 0.1-0.3 0-0.2-0.1-0.1-0.1z"/></g></g><text id="text402" transform="matrix(.7767 0 0 1 195.74 148)" fill="#cdcaca" font-family="CopperplateGothic-Bold" font-size="2.3461px">TM</text>
</g><g id="g404"><path id="path406" d="m168 177.3c-4.6 0-16.9-0.6-32.1-5.2l-0.6-0.2c-7.8-2.4-17.6-5.4-28.7-10.4-0.5-0.2-0.8-0.7-0.9-1.2 0-0.1 0-0.2-0.1-0.3-0.1-0.4-0.2-0.9 0-1.3 3-6.9 5.9-13.5 14.5-17.8 8.9-4.4 23.7-6.3 47.8-6.3s38.9 2 47.8 6.3c8.7 4.3 11.5 10.8 14.5 17.8 0.2 0.4 0.1 0.8 0 1.3 0 0.1 0 0.2-0.1 0.3-0.1 0.5-0.4 1-0.9 1.2-11.2 5.1-20.9 8-28.7 10.4l-0.5 0.1c-15.2 4.7-27.4 5.3-32 5.3zm0-42.4c-24.1 0-38.8 1.9-47.7 6.3-8.6 4.2-11.4 10.7-14.4 17.6-0.1 0.3-0.1 0.7 0 1.1 0 0.1 0 0.2 0.1 0.3 0.1 0.4 0.4 0.8 0.7 1 11.2 5.1 20.9 8 28.7 10.4l0.6 0.2c15.2 4.6 27.4 5.2 32 5.2s16.8-0.6 32-5.2l0.6-0.2c7.8-2.4 17.5-5.4 28.7-10.4 0.4-0.2 0.7-0.5 0.7-1 0-0.1 0-0.2 0.1-0.3 0.1-0.4 0.2-0.8 0-1.1-3-6.9-5.8-13.4-14.4-17.6-8.9-4.4-23.6-6.3-47.7-6.3z" fill="#2a2c2e"/></g><g id="g408"><path id="path410" d="m167.8 179.5c-50.8-2.8-84.8-27.4-109.7-45.3-2.7-1.9-5.2-3.7-7.6-5.4-2.4-2.1-5.7-5.2-7.7-7.8-6.2-8.4-8-17.5-8.4-23.7 0.1-0.8 0.1-1.7 0.2-2.5 0.7-9.7 1.6-21.9 16.6-30.2 8.8-6.5 74.5-9.5 116.5-9v0.3c-42-0.5-107.6 2.5-116.3 9-14.8 8.1-15.7 20.2-16.4 29.8-0.1 0.9-0.1 1.7-0.2 2.5 0.4 6.1 2.2 15.2 8.3 23.5 1.9 2.6 5.2 5.6 7.6 7.7 2.4 1.7 4.9 3.5 7.6 5.4 24.8 17.9 58.8 42.5 109.5 45.3h0.1c50.7-2.8 84.7-27.3 109.5-45.3 2.7-1.9 5.2-3.7 7.6-5.4 2.4-2.1 5.7-5.1 7.6-7.7 6.2-8.4 7.9-17.4 8.3-23.5-0.1-0.8-0.1-1.6-0.2-2.5-0.7-9.7-1.6-21.7-16.5-30-8.7-6.5-74.3-9.4-116.3-9v-0.3c42.1-0.5 107.7 2.5 116.5 9 15 8.4 15.9 20.5 16.6 30.2 0.1 0.9 0.1 1.7 0.2 2.5-0.4 6.2-2.2 15.3-8.4 23.7-1.9 2.6-5.2 5.7-7.6 7.8-2.4 1.7-4.9 3.5-7.6 5.4-24.9 18-58.9 42.6-109.7 45.3l-0.1 0.2z" fill="#2a2c2e"/></g><g id="g412"><g id="g414"><path id="XMLID_844_" d="m312.9 104.4c0 1.4-1 2.6-2.2 2.6h-5.9c-1.2 0-2.3-1.2-2.3-2.6s1-2.6 2.3-2.6h5.9c1.2 0 2.2 1.2 2.2 2.6z" fill="#1b1d1e"/><path id="XMLID_845_" d="m311.3 104.4c0 0.9-0.7 1.7-1.6 1.7h-4.1c-0.9 0-1.6-0.8-1.6-1.7s0.7-1.7 1.6-1.7h4.1c0.9 0 1.6 0.7 1.6 1.7z" fill="#2e3233"/><rect id="rect418" x="305.6" y="101.8" width="4.1" height=".9"/><rect id="rect420" x="305.6" y="106.1" width="4.1" height=".9"/></g><g id="g422"><path id="XMLID_847_" d="m312.9 96.3c0 1.4-1 2.6-2.2 2.6h-5.9c-1.2 0-2.3-1.2-2.3-2.6s1-2.6 2.3-2.6h5.9c1.2 0 2.2 1.1 2.2 2.6z" fill="#1b1d1e"/><path id="XMLID_846_" d="m311.3 96.3c0 0.9-0.7 1.7-1.6 1.7h-4.1c-0.9 0-1.6-0.8-1.6-1.7s0.7-1.7 1.6-1.7h4.1c0.9-0.1 1.6 0.7 1.6 1.7z" fill="#2e3233"/><rect id="rect426" x="305.6" y="93.7" width="4.1" height=".9"/><rect id="rect428" x="305.6" y="98" width="4.1" height=".9"/></g><g id="g430"><path id="XMLID_930_" d="m312.9 88.1c0 1.4-1 2.6-2.2 2.6h-5.9c-1.2 0-2.3-1.2-2.3-2.6s1-2.6 2.3-2.6h5.9c1.2 0.1 2.2 1.2 2.2 2.6z" fill="#1b1d1e"/><path id="XMLID_929_" d="m311.3 88.1c0 0.9-0.7 1.7-1.6 1.7h-4.1c-0.9 0-1.6-0.8-1.6-1.7s0.7-1.7 1.6-1.7h4.1c0.9 0 1.6 0.8 1.6 1.7z" fill="#2e3233"/><rect id="rect434" x="305.6" y="85.6" width="4.1" height=".9"/><rect id="rect436" x="305.6" y="89.9" width="4.1" height=".9"/></g></g><g id="g438"><g id="g440"><path id="XMLID_936_" d="m22.5 104.3c0 1.4 1 2.6 2.2 2.6h5.9c1.2 0 2.3-1.2 2.3-2.6s-1-2.6-2.3-2.6h-5.9c-1.2 0.1-2.2 1.2-2.2 2.6z" fill="#1b1d1e"/><path id="XMLID_935_" d="m24.1 104.3c0 0.9 0.7 1.7 1.6 1.7h4.1c0.9 0 1.6-0.8 1.6-1.7s-0.7-1.7-1.6-1.7h-4.1c-0.9 0-1.6 0.8-1.6 1.7z" fill="#2e3233"/><rect id="rect444" x="25.7" y="101.8" width="4.1" height=".9"/><rect id="rect446" x="25.7" y="106.1" width="4.1" height=".9"/></g><g id="g448"><path id="XMLID_934_" d="m22.5 96.2c0 1.4 1 2.6 2.2 2.6h5.9c1.2 0 2.3-1.2 2.3-2.6s-1-2.6-2.3-2.6h-5.9c-1.2 0-2.2 1.2-2.2 2.6z" fill="#1b1d1e"/><path id="XMLID_933_" d="m24.1 96.2c0 0.9 0.7 1.7 1.6 1.7h4.1c0.9 0 1.6-0.8 1.6-1.7s-0.7-1.7-1.6-1.7h-4.1c-0.9 0-1.6 0.8-1.6 1.7z" fill="#2e3233"/><rect id="rect452" x="25.7" y="93.6" width="4.1" height=".9"/><rect id="rect454" x="25.7" y="97.9" width="4.1" height=".9"/></g><g id="g456"><path id="XMLID_932_" d="m22.5 88.1c0 1.4 1 2.6 2.2 2.6h5.9c1.2 0 2.3-1.2 2.3-2.6s-1-2.6-2.3-2.6h-5.9c-1.2 0-2.2 1.2-2.2 2.6z" fill="#1b1d1e"/><path id="XMLID_931_" d="m24.1 88.1c0 0.9 0.7 1.7 1.6 1.7h4.1c0.9 0 1.6-0.8 1.6-1.7s-0.7-1.7-1.6-1.7h-4.1c-0.9 0-1.6 0.7-1.6 1.7z" fill="#2e3233"/><rect id="rect460" x="25.7" y="85.5" width="4.1" height=".9"/><rect id="rect462" x="25.7" y="89.8" width="4.1" height=".9"/></g></g><path id="XMLID_937_" d="m317.5 125.7c0 0.5-0.2 21.5-1.4 30.2-1.2 8.9 1.1 19.6-16.2 27.1-17.3 7.4-43.3 13.9-80.6 18.2s-83.4 3.8-119.9-2.3c-36.4-6.2-56.7-10.9-67.9-16.3-12-5.7-13.3-15.8-13.5-25.4-0.1-5-0.4-30.1-0.5-37.4 0.1 6.5 0.5 11.6 1.1 13.5l0.4 1.1c2 6.1 3.8 11.4 12.4 14.5 3 1.1 10.2 3.1 18.5 5.5 14.9 4.2 35.2 10 41.7 13.3 10.3 5.2 34.4 15.3 41 17.5l6.7 2.2c0.5 0.2 11.8 4.4 28.3 4.4s27.7-4.2 28.1-4.4l6.8-2.2c6.7-2.2 30.7-12.2 41-17.5 6.5-3.3 26.8-9.1 41.7-13.3 8.3-2.4 15.5-4.4 18.5-5.5 8.7-3.2 10.4-8.4 12.4-14.5l0.4-1.1c0.5-1.2 0.8-4 1-7.6z" fill="#171819"/><path id="path465" d="m123.2 44.7c-22 1-39.1 2.5-50.9 3.8-22.8 2.4-39.4 0.5-48.3 23.3-5 12.7-6 53.5-3.8 59.9s3.4 11.2 11.8 14.2 50.2 13.4 60.4 18.4c10.2 5.1 34 14.8 40.8 17l6.8 2.2s11.4 4.2 27.8 4.2 27.8-4.2 27.8-4.2l6.8-2.2c6.8-2.2 30.7-11.9 40.8-17 10.2-5.1 52-15.4 60.4-18.4s9.6-7.9 11.8-14.2c2.2-6.4 1.2-47.2-3.8-59.9-9-22.9-25.5-21-48.3-23.3-11.8-1.2-29.1-2.8-51.1-3.8-13.2-0.6-28.2-1-44.5-1h-0.1c-16.5 0-31.3 0.4-44.4 1m0-1.6c13.2-0.6 28.2-1 44.5-1h0.1c16.3 0 31.1 0.4 44.3 1 17.6 0.8 34.7 2.1 51.3 3.9 2.9 0.3 5.8 0.6 8.5 0.8 18.4 1.6 32.9 2.8 41.1 24.1 3.6 9.4 5.1 32.6 4.9 48.2v0.8c-0.1 6.5-0.5 11.6-1.1 13.5l-0.4 1.1c-2 6.1-3.8 11.3-12.4 14.5-3 1.1-10.2 3.1-18.5 5.5-14.9 4.2-35.2 10-41.7 13.3-10.3 5.2-34.4 15.3-41 17.5l-6.7 2.2c-0.5 0.2-11.8 4.4-28.3 4.4s-27.8-4.2-28.3-4.4l-6.7-2.2c-6.7-2.2-30.7-12.2-41-17.5-6.5-3.3-26.8-9.1-41.7-13.3-8.3-2.4-15.5-4.4-18.5-5.5-8.7-3.2-10.4-8.4-12.4-14.5l-0.4-1.1c-0.6-1.9-1-7-1.1-13.5v-0.8c-0.2-15.6 1.3-38.8 4.9-48.2 8.2-21.3 22.7-22.6 41.1-24.1 2.7-0.2 5.6-0.5 8.5-0.8 16.5-1.8 33.4-3.1 51-3.9" fill="#0b0c0d"/></g><g id="g467" transform="matrix(1.2737 0 0 1.2737 .12737 0)"><path id="XMLID_23_" d="m532.2 154.2c0 16.3-0.4 31.1-1 44.3-1 22-2.5 39.3-3.8 51.1-2.4 22.8-0.5 39.3-23.4 48.3-12.7 5-53.6 6-60 3.8s-11.3-3.4-14.2-11.8c-3-8.4-13.4-50.2-18.4-60.4-5.1-10.2-14.8-34-17-40.8l-2.2-6.8s-4.2-11.4-4.2-27.8 4.2-27.8 4.2-27.8l2.2-6.8c2.2-6.8 11.9-30.7 17-40.8 5.1-10.2 15.4-52 18.4-60.4s7.9-9.6 14.2-11.8 47.3-1.2 60 3.8c22.9 9 21 25.5 23.4 48.3 1.2 11.8 2.8 29.1 3.8 51.1 0.6 13.3 1 28.1 1 44.5" fill="#171819"/><path id="path470" d="m453.1 36.2" fill="none" stroke="#fff" stroke-miterlimit="10" stroke-width=".3"/><path id="path472" d="m520.2 154.3c0.5 44.4-2.6 107.9-9 116.4-9.1 16.3-22.4 15.9-32.6 16.8-5.2-0.3-14.7-1.8-23.6-8.4-2.8-2-6-5.6-7.8-7.6-17.5-24.8-47.7-61-50.8-117.2v-0.1c3.1-56.2 33.2-92.3 50.7-117.2 1.8-2 5-5.6 7.8-7.6 9-6.6 18.5-8 23.6-8.4 10.2 0.9 23.6 0.5 32.6 16.8 6.4 8.6 9.5 72 9 116.4" fill="#171819"/><path id="path474" d="m450.4 154.6v-0.3l1.9 89.5c0.6 9.3 1.2 16.3 10 22.8 3.7 2.8 8.3 4.1 12.9 4.1h3.3c18.5 0 25.5-9.4 28.5-25.1 0 0 4.1-37.4 4.1-91.3s-4.1-91.4-4.1-91.4c-3-15.7-10-25.1-28.5-25.1h-3.3c-4.6 0-9.2 1.4-12.9 4.1-8.8 6.5-9.3 13.4-10 22.8l-1.9 89.5v-0.3" fill="#282827"/><path id="path476" d="m505.9 153.6c0 47.9-4 80.4-4 80.4-2.3 13.9-6.7 23-20.7 23h-6.8c-8 0-14.5-6.5-14.5-14.5v-88.9 0.3-88.9c0-8 6.5-14.5 14.5-14.5h6.8c14 0 18.4 9.1 20.7 23 0 0 4 32.5 4 80.4" fill="#1d1d1d"/><g id="g478"><rect id="rect480" x="463.4" y="61.6" width="30.2" height="183.6" fill="#1b1c1c"/><rect id="rect482" x="463.6" y="61.9" width="29.8" height="183.1" fill="#414446"/><path id="path484" d="m465.1 94.7" fill="none" stroke="#bd3126" stroke-miterlimit="10" stroke-width=".3"/><path id="path486" d="m463.6 153.2v63.1c0 13.2 8.7 24.6 12 28.6h17.8v-91.7 0.4-91.7h-17.8c-3.3 4-12 15.4-12 28.6v63.1" fill="#1b1d1e"/><path id="path488" d="m486.9 61.9v12.4c0 0.4 0.4 0.8 0.8 0.8h5.7v-13.2h-6.5z" fill="#46494b"/><path id="path490" d="m486.9 244.9v-12.4c0-0.4 0.4-0.8 0.8-0.8h5.7v13.2h-6.5z" fill="#46494b"/><path id="path492" d="m491.2 153.2v74.7c0 0.4-0.4 0.8-0.8 0.8h-4.5c-0.4 0-0.8 0.3-0.8 0.8v11.4 0.1h-9.4c-6-7.3-10.6-15.6-10.6-29v-58.7-58.8c0-13.4 4.6-21.7 10.6-29h9.4v0.1 11.4c0 0.4 0.4 0.8 0.8 0.8h4.5c0.4 0 0.8 0.4 0.8 0.8v74.6z" fill="#45494a"/><rect id="rect494" x="477.9" y="61.9" width=".6" height="183.1"/><g id="g496"><rect id="rect498" x="476.7" y="102.1" width="1.2" height="102.2" fill="#1c1e1f"/><rect id="rect500" x="475.5" y="102.1" width="1.2" height="102.2" fill="#202223"/><rect id="rect502" x="474.3" y="102.1" width="1.2" height="102.2" fill="#242627"/><rect id="rect504" x="473.1" y="102.1" width="1.2" height="102.2" fill="#292c2d"/><rect id="rect506" x="471.9" y="102.1" width="1.2" height="102.2" fill="#2f3133"/><rect id="rect508" x="470.7" y="102.1" width="1.2" height="102.2" fill="#333637"/><rect id="rect510" x="469.5" y="102.1" width="1.2" height="102.2" fill="#373a3c"/><rect id="rect512" x="468.3" y="102.1" width="1.2" height="102.2" fill="#3b3e3f"/><rect id="rect514" x="467.1" y="102.1" width="1.2" height="102.2" fill="#3f4244"/></g><path id="XMLID_22_" d="m477.9 105.3v-3.1h-10.8c0-0.1 9.1 0.7 10.8 3.1z" fill="#1b1d1e"/><path id="XMLID_21_" d="m477.9 201.2v3.1h-10.8s9.1-0.8 10.8-3.1z" fill="#1b1d1e"/><g id="g518"><rect id="rect520" x="478.5" y="102.1" width="1.2" height="102.2" fill="#1c1e1f"/><rect id="rect522" x="479.7" y="102.1" width="1.2" height="102.2" fill="#202223"/><rect id="rect524" x="480.9" y="102.1" width="1.2" height="102.2" fill="#242627"/><rect id="rect526" x="482.1" y="102.1" width="1.2" height="102.2" fill="#292c2d"/><rect id="rect528" x="483.3" y="102.1" width="1.2" height="102.2" fill="#2f3133"/><rect id="rect530" x="484.5" y="102.1" width="1.2" height="102.2" fill="#333637"/><rect id="rect532" x="485.7" y="102.1" width="1.2" height="102.2" fill="#373a3c"/><rect id="rect534" x="486.9" y="102.1" width="1.2" height="102.2" fill="#3b3e3f"/><rect id="rect536" x="488.1" y="102.1" width="1.2" height="102.2" fill="#3f4244"/></g><path id="XMLID_20_" d="m478.5 105.3v-3.1h11.2c0-0.1-9.4 0.7-11.2 3.1z" fill="#1b1d1e"/><path id="XMLID_19_" d="m478.5 201.2v3.1h11.2s-9.4-0.8-11.2-3.1z" fill="#1b1d1e"/><g id="g540"><g id="g542"><path id="path544" d="m480.1 80.8v0.6c-0.2 0-0.5-0.1-0.5-0.3s0.3-0.3 0.5-0.3z" fill="#0e1214"/><path id="path546" d="m489.3 80.8v0.6c0.2 0 0.5-0.1 0.5-0.3-0.1-0.2-0.3-0.3-0.5-0.3z" fill="#5e5e60"/><rect id="rect548" x="480.1" y="80.8" width="9.2" height=".6" fill="#393d3f"/></g><g id="g550"><path id="path552" d="m480.1 86.3v0.6c-0.2 0-0.5-0.1-0.5-0.3 0-0.1 0.3-0.3 0.5-0.3z" fill="#0e1214"/><path id="path554" d="m489.3 86.3v0.6c0.2 0 0.5-0.1 0.5-0.3-0.1-0.1-0.3-0.3-0.5-0.3z" fill="#5e5e60"/><rect id="rect556" x="480.1" y="86.3" width="9.2" height=".6" fill="#393d3f"/></g><g id="g558"><path id="path560" d="m467.1 86.3v0.6c-0.2 0-0.5-0.1-0.5-0.3 0.1-0.1 0.3-0.3 0.5-0.3z" fill="#0e1214"/><path id="path562" d="m476.3 86.3v0.6c0.2 0 0.5-0.1 0.5-0.3 0-0.1-0.2-0.3-0.5-0.3z" fill="#5e5e60"/><rect id="rect564" x="467.1" y="86.3" width="9.2" height=".6" fill="#393d3f"/></g><g id="g566"><path id="path568" d="m468.9 80.8v0.6c-0.2 0-0.5-0.1-0.5-0.3s0.2-0.3 0.5-0.3z" fill="#0e1214"/><path id="path570" d="m476.3 80.8v0.6c0.2 0 0.5-0.1 0.5-0.3s-0.2-0.3-0.5-0.3z" fill="#5e5e60"/><rect id="rect572" x="468.9" y="80.8" width="7.5" height=".6" fill="#393d3f"/></g><g id="g574"><path id="path576" d="m480.1 225.6v-0.6c-0.2 0-0.5 0.1-0.5 0.3s0.3 0.3 0.5 0.3z" fill="#0e1214"/><path id="path578" d="m489.3 225.6v-0.6c0.2 0 0.5 0.1 0.5 0.3-0.1 0.2-0.3 0.3-0.5 0.3z" fill="#5e5e60"/><rect id="rect580" x="480.1" y="225" width="9.2" height=".6" fill="#393d3f"/></g><g id="g582"><path id="path584" d="m480.1 220.1v-0.6c-0.2 0-0.5 0.1-0.5 0.3s0.3 0.3 0.5 0.3z" fill="#0e1214"/><path id="path586" d="m489.3 220.1v-0.6c0.2 0 0.5 0.1 0.5 0.3-0.1 0.2-0.3 0.3-0.5 0.3z" fill="#5e5e60"/><rect id="rect588" x="480.1" y="219.5" width="9.2" height=".6" fill="#393d3f"/></g><g id="g590"><path id="path592" d="m467.1 220.1v-0.6c-0.2 0-0.5 0.1-0.5 0.3 0.1 0.2 0.3 0.3 0.5 0.3z" fill="#0e1214"/><path id="path594" d="m476.3 220.1v-0.6c0.2 0 0.5 0.1 0.5 0.3s-0.2 0.3-0.5 0.3z" fill="#5e5e60"/><rect id="rect596" x="467.1" y="219.5" width="9.2" height=".6" fill="#393d3f"/></g><g id="g598"><path id="path600" d="m468.9 225.6v-0.6c-0.2 0-0.5 0.1-0.5 0.3s0.2 0.3 0.5 0.3z" fill="#0e1214"/><path id="path602" d="m476.3 225.6v-0.6c0.2 0 0.5 0.1 0.5 0.3s-0.2 0.3-0.5 0.3z" fill="#5e5e60"/><rect id="rect604" x="468.9" y="225" width="7.5" height=".6" fill="#393d3f"/></g></g><g id="g606"><rect id="rect608" x="491.4" y="78.8" width="2.2" height="7.1"/><path id="path610" d="m465.7 79h1.9c-0.8 2.1-1.4 4.4-1.9 6.9h-1.8c0.4-2.4 1-4.7 1.8-6.9"/><rect id="rect612" x="491.4" y="220.9" width="2.2" height="7.1"/><path id="path614" d="m465.7 227.8h1.9c-0.8-2.1-1.4-4.4-1.9-6.9h-1.8c0.4 2.4 1 4.8 1.8 6.9"/></g></g><path id="path616" d="m447.1 37" fill="none" stroke="#fff" stroke-miterlimit="10" stroke-width=".3"/><g id="g618"><path id="path620" d="m460.2 242.6v-177.4c0-8.1 6.6-14.7 14.6-14.7h6.8c14.2 0 18.6 9.2 20.8 23.1 0 0.3 4 32.9 4 80.1v0.3c0 47.2-4 79.8-4 80.1-2.2 13.9-6.6 23.1-20.8 23.1h-6.8c-8.1 0.1-14.6-6.5-14.6-14.6zm0.3-88.5v88.6c0 7.9 6.4 14.3 14.4 14.3h6.8c14 0 18.3-9.1 20.5-22.9 0-0.3 4-33 4-80.2s-4-79.9-4-80.2c-2.2-13.7-6.6-22.9-20.5-22.9h-6.8c-7.9 0-14.4 6.4-14.4 14.3v89z" fill="#2a2c2e"/></g><g id="g622"><path id="path624" d="m450.2 154.7v-0.7l1.9-89.2c0.6-9.1 1.1-16.3 10.1-22.9 3.6-2.7 8.2-4.2 13-4.2h3.3c8.9 0 15.5 2.2 20.2 6.7 4.2 4 6.8 9.9 8.5 18.5 0 0.4 4.1 38 4.1 91.3s-4.1 90.9-4.1 91.3c-1.6 8.6-4.3 14.5-8.5 18.5-4.6 4.5-11.2 6.7-20.2 6.7h-3.3c-4.7 0-9.4-1.5-13-4.2-8.9-6.6-9.4-13.8-10.1-22.9l-1.9-88.9zm60.8-0.3c0-53.3-4.1-90.9-4.1-91.3-3.3-17.5-11.8-25-28.3-25h-3.3c-4.7 0-9.2 1.5-12.8 4.1-8.8 6.5-9.3 13.6-9.9 22.6l-1.9 89.5 1.9 89.5c0.6 9 1.1 16.1 9.9 22.6 3.6 2.6 8.1 4.1 12.8 4.1h3.3c16.5 0 25-7.5 28.3-25 0-0.2 4.1-37.8 4.1-91.1z" fill="#3f3f3f"/></g><path id="path626" d="m441.1 154.2c0 50.9-8.9 55.6-24 62.2-0.4 0.2-1 0-1.5-0.1s-0.9-0.4-1.1-0.8c-5.2-11.4-8.2-21.4-10.6-29.3-4.8-15.8-5.2-28.3-5.2-32s0.4-16.2 5.2-32c2.4-7.9 5.4-17.8 10.6-29.3 0.2-0.4 0.6-0.7 1.1-0.8s1.1-0.3 1.5-0.1c15.1 6.6 24 11.3 24 62.2z" fill="#0b0c0d"/><g id="g628"><g id="g630" fill="#cdcaca"><path id="path632" d="m422.4 151.6c0 0.5 0.1 0.9 0.1 1.4 0 0.7-0.1 1.4-0.2 2.1-0.1 0.5-0.3 1-0.5 1.5-0.2 0.6-0.5 1.1-1 1.5-0.3 0.3-0.8 0.6-1.2 0.7-0.4 0-0.9 0.1-1.3-0.1-0.4-0.1-0.7-0.3-1-0.6-0.4-0.4-0.7-1-1-1.6-0.2-0.3-0.3-0.7-0.5-1-0.2-0.6-0.5-1.3-0.6-1.9-0.2-0.7-0.4-1.4-0.7-2-0.3-0.8-0.7-1.7-1.3-2.3-0.1-0.1-0.2-0.2-0.3-0.2-0.1 0.2-0.1 0.4-0.1 0.5v9.2c0 0.1 0 0.3 0.1 0.4 0.1 0.2 0.2 0.3 0.3 0.5-0.4 0.1-0.7 0-1.1 0h-1.5v-0.2c0.1-0.1 0.3-0.2 0.3-0.4 0.1-0.2 0-0.4 0.1-0.6v-12.7c0-0.1 0-0.2 0.1-0.2 0.5 0 1.1 0.1 1.6 0.3 0.8 0.3 1.4 1 1.9 1.7 0.3 0.5 0.6 1 0.8 1.4 0.1 0.3 0.3 0.6 0.4 0.9 0.2 0.4 0.4 0.9 0.5 1.3 0.2 0.6 0.5 1.3 0.7 1.9s0.5 1.2 0.8 1.7c0.2 0.4 0.6 0.8 1.1 1 0.4 0.2 0.8 0 1.1-0.3 0.6-0.7 0.8-1.6 0.8-2.5 0-1.3-0.4-2.6-1.2-3.7-0.1-0.2-0.3-0.4-0.5-0.5-0.1-0.1-0.3-0.2-0.5-0.3s-0.4 0-0.6 0c-0.1 0-0.1-0.2 0-0.3 0.3-0.4 0.7-0.7 1-1.1 0.3-0.3 0.6-0.6 0.8-0.9 0.1-0.1 0.2-0.3 0.4-0.2 0.1 0.2 0 0.4 0.1 0.6 0.2 0.4 0.5 0.7 0.7 1.1 0.4 0.6 0.7 1.3 1 2 0.2 0.6 0.3 1.2 0.4 1.9z"/><path id="path634" d="m422.1 135.2c0.1 0.7 0.2 1.5 0.3 2.2 0 0.8 0 1.7-0.1 2.5-0.1 0.5-0.2 0.9-0.3 1.4-0.2 0.5-0.4 1-0.7 1.4-0.4 0.5-0.9 1-1.5 1.2-0.4 0.1-0.8 0.1-1.2 0-0.2-0.1-0.5-0.2-0.7-0.4s-0.3-0.4-0.4-0.7-0.2-0.5-0.3-0.8c0 0-0.1 0.1-0.2 0.1-0.1 0.3-0.2 0.7-0.4 1-0.2 0.5-0.6 0.9-0.9 1.2-0.3 0.2-0.7 0.4-1.1 0.5-0.2 0-0.5 0.1-0.7 0-0.5-0.1-0.9-0.3-1.3-0.6-0.5-0.5-0.9-1.1-1.1-1.8-0.2-0.6-0.4-1.3-0.5-2-0.2-1.3-0.2-2.6-0.1-4 0.1-0.9 0.2-1.8 0.4-2.7 0.2-0.7 0.4-1.4 0.7-2 0.1-0.2 0.2-0.5 0.3-0.7 0-0.2-0.1-0.4-0.1-0.6 0-0.1 0.1-0.1 0.2-0.1 0.2 0.1 0.4 0.2 0.5 0.3 0.4 0.3 0.9 0.5 1.3 0.8 0.2 0.1 0.4 0.2 0.6 0.4 0.1 0.1 0.1 0.3 0 0.3-0.2 0.1-0.5 0.2-0.7 0.4-0.4 0.5-0.7 1.2-0.9 1.8-0.1 0.5-0.3 1.1-0.3 1.6-0.2 1-0.2 2.1-0.1 3.2 0.1 0.5 0.2 1.1 0.4 1.6 0.2 0.4 0.5 0.8 0.9 1.1 0.5 0.3 1.1 0.1 1.4-0.4 0.5-0.6 0.7-1.4 0.8-2.1 0.1-0.6 0.1-1.2 0.1-1.9 0-0.4-0.1-0.8-0.2-1.2-0.1-0.2-0.2-0.3-0.2-0.4 0.1-0.1 0.2-0.1 0.4-0.1h2.1c0 0.3-0.2 0.4-0.2 0.7-0.2 0.9-0.1 1.8 0 2.6 0.1 0.5 0.2 1 0.5 1.4 0.2 0.2 0.4 0.5 0.7 0.6s0.7 0 0.9-0.3c0.2-0.2 0.3-0.4 0.4-0.6 0.2-0.5 0.3-1.1 0.4-1.6 0.1-0.6 0-1.1-0.1-1.7-0.1-0.8-0.3-1.5-0.6-2.2-0.2-0.4-0.4-0.8-0.7-1.1-0.2-0.2-0.4-0.2-0.7-0.2-0.1 0-0.2-0.2-0.1-0.3l1.8-1.8c0.1-0.1 0.2-0.2 0.3-0.2s0.1 0 0.2 0.1c0 0.2 0 0.5 0.1 0.7 0.3 0.6 0.6 1.1 0.9 1.7-0.5 0.5-0.3 1.1-0.2 1.7z"/><path id="path636" d="m422.3 161.1c0.1 1.4 0 2.8 0 4.2 0 0.1 0 0.3-0.1 0.4-0.1-0.1-0.2-0.2-0.4-0.2-0.5 0.5-1 1-1.5 1.4-0.5 0.5-1.1 1-1.6 1.6-0.1 0.1-0.2 0.2-0.1 0.3 0.2 0.3 0.6 0.6 0.8 0.8 0.7 0.7 1.4 1.3 2.1 2 0.1 0.1 0.2 0.2 0.4 0.2 0.1-0.1 0.2-0.1 0.3-0.2 0.1 0.3 0 0.7 0 1v3.5c0 0.1-0.1 0.1-0.2 0.2-0.1-0.2-0.1-0.5-0.3-0.8-0.2-0.4-0.5-0.7-0.8-1-0.4-0.5-0.9-0.9-1.4-1.3l-2.7-2.7c-0.1-0.1-0.2-0.1-0.3-0.1-0.4 0.3-0.6 0.6-1 0.9-0.2 0.3-0.5 0.5-0.8 0.7l-3.3 3.3c-0.2 0.2-0.4 0.5-0.5 0.8-0.1 0.2-0.1 0.4-0.3 0.5-0.1-0.3 0-0.5-0.1-0.8v-3.3c0-0.2 0-0.4 0.1-0.6 0.1 0.1 0.2 0.2 0.4 0.2 0.1 0 0.2-0.1 0.2-0.2l0.9-0.9c0.8-0.7 1.4-1.4 2.2-2.1 0.1-0.2 0.3-0.3 0.4-0.5s-0.1-0.3-0.2-0.4c-0.7-0.7-1.4-1.4-2.1-2-0.5-0.4-0.9-0.8-1.3-1.2-0.1-0.1-0.2-0.2-0.3-0.1-0.1 0-0.2 0.1-0.2 0.2 0 0-0.1 0-0.1-0.1v-4c0-0.2 0-0.4 0.1-0.6 0.1 0 0.2 0.1 0.2 0.2 0.1 0.3 0.2 0.6 0.4 0.9 0.3 0.4 0.7 0.7 1 1 1.1 1 2.1 2.1 3.2 3.1l1.1 1.1c0.2 0 0.3-0.1 0.4-0.2l3.1-3.1c0.4-0.3 0.7-0.7 1.1-1.1 0.2-0.2 0.4-0.3 0.5-0.6 0.1-0.2 0.2-0.5 0.3-0.8 0.2 0.4 0.3 0.4 0.4 0.4z"/></g><g id="g638"><rect id="rect640" x="423.9" y="126.1" width="5.3" height="55.2" fill="#cdcaca"/><g id="g642" fill="#2f3335"><path id="path644" d="m426.3 132.5v-0.8-0.1s-0.1 0-0.1-0.1v-0.1h0.8v0.1c-0.1 0-0.1 0-0.1 0.1v0.1 1.6h-0.1c0-0.1 0-0.1-0.1-0.1h-0.1-0.7-0.1s0 0.1-0.1 0.1h-0.1c-0.4-0.6-0.5-1.2-0.5-1.8 0-0.5 0.1-1 0.4-1.3 0.3-0.4 0.8-0.6 1.3-0.6s1 0.2 1.3 0.6 0.4 0.8 0.4 1.4c0 0.2 0 0.4-0.1 0.5 0 0.2-0.1 0.4-0.2 0.6 0 0.1-0.1 0.2-0.1 0.2s0 0.1 0.1 0.1v0.1l-0.8-0.4v-0.1h0.1s0.1 0 0.1-0.1c0.1-0.1 0.1-0.2 0.2-0.4s0.1-0.4 0.1-0.5c0-0.3-0.1-0.6-0.3-0.9s-0.5-0.4-0.9-0.4-0.6 0.1-0.9 0.4c-0.2 0.2-0.3 0.5-0.3 0.9 0 0.2 0 0.4 0.1 0.5 0 0.2 0.1 0.3 0.2 0.5h0.5z"/><path id="path646" d="m426.6 138.5h-0.9v2.1 0.1s0.1 0 0.1 0.1v0.1h-0.9v-0.1c0.1 0 0.1 0 0.1-0.1v-0.1-3h0.1c0 0.1 0 0.1 0.1 0.1h0.1 2.8 0.1s0-0.1 0.1-0.1h0.1v3 0.1s0.1 0 0.1 0.1v0.1h-0.9v-0.1c0.1 0 0.1 0 0.1-0.1v-0.1-2.1h-0.8v1.4 0.1s0.1 0 0.1 0.1v0.1h-0.8v-0.2c0.1 0 0.1 0 0.1-0.1v-0.1-1.3z"/><path id="path648" d="m427.4 145.9h-2-0.1s0 0.1-0.1 0.1h-0.1v-1h0.1c0 0.1 0 0.1 0.1 0.1h0.1 2.8 0.1s0-0.1 0.1-0.1h0.1v1.1h-0.1c0-0.1-0.1-0.1-0.1-0.1s-0.1 0-0.1 0.1l-1.9 1.8h2 0.1s0-0.1 0.1-0.1h0.1v1h-0.1c0-0.1 0-0.1-0.1-0.1h-0.1-2.8-0.1s0 0.1-0.1 0.1h-0.1v-1h0.1c0 0.1 0 0.1 0.1 0.1 0 0 0.1 0 0.2-0.1l1.8-1.9z"/><path id="path650" d="m426.6 154.1h-0.9v2.1 0.1s0.1 0 0.1 0.1v0.1h-0.9v-0.1c0.1 0 0.1 0 0.1-0.1v-0.1-3h0.1c0 0.1 0 0.1 0.1 0.1h0.1 2.8 0.1s0-0.1 0.1-0.1h0.1v3 0.1s0.1 0 0.1 0.1v0.1h-0.9v-0.1c0.1 0 0.1 0 0.1-0.1v-0.1-2.1h-0.8v1.4 0.1s0.1 0 0.1 0.1v0.1h-0.8v-0.1c0.1 0 0.1 0 0.1-0.1v-0.1-1.4z"/><path id="path652" d="m428.2 163.9-0.8-0.4v-0.1c0.1 0 0.1 0 0.2-0.1 0.2-0.3 0.3-0.6 0.3-1 0-0.2 0-0.3-0.1-0.5 0-0.1-0.1-0.2-0.1-0.2-0.1-0.1-0.1-0.1-0.2-0.1s-0.2 0.1-0.3 0.2c0 0.1 0 0.2-0.1 0.5v0.4c0 0.2-0.1 0.4-0.1 0.6 0 0.1-0.1 0.3-0.2 0.4l-0.3 0.3c-0.1 0.1-0.3 0.1-0.4 0.1-0.2 0-0.4-0.1-0.6-0.2s-0.3-0.3-0.4-0.6c-0.1-0.2-0.1-0.4-0.1-0.7 0-0.4 0.1-0.9 0.3-1.3 0-0.1 0.1-0.1 0.1-0.2 0 0 0-0.1-0.1-0.1v-0.1l0.8 0.4v0.1c-0.1 0-0.1 0-0.2 0.1s-0.2 0.3-0.2 0.5c-0.1 0.2-0.1 0.4-0.1 0.6s0 0.4 0.1 0.6c0 0.1 0.1 0.2 0.2 0.2s0.1 0.1 0.2 0.1 0.2-0.1 0.2-0.2 0.1-0.3 0.1-0.5v-0.4c0-0.3 0.1-0.4 0.1-0.5s0.1-0.2 0.1-0.3c0.1-0.1 0.2-0.3 0.3-0.3 0.1-0.1 0.3-0.1 0.5-0.1 0.3 0 0.5 0.1 0.7 0.3 0.2 0.3 0.4 0.6 0.4 1.1 0 0.2 0 0.4-0.1 0.6 0 0.2-0.1 0.4-0.2 0.7 0 0.1-0.1 0.2-0.1 0.2 0-0.3 0.1-0.2 0.1-0.1z"/><path id="path654" d="m425.4 169.5h2.8 0.1s0-0.1 0.1-0.1h0.1v1h-0.1c0-0.1 0-0.1-0.1-0.1h-0.1-2.8-0.1s0 0.1-0.1 0.1h-0.1v-1h0.1c0 0.1 0 0.1 0.1 0.1h0.1z"/><path id="path656" d="m428.2 177.9-0.8-0.4v-0.1c0.1 0 0.1 0 0.2-0.1 0.2-0.3 0.3-0.6 0.3-1 0-0.2 0-0.3-0.1-0.5 0-0.1-0.1-0.2-0.1-0.2-0.1-0.1-0.1-0.1-0.2-0.1s-0.2 0.1-0.3 0.2c0 0.1 0 0.2-0.1 0.5v0.4c0 0.2-0.1 0.4-0.1 0.6 0 0.1-0.1 0.3-0.2 0.4l-0.3 0.3c-0.1 0.1-0.3 0.1-0.4 0.1-0.2 0-0.4-0.1-0.6-0.2s-0.3-0.3-0.4-0.6c-0.1-0.2-0.1-0.4-0.1-0.7 0-0.4 0.1-0.9 0.3-1.3 0-0.1 0.1-0.1 0.1-0.2 0 0 0-0.1-0.1-0.1v-0.1l0.8 0.4v0.1c-0.1 0-0.1 0-0.2 0.1s-0.2 0.3-0.2 0.5c-0.1 0.2-0.1 0.4-0.1 0.6s0 0.4 0.1 0.6c0 0.1 0.1 0.2 0.2 0.2s0.1 0.1 0.2 0.1 0.2-0.1 0.2-0.2 0.1-0.3 0.1-0.5v-0.4c0-0.3 0.1-0.4 0.1-0.5s0.1-0.2 0.1-0.3c0.1-0.1 0.2-0.3 0.3-0.3 0.1-0.1 0.3-0.1 0.5-0.1 0.3 0 0.5 0.1 0.7 0.3 0.2 0.3 0.4 0.6 0.4 1.1 0 0.2 0 0.4-0.1 0.6 0 0.2-0.1 0.4-0.2 0.7 0 0.1-0.1 0.2-0.1 0.2 0-0.3 0.1-0.2 0.1-0.1z"/></g></g><text id="text658" transform="matrix(0 .7767 -1 0 427.8 182.13)" fill="#cdcaca" font-family="CopperplateGothic-Bold" font-size="2.3461px">TM</text>
</g><g id="g660"><path id="path662" d="m398.5 154.4c0-4.6 0.6-16.9 5.2-32.1l0.2-0.6c2.4-7.8 5.4-17.6 10.4-28.7 0.2-0.5 0.7-0.8 1.2-0.9 0.1 0 0.2 0 0.3-0.1 0.4-0.1 0.9-0.2 1.3 0 6.9 3 13.5 5.9 17.8 14.5 4.4 8.9 6.3 23.7 6.3 47.8s-2 38.9-6.3 47.8c-4.3 8.7-10.8 11.5-17.8 14.5-0.4 0.2-0.8 0.1-1.3 0-0.1 0-0.2 0-0.3-0.1-0.5-0.1-1-0.4-1.2-0.9-5.1-11.2-8-20.9-10.4-28.7l-0.2-0.6c-4.6-15.1-5.2-27.4-5.2-31.9zm42.4 0c0-24.1-1.9-38.8-6.3-47.7-4.2-8.6-10.7-11.4-17.6-14.4-0.3-0.1-0.7-0.1-1.1 0-0.1 0-0.2 0-0.3 0.1-0.4 0.1-0.8 0.4-1 0.7-5.1 11.2-8 20.9-10.4 28.7l-0.2 0.6c-4.6 15.2-5.2 27.4-5.2 32s0.6 16.8 5.2 32l0.2 0.6c2.4 7.8 5.4 17.5 10.4 28.7 0.2 0.4 0.5 0.7 1 0.7 0.1 0 0.2 0 0.3 0.1 0.4 0.1 0.8 0.2 1.1 0 6.9-3 13.4-5.8 17.6-14.4 4.4-9 6.3-23.6 6.3-47.7z" fill="#2a2c2e"/></g><g id="g664"><path id="path666" d="m396.3 154.2c2.8-50.8 27.4-84.8 45.3-109.7 1.9-2.7 3.7-5.2 5.4-7.6 2.1-2.4 5.2-5.7 7.8-7.7 8.4-6.2 17.5-8 23.7-8.4 0.8 0.1 1.7 0.1 2.5 0.2 9.7 0.7 21.9 1.6 30.2 16.6 6.5 8.8 9.5 74.5 9 116.5h-0.3c0.5-42-2.5-107.6-9-116.3-8.3-14.9-20.3-15.8-30-16.5-0.9-0.1-1.7-0.1-2.5-0.2-6.1 0.4-15.2 2.2-23.5 8.3-2.6 1.9-5.6 5.2-7.7 7.6-1.7 2.4-3.5 4.9-5.4 7.6-17.9 24.8-42.5 58.8-45.3 109.5v0.1c2.8 50.7 27.3 84.7 45.3 109.5 1.9 2.7 3.7 5.2 5.4 7.6 2.1 2.4 5.1 5.7 7.7 7.6 8.4 6.2 17.4 7.9 23.5 8.3 0.8-0.1 1.6-0.1 2.5-0.2 9.7-0.7 21.7-1.6 30-16.5 6.5-8.7 9.4-74.3 9-116.3h0.3c0.5 42.1-2.5 107.7-9 116.5-8.4 15-20.5 15.9-30.2 16.6-0.9 0.1-1.7 0.1-2.5 0.2-6.2-0.4-15.3-2.2-23.7-8.4-2.6-1.9-5.7-5.2-7.8-7.6-1.7-2.4-3.5-4.9-5.4-7.6-18-24.9-42.6-58.9-45.3-109.7z" fill="#2a2c2e"/></g><g id="g668"><g id="g670"><path id="XMLID_18_" d="m471.4 299.3c-1.4 0-2.6-1-2.6-2.2v-5.9c0-1.2 1.2-2.3 2.6-2.3s2.6 1 2.6 2.3v5.9c0 1.2-1.2 2.2-2.6 2.2z" fill="#1b1d1e"/><path id="XMLID_17_" d="m471.4 297.7c-0.9 0-1.7-0.7-1.7-1.6v-4.1c0-0.9 0.8-1.6 1.7-1.6s1.7 0.7 1.7 1.6v4.1c0 0.9-0.7 1.6-1.7 1.6z" fill="#2e3233"/><rect id="rect674" x="473.1" y="292" width=".9" height="4.1"/><rect id="rect676" x="468.8" y="292" width=".9" height="4.1"/></g><g id="g678"><path id="XMLID_16_" d="m479.5 299.3c-1.4 0-2.6-1-2.6-2.2v-5.9c0-1.2 1.2-2.3 2.6-2.3s2.6 1 2.6 2.3v5.9c0 1.2-1.2 2.2-2.6 2.2z" fill="#1b1d1e"/><path id="XMLID_15_" d="m479.5 297.7c-0.9 0-1.7-0.7-1.7-1.6v-4.1c0-0.9 0.8-1.6 1.7-1.6s1.7 0.7 1.7 1.6v4.1c0.1 0.9-0.7 1.6-1.7 1.6z" fill="#2e3233"/><rect id="rect682" x="481.3" y="292" width=".9" height="4.1"/><rect id="rect684" x="477" y="292" width=".9" height="4.1"/></g><g id="g686"><path id="XMLID_14_" d="m487.7 299.3c-1.4 0-2.6-1-2.6-2.2v-5.9c0-1.2 1.2-2.3 2.6-2.3s2.6 1 2.6 2.3v5.9c-0.1 1.2-1.2 2.2-2.6 2.2z" fill="#1b1d1e"/><path id="XMLID_13_" d="m487.7 297.7c-0.9 0-1.7-0.7-1.7-1.6v-4.1c0-0.9 0.8-1.6 1.7-1.6s1.7 0.7 1.7 1.6v4.1c0 0.9-0.8 1.6-1.7 1.6z" fill="#2e3233"/><rect id="rect690" x="489.4" y="292" width=".9" height="4.1"/><rect id="rect692" x="485.1" y="292" width=".9" height="4.1"/></g></g><g id="g694"><g id="g696"><path id="XMLID_12_" d="m471.5 8.9c-1.4 0-2.6 1-2.6 2.2v5.9c0 1.2 1.2 2.3 2.6 2.3s2.6-1 2.6-2.3v-5.9c-0.1-1.2-1.2-2.2-2.6-2.2z" fill="#1b1d1e"/><path id="XMLID_11_" d="m471.5 10.5c-0.9 0-1.7 0.7-1.7 1.6v4.1c0 0.9 0.8 1.6 1.7 1.6s1.7-0.7 1.7-1.6v-4.1c0-0.9-0.8-1.6-1.7-1.6z" fill="#2e3233"/><rect id="rect700" x="473.2" y="12.1" width=".9" height="4.1"/><rect id="rect702" x="468.9" y="12.1" width=".9" height="4.1"/></g><g id="g704"><path id="XMLID_10_" d="m479.6 8.9c-1.4 0-2.6 1-2.6 2.2v5.9c0 1.2 1.2 2.3 2.6 2.3s2.6-1 2.6-2.3v-5.9c0-1.2-1.2-2.2-2.6-2.2z" fill="#1b1d1e"/><path id="XMLID_9_" d="m479.6 10.5c-0.9 0-1.7 0.7-1.7 1.6v4.1c0 0.9 0.8 1.6 1.7 1.6s1.7-0.7 1.7-1.6v-4.1c0-0.9-0.8-1.6-1.7-1.6z" fill="#2e3233"/><rect id="rect708" x="481.3" y="12.1" width=".9" height="4.1"/><rect id="rect710" x="477" y="12.1" width=".9" height="4.1"/></g><g id="g712"><path id="XMLID_8_" d="m487.7 8.9c-1.4 0-2.6 1-2.6 2.2v5.9c0 1.2 1.2 2.3 2.6 2.3s2.6-1 2.6-2.3v-5.9c0-1.2-1.2-2.2-2.6-2.2z" fill="#1b1d1e"/><path id="XMLID_7_" d="m487.7 10.5c-0.9 0-1.7 0.7-1.7 1.6v4.1c0 0.9 0.8 1.6 1.7 1.6s1.7-0.7 1.7-1.6v-4.1c0-0.9-0.7-1.6-1.7-1.6z" fill="#2e3233"/><rect id="rect716" x="489.4" y="12.1" width=".9" height="4.1"/><rect id="rect718" x="485.1" y="12.1" width=".9" height="4.1"/></g></g><path id="XMLID_6_" d="m450.1 303.9c-0.5 0-21.5-0.2-30.2-1.4-8.9-1.2-19.6 1.1-27.1-16.2-7.4-17.3-13.9-43.3-18.2-80.6s-3.8-83.4 2.3-119.9c6.2-36.4 10.9-56.7 16.3-67.9 5.7-12 15.8-13.3 25.4-13.5 5-0.1 30.1-0.4 37.4-0.5-6.5 0.1-11.6 0.5-13.5 1.1l-1.1 0.4c-6.1 2-11.4 3.8-14.5 12.4-1.1 3-3.1 10.2-5.5 18.5-4.2 14.9-10 35.2-13.3 41.7-5.2 10.3-15.3 34.4-17.5 41l-2.2 6.7c-0.2 0.5-4.4 11.8-4.4 28.3s4.2 27.7 4.4 28.1l2.2 6.8c2.2 6.7 12.2 30.7 17.5 41 3.3 6.5 9.1 26.8 13.3 41.7 2.4 8.3 4.4 15.5 5.5 18.5 3.2 8.7 8.4 10.4 14.5 12.4l1.1 0.4c1.2 0.5 3.9 0.8 7.6 1z" fill="#171819"/><path id="path721" d="m531.1 109.5c-1-22-2.5-39.1-3.8-50.9-2.4-22.8-0.5-39.3-23.3-48.3-12.7-5-53.5-6-59.9-3.8s-11.2 3.4-14.2 11.8-13.4 50.2-18.4 60.4c-5.1 10.2-14.8 34-17 40.8l-2.2 6.8s-4.2 11.4-4.2 27.8 4.2 27.8 4.2 27.8l2.2 6.8c2.2 6.8 11.9 30.7 17 40.8 5.1 10.2 15.4 52 18.4 60.4s7.9 9.6 14.2 11.8c6.4 2.2 47.2 1.2 59.9-3.8 22.9-9 21-25.5 23.3-48.3 1.2-11.8 2.8-29.1 3.8-51.1 0.6-13.2 1-28.2 1-44.5v-0.1c0-16.4-0.4-31.2-1-44.4m1.6 0c0.6 13.2 1 28.2 1 44.5v0.1c0 16.3-0.4 31.1-1 44.3-0.8 17.6-2.1 34.7-3.9 51.3-0.3 2.9-0.6 5.8-0.8 8.5-1.6 18.4-2.8 32.9-24.1 41.1-9.4 3.6-32.6 5.1-48.2 4.9h-0.8c-6.5-0.1-11.6-0.5-13.5-1.1l-1.1-0.4c-6.1-2-11.3-3.8-14.5-12.4-1.1-3-3.1-10.2-5.5-18.5-4.2-14.9-10-35.2-13.3-41.7-5.2-10.3-15.3-34.4-17.5-41l-2.2-6.7c-0.2-0.5-4.4-11.8-4.4-28.3s4.2-27.8 4.4-28.3l2.2-6.7c2.2-6.7 12.2-30.7 17.5-41 3.3-6.5 9.1-26.8 13.3-41.7 2.4-8.3 4.4-15.5 5.5-18.5 3.2-8.7 8.4-10.4 14.5-12.4l1.1-0.4c1.9-0.6 7-1 13.5-1.1h0.8c15.6-0.2 38.8 1.3 48.2 4.9 21.3 8.2 22.6 22.7 24.1 41.1 0.2 2.7 0.5 5.6 0.8 8.5 1.8 16.5 3.1 33.5 3.9 51" fill="#0b0c0d"/></g><g id="g4056" transform="matrix(1.259 0 0 1.259 728.19 224.02)"><path id="path4058" d="m109.2 0h92.7c9.1 0 16.5 7.4 16.5 16.5v119.1c0 6.4-5.3 11.7-11.7 11.7h-97.5-97.5c-6.4 0-11.7-5.3-11.7-11.7v-119.1c0-9.1 7.4-16.5 16.5-16.5h92.7" fill="#2c2c2d"/><g id="g4060" fill="#121115"><path id="path4062" d="m0 15.8v122.4c0 0.6 0.5 1 1.1 1 6.7-0.8 12.2-2.6 16.2-4.4 1.8-0.8 3.4-2 4.5-3.7 1.5-2.2 2.2-4.9 1.8-7.5l-13.1-96.7c-0.4-2.8-2.8-5.9-5.1-7.6l-5.4-3.5"/><path id="path4064" d="m218.3 15.8v122.4c0 0.6-0.5 1-1.1 1-6.7-0.8-12.2-2.6-16.2-4.4-1.8-0.8-3.4-2-4.5-3.7-1.5-2.2-2.2-4.9-1.8-7.5l13.1-96.7c0.4-2.8 2.8-5.9 5.1-7.6l5.4-3.5"/></g><path id="path4066" d="m109.2 125.1c17 0.2 53.5-4.8 53.5-4.8 25.7-3.5 27.4-13 28.6-34.7l4.3-73.6c0-6.6-5.4-12-12-12h-74.5-74.4c-6.6 0-12 5.4-12 12l4.3 73.6c1.3 21.7 2.9 31.2 28.6 34.7 0 0 36.6 5 53.6 4.8z" fill="#121115"/><g id="g4068"><path id="path4070" d="m109.1 17.8h67.9c2.9 0 5.3 2.4 5.3 5.3v71.7c0 6.8-5.5 12.3-12.3 12.3h-60.8 0.1-60.9c-6.8 0-12.3-5.5-12.3-12.3v-71.8c0-2.9 2.4-5.3 5.3-5.3h67.7" fill="#232122"/><path id="path4072" d="m55.6 18.3v89-0.3h-7.2c-6.8 0-12.3-5.5-12.3-12.3v-71.7c0-2.9 2.4-5.3 5.3-5.3h14.2" fill="#ffc119"/><polygon id="polygon4074" points="36.1 47 55.6 33.2 55.6 18.3 36.1 32.1" fill="#f4d945"/><polygon id="polygon4076" points="36.1 77.4 55.6 63.6 55.6 48.7 36.1 62.5" fill="#f4d945"/><g id="g4078"><g id="g4080"><path id="path4082" d="m43.8 45.8c0-0.4-0.1-0.7-0.1-1.1 0-0.6 0.1-1.1 0.2-1.7 0.1-0.4 0.2-0.8 0.4-1.2s0.4-0.8 0.8-1.2c0.3-0.3 0.6-0.5 1-0.5s0.7-0.1 1.1 0.1c0.3 0.1 0.6 0.3 0.8 0.5 0.4 0.3 0.6 0.8 0.8 1.2 0.1 0.3 0.3 0.5 0.4 0.8 0.2 0.5 0.4 1 0.5 1.5s0.3 1.1 0.5 1.6c0.2 0.7 0.5 1.3 1 1.9 0.1 0.1 0.2 0.1 0.3 0.2 0.1-0.1 0.1-0.3 0.1-0.4v-7.3c0-0.1 0-0.2-0.1-0.4-0.1-0.1-0.2-0.2-0.2-0.4 0.3-0.1 0.6 0 0.8 0h1.2v0.2c-0.1 0.1-0.2 0.2-0.2 0.3v0.5 10c0 0.1 0 0.2-0.1 0.2-0.4 0-0.8-0.1-1.2-0.3-0.6-0.3-1.1-0.8-1.5-1.3-0.2-0.4-0.5-0.8-0.6-1.1-0.1-0.2-0.2-0.4-0.3-0.7-0.1-0.4-0.3-0.7-0.4-1l-0.6-1.5c-0.2-0.5-0.4-0.9-0.6-1.4-0.2-0.3-0.5-0.6-0.9-0.8-0.3-0.1-0.6 0-0.9 0.2-0.5 0.5-0.6 1.3-0.6 1.9 0 1 0.3 2.1 0.9 2.9 0.1 0.1 0.2 0.3 0.4 0.4 0.1 0.1 0.2 0.2 0.4 0.2 0.1 0.1 0.3 0 0.5 0 0.1 0 0.1 0.1 0 0.2-0.2 0.3-0.5 0.5-0.8 0.8-0.2 0.2-0.4 0.5-0.7 0.7-0.1 0.1-0.2 0.2-0.3 0.2-0.1-0.1 0-0.3-0.1-0.4-0.2-0.3-0.4-0.5-0.6-0.8-0.3-0.5-0.6-1-0.8-1.6-0.3-0.5-0.4-1-0.5-1.4z"/><path id="path4084" d="m44 58.7c-0.1-0.6-0.2-1.2-0.2-1.8 0-0.7 0-1.3 0.1-2 0.1-0.4 0.2-0.7 0.3-1.1s0.3-0.8 0.6-1.1c0.3-0.4 0.7-0.8 1.2-0.9 0.3-0.1 0.7-0.1 1 0l0.6 0.3c0.2 0.1 0.3 0.3 0.4 0.5l0.3 0.6s0.1 0 0.1-0.1c0.1-0.2 0.2-0.5 0.3-0.8 0.2-0.4 0.5-0.7 0.7-1 0.2-0.2 0.5-0.3 0.8-0.4 0.2 0 0.4-0.1 0.6 0 0.4 0.1 0.7 0.2 1 0.5 0.4 0.4 0.7 0.9 0.9 1.4s0.3 1 0.4 1.6c0.2 1 0.1 2.1 0.1 3.1-0.1 0.7-0.1 1.4-0.3 2.1-0.1 0.5-0.3 1.1-0.6 1.6-0.1 0.2-0.2 0.4-0.2 0.6v0.5c0 0.1-0.1 0.1-0.1 0.1-0.2-0.1-0.3-0.1-0.4-0.2-0.3-0.2-0.7-0.4-1-0.6-0.1-0.1-0.3-0.2-0.4-0.3s-0.1-0.2 0-0.3c0.2-0.1 0.4-0.1 0.5-0.3 0.3-0.4 0.5-0.9 0.7-1.5 0.1-0.4 0.2-0.8 0.3-1.3 0.1-0.8 0.2-1.7 0.1-2.5-0.1-0.4-0.1-0.8-0.3-1.2-0.1-0.3-0.4-0.6-0.7-0.8-0.4-0.2-0.9 0-1.1 0.3-0.4 0.5-0.5 1.1-0.6 1.7-0.1 0.5-0.1 1-0.1 1.5 0 0.3 0 0.6 0.1 0.9 0 0.1 0.2 0.2 0.2 0.3s-0.2 0.1-0.3 0.1h-1.7c0-0.2 0.2-0.3 0.2-0.5 0.2-0.7 0.1-1.4 0-2.1-0.1-0.4-0.1-0.8-0.4-1.1-0.1-0.2-0.3-0.4-0.5-0.5-0.3-0.1-0.6 0-0.8 0.2-0.1 0.2-0.2 0.3-0.3 0.5-0.2 0.4-0.2 0.9-0.3 1.3v1.3c0.1 0.6 0.2 1.2 0.4 1.7 0.1 0.3 0.3 0.6 0.6 0.9 0.1 0.1 0.4 0.1 0.5 0.2 0.1 0 0.2 0.1 0.1 0.2-0.4 0.5-1 0.9-1.4 1.4l-0.2 0.2h-0.1v-0.5c-0.2-0.5-0.5-0.9-0.7-1.4-0.2-0.3-0.3-0.8-0.4-1.3z"/><path id="path4086" d="m43.8 38.2v-3.3-0.3c0.1 0.1 0.2 0.1 0.3 0.2 0.4-0.4 0.8-0.8 1.2-1.1 0.4-0.4 0.8-0.8 1.3-1.2 0.1-0.1 0.2-0.2 0.1-0.3l-0.7-0.7c-0.5-0.5-1.1-1.1-1.7-1.6-0.1-0.1-0.2-0.2-0.3-0.2-0.1 0.1-0.2 0.1-0.2 0.2v-0.8-2.7c0-0.1 0.1-0.1 0.1-0.1 0.1 0.2 0.1 0.4 0.2 0.6 0.1 0.3 0.4 0.5 0.6 0.8 0.3 0.4 0.7 0.7 1.1 1 0.5 0.5 1 1 1.5 1.4l0.7 0.7c0.1 0.1 0.2 0.1 0.2 0 0.3-0.2 0.5-0.5 0.8-0.8l2.3-2.3c0.3-0.3 0.7-0.6 1-0.9 0.2-0.2 0.3-0.4 0.4-0.6 0.1-0.1 0.1-0.3 0.2-0.4v0.6 2.6 0.4c-0.1-0.1-0.2-0.1-0.3-0.1s-0.1 0.1-0.2 0.1l-0.7 0.7c-0.6 0.5-1.1 1.1-1.7 1.7-0.1 0.1-0.3 0.2-0.3 0.4-0.1 0.1 0.1 0.2 0.1 0.3l1.6 1.6c0.4 0.3 0.7 0.6 1 1 0.1 0.1 0.1 0.1 0.2 0.1s0.1-0.1 0.2-0.1h0.1v3.2 0.5c-0.1 0-0.1-0.1-0.1-0.2-0.1-0.2-0.1-0.5-0.3-0.7-0.2-0.3-0.5-0.5-0.8-0.8-0.9-0.8-1.7-1.7-2.5-2.5-0.2-0.2-0.5-0.4-0.7-0.7l-0.2-0.2c-0.1 0-0.2 0.1-0.3 0.2l-0.3 0.3c-0.7 0.7-1.4 1.4-2.2 2.1-0.3 0.3-0.6 0.6-0.9 0.8l-0.4 0.4c-0.1 0.2-0.1 0.4-0.2 0.6-0.1 0.1-0.2 0.1-0.2 0.1z"/></g><path id="path4088" d="m43.5 45.4c0-0.4-0.1-0.7-0.1-1.1 0-0.6 0.1-1.1 0.2-1.7 0.1-0.4 0.2-0.8 0.4-1.2s0.4-0.8 0.8-1.2c0.3-0.3 0.6-0.5 1-0.5s0.7-0.1 1.1 0.1c0.3 0.1 0.6 0.3 0.8 0.5 0.4 0.3 0.6 0.8 0.8 1.2 0.1 0.3 0.3 0.5 0.4 0.8 0.2 0.5 0.4 1 0.5 1.5s0.3 1.1 0.5 1.6c0.2 0.7 0.5 1.3 1 1.9 0.1 0.1 0.2 0.1 0.3 0.2 0.1-0.1 0.1-0.3 0.1-0.4v-7.3c0-0.1 0-0.2-0.1-0.4-0.1-0.1-0.2-0.2-0.2-0.4 0.3-0.1 0.6 0 0.8 0h1.2v0.2c-0.1 0.1-0.2 0.2-0.2 0.3v0.5 10c0 0.1 0 0.2-0.1 0.2-0.4 0-0.8-0.1-1.2-0.3-0.6-0.3-1.1-0.8-1.5-1.3-0.2-0.4-0.5-0.8-0.6-1.1-0.1-0.2-0.2-0.4-0.3-0.7-0.1-0.4-0.3-0.7-0.4-1l-0.6-1.5c-0.2-0.5-0.4-0.9-0.6-1.4-0.2-0.3-0.5-0.6-0.9-0.8-0.3-0.1-0.6 0-0.9 0.2-0.5 0.5-0.6 1.3-0.6 1.9 0 1 0.3 2.1 0.9 2.9 0.1 0.1 0.2 0.3 0.4 0.4 0.1 0.1 0.2 0.2 0.4 0.2 0.1 0.1 0.3 0 0.5 0 0.1 0 0.1 0.1 0 0.2-0.2 0.3-0.5 0.5-0.8 0.8-0.2 0.2-0.4 0.5-0.7 0.7-0.1 0.1-0.2 0.2-0.3 0.2-0.1-0.1 0-0.3-0.1-0.4-0.2-0.3-0.4-0.5-0.6-0.8-0.3-0.5-0.6-1-0.8-1.6-0.4-0.4-0.5-0.9-0.5-1.4z" fill="#ed0a0a"/><path id="path4090" d="m43.6 58.4c-0.1-0.6-0.2-1.2-0.2-1.8 0-0.7 0-1.3 0.1-2 0.1-0.4 0.2-0.7 0.3-1.1s0.3-0.8 0.6-1.1c0.3-0.4 0.7-0.8 1.2-0.9 0.3-0.1 0.7-0.1 1 0l0.6 0.3c0.2 0.1 0.3 0.3 0.4 0.5l0.3 0.6s0.1 0 0.1-0.1c0.1-0.2 0.2-0.5 0.3-0.8 0.2-0.4 0.5-0.7 0.7-1 0.2-0.2 0.5-0.3 0.8-0.4 0.2 0 0.4-0.1 0.6 0 0.4 0.1 0.7 0.2 1 0.5 0.4 0.4 0.7 0.9 0.9 1.4s0.3 1 0.4 1.6c0.2 1 0.1 2.1 0.1 3.1-0.1 0.7-0.1 1.4-0.3 2.1-0.1 0.5-0.3 1.1-0.6 1.6-0.1 0.2-0.2 0.4-0.2 0.6v0.5c0 0.1-0.1 0.1-0.1 0.1-0.2-0.1-0.3-0.1-0.4-0.2-0.3-0.2-0.7-0.4-1-0.6-0.1-0.1-0.3-0.2-0.4-0.3s-0.1-0.2 0-0.3c0.2-0.1 0.4-0.1 0.5-0.3 0.3-0.4 0.5-0.9 0.7-1.5 0.1-0.4 0.2-0.8 0.3-1.3 0.1-0.8 0.2-1.7 0.1-2.5-0.1-0.4-0.1-0.8-0.3-1.2-0.1-0.3-0.4-0.6-0.7-0.8-0.4-0.2-0.9 0-1.1 0.3-0.4 0.5-0.5 1.1-0.6 1.7-0.1 0.5-0.1 1-0.1 1.5 0 0.3 0 0.6 0.1 0.9 0 0.1 0.2 0.2 0.2 0.3s-0.2 0.1-0.3 0.1h-1.7c0-0.2 0.2-0.3 0.2-0.5 0.2-0.7 0.1-1.4 0-2.1-0.1-0.4-0.1-0.8-0.4-1.1-0.1-0.2-0.3-0.4-0.5-0.5-0.3-0.1-0.6 0-0.8 0.2-0.1 0.2-0.2 0.3-0.3 0.5-0.2 0.4-0.2 0.9-0.3 1.3v1.3c0.1 0.6 0.2 1.2 0.4 1.7 0.1 0.3 0.3 0.6 0.6 0.9 0.1 0.1 0.4 0.1 0.5 0.2 0.1 0 0.2 0.1 0.1 0.2-0.4 0.5-1 0.9-1.4 1.4l-0.2 0.2h-0.1v-0.5c-0.2-0.5-0.5-0.9-0.7-1.4-0.1-0.4-0.3-0.9-0.4-1.3z" fill="#ed0a0a"/><path id="path4092" d="m43.4 37.8v-3.3-0.3c0.1 0.1 0.2 0.1 0.3 0.2 0.4-0.4 0.8-0.8 1.2-1.1 0.4-0.4 0.8-0.8 1.3-1.2 0.1-0.1 0.2-0.2 0.1-0.3l-0.7-0.7c-0.5-0.5-1.1-1.1-1.7-1.6-0.1-0.1-0.2-0.2-0.3-0.2-0.1 0.1-0.2 0.1-0.2 0.2v-0.8-2.7c0-0.1 0.1-0.1 0.1-0.1 0.1 0.2 0.1 0.4 0.2 0.6 0.1 0.3 0.4 0.5 0.6 0.8 0.3 0.4 0.7 0.7 1.1 1 0.5 0.5 1 1 1.5 1.4l0.7 0.7c0.1 0.1 0.2 0.1 0.2 0 0.3-0.2 0.5-0.5 0.8-0.8l2.3-2.3c0.3-0.3 0.7-0.6 1-0.9 0.2-0.2 0.3-0.4 0.4-0.6 0.1-0.1 0.1-0.3 0.2-0.4v0.6 2.6 0.4c-0.1-0.1-0.2-0.1-0.3-0.1s-0.1 0.1-0.2 0.1l-0.7 0.7c-0.6 0.5-1.1 1.1-1.7 1.7-0.1 0.1-0.3 0.2-0.3 0.4-0.1 0.1 0.1 0.2 0.1 0.3l1.6 1.6c0.4 0.3 0.7 0.6 1 1 0.1 0.1 0.1 0.1 0.2 0.1s0.1-0.1 0.2-0.1h0.1v3.2 0.5c-0.1 0-0.1-0.1-0.1-0.2-0.1-0.2-0.1-0.5-0.3-0.7-0.2-0.3-0.5-0.5-0.8-0.8-0.9-0.8-1.7-1.7-2.5-2.5-0.2-0.2-0.5-0.4-0.7-0.7l-0.2-0.2c-0.1 0-0.2 0.1-0.3 0.2l-0.3 0.3c-0.7 0.7-1.4 1.4-2.2 2.1-0.3 0.3-0.6 0.6-0.9 0.8l-0.4 0.4c-0.1 0.2-0.1 0.4-0.2 0.6 0 0.1-0.1 0.1-0.2 0.1z" fill="#ed0a0a"/></g><g id="g4094"><path id="path4096" d="m43.3 65.4h-0.4-0.1v0.1-0.4 0.1c0 0.1 0 0 0.1 0h0.9-0.1v0.1 0.3 0.1h0.1c-0.3 0.2-0.7 0.3-1 0.3s-0.5-0.1-0.7-0.2-0.3-0.4-0.3-0.6 0.1-0.4 0.3-0.6c0.2-0.1 0.5-0.2 0.8-0.2h0.3c0.1 0 0.2 0 0.3 0.1h0.1 0.1l-0.2 0.4v-0.1c-0.1 0-0.1-0.1-0.2-0.1h-0.3c-0.2 0-0.3 0-0.5 0.1-0.4 0.1-0.5 0.2-0.5 0.4s0.1 0.3 0.2 0.4 0.3 0.1 0.5 0.1h0.3c0.1 0 0.2 0 0.3-0.1v-0.2z"/><path id="path4098" d="m44.5 65.3v0.4h1.2 0.1v-0.1 0.4-0.1h-0.1-1.7 0.1v-0.1-1.3-0.1h-0.1 1.6 0.1c0.1 0 0 0 0-0.1v0.4-0.1c0-0.1 0 0-0.1 0h-1.1v0.4h0.7 0.1v-0.1 0.4-0.1h-0.1-0.7z"/><path id="path4100" d="m46.5 64.9v0.9 0.1h0.1-0.6 0.1v-0.1-1.3-0.1h-0.1 0.6s-0.1 0-0.1 0.1v0.1l1 0.9v-0.9-0.1h-0.1 0.5-0.1v0.1 1.3 0.1h0.1-0.6 0.1l-0.1-0.1-0.8-1z"/><path id="path4102" d="m48.9 65.3v0.4h1.1 0.1v-0.1 0.4-0.1h-0.1-1.6 0.1v-0.1-1.3-0.1h-0.1 1.6 0.1c0.1 0 0 0 0-0.1v0.4-0.1c0-0.1 0 0-0.1 0h-1.1v0.4h0.7 0.1v-0.1 0.4-0.1h-0.1-0.7z"/><path id="path4104" d="m52.1 64.5-0.2 0.4s0-0.1-0.1-0.1c-0.2-0.1-0.3-0.1-0.6-0.1h-0.2c-0.1 0-0.1 0-0.1 0.1v0.1c0 0.1 0 0.1 0.1 0.1h0.3 0.2 0.3c0.1 0 0.1 0 0.2 0.1 0.1 0 0.1 0.1 0.1 0.1 0 0.1 0.1 0.1 0.1 0.2s0 0.2-0.1 0.3-0.2 0.1-0.3 0.2h-0.4c-0.2 0-0.5 0-0.7-0.1h-0.1-0.1l0.2-0.4s0 0.1 0.1 0.1 0.1 0.1 0.3 0.1h0.3c0.1 0 0.2 0 0.3-0.1 0 0 0.1 0 0.1-0.1v-0.1c0-0.1 0-0.1-0.1-0.1h-0.3-0.2-0.3c-0.1 0-0.1 0-0.2-0.1-0.1 0-0.1-0.1-0.2-0.2 0-0.1-0.1-0.1-0.1-0.2s0.1-0.2 0.2-0.3 0.3-0.2 0.6-0.2h0.3c0.1 0 0.2 0.1 0.4 0.1h0.1c0 0.2 0 0.2 0.1 0.2z"/><path id="path4106" d="m52.5 65.8v-1.3-0.1h-0.1 0.6-0.1v0.1 1.3 0.1h0.1-0.6l0.1-0.1c-0.1 0.1-0.1 0.1 0 0v0z"/><path id="path4108" d="m54.9 64.5-0.2 0.4s0-0.1-0.1-0.1c-0.2-0.1-0.3-0.1-0.6-0.1h-0.2c-0.1 0-0.1 0-0.1 0.1v0.1c0 0.1 0 0.1 0.1 0.1h0.3 0.2 0.3c0.1 0 0.1 0 0.2 0.1 0.1 0 0.1 0.1 0.1 0.1 0 0.1 0.1 0.1 0.1 0.2s0 0.2-0.1 0.3-0.2 0.1-0.3 0.2h-0.4c-0.2 0-0.5 0-0.7-0.1h-0.1-0.1l0.2-0.4s0 0.1 0.1 0.1 0.1 0.1 0.3 0.1h0.3c0.1 0 0.2 0 0.3-0.1 0 0 0.1 0 0.1-0.1v-0.1c0-0.1 0-0.1-0.1-0.1h-0.3-0.2-0.3c-0.1 0-0.1 0-0.2-0.1-0.1 0-0.1-0.1-0.2-0.2 0-0.1-0.1-0.1-0.1-0.2s0.1-0.2 0.2-0.3 0.3-0.2 0.6-0.2h0.3c0.1 0 0.2 0.1 0.4 0.1h0.1l0.1 0.2z"/></g><path id="path4110" d="m55.6 78.6-19.5 13.8v2.3c0 3.8 1.7 7.2 4.4 9.4l15.1-10.7v-14.8z" fill="#f4d945"/></g><g id="g4112" fill="#121115"><path id="path4114" d="m55.9 147.3c-0.9 0-1.6-0.7-1.6-1.6v-10.4c0-0.9 0.7-1.6 1.6-1.6s1.6 0.7 1.6 1.6v10.4c0 0.9-0.7 1.6-1.6 1.6z"/><path id="path4116" d="m77.2 147.3c-0.9 0-1.6-0.7-1.6-1.6v-10.4c0-0.9 0.7-1.6 1.6-1.6s1.6 0.7 1.6 1.6v10.4c-0.1 0.9-0.8 1.6-1.6 1.6z"/><path id="path4118" d="m98.7 147.3c-0.9 0-1.6-0.7-1.6-1.6v-10.4c0-0.9 0.7-1.6 1.6-1.6s1.6 0.7 1.6 1.6v10.4c-0.1 0.9-0.8 1.6-1.6 1.6z"/><path id="path4120" d="m119.9 147.3c-0.9 0-1.6-0.7-1.6-1.6v-10.4c0-0.9 0.7-1.6 1.6-1.6s1.6 0.7 1.6 1.6v10.4c0 0.9-0.7 1.6-1.6 1.6z"/><path id="path4122" d="m141.2 147.3c-0.9 0-1.6-0.7-1.6-1.6v-10.4c0-0.9 0.7-1.6 1.6-1.6s1.6 0.7 1.6 1.6v10.4c-0.1 0.9-0.8 1.6-1.6 1.6z"/><path id="path4124" d="m162.4 147.3c-0.9 0-1.6-0.7-1.6-1.6v-10.4c0-0.9 0.7-1.6 1.6-1.6s1.6 0.7 1.6 1.6v10.4c0 0.9-0.7 1.6-1.6 1.6z"/></g></g></svg>
