<?xml version="1.0" encoding="UTF-8"?>
<!-- Generator: Adobe Illustrator 19.0.0, SVG Export Plug-In . SVG Version: 6.00 Build 0)  -->
<svg id="Calque_1" width="1003" height="406.82" version="1.1" viewBox="0 0 1003 406.82" xml:space="preserve" xmlns="http://www.w3.org/2000/svg" xmlns:cc="http://creativecommons.org/ns#" xmlns:dc="http://purl.org/dc/elements/1.1/" xmlns:rdf="http://www.w3.org/1999/02/22-rdf-syntax-ns#"><metadata id="metadata780"><rdf:RDF><cc:Work rdf:about=""><dc:format>image/svg+xml</dc:format><dc:type rdf:resource="http://purl.org/dc/dcmitype/StillImage"/><dc:title/></cc:Work></rdf:RDF></metadata><path id="path3" d="m353.7-18.48" fill="none" stroke="#fff" stroke-miterlimit="10" stroke-width=".3"/><g id="g5" transform="matrix(1.2825 0 0 1.2825 -.12426 -1.5259e-5)"><path id="XMLID_54_" d="m528.7 161c0 16.3-0.4 31.1-1 44.3-1 22-2.5 39.3-3.8 51.1-2.4 22.8-0.5 39.3-23.4 48.3-12.7 5-53.6 6-60 3.8s-11.3-3.4-14.2-11.8c-3-8.4-13.4-50.2-18.4-60.4-5.1-10.2-14.8-34-17-40.8l-2.2-6.8s-4.2-11.4-4.2-27.8 4.2-27.8 4.2-27.8l2.2-6.8c2.2-6.8 11.9-30.7 17-40.8 5.1-10.2 15.4-52 18.4-60.4s7.9-9.6 14.2-11.8c6.4-2.2 47.3-1.2 60 3.8 22.9 9 21 25.5 23.4 48.3 1.2 11.8 2.8 29.1 3.8 51.1 0.6 13.3 1 28.2 1 44.5" fill="#171819"/><path id="path8" d="m449.7 161" fill="none" stroke="#fff" stroke-miterlimit="10" stroke-width=".3"/><path id="path10" d="m516.7 161.1c0.5 44.4-2.6 107.9-9 116.4-9.1 16.3-22.4 15.9-32.6 16.8-5.2-0.3-14.7-1.8-23.6-8.4-2.8-2-6-5.6-7.8-7.6-17.5-24.8-47.7-61-50.8-117.2v-0.1c3.1-56.2 33.3-92.3 50.8-117.2 1.8-2 5-5.6 7.8-7.6 9-6.6 18.5-8 23.6-8.4 10.2 0.9 23.6 0.5 32.6 16.8 6.4 8.6 9.5 72 9 116.4" fill="#171819"/><path id="path12" d="m447 161.3v-0.3l1.9 89.5c0.6 9.3 1.2 16.3 10 22.8 3.7 2.8 8.3 4.1 12.9 4.1h3.3c18.5 0 25.5-9.4 28.5-25.1 0 0 4.1-37.4 4.1-91.3s-4.1-91.3-4.1-91.3c-3-15.7-10-25.1-28.5-25.1h-3.3c-4.6 0-9.2 1.4-12.9 4.1-8.8 6.5-9.3 13.4-10 22.8l-1.9 89.5v-0.3" fill="#282827"/><path id="path14" d="m502.5 160.8c0 47.9-4 80.4-4 80.4-2.3 13.9-6.7 23-20.7 23h-6.8c-8 0-14.5-6.5-14.5-14.5v-88.9 0.3-88.8c0-8 6.5-14.5 14.5-14.5h6.8c14 0 18.4 9.1 20.7 23 0 0 4 32.5 4 80.4" fill="#1d1d1d"/><g id="g16"><rect id="rect18" x="460" y="69.2" width="30.2" height="183.6" fill="#1b1c1c"/><rect id="rect20" x="460.2" y="69.5" width="29.8" height="183.1" fill="#414446"/><path id="path22" d="m461.6 102.5" fill="none" stroke="#bd3126" stroke-miterlimit="10" stroke-width=".3"/><path id="path24" d="m460.2 160.8v63.1c0 13.2 8.7 24.6 12 28.6h17.8v-91.7 0.4-91.7h-17.7c-3.3 4-12 15.4-12 28.6v63.1" fill="#1b1d1e"/><path id="path26" d="m483.5 69.5v12.4c0 0.4 0.4 0.8 0.8 0.8h5.7v-13.2h-6.5z" fill="#46494b"/><path id="path28" d="m483.5 252.5v-12.4c0-0.4 0.4-0.8 0.8-0.8h5.7v13.2h-6.5z" fill="#46494b"/><path id="path30" d="m487.8 160.8v74.7c0 0.4-0.4 0.8-0.8 0.8h-4.5c-0.4 0-0.8 0.3-0.8 0.8v11.4 0.1h-9.4c-6-7.3-10.6-15.6-10.6-29v-58.7-58.7c0-13.4 4.6-21.7 10.6-29h9.4v0.1 11.4c0 0.4 0.4 0.8 0.8 0.8h4.5c0.4 0 0.8 0.4 0.8 0.8v74.5z" fill="#45494a"/><rect id="rect32" x="474.5" y="69.5" width=".6" height="183.1"/><g id="g34"><rect id="rect36" x="473.3" y="109.7" width="1.2" height="102.2" fill="#1c1e1f"/><rect id="rect38" x="472.1" y="109.7" width="1.2" height="102.2" fill="#202223"/><rect id="rect40" x="470.9" y="109.7" width="1.2" height="102.2" fill="#242627"/><rect id="rect42" x="469.7" y="109.7" width="1.2" height="102.2" fill="#292c2d"/><rect id="rect44" x="468.5" y="109.7" width="1.2" height="102.2" fill="#2f3133"/><rect id="rect46" x="467.3" y="109.7" width="1.2" height="102.2" fill="#333637"/><rect id="rect48" x="466.1" y="109.7" width="1.2" height="102.2" fill="#373a3c"/><rect id="rect50" x="464.9" y="109.7" width="1.2" height="102.2" fill="#3b3e3f"/><rect id="rect52" x="463.7" y="109.7" width="1.2" height="102.2" fill="#3f4244"/></g><path id="XMLID_53_" d="m474.5 112.8v-3.1h-10.8s9.1 0.8 10.8 3.1z" fill="#1b1d1e"/><path id="XMLID_52_" d="m474.5 208.7v3.1h-10.8c0 0.1 9.1-0.7 10.8-3.1z" fill="#1b1d1e"/><g id="g56"><rect id="rect58" x="475.1" y="109.7" width="1.2" height="102.2" fill="#1c1e1f"/><rect id="rect60" x="476.3" y="109.7" width="1.2" height="102.2" fill="#202223"/><rect id="rect62" x="477.5" y="109.7" width="1.2" height="102.2" fill="#242627"/><rect id="rect64" x="478.7" y="109.7" width="1.2" height="102.2" fill="#292c2d"/><rect id="rect66" x="479.9" y="109.7" width="1.2" height="102.2" fill="#2f3133"/><rect id="rect68" x="481.1" y="109.7" width="1.2" height="102.2" fill="#333637"/><rect id="rect70" x="482.3" y="109.7" width="1.2" height="102.2" fill="#373a3c"/><rect id="rect72" x="483.5" y="109.7" width="1.2" height="102.2" fill="#3b3e3f"/><rect id="rect74" x="484.7" y="109.7" width="1.2" height="102.2" fill="#3f4244"/></g><path id="XMLID_51_" d="m475.1 112.8v-3.1h11.2s-9.4 0.8-11.2 3.1z" fill="#1b1d1e"/><path id="XMLID_50_" d="m475.1 208.7v3.1h11.2c0 0.1-9.4-0.7-11.2-3.1z" fill="#1b1d1e"/><g id="g78"><g id="g80"><path id="path82" d="m476.7 88.4v0.6c-0.2 0-0.5-0.1-0.5-0.3s0.2-0.3 0.5-0.3z" fill="#0e1214"/><path id="path84" d="m485.9 88.4v0.6c0.2 0 0.5-0.1 0.5-0.3-0.1-0.2-0.3-0.3-0.5-0.3z" fill="#5e5e60"/><rect id="rect86" x="476.7" y="88.4" width="9.2" height=".6" fill="#393d3f"/></g><g id="g88"><path id="path90" d="m476.7 93.9v0.6c-0.2 0-0.5-0.1-0.5-0.3s0.2-0.3 0.5-0.3z" fill="#0e1214"/><path id="path92" d="m485.9 93.9v0.6c0.2 0 0.5-0.1 0.5-0.3-0.1-0.2-0.3-0.3-0.5-0.3z" fill="#5e5e60"/><rect id="rect94" x="476.7" y="93.9" width="9.2" height=".6" fill="#393d3f"/></g><g id="g96"><path id="path98" d="m463.7 93.9v0.6c-0.2 0-0.5-0.1-0.5-0.3 0.1-0.2 0.3-0.3 0.5-0.3z" fill="#0e1214"/><path id="path100" d="m472.9 93.9v0.6c0.2 0 0.5-0.1 0.5-0.3-0.1-0.2-0.3-0.3-0.5-0.3z" fill="#5e5e60"/><rect id="rect102" x="463.7" y="93.9" width="9.2" height=".6" fill="#393d3f"/></g><g id="g104"><path id="path106" d="m465.4 88.4v0.6c-0.2 0-0.5-0.1-0.5-0.3 0.1-0.2 0.3-0.3 0.5-0.3z" fill="#0e1214"/><path id="path108" d="m472.9 88.4v0.6c0.2 0 0.5-0.1 0.5-0.3-0.1-0.2-0.3-0.3-0.5-0.3z" fill="#5e5e60"/><rect id="rect110" x="465.4" y="88.4" width="7.5" height=".6" fill="#393d3f"/></g><g id="g112"><path id="path114" d="m476.7 233.2v-0.6c-0.2 0-0.5 0.1-0.5 0.3s0.2 0.3 0.5 0.3z" fill="#0e1214"/><path id="path116" d="m485.9 233.2v-0.6c0.2 0 0.5 0.1 0.5 0.3-0.1 0.2-0.3 0.3-0.5 0.3z" fill="#5e5e60"/><rect id="rect118" x="476.7" y="232.6" width="9.2" height=".6" fill="#393d3f"/></g><g id="g120"><path id="path122" d="m476.7 227.7v-0.6c-0.2 0-0.5 0.1-0.5 0.3 0 0.1 0.2 0.3 0.5 0.3z" fill="#0e1214"/><path id="path124" d="m485.9 227.7v-0.6c0.2 0 0.5 0.1 0.5 0.3-0.1 0.1-0.3 0.3-0.5 0.3z" fill="#5e5e60"/><rect id="rect126" x="476.7" y="227.1" width="9.2" height=".6" fill="#393d3f"/></g><g id="g128"><path id="path130" d="m463.7 227.7v-0.6c-0.2 0-0.5 0.1-0.5 0.3 0.1 0.1 0.3 0.3 0.5 0.3z" fill="#0e1214"/><path id="path132" d="m472.9 227.7v-0.6c0.2 0 0.5 0.1 0.5 0.3-0.1 0.1-0.3 0.3-0.5 0.3z" fill="#5e5e60"/><rect id="rect134" x="463.7" y="227.1" width="9.2" height=".6" fill="#393d3f"/></g><g id="g136"><path id="path138" d="m465.4 233.2v-0.6c-0.2 0-0.5 0.1-0.5 0.3 0.1 0.2 0.3 0.3 0.5 0.3z" fill="#0e1214"/><path id="path140" d="m472.9 233.2v-0.6c0.2 0 0.5 0.1 0.5 0.3-0.1 0.2-0.3 0.3-0.5 0.3z" fill="#5e5e60"/><rect id="rect142" x="465.4" y="232.6" width="7.5" height=".6" fill="#393d3f"/></g></g><g id="g144"><rect id="rect146" x="488" y="86.4" width="2.2" height="7.1"/><path id="path148" d="m462.3 86.6h1.9c-0.8 2.1-1.4 4.4-1.9 6.9h-1.8c0.4-2.4 1-4.8 1.8-6.9"/><rect id="rect150" x="488" y="228.4" width="2.2" height="7.1"/><path id="path152" d="m462.3 235.4h1.9c-0.8-2.1-1.4-4.4-1.9-6.9h-1.8c0.4 2.4 1 4.7 1.8 6.9"/></g></g><path id="path154" d="m443.7 161" fill="none" stroke="#fff" stroke-miterlimit="10" stroke-width=".3"/><g id="g156"><path id="path158" d="m456.8 249.7v-177.4c0-8.1 6.6-14.7 14.6-14.7h6.8c14.2 0 18.6 9.2 20.8 23.1 0 0.3 4 32.9 4 80.1v0.3c0 47.2-4 79.8-4 80.1-2.2 13.9-6.6 23.1-20.8 23.1h-6.8c-8.1 0.1-14.6-6.5-14.6-14.6zm0.3-88.5v88.6c0 7.9 6.4 14.3 14.4 14.3h6.8c14 0 18.3-9.1 20.5-22.9 0-0.3 4-33 4-80.2s-4-79.9-4-80.2c-2.2-13.7-6.6-22.9-20.5-22.9h-6.8c-7.9 0-14.4 6.4-14.4 14.3v89z" fill="#2a2c2e"/></g><g id="g160"><path id="path162" d="m446.8 161.4v-0.7l1.9-89.2c0.6-9.1 1.1-16.3 10.1-22.9 3.6-2.7 8.2-4.2 13-4.2h3.3c8.9 0 15.5 2.2 20.2 6.7 4.2 4 6.8 9.9 8.5 18.5 0 0.4 4.1 38 4.1 91.3s-4.1 90.9-4.1 91.3c-1.6 8.6-4.3 14.5-8.5 18.5-4.6 4.5-11.2 6.7-20.2 6.7h-3.3c-4.7 0-9.4-1.5-13-4.2-8.9-6.6-9.4-13.8-10.1-22.9l-1.9-88.9zm60.8-0.4c0-53.3-4.1-90.9-4.1-91.3-3.3-17.5-11.8-25-28.3-25h-3.3c-4.7 0-9.2 1.5-12.8 4.1-8.8 6.5-9.3 13.6-9.9 22.6l-1.9 89.5 1.9 89.5c0.6 9 1.1 16.1 9.9 22.6 3.6 2.6 8.1 4.1 12.8 4.1h3.3c16.5 0 25-7.5 28.3-25 0-0.2 4.1-37.8 4.1-91.1z" fill="#3f3f3f"/></g><g id="g164"><path id="path166" d="m392.9 161c2.8-50.8 27.4-84.8 45.3-109.7 1.9-2.7 3.7-5.2 5.4-7.6 2.1-2.4 5.2-5.7 7.8-7.7 8.4-6.2 17.5-8 23.7-8.4 0.8 0.1 1.7 0.1 2.5 0.2 9.7 0.7 21.9 1.6 30.2 16.6 6.5 8.8 9.5 74.5 9 116.5h-0.3c0.5-42-2.5-107.6-9-116.3-8.3-14.9-20.3-15.8-30-16.5-0.9-0.1-1.7-0.1-2.5-0.2-6.1 0.4-15.2 2.2-23.5 8.3-2.6 1.9-5.6 5.2-7.7 7.6-1.7 2.4-3.5 4.9-5.4 7.6-17.9 24.8-42.5 58.8-45.3 109.5v0.1c2.8 50.7 27.3 84.7 45.3 109.5 1.9 2.7 3.7 5.2 5.4 7.6 2.1 2.4 5.1 5.7 7.7 7.6 8.4 6.2 17.4 7.9 23.5 8.3 0.8-0.1 1.6-0.1 2.5-0.2 9.7-0.7 21.7-1.6 30-16.5 6.5-8.7 9.4-74.3 9-116.3h0.3c0.5 42.1-2.5 107.7-9 116.5-8.4 15-20.5 15.9-30.2 16.6-0.9 0.1-1.7 0.1-2.5 0.2-6.2-0.4-15.3-2.2-23.7-8.4-2.6-1.9-5.7-5.2-7.8-7.6-1.7-2.4-3.5-4.9-5.4-7.6-18-24.9-42.6-58.9-45.3-109.7z" fill="#2a2c2e"/></g><g id="g168"><g id="g170"><g id="g172"><path id="XMLID_49_" d="m468 306.2c-1.4 0-2.6-1-2.6-2.2v-6c0-1.2 1.2-2.3 2.6-2.3s2.6 1 2.6 2.3v5.9c0 1.3-1.2 2.3-2.6 2.3z" fill="#1b1d1e"/><path id="XMLID_48_" d="m468 304.6c-0.9 0-1.7-0.7-1.7-1.6v-4.1c0-0.9 0.8-1.6 1.7-1.6s1.7 0.7 1.7 1.6v4.1c0 0.9-0.8 1.6-1.7 1.6z" fill="#2e3233"/><rect id="rect176" x="469.7" y="298.9" width=".9" height="4.1"/><rect id="rect178" x="465.4" y="298.9" width=".9" height="4.1"/></g><g id="g180"><path id="XMLID_47_" d="m476.1 306.2c-1.4 0-2.6-1-2.6-2.2v-6c0-1.2 1.2-2.3 2.6-2.3s2.6 1 2.6 2.3v5.9c0 1.3-1.2 2.3-2.6 2.3z" fill="#1b1d1e"/><path id="XMLID_46_" d="m476.1 304.6c-0.9 0-1.7-0.7-1.7-1.6v-4.1c0-0.9 0.8-1.6 1.7-1.6s1.7 0.7 1.7 1.6v4.1c0 0.9-0.7 1.6-1.7 1.6z" fill="#2e3233"/><rect id="rect184" x="477.8" y="298.9" width=".9" height="4.1"/><rect id="rect186" x="473.5" y="298.9" width=".9" height="4.1"/></g><g id="g188"><path id="XMLID_45_" d="m484.2 306.2c-1.4 0-2.6-1-2.6-2.2v-6c0-1.2 1.2-2.3 2.6-2.3s2.6 1 2.6 2.3v5.9c0 1.3-1.1 2.3-2.6 2.3z" fill="#1b1d1e"/><path id="XMLID_44_" d="m484.2 304.6c-0.9 0-1.7-0.7-1.7-1.6v-4.1c0-0.9 0.8-1.6 1.7-1.6s1.7 0.7 1.7 1.6v4.1c0.1 0.9-0.7 1.6-1.7 1.6z" fill="#2e3233"/><rect id="rect192" x="486" y="298.9" width=".9" height="4.1"/><rect id="rect194" x="481.7" y="298.9" width=".9" height="4.1"/></g></g><g id="g196"><g id="g198"><path id="XMLID_43_" d="m468 15.8c-1.4 0-2.6 1-2.6 2.2v6c0 1.2 1.2 2.3 2.6 2.3s2.6-1 2.6-2.3v-5.9c0-1.3-1.1-2.3-2.6-2.3z" fill="#1b1d1e"/><path id="XMLID_42_" d="m468 17.4c-0.9 0-1.7 0.7-1.7 1.6v4.1c0 0.9 0.8 1.6 1.7 1.6s1.7-0.7 1.7-1.6v-4.1c0.1-0.9-0.7-1.6-1.7-1.6z" fill="#2e3233"/><rect id="rect202" x="469.8" y="19" width=".9" height="4.1"/><rect id="rect204" x="465.5" y="19" width=".9" height="4.1"/></g><g id="g206"><path id="XMLID_41_" d="m476.2 15.8c-1.4 0-2.6 1-2.6 2.2v6c0 1.2 1.2 2.3 2.6 2.3s2.6-1 2.6-2.3v-5.9c-0.1-1.3-1.2-2.3-2.6-2.3z" fill="#1b1d1e"/><path id="XMLID_40_" d="m476.2 17.4c-0.9 0-1.7 0.7-1.7 1.6v4.1c0 0.9 0.8 1.6 1.7 1.6s1.7-0.7 1.7-1.6v-4.1c0-0.9-0.8-1.6-1.7-1.6z" fill="#2e3233"/><rect id="rect210" x="477.9" y="19" width=".9" height="4.1"/><rect id="rect212" x="473.6" y="19" width=".9" height="4.1"/></g><g id="g214"><path id="XMLID_39_" d="m484.3 15.8c-1.4 0-2.6 1-2.6 2.2v6c0 1.2 1.2 2.3 2.6 2.3s2.6-1 2.6-2.3v-5.9c0-1.3-1.2-2.3-2.6-2.3z" fill="#1b1d1e"/><path id="XMLID_38_" d="m484.3 17.4c-0.9 0-1.7 0.7-1.7 1.6v4.1c0 0.9 0.8 1.6 1.7 1.6s1.7-0.7 1.7-1.6v-4.1c0-0.9-0.8-1.6-1.7-1.6z" fill="#2e3233"/><rect id="rect218" x="486" y="19" width=".9" height="4.1"/><rect id="rect220" x="481.7" y="19" width=".9" height="4.1"/></g></g></g><path id="XMLID_37_" d="m446.6 311c-0.5 0-21.5-0.2-30.2-1.4-8.9-1.2-19.6 1.1-27.1-16.2-7.4-17.3-13.9-43.3-18.2-80.6s-3.8-83.4 2.3-119.9c6.2-36.4 10.9-56.7 16.3-67.9 5.7-12 15.8-13.3 25.4-13.5 5-0.1 30.1-0.4 37.4-0.5-6.5 0.1-11.6 0.5-13.5 1.1l-1.1 0.4c-6.1 2-11.4 3.8-14.5 12.4-1.1 3-3.1 10.2-5.5 18.5-4.2 14.9-10 35.2-13.3 41.7-5.2 10.3-15.3 34.4-17.5 41l-2.2 6.7c-0.2 0.5-4.4 11.8-4.4 28.3s4.2 27.7 4.4 28.1l2.2 6.8c2.2 6.7 12.2 30.7 17.5 41 3.3 6.5 9.1 26.8 13.3 41.7 2.4 8.3 4.4 15.5 5.5 18.5 3.2 8.7 8.4 10.4 14.5 12.4l1.1 0.4c1.3 0.5 4 0.8 7.6 1z" fill="#171819"/><path id="path223" d="m527.6 116.5c-1-22-2.5-39.1-3.8-50.9-2.4-22.8-0.5-39.3-23.3-48.3-12.7-5-53.5-6-59.9-3.8s-11.2 3.4-14.2 11.8-13.4 50.2-18.4 60.4c-5.1 10.2-14.8 34-17 40.8l-2.2 6.8s-4.2 11.4-4.2 27.8 4.2 27.8 4.2 27.8l2.2 6.8c2.2 6.8 11.9 30.7 17 40.8 5.1 10.2 15.4 52 18.4 60.4s7.9 9.6 14.2 11.8c6.4 2.2 47.2 1.2 59.9-3.8 22.9-9 21-25.5 23.3-48.3 1.2-11.8 2.8-29.1 3.8-51.1 0.6-13.2 1-28.2 1-44.5v-0.1c0-16.5-0.4-31.3-1-44.4m1.6-0.1c0.6 13.2 1 28.2 1 44.5v0.1c0 16.3-0.4 31.1-1 44.3-0.8 17.6-2.1 34.7-3.9 51.3-0.3 2.9-0.6 5.8-0.8 8.5-1.6 18.4-2.8 32.9-24.1 41.1-9.4 3.6-32.6 5.1-48.2 4.9h-0.8c-6.5-0.1-11.6-0.5-13.5-1.1l-1.1-0.4c-6.1-2-11.3-3.8-14.5-12.4-1.1-3-3.1-10.2-5.5-18.5-4.2-14.9-10-35.2-13.3-41.7-5.2-10.3-15.3-34.4-17.5-41l-2.2-6.7c-0.2-0.5-4.4-11.8-4.4-28.3s4.2-27.8 4.4-28.3l2.2-6.7c2.2-6.7 12.2-30.7 17.5-41 3.3-6.5 9.1-26.8 13.3-41.7 2.4-8.3 4.4-15.5 5.5-18.5 3.2-8.7 8.4-10.4 14.5-12.4l1.2-0.4c1.9-0.6 7-1 13.5-1.1h0.8c15.6-0.2 38.8 1.3 48.2 4.9 21.3 8.2 22.6 22.7 24.1 41.1 0.2 2.7 0.5 5.6 0.8 8.5 1.7 16.6 3 33.5 3.8 51" fill="#0b0c0d"/><path id="XMLID_34_" d="m410.3 224.7s0-0.1-0.1-0.2c-0.8-1.9-1.6-3.8-2.4-5.8-11.7-30.3-15.1-43.9-15.1-57.4 0-9.3 1.6-18.6 6.4-33.4 0 0 10.5-28.4 11.4-30.6 1.4 0.5 5 2 9 4.5 4.9 3 10.4 7.5 13.6 13.7 0.2 0.4 0.4 0.7 0.5 1.1 5.4 12.1 5 31.7 5 44.9s0.4 32.6-5 44.7c-0.2 0.4-0.4 0.7-0.5 1.1-4.3 8.3-12.9 13.1-18.4 15.6-2 0.9-3.6 1.5-4.4 1.8z" fill="#c5baba"/><path id="path226" d="m394.5 160.5c0-29.1 14.1-51.4 25.8-51.4s16.5 22.3 16.5 51.4-4.8 51.4-16.5 51.4c-11.6 0-25.8-22.3-25.8-51.4z" fill="#2f3134"/><g id="g228"><path id="path230" d="m400 190.4c4.4-0.1 8.1-5.2 8.1-11.5v-36.8c0-6.3-3.7-11.4-8.1-11.5l0.4-1c4.9 0.1 8.7 5.7 8.7 12.5v36.8c0 6.8-3.9 12.4-8.8 12.5l-0.3-1z" fill="#c5baba"/></g><g id="XMLID_2_" fill="#c5baba"><path id="XMLID_31_" d="m403.3 146.3c0.8 0 1.5 0.3 2 0.8s0.8 1.2 0.8 1.9v3.9h-1.1v-3.6c0-0.6-0.2-1-0.5-1.3s-0.7-0.5-1.2-0.5-0.9 0.2-1.2 0.5-0.5 0.8-0.5 1.3v0.6c0 0.5-0.1 0.9-0.4 1.1-0.3 0.3-0.6 0.4-1 0.4s-0.7-0.1-1-0.4-0.4-0.6-0.4-1.1v-3.6h1.2v3.6c0 0.2 0.1 0.3 0.2 0.3s0.2-0.1 0.2-0.3v-0.9c0-0.7 0.3-1.3 0.8-1.9 0.6-0.6 1.3-0.8 2.1-0.8zm0 1.5c0.4 0 0.7 0.1 1 0.4s0.4 0.6 0.4 1.1v3.6h-1.2v-3.6c0-0.2-0.1-0.3-0.2-0.3s-0.2 0.1-0.2 0.3v0.9c0 0.7-0.3 1.3-0.8 1.9-0.6 0.6-1.2 0.8-2 0.8s-1.5-0.3-2-0.8c-0.6-0.6-0.8-1.2-0.8-1.9v-3.9h1.2v3.6c0 0.6 0.2 1 0.5 1.3s0.7 0.5 1.2 0.5 0.9-0.2 1.2-0.5 0.5-0.8 0.5-1.3v-0.6c0-0.5 0.1-0.9 0.4-1.1 0.1-0.3 0.4-0.4 0.8-0.4z"/><path id="XMLID_27_" d="m403.4 153.5c1.8 0 2.7 0.9 2.7 2.7v3.6h-1.1v-3.6c0-1-0.5-1.5-1.5-1.5h-3.3c-1 0-1.5 0.5-1.5 1.5v3.6h-1.2v-3.6c0-1.8 0.9-2.7 2.7-2.7h3.2zm-1.5 1.6h1.5c0.8 0 1.2 0.4 1.2 1.2v3.6h-1.2v-3.3c0-0.2-0.1-0.3-0.3-0.3v2.7h-1.2v-3.9zm-0.3 0v3.9h-1.2v-2.7c-0.2 0-0.3 0.1-0.3 0.3v3.3h-1.2v-3.6c0-0.8 0.4-1.2 1.2-1.2h1.5z"/><path id="XMLID_24_" d="m403.4 160.5c1.8 0 2.7 0.9 2.7 2.7v3.6h-1.1v-3.6c0-1-0.5-1.5-1.5-1.5h-3.3c-1 0-1.5 0.5-1.5 1.5v2.4h3.3v-2.1h1.2v3.3h-5.8v-3.6c0-1.8 0.9-2.7 2.7-2.7h3.3zm0 1.5c0.8 0 1.2 0.4 1.2 1.2v3.6h-1.2v-3.3c0-0.2-0.1-0.3-0.3-0.3h-2.7c-0.2 0-0.3 0.1-0.3 0.3v0.6h0.3v-0.6h1.2v1.8h-2.7v-2.1c0-0.8 0.4-1.2 1.2-1.2h3.3z"/><path id="XMLID_3_" d="m398.6 171.1v3.6l6.2-2.4c0.1-0.1 0.2-0.2 0.2-0.4s-0.1-0.3-0.2-0.4l-7.4-2.7v-1.2l7.8 2.8c0.7 0.3 1 0.8 1 1.5 0 0.8-0.3 1.3-1 1.5l-7.8 2.9v-5.2h1.2zm0.3 0h0.7l-2.2-0.9v-1.2l7.1 2.6c0.1 0 0.2 0.1 0.2 0.2s-0.1 0.2-0.2 0.2l-5.6 2.1v-3zm2.6 0.7-1.4-0.6v1.1l1.4-0.5z"/></g><g id="g237"><g id="g239"><polygon id="polygon241" points="413.5 138.7 413.5 193.2 414 193.2 418.1 193.2 420.7 190.1 420.7 131.2" fill="#f2ba5c"/></g><g id="g243"><path id="path245" d="m430.4 141.2h-1.9c-0.4 0-0.6-0.2-0.8-0.7s-0.2-1.1-0.2-1.9 0.1-1.5 0.2-2c0.2-0.5 0.4-0.8 0.8-0.8h2v2.1h-1.9c-0.1 0-0.2 0.1-0.3 0.2s-0.1 0.3-0.1 0.6c0 0.2 0 0.4 0.1 0.6 0 0.2 0.1 0.2 0.2 0.3h0.3 1.7v1.6z" fill="#f2ba5c"/></g><g id="g247"><path id="path249" d="m428.5 143.9h-1.1v-1.8h2.9v2.5c0 0.6 0 1.1-0.1 1.4s-0.2 0.6-0.3 0.8-0.3 0.3-0.5 0.3c-0.3 0-0.5-0.2-0.7-0.6s-0.3-0.9-0.3-1.6v-1zm0.6 0v0.6c0 0.5 0.1 0.8 0.3 0.8s0.3-0.2 0.3-0.7v-0.7h-0.6z" fill="#f2ba5c"/></g><g id="g251"><path id="path253" d="m428.1 152h-0.7v-4.4h2.9v4.4h-0.7v-2.7h-0.4v2.1h-0.7v-2.1h-0.5v2.7z" fill="#f2ba5c"/></g><g id="g255"><path id="path257" d="m427.4 157.4v-2l1.1-0.8v-0.6h-1.1v-1.8h2.9v3c0 0.7-0.1 1.2-0.2 1.5-0.2 0.4-0.4 0.6-0.6 0.6s-0.3-0.1-0.4-0.2-0.2-0.4-0.3-0.8l-1.4 1.1zm1.8-3.3v0.8c0 0.2 0 0.4 0.1 0.5 0 0.1 0.1 0.2 0.2 0.2 0.2 0 0.3-0.2 0.3-0.7v-0.8h-0.6z" fill="#f2ba5c"/></g><g id="g259"><path id="path261" d="m427.4 132.6c0-0.5 0-0.9 0.1-1.2s0.1-0.6 0.2-0.9c0.1-0.2 0.2-0.4 0.3-0.5s0.3-0.2 0.4-0.2v1.2c-0.1 0-0.2 0.1-0.3 0.2s-0.1 0.2-0.2 0.4c0 0.1-0.1 0.3-0.1 0.5v0.6 0.5c0 0.2 0 0.3 0.1 0.4 0 0.1 0.1 0.2 0.1 0.3s0.1 0.1 0.2 0.1 0.1 0 0.2-0.1c0-0.1 0.1-0.2 0.1-0.3s0.1-0.3 0.1-0.5 0.1-0.5 0.1-0.8c0-0.4 0.1-0.7 0.1-1s0.1-0.5 0.2-0.7 0.1-0.3 0.2-0.4 0.2-0.1 0.3-0.1 0.2 0.1 0.3 0.2 0.2 0.3 0.3 0.5 0.1 0.5 0.2 0.7c0 0.3 0.1 0.6 0.1 1s0 0.7-0.1 1-0.1 0.6-0.2 0.8-0.2 0.4-0.3 0.5-0.3 0.2-0.4 0.2v-1.2c0.3-0.1 0.5-0.5 0.5-1.3 0-0.4 0-0.7-0.1-0.9s-0.1-0.3-0.2-0.3c0 0-0.1 0-0.1 0.1 0 0-0.1 0.1-0.1 0.2s-0.1 0.2-0.1 0.4 0 0.3-0.1 0.6c0 0.2 0 0.4-0.1 0.6 0 0.2 0 0.4-0.1 0.6 0 0.2-0.1 0.4-0.1 0.5 0 0.2-0.1 0.3-0.2 0.5-0.1 0.1-0.1 0.2-0.2 0.3s-0.2 0.1-0.3 0.1-0.3-0.1-0.4-0.2-0.2-0.3-0.3-0.5-0.1-0.5-0.2-0.8c0.1-0.4 0.1-0.8 0.1-1.1z" fill="#f2ba5c"/></g><path id="path263" d="m414.7 146.3h2.2l0.1 0.3c1.2 3.4 4.3 8.8 5.2 9 0.1 0 0.3 0 0.4-0.1 0.3-0.2 0.5-0.7 0.5-1.1 0-0.6-0.4-1.1-0.9-1.2h-0.3v-0.4-6.6l0.6 0.2c2.6 0.7 4.3 3.9 4.3 8.3 0 4.9-1.8 8.3-4.3 8.3-1.8 0-3.3-1.8-4.4-5.5v5.2h-3.5v-16.4z" fill="#f2ba5c"/><path id="path265" d="m422.2 156.1c0.8 0.2 1.5-0.7 1.5-1.7 0-0.8-0.5-1.5-1.2-1.6v-6c2.2 0.6 3.9 3.5 3.9 7.9s-1.5 7.9-3.8 7.9c-2 0-3.4-2.9-4.3-6.4h-0.6v6.1h-2.5v-15.4h1.4c1.1 2.6 4.2 8.8 5.6 9.2z" fill="#2f3134"/><path id="path267" d="m414.2 137.4c0-2.1 0.3-6 2-7.7 0.6-0.6 1.3-0.9 2.1-0.9h0.5v0.5 6 0.4l-0.4 0.1c-0.4 0.1-0.8 0.7-0.8 1.5 0 1 0.4 1.8 0.8 1.8s0.8-0.7 0.8-1.8v-0.1-0.3l-0.1-0.5h3.1l-0.1 0.7v0.2c0 0.8 0.4 1.4 0.7 1.4s0.7-0.6 0.7-1.4c0-0.7-0.3-1.3-0.7-1.4l-0.4-0.1v-0.4-5.9h0.5c1 0 2.1 0.9 2.7 2.4 0.6 1.4 1 3.3 1 5.7 0 4-1.1 8-3.2 8-0.9 0-1.8-0.8-2.4-2-0.6 1.8-1.9 2.5-2.9 2.5-2.1-0.1-3.9-3.8-3.9-8.7z" fill="#f2ba5c"/><path id="XMLID_1_" d="m418.3 129.3v6c-0.7 0.1-1.2 1-1.2 2 0 1.2 0.6 2.2 1.3 2.2s1.3-1 1.3-2.2v-0.4h1.1 1v0.4c0 1 0.5 1.9 1.2 1.9s1.2-0.8 1.2-1.9c0-0.9-0.5-1.7-1.1-1.8v-5.5c0.7 0 1.7 0.8 2.3 2.1 0.7 1.4 0.9 3.4 0.9 5.5 0 4.2-1.2 7.5-2.8 7.5-0.9 0-1.8-1.2-2.3-3.2h-0.5c-0.3 2.5-1.3 3.6-2.5 3.6-2 0-3.6-3.6-3.6-8.1 0.1-4.4 1.2-8.1 3.7-8.1" fill="#2f3134"/><path id="path270" d="m413.9 192.2v-18.2l0.1-0.1 16.6-17.1v18.7l-16.3 16.8-0.2-0.2h-0.2zm0.5-18v17.3l15.8-16.2v-17.3l-15.8 16.2z" fill="#f2ba5c"/><polyline id="polyline272" points="414.1 192.2 414.1 174.1 430.4 157.4 430.4 175.4 430.3 175.4 414.1 192.2" fill="#f2ba5c"/><polyline id="polyline274" points="414.1 192.2 414.1 174.1 430.4 157.4 430.4 175.4 414.1 192.2" fill="#2f3134"/><g id="g276"><polygon id="polygon278" points="426.6 175.8 428.8 178.2 428.8 188.3 421.9 180.9 414.7 188.8 414.7 178.6 417.2 175.9 414.7 173.3 414.7 163.1 421.9 170.7 428.8 163.1 428.8 173.3" fill="#f2ba5c"/><g id="g280"><path id="path282" d="m421.9 171.4 6.5-7.1v8.8l-2.4 2.7 2.4 2.6v8.7l-6.5-6.9-6.7 7.3v-8.8l2.6-2.9-2.6-2.8v-8.7l6.7 7.1z" fill="#2f3134"/></g></g></g></g><g id="g284" transform="matrix(1.2825 0 0 1.2825 -.12426 -1.5259e-5)"><path id="path286" d="m22.9 0h9.4v1.8h265.7v-1.8h8 1.3c20.7 0.8 22.8 18.8 22.8 18.8v265.2s0.6 5.3-1.9 7.9c-4.8 5-21.5 21.5-25.2 25.3h-278.8s-19.7-19-21.7-19.9c-1.4-1.9-2.4-5-2.4-12.7v-265.8c-0.1 0 2.1-17.9 22.8-18.8z" fill="#312f2f"/><path id="XMLID_288_" d="m303.2 316.5c-0.1 0.3-0.1 0.5-0.2 0.6h-277s-7.6-127.7 38.7-134c8.5-1 19.2 1.2 43.4 7s88.7 5.8 112.9 0 34.8-7 43.4-7c16 0 25.9 15.6 31.9 36.2 10.7 37.1 8.7 90.3 6.9 97.2z" fill="#3f3f3f"/><path id="XMLID_287_" d="m165.1 198.9c-32.7 0-39.2-1.6-44.8-2.4-5.6-0.7-3.9 4.3-3.9 4.3s2.8 18.8 3.2 26 8.1 6.2 8.1 6.2h74.9s7.7 1 8.1-6.2 3.2-26 3.2-26 1.7-5.1-3.9-4.3-12.2 2.4-44.9 2.4z" fill="#181515"/><ellipse id="XMLID_286_" cx="165.1" cy="98" rx="140.7" ry="80.8" fill="#30302f"/><ellipse id="XMLID_285_" cx="165.1" cy="97.9" rx="139.2" ry="79.3" fill="#181515"/><ellipse id="XMLID_284_" cx="165.1" cy="96" rx="114.4" ry="64.3" fill="#2c2929"/><polygon id="XMLID_283_" points="157.9 129.8 172.3 129.8 165 122.4" fill="#241c1e"/><g id="SEGA_2_" fill="#929397"><path id="XMLID_282_" d="m187.1 221h-7v-1.6h4.8c-0.3-1.1-0.6-1.9-0.9-2.8-0.7-2.1-1.3-4.3-2.1-6.4-0.2-0.5-0.7-1.2-1.1-1.3-0.8-0.2-1 0.6-1.2 1.3-1.1 3.3-2.2 6.6-3.2 9.9-0.2 0.8-0.6 1-1.4 1-2.1-0.1-4.3 0-6.5 0s-3.6-1.4-3.7-3.7v-6.1c0.1-2.3 1.4-3.7 3.6-3.7h5.9v1.7h-5c-2.3 0-2.9 0.6-2.9 3v4.6c0 1.6 0.8 2.4 2.3 2.5h3.8v-5.3h-3.2v-1.7h5v7h0.3c1.1-3.2 2.1-6.5 3.2-9.7 0.6-1.9 1.7-2.6 3.5-2.3 1 0.2 1.7 0.7 2 1.7 1.3 3.9 2.5 7.8 3.8 11.7v0.2z"/><path id="XMLID_281_" d="m143.2 221v-1.7h5.5c1.5 0 2.7-1.1 2.7-2.6 0.1-1.4-1.1-2.6-2.6-2.7h-1.8c-0.9-0.1-1.6-1-1.6-2s0.7-2 1.6-2c2-0.1 4 0 6.1 0v1.7h-3-2.8v0.6c0.6 0 1.1 0.1 1.7 0.1 2.1 0 3.6 1.3 4.2 3.4 0.6 2.6-1.2 5.3-3.7 5.4-2.2-0.1-4.2-0.2-6.3-0.2z"/><path id="XMLID_280_" d="m143.2 218.7v-1.8h5.9v-0.5c-0.6 0-1.2-0.1-1.8-0.1-1.7 0-3-0.8-3.7-2.4-0.8-1.6-0.6-3.2 0.4-4.6 0.7-1 1.6-1.7 2.8-1.7 2.1-0.1 4.2 0 6.3 0v1.7h-5.6c-1.9 0-3.1 1.8-2.5 3.5 0.3 1 1.3 1.8 2.5 1.8h1.7c0.9 0.1 1.6 1 1.7 2 0 1-0.7 2-1.6 2-2 0.1-4 0.1-6.1 0.1z"/><path id="XMLID_279_" d="m163.9 207.6v1.7h-5.5c-1.9 0-2.6 0.7-2.6 2.7v4.8c0 1.9 0.7 2.6 2.5 2.6h5.6v1.7h-4.1-2.6c-1.6-0.1-3-1.6-3-3.2-0.1-2.3-0.1-4.7 0-7.1 0-1.5 1.3-3.1 2.7-3.1 2.4-0.2 4.7-0.1 7-0.1z"/><path id="XMLID_276_" d="m176.5 221c1.2-3.7 2.3-7.3 3.5-10.8 0.1-0.3 0.3-0.5 0.6-0.6 0.1 0 0.5 0.2 0.6 0.4 1 2.9 1.9 5.8 2.9 8.7h-4c0-0.4-0.1-0.8-0.1-1.2-0.1 0-0.1 0-0.2-0.1-0.2 0.7-0.5 1.3-0.7 2-0.6 1.8-0.6 1.8-2.6 1.6zm3.5-4.3h1.4c-0.2-0.7-0.4-1.3-0.6-1.8h-0.2c-0.2 0.6-0.4 1.1-0.6 1.8z"/><path id="XMLID_275_" d="m170.6 216.5c-0.5-0.2-0.8-0.2-1.2-0.3v-1.5h2.6v4c-1.3 0-2.7 0.1-4-0.1-0.3 0-0.9-0.7-0.9-1.1-0.1-2.1-0.1-4.3 0-6.4 0-0.7 0.4-1.2 1.2-1.2h6v1.7h-4.4c-0.9 0-1.2 0.3-1.2 1.2 0.1 1 0 2 0 3 0.1 1.2 0.6 1.5 1.9 0.7z"/><path id="XMLID_274_" d="m158.2 216.8c1.8 0.3 3.7 0 5.6 0.2v1.6c-2.2 0-4.3 0.1-6.4-0.1-0.3 0-0.8-0.7-0.9-1.2-0.1-0.9 0-1.8 0-2.7h6.1v1.6h-4.2c-0.1 0.3-0.1 0.4-0.2 0.6z"/><path id="XMLID_273_" d="m163.9 209.9v1.6c-1.9 0.3-3.8-0.2-5.7 0.2v0.4h4.3v1.7h-6c0-1-0.1-2 0-3 0-0.4 0.6-0.9 0.9-0.9h6.5z"/></g><g id="XMLID_132_" fill="#241c1e"><path id="XMLID_171_" d="m141.1 134-1.2 0.1c0-0.8-0.3-1.3-0.8-1.3-0.6 0-0.9 0.6-0.9 1.9 0 0.7 0.1 1.3 0.3 1.5 0.2 0.3 0.4 0.4 0.7 0.4 0.5 0 0.8-0.4 0.9-1.1l1.1 0.1c-0.1 0.7-0.3 1.3-0.7 1.6s-0.8 0.6-1.4 0.6c-0.7 0-1.2-0.3-1.6-0.8s-0.6-1.3-0.6-2.3c0-0.9 0.2-1.6 0.6-2.2s1-0.9 1.6-0.9c1.2 0.1 1.9 0.9 2 2.4z"/><path id="XMLID_168_" d="m143.8 131.8 1.6 5.9h-1.3l-0.3-1.2h-1.6l-0.3 1.2h-1l1.6-5.9h1.3zm-1.3 3.6h1.1l-0.5-2.1-0.6 2.1z"/><path id="XMLID_165_" d="m146.9 135.4v2.4h-1.2v-5.9h2.2c0.4 0 0.7 0.1 1 0.2 0.2 0.1 0.5 0.3 0.6 0.6 0.2 0.3 0.2 0.6 0.2 1 0 0.7-0.3 1.2-0.9 1.5l0.9 2.6h-1.3l-0.8-2.4h-0.7zm0-2.6v1.5h0.7c0.2 0 0.4 0 0.5-0.1s0.2-0.1 0.3-0.3c0.1-0.1 0.1-0.3 0.1-0.5s0-0.3-0.1-0.4-0.2-0.2-0.3-0.2h-0.6-0.6z"/><path id="XMLID_163_" d="m153.6 131.8v1.2h-1.2v4.8h-1.2v-4.8h-1.3v-1.2h3.7z"/><path id="XMLID_160_" d="m155.2 135.4v2.4h-1.2v-5.9h2.2c0.4 0 0.7 0.1 1 0.2 0.2 0.1 0.5 0.3 0.6 0.6 0.2 0.3 0.2 0.6 0.2 1 0 0.7-0.3 1.2-0.9 1.5l0.9 2.6h-1.3l-0.8-2.4h-0.7zm0-2.6v1.5h0.7c0.2 0 0.4 0 0.5-0.1 0.1 0 0.2-0.1 0.3-0.3 0.1-0.1 0.1-0.3 0.1-0.5s0-0.3-0.1-0.4-0.2-0.2-0.3-0.2h-0.6-0.6z"/><path id="XMLID_158_" d="m159.5 131.8v5.9h-1.2v-5.9h1.2z"/><path id="XMLID_155_" d="m159.9 131.8h1.5c0.6 0 1.1 0.1 1.4 0.3s0.6 0.5 0.8 1c0.2 0.4 0.4 1 0.4 1.7 0 0.9-0.2 1.6-0.6 2.1-0.4 0.6-1 0.9-1.8 0.9h-1.7v-6zm1.2 1.1v3.7h0.5c0.4 0 0.7-0.2 1-0.6 0.2-0.4 0.3-0.8 0.3-1.3 0-0.4-0.1-0.7-0.2-1s-0.3-0.5-0.4-0.6c-0.2-0.1-0.4-0.2-0.6-0.2h-0.6z"/><path id="XMLID_153_" d="m168.4 134.5s0 1.9-0.7 2.6-0.8 0.7-1.4 0.7c-0.7 0-1.2-0.3-1.5-0.8-0.4-0.6-0.5-1.3-0.5-2.2s0.2-1.7 0.6-2.3 0.9-0.9 1.6-0.9c0.6 0 1 0.2 1.4 0.6 0.3 0.4 0.6 0.9 0.6 1.5l-1.1 0.2c-0.1-0.7-0.4-1.1-0.9-1.1-0.3 0-0.6 0.2-0.7 0.5s-0.2 0.8-0.2 1.5c0 0.6 0.1 1.1 0.3 1.4s0.4 0.5 0.8 0.5c0.2 0 0.4-0.1 0.6-0.2s0.2-0.4 0.2-0.8h-0.9v-1.1h1.8z"/><path id="XMLID_151_" d="m172.2 132.9h-2.4v1.2h1.9v1.1h-1.9v1.3h2.4v1.2h-3.6v-5.9h3.6v1.1z"/><path id="XMLID_149_" d="m176.9 131.8v5.9h-1.2v-5.9h1.2z"/><path id="XMLID_146_" d="m181 131.8v5.9h-1l-2-4v0.2 0.3 3.6h-0.9v-5.9h1.3l1.7 3.5v-0.4-3.1h0.9z"/><path id="XMLID_143_" d="m182.5 135.5v2.2h-1.2v-5.9h2c0.4 0 0.8 0.1 1 0.2s0.4 0.3 0.6 0.6 0.3 0.6 0.3 1.1c0 0.3 0 0.6-0.1 0.9s-0.2 0.5-0.4 0.7-0.4 0.3-0.5 0.3c-0.2 0.1-0.4 0.1-0.8 0.1h-0.9zm-0.1-1.1h0.8c0.3 0 0.5-0.1 0.6-0.2 0.1-0.2 0.2-0.3 0.2-0.5s-0.1-0.4-0.2-0.6-0.3-0.2-0.6-0.2h-0.8v1.5z"/><path id="XMLID_141_" d="m189.4 131.8v3.7c0 0.6-0.1 1-0.2 1.3s-0.3 0.5-0.6 0.7-0.7 0.3-1.2 0.3-0.9-0.1-1.2-0.3-0.5-0.4-0.6-0.7-0.2-0.8-0.2-1.4v-3.7h1.3v3.7c0 0.3 0 0.6 0.1 0.7s0.1 0.3 0.3 0.4c0.1 0.1 0.3 0.1 0.5 0.1s0.4 0 0.5-0.1l0.3-0.3c0.1-0.1 0.1-0.4 0.1-0.7v-3.7h0.9z"/><path id="XMLID_4_" d="m193.4 131.8v1.2h-1.2v4.8h-1.2v-4.8h-1.3v-1.2h3.7z"/></g><g id="g318"><path id="path320" d="m250.6 113.1h-171c-10.2 0-18.6-8.3-18.6-18.6 0-10.2 8.3-18.6 18.6-18.6h171c10.2 0 18.6 8.3 18.6 18.6 0 10.2-8.4 18.6-18.6 18.6z" fill="#181515"/><g id="g322"><rect id="rect324" x="73.4" y="82" width="183.5" height="26.1"/><rect id="rect326" x="74.3" y="82.9" width="181.7" height="24.2" fill="#732a46"/><rect id="rect328" x="73.4" y="94.6" width="183.5" height=".9" fill="#010102"/></g></g><path id="XMLID_131_" d="m40.3 203.7c5.7-11.3 14.8-17 25.5-18.5 8.5-1 21 3.6 45.2 9.4 12.2 2.9 31.4 4.3 53.7 4.3s41.5-1.4 53.7-4.3c24.2-5.8 36.7-10.4 45.2-9.4 10.7 1.4 20.8 6.8 26.5 18.1-6-12.2-14.4-20.3-25.9-20.3-8.6 0-19.2 1.2-43.4 7-12 2.9-34 4.3-56.1 4.3-22.3 0-44.7-1.4-56.8-4.3-24.2-5.8-34.9-8-43.4-7-10.8 1.5-18.5 9.4-24.2 20.7z" fill="#181515"/><g id="g331"><path id="XMLID_130_" d="m264.7 256.3c0 12.2-14.1 14.3-14.1 14.3h-85.6-85.6c-2.5 0-14.1-2.1-14.1-14.3s14.1-14.3 14.1-14.3h85.6 85.6c0.1 0 14.1 2.1 14.1 14.3z" fill="#3f4040"/><path id="XMLID_129_" d="m252.8 267.3h-175c-4.8 0-8.8-3.9-8.8-8.8v-4.3c0-4.8 3.9-8.8 8.8-8.8h174.9c4.8 0 8.8 3.9 8.8 8.8v4.3c0 4.9-3.9 8.8-8.7 8.8z" fill="#333"/><path id="bouton_2_" d="m249.4 263.9h-29.1c-4.2 0-7.6-3.4-7.6-7.6s3.4-7.6 7.6-7.6h29.1c4.2 0 7.6 3.4 7.6 7.6s-3.4 7.6-7.6 7.6z" fill="#212020"/><path id="bouton_1_" d="m249.4 261h-29.1c-2.5 0-4.6-2.1-4.6-4.6v-0.2c0-2.5 2.1-4.6 4.6-4.6h29.1c2.5 0 4.6 2.1 4.6 4.6v0.2c-0.1 2.5-2.1 4.6-4.6 4.6z" fill="#6177b3"/><circle id="circle337" cx="222.1" cy="256.4" r=".9" fill="#45537c"/><circle id="circle339" cx="228.4" cy="256.4" r=".9" fill="#45537c"/><circle id="circle341" cx="234.8" cy="256.4" r=".9" fill="#45537c"/><circle id="circle343" cx="241.2" cy="256.4" r=".9" fill="#45537c"/><circle id="circle345" cx="247.6" cy="256.4" r=".9" fill="#45537c"/><path id="bouton_13_" d="m110 263.9h-29c-4.2 0-7.6-3.4-7.6-7.6s3.4-7.6 7.6-7.6h29c4.2 0 7.6 3.4 7.6 7.6 0.1 4.2-3.4 7.6-7.6 7.6z" fill="#212020"/><path id="bouton_10_" d="m110.1 261h-29.2c-2.5 0-4.6-2.1-4.6-4.6v-0.2c0-2.5 2.1-4.6 4.6-4.6h29.1c2.5 0 4.6 2.1 4.6 4.6v0.2c0 2.5-2 4.6-4.5 4.6z" fill="#cbcfd8"/><path id="path349" d="m98.1 251.7c-1.8 0-3.3 2.1-3.3 4.6 0 2.6 1.5 4.6 3.3 4.6h-10.6c1.8 0 3.3-2.1 3.3-4.6 0-2.6-1.5-4.6-3.3-4.6h10.6z" fill="#7d8189"/><rect id="rect351" x="92.2" y="251.7" width="1" height="9.3" fill="#6b6d72"/><path id="path353" d="m87.5 251.7h-7.4c-1.8 0-3.3 2.1-3.3 4.6 0 2.6 1.5 4.6 3.3 4.6h7.4c1.8 0 3.3-2.1 3.3-4.6s-1.5-4.6-3.3-4.6z" fill="#929397"/><path id="path355" d="m105.5 251.7h-7.4c-1.8 0-3.3 2.1-3.3 4.6 0 2.6 1.5 4.6 3.3 4.6h7.4c1.8 0 3.3-2.1 3.3-4.6s-1.5-4.6-3.3-4.6z" fill="#929397"/></g><g id="g357"><path id="XMLID_128_" d="m298 1.8v11.1s-0.1 1.4-2 1.4h-130.9-130.9c-1.9 0-2-1.4-2-1.4v-11.1l132.9 0.1 132.9-0.1z" fill="#444546"/><g id="XMLID_56_" fill="#282424"><rect id="XMLID_127_" x="33.4" width="2.4" height="12.6"/><rect id="XMLID_126_" x="37.1" width="2.4" height="12.6"/><rect id="XMLID_125_" x="40.8" width="2.4" height="12.6"/><rect id="XMLID_124_" x="44.5" width="2.4" height="12.6"/><rect id="XMLID_123_" x="48.2" width="2.4" height="12.6"/><rect id="XMLID_122_" x="51.9" width="2.4" height="12.6"/><rect id="XMLID_121_" x="55.6" width="2.4" height="12.6"/><rect id="XMLID_120_" x="59.3" width="2.4" height="12.6"/><rect id="XMLID_119_" x="63.1" width="2.4" height="12.6"/><rect id="XMLID_118_" x="66.8" width="2.4" height="12.6"/><rect id="XMLID_117_" x="70.6" width="2.4" height="12.6"/><rect id="XMLID_116_" x="74.3" width="2.4" height="12.6"/><rect id="XMLID_115_" x="78" width="2.4" height="12.6"/><rect id="XMLID_114_" x="81.7" width="2.4" height="12.6"/><rect id="XMLID_113_" x="85.4" width="2.4" height="12.6"/><rect id="XMLID_112_" x="89.1" width="2.4" height="12.6"/><rect id="XMLID_111_" x="92.9" width="2.4" height="12.6"/><rect id="XMLID_110_" x="96.6" width="2.4" height="12.6"/><rect id="XMLID_109_" x="100.4" width="2.4" height="12.6"/><rect id="XMLID_108_" x="104.1" width="2.4" height="12.6"/><rect id="XMLID_107_" x="107.7" width="2.4" height="12.6"/><rect id="XMLID_106_" x="111.4" width="2.4" height="12.6"/><rect id="XMLID_105_" x="115.2" width="2.4" height="12.6"/><rect id="XMLID_104_" x="118.9" width="2.4" height="12.6"/><rect id="XMLID_103_" x="122.6" width="2.4" height="12.6"/><rect id="XMLID_102_" x="126.3" width="2.4" height="12.6"/><rect id="XMLID_101_" x="130.1" width="2.4" height="12.6"/><rect id="XMLID_100_" x="133.8" width="2.4" height="12.6"/><rect id="XMLID_99_" x="137.5" width="2.4" height="12.6"/><rect id="XMLID_98_" x="141.2" width="2.4" height="12.6"/><rect id="XMLID_97_" x="144.9" width="2.4" height="12.6"/><rect id="XMLID_96_" x="148.6" width="2.4" height="12.6"/><rect id="XMLID_95_" x="152.6" width="2.4" height="12.6"/><rect id="XMLID_94_" x="156.4" width="2.4" height="12.6"/><rect id="XMLID_93_" x="160.1" width="2.4" height="12.6"/><rect id="XMLID_92_" x="163.7" width="2.4" height="12.6"/><rect id="XMLID_91_" x="167.4" width="2.4" height="12.6"/><rect id="XMLID_90_" x="171.2" width="2.4" height="12.6"/><rect id="XMLID_89_" x="174.9" width="2.4" height="12.6"/><rect id="XMLID_88_" x="178.6" width="2.4" height="12.6"/><rect id="XMLID_87_" x="182.4" width="2.4" height="12.6"/><rect id="XMLID_86_" x="186.1" width="2.4" height="12.6"/><rect id="XMLID_85_" x="189.8" width="2.4" height="12.6"/><rect id="XMLID_84_" x="193.5" width="2.4" height="12.6"/><rect id="XMLID_83_" x="197.2" width="2.4" height="12.6"/><rect id="XMLID_82_" x="200.9" width="2.4" height="12.6"/><rect id="XMLID_81_" x="204.6" width="2.4" height="12.6"/><rect id="XMLID_80_" x="208.7" width="2.4" height="12.6"/><rect id="XMLID_79_" x="212.5" width="2.4" height="12.6"/><rect id="XMLID_78_" x="216.2" width="2.4" height="12.6"/><rect id="XMLID_77_" x="219.8" width="2.4" height="12.6"/><rect id="XMLID_76_" x="223.5" width="2.4" height="12.6"/><rect id="XMLID_75_" x="227.3" width="2.4" height="12.6"/><rect id="XMLID_74_" x="231" width="2.4" height="12.6"/><rect id="XMLID_73_" x="234.8" width="2.4" height="12.6"/><rect id="XMLID_72_" x="238.5" width="2.4" height="12.6"/><rect id="XMLID_71_" x="242.2" width="2.4" height="12.6"/><rect id="XMLID_70_" x="245.9" width="2.4" height="12.6"/><rect id="XMLID_69_" x="249.6" width="2.4" height="12.6"/><rect id="XMLID_68_" x="253.3" width="2.4" height="12.6"/><rect id="XMLID_67_" x="257" width="2.4" height="12.6"/><rect id="XMLID_66_" x="260.8" width="2.4" height="12.6"/><rect id="XMLID_65_" x="264.7" width="2.4" height="12.6"/><rect id="XMLID_64_" x="268.4" width="2.4" height="12.6"/><rect id="XMLID_63_" x="272.1" width="2.4" height="12.6"/><rect id="XMLID_62_" x="275.8" width="2.4" height="12.6"/><rect id="XMLID_61_" x="279.5" width="2.4" height="12.6"/><rect id="XMLID_60_" x="283.3" width="2.4" height="12.6"/><rect id="XMLID_59_" x="287" width="2.4" height="12.6"/><rect id="XMLID_58_" x="290.7" width="2.4" height="12.6"/><rect id="XMLID_57_" x="294.4" width="2.4" height="12.6"/></g></g><g id="g432" fill="#82888b"><path id="path434" d="m229.7 276.7h-0.7l-0.3-0.9c0-0.1-0.1-0.1-0.1-0.2s-0.1-0.1-0.1-0.1c-0.1 0-0.1-0.1-0.2-0.1h-0.2-0.7v1.4h-0.6v-3.4h1.5 0.3 0.2c0.1 0 0.1 0 0.2 0.1 0.1 0 0.1 0.1 0.2 0.1s0.1 0.1 0.1 0.2 0.1 0.1 0.1 0.2 0 0.1 0.1 0.2v0.2c0 0.2-0.1 0.4-0.2 0.5s-0.2 0.3-0.4 0.3c0.1 0.1 0.3 0.3 0.4 0.5l0.4 1zm-2.3-2h0.9 0.3c0.1 0 0.1 0 0.2-0.1 0.1 0 0.1-0.1 0.1-0.1v-0.2c0-0.2 0-0.3-0.1-0.3-0.1-0.1-0.2-0.1-0.4-0.1h-0.9v0.8z"/><path id="path436" d="m232.9 276.7h-2.6v-3.4h2.5v0.6h-1.9v0.8h1.8v0.6h-1.8v0.9h2v0.5z"/><path id="path438" d="m234.9 276.8c-0.2 0-0.5 0-0.6-0.1-0.2-0.1-0.3-0.2-0.5-0.3-0.1-0.1-0.2-0.3-0.3-0.4-0.1-0.2-0.1-0.3-0.1-0.5h0.6c0 0.1 0 0.2 0.1 0.3 0 0.1 0.1 0.2 0.2 0.2 0.1 0.1 0.2 0.1 0.3 0.1h0.3 0.3c0.1 0 0.2-0.1 0.2-0.1 0.1 0 0.1-0.1 0.1-0.1v-0.2-0.2s-0.1-0.1-0.2-0.1-0.2-0.1-0.3-0.1-0.3-0.1-0.4-0.1c-0.2 0-0.4-0.1-0.5-0.2s-0.3-0.1-0.3-0.2c-0.1-0.1-0.2-0.2-0.2-0.3s-0.1-0.2-0.1-0.4c0-0.1 0-0.3 0.1-0.4s0.1-0.2 0.3-0.3c0.1-0.1 0.2-0.2 0.4-0.2 0.2-0.1 0.3-0.1 0.5-0.1s0.4 0 0.5 0.1c0.2 0.1 0.3 0.1 0.4 0.2s0.2 0.2 0.3 0.4c0.1 0.1 0.1 0.3 0.1 0.5h-0.6c0-0.4-0.3-0.6-0.7-0.6-0.2 0-0.4 0-0.5 0.1s-0.2 0.2-0.2 0.3v0.1l0.1 0.1c0.1 0 0.1 0.1 0.2 0.1s0.2 0.1 0.3 0.1 0.2 0 0.3 0.1c0.1 0 0.2 0.1 0.3 0.1s0.2 0.1 0.3 0.1c0.1 0.1 0.2 0.1 0.2 0.2 0.1 0.1 0.1 0.2 0.2 0.3 0 0.1 0.1 0.2 0.1 0.4s0 0.3-0.1 0.4l-0.3 0.3c-0.1 0.1-0.3 0.2-0.4 0.2 0 0.1-0.2 0.2-0.4 0.2z"/><path id="path440" d="m239.5 276.7h-2.6v-3.4h2.5v0.6h-1.9v0.8h1.8v0.6h-1.8v0.9h2v0.5z"/><path id="path442" d="m242.7 273.9h-1.1v2.8h-0.6v-2.8h-1.1v-0.6h2.8v0.6z"/></g><g id="g444" fill="#82888b"><path id="path446" d="m85 273.1h1.4 0.4c0.1 0 0.2 0 0.3 0.1 0.1 0 0.2 0.1 0.3 0.1 0.1 0.1 0.2 0.1 0.2 0.2 0.1 0.1 0.1 0.2 0.2 0.3 0 0.1 0.1 0.2 0.1 0.4 0 0.4-0.1 0.7-0.4 0.9-0.2 0.2-0.6 0.3-1.1 0.3h-0.8v1.4h-0.6v-3.7zm0.7 1.6h0.8 0.3c0.1 0 0.2-0.1 0.2-0.1 0.1 0 0.1-0.1 0.1-0.2v-0.2c0-0.1 0-0.2-0.1-0.3 0-0.1-0.1-0.1-0.2-0.2-0.1 0-0.1-0.1-0.2-0.1h-0.3-0.7v1.1z"/><path id="path448" d="m90.1 273c0.3 0 0.5 0 0.7 0.1s0.4 0.2 0.6 0.4 0.3 0.4 0.4 0.6 0.1 0.5 0.1 0.8 0 0.5-0.1 0.8c-0.1 0.2-0.2 0.4-0.4 0.6s-0.3 0.3-0.6 0.4-0.5 0.1-0.7 0.1c-0.3 0-0.5 0-0.7-0.1s-0.4-0.2-0.6-0.4-0.3-0.4-0.4-0.6-0.1-0.5-0.1-0.8 0-0.5 0.1-0.8c0.1-0.2 0.2-0.4 0.4-0.6s0.3-0.3 0.6-0.4c0.2 0 0.4-0.1 0.7-0.1zm0 3.2c0.2 0 0.3 0 0.4-0.1s0.2-0.1 0.3-0.3c0.1-0.1 0.2-0.2 0.2-0.4 0.1-0.2 0.1-0.3 0.1-0.5s0-0.4-0.1-0.5c-0.1-0.2-0.1-0.3-0.2-0.4s-0.2-0.2-0.3-0.2c-0.1-0.1-0.3-0.1-0.4-0.1-0.2 0-0.3 0-0.4 0.1s-0.2 0.1-0.3 0.3c-0.1 0.1-0.2 0.2-0.2 0.4-0.1 0.2-0.1 0.3-0.1 0.5s0 0.4 0.1 0.5 0.1 0.3 0.2 0.4l0.3 0.3h0.4z"/><path id="path450" d="m97 273.1-1 3.7h-0.6l-0.7-2.7-0.7 2.7h-0.6l-1-3.7h0.6l0.6 2.5 0.7-2.5h0.7l0.7 2.5 0.6-2.5h0.7z"/><path id="path452" d="m100.3 276.7h-2.8v-3.7h2.7v0.6h-2v0.8h1.9v0.6h-1.9v0.9h2.1v0.8z"/><path id="path454" d="m104.2 276.7h-0.7l-0.3-1c0-0.1-0.1-0.1-0.1-0.2s-0.1-0.1-0.1-0.1c-0.1 0-0.1-0.1-0.2-0.1h-0.2-0.7v1.5h-0.9v-3.7h1.6 0.3 0.3c0.1 0 0.2 0 0.2 0.1 0.1 0 0.1 0.1 0.2 0.1l0.2 0.2c0 0.1 0.1 0.1 0.1 0.2s0.1 0.1 0.1 0.2v0.2c0 0.2-0.1 0.4-0.2 0.6s-0.3 0.3-0.4 0.4c0.2 0.1 0.3 0.3 0.4 0.6l0.4 1zm-2.5-2.1h0.9 0.3c0.1 0 0.2 0 0.2-0.1 0.1 0 0.1-0.1 0.1-0.2v-0.2c0-0.2-0.1-0.3-0.2-0.4s-0.3-0.1-0.5-0.1h-1v1z"/></g><g id="g456" fill="#929397"><path id="XMLID_55_" d="m71.4 295v-1.8c1.8-0.4 3-1 3.5-1.8h1.8v7.2 1.6h-2.3v-1.6-5c-1.4 0.7-2.3 1.1-3 1.4z"/><rect id="XMLID_322_" x="97.1" y="291.6" width="2.4" height="8.7"/><polygon id="XMLID_319_" points="100.1 291.6 107.7 291.6 107.7 293.3 105.2 293.3 105.2 300.2 102.7 300.2 102.7 293.3 100.1 293.3"/><path id="path461" d="m88 292.5c0-0.5 0.4-0.9 0.9-0.9h3.9c0.9 0 1.5 0.1 1.9 0.3s0.8 0.4 1.1 0.8c0.3 0.3 0.4 0.7 0.4 1.2 0 1-0.6 1.6-1.9 1.9 0.7 0.1 1.3 0.4 1.6 0.8 0.4 0.4 0.5 0.8 0.5 1.3 0 0.6-0.3 1.2-0.9 1.7s-1.5 0.7-2.9 0.7h-3.9c-0.5 0-0.9-0.4-0.9-0.9v-6.9zm2.4 1.3c0 0.2 0.4 0.3 0.9 0.3h0.9c0.7 0 1.1 0 1.3-0.1s0.3-0.2 0.3-0.2c0-0.1-0.1-0.1-0.2-0.2s-0.3-0.1-0.5-0.1h-1-0.7c-0.6 0-1 0.1-1 0.3zm0.6 3.4h0.4 0.9c0.6 0 1.1 0 1.3-0.1 0.3-0.1 0.4-0.2 0.4-0.3s-0.1-0.2-0.4-0.2c-0.3-0.1-0.7-0.1-1.3-0.1h-1c-0.5 0-0.9 0.1-0.9 0.3v3.3h0.6v-2.9z"/><path id="path463" d="m80.5 293.8h6.1v-2.4h-7c-1 0-1.8 0.8-1.8 1.8v5.3c0 1 0.8 1.8 1.8 1.8h5.2c1 0 1.8-0.8 1.8-1.8v-2.2c0-0.9-0.7-1.6-1.6-1.9h-3.9v2.1h2.9v0.7h-3.5v-3.4z"/></g><g id="g465"><path id="text8337_4_" d="m209.1 298.7 4-6c0.2-0.3 0.4-0.5 0.6-0.5h2.8v0.8l0.2-0.3c0.2-0.3 0.4-0.5 0.6-0.5h3.4v6.5h-2.3v-5.1l-3.4 5.1h-2.3l3.4-5.1h-1.1c-0.1 0-0.3 0.1-0.4 0.2l-3.2 5h-2.3v-0.1zm14.5-2.6v1.2h5.3v1.4h-7.6v-4.3c0-0.1 0-0.2 0.1-0.3l1-1.7c0.1-0.1 0.2-0.2 0.4-0.2h6v1.4h-4.5c-0.1 0-0.2 0.1-0.3 0.2l-0.5 1h5.3l-0.8 1.4h-4.4zm8.3 1.2h3.8v-1.2h-1.5l0.8-1.4h3v3.6c0 0.2-0.1 0.3-0.4 0.3h-7.6c-0.3 0-0.4-0.1-0.4-0.3v-3.9c0-0.1 0-0.2 0.1-0.3l1-1.7c0.1-0.1 0.2-0.2 0.4-0.2h6.4v1.4h-4.9c-0.1 0-0.2 0.1-0.3 0.2l-0.5 1v2.5zm16.3 1.4h-2.6l-1-1.4h-2.7l-0.8-1.2v2.6h-2.3v-6.5h4.3c0.2 0 0.4 0.2 0.6 0.5l4.5 6zm-4.7-2.8-1.7-2.2c-0.1-0.1-0.3-0.2-0.4-0.2h-0.4v2.4h2.5z" fill="#929397"/><g id="g468" fill="#929397"><path id="path470" d="m280.1 290.4h-9.4c2.1-1.2 5-2.7 6.3-4.3 2.5-3.1-1.6-5.4-4.9-4.3-4.6 1.5-6.6 3.8-9.2 6.1h-5.5c3.9-7.5 8.8-11.5 16.2-13.5 8-2.2 11.7 3 10.2 9.1-0.9 3.4-1.2 3.9-3.7 6.9z"/><path id="path472" d="m267.6 302.6c0-0.2 0.2-0.6 0.3-0.9 0.2-0.4 0.5-0.7 0.7-0.9h-9.5c-0.7 1.3-1.4 2-1.9 4.4-0.5 2.6 1 3.8 1.9 3.8h22.7l3.3-6.4h-17.5z"/></g><path id="text8339_2_" d="m251.9 297.5h2.4c0.1 0 0.2-0.1 0.3-0.2l0.7-1.6v-0.2-0.2l-0.7-1.6c-0.1-0.1-0.1-0.2-0.3-0.2h-2.4v4zm-2.1-5.3h5.8c0.2 0 0.3 0.1 0.4 0.4l1.4 2.8v0.2 0.2l-1.4 2.8c-0.1 0.2-0.3 0.4-0.4 0.4h-5.8v-6.8zm8.4 0h5.6c0.2 0 0.3 0.1 0.4 0.4l0.9 1.9v0.2 0.2l-1.4 1.6 1.4 2.5h-2.1l-2-3.3h1c0.1 0 0.2 0 0.3-0.1l0.7-0.8-0.3-0.9c-0.1-0.1-0.1-0.2-0.3-0.2h-2.2v5.3h-2.1v-6.8h0.1zm9.8 6.7h-2.1v-6.7h2.1v6.7zm2.8-4.5 2.1 3.1 2.1-3.1v-2.2h2.1v2.5c0 0.2 0 0.4-0.1 0.5l-2.4 3.7h-3.5l-2.4-3.7c-0.1-0.1-0.1-0.3-0.1-0.5v-2.5h2.1v2.2h0.1zm9 1.8v1.2h4.9v1.4h-7v-4.4c0-0.1 0-0.2 0.1-0.4l1-1.8c0.1-0.1 0.2-0.2 0.3-0.2h5.6v1.4h-4.2c-0.1 0-0.2 0.1-0.3 0.2l-0.4 1.1h4.9l-0.7 1.4h-4.2v0.1z" fill="#8c8e92"/></g><g id="g475" fill="#929397"><path id="path477" d="m72.5 274.9c0-0.4 0.1-0.7 0.2-1 0.1-0.2 0.2-0.4 0.4-0.5s0.3-0.3 0.5-0.4 0.5-0.2 0.9-0.2c0.6 0 1.1 0.2 1.4 0.5 0.4 0.4 0.5 0.9 0.5 1.5s-0.2 1.1-0.5 1.5-0.8 0.5-1.4 0.5-1.1-0.2-1.4-0.5c-0.4-0.2-0.6-0.7-0.6-1.4zm0.8 0c0 0.4 0.1 0.8 0.3 1s0.5 0.3 0.8 0.3 0.6-0.1 0.8-0.3 0.3-0.6 0.3-1c0-0.5-0.1-0.8-0.3-1s-0.5-0.3-0.8-0.3-0.6 0.1-0.8 0.3-0.3 0.5-0.3 1z"/><path id="path479" d="m77 276.9v-4h0.8l1.6 2.7v-2.7h0.7v4h-0.8l-1.6-2.6v2.6h-0.7z"/></g><g id="g481" fill="#929397"><path id="path483" d="m109.2 274.9c0-0.4 0.1-0.7 0.2-1 0.1-0.2 0.2-0.4 0.4-0.5s0.3-0.3 0.5-0.4 0.5-0.2 0.9-0.2c0.6 0 1.1 0.2 1.4 0.5 0.4 0.4 0.5 0.9 0.5 1.5s-0.2 1.1-0.5 1.5-0.8 0.5-1.4 0.5-1.1-0.2-1.4-0.5c-0.4-0.3-0.6-0.8-0.6-1.4zm0.9 0c0 0.4 0.1 0.8 0.3 1s0.5 0.3 0.8 0.3 0.6-0.1 0.8-0.3 0.3-0.6 0.3-1c0-0.5-0.1-0.8-0.3-1s-0.5-0.3-0.8-0.3-0.6 0.1-0.8 0.3-0.3 0.5-0.3 1z"/><path id="path485" d="m113.7 276.9v-4h2.7v0.7h-1.9v0.9h1.7v0.7h-1.7v1.7h-0.8z"/><path id="path487" d="m117.1 276.9v-4h2.7v0.7h-1.9v0.9h1.7v0.7h-1.7v1.7h-0.8z"/></g><g id="g489"><path id="path491" d="m78.9 279.1h-4.9c-2.1 0-3.8-1.7-3.8-3.8v-0.9c0-2.1 1.7-3.8 3.8-3.8h4.9c2.1 0 3.8 1.7 3.8 3.8v0.9c0 2.1-1.7 3.8-3.8 3.8zm-4.9-7.5c-1.6 0-2.8 1.3-2.8 2.8v0.9c0 1.6 1.3 2.8 2.8 2.8h4.9c1.6 0 2.8-1.3 2.8-2.8v-0.9c0-1.6-1.3-2.8-2.8-2.8h-4.9z" fill="#929397"/></g><g id="g493"><path id="path495" d="m118 279.1h-7c-2.1 0-3.8-1.7-3.8-3.8v-0.9c0-2.1 1.7-3.8 3.8-3.8h7c2.1 0 3.8 1.7 3.8 3.8v0.9c0 2.1-1.7 3.8-3.8 3.8zm-6.9-7.5c-1.6 0-2.8 1.3-2.8 2.8v0.9c0 1.6 1.3 2.8 2.8 2.8h7c1.6 0 2.8-1.3 2.8-2.8v-0.9c0-1.6-1.3-2.8-2.8-2.8h-7z" fill="#929397"/></g></g><g id="g497" transform="matrix(1.2825 0 0 1.2825 -.12426 -1.5259e-5)"><path id="XMLID_355_" d="m165.1 44.9c16.3 0 31.1 0.4 44.3 1 22 1 39.3 2.5 51.1 3.8 22.8 2.4 39.3 0.5 48.3 23.4 5 12.7 6 53.6 3.8 60s-3.4 11.3-11.8 14.2c-8.4 3-50.2 13.4-60.4 18.4-10.2 5.1-34 14.8-40.8 17l-6.8 2.2s-11.4 4.2-27.8 4.2-27.8-4.2-27.8-4.2l-6.8-2.2c-6.8-2.2-30.7-11.9-40.8-17-10.2-5.1-52-15.4-60.4-18.4s-9.6-7.9-11.8-14.2-1.2-47.3 3.8-60c9-22.9 25.5-21 48.3-23.4 11.8-1.2 29.1-2.8 51.1-3.8 13.3-0.6 28.2-1 44.5-1" fill="#171819"/><path id="path500" d="m165.1 123.9" fill="none" stroke="#fff" stroke-miterlimit="10" stroke-width=".3"/><path id="path502" d="m165.2 56.9c44.4-0.5 107.9 2.6 116.4 9 16.3 9.1 15.9 22.4 16.8 32.6-0.3 5.2-1.8 14.7-8.4 23.6-2 2.8-5.6 6-7.6 7.7-24.8 17.5-61 47.7-117.2 50.8h-0.1c-56.2-3.1-92.3-33.3-117.2-50.8-2-1.8-5.6-5-7.6-7.8-6.6-9-8-18.5-8.4-23.6 0.9-10.2 0.5-23.6 16.7-32.6 8.6-6.4 72-9.5 116.4-9" fill="#171819"/><path id="path504" d="m165.4 126.7h-0.3l89.5-1.9c9.3-0.6 16.3-1.2 22.8-10 2.8-3.7 4.1-8.3 4.1-12.9v-3.3c0-18.5-9.4-25.5-25.1-28.5 0 0-37.4-4.1-91.3-4.1s-91.3 4-91.3 4c-15.7 3-25.1 10-25.1 28.5v3.3c0 4.6 1.4 9.2 4.1 12.9 6.5 8.8 13.4 9.3 22.8 10l89.5 1.9h-0.3" fill="#282827"/><path id="path506" d="m164.9 71.2c47.9 0 80.4 4 80.4 4 13.9 2.3 23 6.7 23 20.7v6.8c0 8-6.5 14.5-14.5 14.5h-88.9 0.3-88.8c-8 0-14.5-6.5-14.5-14.5v-6.8c0-14 9.1-18.4 23-20.7 0 0 32.5-4 80.4-4" fill="#1d1d1d"/><g id="g508"><rect id="rect510" x="73.3" y="83.4" width="183.6" height="30.2" fill="#1b1c1c"/><rect id="rect512" x="73.5" y="83.7" width="183.1" height="29.8" fill="#414446"/><path id="path514" d="m106.2 112" fill="none" stroke="#bd3126" stroke-miterlimit="10" stroke-width=".3"/><path id="path516" d="m164.9 113.4h63.1c13.2 0 24.6-8.7 28.6-12v-17.7h-91.7 0.4-91.8v17.8c4 3.3 15.4 12 28.6 12h63.1" fill="#1b1d1e"/><path id="path518" d="m73.5 90.2h12.4c0.4 0 0.8-0.4 0.8-0.8v-5.7h-13.2v6.5z" fill="#46494b"/><path id="path520" d="m256.6 90.2h-12.4c-0.4 0-0.8-0.4-0.8-0.8v-5.7h13.2v6.5z" fill="#46494b"/><path id="path522" d="m164.9 85.9h74.7c0.4 0 0.8 0.4 0.8 0.8v4.5c0 0.4 0.3 0.8 0.8 0.8h11.4 0.1v9.4c-7.3 6-15.6 10.6-29 10.6h-58.7-58.7c-13.4 0-21.7-4.6-29-10.6v-9.4h0.1 11.4c0.4 0 0.8-0.4 0.8-0.8v-4.5c0-0.4 0.4-0.8 0.8-0.8h74.5z" fill="#45494a"/><rect id="rect524" x="73.5" y="98.5" width="183.1" height=".6"/><g id="g526"><rect id="rect528" x="113.8" y="99.1" width="102.2" height="1.2" fill="#1c1e1f"/><rect id="rect530" x="113.8" y="100.3" width="102.2" height="1.2" fill="#202223"/><rect id="rect532" x="113.8" y="101.5" width="102.2" height="1.2" fill="#242627"/><rect id="rect534" x="113.8" y="102.7" width="102.2" height="1.2" fill="#292c2d"/><rect id="rect536" x="113.8" y="103.9" width="102.2" height="1.2" fill="#2f3133"/><rect id="rect538" x="113.8" y="105.1" width="102.2" height="1.2" fill="#333637"/><rect id="rect540" x="113.8" y="106.3" width="102.2" height="1.2" fill="#373a3c"/><rect id="rect542" x="113.8" y="107.5" width="102.2" height="1.2" fill="#3b3e3f"/><rect id="rect544" x="113.8" y="108.7" width="102.2" height="1.2" fill="#3f4244"/></g><path id="XMLID_354_" d="m116.9 99.1h-3.1v10.8s0.8-9.1 3.1-10.8z" fill="#1b1d1e"/><path id="XMLID_353_" d="m212.8 99.1h3.1v10.8c0.1 0-0.7-9.1-3.1-10.8z" fill="#1b1d1e"/><g id="g548"><rect id="rect550" x="113.8" y="97.3" width="102.2" height="1.2" fill="#1c1e1f"/><rect id="rect552" x="113.8" y="96.1" width="102.2" height="1.2" fill="#202223"/><rect id="rect554" x="113.8" y="94.9" width="102.2" height="1.2" fill="#242627"/><rect id="rect556" x="113.8" y="93.7" width="102.2" height="1.2" fill="#292c2d"/><rect id="rect558" x="113.8" y="92.5" width="102.2" height="1.2" fill="#2f3133"/><rect id="rect560" x="113.8" y="91.3" width="102.2" height="1.2" fill="#333637"/><rect id="rect562" x="113.8" y="90.1" width="102.2" height="1.2" fill="#373a3c"/><rect id="rect564" x="113.8" y="88.9" width="102.2" height="1.2" fill="#3b3e3f"/><rect id="rect566" x="113.8" y="87.7" width="102.2" height="1.2" fill="#3f4244"/></g><path id="XMLID_352_" d="m116.9 98.5h-3.1v-11.2s0.8 9.5 3.1 11.2z" fill="#1b1d1e"/><path id="XMLID_351_" d="m212.8 98.5h3.1v-11.2c0.1 0-0.7 9.5-3.1 11.2z" fill="#1b1d1e"/><g id="g570"><g id="g572"><path id="path574" d="m92.5 97h0.6c0 0.2-0.1 0.5-0.3 0.5-0.2-0.1-0.3-0.3-0.3-0.5z" fill="#0e1214"/><path id="path576" d="m92.5 87.8h0.6c0-0.2-0.1-0.5-0.3-0.5s-0.3 0.2-0.3 0.5z" fill="#5e5e60"/><rect id="rect578" x="92.5" y="87.8" width=".6" height="9.2" fill="#393d3f"/></g><g id="g580"><path id="path582" d="m98 97h0.6c0 0.2-0.1 0.5-0.3 0.5-0.2-0.1-0.3-0.3-0.3-0.5z" fill="#0e1214"/><path id="path584" d="m98 87.8h0.6c0-0.2-0.1-0.5-0.3-0.5s-0.3 0.2-0.3 0.5z" fill="#5e5e60"/><rect id="rect586" x="98" y="87.8" width=".6" height="9.2" fill="#393d3f"/></g><g id="g588"><path id="path590" d="m98 109.9h0.6c0 0.2-0.1 0.5-0.3 0.5s-0.3-0.2-0.3-0.5z" fill="#0e1214"/><path id="path592" d="m98 100.7h0.6c0-0.2-0.1-0.5-0.3-0.5-0.2 0.1-0.3 0.3-0.3 0.5z" fill="#5e5e60"/><rect id="rect594" x="98" y="100.7" width=".6" height="9.2" fill="#393d3f"/></g><g id="g596"><path id="path598" d="m92.5 108.2h0.6c0 0.2-0.1 0.5-0.3 0.5-0.2-0.1-0.3-0.3-0.3-0.5z" fill="#0e1214"/><path id="path600" d="m92.5 100.7h0.6c0-0.2-0.1-0.5-0.3-0.5-0.2 0.1-0.3 0.3-0.3 0.5z" fill="#5e5e60"/><rect id="rect602" x="92.5" y="100.7" width=".6" height="7.5" fill="#393d3f"/></g><g id="g604"><path id="path606" d="m237.3 97h-0.6c0 0.2 0.1 0.5 0.3 0.5 0.1-0.1 0.3-0.3 0.3-0.5z" fill="#0e1214"/><path id="path608" d="m237.3 87.8h-0.6c0-0.2 0.1-0.5 0.3-0.5 0.1 0 0.3 0.2 0.3 0.5z" fill="#5e5e60"/><rect id="rect610" x="236.7" y="87.8" width=".6" height="9.2" fill="#393d3f"/></g><g id="g612"><path id="path614" d="m231.8 97h-0.6c0 0.2 0.1 0.5 0.3 0.5 0.1-0.1 0.3-0.3 0.3-0.5z" fill="#0e1214"/><path id="path616" d="m231.8 87.8h-0.6c0-0.2 0.1-0.5 0.3-0.5 0.1 0 0.3 0.2 0.3 0.5z" fill="#5e5e60"/><rect id="rect618" x="231.2" y="87.8" width=".6" height="9.2" fill="#393d3f"/></g><g id="g620"><path id="path622" d="m231.8 109.9h-0.6c0 0.2 0.1 0.5 0.3 0.5 0.1 0 0.3-0.2 0.3-0.5z" fill="#0e1214"/><path id="path624" d="m231.8 100.7h-0.6c0-0.2 0.1-0.5 0.3-0.5 0.1 0.1 0.3 0.3 0.3 0.5z" fill="#5e5e60"/><rect id="rect626" x="231.2" y="100.7" width=".6" height="9.2" fill="#393d3f"/></g><g id="g628"><path id="path630" d="m237.3 108.2h-0.6c0 0.2 0.1 0.5 0.3 0.5 0.1-0.1 0.3-0.3 0.3-0.5z" fill="#0e1214"/><path id="path632" d="m237.3 100.7h-0.6c0-0.2 0.1-0.5 0.3-0.5 0.1 0.1 0.3 0.3 0.3 0.5z" fill="#5e5e60"/><rect id="rect634" x="236.7" y="100.7" width=".6" height="7.5" fill="#393d3f"/></g></g><g id="g636"><rect id="rect638" x="90.5" y="83.4" width="7.1" height="2.2"/><path id="path640" d="m90.6 111.3v-1.9c2.1 0.8 4.4 1.4 6.9 1.9v1.8c-2.4-0.4-4.7-1-6.9-1.8"/><rect id="rect642" x="232.5" y="83.4" width="7.1" height="2.2"/><path id="path644" d="m239.5 111.3v-1.9c-2.1 0.8-4.4 1.4-6.9 1.9v1.8c2.4-0.4 4.7-1 6.9-1.8"/></g></g><path id="path646" d="m165.1 129.9" fill="none" stroke="#fff" stroke-miterlimit="10" stroke-width=".3"/><g id="g648"><path id="path650" d="m253.8 116.9h-177.4c-8.1 0-14.7-6.6-14.7-14.6v-6.8c0-14.2 9.2-18.6 23.1-20.8 0.3 0 32.9-4 80.1-4h0.3c47.2 0 79.8 4 80.1 4 13.9 2.2 23.1 6.6 23.1 20.8v6.8c0.1 8-6.5 14.6-14.6 14.6zm-88.6-0.3h88.6c7.9 0 14.3-6.4 14.3-14.4v-6.8c0-14-9.1-18.3-22.9-20.5-0.3 0-33-4-80.2-4s-79.9 4-80.2 4c-13.6 2.2-22.8 6.5-22.8 20.5v6.8c0 7.9 6.4 14.4 14.3 14.4h88.9z" fill="#2a2c2e"/></g><g id="g652"><path id="path654" d="m165.4 126.8h-0.7l-89.2-1.9c-9.1-0.6-16.3-1.1-22.9-10.1-2.7-3.6-4.2-8.2-4.2-13v-3.3c0-8.9 2.2-15.5 6.7-20.2 4-4.2 9.9-6.8 18.5-8.5 0.4 0 38-4.1 91.3-4.1s90.9 4.1 91.3 4.1c8.6 1.6 14.5 4.3 18.5 8.5 4.5 4.6 6.7 11.2 6.7 20.2v3.3c0 4.7-1.5 9.4-4.2 13-6.6 8.9-13.8 9.4-22.9 10.1l-88.9 1.9zm-0.3-60.7c-53.3 0-90.9 4.1-91.3 4.1-17.5 3.3-25 11.8-25 28.3v3.3c0 4.7 1.5 9.2 4.1 12.8 6.5 8.8 13.6 9.3 22.6 9.9l89.5 1.9 89.5-1.9c9-0.6 16.1-1.1 22.6-9.9 2.6-3.6 4.1-8.1 4.1-12.8v-3.3c0-16.5-7.5-25-25-28.3-0.2-0.1-37.8-4.1-91.1-4.1z" fill="#3f3f3f"/></g><g id="g656"><path id="path658" d="m165 180.8c-50.8-2.8-84.8-27.4-109.7-45.3-2.7-1.9-5.2-3.7-7.6-5.4-2.4-2.1-5.7-5.2-7.7-7.8-6.2-8.4-8-17.5-8.4-23.7 0.1-0.8 0.1-1.7 0.2-2.5 0.7-9.7 1.6-21.9 16.6-30.2 8.8-6.5 74.5-9.5 116.5-9v0.3c-42-0.5-107.6 2.5-116.3 9-14.9 8.3-15.8 20.3-16.5 30-0.1 0.9-0.1 1.7-0.2 2.5 0.4 6.1 2.2 15.2 8.3 23.5 1.9 2.6 5.2 5.6 7.6 7.7 2.4 1.7 4.9 3.5 7.6 5.4 24.8 17.9 58.8 42.5 109.5 45.3h0.1c50.7-2.8 84.7-27.3 109.5-45.3 2.7-1.9 5.2-3.7 7.6-5.4 2.4-2.1 5.7-5.1 7.6-7.7 6.2-8.4 7.9-17.4 8.3-23.5-0.1-0.8-0.1-1.6-0.2-2.5-0.7-9.7-1.6-21.7-16.5-30-8.7-6.5-74.3-9.4-116.3-9v-0.3c42.1-0.5 107.7 2.5 116.5 9 15 8.4 15.9 20.5 16.6 30.2 0.1 0.9 0.1 1.7 0.2 2.5-0.4 6.2-2.2 15.3-8.4 23.7-1.9 2.6-5.2 5.7-7.6 7.8-2.4 1.7-4.9 3.5-7.6 5.4-24.9 18-58.9 42.6-109.7 45.3z" fill="#2a2c2e"/></g><g id="g660"><g id="g662"><g id="g664"><path id="XMLID_348_" d="m310.3 105.6c0 1.4-1 2.6-2.2 2.6h-5.9c-1.2 0-2.3-1.2-2.3-2.6s1-2.6 2.3-2.6h5.9c1.2 0.1 2.2 1.2 2.2 2.6z" fill="#1b1d1e"/><path id="XMLID_347_" d="m308.7 105.6c0 0.9-0.7 1.7-1.6 1.7h-4.1c-0.9 0-1.6-0.8-1.6-1.7s0.7-1.7 1.6-1.7h4.1c0.9 0 1.6 0.8 1.6 1.7z" fill="#2e3233"/><rect id="rect668" x="303" y="103.1" width="4.1" height=".9"/><rect id="rect670" x="303" y="107.4" width="4.1" height=".9"/></g><g id="g672"><path id="XMLID_346_" d="m310.3 97.5c0 1.4-1 2.6-2.2 2.6h-5.9c-1.2 0-2.3-1.2-2.3-2.6s1-2.6 2.3-2.6h5.9c1.2 0 2.2 1.2 2.2 2.6z" fill="#1b1d1e"/><path id="XMLID_345_" d="m308.7 97.5c0 0.9-0.7 1.7-1.6 1.7h-4.1c-0.9 0-1.6-0.8-1.6-1.7s0.7-1.7 1.6-1.7h4.1c0.9 0 1.6 0.8 1.6 1.7z" fill="#2e3233"/><rect id="rect676" x="303" y="94.9" width="4.1" height=".9"/><rect id="rect678" x="303" y="99.2" width="4.1" height=".9"/></g><g id="g680"><path id="XMLID_344_" d="m310.3 89.4c0 1.4-1 2.6-2.2 2.6h-5.9c-1.2 0-2.3-1.2-2.3-2.6s1-2.6 2.3-2.6h5.9c1.2 0 2.2 1.2 2.2 2.6z" fill="#1b1d1e"/><path id="XMLID_343_" d="m308.7 89.4c0 0.9-0.7 1.7-1.6 1.7h-4.1c-0.9 0-1.6-0.8-1.6-1.7s0.7-1.7 1.6-1.7h4.1c0.9 0 1.6 0.8 1.6 1.7z" fill="#2e3233"/><rect id="rect684" x="303" y="86.8" width="4.1" height=".9"/><rect id="rect686" x="303" y="91.1" width="4.1" height=".9"/></g></g><g id="g688"><g id="g690"><path id="XMLID_342_" d="m19.9 105.6c0 1.4 1 2.6 2.2 2.6h5.9c1.2 0 2.3-1.2 2.3-2.6s-1-2.6-2.3-2.6h-5.9c-1.2 0-2.2 1.2-2.2 2.6z" fill="#1b1d1e"/><path id="XMLID_341_" d="m21.5 105.6c0 0.9 0.7 1.7 1.6 1.7h4.1c0.9 0 1.6-0.8 1.6-1.7s-0.7-1.7-1.6-1.7h-4.2c-0.8 0-1.5 0.8-1.5 1.7z" fill="#2e3233"/><rect id="rect694" x="23.1" y="103" width="4.1" height=".9"/><rect id="rect696" x="23.1" y="107.3" width="4.1" height=".9"/></g><g id="g698"><path id="XMLID_340_" d="m19.9 97.5c0 1.4 1 2.6 2.2 2.6h5.9c1.2 0 2.3-1.2 2.3-2.6s-1-2.6-2.3-2.6h-5.9c-1.2 0-2.2 1.2-2.2 2.6z" fill="#1b1d1e"/><path id="XMLID_339_" d="m21.5 97.5c0 0.9 0.7 1.7 1.6 1.7h4.1c0.9 0 1.6-0.8 1.6-1.7s-0.7-1.7-1.6-1.7h-4.2c-0.8 0-1.5 0.7-1.5 1.7z" fill="#2e3233"/><rect id="rect702" x="23.1" y="94.9" width="4.1" height=".9"/><rect id="rect704" x="23.1" y="99.2" width="4.1" height=".9"/></g><g id="g706"><path id="XMLID_338_" d="m19.9 89.3c0 1.4 1 2.6 2.2 2.6h5.9c1.2 0 2.3-1.2 2.3-2.6s-1-2.6-2.3-2.6h-5.9c-1.2 0.1-2.2 1.2-2.2 2.6z" fill="#1b1d1e"/><path id="XMLID_337_" d="m21.5 89.3c0 0.9 0.7 1.7 1.6 1.7h4.1c0.9 0 1.6-0.8 1.6-1.7s-0.7-1.7-1.6-1.7h-4.2c-0.8 0-1.5 0.8-1.5 1.7z" fill="#2e3233"/><rect id="rect710" x="23.1" y="86.8" width="4.1" height=".9"/><rect id="rect712" x="23.1" y="91.1" width="4.1" height=".9"/></g></g></g><path id="XMLID_336_" d="m315.1 127c0 0.5-0.2 21.5-1.4 30.2-1.2 8.9 1.1 19.6-16.2 27.1-17.3 7.4-43.3 13.9-80.6 18.2s-83.4 3.8-119.9-2.3c-36.4-6.2-56.7-10.9-67.9-16.3-12-5.7-13.3-15.8-13.5-25.4-0.1-5-0.4-30.1-0.5-37.4 0.1 6.5 0.5 11.6 1.1 13.5l0.4 1.1c2 6.1 3.8 11.4 12.4 14.5 3 1.1 10.2 3.1 18.5 5.5 14.9 4.2 35.2 10 41.7 13.3 10.3 5.2 34.4 15.3 41 17.5l6.7 2.2c0.5 0.2 11.8 4.4 28.3 4.4s27.7-4.2 28.1-4.4l6.8-2.2c6.7-2.2 30.7-12.2 41-17.5 6.5-3.3 26.8-9.1 41.7-13.3 8.3-2.4 15.5-4.4 18.5-5.5 8.7-3.2 10.4-8.4 12.4-14.5l0.4-1.1c0.5-1.3 0.8-4 1-7.6z" fill="#171819"/><path id="path715" d="m120.5 46c-22 1-39.1 2.5-50.9 3.8-22.8 2.4-39.3 0.5-48.3 23.3-5 12.7-6 53.5-3.8 59.9s3.4 11.2 11.8 14.2 50.2 13.4 60.4 18.4c10.2 5.1 34 14.8 40.8 17l6.8 2.2s11.4 4.2 27.8 4.2 27.8-4.2 27.8-4.2l6.8-2.2c6.8-2.2 30.7-11.9 40.8-17 10.2-5.1 52-15.4 60.4-18.4s9.6-7.9 11.8-14.2c2.2-6.4 1.2-47.2-3.8-59.9-9-22.9-25.5-21-48.3-23.3-11.8-1.2-29.1-2.8-51.1-3.8-13.2-0.6-28.2-1-44.5-1h-0.1c-16.4 0-31.2 0.4-44.4 1m0-1.6c13.2-0.6 28.2-1 44.5-1h0.1c16.3 0 31.1 0.4 44.3 1 17.6 0.8 34.7 2.1 51.3 3.9 2.9 0.3 5.8 0.6 8.5 0.8 18.4 1.6 32.9 2.8 41.1 24.1 3.6 9.4 5.1 32.6 4.9 48.2v0.8c-0.1 6.5-0.5 11.6-1.1 13.5l-0.4 1.1c-2 6.1-3.8 11.3-12.4 14.5-3 1.1-10.2 3.1-18.5 5.5-14.9 4.2-35.2 10-41.7 13.3-10.3 5.2-34.4 15.3-41 17.5l-6.7 2.2c-0.5 0.2-11.8 4.4-28.3 4.4s-27.8-4.2-28.3-4.4l-6.7-2.2c-6.7-2.2-30.7-12.2-41-17.5-6.5-3.3-26.8-9.1-41.7-13.3-8.3-2.4-15.5-4.4-18.5-5.5-8.7-3.2-10.4-8.4-12.4-14.5l-0.4-1.1c-0.6-1.9-1-7-1.1-13.5v-0.8c-0.2-15.6 1.3-38.8 4.9-48.2 8.2-21.3 22.7-22.6 41.1-24.1 2.7-0.2 5.6-0.5 8.5-0.8 16.5-1.8 33.5-3.1 51-3.9" fill="#0b0c0d"/><path id="XMLID_333_" d="m228.8 163.4s-0.1 0-0.2 0.1c-1.9 0.8-3.8 1.6-5.8 2.4-30.3 11.7-43.9 15.1-57.4 15.1-9.3 0-18.6-1.6-33.4-6.4 0 0-28.4-10.5-30.6-11.4 0.5-1.4 2-5 4.5-9 3-4.9 7.5-10.4 13.7-13.6 0.4-0.2 0.7-0.4 1.1-0.5 12.1-5.4 31.7-5 44.9-5s32.6-0.4 44.7 5c0.4 0.2 0.7 0.4 1.1 0.5 8.3 4.3 13.1 12.9 15.6 18.4 0.9 1.9 1.5 3.5 1.8 4.4z" fill="#c5baba"/><path id="path718" d="m164.6 179.1c-29.1 0-51.4-14.1-51.4-25.8s22.3-16.5 51.4-16.5 51.4 4.8 51.4 16.5-22.3 25.8-51.4 25.8z" fill="#2f3134"/><g id="g720"><path id="path722" d="m194.5 173.7c-0.1-4.4-5.2-8.1-11.5-8.1h-36.8c-6.3 0-11.4 3.7-11.5 8.1l-1-0.4c0.1-4.9 5.7-8.7 12.5-8.7h36.8c6.8 0 12.4 3.9 12.5 8.8l-1 0.3z" fill="#c5baba"/></g><g id="XMLID_7_" fill="#c5baba"><path id="XMLID_19_" d="m150.4 170.3c0-0.8 0.3-1.5 0.8-2 0.6-0.6 1.2-0.8 1.9-0.8h3.9v1.2h-3.6c-0.6 0-1 0.2-1.3 0.5s-0.5 0.7-0.5 1.2 0.2 0.9 0.5 1.2 0.8 0.5 1.3 0.5h0.6c0.5 0 0.9 0.1 1.1 0.4 0.3 0.3 0.4 0.6 0.4 1s-0.1 0.7-0.4 1-0.6 0.4-1.1 0.4h-3.6v-1.2h3.6c0.2 0 0.3-0.1 0.3-0.2s-0.1-0.2-0.3-0.2h-0.9c-0.7 0-1.3-0.3-1.9-0.8-0.6-0.7-0.8-1.4-0.8-2.2zm1.5 0c0-0.4 0.1-0.7 0.4-1s0.6-0.4 1.1-0.4h3.6v1.2h-3.6c-0.2 0-0.3 0.1-0.3 0.2s0.1 0.2 0.3 0.2h0.9c0.7 0 1.3 0.3 1.9 0.8 0.6 0.6 0.8 1.2 0.8 2s-0.3 1.5-0.8 2-1.2 0.8-1.9 0.8h-3.9v-1.1h3.6c0.6 0 1-0.2 1.3-0.5s0.5-0.7 0.5-1.2-0.2-0.9-0.5-1.2-0.8-0.5-1.3-0.5h-0.6c-0.5 0-0.9-0.1-1.1-0.4-0.3-0.2-0.4-0.5-0.4-0.9z"/><path id="XMLID_15_" d="m157.6 170.2c0-1.8 0.9-2.7 2.7-2.7h3.6v1.2h-3.6c-1 0-1.5 0.5-1.5 1.5v3.3c0 1 0.5 1.5 1.5 1.5h3.6v1.2h-3.6c-1.8 0-2.7-0.9-2.7-2.7v-3.3zm1.5 1.5v-1.5c0-0.8 0.4-1.2 1.2-1.2h3.6v1.2h-3.3c-0.2 0-0.3 0.1-0.3 0.3h2.7v1.2h-3.9zm0 0.3h3.9v1.2h-2.7c0 0.2 0.1 0.3 0.3 0.3h3.3v1.2h-3.6c-0.8 0-1.2-0.4-1.2-1.2v-1.5z"/><path id="XMLID_12_" d="m164.6 170.2c0-1.8 0.9-2.7 2.7-2.7h3.6v1.2h-3.6c-1 0-1.5 0.5-1.5 1.5v3.3c0 1 0.5 1.5 1.5 1.5h2.4v-3.3h-2.1v-1.2h3.3v5.8h-3.6c-1.8 0-2.7-0.9-2.7-2.7v-3.4zm1.5 0c0-0.8 0.4-1.2 1.2-1.2h3.6v1.2h-3.3c-0.2 0-0.3 0.1-0.3 0.3v2.7c0 0.2 0.1 0.3 0.3 0.3h0.6v-0.3h-0.6v-1.2h1.8v2.7h-2.1c-0.8 0-1.2-0.4-1.2-1.2v-3.3z"/><path id="XMLID_8_" d="m175.2 175h3.6l-2.4-6.2c-0.1-0.1-0.2-0.2-0.4-0.2s-0.3 0.1-0.4 0.2l-2.7 7.4h-1.2l2.8-7.8c0.3-0.7 0.8-1 1.5-1 0.8 0 1.3 0.3 1.5 1l2.9 7.8h-5.2v-1.2zm0-0.3v-0.7l-0.9 2.2h-1.2l2.6-7.1c0-0.1 0.1-0.2 0.2-0.2s0.2 0.1 0.2 0.2l2.1 5.6h-3zm0.7-2.6-0.6 1.4h1.1l-0.5-1.4z"/></g><g id="g729"><g id="g731"><polygon id="polygon733" points="142.8 160.1 197.2 160.1 197.2 159.7 197.2 155.5 194.2 152.9 135.3 152.9" fill="#f2ba5c"/></g><g id="g735"><path id="path737" d="m145.3 143.3v1.9c0 0.4-0.2 0.6-0.7 0.8s-1.1 0.2-1.9 0.2-1.5-0.1-2-0.2c-0.5-0.2-0.8-0.4-0.8-0.8v-2h2.1v1.9c0 0.1 0.1 0.2 0.2 0.3s0.3 0.1 0.6 0.1c0.2 0 0.4 0 0.6-0.1 0.2 0 0.2-0.1 0.3-0.2v-0.3-1.7h1.6z" fill="#f2ba5c"/></g><g id="g739"><path id="path741" d="m148 145.1v1.1h-1.8v-2.9h2.5c0.6 0 1.1 0 1.4 0.1s0.6 0.2 0.8 0.3 0.3 0.3 0.3 0.5c0 0.3-0.2 0.5-0.6 0.7s-0.9 0.3-1.6 0.3h-1zm0-0.6h0.6c0.5 0 0.8-0.1 0.8-0.3s-0.2-0.3-0.7-0.3h-0.7v0.6z" fill="#f2ba5c"/></g><g id="g743"><path id="path745" d="m156.1 145.5v0.7h-4.4v-2.9h4.4v0.7h-2.7v0.4h2.1v0.7h-2.1v0.5h2.7z" fill="#f2ba5c"/></g><g id="g747"><path id="path749" d="m161.5 146.2h-2l-0.8-1.1h-0.6v1.1h-1.8v-2.9h3c0.7 0 1.2 0.1 1.5 0.2 0.4 0.2 0.6 0.4 0.6 0.6s-0.1 0.3-0.2 0.4-0.4 0.2-0.8 0.3l1.1 1.4zm-3.3-1.7h0.8c0.2 0 0.4 0 0.5-0.1 0.1 0 0.2-0.1 0.2-0.2 0-0.2-0.2-0.3-0.7-0.3h-0.8v0.6z" fill="#f2ba5c"/></g><g id="g751"><path id="path753" d="m136.7 146.3c-0.5 0-0.9 0-1.2-0.1s-0.6-0.1-0.9-0.2c-0.2-0.1-0.4-0.2-0.5-0.3s-0.2-0.3-0.2-0.4h1.2c0 0.1 0.1 0.2 0.2 0.3s0.2 0.1 0.4 0.2c0.1 0 0.3 0.1 0.5 0.1h0.6 0.5c0.2 0 0.3 0 0.4-0.1 0.1 0 0.2-0.1 0.3-0.1s0.1-0.1 0.1-0.2 0-0.1-0.1-0.2c-0.1 0-0.2-0.1-0.3-0.1s-0.3-0.1-0.5-0.1-0.5-0.1-0.8-0.1c-0.4 0-0.7-0.1-1-0.1s-0.5-0.1-0.7-0.2-0.3-0.1-0.4-0.2-0.1-0.2-0.1-0.3 0.1-0.2 0.2-0.3 0.3-0.2 0.5-0.3 0.5-0.1 0.7-0.2c0.3 0 0.6-0.1 1-0.1s0.7 0 1 0.1 0.6 0.1 0.8 0.2 0.4 0.2 0.5 0.3 0.2 0.3 0.2 0.4h-1.2c-0.1-0.3-0.5-0.5-1.3-0.5-0.4 0-0.7 0-0.9 0.1s-0.3 0.1-0.3 0.2c0 0 0 0.1 0.1 0.1s0.1 0.1 0.2 0.1 0.2 0.1 0.4 0.1 0.3 0 0.6 0.1c0.2 0 0.4 0 0.6 0.1 0.2 0 0.4 0 0.6 0.1 0.2 0 0.4 0.1 0.5 0.1 0.2 0 0.3 0.1 0.5 0.2 0.1 0.1 0.2 0.1 0.3 0.2s0.1 0.2 0.1 0.3-0.1 0.3-0.2 0.4-0.3 0.2-0.5 0.3-0.5 0.1-0.8 0.2c-0.5-0.2-0.8-0.1-1.1-0.1z" fill="#f2ba5c"/></g><path id="path755" d="m150.4 158.9v-2.2l0.3-0.1c3.4-1.2 8.8-4.3 9-5.2 0-0.1 0-0.3-0.1-0.4-0.2-0.3-0.7-0.5-1.1-0.5-0.6 0-1.1 0.4-1.2 0.9v0.3h-0.4-6.6l0.2-0.6c0.7-2.6 3.9-4.3 8.3-4.3 4.9 0 8.3 1.8 8.3 4.3 0 1.8-1.8 3.3-5.5 4.4h5.2v3.5h-16.4z" fill="#f2ba5c"/><path id="path757" d="m160.2 151.5c0.2-0.8-0.7-1.5-1.7-1.5-0.8 0-1.5 0.5-1.6 1.2h-6c0.6-2.2 3.5-3.9 7.9-3.9 4.3 0 7.9 1.5 7.9 3.8 0 2-2.9 3.4-6.4 4.3v0.6h6.1v2.5h-15.4v-1.5c2.6-1 8.8-4.2 9.2-5.5z" fill="#2f3134"/><path id="path759" d="m141.5 159.4c-2.1 0-6-0.3-7.7-2-0.6-0.6-0.9-1.3-0.9-2.1v-0.5h0.5 6 0.4l0.1 0.4c0.1 0.4 0.7 0.8 1.5 0.8 1 0 1.8-0.4 1.8-0.8s-0.7-0.8-1.8-0.8h-0.1-0.3l-0.5 0.1v-3.1l0.7 0.1h0.2c0.8 0 1.4-0.4 1.4-0.7s-0.6-0.7-1.4-0.7c-0.7 0-1.3 0.3-1.4 0.7v0.2h-0.4-5.9v-0.5c0-1 0.9-2.1 2.4-2.7 1.4-0.6 3.3-1 5.7-1 4 0 8 1.1 8 3.2 0 0.9-0.8 1.8-2 2.4 1.8 0.6 2.5 1.9 2.5 2.9-0.2 2.3-4 4.1-8.8 4.1z" fill="#f2ba5c"/><path id="XMLID_5_" d="m133.4 155.4h6c0.1 0.7 1 1.2 2 1.2 1.2 0 2.2-0.6 2.2-1.3s-1-1.3-2.2-1.3h-0.4v-1.1-1h0.4c1 0 1.9-0.5 1.9-1.2s-0.8-1.2-1.9-1.2c-0.9 0-1.7 0.5-1.8 1.1h-5.5c0-0.7 0.8-1.7 2.1-2.3 1.4-0.7 3.4-0.9 5.5-0.9 4.2 0 7.5 1.2 7.5 2.8 0 0.9-1.2 1.8-3.2 2.3v0.5c2.5 0.3 3.6 1.3 3.6 2.5 0 2-3.6 3.6-8.1 3.6s-8.1-1.2-8.1-3.7" fill="#2f3134"/><path id="path762" d="m196.2 159.7h-18.1l-0.1-0.1-17.1-16.6h18.7l16.8 16.3-0.2 0.2v0.2zm-17.9-0.4h17.3l-16.2-15.8h-17.3l16.2 15.8z" fill="#f2ba5c"/><polyline id="polyline764" points="196.2 159.5 178.2 159.5 161.5 143.3 179.5 143.3 179.5 143.3 196.2 159.5" fill="#f2ba5c"/><polyline id="polyline766" points="196.2 159.5 178.2 159.5 161.5 143.3 179.5 143.3 196.2 159.5" fill="#2f3134"/><g id="g768"><polygon id="polygon770" points="179.9 147 182.3 144.8 192.4 144.8 185 151.7 192.8 158.9 182.6 158.9 180 156.5 177.4 158.9 167.2 158.9 174.8 151.8 167.2 144.8 177.4 144.8" fill="#f2ba5c"/><g id="g772"><path id="path774" d="m175.5 151.8-7.1-6.5h8.8l2.7 2.4 2.6-2.4h8.7l-6.9 6.5 7.3 6.7h-8.8l-2.9-2.6-2.8 2.6h-8.7l7.1-6.7z" fill="#2f3134"/></g></g></g></g><g id="g4109" transform="matrix(1.259 0 0 1.259 727.99 221.36)"><path id="path4111" d="m109.2 0h92.7c9.1 0 16.5 7.4 16.5 16.5v119.1c0 6.4-5.3 11.7-11.7 11.7h-97.5-97.5c-6.4 0-11.7-5.3-11.7-11.7v-119.1c0-9.1 7.4-16.5 16.5-16.5h92.7" fill="#2c2c2d"/><g id="g4113" fill="#121115"><path id="path4115" d="m0 15.8v122.4c0 0.6 0.5 1 1.1 1 6.7-0.8 12.2-2.6 16.2-4.4 1.8-0.8 3.4-2 4.5-3.7 1.5-2.2 2.2-4.9 1.8-7.5l-13.1-96.7c-0.4-2.8-2.8-5.9-5.1-7.6l-5.4-3.5"/><path id="path4117" d="m218.3 15.8v122.4c0 0.6-0.5 1-1.1 1-6.7-0.8-12.2-2.6-16.2-4.4-1.8-0.8-3.4-2-4.5-3.7-1.5-2.2-2.2-4.9-1.8-7.5l13.1-96.7c0.4-2.8 2.8-5.9 5.1-7.6l5.4-3.5"/></g><path id="path4119" d="m109.2 125.1c17 0.2 53.5-4.8 53.5-4.8 25.7-3.5 27.4-13 28.6-34.7l4.3-73.6c0-6.6-5.4-12-12-12h-74.5-74.4c-6.6 0-12 5.4-12 12l4.3 73.6c1.3 21.7 2.9 31.2 28.6 34.7 0 0 36.6 5 53.6 4.8z" fill="#121115"/><path id="path4121" d="m109.1 17.8h67.9c2.9 0 5.3 2.4 5.3 5.3v71.7c0 6.8-5.5 12.3-12.3 12.3h-60.8 0.1-60.9c-6.8 0-12.3-5.5-12.3-12.3v-71.8c0-2.9 2.4-5.3 5.3-5.3h67.7" fill="#232122"/><path id="path4123" d="m55.6 18.5v89-0.3h-7.2c-6.8 0-12.3-5.5-12.3-12.3v-71.6c0-2.9 2.4-5.3 5.3-5.3h14.2" fill="#fbe627"/><g id="g4125" fill="#121115"><path id="path4127" d="m55.9 147.3c-0.9 0-1.6-0.7-1.6-1.6v-10.4c0-0.9 0.7-1.6 1.6-1.6s1.6 0.7 1.6 1.6v10.4c0 0.9-0.7 1.6-1.6 1.6z"/><path id="path4129" d="m77.2 147.3c-0.9 0-1.6-0.7-1.6-1.6v-10.4c0-0.9 0.7-1.6 1.6-1.6s1.6 0.7 1.6 1.6v10.4c-0.1 0.9-0.8 1.6-1.6 1.6z"/><path id="path4131" d="m98.7 147.3c-0.9 0-1.6-0.7-1.6-1.6v-10.4c0-0.9 0.7-1.6 1.6-1.6s1.6 0.7 1.6 1.6v10.4c-0.1 0.9-0.8 1.6-1.6 1.6z"/><path id="path4133" d="m119.9 147.3c-0.9 0-1.6-0.7-1.6-1.6v-10.4c0-0.9 0.7-1.6 1.6-1.6s1.6 0.7 1.6 1.6v10.4c0 0.9-0.7 1.6-1.6 1.6z"/><path id="path4135" d="m141.2 147.3c-0.9 0-1.6-0.7-1.6-1.6v-10.4c0-0.9 0.7-1.6 1.6-1.6s1.6 0.7 1.6 1.6v10.4c-0.1 0.9-0.8 1.6-1.6 1.6z"/><path id="path4137" d="m162.4 147.3c-0.9 0-1.6-0.7-1.6-1.6v-10.4c0-0.9 0.7-1.6 1.6-1.6s1.6 0.7 1.6 1.6v10.4c0 0.9-0.7 1.6-1.6 1.6z"/></g><g id="g4139"><g id="g4141"><polygon id="polygon4143" points="47 36.4 47 89.7 53.5 82.9 53.5 33.7 53.1 33.7 49.3 33.7"/></g><g id="g4145"><path id="path4147" d="m38.2 80.7h1.8c0.3 0 0.6 0.2 0.7 0.7 0.1 0.4 0.2 1 0.2 1.7 0 0.8-0.1 1.4-0.2 1.8-0.1 0.5-0.4 0.7-0.7 0.7h-1.8v-1.9h1.8c0.1 0 0.2-0.1 0.3-0.2s0.1-0.3 0.1-0.6c0-0.2 0-0.4-0.1-0.5 0-0.1-0.1-0.2-0.1-0.3h-0.3-1.6v-1.4z"/></g><g id="g4149"><path id="path4151" d="m39.9 78.2h1v1.7h-2.7v-2.3c0-0.6 0-1 0.1-1.3s0.2-0.5 0.3-0.7 0.3-0.3 0.5-0.3c0.3 0 0.5 0.2 0.6 0.5 0.2 0.4 0.2 0.8 0.2 1.4v1zm-0.5 0v-0.5c0-0.5-0.1-0.7-0.3-0.7s-0.2 0.2-0.2 0.7v0.6h0.5z"/></g><g id="g4153"><path id="path4155" d="m40.3 70.9h0.6v4h-2.7v-4h0.6v2.4h0.4v-1.9h0.6v1.9h0.4v-2.4z"/></g><g id="g4157"><path id="path4159" d="m40.9 66v1.8l-1 0.8v0.4h1v1.6h-2.7v-2.7c0-0.6 0.1-1.1 0.2-1.4s0.3-0.5 0.6-0.5c0.2 0 0.3 0.1 0.4 0.2s0.2 0.4 0.3 0.7l1.2-0.9zm-1.6 3v-0.7c0-0.2 0-0.4-0.1-0.5 0-0.1-0.1-0.2-0.2-0.2-0.2 0-0.3 0.2-0.3 0.6v0.8h0.6z"/></g><g id="g4161"><path id="path4163" d="m41 88.5c0 0.4 0 0.8-0.1 1.1s-0.1 0.6-0.2 0.8-0.2 0.4-0.3 0.5c-0.2 0-0.3 0.1-0.4 0.1v-1c0.1 0 0.2-0.1 0.2-0.2 0.1-0.1 0.1-0.2 0.2-0.3 0-0.1 0.1-0.3 0.1-0.4v-0.5-0.5c0-0.1 0-0.3-0.1-0.4 0-0.1-0.1-0.2-0.1-0.2 0-0.1-0.1-0.1-0.1-0.1-0.1 0-0.1 0-0.1 0.1s-0.1 0.1-0.1 0.3c0 0.1-0.1 0.3-0.1 0.5s-0.1 0.4-0.1 0.7-0.1 0.6-0.1 0.9c0 0.2-0.1 0.4-0.2 0.6s-0.1 0.3-0.2 0.3c-0.1 0.1-0.2 0.1-0.3 0.1s-0.2-0.1-0.3-0.2-0.2-0.2-0.2-0.4c-0.1-0.2-0.1-0.4-0.2-0.7 0-0.3-0.1-0.6-0.1-0.9s0-0.6 0.1-0.9c0-0.3 0.1-0.5 0.2-0.7s0.2-0.4 0.3-0.5 0.2-0.2 0.4-0.2v1c-0.3 0.1-0.4 0.5-0.4 1.2 0 0.4 0 0.6 0.1 0.8s0.1 0.3 0.2 0.3c0 0 0.1 0 0.1-0.1 0 0 0.1-0.1 0.1-0.2s0-0.2 0.1-0.3c0-0.1 0-0.3 0.1-0.5 0-0.2 0-0.4 0.1-0.5 0-0.2 0-0.4 0.1-0.5 0-0.2 0.1-0.3 0.1-0.5s0.1-0.3 0.1-0.4c0.1-0.1 0.1-0.2 0.2-0.3s0.2-0.1 0.3-0.1 0.2 0.1 0.3 0.2 0.2 0.3 0.3 0.5 0.1 0.4 0.2 0.7c-0.3 0.2-0.2 0.5-0.2 0.8z"/></g><g id="g4165"><g id="g4167"><path id="path4169" d="m45.3 38.1v0.5h1.2v0.3h-1.2v0.5h-0.3v-1.2h0.3z"/><path id="path4171" d="m46.5 36.4v0.3h-0.9l0.9 0.3v0.2l-0.9 0.3h0.9v0.3h-1.5v-0.4l1-0.4-1-0.4v-0.4h1.5z"/></g></g><path id="path4173" d="m52.4 76h-2l-0.1-0.3c-1.1-3-3.9-8-4.7-8.2-0.1 0-0.3 0-0.4 0.1-0.3 0.2-0.4 0.6-0.4 1 0 0.5 0.3 1 0.8 1.1h0.3v0.4 6l-0.7-0.1c-2.4-0.6-3.9-3.6-3.9-7.5 0-4.4 1.6-7.5 3.9-7.5 1.6 0 2.9 1.6 4 5v-4.7h3.1v14.7z"/><path id="path4175" d="m45.7 67.2c-0.7-0.2-1.4 0.7-1.4 1.5 0 0.7 0.5 1.3 1.1 1.5v5.5c-2-0.5-3.6-3.2-3.6-7.1s1.4-7.1 3.4-7.1c1.8 0 3.1 2.6 3.9 5.8h0.5v-5.6h2.4v14h-1.3c-1-2.5-3.8-8.2-5-8.5z" fill="#fff"/><path id="path4177" d="m52.9 84.1c0 1.9-0.2 5.4-1.8 7-0.5 0.5-1.2 0.8-1.9 0.8h-0.4v-0.4-5.5-0.4l0.3-0.1c0.3-0.1 0.7-0.6 0.7-1.4 0-0.9-0.4-1.6-0.8-1.6s-0.8 0.7-0.8 1.6v0.1 0.2l0.1 0.5h-2.8l0.1-0.6v-0.2c0-0.7-0.4-1.2-0.7-1.2s-0.7 0.5-0.7 1.2 0.3 1.2 0.6 1.2l0.3 0.1v0.4 5.4h-0.4c-0.9 0-1.9-0.9-2.5-2.1s-0.9-3-0.9-5.2c0-3.6 1-7.2 2.9-7.2 0.8 0 1.6 0.7 2.2 1.8 0.6-1.6 1.7-2.2 2.6-2.2 2.3 0 3.9 3.4 3.9 7.8z"/><path id="XMLID_2_-5" d="m49.2 91.4v-5.4c0.6-0.1 1-0.9 1-1.8 0-1.1-0.5-2-1.2-2s-1.2 0.9-1.2 2v0.3h-1-0.8v-0.3c0-0.9-0.5-1.7-1.1-1.7s-1.1 0.7-1.1 1.7c0 0.9 0.4 1.6 1 1.7v5c-0.7 0-1.5-0.7-2.1-1.9-0.6-1.3-0.8-3-0.8-5 0-3.8 1.1-6.8 2.5-6.8 0.9 0 1.6 1.1 2.1 2.9h0.4c0.3-2.2 1.1-3.3 2.3-3.3 1.8 0 3.3 3.3 3.3 7.3s-1 7.3-3.3 7.3" fill="#fff"/><polyline id="polyline4180" points="52.9 34.6 52.9 50.9 38.2 66 38.2 49.7 38.3 49.7 52.9 34.6" fill="#1d46a5"/><g id="g4182"><polygon id="polygon4184" points="52.4 37.6 52.4 46.9 50.2 49.3 52.4 51.7 52.4 60.8 45.9 53.9 39.6 60.8 39.6 51.6 41.7 49.4 39.6 47.2 39.6 38.1 45.9 44.7"/><g id="g4186"><path id="path4188" d="m45.9 53.3-5.9 6.4v-8l2.2-2.4-2.1-2.3v-7.9l5.9 6.2 6.1-6.6v8l-2.4 2.6 2.4 2.5v7.9l-6.2-6.4z" fill="#fff"/></g></g></g></g></svg>
