<?xml version="1.0" encoding="UTF-8"?>
<!-- Generator: Adobe Illustrator 19.0.0, SVG Export Plug-In . SVG Version: 6.00 Build 0)  -->
<svg id="Layer_1" width="835.07" height="311.88" version="1.1" viewBox="0 0 835.07 311.88" xml:space="preserve" xmlns="http://www.w3.org/2000/svg" xmlns:cc="http://creativecommons.org/ns#" xmlns:dc="http://purl.org/dc/elements/1.1/" xmlns:rdf="http://www.w3.org/1999/02/22-rdf-syntax-ns#"><metadata id="metadata388"><rdf:RDF><cc:Work rdf:about=""><dc:format>image/svg+xml</dc:format><dc:type rdf:resource="http://purl.org/dc/dcmitype/StillImage"/><dc:title/></cc:Work></rdf:RDF></metadata><path id="path3" d="m427.6 413.08" fill="#181515"/><g id="g5" transform="scale(.90927)"><g id="g7" fill="#282424"><rect id="rect9" x="327.7" width="65.8" height="343"/><rect id="rect11" x="393.5" y="335.2" width="30.4" height="7.8"/></g><g id="g13"><path id="path15" d="m24.7 0h10.1v1.9h287.4v-1.9h8.7 1.4c22.4 0.9 24.7 20.4 24.7 20.4v286.8s0.6 5.7-2.1 8.5c-5.2 5.4-23.2 23.3-27.2 27.3h-301.6s-21.3-20.6-23.5-21.6c-1.5-2-2.6-5.4-2.6-13.7v-287.4s2.4-19.3 24.7-20.3z" fill="#312f2f"/><path id="XMLID_748_" d="m327.9 342.3c-0.1 0.3-0.1 0.5-0.2 0.6h-299.6s-8.2-138.1 41.8-144.9c9.2-1.1 20.8 1.3 46.9 7.6 26.2 6.2 95.9 6.2 122.1 0s37.6-7.6 46.9-7.6c17.3 0 28 16.9 34.5 39.2 11.7 40.1 9.6 97.6 7.6 105.1z" fill="#3f3f3f"/><path id="XMLID_746_" d="m178.6 215.1c-35.4 0-42.4-1.7-48.5-2.5-6-0.8-4.2 4.7-4.2 4.7s3.1 20.4 3.5 28.1 8.7 6.7 8.7 6.7h81s8.3 1.1 8.7-6.7 3.5-28.1 3.5-28.1 1.8-5.5-4.2-4.7c-6.1 0.8-13.2 2.5-48.5 2.5z" fill="#181515"/><ellipse id="XMLID_745_" cx="178.6" cy="106" rx="152.1" ry="87.4" fill="#30302f"/><ellipse id="XMLID_744_" cx="178.6" cy="105.8" rx="150.5" ry="85.7" fill="#181515"/><ellipse id="XMLID_743_" cx="178.6" cy="103.8" rx="123.7" ry="69.5" fill="#2c2929"/><polygon id="XMLID_742_" points="186.3 140.3 178.4 132.3 170.8 140.3" fill="#241c1e"/><g id="SEGA_1_" fill="#eff8fb"><path id="XMLID_724_" d="m202.3 239h-7.6v-1.8h5.2c-0.4-1.1-0.7-2.1-1-3-0.8-2.3-1.5-4.7-2.3-7-0.2-0.6-0.7-1.2-1.2-1.4-0.8-0.2-1.1 0.7-1.3 1.4-1.2 3.6-2.3 7.1-3.5 10.7-0.3 0.8-0.6 1.1-1.5 1.1-2.3-0.1-4.7 0-7 0-2.4 0-3.9-1.6-3.9-4 0-2.2-0.1-4.4 0-6.6 0.1-2.5 1.5-4 3.9-4h6.4v1.9h-5.4c-2.5 0-3.1 0.6-3.1 3.3v5c0 1.8 0.8 2.6 2.5 2.7h4.1v-5.8h-3.4v-1.8h5.4v7.6h0.3c1.1-3.5 2.3-7 3.4-10.5 0.6-2 1.8-2.8 3.8-2.5 1.1 0.2 1.9 0.8 2.2 1.8 1.4 4.2 2.7 8.4 4.1 12.6 0 0.1-0.1 0.2-0.1 0.3z"/><path id="XMLID_723_" d="m154.8 239v-1.8h6c1.7 0 2.9-1.2 3-2.8 0.1-1.5-1.2-2.9-2.8-3-0.7 0-1.3 0-2-0.1-1-0.1-1.8-1.1-1.8-2.2s0.7-2.1 1.8-2.1c2.2-0.1 4.3 0 6.6 0v1.8h-3.3-3.1v0.6c0.6 0 1.2 0.1 1.8 0.1 2.3 0.1 3.9 1.4 4.5 3.7 0.7 2.8-1.3 5.7-4 5.8-2.2 0.1-4.3 0-6.7 0z"/><path id="XMLID_722_" d="m154.8 236.5v-1.9h6.4v-0.5c-0.7 0-1.3-0.1-2-0.1-1.8 0-3.2-0.9-4-2.6s-0.7-3.4 0.4-5c0.7-1.1 1.8-1.8 3-1.9 2.2-0.1 4.5 0 6.8 0v1.8h-6.1c-2 0-3.3 1.9-2.7 3.8 0.4 1.1 1.4 1.9 2.7 2 0.6 0 1.3 0 1.9 0.1 1 0.1 1.8 1.1 1.8 2.1 0 1.1-0.8 2.1-1.7 2.2h-6.5z"/><path id="XMLID_721_" d="m177.3 224.5v1.8h-6c-2.1 0-2.8 0.7-2.8 2.9v5.2c0 2 0.8 2.8 2.7 2.8h6v1.9h-4.4-2.8c-1.7-0.1-3.2-1.7-3.3-3.5-0.1-2.5-0.1-5.1 0-7.6 0-1.6 1.4-3.3 3-3.4 2.5-0.2 5-0.1 7.6-0.1z"/><path id="XMLID_718_" d="m190.9 238.9c1.3-4 2.5-7.9 3.8-11.7 0.1-0.3 0.4-0.6 0.6-0.7 0.1-0.1 0.5 0.3 0.6 0.5 1 3.1 2.1 6.2 3.1 9.4h-4.3c0-0.5-0.1-0.9-0.1-1.3-0.1 0-0.1 0-0.2-0.1-0.2 0.7-0.5 1.4-0.7 2.2-0.7 2-0.7 2-2.8 1.7zm3.7-4.5h1.5c-0.2-0.7-0.4-1.4-0.6-2h-0.3c-0.1 0.6-0.3 1.2-0.6 2z"/><path id="XMLID_717_" d="m184.5 234.2c-0.6-0.2-0.9-0.3-1.3-0.4v-1.6h2.8v4.3c-1.4 0-2.9 0.1-4.3-0.1-0.4 0-0.9-0.7-1-1.2-0.1-2.3-0.1-4.6 0-6.9 0-0.8 0.5-1.3 1.3-1.3h6.5v1.8h-4.8c-1 0-1.3 0.3-1.3 1.3 0.1 1.1 0 2.2 0 3.2 0.1 1.4 0.7 1.7 2.1 0.9z"/><path id="XMLID_359_" d="m171.1 234.5c2 0.4 4 0 6.1 0.2v1.7c-2.4 0-4.7 0.1-7-0.1-0.4 0-0.9-0.8-1-1.3-0.2-0.9 0-1.9 0-3h6.6v1.7h-4.6c0 0.4-0.1 0.6-0.1 0.8z"/><path id="XMLID_358_" d="m177.3 227v1.7c-2 0.3-4.1-0.2-6.1 0.3v0.5h4.6v1.8h-6.5c0-1.1-0.1-2.2 0-3.3 0.1-0.4 0.7-1 1-1h7z"/></g><g id="XMLID_212_" fill="#241c1e"><path id="XMLID_90_" d="m152.6 144.9-1.3 0.1c0-0.9-0.3-1.4-0.9-1.4-0.7 0-1 0.7-1 2.1 0 0.8 0.1 1.4 0.3 1.6 0.2 0.3 0.4 0.4 0.8 0.4 0.5 0 0.8-0.4 1-1.2l1.2 0.1c-0.1 0.8-0.3 1.4-0.7 1.8s-0.9 0.6-1.5 0.6c-0.7 0-1.3-0.3-1.8-0.9-0.4-0.6-0.7-1.4-0.7-2.4s0.2-1.8 0.7-2.4c0.4-0.6 1-0.9 1.8-0.9 1.2 0 1.9 0.8 2.1 2.5z"/><path id="XMLID_87_" d="m155.5 142.5 1.7 6.4h-1.4l-0.3-1.3h-1.8l-0.3 1.3h-1.1l1.7-6.4h1.5zm-1.4 3.9h1.2l-0.6-2.3-0.6 2.3z"/><path id="XMLID_84_" d="m158.8 146.4v2.5h-1.3v-6.4h2.4c0.4 0 0.8 0.1 1.1 0.2s0.5 0.3 0.7 0.7c0.2 0.3 0.3 0.7 0.3 1.1 0 0.8-0.3 1.3-0.9 1.7l1 2.8h-1.4l-0.8-2.5h-1.1zm0-2.7v1.6h0.8c0.3 0 0.4 0 0.6-0.1 0.1 0 0.2-0.1 0.3-0.3 0.1-0.1 0.1-0.3 0.1-0.5s0-0.3-0.1-0.5-0.2-0.2-0.3-0.3h-0.6-0.8z"/><path id="XMLID_82_" d="m166.1 142.5v1.3h-1.3v5.2h-1.3v-5.2h-1.4v-1.3h4z"/><path id="XMLID_79_" d="m167.8 146.4v2.5h-1.3v-6.4h2.4c0.4 0 0.8 0.1 1.1 0.2s0.5 0.3 0.7 0.7c0.2 0.3 0.3 0.7 0.3 1.1 0 0.8-0.3 1.3-0.9 1.7l1 2.8h-1.4l-0.8-2.5h-1.1zm0-2.7v1.6h0.8c0.3 0 0.4 0 0.6-0.1 0.1 0 0.2-0.1 0.3-0.3 0.1-0.1 0.1-0.3 0.1-0.5s0-0.3-0.1-0.5l-0.3-0.3h-0.6-0.8z"/><path id="XMLID_77_" d="m172.5 142.5v6.4h-1.3v-6.4h1.3z"/><path id="XMLID_18_" d="m172.9 142.5h1.7c0.7 0 1.2 0.1 1.5 0.3s0.6 0.6 0.9 1.1 0.4 1.1 0.4 1.8c0 0.9-0.2 1.7-0.7 2.3s-1.1 0.9-1.9 0.9h-1.9v-6.4zm1.3 1.2v4h0.5c0.5 0 0.8-0.2 1-0.6s0.3-0.9 0.3-1.4c0-0.4-0.1-0.7-0.2-1.1-0.1-0.3-0.3-0.6-0.5-0.7s-0.4-0.2-0.7-0.2h-0.4z"/><path id="XMLID_16_" d="m182.1 145.5s0 2-0.7 2.8c-0.7 0.7-0.9 0.8-1.5 0.8-0.7 0-1.3-0.3-1.7-0.9s-0.6-1.4-0.6-2.3c0-1 0.2-1.8 0.6-2.5 0.4-0.6 1-0.9 1.7-0.9 0.6 0 1.1 0.2 1.5 0.6s0.6 0.9 0.7 1.6l-1.2 0.2c-0.1-0.8-0.4-1.2-0.9-1.2-0.3 0-0.6 0.2-0.8 0.6s-0.3 0.9-0.3 1.6 0.1 1.2 0.3 1.5 0.5 0.5 0.8 0.5c0.2 0 0.4-0.1 0.6-0.3s0.3-0.5 0.3-0.8h-1v-1.2h2.2z"/><path id="XMLID_14_" d="m186.3 143.7h-2.6v1.3h2v1.2h-2v1.4h2.6v1.3h-3.9v-6.4h3.9v1.2z"/><path id="XMLID_12_" d="m191.3 142.5v6.4h-1.3v-6.4h1.3z"/><path id="XMLID_10_" d="m195.8 142.5v6.4h-1.1l-2.1-4.3v0.2 0.3 3.8h-1v-6.4h1.4l1.8 3.8v-0.4-3.4h1z"/><path id="XMLID_7_" d="m197.3 146.6v2.4h-1.3v-6.4h2.1c0.5 0 0.8 0.1 1.1 0.2s0.5 0.3 0.7 0.6 0.3 0.7 0.3 1.1c0 0.3-0.1 0.6-0.2 0.9s-0.3 0.5-0.4 0.7c-0.2 0.2-0.4 0.3-0.6 0.3-0.2 0.1-0.5 0.1-0.9 0.1h-0.8zm0-1.2h0.8c0.3 0 0.5-0.1 0.7-0.3s0.2-0.4 0.2-0.6c0-0.3-0.1-0.5-0.2-0.6-0.1-0.2-0.4-0.2-0.6-0.2h-0.8v1.7z"/><path id="XMLID_5_" d="m204.8 142.5v4c0 0.6-0.1 1.1-0.2 1.4s-0.4 0.6-0.7 0.8-0.8 0.3-1.3 0.3-0.9-0.1-1.2-0.3-0.5-0.4-0.7-0.8-0.2-0.8-0.2-1.5v-4h1.4v4c0 0.3 0 0.6 0.1 0.8 0 0.2 0.1 0.3 0.3 0.4s0.3 0.1 0.5 0.1 0.4 0 0.6-0.1 0.2-0.2 0.3-0.4c0-0.2 0.1-0.4 0.1-0.8v-4h1z"/><path id="XMLID_3_" d="m209.1 142.5v1.3h-1.3v5.2h-1.3v-5.2h-1.4v-1.3h4z"/></g><g id="g47"><path id="path49" d="m272.3 122.3h-187.5c-10.3 0-18.8-8.5-18.8-18.8v-2.5c0-10.3 8.5-18.8 18.8-18.8h187.4c10.3 0 18.8 8.5 18.8 18.8v2.5c0.1 10.3-8.4 18.8-18.7 18.8z" fill="#181515"/><path id="path51" d="m178.2 117.8h88.8c5.9 0 10.8-4.6 10.8-20.3h-10.8v-8.1h0.4-88.8-88.8 0.4v8.1h-10.8c0 15.6 4.8 20.3 10.8 20.3h88.8"/><path id="path53" d="m178.2 116.7h87.9c5.9 0 10.7-4.3 10.7-18.8h-10.7v-7.5h0.4-87.9-88 0.4v7.6h-10.7c0 14.5 4.8 18.8 10.7 18.8h87.9" fill="#282424"/><rect id="rect55" x="80.9" y="104.9" width="195.4" height="1" fill="#010102"/><g id="g57"><g id="g59"><path id="path61" d="m103.7 93.3h-1.9c0-0.4 0.4-0.8 0.9-0.8s1 0.4 1 0.8z" fill="#363636"/><path id="path63" d="m103.7 101.8h-1.9c0 0.4 0.4 0.8 0.9 0.8s1-0.3 1-0.8z" fill="#464646"/><rect id="rect65" x="101.8" y="93.3" width="1.9" height="8.6" fill="#424141"/></g><g id="g67"><path id="path69" d="m103.7 108.2h-1.9c0-0.3 0.4-0.6 0.9-0.6s1 0.2 1 0.6z" fill="#363636"/><path id="path71" d="m103.7 115.1h-1.9c0 0.3 0.4 0.6 0.9 0.6s1-0.3 1-0.6z" fill="#464646"/><rect id="rect73" x="101.8" y="108.2" width="1.9" height="6.9" fill="#424141"/></g><g id="g75"><path id="path77" d="m253.4 93.3h1.9c0-0.4-0.4-0.8-0.9-0.8s-1 0.4-1 0.8z" fill="#363636"/><path id="path79" d="m253.4 101.8h1.9c0 0.4-0.4 0.8-0.9 0.8s-1-0.3-1-0.8z" fill="#464646"/><rect id="rect81" x="253.4" y="93.3" width="1.9" height="8.6" fill="#424141"/></g><g id="g83"><path id="path85" d="m253.4 108.2h1.9c0-0.3-0.4-0.6-0.9-0.6s-1 0.2-1 0.6z" fill="#363636"/><path id="path87" d="m253.4 115.1h1.9c0 0.3-0.4 0.6-0.9 0.6s-1-0.3-1-0.6z" fill="#464646"/><rect id="rect89" x="253.4" y="108.2" width="1.9" height="6.9" fill="#424141"/></g></g></g><path id="XMLID_250_" d="m43.5 220.3c6.2-12.2 16-18.4 27.5-20 9.2-1.1 22.7 3.9 48.9 10.1 13.1 3.1 33.9 4.7 58 4.6 24.1 0 44.9-1.5 58-4.6 26.2-6.2 39.6-11.2 48.9-10.1 11.5 1.6 22.5 7.4 28.6 19.6-6.5-13.2-15.5-21.9-28-21.9-9.3 0-20.8 1.3-46.9 7.6-13 3.1-36.8 4.7-60.6 4.7-24.1 0-48.3-1.5-61.4-4.7-26.2-6.2-37.7-8.7-46.9-7.6-11.5 1.6-19.9 10.1-26.1 22.3z" fill="#181515"/><g id="g92"><path id="XMLID_350_" d="m286.3 277.2c0 13.2-15.2 15.5-15.2 15.5h-92.5-92.5c-2.7 0-15.2-2.2-15.2-15.5 0-13.2 15.2-15.5 15.2-15.5h92.5 92.5s15.2 2.3 15.2 15.5z" fill="#3f4040"/><path id="XMLID_349_" d="m274 289.1h-190.6c-4.8 0-8.8-3.9-8.8-8.8v-6.1c0-4.8 3.9-8.8 8.8-8.8h190.6c4.8 0 8.8 3.9 8.8 8.8v6.1c0 4.9-3.9 8.8-8.8 8.8z" fill="#333"/><path id="voyant_6_" d="m174.3 284h-2.6c-0.3 0-0.6-0.3-0.6-0.6v-11.5c0-0.3 0.3-0.6 0.6-0.6h2.6c0.3 0 0.6 0.3 0.6 0.6v11.5c0 0.3-0.3 0.6-0.6 0.6z" fill="#631418"/><path id="voyant_5_" d="m179.8 284h-2.6c-0.3 0-0.6-0.3-0.6-0.6v-11.5c0-0.3 0.3-0.6 0.6-0.6h2.6c0.3 0 0.6 0.3 0.6 0.6v11.5c0.1 0.3-0.2 0.6-0.6 0.6z" fill="#631418"/><path id="voyant_4_" d="m185.4 284h-2.6c-0.3 0-0.6-0.3-0.6-0.6v-11.5c0-0.3 0.3-0.6 0.6-0.6h2.6c0.3 0 0.6 0.3 0.6 0.6v11.5c0 0.3-0.3 0.6-0.6 0.6z" fill="#631418"/><path id="bouton_8_" d="m271.8 285.4h-35.7c-3.4 0-6.1-2.7-6.1-6.1v-4.3c0-3.4 2.7-6.1 6.1-6.1h35.7c3.4 0 6.1 2.7 6.1 6.1v4.3c0 3.4-2.8 6.1-6.1 6.1z" fill="#212020"/><path id="bouton_6_" d="m121.7 285.4h-35.7c-3.4 0-6.1-2.7-6.1-6.1v-4.3c0-3.4 2.7-6.1 6.1-6.1h35.7c3.4 0 6.1 2.7 6.1 6.1v4.3c0 3.4-2.7 6.1-6.1 6.1z" fill="#212020"/><path id="bouton_5_" d="m116.3 280.6h-24.3c-1 0-1.8-0.8-1.8-1.8v-3.2c0-1 0.8-1.8 1.8-1.8h24.3c1 0 1.8 0.8 1.8 1.8v3.2c0 1-0.8 1.8-1.8 1.8z" fill="#5c5c5c"/><g id="g102" fill="#241c1e"><path id="path104" d="m93.9 275.3h1.5 0.4c0.1 0 0.3 0 0.4 0.1 0.1 0 0.2 0.1 0.3 0.1 0.1 0.1 0.2 0.1 0.2 0.2 0.1 0.1 0.1 0.2 0.2 0.3 0 0.1 0.1 0.3 0.1 0.4 0 0.4-0.1 0.7-0.4 0.9s-0.6 0.3-1.1 0.3h-0.8v1.5h-0.7v-3.8zm0.7 1.8h0.8 0.3l0.2-0.1c0.1 0 0.1-0.1 0.1-0.2v-0.2c0-0.1 0-0.2-0.1-0.3 0-0.1-0.1-0.1-0.2-0.2-0.1 0-0.2-0.1-0.2-0.1h-0.3-0.8v1.1z"/><path id="path106" d="m99.4 275.2c0.3 0 0.5 0 0.8 0.1s0.4 0.2 0.6 0.4 0.3 0.4 0.4 0.6c0.1 0.3 0.1 0.5 0.1 0.8s0 0.6-0.1 0.8c-0.1 0.3-0.2 0.5-0.4 0.6-0.2 0.2-0.4 0.3-0.6 0.4s-0.5 0.1-0.8 0.1-0.5 0-0.8-0.1c-0.2-0.1-0.4-0.2-0.6-0.4s-0.3-0.4-0.4-0.6c-0.1-0.3-0.1-0.5-0.1-0.8s0-0.6 0.1-0.8c0.1-0.3 0.2-0.5 0.4-0.6 0.2-0.2 0.4-0.3 0.6-0.4 0.3 0 0.6-0.1 0.8-0.1zm0 3.5c0.2 0 0.3 0 0.5-0.1 0.1-0.1 0.3-0.2 0.4-0.3s0.2-0.3 0.2-0.4c0.1-0.2 0.1-0.4 0.1-0.6s0-0.4-0.1-0.6-0.1-0.3-0.2-0.4-0.2-0.2-0.4-0.3c-0.1-0.1-0.3-0.1-0.5-0.1s-0.3 0-0.5 0.1c-0.1 0.1-0.3 0.2-0.4 0.3s-0.2 0.3-0.2 0.4c-0.1 0.2-0.1 0.4-0.1 0.6s0 0.4 0.1 0.6 0.1 0.3 0.2 0.4 0.2 0.2 0.4 0.3c0.2 0 0.4 0.1 0.5 0.1z"/><path id="path108" d="m106.9 275.3-1.1 4h-0.7l-0.8-2.9-0.8 2.9h-0.7l-1.1-4h0.8l0.7 2.7 0.7-2.7h0.8l0.7 2.7 0.7-2.7h0.8z"/><path id="path110" d="m110.5 279.3h-3v-4h2.9v0.7h-2.2v0.9h2.1v0.7h-2.1v1h2.3v0.7z"/><path id="path112" d="m114.7 279.3h-0.8l-0.4-1.1c0-0.1-0.1-0.1-0.1-0.2s-0.1-0.1-0.2-0.2c-0.1 0-0.1-0.1-0.2-0.1h-0.2-0.8v1.6h-0.7v-4h1.8 0.3 0.3c0.1 0 0.2 0 0.3 0.1 0.1 0 0.2 0.1 0.2 0.1l0.2 0.2c0 0.1 0.1 0.1 0.1 0.2s0.1 0.2 0.1 0.2v0.2c0 0.2-0.1 0.4-0.2 0.6s-0.3 0.3-0.5 0.4c0.2 0.1 0.3 0.3 0.4 0.6l0.4 1.4zm-2.7-2.3h1 0.3c0.1 0 0.2 0 0.2-0.1 0.1 0 0.1-0.1 0.1-0.2v-0.2c0-0.2-0.1-0.3-0.2-0.4s-0.3-0.1-0.5-0.1h-0.9v1z"/></g><path id="bouton_7_" d="m266.1 280.6h-24.3c-1 0-1.8-0.8-1.8-1.8v-3.2c0-1 0.8-1.8 1.8-1.8h24.3c1 0 1.8 0.8 1.8 1.8v3.2c0 1-0.8 1.8-1.8 1.8z" fill="#5c5c5c"/><g id="g115" fill="#241c1e"><path id="path117" d="m248.3 279.3h-0.8l-0.4-1.1c0-0.1-0.1-0.1-0.1-0.2s-0.1-0.1-0.2-0.2c-0.1 0-0.1-0.1-0.2-0.1h-0.2-0.8v1.6h-0.7v-4h1.8 0.3 0.3c0.1 0 0.2 0 0.3 0.1 0.1 0 0.2 0.1 0.2 0.1l0.2 0.2c0 0.1 0.1 0.1 0.1 0.2s0.1 0.2 0.1 0.2v0.2c0 0.2-0.1 0.4-0.2 0.6s-0.3 0.3-0.5 0.4c0.2 0.1 0.3 0.3 0.4 0.6l0.4 1.4zm-2.7-2.3h1 0.3c0.1 0 0.2 0 0.2-0.1 0.1 0 0.1-0.1 0.1-0.2v-0.2c0-0.2-0.1-0.3-0.2-0.4s-0.3-0.1-0.5-0.1h-1.1v1z"/><path id="path119" d="m252 279.3h-3v-4h2.9v0.7h-2.2v0.9h2.1v0.7h-2.1v1h2.3v0.7z"/><path id="path121" d="m254.3 279.3c-0.3 0-0.5 0-0.7-0.1s-0.4-0.2-0.5-0.3-0.3-0.3-0.3-0.5c-0.1-0.2-0.1-0.4-0.1-0.6h0.7c0 0.1 0 0.3 0.1 0.4s0.1 0.2 0.2 0.3 0.2 0.1 0.3 0.1h0.4 0.3c0.1 0 0.2-0.1 0.3-0.1s0.1-0.1 0.2-0.2c0-0.1 0.1-0.1 0.1-0.2s0-0.2-0.1-0.2c0-0.1-0.1-0.1-0.2-0.2-0.1 0-0.2-0.1-0.3-0.1s-0.3-0.1-0.5-0.1c-0.2-0.1-0.4-0.1-0.6-0.2s-0.3-0.1-0.4-0.2-0.2-0.2-0.2-0.3c-0.1-0.1-0.1-0.3-0.1-0.4 0-0.2 0-0.3 0.1-0.5 0.1-0.1 0.2-0.3 0.3-0.4s0.3-0.2 0.5-0.2c0.2-0.1 0.4-0.1 0.6-0.1s0.4 0 0.6 0.1 0.3 0.1 0.5 0.3 0.2 0.3 0.3 0.4c0.1 0.2 0.1 0.4 0.1 0.6h-0.9c-0.1-0.4-0.3-0.7-0.8-0.7-0.2 0-0.4 0-0.5 0.1s-0.2 0.2-0.2 0.3v0.1l0.1 0.1c0.1 0 0.1 0.1 0.2 0.1s0.2 0.1 0.3 0.1 0.2 0.1 0.4 0.1c0.1 0 0.2 0.1 0.4 0.1 0.1 0 0.2 0.1 0.3 0.2s0.2 0.1 0.3 0.2 0.1 0.2 0.2 0.3c0 0.1 0.1 0.3 0.1 0.4 0 0.2 0 0.3-0.1 0.5s-0.2 0.3-0.3 0.4-0.3 0.2-0.5 0.3-0.4 0.1-0.6 0.1z"/><path id="path123" d="m259.6 279.3h-3v-4h2.9v0.7h-2.2v0.9h2.1v0.7h-2.1v1h2.3v0.7z"/><path id="path125" d="m263.3 276h-1.2v3.3h-0.7v-3.3h-1.2v-0.7h3.2v0.7z"/></g><path id="voyant_7_" d="m184.7 282.8h-1.2c-0.3 0-0.6-0.3-0.6-0.6v-9.1c0-0.3 0.3-0.6 0.6-0.6h1.2c0.3 0 0.6 0.3 0.6 0.6v9.1c0 0.3-0.3 0.6-0.6 0.6z" fill="#f95d5d"/><path id="voyant_8_" d="m179.2 282.8h-1.2c-0.3 0-0.6-0.3-0.6-0.6v-9.1c0-0.3 0.3-0.6 0.6-0.6h1.2c0.3 0 0.6 0.3 0.6 0.6v9.1c0 0.3-0.3 0.6-0.6 0.6z" fill="#f95d5d"/><path id="voyant_9_" d="m173.6 282.8h-1.2c-0.3 0-0.6-0.3-0.6-0.6v-9.1c0-0.3 0.3-0.6 0.6-0.6h1.2c0.3 0 0.6 0.3 0.6 0.6v9.1c0 0.3-0.3 0.6-0.6 0.6z" fill="#f95d5d"/></g><g id="g130"><g id="polygon9_1_"><path id="path133" d="m235.9 73.1h-114.7l-8.4-4.9v-11l7.9-4.6h115.7l8 4.7v11l-8.5 4.8zm-114.4-1h114.2l7.6-4.5v-9.8l-7.2-4.2h-115.1l-7.2 4.2v9.8l7.7 4.5z" fill="#eff8fb"/></g><g id="g135" fill="#eff8fb"><polygon id="polygon15_1_" points="197 66 204.6 66 204.6 64.3 192.9 64.3 192.9 59.7 197.2 56.7 197.2 56.7 210.1 56.7 205.8 59.6 198.1 59.6 198.1 61.4 209.8 61.4 209.8 66.1 205.6 68.9 192.7 68.9"/><polygon id="polygon17_1_" points="211.4 56.7 211.4 56.7 216.7 56.7 216.7 68.9 211.4 68.9"/><polygon id="polygon19_1_" points="222.8 66 230.4 66 230.4 64.3 218.7 64.3 218.7 59.7 223 56.7 223 56.7 235.9 56.7 231.6 59.6 223.9 59.6 223.9 61.4 235.6 61.4 235.6 66.1 231.4 68.9 218.6 68.9"/><polygon id="polygon21_1_" points="181.5 59.6 189.1 59.6 193.3 56.7 180.8 56.7 176.3 59.6 176.3 59.6 176.3 68.9 189 68.9 193.3 66 181.5 66 181.5 64.3 186.5 64.3 190.8 61.4 181.5 61.4"/><polygon id="polygon23_1_" points="144.8 59.6 152.4 59.6 156.6 56.7 144.2 56.7 139.6 59.6 139.6 59.6 139.6 68.9 152.3 68.9 156.6 66 144.8 66 144.8 64.3 149.8 64.3 154.1 61.4 144.8 61.4"/><polygon id="polygon25_1_" points="163.1 56.7 169.6 60.3 169.6 56.7 169.6 56.7 174.8 56.7 174.8 68.9 169.6 68.9 169.6 64.9 163.1 60.8 163.1 68.9 157.8 68.9 157.8 56.7"/><polygon id="polygon27_1_" points="131.9 61.4 138.2 61.4 138.2 66.2 134.2 68.9 121.2 68.9 121.2 59.7 121.2 59.7 125.6 56.7 139.8 56.7 135.6 59.6 126.5 59.6 126.5 66 133 66 133 64.3 127.7 64.3"/></g></g><g id="g144"><path id="XMLID_747_" d="m322.2 1.9v12s-0.1 1.5-2.1 1.5h-141.6-141.5c-2 0-2.1-1.5-2.1-1.5v-12l143.7 0.1 143.6-0.1z" fill="#444546"/><g id="XMLID_139_" fill="#282424"><rect id="XMLID_211_" x="36.1" width="2.6" height="13.7"/><rect id="XMLID_210_" x="40.1" width="2.6" height="13.7"/><rect id="XMLID_209_" x="44.1" width="2.6" height="13.7"/><rect id="XMLID_208_" x="48.1" width="2.6" height="13.7"/><rect id="XMLID_207_" x="52.1" width="2.6" height="13.7"/><rect id="XMLID_206_" x="56.1" width="2.6" height="13.7"/><rect id="XMLID_205_" x="60.2" width="2.6" height="13.7"/><rect id="XMLID_204_" x="64.2" width="2.6" height="13.7"/><rect id="XMLID_203_" x="68.3" width="2.6" height="13.7"/><rect id="XMLID_202_" x="72.3" width="2.6" height="13.7"/><rect id="XMLID_201_" x="76.4" width="2.6" height="13.7"/><rect id="XMLID_200_" x="80.4" width="2.6" height="13.7"/><rect id="XMLID_199_" x="84.3" width="2.6" height="13.7"/><rect id="XMLID_198_" x="88.3" width="2.6" height="13.7"/><rect id="XMLID_197_" x="92.4" width="2.6" height="13.7"/><rect id="XMLID_196_" x="96.4" width="2.6" height="13.7"/><rect id="XMLID_195_" x="100.5" width="2.6" height="13.7"/><rect id="XMLID_194_" x="104.5" width="2.6" height="13.7"/><rect id="XMLID_193_" x="108.5" width="2.6" height="13.7"/><rect id="XMLID_192_" x="112.5" width="2.6" height="13.7"/><rect id="XMLID_191_" x="116.5" width="2.6" height="13.7"/><rect id="XMLID_190_" x="120.5" width="2.6" height="13.7"/><rect id="XMLID_189_" x="124.6" width="2.6" height="13.7"/><rect id="XMLID_188_" x="128.6" width="2.6" height="13.7"/><rect id="XMLID_187_" x="132.6" width="2.6" height="13.7"/><rect id="XMLID_186_" x="136.6" width="2.6" height="13.7"/><rect id="XMLID_185_" x="140.7" width="2.6" height="13.7"/><rect id="XMLID_184_" x="144.7" width="2.6" height="13.7"/><rect id="XMLID_183_" x="148.6" width="2.6" height="13.7"/><rect id="XMLID_182_" x="152.7" width="2.6" height="13.7"/><rect id="XMLID_181_" x="156.7" width="2.6" height="13.7"/><rect id="XMLID_180_" x="160.7" width="2.6" height="13.7"/><rect id="XMLID_179_" x="165" width="2.6" height="13.7"/><rect id="XMLID_178_" x="169.1" width="2.6" height="13.7"/><rect id="XMLID_177_" x="173.1" width="2.6" height="13.7"/><rect id="XMLID_176_" x="177" width="2.6" height="13.7"/><rect id="XMLID_175_" x="181" width="2.6" height="13.7"/><rect id="XMLID_174_" x="185.1" width="2.6" height="13.7"/><rect id="XMLID_173_" x="189.1" width="2.6" height="13.7"/><rect id="XMLID_172_" x="193.2" width="2.6" height="13.7"/><rect id="XMLID_171_" x="197.2" width="2.6" height="13.7"/><rect id="XMLID_170_" x="201.3" width="2.6" height="13.7"/><rect id="XMLID_169_" x="205.3" width="2.6" height="13.7"/><rect id="XMLID_168_" x="209.2" width="2.6" height="13.7"/><rect id="XMLID_167_" x="213.2" width="2.6" height="13.7"/><rect id="XMLID_166_" x="217.3" width="2.6" height="13.7"/><rect id="XMLID_165_" x="221.3" width="2.6" height="13.7"/><rect id="XMLID_164_" x="225.7" width="2.6" height="13.7"/><rect id="XMLID_163_" x="229.8" width="2.6" height="13.7"/><rect id="XMLID_162_" x="233.8" width="2.6" height="13.7"/><rect id="XMLID_161_" x="237.7" width="2.6" height="13.7"/><rect id="XMLID_160_" x="241.7" width="2.6" height="13.7"/><rect id="XMLID_159_" x="245.8" width="2.6" height="13.7"/><rect id="XMLID_158_" x="249.8" width="2.6" height="13.7"/><rect id="XMLID_157_" x="253.9" width="2.6" height="13.7"/><rect id="XMLID_156_" x="257.9" width="2.6" height="13.7"/><rect id="XMLID_155_" x="262" width="2.6" height="13.7"/><rect id="XMLID_154_" x="266" width="2.6" height="13.7"/><rect id="XMLID_153_" x="269.9" width="2.6" height="13.7"/><rect id="XMLID_152_" x="273.9" width="2.6" height="13.7"/><rect id="XMLID_151_" x="278" width="2.6" height="13.7"/><rect id="XMLID_150_" x="282" width="2.6" height="13.7"/><rect id="XMLID_149_" x="286.2" width="2.6" height="13.7"/><rect id="XMLID_148_" x="290.3" width="2.6" height="13.7"/><rect id="XMLID_146_" x="294.3" width="2.6" height="13.7"/><rect id="XMLID_145_" x="298.2" width="2.6" height="13.7"/><rect id="XMLID_144_" x="302.2" width="2.6" height="13.7"/><rect id="XMLID_143_" x="306.3" width="2.6" height="13.7"/><rect id="XMLID_142_" x="310.3" width="2.6" height="13.7"/><rect id="XMLID_141_" x="314.4" width="2.6" height="13.7"/><rect id="XMLID_140_" x="318.4" width="2.6" height="13.7"/></g></g></g><g id="g219"><path id="path221" d="m364.5 309.1v-294.9c0-7.8 5.5-14.2 12.1-14.2h17v1.9h223.8v-1.9h17.9c6.6 0 12.1 6.4 12.1 14.2v202.8c0 69.3-48.2 126-107 126h-118.2c-18 0-35.4-9.5-46.7-22.1" fill="#3f3f3f"/><path id="path223" d="m540.3 291h-118.7c-9.5 0-19 1.5-28.1 4.4l-29 13.7v-297.1c0-6.6 5.4-12 12.1-12h17v1.9l223.8 0.4v-2.3h17.9c6.6 0 12.1 5.4 12.1 12v172.1c-0.1 58.8-48.2 106.9-107.1 106.9z" fill="#312f2f"/><g id="g225"><path id="path227" d="m526.4 277.4h-85.2c-31.6 0-57.4-25.7-57.4-57.3v-153.5c0-14.5 11.8-26.3 26.3-26.3h196.8c14.5 0 26.3 11.8 26.3 26.3v104.1c0 58.9-47.9 106.7-106.8 106.7zm-116.3-236.1c-14 0-25.3 11.3-25.3 25.3v153.5c0 31.1 25.3 56.3 56.4 56.3h85.2c58.3 0 105.8-47.4 105.8-105.7v-104.1c0-13.9-11.4-25.3-25.3-25.3h-196.8z" fill="#181515"/></g><rect id="rect229" x="384.3" y="94.8" width="248.4" height="1.8" fill="#181515"/><g id="g231"><g id="g233" fill="#eff8fb"><path id="path235" d="m470.4 70.7-0.3-0.2v-0.3c0-0.3-1.9-1.7-5.1-1.7-3.1 0-4.4 1-4.4 2.3 0 3.4 11.7-1.6 11.7 5.9 0 2.7-2.5 4.8-7.6 4.8-4.9 0-6.3-1.6-6.7-1.6-0.1 0-0.2 0.1-0.3 0.2l-0.3-0.1 1.7-3.5 0.3 0.2v0.3c0 1.2 2.6 2.1 5.1 2.1 3.6 0 4.9-1.1 4.9-2.2 0-4.1-11.6 1-11.6-5.9 0-3.5 3.5-4.9 7.4-4.9 3.5 0 5.9 1.6 6.1 1.6 0.3 0 0.3-0.1 0.4-0.1l0.3 0.1-1.6 3z"/><path id="path237" d="m473.9 81c0.4 0 0.5-0.2 0.5-0.6v-13.2c0-0.5-0.1-0.6-0.5-0.6v-0.3h12.9c0.5 0 0.7-0.2 0.7-0.5h0.3v3.4h-0.3c0-0.4-0.2-0.5-0.7-0.5h-9.6v3.7h6.3c0.5 0 0.7-0.2 0.7-0.5h0.3v3.5h-0.3c0-0.2 0-0.3-0.2-0.4-0.1-0.1-0.3-0.1-0.5-0.1h-6.3v4.1h9.8c0.5 0 0.7-0.2 0.7-0.5h0.3v3.4h-0.3c0-0.3-0.2-0.5-0.7-0.5h-13.1v-0.4z"/><path id="path239" d="m505.6 73.4v0.3c-0.2 0-0.4 0.2-0.4 0.7v4.1c0 0.3 0.1 0.5 0.4 0.5v0.3c-1.3 0.7-4.3 2.3-7.8 2.3-4.6 0-8.6-2.4-8.6-7.7 0-5.4 4.7-7.7 8.8-7.7 1.6 0 3.2 0.4 4.3 0.8 1.1 0.5 1.8 0.8 2 0.8s0.4-0.1 0.4-0.2l0.3 0.1-1.9 3.4-0.3-0.2v-0.4c0-0.6-2.2-1.9-4.8-1.9-3.3 0-6.1 1.7-6.1 5.2 0 3.7 2.7 5.4 5.8 5.4 2.5 0 4-0.9 4.6-1.3v-1.9h-3.3c-0.4 0-0.6 0.2-0.6 0.5h-0.4v-3.6h0.3c0 0.3 0.2 0.5 0.6 0.5h6.7z"/><path id="path241" d="m506.6 81.3v-0.3c0.4 0 0.5-0.1 0.8-0.8l5.4-12.7c0.1-0.2 0.2-0.4 0.2-0.6s-0.2-0.3-0.4-0.4v-0.3h4.3v0.3c-0.3 0-0.4 0.2-0.4 0.3 0 0.2 0.1 0.3 0.2 0.5l5.8 12.9c0.3 0.6 0.4 0.8 0.8 0.8v0.3h-4v-0.3c0.3 0 0.4-0.1 0.4-0.2 0-0.2-0.2-0.5-1.5-3.5h-6.8c-1.2 2.7-1.5 3.1-1.5 3.4 0 0.2 0.1 0.3 0.3 0.3v0.3h-3.6zm10.4-6.3-2.4-5.4-2.4 5.4h4.8z"/></g><g id="g243"><path id="path245" d="m566.8 83.8h-112.1v-20h112.1v20zm-111-1.3h110.1v-17.4h-110.1v17.4z" fill="#eff8fb"/></g><g id="g247" fill="#eff8fb"><polygon id="polygon249" points="568.9 64.2 568.9 63.8 567.2 63.8 567.2 64.2 567.9 64.2 567.9 66.5 568.2 66.5 568.2 64.2"/><polygon id="polygon251" points="569.3 66.5 569.3 64.5 569.9 66.5 570.1 66.5 570.7 64.5 570.7 66.5 571 66.5 571 63.8 570.6 63.8 570 65.9 569.4 63.8 568.9 63.8 568.9 66.5"/></g><path id="path253" d="m526.7 66.3v15.1h38.3v-15.1h-38.3zm1.6 10.5c-0.3-2.7 6.7-6.3 15.9-8.1-0.2 0.1-0.6 0.2-0.6 0.2l-1.2 0.4c-4.7 1.4-8 4.1-7.7 6.4 0.3 2.4 4.2 3.6 9.2 3.2 0.3 0 1.3-0.1 1.5-0.1-9.2 1.5-16.8 0.7-17.1-2zm23 0.6c-2 0.6-4.6 1.1-4.6 1.1v-6.7l1.3 5.5s3.1-0.6 5.5-1.9c2.1-1.1 3.4-2.5 3.3-3.9-0.1-2.4-4.1-3.6-9-3.2-0.3 0-1.4 0.1-1.6 0.1 9.2-1.6 16.8-0.8 17.1 1.9 0.2 2.2-4.8 5.1-12 7.1z" fill="#eff8fb"/></g><g id="g255" fill="#eff8fb"><path id="path257" d="m463.4 223.6v0.2c0 0.2 0 0.3-0.7 0.3s-0.6-0.1-0.7-0.3v-0.7-0.7c0-0.2 0-0.3 0.7-0.3s0.6 0.1 0.7 0.3v0.2h0.9v-0.5c-0.1-0.5 0.1-0.9-1.5-0.9-1.7 0-1.5 0.4-1.5 0.9v0.9 0.9c0.1 0.5-0.1 0.9 1.5 0.9 1.7 0 1.5-0.4 1.5-0.9v-0.4h-0.9v0.1z"/><polygon id="polygon259" points="450.7 224.8 450.7 222.3 451.6 224.8 452.4 224.8 453.3 222.3 453.3 224.8 454.2 224.8 454.2 221.4 452.9 221.4 452 224 451.1 221.4 449.8 221.4 449.8 224.8"/><polygon id="polygon261" points="465.3 224.8 465.3 222.3 464.5 222.3 464.5 221.4 467 221.4 467 222.3 466.2 222.3 466.2 224.8"/><polygon id="polygon263" points="460 224.1 458.9 224.1 459.1 223.6 459.9 223.6 459.5 222.2 458.7 224.8 457.8 224.8 458.8 221.4 460.1 221.4 461.1 224.8 460.2 224.8"/><path id="path265" d="m447.7 222.1c0.7 0 0.6 0.1 0.7 0.3v0.7 0.7c0 0.2 0 0.3-0.7 0.3s-0.6-0.1-0.7-0.3v-0.7-0.7c0.1-0.2 0.1-0.3 0.7-0.3v-0.8c-1.7 0-1.5 0.4-1.5 0.9v0.9 0.9c0.1 0.5-0.1 0.9 1.5 0.9s1.5-0.4 1.5-0.9v-0.9-0.9c-0.1-0.5 0.1-0.9-1.5-0.9v0.8z"/><path id="path267" d="m444.8 223.6v0.2c0 0.2 0 0.3-0.7 0.3s-0.6-0.1-0.7-0.3v-0.7-0.7c0-0.2 0-0.3 0.7-0.3s0.6 0.1 0.7 0.3v0.2h0.9v-0.5c-0.1-0.5 0.1-0.9-1.5-0.9-1.7 0-1.5 0.4-1.5 0.9v0.9 0.9c0.1 0.5-0.1 0.9 1.5 0.9 1.7 0 1.5-0.4 1.5-0.9v-0.4h-0.9z"/><path id="path269" d="m456.3 224.1h-0.5v-0.8h0.5c0.7 0 0.6-0.1 0.7-0.3v-0.2-0.2c0-0.2 0-0.3-0.7-0.3h-0.5v2.6h-0.9v-3.4h1.4c1.7 0 1.5 0.4 1.5 0.9v0.4 0.4c0 0.4 0.1 0.9-1.5 0.9z"/><path id="path271" d="m439.4 237.7h-5.4c-0.8 0-1.4-0.6-1.4-1.4v-8.3c0-0.8 0.6-1.4 1.4-1.4h3.4c0.4 0 0.7-0.3 0.7-0.7v-3.3c0-0.2 0.1-0.3 0.3-0.3h2c0.2 0 0.3 0.1 0.3 0.3v14.9c0 0.2-0.1 0.3-0.3 0.3l-1-0.1v0.7h1.4c0.4 0 0.7-0.3 0.7-0.7v-15.5c0-0.4-0.3-0.7-0.7-0.7h-2.6c-0.4 0-0.7 0.3-0.7 0.7v3.3c0 0.2-0.1 0.3-0.3 0.3h-3.1c-1.2 0-2.2 1-2.2 2.2v8.3c0 1.2 1 2.2 2.2 2.2h5.4l-0.1-0.8z"/><path id="path273" d="m437.3 234.6v-5.4c0-0.4-0.4-0.8-0.8-0.8s-0.8 0.4-0.8 0.8v5.8c0 0.4 0.4 0.8 0.8 0.8s0.8-0.4 0.8-0.8v-0.4h0.7v0.4c0 0.9-0.7 1.6-1.6 1.6s-1.6-0.7-1.6-1.6v-5.8c0-0.9 0.7-1.6 1.6-1.6s1.6 0.7 1.6 1.6v5.4h-0.7z"/><path id="path275" d="m444.5 237.7h-1c-0.2 0-0.3-0.1-0.3-0.3v-10.5c0-0.2 0.1-0.3 0.3-0.3h2c0.2 0 0.3 0.1 0.3 0.3v10.5c0 0.2-0.1 0.3-0.3 0.3h-1v0.7h1.3c0.4 0 0.7-0.3 0.7-0.7v-11.1c0-0.4-0.3-0.7-0.7-0.7h-2.6c-0.4 0-0.7 0.3-0.7 0.7v11.1c0 0.4 0.3 0.7 0.7 0.7h1.3v-0.7z"/><path id="path277" d="m454 228.6h-2.2c-0.7 0-1.2 0.5-1.2 1.2s0.5 1.2 1.2 1.2h3c0.8 0 1.4 0.6 1.4 1.4v3.7c0 0.8-0.6 1.4-1.4 1.4h-6c-0.2 0-0.3-0.1-0.3-0.3v-1.4c0-0.2 0.1-0.3 0.3-0.3h4.1c0.7 0 1.2-0.5 1.2-1.2s-0.5-1.2-1.2-1.2h-2.9c-0.8 0-1.4-0.6-1.4-1.4v-3.7c0-0.8 0.6-1.4 1.4-1.4h5.5c0.2 0 0.3 0.1 0.3 0.3v1.5c0 0.2-0.1 0.3-0.3 0.3l-1.5-0.1v0.7h1.8c0.4 0 0.7-0.3 0.7-0.7v-2.1c0-0.4-0.3-0.7-0.7-0.7h-5.8c-1.2 0-2.2 1-2.2 2.2v3.7c0 1.2 1 2.2 2.2 2.2h2.9c0.3 0 0.5 0.2 0.5 0.5s-0.2 0.5-0.5 0.5h-4.4c-0.4 0-0.7 0.3-0.7 0.7v2.1c0 0.4 0.3 0.7 0.7 0.7h6.3c1.2 0 2.2-1 2.2-2.2v-3.7c0-1.2-1-2.2-2.2-2.2h-3c-0.3 0-0.5-0.2-0.5-0.5s0.2-0.5 0.5-0.5h2.2v-0.7z"/><path id="path279" d="m465 230.7h0.9c0.2 0 0.3-0.1 0.3-0.3v-2.4c0-0.8-0.6-1.4-1.4-1.4h-4.7c-0.8 0-1.4 0.6-1.4 1.4v8.3c0 0.8 0.6 1.4 1.4 1.4h4.7c0.8 0 1.4-0.6 1.4-1.4v-2.3c0-0.2-0.1-0.3-0.3-0.3h-1.8c-0.2 0-0.3 0.1-0.3 0.3v1.1c0 0.9-0.5 1.6-1.4 1.6s-1.4-0.7-1.4-1.6v-5.8c0-0.9 0.5-1.6 1.4-1.6s1.4 0.7 1.4 1.6v1.1c0 0.2 0.1 0.3 0.3 0.3h0.9v0.7h-1.1c-0.4 0-0.7-0.3-0.7-0.7v-1.4c0-0.4-0.2-0.8-0.7-0.8-0.4 0-0.7 0.4-0.7 0.8v5.8c0 0.4 0.2 0.8 0.7 0.8 0.4 0 0.7-0.4 0.7-0.8v-1.4c0-0.4 0.3-0.7 0.7-0.7h2.4c0.4 0 0.7 0.3 0.7 0.7v2.6c0 1.2-1 2.2-2.2 2.2h-4.7c-1.2 0-2.2-1-2.2-2.2v-8.3c0-1.2 1-2.2 2.2-2.2h4.7c1.2 0 2.2 1 2.2 2.2v2.7c0 0.4-0.3 0.7-0.7 0.7h-1.3v-0.7z"/></g><path id="path281" d="m543.1 186c-34.3 32.7-52.8 60.1-39.9 73.7 13 13.6 54 9.2 88.3-23.5s42.3-73.6 29.3-87.1-43.4 4.2-77.7 36.9z" fill="#181515"/><path id="path283" d="m549.5 194.4c-20.3 19.4-29.9 42.4-21.2 51.5s32.1 0.6 52.5-18.7c20.3-19.4 29.9-42.4 21.2-51.5s-32.1-0.7-52.5 18.7z" fill="#2c2929"/><circle id="circle285" cx="549.6" cy="225.3" r="2.9" fill="#181515"/><circle id="circle287" cx="558.5" cy="216.2" r="2.9" fill="#181515"/><circle id="circle289" cx="567.4" cy="207.1" r="2.9" fill="#181515"/><circle id="circle291" cx="576.3" cy="198.4" r="2.9" fill="#181515"/><g id="g293" fill="#241c1e"><path id="path295" d="m446.3 325h-1l-0.5-1.9h-1.8l-0.5 1.9h-1l1.9-6.7h0.9l2 6.7zm-1.9-3-0.6-2.1-0.6 2.1h1.2z"/><path id="path297" d="m450 320.6c0-0.2 0-0.4-0.1-0.5-0.1-0.2-0.1-0.3-0.2-0.4l-0.3-0.3c-0.1-0.1-0.3-0.1-0.4-0.1-0.2 0-0.4 0.1-0.6 0.2s-0.3 0.3-0.4 0.4c-0.1 0.2-0.2 0.4-0.3 0.7s-0.1 0.6-0.1 1 0 0.7 0.1 1 0.2 0.5 0.3 0.7 0.3 0.3 0.4 0.5c0.2 0.1 0.4 0.2 0.6 0.2s0.3 0 0.4-0.1 0.2-0.1 0.3-0.3c0.1-0.1 0.2-0.3 0.2-0.4 0.1-0.2 0.1-0.4 0.1-0.6h0.9c0 0.4-0.1 0.8-0.2 1.1s-0.3 0.6-0.4 0.8c-0.2 0.2-0.4 0.4-0.6 0.5s-0.5 0.2-0.8 0.2c-0.4 0-0.7-0.1-1-0.2-0.3-0.2-0.5-0.4-0.7-0.7s-0.4-0.7-0.5-1.1-0.2-0.9-0.2-1.4 0.1-1 0.2-1.4 0.3-0.8 0.5-1.1 0.4-0.5 0.7-0.7 0.6-0.2 0.9-0.2 0.5 0.1 0.7 0.2 0.4 0.3 0.6 0.5 0.3 0.5 0.4 0.8 0.2 0.6 0.2 1h-0.7z"/><path id="path299" d="m455.1 320.6c0-0.2 0-0.4-0.1-0.5-0.1-0.2-0.1-0.3-0.2-0.4l-0.3-0.3c-0.1-0.1-0.3-0.1-0.4-0.1-0.2 0-0.4 0.1-0.6 0.2s-0.3 0.3-0.4 0.4c-0.1 0.2-0.2 0.4-0.3 0.7s-0.1 0.6-0.1 1 0 0.7 0.1 1 0.2 0.5 0.3 0.7 0.3 0.3 0.4 0.5c0.2 0.1 0.4 0.2 0.6 0.2s0.3 0 0.4-0.1 0.2-0.1 0.3-0.3c0.1-0.1 0.2-0.3 0.2-0.4 0.1-0.2 0.1-0.4 0.1-0.6h0.9c0 0.4-0.1 0.8-0.2 1.1s-0.3 0.6-0.4 0.8c-0.2 0.2-0.4 0.4-0.6 0.5s-0.5 0.2-0.8 0.2c-0.4 0-0.7-0.1-1-0.2-0.3-0.2-0.5-0.4-0.7-0.7s-0.4-0.7-0.5-1.1-0.2-0.9-0.2-1.4 0.1-1 0.2-1.4 0.3-0.8 0.5-1.1 0.4-0.5 0.7-0.7 0.6-0.2 0.9-0.2 0.5 0.1 0.7 0.2 0.4 0.3 0.6 0.5 0.3 0.5 0.4 0.8 0.2 0.6 0.2 1h-0.7z"/><path id="path301" d="m460.7 325h-3.7v-6.7h3.6v1.2h-2.7v1.5h2.5v1.1h-2.5v1.7h2.8v1.2z"/><path id="path303" d="m463.6 325.1c-0.4 0-0.7-0.1-0.9-0.2-0.3-0.1-0.5-0.3-0.7-0.5s-0.3-0.5-0.4-0.8-0.1-0.7-0.2-1h0.9c0 0.2 0.1 0.4 0.1 0.6 0.1 0.2 0.2 0.3 0.3 0.4s0.2 0.2 0.4 0.3c0.1 0.1 0.3 0.1 0.4 0.1s0.3 0 0.4-0.1c0.1 0 0.2-0.1 0.3-0.2s0.2-0.2 0.2-0.3 0.1-0.2 0.1-0.4c0-0.1 0-0.3-0.1-0.4 0-0.1-0.1-0.2-0.2-0.3s-0.2-0.1-0.4-0.2-0.4-0.1-0.6-0.2c-0.3-0.1-0.5-0.2-0.7-0.3s-0.4-0.2-0.5-0.4-0.2-0.3-0.3-0.5-0.1-0.4-0.1-0.7 0-0.5 0.1-0.8c0.1-0.2 0.2-0.4 0.4-0.6s0.3-0.3 0.6-0.4c0.2-0.1 0.5-0.1 0.7-0.1 0.3 0 0.5 0.1 0.8 0.2 0.2 0.1 0.4 0.3 0.6 0.4 0.2 0.2 0.3 0.4 0.4 0.7s0.1 0.6 0.2 1h-0.9c-0.1-0.8-0.4-1.1-1-1.1-0.3 0-0.5 0.1-0.7 0.2s-0.2 0.3-0.2 0.6c0 0.1 0 0.2 0.1 0.3 0 0.1 0.1 0.1 0.2 0.2s0.2 0.1 0.3 0.2c0.1 0 0.3 0.1 0.4 0.1s0.3 0.1 0.5 0.1 0.3 0.1 0.5 0.2c0.1 0.1 0.3 0.2 0.4 0.3s0.2 0.2 0.3 0.4 0.2 0.3 0.2 0.5c0.1 0.2 0.1 0.4 0.1 0.7s0 0.6-0.1 0.8c-0.1 0.3-0.2 0.5-0.4 0.7s-0.4 0.3-0.6 0.4c-0.4 0-0.7 0.1-0.9 0.1z"/><path id="path305" d="m468.3 325.1c-0.4 0-0.7-0.1-0.9-0.2-0.3-0.1-0.5-0.3-0.7-0.5s-0.3-0.5-0.4-0.8-0.1-0.7-0.2-1h0.9c0 0.2 0.1 0.4 0.1 0.6 0.1 0.2 0.2 0.3 0.3 0.4s0.2 0.2 0.4 0.3c0.1 0.1 0.3 0.1 0.4 0.1s0.3 0 0.4-0.1c0.1 0 0.2-0.1 0.3-0.2s0.2-0.2 0.2-0.3 0.1-0.2 0.1-0.4c0-0.1 0-0.3-0.1-0.4 0-0.1-0.1-0.2-0.2-0.3s-0.2-0.1-0.4-0.2-0.4-0.1-0.6-0.2c-0.3-0.1-0.5-0.2-0.7-0.3s-0.4-0.2-0.5-0.4-0.2-0.3-0.3-0.5-0.1-0.4-0.1-0.7 0-0.5 0.1-0.8c0.1-0.2 0.2-0.4 0.4-0.6s0.3-0.3 0.6-0.4c0.2-0.1 0.5-0.1 0.7-0.1 0.3 0 0.5 0.1 0.8 0.2 0.2 0.1 0.4 0.3 0.6 0.4 0.2 0.2 0.3 0.4 0.4 0.7s0.1 0.6 0.2 1h-0.9c-0.1-0.8-0.4-1.1-1-1.1-0.3 0-0.5 0.1-0.7 0.2s-0.2 0.3-0.2 0.6c0 0.1 0 0.2 0.1 0.3 0 0.1 0.1 0.1 0.2 0.2s0.2 0.1 0.3 0.2c0.1 0 0.3 0.1 0.4 0.1s0.3 0.1 0.5 0.1 0.3 0.1 0.5 0.2c0.1 0.1 0.3 0.2 0.4 0.3s0.2 0.2 0.3 0.4c0.1 0.1 0.2 0.3 0.2 0.5 0.1 0.2 0.1 0.4 0.1 0.7s0 0.6-0.1 0.8-0.2 0.5-0.4 0.7-0.4 0.3-0.6 0.4c-0.4 0-0.6 0.1-0.9 0.1z"/></g><path id="voyant_2_" d="m422.7 323v-3.2c0-0.3 0.3-0.6 0.6-0.6h12.2c0.3 0 0.6 0.3 0.6 0.6v3.2c0 0.3-0.3 0.6-0.6 0.6h-12.2c-0.3 0-0.6-0.2-0.6-0.6z" fill="#631418"/><path id="voyant_1_" d="m424 322.2v-1.6c0-0.3 0.3-0.6 0.6-0.6h9.7c0.3 0 0.6 0.3 0.6 0.6v1.6c0 0.3-0.3 0.6-0.6 0.6h-9.7c-0.3 0-0.6-0.2-0.6-0.6z" fill="#f95d5d"/><path id="path309" d="m620.1 270.6c-2.9-2.9-2.9-7.7 0-10.6l9.2-8.9c2.9-2.9 5.2-0.7 8.1 2.2s2 7 0 10.6l-6.5 12c-3 2.9-7.9-2.4-10.8-5.3z" fill="#181515"/><path id="path311" d="m614.4 286.7c0.5-0.5 0.7-1.1 0.4-1.4l-7.3-7.2 1.6-1.6 8 8c0.7 0.7 0.1 2.4-1.2 3.8l2.3 2.3-5.9-0.1-0.1-5.9 2.2 2.1" fill="#241c1e"/><g id="g313" fill="#241c1e"><path id="path315" d="m617.5 274.1c0.2 0.2 0.4 0.5 0.4 0.7 0.1 0.3 0.1 0.6 0 0.9s-0.2 0.6-0.4 1c-0.2 0.3-0.5 0.7-0.8 1s-0.6 0.6-1 0.8c-0.3 0.2-0.7 0.3-1 0.4s-0.6 0.1-0.9 0-0.5-0.2-0.8-0.4c-0.2-0.2-0.4-0.5-0.4-0.8s-0.1-0.6 0-0.9 0.2-0.6 0.4-1c0.2-0.3 0.5-0.7 0.8-1s0.7-0.6 1-0.8 0.7-0.3 1-0.4 0.6 0 0.9 0c0.3 0.2 0.6 0.3 0.8 0.5zm-3.7 3.7c0.1 0.1 0.3 0.2 0.5 0.3s0.4 0 0.6 0 0.4-0.1 0.6-0.3 0.5-0.3 0.7-0.6c0.2-0.2 0.4-0.5 0.6-0.7l0.3-0.6v-0.6c0-0.2-0.1-0.3-0.3-0.5-0.1-0.1-0.3-0.2-0.5-0.3h-0.6c-0.2 0-0.4 0.1-0.6 0.3-0.2 0.1-0.5 0.3-0.7 0.5s-0.4 0.5-0.6 0.7-0.2 0.4-0.3 0.6c0 0.2-0.1 0.4 0 0.6 0.1 0.3 0.2 0.4 0.3 0.6z"/><path id="path317" d="m619.5 276.3 1.5 1.5c0.1 0.1 0.2 0.2 0.2 0.4 0 0.1 0.1 0.3 0.1 0.4v0.4c0 0.2-0.1 0.3-0.2 0.5s-0.2 0.3-0.4 0.5c-0.4 0.4-0.9 0.7-1.3 0.7s-0.8-0.2-1.2-0.5l-0.6-0.6-1.6 1.6-0.6-0.6 4.1-4.3zm-1.3 2.5 0.6 0.6c0.1 0.1 0.2 0.2 0.3 0.2s0.2 0.1 0.3 0.1 0.2 0 0.3-0.1 0.2-0.1 0.3-0.2 0.2-0.2 0.2-0.3 0.1-0.2 0-0.3 0-0.2-0.1-0.3-0.1-0.2-0.2-0.2l-0.6-0.6-1.1 1.1z"/><path id="path319" d="m620.6 285.8-2.3-2.3 4.2-4.2 2.3 2.3-0.7 0.7-1.7-1.7-0.9 0.9 1.6 1.6-0.7 0.7-1.6-1.6-1.1 1.1 1.8 1.8-0.9 0.7z"/><path id="path321" d="m623.6 288.8-0.5-0.5 1.4-4.2-2.8 2.8-0.6-0.6 4.2-4.2 0.5 0.5-1.5 4.2 2.8-2.8 0.6 0.6-4.1 4.2z"/></g><path id="path323" d="m638.2 254.1-1.3-1.4c-0.6-0.5-1.2-0.9-2-0.9-1 0-1.9 0.4-2.4 1.1l-11.9 15.3c-0.8 1-0.6 2.4 0.4 3.2l2.3 2.2c1 0.8 2.5 0.2 3.3-0.7l11.9-15.3c0.8-1 0.4-2.5-0.3-3.5z" fill="#2c2929"/><g id="g325"><path id="XMLID_74_" d="m617.3 1.9v12s-0.1 1.5-1.6 1.5h-110.3-110.3c-1.6 0-1.6-1.5-1.6-1.5v-12l111.9 0.1 111.9-0.1z" fill="#444546"/><g id="XMLID_1_" fill="#282424"><rect id="XMLID_73_" x="394.7" width="2.7" height="13.7"/><rect id="XMLID_72_" x="398.8" width="2.7" height="13.7"/><rect id="XMLID_71_" x="402.9" width="2.7" height="13.7"/><rect id="XMLID_70_" x="406.9" width="2.7" height="13.7"/><rect id="XMLID_69_" x="410.8" width="2.7" height="13.7"/><rect id="XMLID_68_" x="414.9" width="2.7" height="13.7"/><rect id="XMLID_67_" x="418.9" width="2.7" height="13.7"/><rect id="XMLID_66_" x="423" width="2.7" height="13.7"/><rect id="XMLID_65_" x="427.1" width="2.7" height="13.7"/><rect id="XMLID_64_" x="431.1" width="2.7" height="13.7"/><rect id="XMLID_63_" x="435.2" width="2.7" height="13.7"/><rect id="XMLID_62_" x="439.2" width="2.7" height="13.7"/><rect id="XMLID_61_" x="443.2" width="2.7" height="13.7"/><rect id="XMLID_60_" x="447.2" width="2.7" height="13.7"/><rect id="XMLID_59_" x="451.3" width="2.7" height="13.7"/><rect id="XMLID_58_" x="455.3" width="2.7" height="13.7"/><rect id="XMLID_57_" x="459.4" width="2.7" height="13.7"/><rect id="XMLID_56_" x="463.4" width="2.7" height="13.7"/><rect id="XMLID_55_" x="467.5" width="2.7" height="13.7"/><rect id="XMLID_54_" x="471.5" width="2.7" height="13.7"/><rect id="XMLID_53_" x="475.5" width="2.7" height="13.7"/><rect id="XMLID_52_" x="479.5" width="2.7" height="13.7"/><rect id="XMLID_51_" x="483.6" width="2.7" height="13.7"/><rect id="XMLID_50_" x="487.6" width="2.7" height="13.7"/><rect id="XMLID_49_" x="491.7" width="2.7" height="13.7"/><rect id="XMLID_48_" x="495.7" width="2.7" height="13.7"/><rect id="XMLID_47_" x="499.8" width="2.7" height="13.7"/><rect id="XMLID_46_" x="503.9" width="2.7" height="13.7"/><rect id="XMLID_45_" x="507.8" width="2.7" height="13.7"/><rect id="XMLID_44_" x="511.8" width="2.7" height="13.7"/><rect id="XMLID_43_" x="515.9" width="2.7" height="13.7"/><rect id="XMLID_42_" x="519.9" width="2.7" height="13.7"/><rect id="XMLID_41_" x="524.2" width="2.7" height="13.7"/><rect id="XMLID_40_" x="528.3" width="2.7" height="13.7"/><rect id="XMLID_39_" x="532.4" width="2.7" height="13.7"/><rect id="XMLID_38_" x="536.3" width="2.7" height="13.7"/><rect id="XMLID_37_" x="540.3" width="2.7" height="13.7"/><rect id="XMLID_36_" x="544.4" width="2.7" height="13.7"/><rect id="XMLID_35_" x="548.4" width="2.7" height="13.7"/><rect id="XMLID_34_" x="552.5" width="2.7" height="13.7"/><rect id="XMLID_33_" x="556.6" width="2.7" height="13.7"/><rect id="XMLID_32_" x="560.6" width="2.7" height="13.7"/><rect id="XMLID_31_" x="564.7" width="2.7" height="13.7"/><rect id="XMLID_30_" x="568.6" width="2.7" height="13.7"/><rect id="XMLID_29_" x="572.6" width="2.7" height="13.7"/><rect id="XMLID_28_" x="576.7" width="2.7" height="13.7"/><rect id="XMLID_27_" x="580.8" width="2.7" height="13.7"/><rect id="XMLID_26_" x="585.2" width="2.7" height="13.7"/><rect id="XMLID_25_" x="589.3" width="2.7" height="13.7"/><rect id="XMLID_24_" x="593.3" width="2.7" height="13.7"/><rect id="XMLID_23_" x="597.3" width="2.7" height="13.7"/><rect id="XMLID_22_" x="601.3" width="2.7" height="13.7"/><rect id="XMLID_21_" x="605.4" width="2.7" height="13.7"/><rect id="XMLID_20_" x="609.4" width="2.7" height="13.7"/><rect id="XMLID_19_" x="613.5" width="2.7" height="13.7"/></g></g></g></g><g id="g3717" transform="matrix(1.2693 0 0 1.2693 620.05 96.855)"><path id="path3719" d="m166.9 84.7c0 45.4-36.8 82.2-82.2 82.2s-82.2-36.8-82.2-82.2 36.8-82.2 82.2-82.2 82.2 36.8 82.2 82.2zm-68.1-30c-4.3-2-9.1-3.2-14.1-3.2-18.3 0-33.1 14.8-33.1 33.1s14.8 33.1 33.1 33.1 33.1-14.8 33.1-33.1c0-13.1-7.8-24.5-19-29.9" fill="#2b84c6"/><g id="g3721"><path id="path3723" d="m84.7 169.4c-46.7 0-84.7-38-84.7-84.7s38-84.7 84.7-84.7 84.7 38 84.7 84.7-38 84.7-84.7 84.7zm0-169.3c-46.6 0-84.6 38-84.6 84.6s37.9 84.5 84.5 84.5 84.5-37.9 84.5-84.5c0.1-46.6-37.8-84.6-84.4-84.6z" fill="#0f1317"/></g><path id="path3725" d="m156.1 125.5c-14.2 24.7-40.8 41.4-71.4 41.4s-57.2-16.7-71.4-41.4h142.8" fill="#0f1317"/><g id="g3727" fill="#9b877a"><g id="g3729"><path id="path3731" d="m110.8 135 1.7 2.1-0.2 0.1c-0.2-0.1-0.3-0.2-0.4-0.2s-0.4 0.1-0.9 0.4c-1 0.5-1.9 0.8-2.6 1s-1.5 0.3-2.5 0.3c-1.9 0-3.5-0.4-4.7-1.1-0.7-0.4-1.3-1-1.7-1.6-0.5-0.7-0.7-1.6-0.7-2.4 0-1.2 0.4-2.3 1.3-3.2 1.3-1.3 3.2-2 5.9-2 1 0 1.8 0.1 2.5 0.3s1.5 0.5 2.6 1c0.5 0.2 0.8 0.3 0.9 0.3s0.2-0.1 0.4-0.2l0.2 0.1-1.7 2.1-0.2-0.1v-0.2c0-0.1-0.1-0.3-0.2-0.4s-0.4-0.3-0.8-0.5c-1-0.5-2.2-0.7-3.3-0.7-1.4 0-2.5 0.3-3.3 0.9-1 0.7-1.5 1.5-1.5 2.6s0.5 2 1.5 2.6c0.8 0.6 1.9 0.9 3.3 0.9 1.2 0 2.3-0.2 3.3-0.7 0.4-0.2 0.6-0.3 0.8-0.5 0.1-0.1 0.2-0.3 0.2-0.4v-0.2l0.1-0.3z"/><path id="path3733" d="m114.8 137.7v-8.5c0-0.2 0-0.3-0.1-0.3-0.1-0.1-0.2-0.1-0.4-0.2v-0.2h6.8c1.5 0 2.6 0.1 3.4 0.4 1.1 0.4 2 1.1 2.5 2 0.4 0.7 0.6 1.6 0.6 2.6 0 1.7-0.6 3-1.9 4-0.5 0.4-1.2 0.7-1.9 0.8s-1.6 0.2-2.8 0.2h-6.8v-0.2c0.2 0 0.4-0.1 0.4-0.2 0.2-0.2 0.2-0.3 0.2-0.4zm2.7-0.9h3.3c1.1 0 1.9-0.1 2.4-0.4 1.1-0.5 1.7-1.5 1.7-3 0-1.1-0.3-1.9-0.9-2.5-0.3-0.3-0.8-0.5-1.2-0.7-0.5-0.1-1.1-0.2-1.9-0.2h-3.3v6.8z"/></g><g id="g3735"><path id="path3737" d="m49.9 131.8-0.3-0.1v-0.2c0-0.2-1.6-1.2-4.3-1.2-2.6 0-3.7 0.7-3.7 1.5 0 2.3 9.9-1.1 9.9 4 0 1.9-2.1 3.3-6.4 3.3-4.1 0-5.3-1.1-5.6-1.1-0.1 0-0.2 0.1-0.2 0.1h-0.2l1.4-2.4 0.3 0.1v0.2c0 0.8 2.2 1.4 4.3 1.4 3 0 4.1-0.7 4.1-1.5 0-2.8-9.7 0.7-9.7-4 0-2.4 3-3.4 6.2-3.4 2.9 0 5 1.1 5.2 1.1s0.3-0.1 0.3-0.1l0.3 0.1-1.6 2.2z"/><path id="path3739" d="m52.8 138.9c0.4 0 0.4-0.1 0.4-0.4v-9c0-0.3-0.1-0.4-0.4-0.4v-0.2h10.9c0.4 0 0.6-0.1 0.6-0.3h0.2v2.3h-0.2c0-0.3-0.2-0.4-0.6-0.4h-8v2.5h5.3c0.4 0 0.6-0.1 0.6-0.4h0.2v2.4h-0.2c0-0.1 0-0.2-0.1-0.3s-0.2-0.1-0.4-0.1h-5.3v2.8h8.2c0.4 0 0.6-0.1 0.6-0.3h0.2v2.3h-0.2c0-0.2-0.2-0.3-0.6-0.3h-11v-0.2z"/><path id="path3741" d="m79.4 133.7v0.2c-0.2 0-0.3 0.1-0.3 0.5v2.8c0 0.2 0.1 0.3 0.3 0.4v0.2c-1.1 0.5-3.6 1.6-6.5 1.6-3.8 0-7.2-1.6-7.2-5.3s3.9-5.3 7.4-5.3c1.4 0 2.7 0.3 3.6 0.5 0.9 0.3 1.5 0.6 1.7 0.6s0.3-0.1 0.4-0.2l0.2 0.1-1.6 2.3-0.2-0.1v-0.2c0-0.4-1.8-1.3-4-1.3-2.8 0-5.1 1.2-5.1 3.6 0 2.5 2.3 3.7 4.9 3.7 2.1 0 3.3-0.6 3.8-0.9v-1.2h-2.9c-0.3 0-0.5 0.1-0.5 0.3h-0.2v-2.5h0.2c0 0.2 0.2 0.3 0.5 0.3h5.5z"/><path id="path3743" d="m80.2 139.1v-0.2c0.3 0 0.4-0.1 0.6-0.5l4.6-8.6c0.1-0.1 0.2-0.3 0.2-0.4 0-0.2-0.1-0.2-0.4-0.3v-0.2h3.6v0.2c-0.3 0-0.4 0.1-0.4 0.2s0.1 0.2 0.2 0.4l4.9 8.7c0.2 0.4 0.3 0.5 0.7 0.5v0.2h-3.3v-0.2c0.2 0 0.3-0.1 0.3-0.1 0-0.2-0.2-0.4-1.3-2.4h-5.7c-1 1.8-1.2 2.1-1.2 2.3 0 0.1 0.1 0.2 0.3 0.2v0.2h-3.1zm8.8-4.3-2-3.7-2 3.7h4z"/></g><g id="g3745"><polygon id="polygon3747" points="127.5 128.9 128 128.9 128 130 128.3 130 128.3 128.9 128.8 128.9 128.8 128.7 127.5 128.7"/><polygon id="polygon3749" points="129.7 130 130.2 129.1 130.2 130 130.4 130 130.4 128.7 130.1 128.7 129.6 129.8 129.1 128.7 128.8 128.7 128.8 130 129.1 130 129.1 129 129.5 130"/></g></g><g id="SEGA_1_-4" fill="#9b877a"><path id="XMLID_10_-7" d="m100 155.9h-4.9v-1.1h3.3c-0.2-0.7-0.4-1.3-0.6-1.9-0.5-1.5-0.9-3-1.5-4.5-0.1-0.4-0.5-0.8-0.8-0.9-0.5-0.1-0.7 0.4-0.9 0.9-0.7 2.3-1.5 4.6-2.2 6.9-0.2 0.5-0.4 0.7-1 0.7h-4.5c-1.5 0-2.5-1-2.5-2.6v-4.2c0-1.6 1-2.6 2.5-2.6h4.1v1.2h-3.5c-1.6 0-2 0.4-2 2.1v3.2c0 1.1 0.5 1.7 1.6 1.7h2.7v-3.7h-2.2v-1.2h3.5v4.9h0.2c0.7-2.3 1.5-4.5 2.2-6.8 0.4-1.3 1.2-1.8 2.4-1.6 0.7 0.1 1.2 0.5 1.4 1.2 0.9 2.7 1.8 5.4 2.6 8.1 0.1 0.1 0.1 0.2 0.1 0.2z"/><path id="XMLID_9_" d="m69.4 156v-1.2h3.9c1.1 0 1.9-0.8 1.9-1.8s-0.8-1.8-1.8-1.9h-1.3c-0.7-0.1-1.1-0.7-1.1-1.4s0.5-1.4 1.1-1.4h4.2v1.2h-2.1-2v0.4c0.4 0 0.8 0 1.2 0.1 1.5 0 2.5 0.9 2.9 2.4 0.4 1.8-0.8 3.7-2.6 3.8-1.4-0.2-2.8-0.2-4.3-0.2z"/><path id="XMLID_8_" d="m69.4 154.3v-1.2h4.1v-0.3h-1.3c-1.2 0-2.1-0.6-2.6-1.7s-0.4-2.2 0.2-3.2c0.5-0.7 1.1-1.2 2-1.2h4.4v1.2h-3.9c-1.3 0-2.1 1.2-1.7 2.4 0.2 0.7 0.9 1.2 1.8 1.3h1.2c0.6 0.1 1.1 0.7 1.2 1.4 0 0.7-0.5 1.4-1.1 1.4-1.4-0.1-2.8-0.1-4.3-0.1z"/><path id="XMLID_7_-5" d="m83.9 146.6v1.2h-3.8c-1.3 0-1.8 0.5-1.8 1.9v3.3c0 1.3 0.5 1.8 1.7 1.8h3.9v1.2h-2.8-1.8c-1.1-0.1-2.1-1.1-2.1-2.2v-4.9c0-1 0.9-2.1 1.9-2.2 1.5-0.2 3.1-0.1 4.8-0.1z"/><path id="XMLID_4_" d="m92.6 155.9c0.8-2.6 1.6-5.1 2.5-7.5 0.1-0.2 0.2-0.4 0.4-0.4 0.1 0 0.3 0.2 0.4 0.3 0.7 2 1.3 4 2 6.1h-2.8c0-0.3-0.1-0.6-0.1-0.8h-0.1c-0.2 0.5-0.3 0.9-0.5 1.4-0.4 1.1-0.4 1.1-1.8 0.9zm2.4-2.9h1c-0.2-0.5-0.3-0.9-0.4-1.3h-0.2c-0.1 0.4-0.2 0.8-0.4 1.3z"/><path id="XMLID_3_-9" d="m88.5 152.8c-0.4-0.1-0.6-0.2-0.8-0.2v-1.1h1.8v2.8c-0.9 0-1.8 0.1-2.8 0-0.2 0-0.6-0.5-0.6-0.7-0.1-1.5 0-3 0-4.5 0-0.5 0.3-0.8 0.8-0.8h4.2v1.2h-3.1c-0.6 0-0.9 0.2-0.8 0.9v2.1c0 0.7 0.4 0.9 1.3 0.3z"/><path id="XMLID_2_" d="m79.9 153c1.3 0.2 2.6 0 3.9 0.1v1.1h-4.5c-0.2 0-0.6-0.5-0.6-0.8-0.1-0.6 0-1.2 0-1.9h4.2v1.1h-2.9c-0.1 0.2-0.1 0.3-0.1 0.4z"/><path id="XMLID_1_-7" d="m83.9 148.2v1.1c-1.3 0.2-2.7-0.1-4 0.2v0.3h3v1.2h-4.2c0-0.7-0.1-1.4 0-2.1 0-0.2 0.4-0.6 0.7-0.6 1.5-0.1 2.9-0.1 4.5-0.1z"/></g><path id="path3760" d="m119.2 10c-10.5-4.8-22.2-7.5-34.5-7.5l-78.1 56.5c-2.6 8.1-4.1 16.7-4.1 25.7 0 3.7 0.2 7.3 0.7 10.8l116-85.5" fill="#4b96d2"/><g id="g3762"><path id="path3764" d="m84.7 117.8c-18.3 0-33.1-14.8-33.1-33.1s14.8-33.1 33.1-33.1 33.1 14.8 33.1 33.1-14.9 33.1-33.1 33.1zm0-65.2c-17.7 0-32.1 14.4-32.1 32.1s14.4 32.1 32.1 32.1 32.1-14.4 32.1-32.1-14.4-32.1-32.1-32.1z"/></g><g id="g3766"><path id="path3768" d="m84.7 99.4c-8.1 0-14.7-6.6-14.7-14.7s6.6-14.7 14.7-14.7 14.7 6.6 14.7 14.7-6.6 14.7-14.7 14.7zm0-28.4c-7.6 0-13.7 6.1-13.7 13.7 0 7.5 6.1 13.7 13.7 13.7 7.5 0 13.7-6.1 13.7-13.7s-6.2-13.7-13.7-13.7z" fill="#a299a1"/></g><g id="g3770"><path id="path3772" d="m84.7 96.5c-6.5 0-11.8-5.3-11.8-11.8s5.3-11.8 11.8-11.8 11.8 5.3 11.8 11.8-5.3 11.8-11.8 11.8zm0-22.7c-6 0-10.8 4.9-10.8 10.8 0 6 4.9 10.8 10.8 10.8 6 0 10.8-4.9 10.8-10.8s-4.8-10.8-10.8-10.8z" fill="#a299a1"/></g><g id="g3774"><path id="path3776" d="m117.3 84.7c0 18-14.6 32.6-32.6 32.6s-32.6-14.6-32.6-32.6 14.6-32.6 32.6-32.6 32.6 14.6 32.6 32.6zm-32.6-28.4c-15.7 0-28.4 12.7-28.4 28.4s12.7 28.3 28.4 28.3 28.3-12.7 28.3-28.3-12.7-28.4-28.3-28.4z" fill="#ab9986"/></g><path id="path3778" d="m135.5 125.5h-44.4l74.7-54.5c0.8 4.5 1.1 9.2 1.1 13.9 0 6.7-0.8 13.1-2.2 19.3l-29.2 21.3z" fill="#4b96d2"/><path id="path3780" d="m66.6 112.4c-7.8-5.1-13.4-13.5-14.7-23.2l-41.6 30.5c0.9 2 1.9 3.9 3 5.8h35.2l18.1-13.1" fill="#4b96d2"/><path id="path3782" d="m66.6 112.4" fill="none" stroke="#7ac143" stroke-miterlimit="10"/><path id="path3784" d="m84.7 117.8" fill="none" stroke="#7ac143" stroke-miterlimit="10"/><path id="path3786" d="m98.8 54.7c8.7 4.1 15.4 12 17.9 21.4l40.9-29.6c-4.4-8.4-10.2-16-17.2-22.4 0 0.1-41.6 30.7-41.6 30.6" fill="#4b96d2"/><path id="path3788" d="m98.8 54.7" fill="none" stroke="#7ac143" stroke-miterlimit="10"/><path id="path3790" d="m84.7 51.6" fill="none" stroke="#7ac143" stroke-miterlimit="10"/><path id="path3792" d="m51.6 84.7" fill="none" stroke="#7ac143" stroke-miterlimit="10"/><path id="path3794" d="m51.9 89.2" fill="none" stroke="#7ac143" stroke-miterlimit="10"/><g id="g3796"><path id="path3798" d="m137.4 115.4h-0.6v-1.3l-0.4 1.3h-0.6l-0.4-1.2v1.3h-0.6v-2.1h0.8l0.5 1.4 0.5-1.4h0.8v2zm-0.5-0.1h0.4v-1.9h-0.7l-0.5 1.6-0.5-1.6h-0.7v1.9h0.4v-1.8l0.6 1.8h0.4l0.6-1.8v1.8z" fill="#0f1317"/></g><g id="g3800"><path id="path3802" d="m144.3 115.4h-0.6v-1.5h-0.5v-0.6h1.5v0.6h-0.5v1.5zm-0.5-0.1h0.4v-1.5h0.5v-0.4h-1.3v0.4h0.5v1.5z" fill="#0f1317"/></g><g id="g3804"><path id="path3806" d="m133.7 114.9c-0.3 0-0.4-0.1-0.4-0.2v-0.4-0.4c0-0.2 0.1-0.2 0.4-0.2s0.4 0.1 0.4 0.2v0.4 0.4c0 0.2-0.1 0.2-0.4 0.2zm0-1.1c-0.3 0-0.3 0-0.3 0.1v0.4 0.4c0 0.1 0 0.1 0.3 0.1s0.3 0 0.3-0.1v-0.4-0.4c0-0.1 0-0.1-0.3-0.1z" fill="#0f1317"/></g><g id="g3808"><path id="path3810" d="m133.7 115.4c-0.8 0-0.9-0.2-0.9-0.5v-0.1-0.5-0.5-0.1c0-0.3 0.1-0.5 0.9-0.5s0.9 0.2 0.9 0.5v0.1 0.5 0.5 0.1c0 0.3-0.1 0.5-0.9 0.5zm0-2.1c-0.8 0-0.8 0.2-0.8 0.4v0.1 0.5 0.5 0.1c0 0.2 0 0.4 0.8 0.4s0.8-0.2 0.8-0.4v-0.1-0.5-0.5-0.1c0-0.2 0-0.4-0.8-0.4z" fill="#0f1317"/></g><g id="g3812"><path id="path3814" d="m131.6 115.4c-0.8 0-0.9-0.2-0.9-0.5v-0.1-0.5-0.5-0.1c0-0.3 0.1-0.5 0.9-0.5s0.9 0.2 0.9 0.5v0.1 0.3 0.1h-0.6v-0.1c0-0.1 0-0.1-0.3-0.1s-0.3 0-0.3 0.1v0.4 0.4c0 0.1 0 0.1 0.3 0.1s0.3 0 0.3-0.1v-0.1h0.6v0.1 0.3 0.1c0-0.1-0.1 0.1-0.9 0.1zm0-2.1c-0.8 0-0.8 0.2-0.8 0.4v0.1 0.5 0.5 0.1c0 0.2 0 0.4 0.8 0.4s0.8-0.2 0.8-0.4v-0.1-0.2h-0.4v0.1c0 0.2-0.1 0.2-0.4 0.2s-0.4-0.1-0.4-0.2v-0.4-0.4c0-0.2 0.1-0.2 0.4-0.2s0.4 0.1 0.4 0.2v0.1h0.4v-0.2-0.1c0-0.2 0-0.4-0.8-0.4z" fill="#0f1317"/></g><g id="g3816"><path id="path3818" d="m132.5 123.6h-1.5c-0.3 0-0.6-0.3-0.6-0.6v-6.6c0-0.3 0.3-0.6 0.6-0.6h1.5c0.3 0 0.6 0.3 0.6 0.6v6.6c0 0.4-0.3 0.6-0.6 0.6zm-1.5-7.5c-0.2 0-0.3 0.1-0.3 0.3v6.6c0 0.2 0.1 0.3 0.3 0.3h0.8v0.1-0.1h0.8c0.2 0 0.3-0.1 0.3-0.3v-6.6c0-0.2-0.1-0.3-0.3-0.3h-1.6z" fill="#0f1317"/></g><g id="g3820"><path id="path3822" d="m134 123.6c-0.3 0-0.6-0.3-0.6-0.6v-1.2c0-0.3 0.3-0.6 0.6-0.6h2.5c0.1 0 0.1-0.1 0.1-0.1l-0.1-0.1h-1.7c-0.8 0-1.4-0.6-1.4-1.4v-2.2c0-0.8 0.6-1.4 1.4-1.4h3.4c0.3 0 0.6 0.3 0.6 0.6v1.2c0 0.3-0.3 0.6-0.6 0.6h-2.3c-0.1 0-0.1 0.1-0.1 0.1 0 0.1 0.1 0.1 0.1 0.1h1.7c0.8 0 1.4 0.6 1.4 1.4v2.2c0 0.8-0.6 1.4-1.4 1.4h-3.6zm0-2.1c-0.2 0-0.3 0.1-0.3 0.3v1.2c0 0.2 0.1 0.3 0.3 0.3h3.6c0.6 0 1.1-0.5 1.1-1.1v-2.2c0-0.6-0.5-1.1-1.1-1.1h-1.7c-0.2 0-0.4-0.2-0.4-0.4s0.2-0.4 0.4-0.4h2.3c0.2 0 0.3-0.1 0.3-0.3v-1.2c0-0.2-0.1-0.3-0.3-0.3h-3.4c-0.6 0-1.1 0.5-1.1 1.1v2.2c0 0.6 0.5 1.1 1.1 1.1h1.7c0.2 0 0.4 0.2 0.4 0.4s-0.2 0.4-0.4 0.4h-2.5z" fill="#0f1317"/></g><g id="g3824"><path id="path3826" d="m143.4 123.6h-2.7c-0.8 0-1.4-0.6-1.4-1.4v-4.9c0-0.8 0.6-1.4 1.4-1.4h2.7c0.8 0 1.4 0.6 1.4 1.4v1.6c0 0.3-0.3 0.6-0.6 0.6h-1.4c-0.3 0-0.6-0.3-0.6-0.6v-0.8c0-0.1 0-0.3-0.2-0.3s-0.2 0.2-0.2 0.3v3.4c0 0.1 0 0.3 0.2 0.3s0.2-0.2 0.2-0.3v-0.8c0-0.3 0.3-0.6 0.6-0.6h1.4c0.3 0 0.6 0.3 0.6 0.6v1.5c0 0.8-0.6 1.4-1.4 1.4zm-2.7-7.5c-0.6 0-1.1 0.5-1.1 1.1v4.9c0 0.6 0.5 1.1 1.1 1.1h2.7c0.6 0 1.1-0.5 1.1-1.1v-1.5c0-0.2-0.1-0.3-0.3-0.3h-1.4c-0.2 0-0.3 0.1-0.3 0.3v0.8c0 0.4-0.2 0.6-0.5 0.6s-0.5-0.2-0.5-0.6v-3.4c0-0.4 0.2-0.6 0.5-0.6s0.5 0.2 0.5 0.6v0.8c0 0.2 0.1 0.3 0.3 0.3h1.4c0.2 0 0.3-0.1 0.3-0.3v-1.6c0-0.6-0.5-1.1-1.1-1.1h-2.7z" fill="#0f1317"/></g><g id="g3828"><path id="path3830" d="m125.7 123.6c-0.8 0-1.4-0.6-1.4-1.4v-4.9c0-0.8 0.6-1.4 1.4-1.4h1.8v-2c0-0.3 0.3-0.6 0.6-0.6h1.5c0.3 0 0.6 0.3 0.6 0.6v9.2c0 0.3-0.3 0.6-0.6 0.6l-3.9-0.1zm0-7.5c-0.6 0-1.1 0.5-1.1 1.1v4.9c0 0.6 0.5 1.1 1.1 1.1h3.9c0.2 0 0.3-0.1 0.3-0.3v-9.2c0-0.2-0.1-0.3-0.3-0.3h-1.5c-0.2 0-0.3 0.1-0.3 0.3v2c0 0.2-0.1 0.3-0.3 0.3l-1.8 0.1z" fill="#0f1317"/></g><g id="g3832"><path id="path3834" d="m127.2 122.5c-0.6 0-1-0.5-1-1.1v-3.4c0-0.6 0.5-1.1 1-1.1 0.6 0 1 0.5 1 1.1v3.4c0.1 0.6-0.4 1.1-1 1.1zm0-5.3c-0.4 0-0.7 0.3-0.7 0.8v3.4c0 0.4 0.3 0.8 0.7 0.8s0.7-0.3 0.7-0.8v-3.4c0.1-0.5-0.3-0.8-0.7-0.8z" fill="#0f1317"/></g><polygon id="polygon3836" points="140.7 114.9 140.8 115.3 141.3 115.3 140.8 113.3 140 113.3 139.5 115.3 140 115.3 140.1 114.9" fill="none" stroke="#0f1317" stroke-miterlimit="10" stroke-width=".1"/><path id="path3838" d="m138.3 114.8v0.5h-0.5v-2h0.8c0.9 0 0.8 0.3 0.9 0.5v0.3 0.3c0 0.3 0.1 0.5-0.9 0.5l-0.3-0.1z" fill="none" stroke="#0f1317" stroke-miterlimit="10" stroke-width=".1"/><path id="path3840" d="m138.3 113.8v0.6h0.3c0.4 0 0.4-0.1 0.4-0.2v-0.1-0.1c0-0.1 0-0.2-0.4-0.2h-0.3z" fill="none" stroke="#0f1317" stroke-miterlimit="10" stroke-width=".1"/><g id="g3842"><path id="path3844" d="m142.3 115.4c-0.8 0-0.9-0.2-0.9-0.5v-0.1-0.5-0.5-0.1c0-0.3 0.1-0.5 0.9-0.5s0.9 0.2 0.9 0.5v0.1 0.3 0.1h-0.6v-0.1c0-0.1 0-0.1-0.3-0.1s-0.3 0-0.3 0.1v0.4 0.4c0 0.1 0 0.1 0.3 0.1s0.3 0 0.3-0.1v-0.1h0.6v0.1 0.3 0.1c0-0.1-0.1 0.1-0.9 0.1zm0-2.1c-0.8 0-0.8 0.2-0.8 0.4v0.1 0.5 0.5 0.1c0 0.2 0 0.4 0.8 0.4s0.8-0.2 0.8-0.4v-0.1-0.2h-0.4v0.1c0 0.2-0.1 0.2-0.4 0.2s-0.4-0.1-0.4-0.2v-0.4-0.4c0-0.2 0.1-0.2 0.4-0.2s0.4 0.1 0.4 0.2v0.1h0.4v-0.2-0.1c0-0.2 0-0.4-0.8-0.4z" fill="#0f1317"/></g><path id="path3846" d="m140.6 114.5h-0.4l0.2-0.7 0.2 0.7zm0.1 0.4 0.1 0.4h0.5l-0.6-2h-0.7l-0.6 2h0.5l0.1-0.4h0.7z" fill="#0f1317"/><g id="g3848" fill="#9b877a"><path id="path3850" d="m142.7 114.6v0.1c0 0.1 0 0.2-0.4 0.2s-0.4-0.1-0.4-0.2v-0.4-0.4c0-0.1 0-0.2 0.4-0.2s0.4 0.1 0.4 0.2v0.1h0.5v-0.3c0-0.3 0.1-0.5-0.9-0.5-0.9 0-0.8 0.3-0.9 0.5v0.5 0.5c0 0.3-0.1 0.5 0.9 0.5 0.9 0 0.8-0.3 0.9-0.5v-0.3h-0.5v0.2z"/><polygon id="polygon3852" points="136.4 115.3 136.9 113.8 136.9 115.3 137.4 115.3 137.4 113.3 136.6 113.3 136.1 114.8 135.6 113.3 134.9 113.3 134.9 115.3 135.4 115.3 135.4 113.8 135.9 115.3"/><polygon id="polygon3854" points="143.3 113.3 144.7 113.3 144.7 113.8 144.3 113.8 144.3 115.3 143.8 115.3 143.8 113.8 143.3 113.8"/><polygon id="polygon3856" points="140.6 114.6 140.4 113.7 140 115.3 139.5 115.3 140 113.3 140.8 113.3 141.3 115.3 140.8 115.3 140.7 114.9 140.1 114.9 140.2 114.6"/><path id="path3858" d="m133.7 113.7c0.4 0 0.4 0.1 0.4 0.2v0.4 0.4c0 0.1 0 0.2-0.4 0.2s-0.4-0.1-0.4-0.2v-0.4-0.4c0-0.1 0-0.2 0.4-0.2v-0.5c-0.9 0-0.8 0.3-0.9 0.5v0.5 0.5c0 0.3-0.1 0.5 0.9 0.5s0.8-0.3 0.9-0.5v-0.5-0.5c0-0.3 0.1-0.5-0.9-0.5v0.5z"/><path id="path3860" d="m132 114.6v0.1c0 0.1 0 0.2-0.4 0.2s-0.4-0.1-0.4-0.2v-0.4-0.4c0-0.1 0-0.2 0.4-0.2s0.4 0.1 0.4 0.2v0.1h0.5v-0.3c0-0.3 0.1-0.5-0.9-0.5-0.9 0-0.8 0.3-0.9 0.5v0.5 0.5c0 0.3-0.1 0.5 0.9 0.5 0.9 0 0.8-0.3 0.9-0.5v-0.3h-0.5z"/><path id="path3862" d="m138.6 114.9h-0.3v-0.5h0.3c0.4 0 0.4-0.1 0.4-0.2v-0.1-0.1c0-0.1 0-0.2-0.4-0.2h-0.3v1.6h-0.5v-2h0.8c0.9 0 0.8 0.3 0.9 0.5v0.3 0.3c-0.1 0.1 0 0.4-0.9 0.4z"/><path id="path3864" d="m131.8 123.4h0.7c0.2 0 0.4-0.2 0.4-0.4v-6.6c0-0.2-0.2-0.4-0.4-0.4h-1.5c-0.2 0-0.4 0.2-0.4 0.4v6.6c0 0.2 0.2 0.4 0.4 0.4h0.8"/><path id="path3866" d="m137.2 118h1c0.2 0 0.4-0.2 0.4-0.4v-1.2c0-0.2-0.2-0.4-0.4-0.4h-3.4c-0.7 0-1.2 0.6-1.2 1.3v2.2c0 0.7 0.6 1.3 1.2 1.3h1.7c0.2 0 0.3 0.1 0.3 0.3s-0.1 0.3-0.3 0.3h-2.5c-0.2 0-0.4 0.2-0.4 0.4v1.2c0 0.2 0.2 0.4 0.4 0.4h3.6c0.7 0 1.2-0.6 1.2-1.3v-2.2c0-0.7-0.6-1.3-1.2-1.3h-1.7c-0.2 0-0.3-0.1-0.3-0.3s0.1-0.3 0.3-0.3h1.3"/><path id="path3868" d="m143.6 119.2h-0.6c-0.2 0-0.4-0.2-0.4-0.4v-0.8c0-0.3-0.1-0.5-0.4-0.5s-0.4 0.2-0.4 0.5v3.4c0 0.3 0.1 0.5 0.4 0.5s0.4-0.2 0.4-0.5v-0.8c0-0.2 0.2-0.4 0.4-0.4h1.4c0.2 0 0.4 0.2 0.4 0.4v1.5c0 0.7-0.6 1.3-1.2 1.3h-2.7c-0.7 0-1.2-0.6-1.2-1.3v-4.9c0-0.7 0.6-1.3 1.2-1.3h2.7c0.7 0 1.2 0.6 1.2 1.3v1.6c0 0.2-0.2 0.4-0.4 0.4h-0.8"/><path id="path3870" d="m128.8 123.4h0.8c0.2 0 0.4-0.2 0.4-0.4v-9.2c0-0.2-0.2-0.4-0.4-0.4h-1.5c-0.2 0-0.4 0.2-0.4 0.4v2c0 0.1-0.1 0.2-0.2 0.2h-1.8c-0.7 0-1.2 0.6-1.2 1.3v4.9c0 0.7 0.6 1.3 1.2 1.3l3.1-0.1m-0.7-2.2v0.2c0 0.5-0.4 0.9-0.9 0.9s-0.9-0.4-0.9-0.9v-3.4c0-0.5 0.4-0.9 0.9-0.9s0.9 0.4 0.9 0.9v3.2"/></g></g></svg>
