<?xml version="1.0" encoding="UTF-8"?>
<!-- Generator: Adobe Illustrator 19.0.0, SVG Export Plug-In . SVG Version: 6.00 Build 0)  -->
<svg id="Layer_1" width="653.58" height="425.78" version="1.1" viewBox="0 0 653.58 425.78" xml:space="preserve" xmlns="http://www.w3.org/2000/svg" xmlns:cc="http://creativecommons.org/ns#" xmlns:dc="http://purl.org/dc/elements/1.1/" xmlns:rdf="http://www.w3.org/1999/02/22-rdf-syntax-ns#"><metadata id="metadata157"><rdf:RDF><cc:Work rdf:about=""><dc:format>image/svg+xml</dc:format><dc:type rdf:resource="http://purl.org/dc/dcmitype/StillImage"/><dc:title/></cc:Work></rdf:RDF></metadata><g id="g3" transform="scale(.58948)"><path id="path5" d="m599.9 717.8h-587.1c-7.1 0-12.8-5.7-12.8-12.8v-692.2c0-7.1 5.7-12.8 12.8-12.8h587.1c7.1 0 12.8 5.7 12.8 12.8v692.2c0 7.1-5.7 12.8-12.8 12.8z" fill="#ccc"/><g id="g7" fill="#999"><path id="path9" d="m482.5 54.7c-8.8 0-14.7-6.4-14.7-14.2s5.9-14.3 14.7-14.2h82.8c8.8 0 14.6 6.5 14.6 14.2 0 7.8-5.9 14.2-14.7 14.2h-82.7zm0-24.9c-7 0-11.2 4.8-11.2 10.7s4.2 10.7 11.2 10.7h82.7c7 0 11.2-4.8 11.2-10.7s-4.3-10.7-11.2-10.7h-82.7z"/><path id="path456_1_" d="m478.9 33.8h4.1l5.6 9.3v-9.3h4v13.4h-4l-5.6-9.3v9.3h-4l-0.1-13.4z"/><path id="path458_1_" d="m514.5 35.2h3.9v1.8h2.1v1.3h-2.1v8.9h-3.9v-8.9h-2.1v-1.3h2.1v-1.8z"/><path id="path460_1_" d="m494.8 38.3h3.9v8.9h-3.9v-8.9z"/><path id="path462_1_" d="m494.8 33.8h3.9v2.7h-3.9v-2.7z"/><path id="path464_1_" d="m563.4 37.7c-3.2 0-5.7 2.2-5.7 5s2.6 5 5.7 5c3.2 0 5.7-2.2 5.7-5s-2.6-5-5.7-5m1.5 5v1.9c0 1.4-0.8 2-1.6 2s-1.6-0.6-1.6-2v-1.9-1.9c0-1.4 0.8-2 1.6-2s1.6 0.6 1.6 2v1.9z"/><path id="path466_1_" d="m552.5 42.7v-1.6c0-1.4-0.9-1.7-1.5-1.7s-1.5 0.3-1.5 1.7v1.6 1.6c0 1.4 0.9 1.7 1.5 1.7s1.5-0.4 1.5-1.7v-1.6zm0-8.9h3.9v13.4h-3.9v-0.5c-1.5 1-3.2 1-4.5 0.3-0.4-0.2-2.7-1.3-2.7-4.4 0-2.3 2.2-4.9 5-4.7 0.9 0.1 1.6 0.4 2.2 0.8v-4.9z"/><path id="path468_1_" d="m507.9 37.9c1.5 0 4.4 0.9 4.4 4.5v4.8h-3.9v-5.8c0-0.8-0.7-1.6-1.8-1.6s-1.9 0.9-1.9 1.6v5.8h-3.9v-8.9h3.9v0.9c0.8-0.7 1.9-1.3 3.2-1.3"/><path id="path470_1_" d="m539.7 37.9c1.5 0 4.4 0.9 4.4 4.5v4.8h-3.9v-5.8c0-0.8-0.7-1.6-1.8-1.6s-1.9 0.9-1.9 1.6v5.8h-3.9v-8.9h3.9v0.9c0.8-0.7 1.9-1.3 3.2-1.3"/><path id="path472_1_" d="m527.4 44.1v0.5c0 1.6-1 2-1.6 2s-1.6-0.4-1.6-2v-1.8h7.4c0-2.8-2.6-5-5.8-5s-5.8 2.2-5.8 5 2.6 5 5.8 5c2.6 0 4.9-1.5 5.5-3.7h-3.9zm-3.3-2.7c0-0.8 0-1.3 0.3-1.7 0.3-0.5 0.9-0.8 1.4-0.8s1.1 0.3 1.4 0.8c0.2 0.4 0.3 1 0.3 1.7h-3.4z"/><path id="path474_1_" d="m569.9 35.3c0.4 0 0.7 0 0.7-0.5 0-0.4-0.3-0.4-0.6-0.4h-0.6v0.9h0.5zm-0.6 1.7h-0.4v-3h1.1c0.7 0 1 0.3 1 0.9 0 0.5-0.3 0.8-0.8 0.8l0.8 1.3h-0.5l-0.8-1.3h-0.5l0.1 1.3z"/><path id="path476_1_" d="m569.9 37.7c1.2 0 2.1-0.9 2.1-2.2s-0.9-2.2-2.1-2.2-2.1 0.9-2.1 2.2c0 1.2 0.9 2.2 2.1 2.2m-2.6-2.2c0-1.5 1.2-2.6 2.6-2.6s2.6 1.1 2.6 2.6-1.2 2.6-2.6 2.6-2.6-1.1-2.6-2.6"/></g><ellipse id="ellipse22" cx="77.3" cy="524.9" rx="3.3" ry="3.4" fill="#737477"/><ellipse id="ellipse24" cx="77.3" cy="537" rx="3.3" ry="3.4" fill="#737477"/><g id="g26" fill="#737477"><path id="path28" d="m63.5 527.7c-0.1 0.4-0.3 0.6-0.7 0.6h-2.1c-0.4 0-0.5-0.2-0.4-0.6l1.3-5c0.1-0.4 0.3-0.6 0.7-0.6h2.1c0.4 0 0.5 0.2 0.5 0.6l-1.4 5zm-0.9-0.2 1.2-4.5h-1.4l-1.2 4.5h1.4z"/><path id="path30" d="m67.5 528.3h-0.9l-0.6-3.8c0 0.2 0 0.3-0.1 0.4l-0.9 3.4h-1l1.6-6.1h0.9l0.6 3.8c0-0.2 0-0.3 0.1-0.4l0.9-3.3h1l-1.6 6z"/></g><g id="g32" fill="#737477"><path id="path34" d="m60.9 539.8c-0.1 0.4-0.3 0.6-0.7 0.6h-2.1c-0.4 0-0.5-0.2-0.4-0.6l1.3-5c0.1-0.4 0.3-0.6 0.7-0.6h2.1c0.4 0 0.5 0.2 0.5 0.6l-1.4 5zm-0.9-0.2 1.2-4.5h-1.4l-1.2 4.5h1.4z"/><path id="path36" d="m65.7 535.1h-1.7l-0.5 1.8h1.5l-0.2 0.8h-1.5l-0.7 2.7h-1l1.6-6.1h2.7l-0.2 0.8z"/><path id="path38" d="m68.9 535.1h-1.7l-0.5 1.8h1.5l-0.2 0.8h-1.5l-0.7 2.7h-1l1.6-6.1h2.7l-0.2 0.8z"/></g><rect id="rect40" x=".4" y="194.7" width="611.8" height="247.9" fill="#ccc"/><g id="g42"><path id="polyline2177_1_" d="m122.9 378.1c-1.5 0-3 1.3-3.2 3v0.1 0.1 0.1 0.1 0.1 0.1 0.1 0.1 0.1 0.2l-0.1 0.2v0.2l-0.1 0.2v0.2l-0.1 0.2-0.1 0.3-0.1 0.2-0.1 0.5-0.1 0.3-0.1 0.2v0.2l-0.2 0.4v0.2 0.2l-0.1 0.2v0.2 0.1 0.1 0.1 0.1 0.1 0.1 0.1 0.1c0 0.7 0.1 1.7 0.3 1.9 0.3 1.6 5.2 8.9 5.1 10s-0.7 4.4-0.7 4.4c-0.2 1.1-0.9 2-1.9 2s-1.7-0.9-1.6-2l0.9-5.4h-3.7l-1.2 7.5c-0.3 1.5 0.7 2.7 2.2 2.7h5.3c1.5 0 2.8-1.2 3.1-2.7 0 0 1.4-7 1.3-7.5 0-0.5-0.1-0.6-0.1-0.6 0-0.6-4.4-8.3-4.8-8.6-0.2-0.1-0.4-0.9-0.4-1.3 0-0.5 0.6-3.5 0.6-3.5 0.2-1.1 1.2-2 2.2-2s1.5 0.9 1.3 2l-0.8 4.9h3.7l1.3-7.3c0.3-1.6-0.7-3-2.2-3h-5.6zm10.2 0-4.4 26.9c-0.3 1.5 0.7 2.7 2.2 2.7h5.3c1.5 0 2.9-1.2 3.1-2.7l4.7-26.9h-3.3l-4.5 26.2c-0.1 0.4-0.4 0.7-0.8 0.7h-2.6c-0.4 0-0.6-0.3-0.6-0.7l4.4-26.2h-3.5zm12.6 0-5.3 29.7h3.5l2.4-13.4h4.5c1.5 0 2.8-1.2 3.1-2.7l1.9-10.5c0.3-1.6-0.7-3-2.2-3h-4.4-3.5zm12.6 0-5.5 29.7h7.9l0.6-3.7h-3.9l1.6-10h3.9l0.6-3.1h-3.9l1.7-9.2h3.9l0.5-3.7h-7.4zm9.5 0-5.3 29.7h3.5l2.4-13.4h2.5c0.3 0.3 0.4 0.9 0.4 1.2 0.1 0.4 0.1 1 0.1 1.4s-1.9 10.8-1.9 10.8h3.5s2-11.3 2-11.5 0-0.8-0.2-1.1c-0.1-0.2-0.4-0.7-0.6-0.8l-1-0.6h-0.2c1-0.4 2.9-1.1 3.1-2.2l1.9-10.5c0.3-1.6-0.7-3-2.2-3h-8zm18.8 0-5.3 29.7h4l3.3-17.2 1.3 17.2h3.5l5.3-29.7h-4l-2.8 15.5-1.8-15.5h-3.5zm14 0-5.3 29.7h3.5l5.3-29.7h-3.5zm5.4 0-5.3 29.7h4.1l3.3-17.2 1.3 17.2h3.5l5.3-29.7h-4.1l-2.7 15.5-1.8-15.5h-3.6zm13.6 0-0.7 3.7h2.2l-4.3 26h4l4.4-26h2.1l0.6-3.7h-8.3zm9.7 0-5.5 29.7h7.9l0.6-3.7h-3.9l1.6-10h3.9l0.6-3.1h-3.9l1.7-9.2h3.9l0.6-3.7h-7.5zm9 0-5.3 29.7h4.1l3.3-17.2 1.3 17.2h3.5l5.3-29.7h-4.1l-2.7 15.5-1.8-15.5h-3.6zm14 0-5.3 29.7h8c1.5 0 2.9-1.2 3.1-2.7l4.3-24c0.3-1.6-0.7-3-2.2-3h-7.9zm15.1 0c-1.5 0-3 1.3-3.2 3l-3.9 24c-0.3 1.5 0.7 2.7 2.1 2.7h5.8c1.5 0 2.9-1.2 3.1-2.7l4.3-24c0.3-1.6-0.7-3-2.2-3h-6zm-12.1 3.4h1.6c1 0 1.7 0.9 1.6 2l-3.5 19.4c-0.2 1.1-1.2 2-2.2 2h-1.6l4.1-23.4zm14.2 0h0.1c1 0 1.7 0.9 1.5 2l-3.3 19.4c-0.2 1.1-1.1 2-2.2 2-1 0-1.5-0.9-1.3-2l3.3-19.4v-0.1-0.1-0.1-0.1-0.1-0.1-0.1l0.1-0.1v-0.1l0.1-0.1v-0.1l1.1-1.1h0.1l0.1-0.1h0.1 0.1 0.1 0.1 0.1l-0.1 0.3zm-120.4 0.1h1.7c0.4 0 1.2 0.9 1.1 1.3l-1.5 7.3c-0.1 0.4-0.6 1.3-0.9 1.3h-2.1v-0.2l1.7-9c-0.3-0.6-0.2-0.7 0-0.7zm22 0h0.1 1.6c0.4 0 1.2 0.9 1.1 1.3l-1.5 7.3c-0.1 0.4-1 1.3-1.3 1.3h-1.5c-0.3 0-0.5-0.2-0.6-0.5v-0.2l1.6-9h0.1l0.4-0.2zm-56 28.7v9.7h157.1v-9.7h-157.1zm115.5 1h0.1 1.2c0.3 0 0.6 0.3 0.5 0.6l-0.3 1.6h-0.7l0.2-1.1c0-0.2-0.1-0.4-0.3-0.4s-0.5 0.2-0.5 0.4l-0.1 0.8s0 0.3 0.1 0.3c0.1 0.1 1.1 1.8 1.1 1.9v0.1c0 0.2-0.3 1.7-0.3 1.7-0.1 0.3-0.4 0.6-0.7 0.6h-1.2c-0.3 0-0.5-0.3-0.5-0.6l0.3-1.7h0.8l-0.2 1.2c0 0.2 0.1 0.5 0.3 0.5s0.5-0.2 0.5-0.5l0.2-1c-0.1-0.4-1.1-1.9-1.2-2.2 0 0-0.1-0.3-0.1-0.4 0-0.2 0.2-1.3 0.2-1.3v-0.1l0.6-0.4zm6.4 0h1l0.1 2.5 1.3-2.5h1l-2 3.8-0.5 2.8h-0.9l0.4-3-0.4-3.6zm9 0h0.1 1.2c0.3 0 0.6 0.3 0.5 0.6l-0.3 1.6h-0.7l0.2-1.1c0-0.2-0.1-0.4-0.3-0.4s-0.5 0.2-0.5 0.4l-0.1 0.8s0 0.3 0.1 0.3c0.1 0.1 1.1 1.8 1.1 1.9v0.1c0 0.2-0.3 1.7-0.3 1.7-0.1 0.3-0.4 0.6-0.7 0.6h-1.3c-0.3 0-0.5-0.3-0.5-0.6l0.3-1.7h0.8l-0.2 1.2c0 0.2 0.1 0.5 0.3 0.5s0.4-0.2 0.5-0.5l0.2-1c-0.2-0.4-1.1-1.9-1.2-2.2 0 0-0.1-0.3-0.1-0.4 0-0.2 0.2-1.3 0.2-1.3v-0.1l0.7-0.4zm6.4 0h1.8l-0.1 0.8h-0.5l-1 5.8h-0.9l1-5.8h-0.5l0.2-0.8zm7.2 0h1.7l-0.1 0.8h-0.9l-0.4 2.1h0.9l-0.1 0.7h-0.9l-0.4 2.2h0.9l-0.1 0.8h-1.8l1.2-6.6zm6.8 0h1l0.2 3.8 1.6-3.8h1l-1 6.6h-0.8l0.5-3.5-1.4 3.5h-0.6l-0.2-3.6-0.6 3.6h-0.9l1.2-6.6zm-147.9 0.3h1.6l-0.1 0.8h-0.9l-0.4 2h0.9l-0.1 0.7h-0.9l-0.3 2.2h0.9l-0.1 0.8h-1.8l1.2-6.5zm7.6 0h0.8l0.4 3.4 0.6-3.4h0.9l-1.2 6.6h-0.8l-0.3-3.8-0.7 3.8h-0.8l1.1-6.6zm8.3 0h1.8l-0.1 0.8h-0.5l-1 5.8h-0.9l1-5.8h-0.5l0.2-0.8zm8 0h1.7l-0.1 0.8h-0.9l-0.4 2h0.9l-0.1 0.7h-0.9l-0.4 2.2h0.9l-0.1 0.8h-1.8l1.2-6.5zm7.8 0h1.8c0.3 0 0.5 0.3 0.5 0.7l-0.4 2.3c0 0.3-0.5 0.5-0.7 0.6h0.1c0 0.1 0.1 0.3 0.1 0.3l-0.4 2.6h-0.8s0.4-2.3 0.4-2.4v-0.3c0-0.1 0-0.2-0.1-0.3h-0.6l-0.5 3h-0.6l1.2-6.5zm7.8 0h1.8l-0.1 0.8h-0.5l-1 5.8h-0.9l1-5.8h-0.5l0.2-0.8zm9.2 0h1l-0.3 6.6h-1l0.1-1.5h-0.6l-0.5 1.5h-0.9l2.2-6.6zm7.3 0h0.8l-1.2 6.6h-0.8l1.2-6.6zm7.1 0h0.8l0.4 3.4 0.6-3.4h0.9l-1.2 6.6h-0.8l-0.3-3.8-0.7 3.8h-0.9l1.2-6.6zm9.1 0h1l0.2 3.8 1.6-3.8h1l-1 6.6h-0.8l0.5-3.5-1.4 3.5h-0.6l-0.2-3.6-0.6 3.6h-0.9l1.2-6.6zm10 0h1.6l-0.1 0.8h-0.9l-0.4 2h0.9l-0.1 0.7h-0.9l-0.4 2.2h0.9l-0.1 0.8h-1.7l1.2-6.5zm8 0h0.8l0.4 3.4 0.6-3.4h0.9l-1.2 6.6h-0.8l-0.3-3.8-0.7 3.8h-0.9l1.2-6.6zm8.2 0h1.8l-0.1 0.8h-0.5l-1 5.8h-0.9l1-5.8h-0.5l0.2-0.8zm-66 0.8s-0.1 0-0.1 0.1l-0.4 2c0 0.1 0 0.1 0.1 0.1h0.3c0.1 0 0.3-0.2 0.3-0.3l0.3-1.6c0-0.1-0.1-0.3-0.2-0.3h-0.3zm16.3 2-0.6 1.7h0.4l0.2-1.7z" fill="#6c6c6c"/></g><g id="g45"><path id="path47" d="m172 353.9h-5.2v-68.3h5.2v68.3zm-4.2-1h3.2v-66.3h-3.2v66.3z" fill="#808084"/></g><g id="g49"><path id="path51" d="m443.2 352.9h-5.2v-68.3h5.2v68.3zm-4.2-1h3.2v-66.3h-3.2v66.3z" fill="#808084"/></g><rect id="rect53" x="88.1" y="284.1" width="436.5" height="4" fill="#555251"/><rect id="rect55" x="88.1" y="351.4" width="436.5" height="4" fill="#555251"/><g id="g57"><rect id="rect59" x="87.6" y="194.7" width="1" height="247.9" fill="#555251"/></g><g id="g61"><rect id="rect63" x="524.1" y="194.7" width="1" height="247.9" fill="#555251"/></g><g id="g65"><path id="path67" d="m612.7 444.2h-612.7v-248.9h612.7v248.9zm-611.7-1h610.8v-246.9h-610.8v246.9z" fill="#555251"/></g><g id="g69"><path id="path71" d="m250.6 721.8h-151.7c-1.7 0-3.1-1.4-3.1-3.1v-275h158v275c-0.1 1.7-1.5 3.1-3.2 3.1z" fill="#ccc"/><g id="g73"><g id="g75"><path id="path77" d="m250.7 722.3h-151.9c-1.9 0-3.5-1.6-3.5-3.6v-275.5h158.9v275.5c0 2-1.5 3.6-3.5 3.6zm-154.4-278.1v274.5c0 1.4 1.1 2.6 2.5 2.6h151.9c1.4 0 2.5-1.2 2.5-2.6v-274.5h-156.9z" fill="#555251"/></g></g></g><g id="g79"><g id="g81"><path id="path83" d="m514.1 721.6h-151.7c-1.7 0-3.1-1.4-3.1-3.1v-275h158v275c-0.1 1.7-1.5 3.1-3.2 3.1z" fill="#ccc"/><g id="g85"><g id="g87"><path id="path89" d="m514.2 722.1h-151.9c-1.9 0-3.5-1.6-3.5-3.6v-275.6h158.9v275.5c0 2-1.5 3.7-3.5 3.7zm-154.4-278.2v274.5c0 1.4 1.1 2.6 2.5 2.6h151.9c1.4 0 2.5-1.2 2.5-2.6v-274.5h-156.9z" fill="#555251"/></g></g></g></g><rect id="rect91" x="254.5" y="488.9" width="103.6" height="182.8" fill="#686665"/><rect id="rect93" x="254.7" y="488.9" width="102.1" height="182.7" fill="none" stroke="#5b5959" stroke-miterlimit="10" stroke-width="4"/><g id="g95"><path id="path97" d="m524.2 570.5h-171.8c-3 0-5.5-2.5-5.5-5.5v-61c0-3 2.5-5.5 5.5-5.5h171.8c3 0 5.5 2.5 5.5 5.5v61c0 3.1-2.5 5.5-5.5 5.5z" fill="#32215f"/><path id="path99" d="m514.7 536.4h-155.7c0-12.9 10.2-23.4 22.8-23.4h110.2c12.4 0 22.7 10.5 22.7 23.4z" fill="#2a1c4f"/><path id="path101" d="m514.7 536.4h-155.7c0 12.9 10.2 23.4 22.8 23.4h110.2c12.4 0 22.7-10.5 22.7-23.4z" fill="#46386b"/><g id="g103" fill="#fcfcfc"><path id="path105" d="m423.3 540.6h-2.4l-0.6-6.4 0.4-1.2h2.2l1.3-4.3h-2.9l-3.6 12h-2.3l4.1-13.7h6.1c0.9 0 1.3 0.4 1 1.3l-1.5 5c-0.2 0.6-0.5 1-1 1.1-0.3 0.1-0.8 0.1-1.5 0.1l0.7 6.1z"/><path id="path107" d="m431 540.6h-6.3l4.1-13.7h6.3l-0.5 1.8h-4l-1.2 4h3.4l-0.5 1.8h-3.4l-1.3 4.3h4.1l-0.7 1.8z"/><path id="path109" d="m440.3 539.3c-0.2 0.8-0.8 1.3-1.8 1.3h-4.6c-0.9 0-1.3-0.4-1-1.3l1-3.3h2.3l-0.8 2.8h2.8l0.8-2.7-3.4-3.9c-0.2-0.3-0.3-0.7-0.2-1.1l0.9-3.1c0.3-0.8 0.8-1.3 1.8-1.3h4.6c0.9 0 1.3 0.4 1 1.2l-0.9 3.1h-2.3l0.8-2.6h-2.8l-0.7 2.5 3.4 3.9c0.2 0.3 0.3 0.7 0.2 1.1l-1.1 3.4z"/><path id="path111" d="m448.1 540.6h-6.3l4.1-13.7h6.3l-0.5 1.8h-4l-1.2 4h3.4l-0.5 1.8h-3.4l-1.3 4.3h4.1l-0.7 1.8z"/><path id="path113" d="m459.8 528.7h-2.5l-3.6 11.9h-2.3l3.6-11.9h-2.5l0.5-1.8h7.3l-0.5 1.8z"/></g><polygon id="polygon115" points="469.1 540.6 465.6 526.9 462.2 540.6" fill="#fcfcfc"/><rect id="rect117" x="351.9" y="502" width="172.7" height="1.2" fill="#544679"/></g><g id="g119"><path id="path121" d="m260.5 559.1h-171.8c-3 0-5.5-2.5-5.5-5.5v-61c0-3 2.5-5.5 5.5-5.5h171.8c3 0 5.5 2.5 5.5 5.5v61c0 3-2.5 5.5-5.5 5.5z" fill="#32215f"/><rect id="rect123" x="88.1" y="491.2" width="172.7" height="1.2" fill="#544679"/><path id="path125" d="m251 524.9h-155.7c0-12.9 10.2-23.4 22.8-23.4h110.2c12.4 0 22.7 10.5 22.7 23.4z" fill="#2a1c4f"/><path id="path127" d="m251 524.9h-155.7c0 12.9 10.2 23.4 22.8 23.4h110.2c12.4 0 22.7-10.5 22.7-23.4z" fill="#46386b"/><g id="g129" fill="#fcfcfc"><path id="path131" d="m156.9 524.7c-0.3 0.9-0.8 1.3-1.8 1.3h-3.7l-1.5 5h-2.3l4.1-13.7h6c0.9 0 1.3 0.4 1 1.3l-1.8 6.1zm-2.2-0.5 1.6-5.2h-2.8l-1.6 5.2h2.8z"/><path id="path133" d="m164.8 529.7c-0.2 0.8-0.8 1.3-1.8 1.3h-5c-0.9 0-1.2-0.4-1-1.3l3.3-11.2c0.3-0.8 0.8-1.3 1.7-1.3h5c0.9 0 1.3 0.4 1 1.3l-3.2 11.2zm-2.2-0.5 3-10.2h-3.1l-3 10.2h3.1z"/><path id="path135" d="m181.6 517.3-6.3 13.7h-2.3l1-7.8c0.1-0.3 0.2-0.7 0.3-1.3-0.1 0.3-0.2 0.7-0.5 1.3l-3.7 7.8h-2.2l1.9-13.7h2.3l-1.2 8.1c-0.1 0.3-0.2 0.7-0.3 1.3 0.1-0.3 0.2-0.7 0.5-1.3l3.8-8.1h1.9l-1.1 8.1c-0.1 0.3-0.2 0.7-0.3 1.3 0.1-0.3 0.2-0.7 0.5-1.3l3.6-8.1h2.1z"/><path id="path137" d="m185.1 531h-6.3l4.1-13.7h6.3l-0.5 1.8h-4l-1.2 4h3.4l-0.5 1.8h-3.4l-1.3 4.3h4.1l-0.7 1.8z"/><path id="path139" d="m194.5 531h-2.4l-0.6-6.4 0.4-1.2h2.2l1.3-4.3h-2.9l-3.6 12h-2.3l4.1-13.7h6.1c0.9 0 1.3 0.4 1 1.3l-1.5 5c-0.2 0.6-0.5 1-1 1.1-0.3 0.1-0.8 0.1-1.5 0.1l0.7 6.1z"/></g></g><g id="g141" fill="#4e4e51"><path id="path143" d="m295.2 661.3h-4.1l3.4-12.5h4.1l-0.3 1h-3l-1.3 4.7h2.7l-0.3 1h-2.7l-1.3 4.9h3l-0.2 0.9z"/><path id="path145" d="m301.6 660.4c-0.1 0.3-0.2 0.5-0.4 0.6-0.2 0.2-0.4 0.2-0.7 0.2h-2.9c-0.3 0-0.5-0.1-0.6-0.2-0.1-0.2-0.1-0.4-0.1-0.6l0.9-3.2h1.1l-0.8 3.1h2.5l3.1-11.5h1.1l-3.2 11.6z"/><path id="path147" d="m307.5 661.3h-4.1l3.4-12.5h4.1l-0.3 1h-3l-1.3 4.7h2.7l-0.3 1h-2.7l-1.3 4.9h3l-0.2 0.9z"/><path id="path149" d="m314.5 660.4c-0.1 0.3-0.2 0.5-0.4 0.6-0.2 0.2-0.5 0.2-0.7 0.2h-3.2c-0.3 0-0.5-0.1-0.6-0.2-0.1-0.2-0.1-0.4-0.1-0.6l2.9-10.8c0.1-0.3 0.2-0.5 0.4-0.6 0.2-0.2 0.4-0.2 0.7-0.2h3.2c0.3 0 0.5 0.1 0.6 0.2 0.1 0.2 0.2 0.4 0.1 0.6l-0.8 2.9h-1.1l0.8-2.8h-2.8l-2.8 10.6h2.8l0.8-3.1h1.1l-0.9 3.2z"/><path id="path151" d="m323.6 649.7h-1.9l-3.1 11.5h-1.1l3.1-11.5h-2l0.3-1h5l-0.3 1z"/></g></g><g id="g3486" transform="matrix(.47205 0 0 .47205 408.2 266.65)"><path id="path3488" d="m517.6 64h-514.2c-1.2 0-2.1-1-2.1-2.1v-41.8c0-2.5 2.1-4.6 4.6-4.6h511.8c1.2 0 2.1 1 2.1 2.1v44.3c0 1.1-1 2.1-2.2 2.1z" fill="#807887"/><path id="path3490" d="m514 118.6h-509.5c-2.5 0-4.5-2-4.5-4.5v-39.6c0-2.5 2-4.5 4.5-4.5h509.5c2.5 0 4.5 2 4.5 4.5v39.6c0 2.4-2 4.5-4.5 4.5z" fill="#807887"/><rect id="rect3492" x="6.2" y="64" width="508.7" height="2.4" fill="#48434b"/><rect id="rect3494" x="6.2" y="66.4" width="508.7" height="3.6" fill="#746c7a"/><rect id="rect3496" x="4.9" y="118.6" width="508.7" height="2.4" fill="#48434b"/><rect id="rect3498" x="4.9" y="121" width="508.7" height="3.6" fill="#746c7a"/><path id="path3500" d="m514 173.1h-509.5c-2.5 0-4.5-2-4.5-4.5v-39.6c0-2.5 2-4.5 4.5-4.5h509.5c2.5 0 4.5 2 4.5 4.5v39.6c0 2.5-2 4.5-4.5 4.5z" fill="#807887"/><rect id="rect3502" x="4.9" y="173.1" width="508.7" height="2.4" fill="#48434b"/><rect id="rect3504" x="4.9" y="175.5" width="508.7" height="3.6" fill="#746c7a"/><path id="path3506" d="m514 227.7h-509.5c-2.5 0-4.5-2-4.5-4.5v-39.6c0-2.5 2-4.5 4.5-4.5h509.5c2.5 0 4.5 2 4.5 4.5v39.6c0 2.5-2 4.5-4.5 4.5z" fill="#807887"/><rect id="rect3508" x="4.9" y="227.7" width="508.7" height="2.4" fill="#48434b"/><rect id="rect3510" x="4.9" y="230.1" width="508.7" height="3.6" fill="#746c7a"/><path id="path3512" d="m514 280.4h-509.5c-2.5 0-4.5-2-4.5-4.5v-39.6c0-2.5 2-4.5 4.5-4.5h509.5c2.5 0 4.5 2 4.5 4.5v39.6c0 2.5-2 4.5-4.5 4.5z" fill="#807887"/><rect id="rect3514" x="4.9" y="280.4" width="508.7" height="2.4" fill="#48434b"/><rect id="rect3516" x="4.9" y="282.8" width="508.7" height="3.6" fill="#746c7a"/><path id="path3518" d="m514 336.6h-509.5c-2.5 0-4.5-2-4.5-4.5v-41.2c0-2.5 2-4.5 4.5-4.5h509.5c2.5 0 4.5 2 4.5 4.5v41.2c0 2.5-2 4.5-4.5 4.5z" fill="#807887"/><path id="path3520" d="m440.8 336.5h-360.6v-324c0-6.6 5.4-12 12-12h336.7c6.6 0 12 5.4 12 12v324z" fill="#807886"/><rect id="rect3522" x="213.8" y="203.1" width="93.3" height="9.5" fill="#6a626e"/><rect id="rect3524" x="213.8" y="212.6" width="93.3" height="9.5" fill="#6f6774"/><rect id="rect3526" x="213.8" y="222.1" width="93.3" height="9.5" fill="#797180"/><rect id="rect3528" x="213.8" y="231.6" width="93.3" height="9.5" fill="#827988"/><rect id="rect3530" x="213.8" y="241.1" width="93.3" height="9.5" fill="#7f7785"/><rect id="rect3532" x="213.8" y="250.6" width="93.3" height="9.5" fill="#847c8b"/><rect id="rect3534" x="213.8" y="260.1" width="93.3" height="9.5" fill="#89808e"/><rect id="rect3536" x="213.8" y="269.5" width="93.3" height="9.5" fill="#908996"/><rect id="rect3538" x="213.8" y="279" width="93.3" height="9.5" fill="#8d8693"/><rect id="rect3540" x="213.8" y="288.5" width="93.3" height="9.5" fill="#8c8391"/><rect id="rect3542" x="213.8" y="298" width="93.3" height="9.5" fill="#847d8b"/><path id="path3544" d="m215.3 202.5h-3.8v91c2.9-28.9 6.3-59.4 3.8-91z" fill="#4b474f"/><path id="path3546" d="m305.7 202.5h3.8v91c-2.9-28.9-6.3-59.4-3.8-91z" fill="#4b474f"/><g id="g3548"><circle id="circle3550" cx="46.6" cy="314.1" r="9.8" fill="#201c24"/><polygon id="polygon3552" points="47.4 308.5 52.1 312.5 51 318.5 45.2 320.6 40.6 316.6 41.7 310.6" fill="none" stroke="#000" stroke-miterlimit="10"/><polyline id="polyline3554" points="51.3 316.6 40.6 316.6 41.7 310.6 47.4 308.5 52.1 312.5 51.3 316.6" fill="#5e585e"/><polyline id="polyline3556" points="51.3 316.6 40.6 316.6 45.2 320.6 51 318.5 51.3 316.6" fill="#2a2727"/></g><g id="g3558"><circle id="circle3560" cx="474.4" cy="314.1" r="9.8" fill="#201c24"/><polygon id="polygon3562" points="473.6 308.5 468.9 312.5 470 318.5 475.8 320.6 480.4 316.6 479.3 310.6" fill="none" stroke="#000" stroke-miterlimit="10"/><polyline id="polyline3564" points="469.7 316.6 480.4 316.6 479.3 310.6 473.6 308.5 468.9 312.5 469.7 316.6" fill="#5e585e"/><polyline id="polyline3566" points="469.7 316.6 480.4 316.6 475.8 320.6 470 318.5 469.7 316.6" fill="#2a2727"/></g><path id="path3568" d="m96.8 214.6c0-6.6 5.4-12 12-12h303.3c6.6 0 12 5.4 12 12" fill="none" stroke="#665f6b" stroke-miterlimit="10"/><path id="path3570" d="m424.2 214.5c0-6.6-5.4-10.7-12-10.7h-303.4c-6.6 0-12 4.1-12 10.7 0-6.6 5.4-12 12-12h303.3c6.7 0 12.1 5.4 12.1 12z"/><g id="g3572"><polygon id="polygon3574" points="424.7 337.1 96.3 337.1 96.3 214.6 97.3 214.6 97.3 336.1 423.7 336.1 423.7 214.6 424.7 214.6" fill="#4b474f"/></g><g id="g3576"><path id="path3578" d="m441.3 337h-361.6v-324.5c0-6.9 5.6-12.5 12.5-12.5h336.7c6.9 0 12.5 5.6 12.5 12.5v324.5zm-360.6-1h359.7v-323.5c0-6.3-5.2-11.5-11.5-11.5h-336.7c-6.3 0-11.5 5.2-11.5 11.5v323.5z" fill="#4b474f"/></g><path id="path3580" d="m410.1 151h-299.2c-6.6 0-12-5.4-12-12v-138.5h323.2v138.5c0 6.6-5.4 12-12 12z"/><g id="g3582"><path id="path3584" d="m120.9 105.8c7.1 0 12.9 4 12.9 9s-5.8 9-12.9 9-12.9-4-12.9-9 5.8-9 12.9-9z" fill="#fff"/><g id="g3586"><g id="g3588" fill="#a58252"><path id="path3590" d="m118.1 120.1h0.4c0 0.1 0 0.2 0.1 0.3s0.2 0.1 0.3 0.1 0.2 0 0.3-0.1c0.1 0 0.1-0.1 0.1-0.2s0-0.1-0.1-0.2c0 0-0.1-0.1-0.2-0.1h-0.3c-0.2 0-0.4-0.1-0.4-0.2-0.1-0.1-0.1-0.2-0.1-0.4s0.1-0.4 0.2-0.5 0.3-0.2 0.5-0.2 0.4 0.1 0.6 0.2c0.1 0.1 0.2 0.3 0.2 0.5h-0.4c0-0.1 0-0.2-0.1-0.2-0.1-0.1-0.2-0.1-0.3-0.1s-0.2 0-0.3 0.1c-0.1 0-0.1 0.1-0.1 0.2s0 0.1 0.1 0.1c0 0 0.1 0.1 0.3 0.1h0.3c0.2 0 0.3 0.1 0.4 0.2s0.1 0.3 0.1 0.4c0 0.2-0.1 0.4-0.2 0.6-0.1 0.1-0.3 0.2-0.6 0.2s-0.5-0.1-0.6-0.2c-0.1-0.2-0.2-0.4-0.2-0.6z"/><path id="path3592" d="m121.3 120.3c0 0.2-0.1 0.3-0.2 0.4s-0.3 0.2-0.4 0.2c-0.2 0-0.4-0.1-0.5-0.2-0.1-0.2-0.2-0.4-0.2-0.6 0-0.3 0.1-0.5 0.2-0.6 0.1-0.2 0.3-0.2 0.5-0.2s0.4 0.1 0.5 0.2c0.1 0.2 0.2 0.4 0.2 0.7v0.1h-1c0 0.1 0 0.2 0.1 0.3s0.1 0.1 0.2 0.1 0.1 0 0.2-0.1c0 0 0.1-0.1 0.1-0.2l0.3-0.1zm-1-0.5h0.6c0-0.1 0-0.2-0.1-0.2-0.1-0.1-0.1-0.1-0.2-0.1s-0.2 0-0.2 0.1c0 0-0.1 0.1-0.1 0.2z"/><path id="path3594" d="m122.8 120.6v0.1 0.1h-0.4v-0.2l-0.2 0.2c-0.1 0-0.2 0.1-0.3 0.1-0.2 0-0.3 0-0.4-0.1s-0.1-0.2-0.1-0.4 0-0.3 0.1-0.3c0.1-0.1 0.2-0.1 0.4-0.2h0.1c0.2 0 0.3-0.1 0.3-0.2s0-0.1-0.1-0.1h-0.2c-0.1 0-0.2 0-0.2 0.1 0 0-0.1 0.1-0.1 0.2h-0.4c0-0.2 0.1-0.3 0.2-0.4s0.3-0.2 0.5-0.2h0.3c0.1 0 0.1 0.1 0.2 0.1 0 0 0.1 0.1 0.1 0.2v0.3l0.2 0.7zm-0.3-0.6s-0.1 0.1-0.3 0.1c-0.1 0-0.2 0-0.3 0.1l-0.1 0.1c0 0.1 0 0.1 0.1 0.2l0.1 0.1c0.1 0 0.2 0 0.3-0.1 0.1-0.2 0.2-0.3 0.2-0.5v0z"/><path id="path3596" d="m123.2 120.8v-2.2h0.4v2.2h-0.4z"/></g></g><path id="path3598" d="m135.3 114.8 1.5 1.6-2.2 1.3 0.6 2.6-2.4 0.1-0.2 2.8-2.6-0.7-0.4 2.6-2.4-1-1.3 2.3-1.9-1.6-1.7 2.3-1.8-2-2 1.9-1.3-2.2-2.4 1.4-0.8-2.5-2.7 1.1-0.4-2.4-2.4 0.2 0.4-2.5h-2.5l0.6-2.7-1.9-1.1 1.5-1.8-1.4-2.4 2.3-0.7-0.6-2.6h2.5l0.3-2.6 2.2 0.7 0.7-2.5 2.3 1.2 0.9-2.2 2 1.4 1.4-2.1 1.8 1.8 1.6-1.7 1.4 2.1 2.2-1.4 0.9 2.3 2.2-1.1 0.6 2.5 2.7-0.5-0.1 2.4 2.7 0.3-0.8 2.3 2.3 1-1.4 2.1zm-1.6 0c0-5-5.8-9-12.9-9s-12.9 4-12.9 9 5.8 9 12.9 9 12.9-4.1 12.9-9z" fill="#a58252"/><g id="g3600"><g id="g3602" fill="#a58252"><path id="path3604" d="m116.6 110.1c0-0.6 0.3-0.7 0.6-0.7 0.2 0 0.6 0.1 0.6 0.7s-0.3 0.7-0.6 0.7c-0.3 0.1-0.6-0.1-0.6-0.7zm-0.4 0c0 1 0.7 1.1 1 1.1s1-0.1 1-1.1-0.7-1.1-1-1.1-1 0.1-1 1.1z"/><path id="path3606" d="m118.9 111.2h-0.4v-1.3h-0.2v-0.3h0.2v-0.1c0-0.3 0.2-0.5 0.5-0.5h0.2v0.3h-0.1c-0.1 0-0.1 0-0.1 0.2v0.1h0.3v0.3h-0.3l-0.1 1.3z"/><path id="path3608" d="m119.9 111.2h-0.4v-1.3h-0.2v-0.3h0.2v-0.1c0-0.3 0.2-0.5 0.5-0.5h0.2v0.3h-0.2c-0.1 0-0.1 0-0.1 0.2v0.1h0.3v0.3h-0.3v1.3z"/><path id="path3610" d="m120.7 109.6v1.6h-0.4v-1.6h0.4zm0-0.2h-0.4v-0.4h0.4v0.4z"/><path id="path3612" d="m122.4 110.6c0 0.2-0.1 0.6-0.7 0.6s-0.7-0.5-0.7-0.8c0-0.5 0.2-0.9 0.8-0.9 0.2 0 0.7 0.1 0.7 0.6h-0.5c0-0.1-0.1-0.3-0.3-0.3-0.3 0-0.3 0.3-0.3 0.5s0 0.5 0.3 0.5c0.2 0 0.3-0.2 0.3-0.3l0.4 0.1z"/><path id="path3614" d="m123.1 109.6v1.6h-0.4v-1.6h0.4zm0-0.2h-0.4v-0.4h0.4v0.4z"/><path id="path3616" d="m124.3 110.6c0 0.2-0.2 0.3-0.4 0.3-0.1 0-0.2 0-0.2-0.2s0.1-0.2 0.3-0.2 0.2-0.1 0.3-0.1v0.2zm0.4-0.6c0-0.4-0.4-0.5-0.6-0.5-0.3 0-0.7 0.1-0.7 0.6h0.4c0-0.1 0-0.2 0.3-0.2 0.1 0 0.3 0 0.3 0.2 0 0.1-0.1 0.1-0.1 0.1l-0.4 0.1c-0.3 0-0.5 0.2-0.5 0.5s0.2 0.5 0.5 0.5 0.4-0.1 0.5-0.2v0.2h0.4v-0.1c-0.1 0-0.1-0.1-0.1-0.2v-1z"/><polygon id="polygon3618" points="125.4 111.2 125 111.2 125 109.1 125.4 109.1"/></g></g><path id="path3620" d="m120.9 123c6.7 0 12.1-3.7 12.1-8.2s-5.4-8.2-12.1-8.2-12.1 3.7-12.1 8.2 5.4 8.2 12.1 8.2zm-11.8-8.2c0-4.4 5.3-7.9 11.8-7.9s11.8 3.6 11.8 7.9-5.3 7.9-11.8 7.9-11.8-3.6-11.8-7.9z" fill="#a58252"/><g id="g3622"><g id="g3624" fill="#a58252"><path id="path3626" d="m128.5 117.5c1.4 0 2.6-1.1 2.6-2.6 0-1.4-1.1-2.6-2.6-2.6h-15.3c-1.4 0-2.6 1.1-2.6 2.6 0 1.4 1.1 2.6 2.6 2.6h15.3zm-15.3-0.6c-1 0-1.9-0.8-1.9-1.9 0-1 0.8-1.9 1.9-1.9h15.3c1 0 1.9 0.8 1.9 1.9 0 1-0.8 1.9-1.9 1.9h-15.3z"/><path id="path3628" d="m112.5 116.2v-2.4h0.8l1 1.6v-1.6h0.8v2.4h-0.8c-0.1-0.1-1-1.6-1-1.6v1.6h-0.8z"/><path id="path3630" d="m117.2 114.6c0.1 0 0.1 0 0 0h0.3c0.6-0.2 0.9 0.1 1 0.2 0.3 0.3 0.2 0.9 0.2 1.5h-0.8v-1.1c0-0.1-0.2-0.3-0.3-0.3-0.2 0-0.4 0.1-0.4 0.3v1.1h-0.8v-1.6l0.8-0.1z"/><polygon id="polygon3632" points="119.1 116.2 119.1 114.6 118.7 114.6 118.7 114.4 119.1 114.4 119.1 114.2 119.8 114.2 119.8 114.4 120.2 114.4 120.2 114.6 119.8 114.6 119.8 116.2"/><path id="path3634" d="m120.2 115.4c0-0.5 0.5-0.9 0.9-0.9 0.2 0 0.4 0 0.6 0.1 0.1 0.1 0.2 0.1 0.3 0.2 0.2 0.2 0.3 0.4 0.3 0.7h-1.3c0 0.2-0.1 0.7 0.2 0.7 0.1 0 0.2 0 0.3-0.1v-0.3h0.8c-0.2 0.4-0.6 0.6-1 0.6-0.3-0.2-1.1-0.2-1.1-1zm0.7-0.3h0.5v-0.2c0-0.1-0.1-0.2-0.3-0.2s-0.3 0.1-0.3 0.3c0.1 0 0.1 0.1 0.1 0.1z"/><path id="path3636" d="m127.3 115.7c-0.1-0.2-0.2-0.5 0-0.8 0.1-0.2 0.4-0.4 0.6-0.5s0.5-0.1 0.8 0c0.2 0.1 0.5 0.2 0.6 0.5 0.1 0.2 0.1 0.6 0 0.8-0.1 0.1-0.3 0.3-0.5 0.4s-0.6 0.1-0.8 0c-0.3 0-0.5-0.1-0.7-0.4zm1 0.3c0.2 0 0.3-0.2 0.3-0.3v-0.8c0-0.1-0.1-0.3-0.3-0.3-0.3 0-0.3 0.2-0.3 0.3v0.8c0 0.1 0.1 0.3 0.3 0.3z"/><path id="path3638" d="m127 116.2h-0.7v-0.1c-0.2 0.2-1 0.2-1.3-0.4 0-0.1-0.1-0.5 0-0.7 0.2-0.4 0.6-0.5 0.9-0.5 0.1 0 0.4 0.1 0.4 0.1v-0.9h0.7v2.5zm-0.8-0.4v-0.8c0-0.1 0-0.2-0.1-0.2-0.1-0.1-0.1-0.1-0.2-0.1-0.2 0-0.2 0.1-0.2 0.2v0.7c0 0.1 0 0.1 0.1 0.2 0.2 0.2 0.4 0.1 0.4 0z"/><polygon id="polygon3640" points="116.2 116.2 116.2 114.6 115.4 114.6 115.4 116.2"/><polygon id="polygon3642" points="116.2 114.3 116.2 113.8 115.4 113.8 115.4 114.3"/><path id="path3644" d="m123.3 114.6h0.3c0.6-0.2 0.9 0.1 1 0.2 0.3 0.3 0.2 0.9 0.2 1.5h-0.8v-1.1c0-0.1-0.2-0.3-0.3-0.3-0.2 0-0.4 0.1-0.4 0.3v1.1h-0.7v-1.6l0.7-0.1z"/><path id="path3646" d="m128.9 114.3-0.1-0.2h0.1c0.1 0 0.1 0 0.1 0.1 0 0 0 0.1-0.1 0.1l0.1 0.1h-0.1v-0.1zm0.1-0.1v0zm0 0.2c-0.1 0-0.2-0.1-0.2-0.2s0.1-0.2 0.2-0.2 0.2 0.1 0.2 0.2-0.1 0.2-0.2 0.2zm0-0.4c-0.1 0-0.2 0.1-0.2 0.2s0.1 0.2 0.2 0.2 0.2-0.1 0.2-0.2-0.1-0.2-0.2-0.2z"/></g></g></g><g id="g3648"><path id="path452" d="m108.2 40.5c-2.9 0-4.9-2.1-4.9-4.6s2-4.6 4.9-4.6h27.6c2.9 0 4.9 2.1 4.9 4.6s-2 4.6-4.9 4.6h-27.6z" fill="#ed1c24"/><path id="path454" d="m108.2 32.5c-2.3 0-3.7 1.6-3.7 3.5s1.4 3.5 3.7 3.5h27.6c2.3 0 3.7-1.6 3.7-3.5s-1.4-3.5-3.7-3.5h-27.6z" fill="#fff"/><path id="path456" d="m107 33.8h1.4l1.9 3v-3h1.3v4.3h-1.3l-1.9-3v3h-1.4v-4.3z" fill="#ed1c24"/><path id="path458" d="m118.8 34.2h1.3v0.6h0.7v0.4h-0.7v2.9h-1.3v-2.9h-0.7v-0.4h0.7v-0.6z" fill="#ed1c24"/><path id="path460" d="m112.3 35.2h1.3v2.9h-1.3v-2.9z" fill="#ed1c24"/><path id="path462" d="m112.3 33.8h1.3v0.9h-1.3v-0.9z" fill="#ed1c24"/><path id="path464" d="m135.1 35c-1.1 0-1.9 0.7-1.9 1.6s0.9 1.6 1.9 1.6c1.1 0 1.9-0.7 1.9-1.6 0.1-0.9-0.8-1.6-1.9-1.6m0.6 1.6v0.6c0 0.5-0.3 0.6-0.5 0.6-0.3 0-0.5-0.2-0.5-0.6v-0.6-0.6c0-0.5 0.3-0.6 0.5-0.6 0.3 0 0.5 0.2 0.5 0.6v0.6z" fill="#ed1c24"/><path id="path466" d="m131.5 36.6v-0.5c0-0.4-0.3-0.6-0.5-0.6s-0.5 0.1-0.5 0.6v0.5 0.5c0 0.4 0.3 0.6 0.5 0.6s0.5-0.1 0.5-0.6v-0.5zm0-2.8h1.3v4.3h-1.3v-0.2c-0.5 0.3-1.1 0.3-1.5 0.1-0.1-0.1-0.9-0.4-0.9-1.4 0-0.8 0.7-1.6 1.7-1.5 0.3 0 0.5 0.1 0.7 0.3v-1.6z" fill="#ed1c24"/><path id="path468" d="m116.7 35.1c0.5 0 1.5 0.3 1.5 1.4v1.6h-1.3v-1.9c0-0.3-0.2-0.5-0.6-0.5s-0.6 0.3-0.6 0.5v1.9h-1.3v-2.9h1.3v0.3c0.2-0.2 0.5-0.4 1-0.4" fill="#ed1c24"/><path id="path470" d="m127.3 35.1c0.5 0 1.5 0.3 1.5 1.4v1.6h-1.3v-1.9c0-0.3-0.2-0.5-0.6-0.5s-0.6 0.3-0.6 0.5v1.9h-1.3v-2.9h1.3v0.3c0.2-0.2 0.5-0.4 1-0.4" fill="#ed1c24"/><path id="path472" d="m123.2 37.1v0.2c0 0.5-0.3 0.6-0.5 0.6s-0.5-0.1-0.5-0.6v-0.6h2.5c0-0.9-0.9-1.6-1.9-1.6s-1.9 0.7-1.9 1.6 0.9 1.6 1.9 1.6c0.9 0 1.6-0.5 1.8-1.2h-1.4zm-1.1-0.9c0-0.3 0-0.4 0.1-0.6s0.3-0.3 0.5-0.3 0.4 0.1 0.5 0.3c0.1 0.1 0.1 0.3 0.1 0.6h-1.2z" fill="#ed1c24"/><path id="path474" d="m137.3 34.2c0.1 0 0.2 0 0.2-0.2 0-0.1-0.1-0.1-0.2-0.1h-0.2v0.3h0.2zm-0.2 0.6h-0.1v-1h0.4c0.2 0 0.3 0.1 0.3 0.3s-0.1 0.3-0.3 0.3l0.3 0.4h-0.2l-0.3-0.4h-0.2l0.1 0.4z" fill="#ed1c24"/><path id="path476" d="m137.3 35c0.4 0 0.7-0.3 0.7-0.7s-0.3-0.7-0.7-0.7-0.7 0.3-0.7 0.7 0.3 0.7 0.7 0.7m-0.8-0.7c0-0.5 0.4-0.9 0.9-0.9s0.9 0.4 0.9 0.9-0.4 0.9-0.9 0.9-0.9-0.4-0.9-0.9" fill="#ed1c24"/></g><g id="g3663"><path id="polyline2177" d="m327.4 124.2c-0.8 0-1.6 0.7-1.8 1.5v0.1 0.1 0.1 0.1 0.1 0.1 0.1 0.1 0.3 0.1 0.1 0.1 0.1 0.1 0.1 0.1 0.1 0.1c0 0.4 0 0.9 0.2 1 0.1 0.8 2.8 4.6 2.8 5.1-0.1 0.6-0.4 2.3-0.4 2.3-0.1 0.6-0.5 1-1.1 1s-1-0.5-0.9-1l0.5-2.8h-2l-0.7 3.9c-0.1 0.8 0.4 1.4 1.2 1.4h2.9c0.8 0 1.6-0.6 1.7-1.4 0 0 0.7-3.6 0.7-3.9s-0.1-0.3-0.1-0.3c0-0.3-2.4-4.3-2.6-4.4-0.1-0.1-0.2-0.5-0.2-0.7s0.3-1.8 0.3-1.8c0.1-0.6 0.6-1 1.2-1s0.8 0.5 0.7 1l-0.4 2.5h2l0.7-3.8c0.2-0.8-0.4-1.5-1.2-1.5h-3.5zm5.5 0-2.4 13.8c-0.1 0.8 0.4 1.4 1.2 1.4h2.9c0.8 0 1.6-0.6 1.7-1.4l2.6-13.8h-1.9l-2.4 13.5c0 0.2-0.2 0.4-0.4 0.4h-1.4c-0.2 0-0.3-0.2-0.3-0.4l2.4-13.5h-2zm6.9 0-2.9 15.3h1.9l1.3-6.9h2.4c0.8 0 1.6-0.6 1.7-1.4l1.1-5.4c0.2-0.8-0.4-1.5-1.2-1.5h-2.4-1.9zm6.9 0-3 15.3h4.3l0.3-1.9h-2.1l0.9-5.2h2.1l0.3-1.6h-2.1l0.9-4.7h2.1l0.3-1.9h-4zm5.1 0-2.9 15.3h1.9l1.3-6.9h1.4c0.2 0.2 0.2 0.5 0.2 0.6 0 0.2 0.1 0.5 0 0.7 0 0.2-1.1 5.5-1.1 5.5h1.9s1.1-5.8 1.1-5.9 0-0.4-0.1-0.6c-0.1-0.1-0.2-0.3-0.3-0.4-0.3-0.2-0.6-0.3-0.6-0.3h-0.1c0.6-0.2 1.6-0.6 1.7-1.2l1.1-5.4c0.2-0.8-0.4-1.5-1.2-1.5h-4.3zm10.3 0-2.9 15.3h2.2l1.8-8.8 0.7 8.8h1.9l2.9-15.3h-2.2l-1.5 8-1-8h-1.9zm7.7 0-2.9 15.3h1.9l2.9-15.3h-1.9zm2.9 0-2.9 15.3h2.2l1.8-8.8 0.7 8.8h1.9l2.9-15.3h-2.2l-1.5 8-1-8h-1.9zm7.4 0-0.4 1.9h1.2l-2.4 13.4h2.2l2.4-13.4h1.2l0.3-1.9h-4.5zm5.3 0-3 15.3h4.3l0.3-1.9h-2.1l0.9-5.2h2.1l0.3-1.6h-2.1l0.9-4.7h2.1l0.3-1.9h-4zm4.9 0-2.9 15.3h2.2l1.8-8.8 0.7 8.8h1.9l2.9-15.3h-2.2l-1.5 8-1-8h-1.9zm7.6 0-2.9 15.3h4.4c0.8 0 1.6-0.6 1.7-1.4l2.3-12.3c0.2-0.8-0.4-1.5-1.2-1.5h-4.3zm8.3 0c-0.8 0-1.6 0.7-1.8 1.5l-2.1 12.3c-0.1 0.8 0.4 1.4 1.2 1.4h3.2c0.8 0 1.6-0.6 1.7-1.4l2.3-12.3c0.2-0.8-0.4-1.5-1.2-1.5h-3.3zm-6.6 1.7h0.9c0.6 0 1 0.5 0.9 1l-1.9 10c-0.1 0.6-0.6 1-1.2 1h-0.9l2.2-12zm7.7 0c0.6 0 1 0.5 0.9 1l-1.8 10c-0.1 0.6-0.6 1-1.2 1s-0.8-0.5-0.7-1l1.8-10v-0.1-0.1h0.1l0.9-0.8zm-65.6 0.1h0.9c0.2 0 0.6 0.5 0.6 0.7l-0.8 3.8c0 0.2-0.3 0.6-0.5 0.6h-1.1v-0.1l0.9-4.6c-0.2-0.4-0.1-0.4 0-0.4zm11.9 0h0.9c0.2 0 0.6 0.5 0.6 0.7l-0.8 3.8c0 0.2-0.5 0.7-0.7 0.7h-0.8c-0.2 0-0.3-0.1-0.3-0.3v-0.1l0.9-4.6 0.2-0.2zm-30.5 14.8v5h85.7v-5h-85.7zm63 0.5h0.7c0.2 0 0.3 0.1 0.3 0.3l-0.2 0.8h-0.4l0.1-0.6c0-0.1-0.1-0.2-0.2-0.2s-0.2 0.1-0.3 0.2l-0.1 0.4v0.2c0.1 0 0.6 0.9 0.6 1v0.1c0 0.1-0.2 0.9-0.2 0.9 0 0.2-0.2 0.3-0.4 0.3h-0.6c-0.2 0-0.3-0.1-0.3-0.3l0.2-0.9h0.4l-0.1 0.6c0 0.1 0.1 0.2 0.2 0.2s0.3-0.1 0.3-0.2l0.1-0.5c-0.1-0.2-0.6-1-0.6-1.1v-0.2c0-0.1 0.1-0.6 0.1-0.6l0.4-0.4zm3.5 0h0.5l0.1 1.3 0.7-1.3h0.5l-1.1 2-0.3 1.4h-0.5l0.2-1.5-0.1-1.9zm4.9 0h0.7c0.2 0 0.3 0.1 0.3 0.3l-0.2 0.8h-0.4l0.1-0.6c0-0.1-0.1-0.2-0.2-0.2s-0.3 0.1-0.3 0.2l-0.1 0.4v0.2c0.1 0 0.6 0.9 0.6 1v0.1c0 0.1-0.2 0.9-0.2 0.9 0 0.2-0.2 0.3-0.4 0.3h-0.4c-0.2 0-0.3-0.1-0.3-0.3l0.2-0.9h0.4l-0.1 0.6c0 0.1 0.1 0.2 0.2 0.2s0.2-0.1 0.3-0.2l0.1-0.5c-0.1-0.2-0.6-1-0.6-1.1v-0.2c0-0.1 0.1-0.6 0.1-0.6l0.2-0.4zm3.5 0h1l-0.1 0.4h-0.3l-0.5 3h-0.5l0.5-3h-0.3l0.2-0.4zm3.9 0h0.9l-0.1 0.4h-0.5l-0.2 1.1h0.5l-0.1 0.3h-0.4l-0.2 1.1h0.5l-0.1 0.4h-1l0.7-3.3zm3.7 0h0.6l0.1 2 0.9-1.9h0.5l-0.6 3.4h-0.4l0.3-1.8-0.8 1.8h-0.3l-0.1-1.8-0.3 1.8h-0.5l0.6-3.5zm-80.6 0.1h0.9l-0.1 0.4h-0.5l-0.2 1.1h0.5l-0.1 0.4h-0.5l-0.2 1.1h0.5l-0.1 0.4h-1l0.8-3.4zm4.1 0h0.4l0.2 1.8 0.3-1.8h0.5l-0.6 3.4h-0.4l-0.2-2-0.4 2h-0.5l0.7-3.4zm4.5 0h1l-0.1 0.4h-0.3l-0.5 3h-0.5l0.5-3h-0.3l0.2-0.4zm4.4 0h0.9l-0.1 0.4h-0.5l-0.2 1.1h0.5l-0.1 0.4h-0.5l-0.2 1.1h0.5l-0.1 0.4h-1l0.8-3.4zm4.2 0h1c0.2 0 0.3 0.2 0.3 0.3l-0.2 1.2c0 0.1-0.3 0.2-0.4 0.3v0.2l-0.2 1.3h-0.4l0.2-1.2v-0.2-0.1h-0.3l-0.3 1.5h-0.4l0.7-3.3zm4.3 0h1l-0.1 0.4h-0.3l-0.5 3h-0.5l0.5-3h-0.3l0.2-0.4zm5 0h0.6l-0.2 3.4h-0.6l0.1-0.8h-0.3l-0.3 0.8h-0.5l1.2-3.4zm4 0h0.4l-0.6 3.4h-0.4l0.6-3.4zm3.9 0h0.4l0.2 1.8 0.3-1.8h0.5l-0.6 3.4h-0.4l-0.2-2-0.4 2h-0.5l0.7-3.4zm5 0h0.6l0.1 2 0.9-2h0.5l-0.6 3.4h-0.4l0.3-1.8-0.8 1.8h-0.3l-0.1-1.8-0.3 1.8h-0.5l0.6-3.4zm5.4 0h0.9l-0.1 0.4h-0.5l-0.2 1.1h0.5l-0.1 0.4h-0.5l-0.2 1.1h0.5l-0.1 0.4h-0.9l0.7-3.4zm4.4 0h0.4l0.2 1.8 0.3-1.8h0.5l-0.6 3.4h-0.4l-0.2-2-0.4 2h-0.5l0.7-3.4zm4.4 0h1l-0.1 0.4h-0.3l-0.5 3h-0.5l0.5-3h-0.3l0.2-0.4zm-36 0.4-0.3 1.1s0 0.1 0.1 0.1h0.2l0.2-0.1 0.2-0.8-0.1-0.2-0.3-0.1zm8.9 1-0.3 0.9h0.2l0.1-0.9z" fill="#c40000"/></g><g id="g3666" fill="#7f7f7f"><rect id="rect3668" x="365" y="63.3" width="44.9" height="1.2"/><rect id="rect3670" x="365" y="66.4" width="26.6" height="1.2"/><rect id="rect3672" x="365" y="69.5" width="19" height="1.2"/><rect id="rect3674" x="365" y="72.5" width="13.8" height="1.2"/><rect id="rect3676" x="365" y="75.4" width="10" height="1.2"/><rect id="rect3678" x="365" y="78.4" width="6" height="1.2"/><rect id="rect3680" x="365" y="81.4" width="3" height="1.2"/><rect id="rect3682" x="365" y="84.4" width="1" height="1.2"/><rect id="rect3684" x="397" y="66.4" width="12.9" height="1.2"/><rect id="rect3686" x="389.1" y="69.5" width="20.8" height="1.2"/><rect id="rect3688" x="384" y="72.5" width="25.9" height="1.2"/><rect id="rect3690" x="380.1" y="75.4" width="29.8" height="1.2"/><rect id="rect3692" x="407" y="78.4" width="2.9" height="1.2"/><rect id="rect3694" x="391" y="78.4" width="11" height="1.2"/><rect id="rect3696" x="376" y="78.4" width="9.9" height="1.2"/><rect id="rect3698" x="407" y="81.4" width="2.9" height="1.2"/><rect id="rect3700" x="391" y="81.4" width="6" height="1.2"/><rect id="rect3702" x="373" y="81.4" width="8" height="1.2"/><rect id="rect3704" x="405" y="84.4" width="4.9" height="1.2"/><rect id="rect3706" x="389.1" y="84.4" width="3.8" height="1.2"/><rect id="rect3708" x="371" y="84.4" width="6" height="1.2"/><rect id="rect3710" x="403" y="87.4" width="7" height="1.2"/><rect id="rect3712" x="387" y="87.4" width="4" height="1.2"/><rect id="rect3714" x="368" y="87.4" width="7" height="1.2"/><rect id="rect3716" x="400" y="90.4" width="9.9" height="1.2"/><rect id="rect3718" x="384" y="90.4" width="4.9" height="1.2"/><rect id="rect3720" x="366" y="90.4" width="6.9" height="1.2"/><rect id="rect3722" x="365" y="96.5" width="44.9" height="1.2"/><rect id="rect3724" x="404" y="99.4" width="5.9" height="1.2"/><rect id="rect3726" x="386" y="99.4" width="8.8" height="1.2"/><rect id="rect3728" x="402" y="102.4" width="7.8" height="1.2"/><rect id="rect3730" x="385" y="102.4" width="6" height="1.2"/><rect id="rect3732" x="400" y="105.4" width="9.8" height="1.2"/><rect id="rect3734" x="383" y="105.4" width="6" height="1.2"/><rect id="rect3736" x="398" y="108.4" width="11.9" height="1.2"/><rect id="rect3738" x="381" y="108.4" width="5.9" height="1.2"/><rect id="rect3740" x="395" y="111.4" width="14.9" height="1.2"/><rect id="rect3742" x="378" y="111.4" width="7" height="1.2"/><rect id="rect3744" x="390" y="114.4" width="19.9" height="1.2"/><rect id="rect3746" x="374" y="114.4" width="11" height="1.2"/><rect id="rect3748" x="365" y="117.4" width="44.9" height="1.2"/><rect id="rect3750" x="397" y="93.4" width="13" height="1.2"/><rect id="rect3752" x="365" y="93.4" width="6.9" height="1.2"/><rect id="rect3754" x="381" y="93.4" width="7" height="1.2"/><rect id="rect3756" x="365" y="99.4" width="13.9" height="1.2"/><rect id="rect3758" x="365" y="102.4" width="10" height="1.2"/><rect id="rect3760" x="365" y="105.4" width="7" height="1.2"/><rect id="rect3762" x="365" y="108.4" width="3.9" height="1.2"/><rect id="rect3764" x="365" y="111.4" width="2.9" height="1.2"/><rect id="rect3766" x="365" y="114.4" width="2" height="1.2"/></g><g id="g3768" fill="#fff"><path id="path3770" d="m105.3 21.6v-4.7h1v3.9h2.4v0.8h-3.4z"/><path id="path3772" d="m109.4 21.6v-4.8h1v4.8h-1z"/><path id="path3774" d="m114.3 19.8 0.9 0.3c-0.1 0.5-0.4 0.9-0.7 1.2s-0.8 0.4-1.3 0.4c-0.6 0-1.2-0.2-1.6-0.6s-0.6-1-0.6-1.8 0.2-1.4 0.6-1.9c0.4-0.4 1-0.7 1.6-0.7s1.1 0.2 1.4 0.5c0.2 0.2 0.4 0.5 0.5 0.9l-1 0.2c-0.1-0.2-0.2-0.4-0.4-0.6-0.2-0.1-0.4-0.2-0.7-0.2-0.4 0-0.6 0.1-0.9 0.4-0.2 0.3-0.3 0.7-0.3 1.2 0 0.6 0.1 1 0.3 1.3s0.5 0.4 0.9 0.4c0.3 0 0.5-0.1 0.7-0.2 0.4-0.2 0.6-0.4 0.6-0.8z"/><path id="path3776" d="m116.1 21.6v-4.8h3.6v0.8h-2.6v1.1h2.4v0.8h-2.4v1.3h2.7v0.8h-3.7z"/><path id="path3778" d="m120.6 21.6v-4.8h0.9l2 3.2v-3.2h0.9v4.8h-1l-1.9-3.1v3.1h-0.9z"/><path id="path3780" d="m128.5 19.8 0.9 0.3c-0.1 0.5-0.4 0.9-0.7 1.2s-0.8 0.4-1.3 0.4c-0.6 0-1.2-0.2-1.6-0.6s-0.6-1-0.6-1.8 0.2-1.4 0.6-1.9c0.4-0.4 1-0.7 1.6-0.7s1.1 0.2 1.4 0.5c0.2 0.2 0.4 0.5 0.5 0.9l-1 0.2c-0.1-0.2-0.2-0.4-0.4-0.6-0.2-0.1-0.4-0.2-0.7-0.2-0.4 0-0.6 0.1-0.9 0.4-0.2 0.3-0.3 0.7-0.3 1.2 0 0.6 0.1 1 0.3 1.3s0.5 0.4 0.9 0.4c0.3 0 0.5-0.1 0.7-0.2 0.4-0.2 0.6-0.4 0.6-0.8z"/><path id="path3782" d="m130.3 21.6v-4.8h3.6v0.8h-2.6v1.1h2.4v0.8h-2.4v1.3h2.7v0.8h-3.7z"/><path id="path3784" d="m134.8 16.8h1.8c0.4 0 0.7 0 0.9 0.1 0.3 0.1 0.5 0.2 0.7 0.4s0.4 0.5 0.5 0.8 0.2 0.7 0.2 1.1 0 0.7-0.1 1-0.3 0.6-0.5 0.8-0.4 0.3-0.7 0.4c-0.2 0.1-0.5 0.1-0.9 0.1h-1.8v-4.7zm1 0.8v3.2h0.7 0.6c0.2 0 0.3-0.1 0.4-0.2s0.2-0.2 0.3-0.5c0.1-0.2 0.1-0.5 0.1-0.9s0-0.7-0.1-0.9-0.2-0.4-0.3-0.5-0.3-0.2-0.4-0.2h-0.8-0.5z"/><path id="path3786" d="m117.9 24.8h1.9 0.9c0.2 0 0.4 0.1 0.5 0.2s0.3 0.2 0.4 0.4 0.1 0.4 0.1 0.6-0.1 0.4-0.2 0.6-0.3 0.3-0.5 0.4c0.3 0.1 0.5 0.2 0.7 0.4s0.2 0.4 0.2 0.7c0 0.2-0.1 0.4-0.2 0.6s-0.2 0.4-0.4 0.5-0.4 0.2-0.7 0.2h-1.2-1.6v-4.6zm0.9 0.8v1.1h0.6 0.7c0.2 0 0.3-0.1 0.4-0.2s0.1-0.2 0.1-0.4c0-0.1 0-0.3-0.1-0.4s-0.2-0.1-0.4-0.2h-0.8-0.5zm0 1.9v1.3h0.9 0.7c0.1 0 0.3-0.1 0.4-0.2s0.1-0.2 0.1-0.4c0-0.1 0-0.3-0.1-0.4s-0.2-0.2-0.3-0.2-0.4-0.1-0.9-0.1h-0.8z"/><path id="path3788" d="m124 29.6v-2l-1.8-2.8h1.1l1.1 1.9 1.1-1.9h1.1l-1.8 2.8v2h-0.8z"/></g></g></svg>
