<?xml version="1.0" encoding="UTF-8"?>
<!-- Generator: Adobe Illustrator 19.0.0, SVG Export Plug-In . SVG Version: 6.00 Build 0)  -->
<svg id="Layer_1" width="911.36" height="449" version="1.1" viewBox="0 0 911.36 449" xml:space="preserve" xmlns="http://www.w3.org/2000/svg" xmlns:cc="http://creativecommons.org/ns#" xmlns:dc="http://purl.org/dc/elements/1.1/" xmlns:rdf="http://www.w3.org/1999/02/22-rdf-syntax-ns#"><metadata id="metadata579"><rdf:RDF><cc:Work rdf:about=""><dc:format>image/svg+xml</dc:format><dc:type rdf:resource="http://purl.org/dc/dcmitype/StillImage"/><dc:title/></cc:Work></rdf:RDF></metadata><g id="g3"><g id="g5"><path id="path7" d="m391.8 0h-255c-6.6 0-12 5.4-12 12v242.4c0 6.6 5.4 12 12 12h255.1c6.6 0 12-5.4 12-12v-242.4c-0.1-6.6-5.5-12-12.1-12z" fill="#2b2b2b"/><g id="g9"><g id="g11"><path id="path13" d="m204.6 8.3h5.5v1.8h-1.7v19.5h-1.9v-19.5h-1.9v-1.8z" fill="#4e4e4e"/><g id="g15"><path id="path17" d="m313.1 11.5c2.5-0.4 5.1 0.2 7.1 1.7 1.5 1.1 2.6 2.6 3.2 4.3 0.7 2 0.8 4.2 0.1 6.2-0.6 1.8-1.7 3.3-3.2 4.5-1.6 1.2-3.7 1.9-5.7 1.9-3.1 0-6.1-1.6-7.7-4.1-1.7-2.6-2.1-6-0.8-8.9 1.1-2.9 3.9-5.1 7-5.6zm-4.8 5.3v1.1h1v5.9h-1v1.1h3.1v-1.1h-1v-7h-2.1zm4.1 0.7v6.6c0.2 0.3 0.5 0.5 0.7 0.7h7c0.3-0.3 0.8-0.6 0.7-1v-2.8c-0.1-0.3-0.4-0.4-0.6-0.6h-6.8v-2.5h6.4v1h1v-1.4l-0.6-0.6h-7.1c-0.2 0.1-0.4 0.3-0.7 0.6z" fill="#4e4e4e"/></g><path id="path19" d="m213.9 11.9h1.8v15.9h2v-15.9h1.8v15.2c0 0.4 0 0.7-0.1 1.1-0.2 0.8-0.9 1.4-1.7 1.4h-2.2c-1 0-1.8-0.9-1.7-1.9 0.1-5.2 0.1-10.5 0.1-15.8z" fill="#4e4e4e"/><g id="g21"><path id="path23" d="m224.2 11.9h3.8c0.9 0 1.8 0.7 1.9 1.6v5.8c0 0.8-0.6 1.7-1.4 1.9l1.8 8.4h-1.7c-0.6-2.8-1.3-5.5-1.9-8.3h-0.6v8.3h-1.7c-0.2-5.9-0.2-11.8-0.2-17.7zm1.8 1.8v5.8h2v-5.8h-2z" fill="#4e4e4e"/></g><g id="g25"><path id="path27" d="m234.8 11.9h4c0.8 0 1.6 0.7 1.7 1.5v5.6c0 0.5-0.4 0.9-0.7 1.3 0.4 0.3 0.7 0.7 0.7 1.2 0.1 0.8 0 1.5 0 2.3v3.5c0 0.5 0.1 1-0.2 1.5-0.3 0.6-0.9 0.9-1.5 0.9h-4v-17.8zm1.9 1.8v5.8h2v-5.8h-2zm0 7.6v6.6h2v-6.6h-2z" fill="#4e4e4e"/></g><g id="g29"><path id="path31" d="m246.3 12c0.5-0.2 1.1-0.1 1.7-0.1s1.3-0.1 1.8 0.2c0.6 0.3 1 0.9 1 1.5v13.6c0 0.4 0 0.8-0.1 1.2-0.3 0.6-0.8 1.1-1.5 1.2h-1.8c-0.4 0-0.7 0-1-0.1-0.7-0.3-1.3-1-1.3-1.7v-13.6c0-0.4 0-0.7 0.1-1.1 0.2-0.5 0.6-0.9 1.1-1.1zm0.7 1.7v14.1h1.9v-14.1h-1.9z" fill="#4e4e4e"/></g><path id="path33" d="m313.5 21.3h6.3v2.4h-6.3v-2.4z" fill="#4e4e4e"/></g><g id="g35"><path id="path37" d="m256 10.3c0-0.9 0.7-1.8 1.6-1.9h2.2c1-0.1 2 0.9 2 1.9v3.1h-1.9v-3.2h-2.1v17.6h2.2v-8.5h-0.9v-1.7h2.8v12h-3.9c-0.7 0-1.5-0.5-1.8-1.2-0.1-0.4-0.1-0.8-0.1-1.2-0.1-5.6-0.1-11.3-0.1-16.9z" fill="#4e4e4e"/><g id="g39"><path id="path41" d="m266.6 11.9h3.7c0.8 0 1.5 0.4 1.8 1.1 0.1 0.3 0.1 0.6 0.1 0.8v5.6c0 0.8-0.6 1.6-1.4 1.7l1.8 8.4h-1.7c-0.6-2.8-1.3-5.5-1.9-8.3h-0.6v8.3h-1.7c-0.1-5.8-0.1-11.7-0.1-17.6zm1.8 1.7v5.7h2v-5.7h-2z" fill="#4e4e4e"/></g><g id="g43"><path id="path45" d="m277 13.5c0-0.8 0.7-1.6 1.5-1.6h2.4c0.4 0 0.8 0.1 1.2 0.4s0.6 0.8 0.6 1.3v16h-1.7v-8.4h-2.1v8.4h-1.7c-0.2-5.4-0.2-10.7-0.2-16.1zm1.8 0.2v5.7h2v-5.7h-2z" fill="#4e4e4e"/></g><path id="path47" d="m287 13.4c0-0.8 0.7-1.5 1.5-1.5h3v1.6h-2.6v5.9h2.2v1.7h-2.2v8.4h-1.8c-0.1-5.3-0.1-10.7-0.1-16.1z" fill="#4e4e4e"/><path id="path49" d="m295.8 11.9h1.8v4.9c0.3 0.5 0.7 1 1 1.5 0.3-0.5 0.7-1 1-1.5v-4.9h1.9v3.5c0 0.5 0.1 1.1-0.1 1.6-0.4 1.1-1 2.1-1.6 3.1 0.7 1.1 1.5 2.3 1.8 3.5v5.9h-1.7v-5.9c-0.3-0.6-0.7-1.1-1.1-1.7-0.4 0.5-0.7 1.1-1.1 1.6v6h-1.8v-5.5c0-0.5 0.2-1 0.4-1.4 0.4-0.9 0.9-1.7 1.5-2.5-0.7-1.1-1.5-2.2-1.9-3.5-0.1-1.5-0.1-3.1-0.1-4.7z" fill="#4e4e4e"/></g></g><g id="g51"><rect id="rect53" x="395.4" y="38.5" width="8.4" height="3.8" fill="#0b0b0c"/><rect id="rect55" x="395.4" y="42.3" width="8.4" height="1" fill="#353636"/><rect id="rect57" x="395.4" y="43.3" width="8.4" height="1" fill="#151616"/><rect id="rect59" x="395.4" y="44.3" width="8.4" height="3.8" fill="#0b0b0c"/><rect id="rect61" x="395.4" y="48" width="8.4" height="1" fill="#353636"/><rect id="rect63" x="395.4" y="49" width="8.4" height="1" fill="#151616"/><rect id="rect65" x="395.4" y="50" width="8.4" height="3.8" fill="#0b0b0c"/><rect id="rect67" x="395.4" y="53.8" width="8.4" height="1" fill="#353636"/><rect id="rect69" x="395.4" y="54.8" width="8.4" height="1" fill="#151616"/><rect id="rect71" x="395.4" y="55.8" width="8.4" height="3.8" fill="#0b0b0c"/><rect id="rect73" x="395.4" y="59.5" width="8.4" height="1" fill="#353636"/><rect id="rect75" x="395.4" y="60.5" width="8.4" height="1" fill="#151616"/><rect id="rect77" x="395.4" y="61.5" width="8.4" height="3.8" fill="#0b0b0c"/><rect id="rect79" x="395.4" y="65.3" width="8.4" height="1" fill="#353636"/><rect id="rect81" x="395.4" y="66.3" width="8.4" height="1" fill="#151616"/></g><g id="g83"><rect id="rect85" x="395.4" y="89.6" width="8.4" height="3.8" fill="#0b0b0c"/><rect id="rect87" x="395.4" y="93.3" width="8.4" height="1" fill="#353636"/><rect id="rect89" x="395.4" y="94.3" width="8.4" height="1" fill="#151616"/><rect id="rect91" x="395.4" y="95.3" width="8.4" height="3.8" fill="#0b0b0c"/><rect id="rect93" x="395.4" y="99.1" width="8.4" height="1" fill="#353636"/><rect id="rect95" x="395.4" y="100.1" width="8.4" height="1" fill="#151616"/><rect id="rect97" x="395.4" y="101.1" width="8.4" height="3.8" fill="#0b0b0c"/><rect id="rect99" x="395.4" y="104.8" width="8.4" height="1" fill="#353636"/><rect id="rect101" x="395.4" y="105.8" width="8.4" height="1" fill="#151616"/><rect id="rect103" x="395.4" y="106.8" width="8.4" height="3.8" fill="#0b0b0c"/><rect id="rect105" x="395.4" y="110.6" width="8.4" height="1" fill="#353636"/><rect id="rect107" x="395.4" y="111.6" width="8.4" height="1" fill="#151616"/><rect id="rect109" x="395.4" y="112.6" width="8.4" height="3.8" fill="#0b0b0c"/><rect id="rect111" x="395.4" y="116.3" width="8.4" height="1" fill="#353636"/><rect id="rect113" x="395.4" y="117.3" width="8.4" height="1" fill="#151616"/></g><g id="g115"><rect id="rect117" x="124.8" y="38.5" width="8.4" height="3.8" fill="#0b0b0c"/><rect id="rect119" x="124.8" y="42.3" width="8.4" height="1" fill="#353636"/><rect id="rect121" x="124.8" y="43.3" width="8.4" height="1" fill="#151616"/><rect id="rect123" x="124.8" y="44.3" width="8.4" height="3.8" fill="#0b0b0c"/><rect id="rect125" x="124.8" y="48" width="8.4" height="1" fill="#353636"/><rect id="rect127" x="124.8" y="49" width="8.4" height="1" fill="#151616"/><rect id="rect129" x="124.8" y="50" width="8.4" height="3.8" fill="#0b0b0c"/><rect id="rect131" x="124.8" y="53.8" width="8.4" height="1" fill="#353636"/><rect id="rect133" x="124.8" y="54.8" width="8.4" height="1" fill="#151616"/><rect id="rect135" x="124.8" y="55.8" width="8.4" height="3.8" fill="#0b0b0c"/><rect id="rect137" x="124.8" y="59.5" width="8.4" height="1" fill="#353636"/><rect id="rect139" x="124.8" y="60.5" width="8.4" height="1" fill="#151616"/><rect id="rect141" x="124.8" y="61.5" width="8.4" height="3.8" fill="#0b0b0c"/><rect id="rect143" x="124.8" y="65.3" width="8.4" height="1" fill="#353636"/><rect id="rect145" x="124.8" y="66.3" width="8.4" height="1" fill="#151616"/></g><g id="g147"><rect id="rect149" x="124.8" y="89.6" width="8.4" height="3.8" fill="#0b0b0c"/><rect id="rect151" x="124.8" y="93.3" width="8.4" height="1" fill="#353636"/><rect id="rect153" x="124.8" y="94.3" width="8.4" height="1" fill="#151616"/><rect id="rect155" x="124.8" y="95.3" width="8.4" height="3.8" fill="#0b0b0c"/><rect id="rect157" x="124.8" y="99.1" width="8.4" height="1" fill="#353636"/><rect id="rect159" x="124.8" y="100.1" width="8.4" height="1" fill="#151616"/><rect id="rect161" x="124.8" y="101.1" width="8.4" height="3.8" fill="#0b0b0c"/><rect id="rect163" x="124.8" y="104.8" width="8.4" height="1" fill="#353636"/><rect id="rect165" x="124.8" y="105.8" width="8.4" height="1" fill="#151616"/><rect id="rect167" x="124.8" y="106.8" width="8.4" height="3.8" fill="#0b0b0c"/><rect id="rect169" x="124.8" y="110.6" width="8.4" height="1" fill="#353636"/><rect id="rect171" x="124.8" y="111.6" width="8.4" height="1" fill="#151616"/><rect id="rect173" x="124.8" y="112.6" width="8.4" height="3.8" fill="#0b0b0c"/><rect id="rect175" x="124.8" y="116.3" width="8.4" height="1" fill="#353636"/><rect id="rect177" x="124.8" y="117.3" width="8.4" height="1" fill="#151616"/></g><path id="path179" d="m407.2 105.3h-3.3v-26.4h3.3c1.8 0 3.3 1.5 3.3 3.3v19.8c0 1.8-1.5 3.3-3.3 3.3z" fill="#16191b"/></g><g id="g181"><path id="path183" d="m516.6 449h-504.6c-6.6 0-12-5.4-12-12v-173.6c0-6.6 5.4-12 12-12h504.6c6.6 0 12 5.4 12 12v173.6c0 6.6-5.4 12-12 12z" fill="#101111" fill-rule="evenodd"/><path id="path185" d="m450.6 449h-138v-100c0-38.1 30.9-69 69-69s69 30.9 69 69v100z" fill="#1f2020"/><path id="path187" d="m433.5 449h-103.7v-88.9c0-2.6 2.1-4.8 4.8-4.8h94.3c2.6 0 4.8 2.1 4.8 4.8v88.9z" fill="#0f0f0f"/><g id="g189" fill="#1e1e1e"><path id="path191" d="m339.8 434.7h-0.1c-0.5 0-0.9-0.4-0.9-0.9v-77.6c0-0.5 0.4-0.9 0.9-0.9h0.1c0.5 0 0.9 0.4 0.9 0.9v77.6c-0.1 0.5-0.5 0.9-0.9 0.9z"/><path id="path193" d="m347.8 434.7h-0.1c-0.5 0-0.9-0.4-0.9-0.9v-77.6c0-0.5 0.4-0.9 0.9-0.9h0.1c0.5 0 0.9 0.4 0.9 0.9v77.6c-0.1 0.5-0.5 0.9-0.9 0.9z"/><path id="path195" d="m355.8 416.5h-0.1c-0.5 0-0.9-0.4-0.9-0.9v-59.4c0-0.5 0.4-0.9 0.9-0.9h0.1c0.5 0 0.9 0.4 0.9 0.9v59.4c-0.1 0.5-0.5 0.9-0.9 0.9z"/><path id="path197" d="m364.7 409.7h-0.1c-0.5 0-0.9-0.4-0.9-0.9v-52.6c0-0.5 0.4-0.9 0.9-0.9h0.1c0.5 0 0.9 0.4 0.9 0.9v52.6c-0.1 0.5-0.4 0.9-0.9 0.9z"/><path id="path199" d="m373.6 406h-0.1c-0.5 0-0.9-0.4-0.9-0.9v-48.9c0-0.5 0.4-0.9 0.9-0.9h0.1c0.5 0 0.9 0.4 0.9 0.9v48.9c0 0.5-0.4 0.9-0.9 0.9z"/><g id="g201"><path id="path203" d="m381.7 404.5h-0.1c-0.5 0-0.9-0.4-0.9-0.9v-40.2c0-0.5 0.4-0.9 0.9-0.9h0.1c0.5 0 0.9 0.4 0.9 0.9v40.2c-0.1 0.5-0.4 0.9-0.9 0.9z"/><path id="path205" d="m386.4 368.2c-0.4 0.4-1 0.4-1.3 0.1l-4.2-4.2c-0.3-0.3-0.3-0.9 0-1.2l0.1-0.1c0.3-0.3 0.9-0.3 1.2 0l4.2 4.2c0.4 0.3 0.4 0.9 0 1.2z"/><path id="path207" d="m382.2 362.8c0.4 0.4 0.4 1 0.1 1.3l-4.2 4.2c-0.3 0.3-0.9 0.3-1.2 0l-0.1-0.1c-0.3-0.3-0.3-0.9 0-1.2l4.2-4.2c0.3-0.3 0.9-0.3 1.2 0z"/></g><path id="path209" d="m423.5 434.7h0.1c0.5 0 0.9-0.4 0.9-0.9v-77.6c0-0.5-0.4-0.9-0.9-0.9h-0.1c-0.5 0-0.9 0.4-0.9 0.9v77.6c0 0.5 0.4 0.9 0.9 0.9z"/><path id="path211" d="m415.5 434.7h0.1c0.5 0 0.9-0.4 0.9-0.9v-77.6c0-0.5-0.4-0.9-0.9-0.9h-0.1c-0.5 0-0.9 0.4-0.9 0.9v77.6c0 0.5 0.4 0.9 0.9 0.9z"/><path id="path213" d="m407.5 416.6h0.1c0.5 0 0.9-0.4 0.9-0.9v-59.4c0-0.5-0.4-0.9-0.9-0.9h-0.1c-0.5 0-0.9 0.4-0.9 0.9v59.4c0 0.5 0.4 0.9 0.9 0.9z"/><path id="path215" d="m398.6 409.7h0.1c0.5 0 0.9-0.4 0.9-0.9v-52.6c0-0.5-0.4-0.9-0.9-0.9h-0.1c-0.5 0-0.9 0.4-0.9 0.9v52.6c0 0.5 0.4 0.9 0.9 0.9z"/><path id="path217" d="m389.7 406.1h0.1c0.5 0 0.9-0.4 0.9-0.9v-48.9c0-0.5-0.4-0.9-0.9-0.9h-0.1c-0.5 0-0.9 0.4-0.9 0.9v48.9c0 0.5 0.4 0.9 0.9 0.9z"/></g><rect id="rect219" x="329.8" y="439" width="19.3" height="2.6"/><path id="path221" d="m408.9 449h-54.5v-13.3c0-15 12.2-27.3 27.3-27.3 15 0 27.3 12.2 27.3 27.3v13.3z" fill="#070707"/><path id="path223" d="m276 417.2c2.3 0 4.3 1.9 4.3 4.3v17.9c0 2.3-1.9 4.3-4.3 4.3-2.3 0-4.3-1.9-4.3-4.3v-13.7h-26.7c-2.3 0-4.3-1.9-4.3-4.2s1.9-4.3 4.3-4.3h30.9c2.3 0 4.3 1.9 4.3 4.3" fill="#282a2b"/><circle id="circle225" cx="276" cy="440.3" r="2.2" fill="#44f518"/><g id="g227" fill="#070707"><path id="path229" d="m245.4 423.8v-5h1.2c0.5 0 0.8 0 0.9 0.1 0.2 0.1 0.4 0.2 0.6 0.5s0.2 0.6 0.2 1-0.1 0.7-0.2 0.9-0.3 0.4-0.5 0.5-0.5 0.1-1 0.1h-0.5v1.9h-0.7zm0.8-4.2v1.4h0.4c0.3 0 0.5 0 0.6-0.1 0.1 0 0.2-0.1 0.3-0.2s0.1-0.3 0.1-0.4c0-0.2 0-0.3-0.1-0.4s-0.2-0.2-0.3-0.2-0.3-0.1-0.6-0.1h-0.4z"/><path id="path231" d="m248.8 421.3c0-0.6 0.1-1.1 0.2-1.5 0.2-0.4 0.4-0.7 0.6-0.9s0.6-0.3 1-0.3c0.5 0 1 0.2 1.3 0.7 0.3 0.4 0.5 1.1 0.5 1.9s-0.2 1.5-0.5 2c-0.3 0.4-0.8 0.6-1.3 0.6-0.6 0-1-0.2-1.3-0.6s-0.5-1.1-0.5-1.9zm0.8 0c0 0.6 0.1 1 0.3 1.3s0.5 0.4 0.8 0.4 0.6-0.1 0.8-0.4 0.3-0.7 0.3-1.3-0.1-1-0.3-1.3-0.4-0.4-0.8-0.4-0.6 0.1-0.8 0.4-0.3 0.7-0.3 1.3z"/><path id="path233" d="m253.7 423.8-0.9-5h0.8l0.6 3.4 0.7-3.4h0.9l0.7 3.5 0.6-3.5h0.8l-0.9 5h-1l-0.8-3.7-0.8 3.7h-0.7z"/><path id="path235" d="m258.2 423.8v-5h2.8v0.8h-2.1v1.1h1.9v0.8h-1.9v1.4h2.1v0.8h-2.8z"/><path id="path237" d="m261.7 423.8v-5h1.6c0.4 0 0.7 0 0.9 0.1s0.3 0.2 0.4 0.5c0.1 0.2 0.2 0.5 0.2 0.8 0 0.4-0.1 0.7-0.3 0.9s-0.4 0.4-0.7 0.5c0.2 0.1 0.3 0.3 0.4 0.4 0.1 0.2 0.3 0.4 0.4 0.8l0.5 1h-0.9l-0.6-1.1c-0.2-0.4-0.3-0.6-0.4-0.7s-0.1-0.2-0.2-0.2-0.2-0.1-0.4-0.1h-0.2v2.1h-0.7zm0.8-2.9h0.6 0.7c0.1 0 0.2-0.1 0.2-0.2 0.1-0.1 0.1-0.2 0.1-0.4s0-0.3-0.1-0.4-0.1-0.2-0.2-0.2h-0.6-0.6v1.2z"/></g><path id="path239" d="m469.6 417.2c-2.3 0-4.3 1.9-4.3 4.3v17.9c0 2.3 1.9 4.3 4.3 4.3 2.3 0 4.3-1.9 4.3-4.3v-13.7h26.8c2.3 0 4.3-1.9 4.3-4.2s-1.9-4.3-4.3-4.3h-30.9c-2.3 0-4.3 1.9-4.3 4.3" fill="#282a2b"/><circle id="circle241" cx="469.6" cy="440.3" r="2.2" fill="#44f518"/><g id="g243" fill="#070707"><path id="path245" d="m488.7 424.3v-5h1.2c0.5 0 0.8 0 0.9 0.1 0.2 0.1 0.4 0.2 0.6 0.5 0.1 0.3 0.2 0.6 0.2 1s-0.1 0.7-0.2 0.9-0.3 0.4-0.5 0.5-0.5 0.1-1 0.1h-0.5v1.9h-0.7zm0.8-4.2v1.4h0.4c0.3 0 0.5 0 0.6-0.1 0.1 0 0.2-0.1 0.3-0.2s0.1-0.3 0.1-0.4c0-0.2 0-0.3-0.1-0.4s-0.2-0.2-0.3-0.2-0.3-0.1-0.6-0.1h-0.4z"/><path id="path247" d="m495.3 424.3h-0.8l-0.3-1.1h-1.5l-0.3 1.1h-0.8l1.5-5h0.8l1.4 5zm-1.4-2-0.5-1.9-0.5 1.9h1z"/><path id="path249" d="m495.7 419.3h1.4c0.4 0 0.6 0 0.8 0.1s0.3 0.2 0.5 0.4 0.3 0.5 0.4 0.8 0.1 0.7 0.1 1.2c0 0.4 0 0.8-0.1 1.1s-0.2 0.6-0.3 0.8-0.3 0.3-0.5 0.4-0.5 0.1-0.8 0.1h-1.4v-4.9zm0.8 0.8v3.3h0.6c0.2 0 0.4 0 0.5-0.1s0.2-0.1 0.3-0.2 0.1-0.3 0.2-0.5c0-0.2 0.1-0.5 0.1-0.9s0-0.7-0.1-0.9-0.1-0.4-0.2-0.5-0.2-0.2-0.4-0.2h-0.6-0.4z"/></g><path id="path251" d="m47 312.3h-35.9c-2.2 0-3.9-1.8-3.9-3.9 0-2.2 1.8-3.9 3.9-3.9h35.9c2.2 0 3.9 1.8 3.9 3.9 0.1 2.1-1.7 3.9-3.9 3.9z" fill="#282a2b"/><g id="g253" fill="#070707"><path id="path255" d="m31.7 308.7 0.7 0.3c-0.1 0.6-0.3 1-0.6 1.2-0.3 0.3-0.6 0.4-1 0.4-0.5 0-0.9-0.2-1.2-0.6-0.4-0.5-0.5-1.1-0.5-1.9 0-0.9 0.2-1.5 0.5-2 0.3-0.4 0.7-0.6 1.3-0.6 0.4 0 0.8 0.2 1.1 0.5 0.2 0.2 0.4 0.6 0.5 1l-0.8 0.2c0-0.3-0.1-0.5-0.3-0.6s-0.3-0.2-0.5-0.2c-0.3 0-0.5 0.1-0.7 0.4s-0.3 0.7-0.3 1.3 0.1 1.1 0.3 1.3c0.2 0.3 0.4 0.4 0.7 0.4 0.2 0 0.4-0.1 0.5-0.3s0.2-0.4 0.3-0.8z"/><path id="path257" d="m33.1 310.6v-5h0.8v2h1.5v-2h0.8v5h-0.8v-2.2h-1.5v2.2h-0.8z"/><path id="path259" d="m38.2 309.2 0.7-0.1c0 0.2 0.1 0.4 0.2 0.5s0.2 0.2 0.4 0.2 0.3-0.1 0.4-0.2 0.2-0.4 0.2-0.6 0-0.4-0.1-0.6c-0.1-0.1-0.2-0.2-0.4-0.2-0.1 0-0.2 0-0.3 0.1l0.1-0.8c0.2 0 0.3 0 0.4-0.2 0.1-0.1 0.2-0.3 0.2-0.5s0-0.3-0.1-0.4-0.2-0.1-0.3-0.1-0.2 0.1-0.3 0.2-0.1 0.3-0.2 0.5l-0.7-0.2c0.1-0.5 0.2-0.8 0.4-1s0.5-0.3 0.8-0.3 0.6 0.1 0.8 0.4 0.3 0.6 0.3 0.9c0 0.2 0 0.4-0.1 0.6s-0.2 0.3-0.4 0.5c0.2 0.1 0.4 0.2 0.5 0.4s0.2 0.5 0.2 0.8c0 0.5-0.1 0.8-0.4 1.1s-0.6 0.5-0.9 0.5-0.6-0.1-0.8-0.4c-0.4-0.3-0.6-0.6-0.6-1.1z"/><path id="path261" d="m41 310.6 0.9-5.2h0.5l-1 5.2h-0.4z"/><path id="path263" d="m44.1 310.6v-1h-1.6v-0.8l1.7-3.2h0.6v3.2h0.5v0.8h-0.5v1h-0.7zm0-1.9v-1.7l-0.9 1.7h0.9z"/></g><circle id="circle265" cx="10.9" cy="308.4" r="2.2" fill="#44f518"/><path id="path267" d="m58 284.3h-46.9c-2.2 0-3.9-1.8-3.9-3.9 0-2.2 1.8-3.9 3.9-3.9h46.9c2.2 0 3.9 1.8 3.9 3.9s-1.7 3.9-3.9 3.9z" fill="#282a2b"/><g id="g269" fill="#070707"><path id="path271" d="m29.7 282.8h-0.8l-0.3-1.1h-1.5l-0.3 1.1h-0.8l1.5-5h0.8l1.4 5zm-1.4-2-0.5-1.9-0.5 1.9h1z"/><path id="path273" d="m30.1 282.8v-5h0.7l1.5 3.3v-3.3h0.7v5h-0.8l-1.5-3.3v3.3h-0.6z"/><path id="path275" d="m34.7 282.8v-4.2h-1.1v-0.8h3v0.8h-1.1v4.2h-0.8z"/><path id="path277" d="m38.3 281.2 0.7-0.1c0.1 0.6 0.4 1 0.8 1 0.2 0 0.4-0.1 0.5-0.2s0.2-0.3 0.2-0.5c0-0.1 0-0.2-0.1-0.3 0-0.1-0.1-0.1-0.2-0.2s-0.3-0.1-0.7-0.3c-0.3-0.1-0.6-0.2-0.7-0.3s-0.3-0.3-0.4-0.5-0.1-0.4-0.1-0.7 0.1-0.5 0.2-0.7 0.3-0.4 0.5-0.5 0.4-0.2 0.7-0.2c0.4 0 0.8 0.1 1 0.4s0.4 0.6 0.4 1.1h-0.8c0-0.3-0.1-0.5-0.2-0.6s-0.3-0.2-0.5-0.2-0.4 0-0.5 0.1-0.2 0.2-0.2 0.3 0 0.3 0.1 0.3c0.1 0.1 0.3 0.2 0.7 0.3s0.7 0.2 0.8 0.4c0.2 0.1 0.3 0.3 0.4 0.5s0.1 0.5 0.1 0.8c0 0.4-0.1 0.8-0.4 1.1-0.2 0.3-0.6 0.4-1.1 0.4-0.6 0.3-1.1-0.3-1.2-1.4z"/><path id="path279" d="m42.5 282.8-0.9-5h0.8l0.6 3.4 0.7-3.4h0.9l0.7 3.5 0.6-3.5h0.8l-0.9 5h-0.8l-0.7-3.7-0.7 3.7h-1.1z"/><path id="path281" d="m46.9 282.8v-5h0.8v5h-0.8z"/><path id="path283" d="m49.2 282.8v-4.2h-1.1v-0.8h3v0.8h-1.1v4.2h-0.8z"/><path id="path285" d="m53.9 281 0.7 0.3c-0.1 0.6-0.3 1-0.6 1.2s-0.6 0.4-1 0.4c-0.5 0-0.9-0.2-1.2-0.6-0.3-0.5-0.5-1.1-0.5-1.9 0-0.9 0.2-1.5 0.5-2 0.3-0.4 0.7-0.6 1.2-0.6 0.4 0 0.8 0.2 1 0.5 0.2 0.2 0.3 0.6 0.4 1l-0.7 0.2c0-0.3-0.1-0.5-0.3-0.6-0.1-0.1-0.3-0.2-0.5-0.2-0.3 0-0.5 0.1-0.7 0.4s-0.3 0.7-0.3 1.3 0.1 1.1 0.3 1.3c0.2 0.3 0.4 0.4 0.7 0.4 0.2 0 0.4-0.1 0.5-0.3 0.3-0.2 0.4-0.5 0.5-0.8z"/><path id="path287" d="m55.3 282.8v-5h0.7v2h1.5v-2h0.8v5h-0.8v-2.2h-1.5v2.2h-0.7z"/></g><circle id="circle289" cx="10.7" cy="280.4" r="2.2" fill="#44f518"/><path id="path291" d="m215.4 369.5h-116.2c-1.5 0-2.8-1.2-2.8-2.8v-26.3c0-1.5 1.2-2.8 2.8-2.8h116.2c1.5 0 2.8 1.2 2.8 2.8v26.3c-0.1 1.6-1.3 2.8-2.8 2.8z" fill="#282a2b"/><g id="g293"><g id="g295"><g id="g297"><path id="path299" d="m200.9 346.5c2.2-0.4 4.6 0.2 6.4 1.6 1.3 1 2.3 2.4 2.9 4 0.6 1.9 0.7 3.9 0.1 5.8-0.5 1.7-1.6 3.1-2.9 4.2-1.5 1.1-3.3 1.8-5.1 1.8-2.7 0-5.4-1.5-6.9-3.9-1.6-2.4-1.8-5.6-0.7-8.3 0.9-2.8 3.4-4.8 6.2-5.2zm-4.3 4.8v1h0.9v5.5h-0.9v1h2.8v-1h-0.9v-6.5h-1.9zm3.7 0.7v6.1c0.2 0.3 0.4 0.5 0.6 0.7h6.2c0.2-0.3 0.7-0.5 0.6-1v-2.6c-0.1-0.2-0.3-0.4-0.5-0.6h-6.1v-2.3h5.8v1h0.9v-1.3l-0.6-0.6h-6.4c-0.1 0.1-0.3 0.4-0.5 0.6z" fill="#f79226"/></g><path id="path301" d="m112.3 346.8h1.6v14.8h1.8v-14.8h1.6v14.2c0 0.3 0 0.7-0.1 1-0.2 0.7-0.8 1.3-1.5 1.3h-2c-0.9 0-1.6-0.8-1.6-1.7 0.2-5 0.2-9.9 0.2-14.8z" fill="#f79226"/><g id="g303"><path id="path305" d="m121.5 346.8h3.4c0.8 0 1.7 0.6 1.7 1.5v5.4c0 0.8-0.5 1.6-1.3 1.7 0.5 2.6 1.1 5.2 1.6 7.8h-1.5c-0.6-2.6-1.1-5.1-1.7-7.7h-0.6v7.7h-1.6v-16.4zm1.7 1.6v5.4h1.8v-5.4h-1.8z" fill="#f79226"/></g><g id="g307"><path id="path309" d="m131 346.8h3.5c0.7 0 1.5 0.6 1.5 1.4v5.2c0 0.5-0.3 0.9-0.7 1.2 0.3 0.3 0.6 0.6 0.6 1.1v2.1 3.3c0 0.5 0.1 1-0.2 1.4-0.2 0.5-0.8 0.8-1.3 0.8h-3.5c0.1-5.5 0.1-11 0.1-16.5zm1.6 1.6v5.4h1.8v-5.4h-1.8zm0 7.1v6.1h1.8v-6.1h-1.8z" fill="#f79226"/></g><g id="g311"><path id="path313" d="m141.3 346.9c0.5-0.1 1-0.1 1.5-0.1s1.1-0.1 1.6 0.2 0.9 0.8 0.9 1.4v12.7c0 0.4 0 0.8-0.1 1.1-0.3 0.5-0.8 1-1.3 1.1h-1.6c-0.3 0-0.6 0-0.9-0.1-0.6-0.3-1.1-0.9-1.1-1.6v-12.7c0-0.3 0-0.7 0.1-1 0.1-0.5 0.4-0.8 0.9-1zm0.6 1.6v13.1h1.7v-13.1h-1.7z" fill="#f79226"/></g><path id="path315" d="m201.2 355.6h5.6v2.2h-5.6v-2.2z" fill="#f79226"/><polygon id="polygon317" points="108.9 343.5 108.9 345.1 107.4 345.1 107.4 363.3 105.5 363.3 105.5 345.1 104 345.1 104 343.5" fill="#f79226"/></g><g id="g319"><path id="path321" d="m149.9 345.3c0-0.8 0.6-1.7 1.4-1.8h2c0.9-0.1 1.8 0.8 1.8 1.8v2.9h-1.7v-3h-1.9v16.4h1.9v-8h-0.8v-1.6h2.5v11.1h-3.4c-0.7 0-1.3-0.4-1.6-1.1-0.1-0.3-0.1-0.7-0.1-1.1-0.1-5.1-0.1-10.4-0.1-15.6z" fill="#d5e14d"/><g id="g323"><path id="path325" d="m159.4 346.8h3.3c0.7 0 1.4 0.4 1.6 1 0.1 0.2 0.1 0.5 0.1 0.8v5.2c0 0.7-0.5 1.5-1.3 1.6 0.5 2.6 1.1 5.2 1.6 7.8h-1.5c-0.6-2.6-1.1-5.2-1.7-7.7h-0.5v7.7h-1.6v-16.4zm1.6 1.6v5.4h1.8v-5.4h-1.8z" fill="#d5e14d"/></g><g id="g327"><path id="path329" d="m168.6 348.3c0-0.7 0.6-1.5 1.3-1.5h2.1c0.4 0 0.7 0.1 1 0.3 0.3 0.3 0.5 0.7 0.5 1.2v14.9h-1.5v-7.8h-1.9v7.8h-1.6c0.1-4.9 0.1-9.9 0.1-14.9zm1.6 0.2v5.3h1.8v-5.3h-1.8z" fill="#d5e14d"/></g><path id="path331" d="m177.6 348.2c0-0.7 0.6-1.4 1.3-1.4h2.6v1.5h-2.4v5.5h1.9v1.6h-1.9v7.8h-1.6c0.1-5 0.1-10 0.1-15z" fill="#d5e14d"/><path id="path333" d="m185.4 346.8h1.7v4.6c0.3 0.5 0.6 0.9 0.9 1.4 0.3-0.5 0.6-0.9 0.9-1.4v-4.6h1.7v3.3c0 0.5 0 1-0.1 1.5-0.4 1-0.9 1.9-1.5 2.9 0.6 1 1.3 2.1 1.6 3.3v5.5h-1.5v-5.5c-0.3-0.6-0.6-1-1-1.6-0.3 0.5-0.7 1-1 1.5v5.6h-1.6v-5.2c0-0.5 0.2-0.9 0.4-1.3 0.4-0.8 0.8-1.6 1.3-2.3-0.6-1-1.4-2.1-1.7-3.3-0.1-1.4 0-2.9-0.1-4.4z" fill="#d5e14d"/></g></g><g id="g335"><rect id="rect337" y="379.9" width="308.2" height="3.8" fill="#0b0b0c"/><rect id="rect339" y="383.6" width="308.2" height="1" fill="#353636"/><rect id="rect341" y="384.6" width="308.2" height="1" fill="#151616"/><rect id="rect343" y="385.6" width="308.2" height="3.8" fill="#0b0b0c"/><rect id="rect345" y="389.4" width="308.2" height="1" fill="#353636"/><rect id="rect347" y="390.4" width="308.2" height="1" fill="#151616"/><rect id="rect349" y="391.4" width="308.2" height="3.8" fill="#0b0b0c"/><rect id="rect351" y="395.1" width="308.2" height="1" fill="#353636"/><rect id="rect353" y="396.1" width="308.2" height="1" fill="#151616"/><rect id="rect355" y="397.1" width="308.2" height="3.8" fill="#0b0b0c"/><rect id="rect357" y="400.9" width="308.2" height="1" fill="#353636"/><rect id="rect359" y="401.9" width="308.2" height="1" fill="#151616"/></g><rect id="rect361" y="402.9" width="308.2" height="3.8" fill="#0b0b0c"/><rect id="rect363" y="406.6" width="308.2" height="1" fill="#353636"/><rect id="rect365" y="407.6" width="308.2" height="1" fill="#151616"/><g id="g367"><rect id="rect369" x="455.1" y="379.9" width="73.5" height="3.8" fill="#0b0b0c"/><rect id="rect371" x="455.1" y="383.6" width="73.5" height="1" fill="#353636"/><rect id="rect373" x="455.1" y="384.6" width="73.5" height="1" fill="#151616"/><rect id="rect375" x="455.1" y="385.6" width="73.5" height="3.8" fill="#0b0b0c"/><rect id="rect377" x="455.1" y="389.4" width="73.5" height="1" fill="#353636"/><rect id="rect379" x="455.1" y="390.4" width="73.5" height="1" fill="#151616"/><rect id="rect381" x="455.1" y="391.4" width="73.5" height="3.8" fill="#0b0b0c"/><rect id="rect383" x="455.1" y="395.1" width="73.5" height="1" fill="#353636"/><rect id="rect385" x="455.1" y="396.1" width="73.5" height="1" fill="#151616"/><rect id="rect387" x="455.1" y="397.1" width="73.5" height="3.8" fill="#0b0b0c"/><rect id="rect389" x="455.1" y="400.9" width="73.5" height="1" fill="#353636"/><rect id="rect391" x="455.1" y="401.9" width="73.5" height="1" fill="#151616"/><rect id="rect393" x="455.1" y="402.9" width="73.5" height="3.8" fill="#0b0b0c"/><rect id="rect395" x="455.1" y="406.6" width="73.5" height="1" fill="#353636"/><rect id="rect397" x="455.1" y="407.6" width="73.5" height="1" fill="#151616"/></g><g id="g399"><path id="path401" d="m495.2 267.6-4.6-4.2-2.1 1.8 1 0.7-1.2 5 2.4-0.8-1.3-0.9 0.7-2.6 4.9 4.2 1.7-5.7 1.7-0.8-2.1-0.9-1.1 4.2zm4.1-3.4c0.1 0.1 0.3 0.3 0.3 0.4l-0.6 2.2c0 0.2-0.3 0.3-0.4 0.4-0.2 0.1-0.4 0.1-0.6 0.1 0.2 0.1 0.3 0.1 0.5 0.2 0.1 0.1 0.3 0.2 0.2 0.4l-0.7 2.2c-0.1 0.2-0.3 0.3-0.5 0.4s-0.4 0.2-0.6 0.2h7.8l0.5-2.2c-0.3 0.5-0.6 0.9-1.1 1.2s-1.2 0.5-2 0.5h-1.4l0.7-2.7c0.3-0.1 0.6-0.1 0.8 0 0.3 0.1 0.5 0.3 0.7 0.5s0.4 0.4 0.5 0.6l0.7-2.9c-0.3 0.2-0.5 0.4-0.8 0.6s-0.6 0.3-0.9 0.4-0.6 0.1-0.9 0l0.7-2.7h1.2c0.5 0 1-0.1 1.5 0.2 0.4 0.3 0.7 0.8 1.1 1.3l0.6-2h-7.9c0.2 0.5 0.5 0.5 0.6 0.7zm9.4 0.7c-0.6 0.4-1.1 0.9-1.5 1.4s-0.5 1.1-0.5 1.7c0 0.5 0.1 1 0.4 1.5 0.3 0.4 0.7 0.9 1.2 1.1 0.5 0.3 1.2 0.4 1.7 0.5 0.6 0.1 1.1 0.1 1.5 0 0.4 0 0.7-0.1 1-0.2l1.6-2.6c-0.4 0.2-0.9 0.3-1.3 0.4s-0.9 0.3-1.4 0.3-1 0-1.5-0.2-0.9-0.6-1.1-1-0.2-0.9-0.1-1.3 0.5-0.8 0.8-1.1c0.4-0.3 0.8-0.6 1.2-0.8s0.8-0.3 1.2-0.3l1.2 1.3 1.4-0.4-1-1.8h-0.9c-0.3 0-0.7 0.1-1.1 0.2s-0.8 0.2-1.3 0.4c-0.3 0.2-1 0.5-1.5 0.9z" fill="#181919" fill-rule="evenodd"/></g></g><g id="g403"><path id="path405" d="m379.1 36h-229.7c-6.6 0-12 5.4-12 12v206.4c0 6.6 5.4 12 12 12h229.7c6.6 0 12-5.4 12-12v-206.4c0-6.6-5.4-12-12-12z" fill="#16191b"/><g id="g407"><path id="path409" d="m153.4 51.4-4.1-4.4-1.8 1.9 0.9 0.7-1.1 5.3 2.1-0.9-1.1-0.9 0.6-2.8 4.3 4.5 1.5-6.1 1.5-0.8-1.8-1-1 4.5zm3.6-3.7c0.1 0.1 0.3 0.3 0.3 0.5l-0.5 2.4c0 0.2-0.2 0.3-0.4 0.4-0.1 0.1-0.3 0.1-0.5 0.1 0.2 0.1 0.3 0.1 0.4 0.2s0.2 0.2 0.2 0.4l-0.6 2.3c-0.1 0.2-0.3 0.4-0.5 0.5s-0.4 0.2-0.6 0.2h6.8l0.5-2.3c-0.3 0.5-0.5 1-1 1.3-0.4 0.3-1.1 0.6-1.7 0.6h-1.3l0.6-2.9c0.2-0.1 0.5-0.1 0.7 0s0.4 0.3 0.6 0.5 0.3 0.4 0.5 0.7l0.7-3c-0.2 0.2-0.5 0.4-0.7 0.6-0.3 0.2-0.6 0.3-0.8 0.4-0.3 0.1-0.5 0.1-0.8 0l0.6-2.8h1c0.5 0 0.9-0.1 1.3 0.2s0.7 0.9 0.9 1.4l0.5-2.1h-7c0.5 0.2 0.7 0.3 0.8 0.4zm8.2 0.8c-0.5 0.4-1 0.9-1.3 1.5s-0.5 1.2-0.5 1.8 0.1 1.1 0.4 1.6 0.6 0.9 1.1 1.2 1 0.4 1.5 0.5 1 0.1 1.3 0c0.4 0 0.6-0.1 0.9-0.3l1.4-2.7c-0.4 0.2-0.8 0.3-1.1 0.5s-0.8 0.3-1.2 0.3-0.9 0-1.3-0.2-0.8-0.6-0.9-1c-0.2-0.4-0.2-0.9-0.1-1.3s0.4-0.8 0.7-1.2c0.3-0.3 0.7-0.6 1.1-0.8s0.7-0.3 1-0.3l1.1 1.4 1.3-0.4-0.9-2h-0.8c-0.3 0-0.6 0.1-1 0.2s-0.7 0.2-1.2 0.4c-0.4 0.1-1 0.4-1.5 0.8z" fill="#fff" fill-rule="evenodd"/></g><g id="g411" fill="#eff8fb"><path id="path413" d="m377 47v0.1c0 0.1 0 0.2-0.4 0.2s-0.4-0.1-0.4-0.2v-0.4-0.4c0-0.1 0-0.2 0.4-0.2s0.4 0.1 0.4 0.2v0.1h0.6v-0.3c0-0.3 0.1-0.6-1-0.6s-1 0.3-1 0.6v0.6 0.6c0 0.3-0.1 0.6 1 0.6s1-0.3 1-0.6v-0.3h-0.6z"/><polygon id="polygon415" points="368.2 45.6 368.2 47.8 368.8 47.8 368.8 46.2 369.3 47.8 369.9 47.8 370.5 46.2 370.5 47.8 371 47.8 371 45.6 370.2 45.6 369.6 47.3 369.1 45.6"/><polygon id="polygon417" points="378.8 46.2 378.8 47.8 378.3 47.8 378.3 46.2 377.7 46.2 377.7 45.6 379.4 45.6 379.4 46.2"/><polygon id="polygon419" points="375.5 47.8 375 47.8 374.8 47.4 374.1 47.4 374.2 47 374.7 47 374.5 46.1 374 47.8 373.4 47.8 374 45.6 374.9 45.6"/><path id="path421" d="m366.9 46.1c0.4 0 0.4 0.1 0.4 0.2v0.4 0.4c0 0.1 0 0.2-0.4 0.2s-0.4-0.1-0.4-0.2v-0.4-0.4c-0.1-0.1-0.1-0.2 0.4-0.2v-0.5c-1.1 0-1 0.3-1 0.6v0.6 0.6c0 0.3-0.1 0.6 1 0.6s1-0.3 1-0.6v-0.6-0.6c0-0.3 0.1-0.6-1-0.6v0.5z"/><path id="path423" d="m364.9 47v0.1c0 0.1 0 0.2-0.4 0.2s-0.4-0.1-0.4-0.2v-0.4-0.4c0-0.1 0-0.2 0.4-0.2s0.4 0.1 0.4 0.2v0.1h0.6v-0.3c0-0.3 0.1-0.6-1-0.6s-1 0.3-1 0.6v0.6 0.6c0 0.3-0.1 0.6 1 0.6s1-0.3 1-0.6v-0.3h-0.6z"/><path id="path425" d="m372.4 47.3h-0.3v-0.5h0.3c0.4 0 0.4-0.1 0.4-0.2v-0.1-0.1c0-0.1 0-0.2-0.4-0.2h-0.3v1.7h-0.6v-2.2h0.9c1.1 0 1 0.3 1 0.6v0.3 0.3c0 0.2 0.1 0.4-1 0.4z"/><path id="path427" d="m361.4 56.2h-3.5c-0.5 0-0.9-0.4-0.9-0.9v-5.4c0-0.5 0.4-0.9 0.9-0.9h2.2c0.3 0 0.5-0.2 0.5-0.5v-2.1c0-0.1 0.1-0.2 0.2-0.2h1.3c0.1 0 0.2 0.1 0.2 0.2v9.6c0 0.1-0.1 0.2-0.2 0.2h-0.7v0.5h0.9c0.3 0 0.5-0.2 0.5-0.5v-10.1c0-0.3-0.2-0.5-0.5-0.5h-1.7c-0.3 0-0.5 0.2-0.5 0.5v2.2c0 0.1-0.1 0.2-0.2 0.2h-2c-0.8 0-1.4 0.6-1.4 1.4v5.4c0 0.8 0.6 1.4 1.4 1.4h3.5v-0.5z"/><path id="path429" d="m360.1 54.2v-3.5c0-0.3-0.2-0.5-0.5-0.5s-0.5 0.2-0.5 0.5v3.7c0 0.3 0.2 0.5 0.5 0.5s0.5-0.2 0.5-0.5v-0.2h0.5v0.3c0 0.6-0.5 1-1 1-0.6 0-1-0.5-1-1v-3.7c0-0.6 0.5-1 1-1 0.6 0 1 0.5 1 1v3.5l-0.5-0.1z"/><path id="path431" d="m364.8 56.2h-0.7c-0.1 0-0.2-0.1-0.2-0.2v-6.8c0-0.1 0.1-0.2 0.2-0.2h1.3c0.1 0 0.2 0.1 0.2 0.2v6.8c0 0.1-0.1 0.2-0.2 0.2h-0.6v0.5h0.8c0.3 0 0.5-0.2 0.5-0.5v-7.2c0-0.3-0.2-0.5-0.5-0.5h-1.7c-0.3 0-0.5 0.2-0.5 0.5v7.2c0 0.3 0.2 0.5 0.5 0.5h0.9v-0.5z"/><path id="path433" d="m370.9 50.3h-1.4c-0.4 0-0.8 0.4-0.8 0.8s0.4 0.8 0.8 0.8h1.9c0.5 0 0.9 0.4 0.9 0.9v2.4c0 0.5-0.4 0.9-0.9 0.9h-3.9c-0.1 0-0.2-0.1-0.2-0.2v-0.9c0-0.1 0.1-0.2 0.2-0.2h2.6c0.4 0 0.8-0.4 0.8-0.8s-0.4-0.8-0.8-0.8h-1.9c-0.5 0-0.9-0.4-0.9-0.9v-2.4c0-0.5 0.4-0.9 0.9-0.9h3.6c0.1 0 0.2 0.1 0.2 0.2v1c0 0.1-0.1 0.2-0.2 0.2l-0.9-0.1v0.5h1.2c0.3 0 0.5-0.2 0.5-0.5v-1.3c0-0.3-0.2-0.5-0.5-0.5h-3.8c-0.8 0-1.4 0.6-1.4 1.4v2.4c0 0.8 0.6 1.4 1.4 1.4h1.9c0.2 0 0.3 0.1 0.3 0.3s-0.1 0.3-0.3 0.3h-2.8c-0.3 0-0.5 0.2-0.5 0.5v1.3c0 0.3 0.2 0.5 0.5 0.5h4.1c0.8 0 1.4-0.6 1.4-1.4v-2.4c0-0.8-0.6-1.4-1.4-1.4h-1.9c-0.2 0-0.3-0.1-0.3-0.3s0.1-0.3 0.3-0.3h1.4l-0.1-0.5z"/><path id="path435" d="m378.1 51.6h0.6c0.1 0 0.2-0.1 0.2-0.2v-1.6c0-0.5-0.4-0.9-0.9-0.9h-3.1c-0.5 0-0.9 0.4-0.9 0.9v5.4c0 0.5 0.4 0.9 0.9 0.9h3.1c0.5 0 0.9-0.4 0.9-0.9v-1.5c0-0.1-0.1-0.2-0.2-0.2h-1.2c-0.1 0-0.2 0.1-0.2 0.2v0.7c0 0.6-0.3 1-0.9 1s-0.9-0.5-0.9-1v-3.7c0-0.6 0.3-1 0.9-1s0.9 0.5 0.9 1v0.7c0 0.1 0.1 0.2 0.2 0.2h0.6v0.5h-0.7c-0.3 0-0.5-0.2-0.5-0.5v-0.9c0-0.3-0.1-0.5-0.4-0.5s-0.4 0.2-0.4 0.5v3.7c0 0.3 0.1 0.5 0.4 0.5s0.4-0.2 0.4-0.5v-0.9c0-0.3 0.2-0.5 0.5-0.5h1.6c0.3 0 0.5 0.2 0.5 0.5v1.7c0 0.8-0.6 1.4-1.4 1.4h-3.1c-0.8 0-1.4-0.6-1.4-1.4v-5.4c0-0.8 0.6-1.4 1.4-1.4h3.1c0.8 0 1.4 0.6 1.4 1.4v1.8c0 0.3-0.2 0.5-0.5 0.5h-1l0.1-0.5z"/></g><g id="g437"><path id="path439" d="m161.8 259.8c-10.2 0-18.5-8.3-18.5-18.5s8.3-18.5 18.5-18.5 18.5 8.3 18.5 18.5-8.4 18.5-18.5 18.5zm0-34.4c-8.8 0-15.9 7.1-15.9 15.9s7.1 15.9 15.9 15.9 15.9-7.1 15.9-15.9-7.2-15.9-15.9-15.9z" fill="#131313"/></g><circle id="circle441" cx="161.8" cy="241.3" r="17.2" fill="#1b0d18"/><circle id="circle443" cx="146.9" cy="237.3" r="1.2" fill="#a60998"/><g id="g445" fill="#fff"><path id="path447" d="m146.5 214.1v-3h-1v-0.6h2.6v0.6h-1v3h-0.6z"/><path id="path449" d="m148.5 214.1v-3.6h1.4c0.3 0 0.6 0 0.8 0.1s0.3 0.2 0.4 0.4 0.1 0.4 0.1 0.6c0 0.3-0.1 0.5-0.2 0.7s-0.4 0.3-0.6 0.3c0.1 0.1 0.3 0.2 0.4 0.3s0.2 0.3 0.4 0.6l0.4 0.7h-0.8l-0.5-0.8c-0.2-0.3-0.3-0.5-0.3-0.5l-0.2-0.2h-0.3-0.1v1.5h-0.9zm0.7-2.1h0.5 0.6c0.1 0 0.1-0.1 0.2-0.2 0-0.1 0.1-0.2 0.1-0.3s0-0.2-0.1-0.3-0.1-0.1-0.2-0.1h-0.5-0.5v0.9z"/><path id="path451" d="m154.7 214.1h-0.7l-0.3-0.8h-1.3l-0.3 0.8h-0.7l1.3-3.6h0.7l1.3 3.6zm-1.2-1.5-0.4-1.4-0.4 1.4h0.8z"/><path id="path453" d="m157.1 212.7 0.6 0.2c-0.1 0.4-0.3 0.7-0.5 0.9s-0.5 0.3-0.9 0.3-0.8-0.2-1.1-0.5-0.4-0.8-0.4-1.4 0.1-1.1 0.4-1.4 0.6-0.5 1.1-0.5c0.4 0 0.7 0.1 1 0.4 0.1 0.2 0.3 0.4 0.3 0.7l-0.6 0.2c0-0.2-0.1-0.3-0.2-0.4s-0.3-0.2-0.4-0.2c-0.2 0-0.4 0.1-0.6 0.3-0.1 0.2-0.2 0.5-0.2 0.9 0 0.5 0.1 0.8 0.2 1s0.3 0.3 0.6 0.3c0.2 0 0.3-0.1 0.4-0.2 0.2-0.1 0.3-0.3 0.3-0.6z"/><path id="path455" d="m158.3 214.1v-3.6h0.7v1.6l1.3-1.6h0.9l-1.2 1.4 1.3 2.2h-0.8l-0.9-1.7-0.6 0.6v1.1h-0.7z"/></g><g id="g457" fill="#fff"><path id="path459" d="m145.7 220v-3.6h1l0.6 2.5 0.6-2.5h1v3.6h-0.6v-2.9l-0.6 2.9h-0.7l-0.6-2.9v2.9h-0.7z"/><path id="path461" d="m149.4 218.2c0-0.4 0-0.7 0.1-0.9s0.2-0.4 0.3-0.5 0.3-0.3 0.4-0.3c0.2-0.1 0.4-0.1 0.7-0.1 0.5 0 0.9 0.2 1.1 0.5 0.3 0.3 0.4 0.8 0.4 1.4s-0.1 1.1-0.4 1.4-0.7 0.5-1.1 0.5c-0.5 0-0.9-0.2-1.2-0.5-0.2-0.5-0.3-0.9-0.3-1.5zm0.7 0c0 0.4 0.1 0.7 0.3 0.9s0.4 0.3 0.6 0.3c0.3 0 0.5-0.1 0.6-0.3s0.3-0.5 0.3-1c0-0.4-0.1-0.7-0.2-0.9-0.2-0.2-0.4-0.3-0.6-0.3-0.3 0-0.5 0.1-0.7 0.3-0.3 0.2-0.3 0.6-0.3 1z"/><path id="path463" d="m153 216.4h1.2c0.3 0 0.5 0 0.6 0.1 0.2 0.1 0.4 0.2 0.5 0.3l0.3 0.6c0.1 0.2 0.1 0.5 0.1 0.9 0 0.3 0 0.6-0.1 0.8-0.1 0.3-0.2 0.5-0.3 0.6s-0.3 0.2-0.5 0.3c-0.1 0.1-0.3 0.1-0.6 0.1h-1.2v-3.7zm0.7 0.6v2.4h0.5 0.4c0.1 0 0.2-0.1 0.3-0.2s0.1-0.2 0.2-0.4c0-0.2 0.1-0.4 0.1-0.7s0-0.5-0.1-0.6-0.1-0.3-0.2-0.4-0.2-0.1-0.3-0.2h-0.5-0.4z"/><path id="path465" d="m156.3 220v-3.6h2.4v0.6h-1.7v0.8h1.6v0.6h-1.6v1h1.8v0.6h-2.5z"/></g><g id="g467" fill="#fff"><path id="path469" d="m184.6 248.5v-3.6h1.4c0.3 0 0.6 0 0.8 0.1s0.3 0.2 0.4 0.4 0.1 0.4 0.1 0.6c0 0.3-0.1 0.5-0.2 0.7s-0.4 0.3-0.6 0.3c0.1 0.1 0.3 0.2 0.4 0.3s0.2 0.3 0.4 0.6l0.4 0.7h-0.8l-0.5-0.8c-0.2-0.3-0.3-0.5-0.3-0.5l-0.2-0.2c-0.1-0.1-0.2 0-0.3 0h-0.1v1.5h-0.9zm0.7-2.1h0.5 0.6c0.1 0 0.1-0.1 0.2-0.2 0-0.1 0.1-0.2 0.1-0.3s0-0.2-0.1-0.3-0.1-0.1-0.2-0.1h-0.5-0.5v0.9z"/><path id="path471" d="m187.9 248.5v-3.6h2.4v0.6h-1.7v0.8h1.6v0.6h-1.6v1h1.8v0.6h-2.5z"/><path id="path473" d="m190.9 248.5v-3.6h1.1c0.4 0 0.7 0 0.8 0.1 0.2 0.1 0.3 0.2 0.5 0.4 0.1 0.2 0.2 0.4 0.2 0.7 0 0.2 0 0.4-0.1 0.6s-0.2 0.3-0.3 0.4-0.2 0.1-0.3 0.2c-0.2 0-0.4 0.1-0.7 0.1h-0.4v1.4h-0.8zm0.7-3v1h0.4c0.3 0 0.4 0 0.5-0.1 0.1 0 0.2-0.1 0.2-0.2s0.1-0.2 0.1-0.3 0-0.2-0.1-0.3-0.2-0.1-0.3-0.2h-0.5-0.3z"/><path id="path475" d="m194 248.5v-3.6h2.4v0.6h-1.7v0.8h1.6v0.6h-1.6v1h1.8v0.6h-2.5z"/><path id="path477" d="m199.9 248.5h-0.7l-0.3-0.8h-1.3l-0.3 0.8h-0.7l1.3-3.6h0.7l1.3 3.6zm-1.2-1.4-0.4-1.4-0.4 1.4h0.8z"/><path id="path479" d="m200.6 248.5v-3h-1v-0.6h2.6v0.6h-1v3h-0.6z"/></g><g id="g481"><g id="g483"><path id="path485" d="m381.2 216.1c-4.6 0-8.3-3.7-8.3-8.3s3.7-8.3 8.3-8.3 8.3 3.7 8.3 8.3-3.7 8.3-8.3 8.3zm0-15.2c-3.8 0-7 3.1-7 7s3.1 7 7 7c3.8 0 7-3.1 7-7s-3.2-7-7-7z" fill="#131313"/></g><path id="path487" d="m381.2 215.4c-4.2 0-7.6-3.4-7.6-7.6s3.4-7.6 7.6-7.6 7.6 3.4 7.6 7.6-3.4 7.6-7.6 7.6zm0-12.6c-2.8 0-5 2.3-5 5 0 2.8 2.3 5 5 5 2.8 0 5-2.3 5-5 0-2.8-2.2-5-5-5z" fill="#707070"/></g><circle id="circle489" cx="381.2" cy="207.8" r="6.3" fill="#212327"/><rect id="rect491" x="379.2" y="205.8" width="4.1" height="4.1" fill="#fff"/><g id="g493"><g id="g495"><path id="path497" d="m374.6 246.2c-7.9 0-14.4-6.5-14.4-14.4s6.5-14.4 14.4-14.4 14.4 6.5 14.4 14.4-6.4 14.4-14.4 14.4zm0-27.5c-7.2 0-13.1 5.9-13.1 13.1s5.9 13.1 13.1 13.1 13.1-5.9 13.1-13.1-5.8-13.1-13.1-13.1z" fill="#131313"/></g><path id="path499" d="m374.6 245.5c-7.6 0-13.7-6.2-13.7-13.7 0-7.6 6.2-13.7 13.7-13.7 7.6 0 13.7 6.2 13.7 13.7 0.1 7.6-6.1 13.7-13.7 13.7zm0-22.8c-5 0-9.1 4.1-9.1 9.1s4.1 9.1 9.1 9.1 9.1-4.1 9.1-9.1-4.1-9.1-9.1-9.1z" fill="#707070"/></g><circle id="circle501" cx="374.6" cy="231.8" r="11.4" fill="#212327"/><g id="g503" fill="#fff"><polygon id="polygon505" points="367.4 234.5 367.4 229.1 373.8 231.8"/><rect id="rect507" x="375.5" y="229.1" width="2.9" height="5.4"/><rect id="rect509" x="379.1" y="229.1" width="2.9" height="5.4"/></g><g id="g511" fill="#070707"><path id="path513" d="m378.1 188.2v-2.8h0.6v2.3h1.4v0.5h-2z"/><path id="path515" d="m380.5 188.2v-2.8h0.6v2.8h-0.6z"/><path id="path517" d="m381.6 188.2v-2.8h1.9v0.5h-1.3v0.7h1.2v0.5h-1.2v1.2h-0.6z"/><path id="path519" d="m384.6 188.2v-2.3h-0.8v-0.5h2.2v0.5h-0.8v2.3h-0.6z"/><path id="path521" d="m376.6 191.4c0-0.3 0-0.5 0.1-0.7 0.1-0.1 0.1-0.3 0.3-0.4s0.2-0.2 0.4-0.3 0.4-0.1 0.6-0.1c0.4 0 0.7 0.1 1 0.4s0.4 0.6 0.4 1.1c0 0.4-0.1 0.8-0.4 1.1-0.2 0.3-0.6 0.4-1 0.4s-0.7-0.1-1-0.4-0.4-0.6-0.4-1.1zm0.6 0c0 0.3 0.1 0.6 0.2 0.7 0.1 0.2 0.3 0.2 0.6 0.2s0.4-0.1 0.6-0.2c0.1-0.2 0.2-0.4 0.2-0.7s-0.1-0.6-0.2-0.7c-0.1-0.2-0.3-0.2-0.6-0.2s-0.4 0.1-0.6 0.2c-0.2 0.2-0.2 0.4-0.2 0.7z"/><path id="path523" d="m379.7 192.8v-2.8h0.9 0.7c0.2 0 0.3 0.1 0.4 0.3 0.1 0.1 0.2 0.3 0.2 0.5s0 0.3-0.1 0.4-0.1 0.2-0.2 0.3-0.2 0.1-0.3 0.1h-0.6-0.4v1.1h-0.6zm0.6-2.3v0.8h0.3 0.4c0.1 0 0.1-0.1 0.2-0.1s0.1-0.1 0.1-0.2 0-0.2-0.1-0.3-0.1-0.1-0.2-0.1h-0.4-0.3z"/><path id="path525" d="m382.3 192.8v-2.8h2.1v0.5h-1.5v0.6h1.4v0.5h-1.4v0.8h1.6v0.5h-2.2z"/><path id="path527" d="m384.9 192.8v-2.8h0.5l1.1 1.9v-1.9h0.5v2.8h-0.6l-1.1-1.8v1.8h-0.4z"/></g><g id="g529"><path id="path531" d="m264.3 257.9c-41.2 0-78.4-22.6-97.4-59.1h-29.4v-2.6h31.5v1c18.5 35.9 55 58.1 95.3 58.1s76.8-22.3 95.3-58.1v-1h1.3 30.2v2.6h-29.4c-19 36.5-56.2 59.1-97.4 59.1z"/></g><circle id="circle533" cx="264.3" cy="148" r="108.5" fill="#242729"/><circle id="circle535" cx="264.3" cy="148" r="103.1" fill="#141618"/><path id="path537" d="m362.6 116.9c3.1 9.8 4.8 20.2 4.8 31.1 0 10.8-1.7 21.3-4.8 31.1h-196.7c-3.1-9.8-4.8-20.2-4.8-31.1 0-10.8 1.7-21.3 4.8-31.1h196.7" fill="#0f0f0f"/><path id="path539" d="m210.6 163.6" fill="none" stroke="#1c809b" stroke-miterlimit="10"/><g id="g541" fill="#fff"><path id="path7113" d="m363.9 243.7v4.9h-1.8v-2.3l-4.5 2.1v-2.1l-4.5 2.1v-4.5l4.5 2.1v-2.1l4.5 2.1v-2.3h1.8z"/><path id="path7113_1_" d="m340.3 243.7v2.3l4.5-2.1v2.1l4.5-2.1v4.5l-4.5-2.1v2.1l-4.5-2.1v2.3h-1.8v-4.9h1.8z"/></g><g id="g545"><g id="g547"><path id="path549" d="m367.4 260.6h-32.5c-3 0-5.5-2.5-5.5-5.5s2.5-5.5 5.5-5.5h32.5c3 0 5.5 2.5 5.5 5.5s-2.5 5.5-5.5 5.5zm-32.5-9.7c-2.3 0-4.2 1.9-4.2 4.2s1.9 4.2 4.2 4.2h32.5c2.3 0 4.2-1.9 4.2-4.2s-1.9-4.2-4.2-4.2h-32.5z" fill="#131313"/></g><path id="path551" d="m367.6 259.9h-32.8c-2.6 0-4.6-2.1-4.6-4.6v-0.4c0-2.6 2.1-4.6 4.6-4.6h32.8c2.6 0 4.6 2.1 4.6 4.6v0.4c0 2.5-2.1 4.6-4.6 4.6z" fill="#707070"/><path id="path553" d="m367.1 257.1h-31.9c-1.1 0-2-0.9-2-2v-0.1c0-1.1 0.9-2 2-2h31.9c1.1 0 2 0.9 2 2v0.2c0 1-0.9 1.9-2 1.9z" fill="#212327"/><rect id="rect555" x="334.8" y="254.5" width="33" height="1.1" fill="#d3d8ca"/><rect id="rect557" x="350.4" y="251.7" width="1.4" height="6.7" fill="#242729"/></g><g id="g559"><path id="path561" d="m199.4 263.2h-13.9c-2.7 0-4.8-2.2-4.8-4.8 0-2.7 2.2-4.8 4.8-4.8h8c1.1-2.2 3.4-3.6 5.9-3.6 3.6 0 6.6 3 6.6 6.6 0 3.4-2.6 6.2-5.9 6.6h-0.7zm-13.9-8.4c-1.9 0-3.5 1.6-3.5 3.5s1.6 3.5 3.5 3.5h13.2 0.6c2.9 0 5.3-2.4 5.3-5.3s-2.4-5.3-5.3-5.3c-2.1 0-4 1.3-4.9 3.2l-0.5-0.2v0.6h-8.4z" fill="#131313"/></g><path id="path563" d="m199.4 262.5h-14c-2.2 0-4-1.8-4-4v-0.3c0-2.2 1.8-4 4-4h14v8.3z" fill="#707070"/><circle id="circle565" cx="186" cy="258.5" r="2.4" fill="#43544a"/><circle id="circle567" cx="199.4" cy="256.6" r="5.9" fill="#707070"/><circle id="circle569" cx="199.4" cy="256.6" r="4.5" fill="#212327"/><path id="path571" d="m214.6 170.1c-2.8-6.8-4.3-14.2-4.3-22s1.5-15.2 4.3-22h-40.4-0.1c-1.7 7-2.6 14.4-2.6 21.9 0 7.6 0.9 15 2.7 22.1h40.4z" fill="#27292b"/><path id="path573" d="m314 169.9c2.8-6.8 4.3-14.2 4.3-22s-1.5-15.2-4.3-22h40.4 0.1c1.7 7 2.6 14.4 2.6 21.9 0 7.6-0.9 15-2.7 22.1h-40.4z" fill="#27292b"/></g></g><g id="g3908" transform="matrix(1.4284 0 0 1.4284 568.82 259.59)"><g id="g3910"><path id="path3912" d="m239.8 121.8c0 2.5-2 4.5-4.5 4.5h-68.7c-2.5 0-4.5-2-4.5-4.5v-111c0-2.5 2-4.5 4.5-4.5h68.7c2.5 0 4.5 2 4.5 4.5v111z" fill="#e6e6e6"/><rect id="rect3914" x="165.1" y="48" width="71.5" height="67.6" fill="#b3b3b3"/><path id="path3916" d="m164 8.9v31.3c0 2.5 2 4.6 4.5 4.6h64.6c2.5 0 4.5-2.1 4.5-4.6v-31.3h-73.6z" fill="#202022"/><rect id="rect3918" x="164" y="8.9" width="73.6" height="6.2"/><polygon id="polygon3920" points="211.6 124.4 211.6 120.9 200.9 117.7 190.1 120.9 190.1 124.4" fill="#ccc"/><g id="g3922" fill="#f7b71d"><rect id="rect3924" x="166" y="10.4" width="1.1" height="4.2"/><rect id="rect3926" x="167.9" y="9.8" width="1.1" height="4.8"/><rect id="rect3928" x="169.7" y="9.8" width="1.1" height="4.8"/><rect id="rect3930" x="171.6" y="9.8" width="1.1" height="4.8"/><rect id="rect3932" x="173.4" y="9.8" width="1.1" height="4.8"/><rect id="rect3934" x="175.3" y="9.8" width="1.1" height="4.8"/><rect id="rect3936" x="177.1" y="9.8" width="1.1" height="4.8"/><rect id="rect3938" x="179" y="9.8" width="1.1" height="4.8"/><rect id="rect3940" x="180.8" y="9.8" width="1.1" height="4.8"/><rect id="rect3942" x="182.7" y="9.8" width="1.1" height="4.8"/><rect id="rect3944" x="184.6" y="9.8" width="1.1" height="4.8"/><rect id="rect3946" x="186.4" y="9.8" width="1.1" height="4.8"/><rect id="rect3948" x="188.3" y="9.8" width="1.1" height="4.8"/><rect id="rect3950" x="190.1" y="9.8" width="1.1" height="4.8"/><rect id="rect3952" x="192" y="9.8" width="1.1" height="4.8"/><rect id="rect3954" x="193.8" y="9.8" width="1.1" height="4.8"/><rect id="rect3956" x="195.7" y="9.8" width="1.1" height="4.8"/><rect id="rect3958" x="197.5" y="8.9" width="1.1" height="6.2"/><rect id="rect3960" x="199.4" y="9.8" width="1.1" height="4.8"/><rect id="rect3962" x="201.3" y="9.8" width="1.1" height="4.8"/><rect id="rect3964" x="203.1" y="9.8" width="1.1" height="4.8"/><rect id="rect3966" x="205" y="9.8" width="1.1" height="4.8"/><rect id="rect3968" x="206.8" y="9.8" width="1.1" height="4.8"/><rect id="rect3970" x="208.7" y="9.8" width="1.1" height="4.8"/><rect id="rect3972" x="210.5" y="9.8" width="1.1" height="4.8"/><rect id="rect3974" x="212.4" y="9.8" width="1.1" height="4.8"/><rect id="rect3976" x="214.2" y="9.8" width="1.1" height="4.8"/><rect id="rect3978" x="216.1" y="9.8" width="1.1" height="4.8"/><rect id="rect3980" x="217.9" y="9.8" width="1.1" height="4.8"/><rect id="rect3982" x="219.8" y="9.8" width="1.1" height="4.8"/><rect id="rect3984" x="221.7" y="9.8" width="1.1" height="4.8"/><rect id="rect3986" x="223.5" y="9.8" width="1.1" height="4.8"/><rect id="rect3988" x="225.4" y="9.8" width="1.1" height="4.8"/><rect id="rect3990" x="227.2" y="9.8" width="1.1" height="4.8"/><rect id="rect3992" x="229.1" y="9.8" width="1.1" height="4.8"/><rect id="rect3994" x="230.9" y="9.8" width="1.1" height="4.8"/><rect id="rect3996" x="232.8" y="9.8" width="1.1" height="4.8"/><rect id="rect3998" x="234.6" y="8.9" width="1.1" height="6.2"/></g><g id="g4000"><polygon id="polygon4002" points="192.1 84.9 192.1 109.8 209.6 109.8 209.6 84.9" fill="#fff" stroke="#000" stroke-miterlimit="2.6131" stroke-width=".3739"/><polygon id="polygon4004" points="192.6 85.6 192.6 109.1 208.9 109.1 208.9 85.6"/><polygon id="polygon4006" points="194.1 87.3 193.3 87.3 193.3 86.5 195.6 86.5 195.6 87.2 194.9 87.2 194.9 96.9 194.1 96.9" fill="#fff"/><path id="path4008" d="m196.9 93.3h0.9v-6.8h0.8v6.8c0 0.4-0.4 0.8-0.8 0.8h-0.9c-0.4 0-0.8-0.4-0.8-0.8v-6.8h0.8v6.8z" fill="#fff"/><path id="path4010" d="m199.3 94.1v-7.5h1.6c0.4 0 0.8 0.3 0.8 0.7v2.5c0 0.4-0.3 0.8-0.6 0.8l0.8 3.6h-0.7l-0.8-3.5h-0.4v3.5h-0.7v-0.1z" fill="#fff"/><path id="path4012" d="m202.4 86.6h1.7c0.4 0 0.7 0.3 0.7 0.7v2.3c0 0.3-0.3 0.5-0.3 0.5s0.3 0.2 0.3 0.5v2.7c0 0.5-0.4 0.7-0.7 0.7h-1.7v-7.4z" fill="#fff"/><path id="path4014" d="m206.7 86.5h0.4c0.5 0 0.8 0.4 0.8 0.7v9c0 0.3-0.4 0.7-0.7 0.7h-0.9c-0.3 0-0.8-0.4-0.8-0.7v-8.9c0-0.3 0.3-0.7 0.8-0.7h0.4v-0.1z" fill="#fff"/><path id="path4016" d="m194.9 102.3h1.2v5.9h-1.7c-0.4 0-0.8-0.3-0.8-0.7v-8.9c0-0.4 0.4-0.8 0.8-0.8h0.9c0.4 0 0.8 0.4 0.8 0.8v2.1h-0.8v-2.1h-0.9v8.9h0.9v-4.5h-0.4v-0.7z" fill="#fff"/><path id="path4018" d="m196.9 108.2v-7.5h1.6c0.4 0 0.8 0.3 0.8 0.7v2.5c0 0.4-0.3 0.8-0.6 0.8l0.8 3.6h-0.7l-0.8-3.5h-0.3v3.5h-0.8v-0.1z" fill="#fff"/><path id="path4020" d="m200.8 104.6v3.6h-0.8v-6.8c0-0.3 0.3-0.7 0.7-0.7h1c0.4 0 0.7 0.3 0.7 0.7v6.8h-0.7v-3.6h-0.9z" fill="#fff"/><path id="path4022" d="m204 104.6v3.6h-0.7v-6.8c0-0.3 0.3-0.6 0.6-0.6h1.2v0.7h-1.1v2.5h0.9v0.7l-0.9-0.1z" fill="#fff"/><path id="path4024" d="m205.5 97.8h0.8v3.8l0.4 0.7 0.4-0.6v-3.8h0.8v3.6c0 0.4-0.8 1.6-0.8 1.6s0.8 1.2 0.8 1.6v3.6h-0.7v-3.7l-0.5-0.7-0.5 0.7v3.7h-0.8v-3.6c0-0.4 0.8-1.6 0.8-1.6s-0.8-1.1-0.8-1.6l0.1-3.7z" fill="#fff"/><polygon id="polygon4026" points="200 87.3 200 89.7 200.9 89.7 200.9 87.3"/><polygon id="polygon4028" points="197.6 101.4 197.6 103.9 198.5 103.9 198.5 101.4"/><polygon id="polygon4030" points="203.2 87.3 203.2 89.7 204 89.7 204 87.3"/><polygon id="polygon4032" points="203.2 90.5 203.2 93.3 204 93.3 204 90.5"/><polygon id="polygon4034" points="206.4 87.3 206.4 96.2 207.2 96.2 207.2 87.3"/><polygon id="polygon4036" points="200.8 101.4 200.8 103.9 201.7 103.9 201.7 101.4"/><path id="path4038" d="m198.9 100c-1.2 0-2.5-1-2.5-2.6 0-1.5 1.3-2.6 2.5-2.6v5.2z" fill="#fff"/><path id="path4040" d="m202.5 100c1.2 0 2.5-1 2.5-2.6 0-1.5-1.3-2.6-2.5-2.6v5.2z" fill="#fff"/><polygon id="polygon4042" points="198.9 94.8 198.9 100 202.5 100 202.5 94.8" fill="#fff"/><path id="path4044" d="m198.8 99.5c-0.6 0-1.9-0.7-1.9-2.2 0-1.3 1.2-2.1 1.9-2.1v4.3z"/><path id="path4046" d="m202.7 99.5c0.6 0 1.9-0.7 1.9-2.2 0-1.3-1.2-2.1-1.9-2.1v4.3z"/><polygon id="polygon4048" points="198.8 95.2 198.8 99.5 202.7 99.5 202.7 95.2"/><polygon id="polygon4050" points="199.4 98.9 198.2 98.9 198.2 98.5 198.6 98.5 198.6 96.3 198.2 96.3 198.2 95.8 199 95.8 199 98.5 199.4 98.5" fill="#fff"/><polygon id="polygon4052" points="200 98.6 200 96.1 200.2 95.9 203 95.9 203.2 96.1 203.2 96.7 202.8 96.7 202.8 96.3 200.4 96.3 200.4 97.2 203 97.2 203.2 97.4 203.2 98.6 202.9 98.9 200.3 98.9" fill="#fff"/><polygon id="polygon4054" points="200.4 97.6 200.4 98.5 202.8 98.5 202.8 97.6"/></g><g id="g4056" fill="#231f20"><path id="path4058" d="m221.4 112h-1l-0.3 1.2h-0.6l0.6-2.7h0.6l-0.2 1h1l0.2-1h0.6l-0.6 2.7h-0.6l0.3-1.2z"/><path id="path4060" d="m222.6 111.3h0.5l-0.2 1.2v0.3c0 0.1 0 0.1 0.1 0.1 0 0 0.1 0.1 0.2 0.1h0.1s0.1 0 0.1-0.1l0.1-0.1s0.1-0.1 0.1-0.2 0-0.1 0.1-0.3l0.2-0.9h0.5l-0.4 2h-0.5l0.1-0.3c-0.2 0.2-0.5 0.3-0.7 0.3s-0.3 0-0.4-0.1-0.1-0.2-0.1-0.4c0-0.1 0-0.2 0.1-0.4l0.1-1.2z"/><path id="path4062" d="m226.5 112.3 0.6 0.1c-0.1 0.3-0.3 0.5-0.5 0.7s-0.5 0.2-0.8 0.2-0.6-0.1-0.8-0.3-0.3-0.5-0.3-0.9c0-0.3 0.1-0.6 0.2-0.8 0.1-0.3 0.3-0.4 0.5-0.6 0.2-0.1 0.5-0.2 0.7-0.2 0.3 0 0.5 0.1 0.7 0.2 0.2 0.2 0.3 0.4 0.3 0.6l-0.5 0.1c0-0.2-0.1-0.3-0.2-0.3-0.1-0.1-0.2-0.1-0.3-0.1-0.2 0-0.3 0-0.4 0.1s-0.2 0.2-0.3 0.4-0.1 0.4-0.1 0.6 0.1 0.4 0.2 0.5 0.2 0.2 0.4 0.2c0.1 0 0.3 0 0.4-0.1 0-0.1 0.1-0.2 0.2-0.4z"/><path id="path4064" d="m229 112.7h-1l-0.3 0.6h-0.6l1.5-2.7h0.6l0.4 2.7h-0.5l-0.1-0.6zm0-0.5-0.2-1.1-0.7 1.1h0.9z"/><path id="path4066" d="m230.5 113.3h-0.5l0.6-2.7h1.2c0.2 0 0.4 0 0.5 0.1 0.1 0 0.2 0.1 0.3 0.2s0.1 0.2 0.1 0.4-0.1 0.4-0.2 0.6c-0.1 0.1-0.3 0.2-0.6 0.3 0.1 0.1 0.1 0.1 0.2 0.3s0.3 0.5 0.4 0.9h-0.6c0-0.2-0.1-0.4-0.3-0.7-0.1-0.2-0.2-0.3-0.2-0.4-0.1 0-0.1-0.1-0.3-0.1h-0.2l-0.4 1.1zm0.4-1.6h0.3c0.3 0 0.5 0 0.6-0.1 0.1 0 0.2-0.1 0.2-0.2 0.1-0.1 0.1-0.2 0.1-0.2 0-0.1 0-0.2-0.1-0.2h-0.3-0.7l-0.1 0.7z"/><path id="path4068" d="m232.7 113.3 0.6-2.7h0.7 0.4c0.1 0 0.2 0 0.3 0.1 0.1 0 0.2 0.1 0.2 0.1l0.2 0.2c0.1 0.1 0.1 0.2 0.1 0.3v0.4c0 0.3-0.1 0.5-0.2 0.8-0.1 0.2-0.3 0.4-0.4 0.5s-0.3 0.2-0.5 0.2h-0.5-0.9zm0.7-0.5h0.3 0.4s0.2-0.1 0.3-0.1c0.1-0.1 0.2-0.2 0.3-0.4s0.1-0.4 0.1-0.6 0-0.3-0.1-0.4-0.1-0.2-0.2-0.2h-0.3-0.3l-0.5 1.7z"/></g></g><g id="g4070"><path id="path4072" d="m130.6 66.3c0 35.5-28.8 64.3-64.3 64.3s-64.4-28.8-64.4-64.3 28.9-64.4 64.4-64.4 64.3 28.8 64.3 64.4zm-53.3-23.4c-3.4-1.6-7.1-2.5-11-2.5-14.3 0-25.9 11.6-25.9 25.9s11.6 25.9 25.9 25.9 25.9-11.6 25.9-25.9c0-10.3-6.1-19.3-14.9-23.4" fill="#604832"/><g id="g4074"><path id="path4076" d="m66.3 132.6c-36.6 0-66.3-29.8-66.3-66.3s29.7-66.3 66.3-66.3 66.3 29.7 66.3 66.3-29.8 66.3-66.3 66.3zm0-132.5c-36.5 0-66.2 29.7-66.2 66.2s29.7 66.2 66.2 66.2 66.2-29.7 66.2-66.2-29.7-66.2-66.2-66.2z" fill="#0f1417"/></g><g id="g4078"><path id="path4080" d="m66.3 77.8c-6.3 0-11.5-5.2-11.5-11.5s5.2-11.5 11.5-11.5 11.5 5.2 11.5 11.5-5.2 11.5-11.5 11.5zm0-22.2c-5.9 0-10.7 4.8-10.7 10.7s4.8 10.7 10.7 10.7 10.7-4.8 10.7-10.7-4.8-10.7-10.7-10.7z" fill="#a198a0"/></g><g id="g4082"><path id="path4084" d="m66.3 75.6c-5.1 0-9.3-4.2-9.3-9.3s4.2-9.3 9.3-9.3 9.3 4.2 9.3 9.3-4.2 9.3-9.3 9.3zm0-17.8c-4.7 0-8.5 3.8-8.5 8.5s3.8 8.5 8.5 8.5 8.5-3.8 8.5-8.5-3.8-8.5-8.5-8.5z" fill="#a198a0"/></g><path id="path4086" d="m66.3 88" fill="none" stroke="#7bc043" stroke-miterlimit="10"/><path id="path4088" d="m66.3 92.2" fill="none" stroke="#7bc043" stroke-miterlimit="10"/><path id="path4090" d="m66.3 42.9" fill="none" stroke="#7bc043" stroke-miterlimit="10"/><path id="path4092" d="m66.3 40.4" fill="none" stroke="#7bc043" stroke-miterlimit="10"/><path id="path4094" d="m66.3 66.3" fill="none" stroke="#7bc043" stroke-miterlimit="10"/><path id="path4096" d="m66.3 69.8" fill="none" stroke="#7bc043" stroke-miterlimit="10"/><path id="path4098" d="m1.9 66.3c0 35.5 28.8 64.3 64.3 64.3s64.3-28.8 64.3-64.3l0.2-0.3h-38.5c0 14.3-11.2 25.9-25.5 25.9s-25.9-11.6-25.9-25.9h-39" fill="#1e1c1a"/><g id="g4100"><g id="g4102"><g id="g4104"><path id="path4106" d="m58.2 97.6c0-0.6 0.4-1.1 1-1.2h1.4c0.7-0.1 1.3 0.5 1.2 1.2v2h-1.2v-2h-1.3v11h1.3v-5.3h-0.6v-1.1h1.7v7.5h-2.4c-0.5 0-0.9-0.3-1.1-0.7-0.1-0.2-0.1-0.5-0.1-0.7 0.1-3.6 0.1-7.2 0.1-10.7z" fill="#604832"/><g id="g4108"><path id="path4110" d="m64.8 98.6h2.3c0.5 0 1 0.3 1.2 0.7 0.1 0.2 0.1 0.4 0.1 0.5v3.5c0 0.5-0.4 1-0.9 1.1 0.4 1.7 0.7 3.5 1.1 5.2h-1.1c-0.4-1.7-0.8-3.5-1.2-5.2h-0.4v5.2h-1.1v-11zm1.1 1.1v3.6h1.3v-3.6h-1.3z" fill="#604832"/></g><g id="g4112"><path id="path4114" d="m71.3 99.7c0-0.5 0.4-1 0.9-1h1.5c0.3 0 0.5 0.1 0.7 0.2 0.2 0.2 0.4 0.5 0.4 0.8v10h-1.1v-5.2h-1.3v5.2h-1.1v-10zm1.1 0.1v3.5h1.3v-3.5h-1.3z" fill="#604832"/></g><path id="path4116" d="m77.6 99.6c0-0.5 0.4-0.9 0.9-0.9h1.8v1h-1.7v3.7h1.4v1.1h-1.4v5.2h-1.1c0.1-3.4 0.1-6.8 0.1-10.1z" fill="#604832"/><path id="path4118" d="m83.1 98.6h1.2v3.1c0.2 0.3 0.4 0.6 0.6 1l0.6-0.9v-3.1h1.2v2.2c0 0.3 0 0.7-0.1 1-0.3 0.7-0.6 1.3-1 1.9 0.4 0.7 0.9 1.4 1.1 2.2v3.7h-1.1v-3.7c-0.2-0.4-0.5-0.7-0.7-1.1-0.2 0.3-0.5 0.7-0.7 1v3.7h-1.1v-3.5c0-0.3 0.1-0.6 0.3-0.9 0.3-0.5 0.6-1.1 0.9-1.6-0.5-0.7-1-1.4-1.2-2.2-0.1-0.8 0-1.8 0-2.8z" fill="#604832"/></g><g id="g4120" fill="#604832"><path id="path4122" d="m97.9 102.5h-1.8v3.5h1.8v-3.5z"/><path id="path4124" d="m100.4 106.1c0.4-1.3 0.4-2.7 0-3.9-0.4-1.1-1.1-2-2-2.7-1.3-0.9-2.9-1.3-4.4-1.1-1.9 0.3-3.7 1.7-4.4 3.5-0.8 1.8-0.6 3.9 0.5 5.6 1 1.6 2.9 2.6 4.8 2.6 1.3 0 2.6-0.4 3.6-1.2 0.8-0.8 1.5-1.7 1.9-2.8zm-9.1-4.4h2.3l0.4 0.4v0.9h-0.7v-0.6h-1.7v3.5h1.7v-0.6h0.7v0.9l-0.4 0.4h-2.3l-0.4-0.4v-4.3l0.4-0.2zm3.6 0.8v-0.8h3.4l0.4 0.4v4.3l-0.4 0.4h-3.5v-0.8h0.4v-3.5h-0.3z"/></g><g id="g4126"><path id="path4128" d="m31.9 98.6h1.1v9.9h1.3v-9.9h1.2v9.5 0.7c-0.1 0.5-0.6 0.8-1.1 0.8h-1.4c-0.6 0-1.1-0.6-1.1-1.2v-9.8z" fill="#604832"/><g id="g4130"><path id="path4132" d="m38.3 98.6h2.4c0.6 0 1.2 0.4 1.2 1v3.6c0 0.5-0.4 1.1-0.9 1.2 0.4 1.7 0.7 3.5 1.1 5.2h-1.1c-0.4-1.7-0.8-3.4-1.2-5.2h-0.4v5.2h-1.1v-11zm1.2 1.1v3.6h1.3v-3.6h-1.3z" fill="#604832"/></g><g id="g4134"><path id="path4136" d="m45 98.6h2.5c0.5 0 1 0.4 1 1v3.5c0 0.3-0.2 0.6-0.5 0.8 0.2 0.2 0.4 0.4 0.5 0.7v1.4 2.2c0 0.3 0 0.6-0.1 0.9-0.2 0.3-0.5 0.5-0.9 0.5h-2.5v-11zm1.1 1.1v3.6h1.3v-3.6h-1.3zm0 4.8v4.1h1.3v-4.1h-1.3z" fill="#604832"/></g><g id="g4138"><path id="path4140" d="m52.2 98.7c0.3-0.1 0.7-0.1 1-0.1 0.4 0 0.8 0 1.1 0.1 0.3 0.2 0.7 0.5 0.6 0.9v8.5c0 0.2 0 0.5-0.1 0.7-0.2 0.4-0.5 0.7-0.9 0.7h-1.1c-0.2 0-0.4 0-0.7-0.1-0.4-0.2-0.8-0.6-0.8-1.1v-8.5c0-0.2 0-0.5 0.1-0.7 0.2 0 0.5-0.3 0.8-0.4zm0.4 1v8.8h1.2v-8.8h-1.2z" fill="#604832"/></g><polygon id="polygon4142" points="28.4 109.7 27.2 109.7 27.2 97.5 26.1 97.5 26.1 96.4 29.5 96.4 29.5 97.5 28.4 97.5" fill="#604832"/></g></g><g id="g4144"><path id="path4146" d="m105.5 74.4-4.1-4.4-1.8 1.9 0.9 0.7-1.1 5.4 2.1-0.9-1.1-0.9 0.6-2.8 4.3 4.5 1.5-6.1 1.5-0.8-1.8-1-1 4.4zm3.6-3.7c0.1 0.1 0.3 0.3 0.3 0.5l-0.5 2.4c0 0.2-0.2 0.3-0.4 0.4-0.1 0.1-0.3 0.1-0.5 0.1 0.2 0.1 0.3 0.1 0.4 0.2s0.2 0.2 0.2 0.4l-0.6 2.3c-0.1 0.2-0.3 0.4-0.5 0.5s-0.4 0.2-0.6 0.2h6.8l0.5-2.3c-0.3 0.5-0.5 1-1 1.3-0.4 0.3-1.1 0.6-1.7 0.6h-1.3l0.6-2.9c0.2-0.1 0.5-0.1 0.7 0s0.4 0.3 0.6 0.5 0.3 0.4 0.5 0.7l0.7-3c-0.2 0.2-0.5 0.4-0.7 0.6-0.3 0.2-0.6 0.3-0.8 0.4-0.3 0.1-0.5 0.1-0.8 0l0.6-2.8h1c0.5 0 0.9-0.1 1.3 0.2s0.7 0.9 0.9 1.4l0.5-2.1h-7c0.5 0.2 0.7 0.3 0.8 0.4zm8.2 0.8c-0.5 0.4-1 0.9-1.3 1.5s-0.5 1.2-0.5 1.8 0.1 1.1 0.4 1.6 0.6 0.9 1.1 1.2 1 0.4 1.5 0.5 1 0.1 1.3 0c0.4 0 0.6-0.1 0.9-0.3l1.4-2.7c-0.4 0.2-0.8 0.3-1.1 0.5s-0.8 0.3-1.2 0.3-0.9 0-1.3-0.2-0.8-0.6-0.9-1c-0.2-0.4-0.2-0.9-0.1-1.3s0.4-0.8 0.7-1.2c0.3-0.3 0.7-0.6 1.1-0.8s0.7-0.3 1-0.3l1.1 1.4 1.3-0.4-0.9-2h-0.8c-0.3 0-0.6 0.1-1 0.2s-0.7 0.2-1.2 0.4c-0.4 0.1-1 0.4-1.5 0.8z" fill="#604832" fill-rule="evenodd"/></g><g id="g4148" fill="#604832"><path id="path4150" d="m30.4 69.7v0.1c0 0.1 0 0.2-0.4 0.2s-0.4-0.1-0.4-0.2v-0.4-0.4c0-0.1 0-0.2 0.4-0.2s0.4 0.1 0.4 0.2v0.1h0.6v-0.3c0-0.3 0.1-0.6-1-0.6s-1 0.3-1 0.6v0.6 0.6c0 0.3-0.1 0.6 1 0.6s1-0.3 1-0.6v-0.3h-0.6z"/><polygon id="polygon4152" points="23 69.9 22.4 68.3 21.6 68.3 21.6 70.5 22.2 70.5 22.2 68.9 22.7 70.5 23.3 70.5 23.8 68.9 23.8 70.5 24.4 70.5 24.4 68.3 23.6 68.3"/><polygon id="polygon4154" points="31.7 68.9 31.1 68.9 31.1 68.3 32.7 68.3 32.7 68.9 32.2 68.9 32.2 70.5 31.7 70.5"/><polygon id="polygon4156" points="28.9 70.5 28.4 70.5 28.2 70 27.5 70 27.6 69.7 28.1 69.7 27.8 68.8 27.3 70.5 26.8 70.5 27.4 68.3 28.3 68.3"/><path id="path4158" d="m20.2 68.7c0.4 0 0.4 0.1 0.4 0.2v0.4 0.4c0 0.1 0 0.2-0.4 0.2s-0.4-0.1-0.4-0.2v-0.4-0.4c0-0.1 0-0.2 0.4-0.2v-0.5c-1.1 0-1 0.3-1 0.6v0.6 0.6c0 0.3-0.1 0.6 1 0.6s1-0.3 1-0.6v-0.6-0.6c0-0.3 0.1-0.6-1-0.6v0.5z"/><path id="path4160" d="m18.3 69.7v0.1c0 0.1 0 0.2-0.4 0.2s-0.4-0.1-0.4-0.2v-0.4-0.4c0-0.1 0-0.2 0.4-0.2s0.4 0.1 0.4 0.2v0.1h0.6v-0.3c0-0.3 0.1-0.6-1-0.6s-1 0.3-1 0.6v0.6 0.6c0 0.3-0.1 0.6 1 0.6s1-0.3 1-0.6v-0.3h-0.6z"/><path id="path4162" d="m25.8 70h-0.3v-0.5h0.3c0.4 0 0.4-0.1 0.4-0.2v-0.1-0.1c0-0.1 0-0.2-0.4-0.2h-0.3v1.7h-0.6v-2.2h0.9c1.1 0 1 0.3 1 0.6v0.3 0.3c0 0.1 0.1 0.4-1 0.4z"/><path id="path4164" d="m14.8 78.8h-3.5c-0.5 0-0.9-0.4-0.9-0.9v-5.4c0-0.5 0.4-0.9 0.9-0.9h2.2c0.3 0 0.5-0.2 0.5-0.5v-2.1c0-0.1 0.1-0.2 0.2-0.2h1.3c0.1 0 0.2 0.1 0.2 0.2v9.6c0 0.1-0.1 0.2-0.2 0.2h-0.7v0.5h0.9c0.3 0 0.5-0.2 0.5-0.5v-10c0-0.3-0.2-0.5-0.5-0.5h-1.7c-0.3 0-0.5 0.2-0.5 0.5v2.2c0 0.1-0.1 0.2-0.2 0.2h-2c-0.8 0-1.4 0.6-1.4 1.4v5.4c0 0.8 0.6 1.4 1.4 1.4h3.5v-0.6z"/><path id="path4166" d="m13.5 76.8v-3.5c0-0.3-0.2-0.5-0.5-0.5s-0.5 0.2-0.5 0.5v3.7c0 0.3 0.2 0.5 0.5 0.5s0.5-0.2 0.5-0.5v-0.2h0.5v0.3c0 0.6-0.5 1-1 1-0.6 0-1-0.5-1-1v-3.7c0-0.6 0.5-1 1-1 0.6 0 1 0.5 1 1v3.5l-0.5-0.1z"/><path id="path4168" d="m18.2 78.8h-0.7c-0.1 0-0.2-0.1-0.2-0.2v-6.8c0-0.1 0.1-0.2 0.2-0.2h1.3c0.1 0 0.2 0.1 0.2 0.2v6.8c0 0.1-0.1 0.2-0.2 0.2h-0.6v0.5h0.8c0.3 0 0.5-0.2 0.5-0.5v-7.2c0-0.3-0.2-0.5-0.5-0.5h-1.7c-0.3 0-0.5 0.2-0.5 0.5v7.2c0 0.3 0.2 0.5 0.5 0.5h0.9v-0.5z"/><path id="path4170" d="m24.3 72.9h-1.4c-0.4 0-0.8 0.4-0.8 0.8s0.4 0.8 0.8 0.8h1.9c0.5 0 0.9 0.4 0.9 0.9v2.4c0 0.5-0.4 0.9-0.9 0.9h-3.9c-0.1 0-0.2-0.1-0.2-0.2v-0.9c0-0.1 0.1-0.2 0.2-0.2h2.6c0.4 0 0.8-0.4 0.8-0.8s-0.4-0.8-0.8-0.8h-1.9c-0.5 0-0.9-0.4-0.9-0.9v-2.4c0-0.5 0.4-0.9 0.9-0.9h3.6c0.1 0 0.2 0.1 0.2 0.2v1c0 0.1-0.1 0.2-0.2 0.2l-0.9-0.1v0.5h1.2c0.3 0 0.5-0.2 0.5-0.5v-1.3c0-0.3-0.2-0.5-0.5-0.5h-3.8c-0.8 0-1.4 0.6-1.4 1.4v2.4c0 0.8 0.6 1.4 1.4 1.4h1.9c0.2 0 0.3 0.1 0.3 0.3s-0.1 0.3-0.3 0.3h-2.8c-0.3 0-0.5 0.2-0.5 0.5v1.3c0 0.3 0.2 0.5 0.5 0.5h4.1c0.8 0 1.4-0.6 1.4-1.4v-2.4c0-0.8-0.6-1.4-1.4-1.4h-1.9c-0.2 0-0.3-0.1-0.3-0.3s0.1-0.3 0.3-0.3h1.4l-0.1-0.5z"/><path id="path4172" d="m31.4 74.3h0.6c0.1 0 0.2-0.1 0.2-0.2v-1.6c0-0.5-0.4-0.9-0.9-0.9h-3.1c-0.5 0-0.9 0.4-0.9 0.9v5.4c0 0.5 0.4 0.9 0.9 0.9h3.1c0.5 0 0.9-0.4 0.9-0.9v-1.5c0-0.1-0.1-0.2-0.2-0.2h-1.2c-0.1 0-0.2 0.1-0.2 0.2v0.7c0 0.6-0.3 1-0.9 1s-0.9-0.5-0.9-1v-3.7c0-0.6 0.3-1 0.9-1s0.9 0.5 0.9 1v0.7c0 0.1 0.1 0.2 0.2 0.2h0.6v0.5h-0.7c-0.3 0-0.5-0.2-0.5-0.5v-0.9c0-0.3-0.1-0.5-0.4-0.5s-0.4 0.2-0.4 0.5v3.7c0 0.3 0.1 0.5 0.4 0.5s0.4-0.2 0.4-0.5v-0.9c0-0.3 0.2-0.5 0.5-0.5h1.6c0.3 0 0.5 0.2 0.5 0.5v1.7c0 0.8-0.6 1.4-1.4 1.4h-3.1c-0.8 0-1.4-0.6-1.4-1.4v-5.4c0-0.8 0.6-1.4 1.4-1.4h3.1c0.8 0 1.4 0.6 1.4 1.4v1.8c0 0.3-0.2 0.5-0.5 0.5h-0.8l-0.1-0.5z"/></g></g><g id="g4174"><path id="path4176" d="m66.3 92.2c-14.3 0-25.9-11.6-25.9-25.9s11.6-25.9 25.9-25.9 25.9 11.6 25.9 25.9-11.6 25.9-25.9 25.9zm0-51c-13.9 0-25.1 11.3-25.1 25.1 0 13.9 11.3 25.1 25.1 25.1s25.1-11.3 25.1-25.1c0-13.9-11.3-25.1-25.1-25.1z"/></g><g id="g4178"><path id="path4180" d="m91.8 66.3c0 14.1-11.4 25.5-25.5 25.5s-25.5-11.4-25.5-25.5 11.4-25.5 25.5-25.5 25.5 11.4 25.5 25.5zm-25.5-22.2c-12.3 0-22.2 9.9-22.2 22.2s9.9 22.2 22.2 22.2 22.2-9.9 22.2-22.2-10-22.2-22.2-22.2z" fill="#aa9885"/></g></g></g></svg>
