<?xml version="1.0" encoding="UTF-8"?>
<!-- Generator: Adobe Illustrator 19.0.0, SVG Export Plug-In . SVG Version: 6.00 Build 0)  -->
<svg id="Layer_1" width="736.23" height="299.3" version="1.1" viewBox="0 0 736.23 299.3" xml:space="preserve" xmlns="http://www.w3.org/2000/svg" xmlns:cc="http://creativecommons.org/ns#" xmlns:dc="http://purl.org/dc/elements/1.1/" xmlns:rdf="http://www.w3.org/1999/02/22-rdf-syntax-ns#"><metadata id="metadata253"><rdf:RDF><cc:Work rdf:about=""><dc:format>image/svg+xml</dc:format><dc:type rdf:resource="http://purl.org/dc/dcmitype/StillImage"/><dc:title/></cc:Work></rdf:RDF></metadata><g id="g3"><rect id="rect5" x="12" y="98.3" width="504.6" height="3.3" fill="#131313"/><g id="g7"><path id="path9" d="m264.3 100.3h-135.5l4.6-86.4c0-7.6 7.2-13.9 16.1-13.9h114.8m0 100.3m0-100.3m0 4m0 92.3m0-92.3h-114.8c-6.3 0-11.5 4.5-11.5 10l-4.4 82.3h130.7" fill="#131313"/><g id="g11"><path id="path13" d="m264.3 0h114.8c8.9 0 16.1 6.3 16.1 13.9l4.6 86.4h-135.5m0-100.3m0 4m0 92.3h130.7l-4.4-82.3c0-5.5-5.2-10-11.5-10h-114.8" fill="#131313"/></g></g><path id="path15" d="m264.3 2h114.8c7.6 0 13.8 5.4 13.8 12l4.5 84.3h-133.1-133.1l4.5-84.3c0-6.6 6.2-12 13.8-12h114.8z" fill="#1b1c1c"/><path id="path17" d="m12 98.4h117.2l4.4-87.5-101.5 15.5c-5.7 0.9-10.4 5.4-11.8 11.3l-12.8 54.7c-0.7 3.1 1.5 6 4.5 6z" fill="#1b1c1c"/><g id="g19"><path id="path21" d="m129.6 98.9h-117.6c-1.6 0-3-0.7-4-2.1-1-1.3-1.3-3-0.9-4.6l12.8-54.6c1.4-6.2 6.2-10.8 12.2-11.7l102.1-15.6-4.6 88.6zm3.5-87.4-100.9 15.4c-5.6 0.9-10 5.2-11.4 11l-12.8 54.6c-0.3 1.3 0 2.7 0.8 3.7 0.8 1.1 2 1.7 3.2 1.7h116.8l4.3-86.4z" fill="#131313"/></g><path id="path23" d="m516.6 299.3h-504.6c-6.6 0-12-5.4-12-12v-173.6c0-6.6 5.4-12 12-12h504.6c6.6 0 12 5.4 12 12v173.7c0 6.5-5.4 11.9-12 11.9z" fill="#101111" fill-rule="evenodd"/><path id="path25" d="m516.6 98.4h-117.2l-4.4-87.5 101.5 15.5c5.7 0.9 10.4 5.4 11.8 11.3l12.8 54.6c0.7 3.2-1.5 6.1-4.5 6.1z" fill="#1b1c1c"/><g id="g27"><path id="path29" d="m394.5 10.3 102.1 15.6c5.9 0.9 10.7 5.5 12.2 11.7l12.8 54.6c0.4 1.6 0 3.3-0.9 4.6-1 1.3-2.4 2.1-4 2.1h-117.7l-4.5-88.6zm5.4 87.6h116.8c1.3 0 2.5-0.6 3.2-1.7 0.8-1.1 1.1-2.4 0.8-3.7l-12.8-54.6c-1.4-5.8-5.8-10.1-11.4-11l-101-15.4 4.4 86.4z" fill="#131313"/></g><path id="path31" d="m450.6 299.3h-138v-100c0-38.1 30.9-69 69-69s69 30.9 69 69v100z" fill="#1f2020"/><path id="path33" d="m433.5 299.3h-103.7v-88.9c0-2.6 2.1-4.8 4.8-4.8h94.3c2.6 0 4.8 2.1 4.8 4.8v88.9z" fill="#0f0f0f"/><g id="g35" fill="#1e1e1e"><path id="path37" d="m339.8 285h-0.1c-0.5 0-0.9-0.4-0.9-0.9v-77.6c0-0.5 0.4-0.9 0.9-0.9h0.1c0.5 0 0.9 0.4 0.9 0.9v77.6c-0.1 0.5-0.5 0.9-0.9 0.9z"/><path id="path39" d="m347.8 285h-0.1c-0.5 0-0.9-0.4-0.9-0.9v-77.6c0-0.5 0.4-0.9 0.9-0.9h0.1c0.5 0 0.9 0.4 0.9 0.9v77.6c-0.1 0.5-0.5 0.9-0.9 0.9z"/><path id="path41" d="m355.8 266.8h-0.1c-0.5 0-0.9-0.4-0.9-0.9v-59.4c0-0.5 0.4-0.9 0.9-0.9h0.1c0.5 0 0.9 0.4 0.9 0.9v59.5c-0.1 0.5-0.5 0.8-0.9 0.8z"/><path id="path43" d="m364.7 260h-0.1c-0.5 0-0.9-0.4-0.9-0.9v-52.6c0-0.5 0.4-0.9 0.9-0.9h0.1c0.5 0 0.9 0.4 0.9 0.9v52.6c-0.1 0.5-0.4 0.9-0.9 0.9z"/><path id="path45" d="m373.6 256.3h-0.1c-0.5 0-0.9-0.4-0.9-0.9v-48.9c0-0.5 0.4-0.9 0.9-0.9h0.1c0.5 0 0.9 0.4 0.9 0.9v48.9c0 0.5-0.4 0.9-0.9 0.9z"/><g id="g47"><path id="path49" d="m381.7 254.8h-0.1c-0.5 0-0.9-0.4-0.9-0.9v-40.2c0-0.5 0.4-0.9 0.9-0.9h0.1c0.5 0 0.9 0.4 0.9 0.9v40.3c-0.1 0.4-0.4 0.8-0.9 0.8z"/><path id="path51" d="m386.4 218.5c-0.4 0.4-1 0.4-1.3 0.1l-4.2-4.2c-0.3-0.3-0.3-0.9 0-1.2l0.1-0.1c0.3-0.3 0.9-0.3 1.2 0l4.2 4.2c0.4 0.3 0.4 0.9 0 1.2z"/><path id="path53" d="m382.2 213.1c0.4 0.4 0.4 1 0.1 1.3l-4.2 4.2c-0.3 0.3-0.9 0.3-1.2 0l-0.1-0.1c-0.3-0.3-0.3-0.9 0-1.2l4.2-4.2c0.3-0.3 0.9-0.3 1.2 0z"/></g><path id="path55" d="m423.5 285h0.1c0.5 0 0.9-0.4 0.9-0.9v-77.6c0-0.5-0.4-0.9-0.9-0.9h-0.1c-0.5 0-0.9 0.4-0.9 0.9v77.6c0 0.6 0.4 0.9 0.9 0.9z"/><path id="path57" d="m415.5 285h0.1c0.5 0 0.9-0.4 0.9-0.9v-77.6c0-0.5-0.4-0.9-0.9-0.9h-0.1c-0.5 0-0.9 0.4-0.9 0.9v77.6c0 0.6 0.4 0.9 0.9 0.9z"/><path id="path59" d="m407.5 266.9h0.1c0.5 0 0.9-0.4 0.9-0.9v-59.4c0-0.5-0.4-0.9-0.9-0.9h-0.1c-0.5 0-0.9 0.4-0.9 0.9v59.4c0 0.5 0.4 0.9 0.9 0.9z"/><path id="path61" d="m398.6 260h0.1c0.5 0 0.9-0.4 0.9-0.9v-52.6c0-0.5-0.4-0.9-0.9-0.9h-0.1c-0.5 0-0.9 0.4-0.9 0.9v52.6c0 0.6 0.4 0.9 0.9 0.9z"/><path id="path63" d="m389.7 256.4h0.1c0.5 0 0.9-0.4 0.9-0.9v-48.9c0-0.5-0.4-0.9-0.9-0.9h-0.1c-0.5 0-0.9 0.4-0.9 0.9v48.9c0 0.5 0.4 0.9 0.9 0.9z"/></g><rect id="rect65" x="329.8" y="289.3" width="19.3" height="2.6"/><path id="path67" d="m408.9 299.3h-54.5v-13.3c0-15 12.2-27.3 27.3-27.3 15 0 27.3 12.2 27.3 27.3v13.3z" fill="#070707"/><path id="path69" d="m276 267.5c2.3 0 4.3 1.9 4.3 4.3v17.9c0 2.3-1.9 4.3-4.3 4.3-2.3 0-4.3-1.9-4.3-4.3v-13.7h-26.7c-2.3 0-4.3-1.9-4.3-4.3 0-2.3 1.9-4.3 4.3-4.3h30.9c2.3 0 4.3 1.9 4.3 4.3" fill="#282a2b"/><circle id="circle71" cx="276" cy="290.6" r="2.2" fill="#44f518"/><g id="g73" fill="#070707"><path id="path75" d="m245.4 274.1v-5h1.2c0.5 0 0.8 0 0.9 0.1 0.2 0.1 0.4 0.2 0.6 0.5s0.2 0.6 0.2 1-0.1 0.7-0.2 0.9-0.3 0.4-0.5 0.5-0.5 0.1-1 0.1h-0.5v1.9h-0.7zm0.8-4.2v1.4h0.4c0.3 0 0.5 0 0.6-0.1 0.1 0 0.2-0.1 0.3-0.2s0.1-0.3 0.1-0.4c0-0.2 0-0.3-0.1-0.4s-0.2-0.2-0.3-0.2-0.3-0.1-0.6-0.1h-0.4z"/><path id="path77" d="m248.8 271.6c0-0.6 0.1-1.1 0.2-1.5 0.2-0.4 0.4-0.7 0.6-0.9s0.6-0.3 1-0.3c0.5 0 1 0.2 1.3 0.7 0.3 0.4 0.5 1.1 0.5 1.9s-0.2 1.5-0.5 2c-0.3 0.4-0.8 0.6-1.3 0.6-0.6 0-1-0.2-1.3-0.6s-0.5-1-0.5-1.9zm0.8 0c0 0.6 0.1 1 0.3 1.3s0.5 0.4 0.8 0.4 0.6-0.1 0.8-0.4 0.3-0.7 0.3-1.3-0.1-1-0.3-1.3-0.4-0.4-0.8-0.4-0.6 0.1-0.8 0.4-0.3 0.7-0.3 1.3z"/><path id="path79" d="m253.7 274.1-0.9-5h0.8l0.6 3.4 0.7-3.4h0.9l0.7 3.5 0.6-3.5h0.8l-0.9 5h-1l-0.8-3.7-0.8 3.7h-0.7z"/><path id="path81" d="m258.2 274.1v-5h2.8v0.8h-2.1v1.1h1.9v0.8h-1.9v1.4h2.1v0.8h-2.8z"/><path id="path83" d="m261.7 274.1v-5h1.6c0.4 0 0.7 0 0.9 0.1s0.3 0.2 0.4 0.5c0.1 0.2 0.2 0.5 0.2 0.8 0 0.4-0.1 0.7-0.3 0.9s-0.4 0.4-0.7 0.5c0.2 0.1 0.3 0.3 0.4 0.4 0.1 0.2 0.3 0.4 0.4 0.8l0.5 1h-0.9l-0.6-1.1c-0.2-0.4-0.3-0.6-0.4-0.7s-0.1-0.2-0.2-0.2-0.2-0.1-0.4-0.1h-0.2v2.1h-0.7zm0.8-2.9h0.6 0.7c0.1 0 0.2-0.1 0.2-0.2 0.1-0.1 0.1-0.2 0.1-0.4s0-0.3-0.1-0.4-0.1-0.2-0.2-0.2h-0.6-0.6v1.2z"/></g><path id="path85" d="m469.6 267.5c-2.3 0-4.3 1.9-4.3 4.3v17.9c0 2.3 1.9 4.3 4.3 4.3 2.3 0 4.3-1.9 4.3-4.3v-13.7h26.8c2.3 0 4.3-1.9 4.3-4.3 0-2.3-1.9-4.3-4.3-4.3h-30.9c-2.3 0-4.3 1.9-4.3 4.3" fill="#282a2b"/><circle id="circle87" cx="469.6" cy="290.6" r="2.2" fill="#44f518"/><g id="g89" fill="#070707"><path id="path91" d="m488.7 274.6v-5h1.2c0.5 0 0.8 0 0.9 0.1 0.2 0.1 0.4 0.2 0.6 0.5 0.1 0.3 0.2 0.6 0.2 1s-0.1 0.7-0.2 0.9-0.3 0.4-0.5 0.5-0.5 0.1-1 0.1h-0.5v1.9h-0.7zm0.8-4.2v1.4h0.4c0.3 0 0.5 0 0.6-0.1 0.1 0 0.2-0.1 0.3-0.2s0.1-0.3 0.1-0.4c0-0.2 0-0.3-0.1-0.4s-0.2-0.2-0.3-0.2-0.3-0.1-0.6-0.1h-0.4z"/><path id="path93" d="m495.3 274.6h-0.8l-0.3-1.1h-1.5l-0.3 1.1h-0.8l1.5-5h0.8l1.4 5zm-1.4-2-0.5-1.9-0.5 1.9h1z"/><path id="path95" d="m495.7 269.6h1.4c0.4 0 0.6 0 0.8 0.1s0.3 0.2 0.5 0.4 0.3 0.5 0.4 0.8 0.1 0.7 0.1 1.2c0 0.4 0 0.8-0.1 1.1s-0.2 0.6-0.3 0.8-0.3 0.3-0.5 0.4-0.5 0.1-0.8 0.1h-1.4v-4.9zm0.8 0.8v3.3h0.6c0.2 0 0.4 0 0.5-0.1s0.2-0.1 0.3-0.2 0.1-0.3 0.2-0.5c0-0.2 0.1-0.5 0.1-0.9s0-0.7-0.1-0.9-0.1-0.4-0.2-0.5-0.2-0.2-0.4-0.2h-0.6-0.4z"/></g><path id="path97" d="m47 162.6h-35.9c-2.2 0-3.9-1.8-3.9-3.9 0-2.2 1.8-3.9 3.9-3.9h35.9c2.2 0 3.9 1.8 3.9 3.9 0.1 2.1-1.7 3.9-3.9 3.9z" fill="#282a2b"/><g id="g99" fill="#070707"><path id="path101" d="m31.7 159 0.7 0.3c-0.1 0.6-0.3 1-0.6 1.2-0.3 0.3-0.6 0.4-1 0.4-0.5 0-0.9-0.2-1.2-0.6-0.4-0.5-0.5-1.1-0.5-1.9 0-0.9 0.2-1.5 0.5-2 0.3-0.4 0.7-0.6 1.3-0.6 0.4 0 0.8 0.2 1.1 0.5 0.2 0.2 0.4 0.6 0.5 1l-0.8 0.2c0-0.3-0.1-0.5-0.3-0.6s-0.3-0.2-0.5-0.2c-0.3 0-0.5 0.1-0.7 0.4s-0.3 0.7-0.3 1.3 0.1 1.1 0.3 1.3c0.2 0.3 0.4 0.4 0.7 0.4 0.2 0 0.4-0.1 0.5-0.3s0.2-0.4 0.3-0.8z"/><path id="path103" d="m33.1 160.9v-5h0.8v2h1.5v-2h0.8v5h-0.8v-2.2h-1.5v2.2h-0.8z"/><path id="path105" d="m38.2 159.5 0.7-0.1c0 0.2 0.1 0.4 0.2 0.5s0.2 0.2 0.4 0.2 0.3-0.1 0.4-0.2 0.2-0.4 0.2-0.6 0-0.4-0.1-0.6c-0.1-0.1-0.2-0.2-0.4-0.2-0.1 0-0.2 0-0.3 0.1l0.1-0.8c0.2 0 0.3 0 0.4-0.2 0.1-0.1 0.2-0.3 0.2-0.5s0-0.3-0.1-0.4-0.2-0.1-0.3-0.1-0.2 0.1-0.3 0.2-0.1 0.3-0.2 0.5l-0.7-0.2c0.1-0.5 0.2-0.8 0.4-1s0.5-0.3 0.8-0.3 0.6 0.1 0.8 0.4 0.3 0.6 0.3 0.9c0 0.2 0 0.4-0.1 0.6s-0.2 0.3-0.4 0.5c0.2 0.1 0.4 0.2 0.5 0.4s0.2 0.5 0.2 0.8c0 0.5-0.1 0.8-0.4 1.1s-0.6 0.5-0.9 0.5-0.6-0.1-0.8-0.4c-0.4-0.3-0.6-0.6-0.6-1.1z"/><path id="path107" d="m41 161 0.9-5.2h0.5l-1 5.2h-0.4z"/><path id="path109" d="m44.1 160.9v-1h-1.6v-0.9l1.7-3.2h0.6v3.2h0.5v0.8h-0.5v1h-0.7zm0-1.9v-1.7l-0.9 1.7h0.9z"/></g><circle id="circle111" cx="10.9" cy="158.7" r="2.2" fill="#44f518"/><path id="path113" d="m58 134.6h-46.9c-2.2 0-3.9-1.8-3.9-3.9 0-2.2 1.8-3.9 3.9-3.9h46.9c2.2 0 3.9 1.8 3.9 3.9s-1.7 3.9-3.9 3.9z" fill="#282a2b"/><g id="g115" fill="#070707"><path id="path117" d="m29.7 133.1h-0.8l-0.3-1.1h-1.5l-0.3 1.1h-0.8l1.5-5h0.8l1.4 5zm-1.4-2-0.5-1.9-0.5 1.9h1z"/><path id="path119" d="m30.1 133.1v-5h0.7l1.5 3.3v-3.3h0.7v5h-0.8l-1.5-3.3v3.3h-0.6z"/><path id="path121" d="m34.7 133.1v-4.2h-1.1v-0.8h3v0.8h-1.1v4.2h-0.8z"/><path id="path123" d="m38.3 131.5 0.7-0.1c0.1 0.6 0.4 1 0.8 1 0.2 0 0.4-0.1 0.5-0.2s0.2-0.3 0.2-0.5c0-0.1 0-0.2-0.1-0.3 0-0.1-0.1-0.1-0.2-0.2s-0.3-0.1-0.7-0.3c-0.3-0.1-0.6-0.2-0.7-0.3s-0.3-0.3-0.4-0.5-0.1-0.4-0.1-0.7 0.1-0.5 0.2-0.7 0.3-0.4 0.5-0.5 0.4-0.2 0.7-0.2c0.4 0 0.8 0.1 1 0.4s0.4 0.6 0.4 1.1h-0.8c0-0.3-0.1-0.5-0.2-0.6s-0.3-0.2-0.5-0.2-0.4 0-0.5 0.1-0.2 0.2-0.2 0.3 0 0.3 0.1 0.3c0.1 0.1 0.3 0.2 0.7 0.3s0.7 0.2 0.8 0.4c0.2 0.1 0.3 0.3 0.4 0.5s0.1 0.5 0.1 0.8c0 0.4-0.1 0.8-0.4 1.1-0.2 0.3-0.6 0.4-1.1 0.4-0.6 0.3-1.1-0.3-1.2-1.4z"/><path id="path125" d="m42.5 133.1-0.9-5h0.8l0.6 3.4 0.7-3.4h0.9l0.7 3.5 0.6-3.5h0.8l-0.9 5h-0.8l-0.7-3.7-0.7 3.7h-1.1z"/><path id="path127" d="m46.9 133.1v-5h0.8v5h-0.8z"/><path id="path129" d="m49.2 133.1v-4.2h-1.1v-0.8h3v0.8h-1.1v4.2h-0.8z"/><path id="path131" d="m53.9 131.3 0.7 0.3c-0.1 0.6-0.3 1-0.6 1.2s-0.6 0.4-1 0.4c-0.5 0-0.9-0.2-1.2-0.6-0.3-0.5-0.5-1.1-0.5-1.9 0-0.9 0.2-1.5 0.5-2 0.3-0.4 0.7-0.6 1.2-0.6 0.4 0 0.8 0.2 1 0.5 0.2 0.2 0.3 0.6 0.4 1l-0.7 0.2c0-0.3-0.1-0.5-0.3-0.6-0.1-0.1-0.3-0.2-0.5-0.2-0.3 0-0.5 0.1-0.7 0.4s-0.3 0.7-0.3 1.3 0.1 1.1 0.3 1.3c0.2 0.3 0.4 0.4 0.7 0.4 0.2 0 0.4-0.1 0.5-0.3 0.3-0.2 0.4-0.5 0.5-0.8z"/><path id="path133" d="m55.3 133.1v-5h0.7v2h1.5v-2h0.8v5h-0.8v-2.2h-1.5v2.2h-0.7z"/></g><circle id="circle135" cx="10.7" cy="130.7" r="2.2" fill="#44f518"/><path id="path137" d="m215.4 219.9h-116.2c-1.5 0-2.8-1.2-2.8-2.8v-26.3c0-1.5 1.2-2.8 2.8-2.8h116.2c1.5 0 2.8 1.2 2.8 2.8v26.3c-0.1 1.5-1.3 2.8-2.8 2.8z" fill="#282a2b"/><g id="g139"><g id="g141"><g id="g143"><path id="path145" d="m200.9 196.8c2.2-0.4 4.6 0.2 6.4 1.6 1.3 1 2.3 2.4 2.9 4 0.6 1.9 0.7 3.9 0.1 5.8-0.5 1.7-1.6 3.1-2.9 4.2-1.5 1.1-3.3 1.8-5.1 1.8-2.7 0-5.4-1.5-6.9-3.9-1.6-2.4-1.8-5.6-0.7-8.3 0.9-2.8 3.4-4.8 6.2-5.2zm-4.3 4.8v1h0.9v5.5h-0.9v1h2.8v-1h-0.9v-6.5c-0.6 0-1.2 0.1-1.9 0zm3.7 0.7v6.1c0.2 0.3 0.4 0.5 0.6 0.7h6.2c0.2-0.3 0.7-0.5 0.6-1v-2.6c-0.1-0.2-0.3-0.4-0.5-0.6h-6.1v-2.3h5.8v1h0.9v-1.3l-0.6-0.6h-6.4c-0.1 0.2-0.3 0.4-0.5 0.6z" fill="#f79226"/></g><path id="path147" d="m112.3 197.1h1.6v14.8h1.8v-14.8h1.6v14.2c0 0.3 0 0.7-0.1 1-0.2 0.7-0.8 1.3-1.5 1.3h-2c-0.9 0-1.6-0.8-1.6-1.7 0.2-5 0.2-9.9 0.2-14.8z" fill="#f79226"/><g id="g149"><path id="path151" d="m121.5 197.1h3.4c0.8 0 1.7 0.6 1.7 1.5v5.4c0 0.8-0.5 1.6-1.3 1.7 0.5 2.6 1.1 5.2 1.6 7.8h-1.5c-0.6-2.6-1.1-5.1-1.7-7.7h-0.6v7.7h-1.6v-16.4zm1.7 1.6v5.4h1.8v-5.4h-1.8z" fill="#f79226"/></g><g id="g153"><path id="path155" d="m131 197.1h3.5c0.7 0 1.5 0.6 1.5 1.4v5.2c0 0.5-0.3 0.9-0.7 1.2 0.3 0.3 0.6 0.6 0.6 1.1v2.1 3.3c0 0.5 0.1 1-0.2 1.4-0.2 0.5-0.8 0.8-1.3 0.8h-3.5c0.1-5.5 0.1-11 0.1-16.5zm1.6 1.6v5.4h1.8v-5.4h-1.8zm0 7.1v6.1h1.8v-6.1h-1.8z" fill="#f79226"/></g><g id="g157"><path id="path159" d="m141.3 197.2c0.5-0.1 1-0.1 1.5-0.1s1.1-0.1 1.6 0.2 0.9 0.8 0.9 1.4v12.7c0 0.4 0 0.8-0.1 1.1-0.3 0.5-0.8 1-1.3 1.1h-1.6c-0.3 0-0.6 0-0.9-0.1-0.6-0.3-1.1-0.9-1.1-1.6v-12.7c0-0.3 0-0.7 0.1-1 0.1-0.5 0.4-0.8 0.9-1zm0.6 1.6v13.1h1.7v-13.1h-1.7z" fill="#f79226"/></g><path id="path161" d="m201.2 205.9h5.6v2.2h-5.6v-2.2z" fill="#f79226"/><polygon id="polygon163" points="108.9 193.8 108.9 195.4 107.4 195.4 107.4 213.6 105.5 213.6 105.5 195.4 104 195.4 104 193.8" fill="#f79226"/></g><g id="g165"><path id="path167" d="m149.9 195.6c0-0.8 0.6-1.7 1.4-1.8h2c0.9-0.1 1.8 0.8 1.8 1.8v2.9h-1.7v-3h-1.9v16.4h1.9v-8h-0.8v-1.6h2.5v11.1h-3.4c-0.7 0-1.3-0.4-1.6-1.1-0.1-0.3-0.1-0.7-0.1-1.1-0.1-5.1-0.1-10.4-0.1-15.6z" fill="#d5e14d"/><g id="g169"><path id="path171" d="m159.4 197.1h3.3c0.7 0 1.4 0.4 1.6 1 0.1 0.2 0.1 0.5 0.1 0.8v5.2c0 0.7-0.5 1.5-1.3 1.6 0.5 2.6 1.1 5.2 1.6 7.8h-1.5c-0.6-2.6-1.1-5.2-1.7-7.7h-0.5v7.7h-1.6v-16.4zm1.6 1.6v5.4h1.8v-5.4h-1.8z" fill="#d5e14d"/></g><g id="g173"><path id="path175" d="m168.6 198.6c0-0.7 0.6-1.5 1.3-1.5h2.1c0.4 0 0.7 0.1 1 0.3 0.3 0.3 0.5 0.7 0.5 1.2v14.9h-1.5v-7.8h-1.9v7.8h-1.6c0.1-4.9 0.1-9.9 0.1-14.9zm1.6 0.2v5.3h1.8v-5.3h-1.8z" fill="#d5e14d"/></g><path id="path177" d="m177.6 198.5c0-0.7 0.6-1.4 1.3-1.4h2.6v1.5h-2.4v5.5h1.9v1.6h-1.9v7.8h-1.6c0.1-4.9 0.1-9.9 0.1-15z" fill="#d5e14d"/><path id="path179" d="m185.4 197.1h1.7v4.6c0.3 0.5 0.6 0.9 0.9 1.4 0.3-0.5 0.6-0.9 0.9-1.4v-4.6h1.7v3.3c0 0.5 0 1-0.1 1.5-0.4 1-0.9 1.9-1.5 2.9 0.6 1 1.3 2.1 1.6 3.3v5.5h-1.5v-5.5c-0.3-0.6-0.6-1-1-1.6-0.3 0.5-0.7 1-1 1.5v5.6h-1.6v-5.2c0-0.5 0.2-0.9 0.4-1.3 0.4-0.8 0.8-1.6 1.3-2.3-0.6-1-1.4-2.1-1.7-3.3-0.1-1.4 0-2.9-0.1-4.4z" fill="#d5e14d"/></g></g><g id="g181"><rect id="rect183" y="230.2" width="308.2" height="3.8" fill="#0b0b0c"/><rect id="rect185" y="233.9" width="308.2" height="1" fill="#353636"/><rect id="rect187" y="234.9" width="308.2" height="1" fill="#151616"/><rect id="rect189" y="235.9" width="308.2" height="3.8" fill="#0b0b0c"/><rect id="rect191" y="239.7" width="308.2" height="1" fill="#353636"/><rect id="rect193" y="240.7" width="308.2" height="1" fill="#151616"/><rect id="rect195" y="241.7" width="308.2" height="3.8" fill="#0b0b0c"/><rect id="rect197" y="245.4" width="308.2" height="1" fill="#353636"/><rect id="rect199" y="246.4" width="308.2" height="1" fill="#151616"/><rect id="rect201" y="247.4" width="308.2" height="3.8" fill="#0b0b0c"/><rect id="rect203" y="251.2" width="308.2" height="1" fill="#353636"/><rect id="rect205" y="252.2" width="308.2" height="1" fill="#151616"/></g><rect id="rect207" y="253.2" width="308.2" height="3.8" fill="#0b0b0c"/><rect id="rect209" y="256.9" width="308.2" height="1" fill="#353636"/><rect id="rect211" y="257.9" width="308.2" height="1" fill="#151616"/><g id="g213"><rect id="rect215" x="455.1" y="230.2" width="73.5" height="3.8" fill="#0b0b0c"/><rect id="rect217" x="455.1" y="233.9" width="73.5" height="1" fill="#353636"/><rect id="rect219" x="455.1" y="234.9" width="73.5" height="1" fill="#151616"/><rect id="rect221" x="455.1" y="235.9" width="73.5" height="3.8" fill="#0b0b0c"/><rect id="rect223" x="455.1" y="239.7" width="73.5" height="1" fill="#353636"/><rect id="rect225" x="455.1" y="240.7" width="73.5" height="1" fill="#151616"/><rect id="rect227" x="455.1" y="241.7" width="73.5" height="3.8" fill="#0b0b0c"/><rect id="rect229" x="455.1" y="245.4" width="73.5" height="1" fill="#353636"/><rect id="rect231" x="455.1" y="246.4" width="73.5" height="1" fill="#151616"/><rect id="rect233" x="455.1" y="247.4" width="73.5" height="3.8" fill="#0b0b0c"/><rect id="rect235" x="455.1" y="251.2" width="73.5" height="1" fill="#353636"/><rect id="rect237" x="455.1" y="252.2" width="73.5" height="1" fill="#151616"/><rect id="rect239" x="455.1" y="253.2" width="73.5" height="3.8" fill="#0b0b0c"/><rect id="rect241" x="455.1" y="256.9" width="73.5" height="1" fill="#353636"/><rect id="rect243" x="455.1" y="257.9" width="73.5" height="1" fill="#151616"/></g><g id="g245"><path id="path247" d="m495.2 117.9-4.6-4.2-2.1 1.8 1 0.7-1.2 5 2.4-0.8-1.3-0.9 0.7-2.6 4.9 4.2 1.7-5.7 1.7-0.8-2.1-0.9-1.1 4.2zm4.1-3.4c0.1 0.1 0.3 0.3 0.3 0.4l-0.6 2.2c0 0.2-0.3 0.3-0.4 0.4-0.2 0.1-0.4 0.1-0.6 0.1 0.2 0.1 0.3 0.1 0.5 0.2 0.1 0.1 0.3 0.2 0.2 0.4l-0.7 2.2c-0.1 0.2-0.3 0.3-0.5 0.4s-0.4 0.2-0.6 0.2h7.8l0.5-2.2c-0.3 0.5-0.6 0.9-1.1 1.2s-1.2 0.5-2 0.5h-1.4l0.7-2.7c0.3-0.1 0.6-0.1 0.8 0 0.3 0.1 0.5 0.3 0.7 0.5s0.4 0.4 0.5 0.6l0.7-2.9c-0.3 0.2-0.5 0.4-0.8 0.6s-0.6 0.3-0.9 0.4-0.6 0.1-0.9 0l0.7-2.7h1.2c0.5 0 1-0.1 1.5 0.2 0.4 0.3 0.7 0.8 1.1 1.3l0.6-2h-7.9c0.2 0.5 0.5 0.6 0.6 0.7zm9.4 0.7c-0.6 0.4-1.1 0.9-1.5 1.4s-0.5 1.1-0.5 1.7c0 0.5 0.1 1 0.4 1.5 0.3 0.4 0.7 0.9 1.2 1.1 0.5 0.3 1.2 0.4 1.7 0.5 0.6 0.1 1.1 0.1 1.5 0 0.4 0 0.7-0.1 1-0.2l1.6-2.6c-0.4 0.2-0.9 0.3-1.3 0.4s-0.9 0.3-1.4 0.3-1 0-1.5-0.2-0.9-0.6-1.1-1-0.2-0.9-0.1-1.3 0.5-0.8 0.8-1.1c0.4-0.3 0.8-0.6 1.2-0.8s0.8-0.3 1.2-0.3l1.2 1.3 1.4-0.4-1-1.8h-0.9c-0.3 0-0.7 0.1-1.1 0.2s-0.8 0.2-1.3 0.4c-0.3 0.2-1 0.5-1.5 0.9z" fill="#181919" fill-rule="evenodd"/></g></g><g id="g3582" transform="matrix(.99483 0 0 .99483 592.28 77.154)"><path id="path3584" d="m144.7 214.9c0 4.6-3.8 8.4-8.4 8.4h-127.9c-4.6 0-8.4-3.8-8.4-8.4v-206.5c0-4.6 3.8-8.4 8.4-8.4h127.8c4.6 0 8.4 3.8 8.4 8.4v206.5z" fill="#e6e6e6"/><rect id="rect3586" x="5.9" y="77.6" width="132.9" height="125.7" fill="#b3b3b3"/><path id="path3588" d="m3.9 4.9v58.1c0 4.7 3.8 8.5 8.4 8.5h120.1c4.6 0 8.4-3.8 8.4-8.5v-58.1h-136.9z" fill="#202022"/><rect id="rect3590" x="3.9" y="4.9" width="136.9" height="11.6"/><polygon id="polygon3592" points="72.3 207.2 52.3 213.2 52.3 219.7 92.4 219.7 92.4 213.2" fill="#ccc"/><g id="g3594" fill="#f8b81e"><rect id="rect3596" x="7.5" y="7.8" width="2" height="7.7"/><rect id="rect3598" x="11" y="6.6" width="2" height="9"/><rect id="rect3600" x="14.4" y="6.6" width="2" height="9"/><rect id="rect3602" x="17.9" y="6.6" width="2" height="9"/><rect id="rect3604" x="21.3" y="6.6" width="2" height="9"/><rect id="rect3606" x="24.8" y="6.6" width="2" height="9"/><rect id="rect3608" x="28.2" y="6.6" width="2" height="9"/><rect id="rect3610" x="31.7" y="6.6" width="2" height="9"/><rect id="rect3612" x="35.1" y="6.6" width="2" height="9"/><rect id="rect3614" x="38.6" y="6.6" width="2" height="9"/><rect id="rect3616" x="42" y="6.6" width="2" height="9"/><rect id="rect3618" x="45.5" y="6.6" width="2" height="9"/><rect id="rect3620" x="48.9" y="6.6" width="2" height="9"/><rect id="rect3622" x="52.4" y="6.6" width="2" height="9"/><rect id="rect3624" x="55.8" y="6.6" width="2" height="9"/><rect id="rect3626" x="59.3" y="6.6" width="2" height="9"/><rect id="rect3628" x="62.7" y="6.6" width="2" height="9"/><rect id="rect3630" x="66.2" y="4.9" width="2" height="11.6"/><rect id="rect3632" x="69.6" y="6.6" width="2" height="9"/><rect id="rect3634" x="73.1" y="6.6" width="2" height="9"/><rect id="rect3636" x="76.5" y="6.6" width="2" height="9"/><rect id="rect3638" x="80" y="6.6" width="2" height="9"/><rect id="rect3640" x="83.4" y="6.6" width="2" height="9"/><rect id="rect3642" x="86.9" y="6.6" width="2" height="9"/><rect id="rect3644" x="90.3" y="6.6" width="2" height="9"/><rect id="rect3646" x="93.8" y="6.6" width="2" height="9"/><rect id="rect3648" x="97.2" y="6.6" width="2" height="9"/><rect id="rect3650" x="100.7" y="6.6" width="2" height="9"/><rect id="rect3652" x="104.1" y="6.6" width="2" height="9"/><rect id="rect3654" x="107.6" y="6.6" width="2" height="9"/><rect id="rect3656" x="111" y="6.6" width="2" height="9"/><rect id="rect3658" x="114.5" y="6.6" width="2" height="9"/><rect id="rect3660" x="117.9" y="6.6" width="2" height="9"/><rect id="rect3662" x="121.4" y="6.6" width="2" height="9"/><rect id="rect3664" x="124.8" y="6.6" width="2" height="9"/><rect id="rect3666" x="128.3" y="6.6" width="2" height="9"/><rect id="rect3668" x="131.7" y="6.6" width="2" height="9"/><rect id="rect3670" x="135.2" y="4.9" width="2" height="11.6"/></g><g id="g3672"><polygon id="polygon3674" points="88.7 192.5 88.7 146.2 56 146.2 56 192.5" fill="#fff" stroke="#010101" stroke-miterlimit="2.6131" stroke-width=".3739"/><polygon id="polygon3676" points="87.3 191.3 87.3 147.5 57.1 147.5 57.1 191.3" fill="#010101"/><polygon id="polygon3678" points="58.3 149.3 62.5 149.3 62.5 150.6 61.3 150.6 61.3 168.6 59.8 168.6 59.8 150.6 58.3 150.6" fill="#fff"/><path id="path3680" d="m64.9 161.9h1.6v-12.6h1.5v12.6c0 0.8-0.7 1.4-1.4 1.4h-1.7c-0.7 0-1.4-0.7-1.4-1.4v-12.6h1.4v12.6z" fill="#fff"/><path id="path3682" d="m69.4 163.3v-14h2.9c0.8 0 1.5 0.6 1.5 1.3v4.6c0 0.8-0.6 1.5-1.1 1.5l1.4 6.6h-1.3l-1.5-6.5h-0.5v6.6h-1.4v-0.1z" fill="#fff"/><path id="path3684" d="m75.2 149.3h3.1c0.7 0 1.3 0.5 1.3 1.3v4.3c0 0.6-0.6 1-0.6 1s0.6 0.4 0.6 1v5c0 0.9-0.7 1.3-1.3 1.3h-3.1v-13.9z" fill="#fff"/><path id="path3686" d="m83.3 149.3h0.8c0.9 0 1.5 0.8 1.5 1.3v16.7c0 0.6-0.7 1.4-1.4 1.4h-1.7c-0.6 0-1.4-0.7-1.4-1.4v-16.6c0-0.6 0.6-1.3 1.4-1.3h0.8v-0.1z" fill="#fff"/><path id="path3688" d="m61.3 178.6h2.2v10.9h-3.1c-0.7 0-1.5-0.5-1.5-1.4v-16.5c0-0.7 0.7-1.4 1.4-1.4h1.7c0.7 0 1.4 0.7 1.4 1.4v3.9h-1.4v-3.9h-1.7v16.5h1.7v-8.3h-0.7v-1.2z" fill="#fff"/><path id="path3690" d="m65 189.6v-14h2.9c0.8 0 1.5 0.6 1.5 1.3v4.6c0 0.8-0.6 1.5-1.1 1.5l1.4 6.6h-1.3l-1.5-6.5h-0.5v6.6h-1.4v-0.1z" fill="#fff"/><path id="path3692" d="m72.2 182.9v6.6h-1.4v-12.6c0-0.6 0.5-1.3 1.3-1.3h1.8c0.8 0 1.4 0.5 1.4 1.4v12.6h-1.4v-6.6l-1.7-0.1z" fill="#fff"/><path id="path3694" d="m78.1 182.9v6.6h-1.4v-12.7c0-0.6 0.5-1.2 1.2-1.2h2.3v1.2h-2.1v4.7h1.7v1.4h-1.7z" fill="#fff"/><path id="path3696" d="m81.1 170.2h1.4v7l0.8 1.2 0.8-1.2v-7h1.4v6.7c0 0.8-1.4 3-1.4 3s1.4 2.1 1.4 3v6.7h-1.3v-6.9l-0.9-1.3-0.9 1.3v6.9h-1.4v-6.6c0-0.8 1.5-3 1.5-3s-1.5-2.1-1.5-3l0.1-6.8z" fill="#fff"/><polygon id="polygon3698" points="72.4 155.3 72.4 150.7 70.8 150.7 70.8 155.3" fill="#010101"/><polygon id="polygon3700" points="68 181.5 68 176.9 66.4 176.9 66.4 181.5" fill="#010101"/><polygon id="polygon3702" points="78.3 155.3 78.3 150.7 76.6 150.7 76.6 155.3" fill="#010101"/><polygon id="polygon3704" points="78.3 161.9 78.3 156.7 76.6 156.7 76.6 161.9" fill="#010101"/><polygon id="polygon3706" points="84.1 167.2 84.1 150.7 82.6 150.7 82.6 167.2" fill="#010101"/><polygon id="polygon3708" points="73.9 181.5 73.9 177 72.2 177 72.2 181.5" fill="#010101"/><path id="path3710" d="m68.8 174.3c-2.2 0-4.6-1.9-4.6-4.9 0-2.8 2.5-4.8 4.6-4.8v9.7z" fill="#fff"/><path id="path3712" d="m75.5 174.3c2.2 0 4.6-1.9 4.6-4.9 0-2.8-2.5-4.8-4.6-4.8v9.7z" fill="#fff"/><polygon id="polygon3714" points="75.5 174.3 75.5 164.6 68.8 164.6 68.8 174.3" fill="#fff"/><path id="path3716" d="m68.5 173.5c-1.1 0-3.5-1.2-3.5-4.1 0-2.4 2.2-3.9 3.5-3.9v8z" fill="#010101"/><path id="path3718" d="m75.8 173.4c1.1 0 3.6-1.2 3.6-4.1 0-2.4-2.2-3.9-3.6-3.9v8z" fill="#010101"/><polygon id="polygon3720" points="75.8 173.4 75.8 165.5 68.5 165.5 68.5 173.4" fill="#010101"/><polygon id="polygon3722" points="67.4 171.5 68.2 171.5 68.2 167.4 67.5 167.4 67.5 166.6 69 166.6 69 171.5 69.7 171.5 69.7 172.3 67.4 172.3" fill="#fff"/><polygon id="polygon3724" points="76 167.4 71.5 167.4 71.5 169.1 76.3 169.1 76.7 169.5 76.7 171.8 76.2 172.3 71.2 172.3 70.7 171.8 70.7 167.1 71.2 166.6 76.3 166.6 76.7 167.1 76.7 168.1 76 168.1" fill="#fff"/><polygon id="polygon3726" points="75.9 171.5 75.9 169.9 71.5 169.9 71.5 171.5" fill="#010101"/></g><g id="g3728"><path id="path3730" d="m110.5 196.7h-1.9l-0.5 2.2h-1l1-5h1l-0.4 1.9h1.9l0.4-1.9h1l-1 5h-1l0.5-2.2z"/><path id="path3732" d="m112.9 195.4h1l-0.4 2.1c-0.1 0.3-0.1 0.4-0.1 0.5s0 0.2 0.1 0.3 0.2 0.1 0.3 0.1h0.3c0.1 0 0.2-0.1 0.3-0.2s0.2-0.1 0.2-0.2c0.1-0.1 0.1-0.2 0.2-0.3 0-0.1 0.1-0.3 0.1-0.5l0.4-1.7h1l-0.8 3.6h-0.9l0.1-0.5c-0.4 0.4-0.8 0.6-1.3 0.6-0.3 0-0.5-0.1-0.7-0.3s-0.3-0.4-0.3-0.7c0-0.1 0-0.4 0.1-0.7l0.4-2.1z"/><path id="path3734" d="m120 197.2 1 0.2c-0.2 0.6-0.5 1-0.9 1.3s-0.9 0.4-1.4 0.4c-0.6 0-1.1-0.2-1.4-0.6s-0.5-0.9-0.5-1.6c0-0.6 0.1-1.1 0.3-1.6s0.6-0.8 1-1.1 0.9-0.4 1.3-0.4c0.5 0 1 0.1 1.3 0.4s0.5 0.7 0.6 1.2l-1 0.1c-0.1-0.3-0.2-0.5-0.3-0.6-0.2-0.1-0.4-0.2-0.6-0.2-0.3 0-0.6 0.1-0.8 0.3s-0.4 0.4-0.6 0.8c-0.1 0.4-0.2 0.7-0.2 1.1s0.1 0.7 0.3 0.9 0.4 0.3 0.7 0.3 0.5-0.1 0.7-0.3c0.3 0 0.4-0.3 0.5-0.6z"/><path id="path3736" d="m124.7 197.9h-2l-0.6 1.1h-1.1l2.8-5h1.1l0.8 5h-1v-1.1zm-0.1-0.9-0.3-2-1.2 2h1.5z"/><path id="path3738" d="m127.6 199h-1l1-5h2.2c0.4 0 0.7 0 0.9 0.1s0.4 0.2 0.5 0.4 0.2 0.5 0.2 0.8c0 0.4-0.1 0.8-0.4 1.1s-0.6 0.4-1.2 0.5c0.1 0.1 0.3 0.3 0.4 0.5 0.2 0.4 0.5 0.9 0.8 1.7h-1.1c-0.1-0.3-0.3-0.7-0.5-1.3-0.1-0.3-0.3-0.5-0.5-0.7-0.1-0.1-0.3-0.1-0.5-0.1h-0.4l-0.4 2zm0.6-2.8h0.5c0.6 0 0.9 0 1.1-0.1s0.3-0.2 0.4-0.3 0.2-0.3 0.2-0.4c0-0.2-0.1-0.3-0.2-0.4s-0.3-0.1-0.6-0.1h-1.1l-0.3 1.3z"/><path id="path3740" d="m131.6 199 1-5h1.3 0.7c0.2 0 0.4 0.1 0.6 0.1 0.2 0.1 0.3 0.2 0.4 0.3s0.2 0.3 0.3 0.4 0.2 0.3 0.2 0.6c0.1 0.2 0.1 0.4 0.1 0.7 0 0.5-0.1 1-0.3 1.4s-0.5 0.8-0.8 1c-0.2 0.2-0.5 0.3-0.9 0.4-0.2 0-0.5 0.1-1 0.1h-1.6zm1.2-0.8h0.5c0.4 0 0.7 0 0.8-0.1s0.3-0.1 0.5-0.3 0.4-0.4 0.5-0.7 0.2-0.7 0.2-1.1-0.1-0.6-0.2-0.8-0.3-0.3-0.4-0.4c-0.1 0-0.3-0.1-0.6-0.1h-0.6l-0.7 3.5z"/></g></g></svg>
