<?xml version="1.0" encoding="UTF-8"?>
<svg id="svg2" width="7010.9" height="2093.6" version="1.1" viewBox="0 0 7010.9 2093.6" xml:space="preserve" xmlns="http://www.w3.org/2000/svg" xmlns:cc="http://creativecommons.org/ns#" xmlns:dc="http://purl.org/dc/elements/1.1/" xmlns:rdf="http://www.w3.org/1999/02/22-rdf-syntax-ns#"><metadata id="metadata8"><rdf:RDF><cc:Work rdf:about=""><dc:format>image/svg+xml</dc:format><dc:type rdf:resource="http://purl.org/dc/dcmitype/StillImage"/><dc:title/></cc:Work></rdf:RDF></metadata><defs id="defs6"><clipPath id="clipPath16"><path id="path18" d="m0 1674.9h3881.4v-1674.9h-3881.4v1674.9z"/></clipPath></defs><g id="g10" transform="matrix(1.25 0 0 -1.25 -1.9859e-5 2093.6)"><g id="g12"><g id="g14" clip-path="url(#clipPath16)"><g id="g20" transform="translate(1940.5 1258.8)"><path id="path22" d="m0 0v53.991 169.28 45.664h-590.08c-428.63 0-776.1-58.338-776.1-130.3s347.47-130.3 776.1-130.3v-8.328h590.08z" fill="#d3192a"/></g><g id="g24" transform="translate(1310.5 1527.6)"><path id="path26" d="m0 0v-134.3h31.127v134.46c-10.425-0.02-20.803-0.072-31.127-0.16" fill="#af1f24"/></g><g id="g28" transform="translate(1940.9 1258.8)"><path id="path30" d="m0 0v53.991 169.28 45.664h590.08 1e-3c428.62 0 776.1-58.338 776.1-130.3s-347.47-130.3-776.1-130.3h-1e-3v-8.328h-590.08v1e-3z" fill="#d3192a"/></g><g id="g32" transform="translate(2571 1527.6)"><path id="path34" d="m0 0v-134.3h-31.127v134.46c10.426-0.02 20.805-0.072 31.127-0.16" fill="#af1f24"/></g><g id="g36" transform="translate(2209.7 1646.9)"><path id="path38" d="m0 0c-6.008 19.25-19.716 28-35.39 28h-233.4-0.359-233.4c-15.675 0-29.382-8.75-35.39-28l-25.621-106c0-15.656 45.336-25 61.011-25h233.4 0.359 233.4c15.674 0 61.011 9.344 61.011 25l-25.621 106z" fill="#232323"/></g><g id="g40" transform="translate(1940.5 1572.2)"><path id="path42" d="m0 0h-558.06v-209.83h558.06 558.42v209.83h-558.42z" fill="#af1f24"/></g><g id="g44" transform="translate(2327.5 1615.9)"><path id="path46" d="m0 0h-386.99-386.65c-7.828 0-14.173-6.346-14.173-14.173v-171.65c0-7.828 6.346-14.173 14.173-14.173h386.65 386.99c7.835 0 14.187 6.346 14.187 14.173v171.65c0 7.828-6.352 14.173-14.187 14.173" fill="#363636"/></g><g id="g48" transform="translate(1988.4 1495.2)"><path id="path50" d="m0 0c-7.916 0-14.333 6.417-14.333 14.333v115.32c0 15.655-12.691 28.346-28.347 28.346h-4.807-4.811c-15.67 0-28.373-12.691-28.373-28.346v-115.32c0-7.916-6.423-14.333-14.346-14.333h-353.65v-19.974h401.18 400.82v19.974h-353.33v-1e-3z" fill="#555"/></g><g id="g52" transform="translate(1694.8 1502.7)"><path id="path54" d="m0 0c0 8.879-12.553 18.149-20.172 18.149h-75.439-75.439c-7.619 0-20.172-9.27-20.172-18.149l-13.897-41.774c0-8.879 6.177-16.077 13.796-16.077h95.711 95.711c7.62 0 13.797 7.198 13.797 16.077l-13.896 41.774z" fill="#d3192a"/></g><g id="g56" transform="translate(2186.6 1502.7)"><path id="path58" d="m0 0c0 8.879 12.553 18.149 20.172 18.149h75.439 75.439c7.619 0 20.172-9.27 20.172-18.149l13.897-41.774c0-8.879-6.177-16.077-13.797-16.077h-95.711-95.711c-7.62 0-13.797 7.198-13.797 16.077l13.897 41.774z" fill="#d3192a"/></g><g id="g60" transform="translate(1404.8 1391.3)"><path id="path62" d="m0 0c0-7.828-6.346-14.173-14.173-14.173h-34.887c-7.828 0-14.173 6.346-14.173 14.173v184.68c0 7.828 6.345 14.173 14.173 14.173h34.887c7.828 0 14.173-6.346 14.173-14.173v-184.68z" fill="#d3192a"/></g><g id="g64" transform="translate(2476.6 1391.3)"><path id="path66" d="m0 0c0-7.828 6.346-14.173 14.173-14.173h34.887c7.827 0 14.173 6.346 14.173 14.173v184.68c0 7.828-6.346 14.173-14.173 14.173h-34.887c-7.827 0-14.173-6.346-14.173-14.173v-184.68z" fill="#d3192a"/></g><g id="g68" transform="translate(1942.2 1475.2)"><path id="path70" d="m0 0h-565.96c-8.009 0-14.501-6.345-14.501-14.173l-22-59.8c0-7.828 5.292-16.129 13.301-16.129h589.16v90.102z" fill="#af1f24"/></g><g id="g72" transform="translate(1940.9 1475.2)"><path id="path74" d="m0 0h564.42c7.987 0 14.462-6.345 14.462-14.173l21.939-59.8c0-7.828-5.277-16.129-13.266-16.129h-587.55v90.102z" fill="#af1f24"/></g><g id="g76" transform="translate(2508.2 1453.1)"><path id="path78" d="m0 0c0 7.828-6.35 14.173-14.182 14.173h-551.84-1.641-553.05c-7.849 0-14.212-6.345-14.212-14.173l-21.561-59.8c0-7.828 5.187-16.129 13.036-16.129h575.78 1.641 574.53c7.833 0 13.008 8.302 13.008 16.129l-21.513 59.8z" fill="#d3192a"/></g><g id="g80" transform="translate(1940.7 387.88)"><path id="path82" d="m0 0v60 334h-1521v-22h-157v-362l13.073-10h1664.9z" fill="#232323"/></g><g id="g84" transform="translate(1940.7 387.88)"><path id="path86" d="m0 0v60 334h1521v-22h157v-362l-13.072-10h-1664.9z" fill="#232323"/></g><g id="g88" transform="translate(1940.7 387.88)"><path id="path90" d="m0 0h-1664.9l148.52-113.61c7.603-6.734 23.843-11.388 42.653-11.388h1473.8 1473.8c18.811 0 35.051 4.653 42.653 11.388l148.52 113.61h-1664.9z" fill="#191919"/></g><g id="g92" transform="translate(3461.7 758.65)"><path id="path94" d="m0 0v23.228h-1521-1521v-23.228h-157v-382.21l13.073-10.559h1664.9 1664.9l13.072 10.559v382.21h-157z" fill="#232323"/></g><g id="g96" transform="translate(1940.7 293.6)"><path id="path98" d="m0 0h-954.28l26.868-266.85c4.65-15.817 14.582-26.747 26.086-26.747h901.32 901.32c11.505 0 21.438 10.93 26.087 26.747l26.868 266.85h-954.28z" fill="#191919"/></g><g id="g100" transform="translate(1940.7 1399.9)"><path id="path102" d="m0 0h-1542.7v-618h1542.7 1542.7v618h-1542.7z" fill="#af1f24"/></g><g id="g104" transform="translate(3248.6 1009.9)"><path id="path106" d="m0 0c-4.148 0-7.8 2.12-9.938 5.333h-0.111c-0.043 0.134-0.088 0.267-0.131 0.4-0.93 1.522-1.531 3.263-1.695 5.133-71.945 214.24-274.36 368.57-512.84 368.57h-783.2-783.2c-238.47 0-440.89-154.34-512.84-368.57-0.165-1.871-0.767-3.611-1.695-5.133-0.043-0.134-0.088-0.267-0.132-0.4h-0.111c-2.137-3.213-5.788-5.333-9.937-5.333s-34.761 5.333-34.761 5.333v-233.33h1342.7 1342.7v233.33s-30.611-5.334-34.76-5.334" fill="#ed1c24"/></g><g id="g108" transform="translate(598.05 781.88)"><path id="path110" d="m0 0v-211.75s30.612 5.334 34.761 5.334c4.148 0 7.799-2.121 9.937-5.334h0.111c0.043-0.134 0.088-0.267 0.132-0.4 0.929-1.521 1.53-3.263 1.695-5.133 71.944-214.23 274.36-368.57 512.84-368.57h783.2v585.86h-1342.7z" fill="#232323"/></g><g id="g112" transform="translate(3283.4 781.88)"><path id="path114" d="m0 0v-211.75s-30.611 5.334-34.76 5.334-7.8-2.121-9.938-5.334h-0.111c-0.043-0.134-0.088-0.267-0.131-0.4-0.93-1.521-1.531-3.263-1.695-5.133-71.945-214.23-274.36-368.57-512.84-368.57h-783.2v585.86h1342.7z" fill="#232323"/></g><g id="g116" transform="translate(2724.3 1358.8)"><path id="path118" d="m0 0h-783.54-783.54c-278.61 0-504.46-225.86-504.46-504.46v-126.65c0-278.61 225.86-504.46 504.46-504.46h783.54 783.54c278.6 0 504.46 225.85 504.46 504.46v126.65c0 278.61-225.86 504.46-504.46 504.46" fill="#100f0f"/></g><g id="g120" transform="translate(2985 1206.9)"><path id="path122" d="m0 0h-1042.9-1.23-1044.4l-72.11-109.54v-803.76h1116.5 1.23 1114.9v803.76l-72.006 109.54z" fill="#363636"/></g><g id="g124" transform="translate(1983.8 804.88)"><path id="path126" d="m0 0h-43.039-43.04c-14.44 0-26.147-12.691-26.147-28.347v-259.24c0-15.655 11.707-28.347 26.147-28.347h43.04 43.039c14.441 0 26.147 12.691 26.147 28.347v259.24c1e-3 15.656-11.706 28.347-26.147 28.347" fill="#191919"/></g><g id="g128" transform="translate(2202.6 315.57)"><path id="path130" d="m0 0-8.521 54.777-13.292 85.452h-0.307c-46.637 55.676-136.47 93.473-239.77 93.814-103.3-0.342-193.14-38.139-239.77-93.814h-0.307l-13.292-85.452-8.521-54.777-9.685-62.26 25.366-199.49c0-6.884 4.13-13.248 11.121-18.443 2.416-2.997 8.304-5.862 17.143-8.531 2.939-0.967 103.28-18.358 217.45-18.358 0.167 0 0.333 1e-3 0.499 1e-3s0.332-1e-3 0.499-1e-3c114.17 0 214.51 17.392 217.45 18.358 8.839 2.669 14.727 5.534 17.143 8.531 6.991 5.195 11.121 11.56 11.121 18.443l25.366 199.49-9.685 62.26z" fill="#232323"/></g><g id="g132" transform="translate(1404.8 1342.1)"><path id="path134" d="m0 0c-2-2-111 0-223.49-0.347-104.08-0.321-238.63-25.872-342.63-127.87s-144.85-182.61-167.06-333c-22.528-152.52 6.324-225.98 22.17-335.98 16.333-113.37 98.167-297.1 126.27-335.92s106.62 132.91 106.62 132.91-124 180-126 278-18.267 170.36 52 313c100 203 220 265 260 285s214-2 224-2 68.118 126.22 68.118 126.22" fill="#191919"/></g><g id="g136" transform="translate(2476.6 1342.1)"><path id="path138" d="m0 0c2-2 110.99 0 223.49-0.347 104.08-0.321 238.63-25.872 342.63-127.87s144.85-182.61 167.06-333c22.528-152.52-6.323-225.98-22.17-335.98-16.332-113.37-98.168-297.1-126.27-335.92s-106.62 132.91-106.62 132.91 124 180 126 278 18.267 170.36-52 313c-100 203-220 265-260 285s-214-2-224-2-68.117 126.22-68.117 126.22" fill="#191919"/></g><g id="g140" transform="translate(2922.7 1207.9)"><path id="path142" d="m0 0c-110 118-370 140-494 150s-323.67 6-323.67 6l-163.52-1.55-165.15 1.55s-199.67 4-323.67-6-384-32-494-150-222-346-216-580 12-352 100-446 214-82 238-100 536 10 536 10 44.966 3.063 48 52c9.281 149.72 16.75 197.73-8 223-12 11-21.793 7.961-60 8.683-182.36 3.444-296-13.683-456 14.317-141.91 24.835-187.35 55.01-228 90-60.06 51.699-57.869 40.85-72 78-17.857 46.946 2 160 2 160s24 198 104 318c76.105 114.16 124.64 162.36 206 166 268 12 670.67 0.334 670.67 0.334 3.019-0.593 114-1e-3 117.33-1.001 3.333 1 114.31 0.408 117.33 1.001 0 0 402.67 11.666 670.67-0.334 81.355-3.643 129.9-51.842 206-166 80-120 104-318 104-318s19.857-113.05 2-160c-14.131-37.15-11.939-26.301-72-78-40.648-34.99-86.088-65.165-228-90-160-28-273.64-10.873-456-14.317-38.207-0.722-48 2.317-60-8.683-24.75-25.272-17.281-73.28-8-223 3.033-48.937 48-52 48-52s512-28 536-10 150 6 238 100 94 212 100 446-106 462-216 580" fill="#232323"/></g><g id="g144" transform="translate(1853.5 650.27)"><path id="path146" d="m0 0c0-23.483-19.037-42.52-42.52-42.52h-614.03c-23.483 0-42.52 19.037-42.52 42.52v324.32c0 23.483 19.037 42.52 42.52 42.52h614.03c23.483 0 42.52-19.037 42.52-42.52v-324.32z" fill="#5e3d38"/></g><g id="g148" transform="translate(2027.9 650.27)"><path id="path150" d="m0 0c0-23.483 19.036-42.52 42.52-42.52h614.03c23.483 0 42.52 19.037 42.52 42.52v324.32c0 23.483-19.036 42.52-42.52 42.52h-614.03c-23.483 0-42.52-19.037-42.52-42.52v-324.32z" fill="#5e3d38"/></g><g id="g152" transform="translate(99.838 827.6)"><path id="path154" d="m0 0 8e-3 0.071-0.01 1e-3c-0.103 8.939-6.831 16.617-15.944 17.657-3.576 0.408-7.02-0.273-10.02-1.762l-1e-3 9e-3 -0.065-0.04c-0.843-0.423-50.665-30.784-50.665-30.784l-3e-3 -0.021c-4.147-2.468-7.144-6.761-7.733-11.927l-15.301-134.13c-0.589-5.166 1.364-10.023 4.849-13.362l-2e-3 -0.021s41.704-40.803 42.43-41.404l0.055-0.053 3e-3 8e-3c2.588-2.126 5.79-3.565 9.365-3.974 9.114-1.039 17.398 4.927 19.512 13.613l0.01-1e-3 8e-3 0.071c0.168 0.707 23.509 205.32 23.504 206.05" fill="#232323"/></g><g id="g156" transform="translate(3781.6 827.6)"><path id="path158" d="m0 0-8e-3 0.071 0.01 1e-3c0.104 8.939 6.83 16.617 15.943 17.657 3.576 0.408 7.021-0.273 10.021-1.762l1e-3 9e-3 0.066-0.04c0.843-0.423 50.664-30.784 50.664-30.784l4e-3 -0.021c4.146-2.468 7.143-6.761 7.732-11.927l15.301-134.13c0.59-5.166-1.363-10.023-4.848-13.362l2e-3 -0.021s-41.704-40.803-42.431-41.404l-0.056-0.053-3e-3 8e-3c-2.588-2.126-5.79-3.565-9.365-3.974-9.114-1.039-17.397 4.927-19.512 13.613l-0.011-1e-3 -8e-3 0.071c-0.166 0.707-23.508 205.32-23.502 206.05" fill="#232323"/></g><g id="g160" transform="translate(112.79 864.77)"><path id="path162" d="m0 0c-12.524 1.429-23.835-7.565-25.264-20.09l-27.382-240.04c-1.428-12.524 7.566-23.834 20.09-25.264 12.525-1.428 23.835 7.566 25.265 20.09l27.382 240.04c1.429 12.526-7.566 23.836-20.091 25.265" fill="#191919"/></g><g id="g164" transform="translate(3768.6 864.77)"><path id="path166" d="m0 0c12.525 1.429 23.836-7.565 25.265-20.09l27.382-240.04c1.428-12.524-7.566-23.834-20.09-25.264-12.525-1.428-23.836 7.566-25.266 20.09l-27.381 240.04c-1.43 12.526 7.565 23.836 20.09 25.265" fill="#191919"/></g><g id="g168" transform="translate(200.3 1164.2)"><path id="path170" d="m0 0 410.14-46.469-29.722 240.16c0 23.196-18.804 42-42 42h-229.67c-44.522 0-81.535-32.149-89.09-74.5v-1e-3c-0.572-3.207-0.969-6.475-1.194-9.79l-18.463-151.4z" fill="#d3192a"/></g><g id="g172" transform="translate(3681.1 1164.2)"><path id="path174" d="m0 0-410.14-46.469 29.723 240.16c0 23.196 18.805 42 42 42h229.67c44.522 0 81.535-32.149 89.09-74.5v-1e-3c0.572-3.207 0.97-6.475 1.194-9.79l18.464-151.4z" fill="#d3192a"/></g><g id="g176" transform="translate(649.72 794.88)"><path id="path178" d="m0 0-545.67-13-30.667-280 10.667-76c0-41.974 34.026-76 76-76h298 82.667c28.493 0 51.945 21.537 54.99 49.22l6e-3 2e-3 54.004 395.78z" fill="#232323"/></g><g id="g180" transform="translate(644.26 794.88)"><path id="path182" d="m0 0-51.548-377.78-6e-3 -2e-3c-3.044-27.683-26.497-49.22-54.99-49.22h-82.667-298c-34.526 0-63.656 23.03-72.913 54.562 1.799-40.377 35.093-72.562 75.913-72.562h298 82.667c28.493 0 51.945 21.537 54.99 49.22l6e-3 2e-3 54.004 395.78h-5.456z" fill="#191919"/></g><g id="g184" transform="translate(3231.7 794.88)"><path id="path186" d="m0 0 545.67-13 30.667-280-10.667-76c0-41.974-34.026-76-76-76h-298-82.666c-28.492 0-51.945 21.537-54.99 49.22l-6e-3 2e-3 -54.004 395.78z" fill="#232323"/></g><g id="g188" transform="translate(3237.2 794.88)"><path id="path190" d="m0 0 51.548-377.78 6e-3 -2e-3c3.045-27.683 26.498-49.22 54.99-49.22h82.666 298c34.526 0 63.656 23.03 72.913 54.562-1.799-40.377-35.093-72.562-75.913-72.562h-298-82.666c-28.492 0-51.945 21.537-54.99 49.22l-6e-3 2e-3 -54.004 395.78h5.456z" fill="#191919"/></g><g id="g192" transform="translate(649.35 797.9)"><path id="path194" d="m0 0-40.632 333.98c0 21.539-17.461 39-39 39h-185l13.333-389h238.67c7.18 0 13 5.82 13 13 0 1.043-0.136 2.052-0.368 3.024" fill="#d3192a"/></g><g id="g196" transform="translate(649.35 797.9)"><path id="path198" d="m0 0-40.632 333.98c0 21.539-17.461 39-39 39h-185l0.994-29h178.01c21.539 0 39-17.461 39-39l38.935-320.02c4.731 1.944 8.065 6.593 8.065 12.024 0 1.043-0.136 2.052-0.368 3.024" fill="#af1f24"/></g><g id="g200" transform="translate(3232.1 797.9)"><path id="path202" d="m0 0 40.633 333.98c0 21.539 17.461 39 39 39h185l-13.334-389h-238.67c-7.18 0-13 5.82-13 13 0 1.043 0.136 2.052 0.367 3.024" fill="#d3192a"/></g><g id="g204" transform="translate(3232.1 797.9)"><path id="path206" d="m0 0 40.633 333.98c0 21.539 17.461 39 39 39h185l-0.994-29h-178.01c-21.539 0-39-17.461-39-39l-38.936-320.02c-4.73 1.944-8.064 6.593-8.064 12.024 0 1.043 0.136 2.052 0.367 3.024" fill="#af1f24"/></g><g id="g208" transform="translate(384.72 1170.9)"><path id="path210" d="m0 0-193-6.998c-24.117 0-43.667-19.55-43.667-43.667l-44-338.34h72 222l-13.333 389z" fill="#2b2c2c"/></g><g id="g212" transform="translate(148.05 1092.2)"><path id="path214" d="m0 0c0 24.117 19.55 43.667 43.667 43.667l193 6.998 12.374-361h0.959l-13.333 389-193-6.998c-24.117 0-43.667-19.55-43.667-43.667l-44-338.34h3.641l40.359 310.34z" fill="#232323"/></g><g id="g216" transform="translate(3496.7 1170.9)"><path id="path218" d="m0 0 193-6.998c24.117 0 43.667-19.55 43.667-43.667l43.999-338.34h-72-222l13.334 389z" fill="#2b2c2c"/></g><g id="g220" transform="translate(3733.4 1092.2)"><path id="path222" d="m0 0c0 24.117-19.55 43.667-43.667 43.667l-193 6.998-12.374-361h-0.96l13.334 389 193-6.998c24.117 0 43.667-19.55 43.667-43.667l43.999-338.34h-3.641l-40.358 310.34z" fill="#232323"/></g><g id="g224" transform="translate(371.8 1170.4)"><path id="path226" d="m0 0 12.053-387.81-38.537-288.55h-270.83l1.989-14.173h281.24l40.333 302-12.09 389h-1.243l-12.922-0.468z" fill="#191919"/></g><g id="g228" transform="translate(3509.6 1170.4)"><path id="path230" d="m0 0-12.053-387.81 38.537-288.55h270.83l-1.989-14.173h-281.24l-40.334 302 12.091 389h1.243l12.922-0.468z" fill="#191919"/></g><g id="g232" transform="translate(284.72 956.88)"><path id="path234" d="m0 0h-157.91l-4.162-32h162.07c8.836 0 16 7.164 16 16s-7.164 16-16 16" fill="#191919"/></g><g id="g236" transform="translate(284.72 897.88)"><path id="path238" d="m0 0h-165.58l-4.162-32h169.74c8.836 0 16 7.164 16 16s-7.164 16-16 16" fill="#191919"/></g><g id="g240" transform="translate(284.72 836.88)"><path id="path242" d="m0 0h-173.51l-4.162-32h177.68c8.836 0 16 7.164 16 16s-7.164 16-16 16" fill="#191919"/></g><g id="g244" transform="translate(284.72 775.88)"><path id="path246" d="m0 0h-181.32l-3.504-32h184.83c8.836 0 16 7.164 16 16s-7.164 16-16 16" fill="#191919"/></g><g id="g248" transform="translate(284.72 717.88)"><path id="path250" d="m0 0h-187.68l-3.505-32h191.18c8.836 0 16 7.164 16 16s-7.164 16-16 16" fill="#191919"/></g><g id="g252" transform="translate(284.72 659.88)"><path id="path254" d="m0 0h-194.03l-3.505-32h197.53c8.836 0 16 7.164 16 16s-7.164 16-16 16" fill="#191919"/></g><g id="g256" transform="translate(3596.7 956.88)"><path id="path258" d="m0 0h157.91l4.162-32h-162.07c-8.836 0-16 7.164-16 16s7.164 16 16 16" fill="#191919"/></g><g id="g260" transform="translate(3596.7 897.88)"><path id="path262" d="m0 0h165.58l4.161-32h-169.74c-8.836 0-16 7.164-16 16s7.164 16 16 16" fill="#191919"/></g><g id="g264" transform="translate(3596.7 836.88)"><path id="path266" d="m0 0h173.51l4.162-32h-177.68c-8.836 0-16 7.164-16 16s7.164 16 16 16" fill="#191919"/></g><g id="g268" transform="translate(3596.7 775.88)"><path id="path270" d="m0 0h181.32l3.504-32h-184.83c-8.836 0-16 7.164-16 16s7.164 16 16 16" fill="#191919"/></g><g id="g272" transform="translate(3596.7 717.88)"><path id="path274" d="m0 0h187.68l3.505-32h-191.18c-8.836 0-16 7.164-16 16s7.164 16 16 16" fill="#191919"/></g><g id="g276" transform="translate(3596.7 659.88)"><path id="path278" d="m0 0h194.03l3.505-32h-197.53c-8.836 0-16 7.164-16 16s7.164 16 16 16" fill="#191919"/></g><g id="g280" transform="translate(2128 434.21)"><path id="path282" d="m0 0c0 46.575-83.78 84.333-187.13 84.333s-187.13-37.758-187.13-84.333l-60.216-372.44 1.012-7.962c0-6.884 4.13-13.248 11.121-18.443 2.416-2.997 8.304-5.862 17.143-8.531 2.939-0.967 103.28-18.358 217.45-18.358 0.167 0 0.333 1e-3 0.499 1e-3s0.332-1e-3 0.499-1e-3c114.17 0 214.51 17.392 217.45 18.358 8.839 2.669 14.727 5.534 17.143 8.531 6.931 5.15 11.043 11.449 11.114 18.264l-58.951 380.58z" fill="#363636"/></g><g id="g284" transform="translate(1784.1 1161.8)"><path id="path286" d="m0 0c-25.991 0-54.928-22.453-54.928-52.743s26.354-52.742 54.928-52.742h318.73c30.288-2.187 54.931 22.452 54.931 52.742s-25.402 52.743-54.931 52.743h-318.73z" fill="#232323"/></g><g id="g288" transform="translate(1784.1 1148.6)"><path id="path290" d="m0 0c-20.335 1.087-41.803-16.53-41.803-39.619s17.552-39.489 41.803-39.618h318.73c24.575-0.334 41.806 16.529 41.806 39.618 0 23.088-20.688 41.396-41.806 39.619h-318.73z" fill="#363636"/></g><path id="path292" d="m1831.7 1116.5h15.134v-33.298h-15.134v33.298z" fill="#232323"/><g id="g294" transform="translate(1880.7 1118)"><path id="path296" d="m0 0s-6.282-0.313-11.024-5.055v3.542h-15.137v-33.298h15.137v21.62c1.729 6.055 6.702 5.84 6.702 5.84 7.997 0 7.567-7.786 7.567-7.786v-19.674h14.486v20.111s-0.865 14.7-17.731 14.7" fill="#232323"/></g><g id="g298" transform="translate(2002.9 1118)"><path id="path300" d="m0 0s-6.281-0.313-11.023-5.055v3.542h-15.138v-33.298h15.138v21.62c1.729 6.055 6.698 5.84 6.698 5.84 8.001 0 7.57-7.786 7.57-7.786v-19.674h14.486v20.111s-0.864 14.7-17.731 14.7" fill="#232323"/></g><path id="path302" d="m1831.7 1132.6h15.134v-10.052h-15.134v10.052z" fill="#232323"/><g id="g304" transform="translate(1929.6 1119.9)"><path id="path306" d="m0 0h-7.567v7.785h-15.137v-7.785h-6.268v-4.323h6.268v-32.433h15.137v32.433h7.567v4.323z" fill="#232323"/></g><g id="g308" transform="translate(2095.3 1117.9)"><path id="path310" d="m0 0c11.702 0 21.188-8.228 21.188-18.378s-9.486-18.378-21.188-18.378-21.188 8.228-21.188 18.378 9.486 18.378 21.188 18.378" fill="#232323"/></g><g id="g312" transform="translate(2095.3 1114)"><path id="path314" d="m0 0c-3.209 0-5.837-2.95-5.837-6.563v-15.845c0-3.61 2.628-6.563 5.837-6.563 3.213 0 5.838 2.952 5.838 6.563v15.845c0 3.613-2.625 6.563-5.838 6.563" fill="#363636"/></g><g id="g316" transform="translate(2053.7 1132.5)"><path id="path318" d="m0 0v-17c-2.174 1.186-4.525 1.86-6.811 1.86-11.354 0-20.555-7.985-20.555-17.834s9.201-17.833 20.555-17.833c2.146 0 4.539 0.852 6.811 2.32v-0.812h15.137v49.3h-15.137v-1e-3z" fill="#232323"/></g><g id="g320" transform="translate(2047.8 1112.6)"><path id="path322" d="m0 0c-3.112 0-5.664-2.688-5.664-5.978v-14.427c0-3.286 2.552-5.974 5.664-5.974 3.114 0 5.666 2.688 5.666 5.974v14.432c0 3.285-2.552 5.973-5.666 5.973" fill="#363636"/></g><g id="g324" transform="translate(1957.2 1092.9)"><path id="path326" d="m0 0c0-5.404-2.751-7.89-6.121-7.89-3.367 0-6.122 2.952-6.122 6.563v7.383h28.308c4e-3 0.18-1.268 18.92-22.186 18.92-12.271 0-22.214-8.228-22.214-18.38 0-10.151 9.944-18.376 22.214-18.376 9.453 0 17.51 4.893 20.719 11.781h-14.598v-1e-3z" fill="#232323"/></g><g id="g328" transform="translate(1957.2 1104.2)"><path id="path330" d="m0 0v3.274c0 3.612-2.751 6.563-6.121 6.563-3.367 0-6.122-2.95-6.122-6.563v-3.274h12.243z" fill="#363636"/></g><g id="g332" transform="translate(1771.5 1132.6)"><path id="path334" d="m0 0v-49.187h13.621v34.38l21.84-34.597h15.567v49.404h-15.137v-34.484l-21.622 34.484h-14.269z" fill="#232323"/></g></g></g></g><g id="g3576" transform="matrix(1.2531 0 0 1.2531 5256.5 371.83)"><g id="Calque_2"><path id="path3499" d="m1310 0h-1220c-49.706 0-90 40.294-90 90v1070h1400v-1070c0-49.706-40.295-90-90-90z" fill="#808285"/></g><g id="Calque_3"><path id="path3502" d="m0 1160v104c0 49.705 40.294 90 90 90h4.203c95.337 11.71 331.8 20 608.4 20 276.72 0 513.26-8.297 608.52-20.015 8.395-0.103 16.512-1.354 24.203-3.604 13.492-2.523 20.671-5.168 20.671-7.895 0-0.315-0.107-0.631-0.299-0.944 26.512-15.659 44.299-44.521 44.299-77.542v-104h-1400z" fill="#414042"/></g><g id="Calque_4"><path id="path3505" d="m45.354 1264c0 24.617 20.028 44.646 44.646 44.646h4.203 2.775l2.754 0.338c95.746 11.761 338.02 19.662 602.88 19.662 264.99 0 507.31-7.906 602.98-19.675l2.482-0.306 2.502-0.03c4.104-0.051 8.147-0.65 12.018-1.783l2.174-0.636 2.226-0.416c0.021 0 0.042-0.01 0.063-0.012l5.582-3.297c13.782-8.141 22.01-22.529 22.01-38.491v-104h-1309.3v104z" fill="#4d4d4f"/></g><g id="Calque_5"><path id="path3508" d="m1310 45.354h-1220c-24.618 0-44.646 20.028-44.646 44.646v1070h1309.3v-1070c0-24.618-20.03-44.646-44.647-44.646z" fill="#8a8c8e"/></g><g id="Calque_6"><g id="g3511" fill="#797a7d"><path id="path3513" d="m174 1158.6c0 0.782-0.635 1.417-1.417 1.417h-35.165c-0.783 0-1.417-0.635-1.417-1.417v-1121.2c0-0.783 0.635-1.417 1.417-1.417h35.165c0.783 0 1.417 0.635 1.417 1.417v1121.2z"/><path id="path3515" d="m1264 1158.6c0 0.782-0.635 1.417-1.418 1.417h-35.164c-0.783 0-1.418-0.635-1.418-1.417v-1121.2c0-0.783 0.635-1.417 1.418-1.417h35.164c0.783 0 1.418 0.635 1.418 1.417v1121.2z"/></g></g><g id="Calque_7"><path id="path3518" d="m1199 917.83c0 7.827-6.346 14.173-14.173 14.173h-969.65c-7.828 0-14.173-6.346-14.173-14.173v-789.65c0-7.828 6.346-14.173 14.173-14.173h969.65c7.827 0 14.173 6.346 14.173 14.173v789.65z" fill="#797a7d"/></g><g id="Calque_9"><path id="path3521" d="m735.75 1038.6h-71.5c-7.18 0-13 5.82-13 13 0 3.591 1.455 6.841 3.809 9.194l35.748 35.748c2.353 2.353 5.603 3.808 9.192 3.808 3.594 0 6.847-1.459 9.199-3.815l35.725-35.725c2.363-2.354 3.826-5.61 3.826-9.21 1e-3 -7.18-5.819-13-12.999-13z" fill="#797a7d"/></g><g id="Calque_8"><path id="path3524" d="m1187 864.48c0 23.482-19.037 42.52-42.52 42.52h-888.96c-23.483 0-42.52-19.037-42.52-42.52v-688.96c0-23.483 19.037-42.52 42.52-42.52h888.96c23.482 0 42.52 19.037 42.52 42.52v688.96z" fill="#2e2e2f"/></g><g id="Calque_12"><polygon id="polygon3527" points="1021 133 873 227 515 227 375 133" fill="#0d0d0d" stroke="#ed1c24" stroke-miterlimit="10" stroke-width="2.8346"/></g><g id="Calque_10"><g id="path2952_2_"><polygon id="polygon3532" points="556.84 147.01 548.67 147.01 548.67 147.01 563.85 211.28 578.96 147.01 570.78 147.01 563.85 183.13" fill="#ed1c24"/></g><g id="path3726_2_"><polygon id="polygon3535" points="582.31 211.28 582.31 147.01 582.31 147.01 590.49 147.01 590.49 211.28" fill="#ed1c24"/></g><g id="path3728_2_"><path id="path3538" d="m597.81 147v64.283h8.181v-33.213l11.376 33.213h7.541l-9.1-30.393c5.056-2.677 6.543-6.182 6.543-6.182v-20.42c-3.349-6.564-9.126-7.288-9.126-7.288h-15.415zm8.18 6.544h8.18v22.337h-8.18v-22.337z" fill="#ed1c24"/></g><g id="path3733_2_"><polygon id="polygon3541" points="641.19 211.28 633.01 211.28 633.01 153.54 624.91 153.54 624.91 147.01 624.91 147.01 649.37 147.01 649.37 153.54 641.19 153.54" fill="#ed1c24"/></g><g id="path3735_2_"><path id="path3544" d="m694.62 147-15.799 64.215v0.068h8.104l1.712-8.665h11.429l1.636 8.665h8.181l-15.263-64.283zm0 27.708 3.732 22.135h-8.08l4.348-22.135z" fill="#ed1c24"/></g><g id="path2882_2_"><polygon id="polygon3547" points="713.16 211.28 713.16 147.01 713.16 147.01 721.33 147.01 721.33 204.75 733.56 204.75 733.56 211.28" fill="#ed1c24"/></g><g id="path3660_2_"><polygon id="polygon3550" points="830.92 147.01 819.47 184.82 819.47 211.28 811.29 211.28 811.29 184.82 800.62 147.01 800.62 147.01 800.62 147.01 808.1 147.01 815.73 174.71 822.66 147.01" fill="#ed1c24"/></g><g id="path3662_2_"><path id="path3553" d="m785.95 147.01c-9.296 0-12.284 7.28-12.284 7.28 0.078 0.103 0 48.332 0 49.707 1.233 7.813 12.284 7.286 12.284 7.286 12.261 0 12.257-7.286 12.257-7.286v-49.707c-3.171-7.642-12.257-7.28-12.257-7.28zm-4.103 7.28h8.181v50.451h-8.181v-50.451z" fill="#ed1c24"/></g><g id="path3667_2_"><path id="path3556" d="m652.56 147.01h8.255v56.987h8.256v-56.987h8.1v56.987s-2.648 7.287-11.916 7.287-12.695-7.287-12.695-7.287v-56.987z" fill="#ed1c24"/></g><g id="path3669_2_"><path id="path3559" d="m742.6 147v64.283h16.438c7.629-1.753 8.104-6.544 8.104-6.544s-0.014-17.169-0.014-21.608c-0.573-2.801-3.182-2.895-3.182-2.895s-0.011-0.782 0-1.399c2.885-0.194 3.195-2.955 3.195-2.955s-0.014-17.153 0-21.593c-1.248-5.244-8.104-7.288-8.104-7.288h-16.437zm8.206 7.333h8.232v21.548h-8.232v-21.548zm-0.025 28.069h8.257v22.337h-8.257v-22.337z" fill="#ed1c24"/></g><g id="path3699_2_"><polygon id="polygon3562" points="827.69 211.28 826.87 211.28 826.87 205.5 824.42 205.5 824.42 204.75 824.42 204.75 830.1 204.75 830.1 205.5 827.69 205.5" fill="#ed1c24"/></g><g id="path3713_2_"><polygon id="polygon3565" points="838.32 204.75 838.32 211.28 837.46 211.28 837.46 206.23 835.04 211.28 834.22 211.28 831.74 206.23 831.74 211.28 830.92 211.28 830.92 211.28 830.92 204.75 831.74 204.75 834.66 210.58 837.46 204.75" fill="#ed1c24"/></g></g><g id="Calque_11"><path id="path3568" d="m1187 693v-7.234l-71.844-56.929h71.844v-5.669h-78.998l-50.897-40.331h77.176l52.72 32.791v-6.676l-41.985-26.115h41.984v-5.669h-51.1l-48.764-30.331h52.201l47.662 23.91v-6.343l-35.018-17.567h35.019v-5.669h-46.318l-44.514-22.331h57.432l33.4 14.688v-6.192l-19.318-8.496h19.318v-5.669h-974v5.669h24.513l-24.513 10.78v6.193l38.596-16.973h57.433l-44.514 22.331h-51.515v5.669h40.214l-40.214 20.174v6.342l52.857-26.516h38.202l-48.764 30.331h-42.295v5.669h33.181l-33.181 20.639v6.677l43.915-27.315h91.176l-50.897 40.331h-84.194v5.669h77.04l-77.04 61.046v7.232l86.168-68.279h98.265l-134.5 158.33h-49.937v5.67h45.12l-45.12 53.116v8.756l52.558-61.872h299.05l-23.676 114.16h5.79l23.677-114.16h264.4l23.677 114.16h5.79l-23.677-114.16h299.05l47.362 55.756v-8.756l-39.925-47h39.925v-5.67h-44.741l-134.5-158.33h98.265l80.972 64.163zm-61.834-115.83h-75.216l-38.277-30.331h64.729l48.764 30.331zm-335.09 0h-174.95l6.291-30.331h162.37l6.29 30.331zm-0.501-30.332h141.1l25.766 30.331h-160.57l-6.29-30.331zm-180.24 30.332h-160.57l25.765-30.331h141.1l-6.291 30.331zm-168.01 0h-76.95l38.278-30.331h64.437l-25.765 30.331zm2.622 5.668h164.21l-8.364 40.331h-190.11l34.259-40.331zm170 0h177.3l8.364 40.331h-194.03l8.364-40.331zm183.09 0h164.21l34.26 40.331h-190.11l-8.364-40.331zm141.07-36h64.437l38.277 30.331h-76.949l-25.765-30.331zm145.42-28 44.515 22.331h-50.016l-35.903-22.331h41.404zm-52.138 0 35.902 22.331h-62.769l-28.182-22.331h55.049zm-64.177 0 28.182 22.331h-62.099l-18.969-22.331h52.886zm-60.324 0 18.97 22.331h-137.46l-4.632-22.331h123.12zm-279.66 0h150.75l4.631 22.331h-160.02l4.632-22.331zm-5.79 0-4.631 22.331h-137.46l18.969-22.331h123.12zm-130.56 0-18.97 22.331h-62.099l28.182-22.331h52.887zm-62.015 0-28.182 22.331h-76.77l35.902-22.331h69.05zm-151.7 22.332 44.514-22.331h27.404l-35.902 22.331h-36.016zm-11.128 36 48.764-30.331h78.729l-38.277 30.331h-89.216zm40.293 46 50.897-40.331h79.289l-34.26 40.331h-95.926zm259.46 164h-295.41l134.5-158.33h193.75l-32.837 158.33zm5.79 0 32.836-158.33h196.38l32.837 158.33h-262.05zm563.25 0h-295.41l-32.837-158.33h193.75l134.5 158.33zm-131.87-164-34.26-40.331h79.288l50.897 40.331h-95.925z" fill="#ed1c24"/></g></g></svg>
