<?xml version="1.0" encoding="UTF-8"?>
<!-- Generator: Adobe Illustrator 19.0.0, SVG Export Plug-In . SVG Version: 6.00 Build 0)  -->
<svg id="Layer_1" width="798.82" height="264.05" version="1.1" viewBox="0 0 798.82 264.05" xml:space="preserve" xmlns="http://www.w3.org/2000/svg" xmlns:cc="http://creativecommons.org/ns#" xmlns:dc="http://purl.org/dc/elements/1.1/" xmlns:rdf="http://www.w3.org/1999/02/22-rdf-syntax-ns#"><metadata id="metadata103"><rdf:RDF><cc:Work rdf:about=""><dc:format>image/svg+xml</dc:format><dc:type rdf:resource="http://purl.org/dc/dcmitype/StillImage"/><dc:title/></cc:Work></rdf:RDF></metadata><g id="g3" transform="translate(0 102.65)"><path id="path5" d="m248.2 161.4 232.5-2.3c1.7 0 3.8-1 5-2.7l4.9-9.5h-242.4-242.4l4.9 9.5c1.3 1.7 3.3 2.7 5 2.7l232.5 2.3" fill="#d5d4cf"/><path id="path7" d="m247.7 37.1h244.9c1.6 0 2.8 1.3 2.8 2.8l-2.9 104.1c0 1.6-1.3 2.8-2.8 2.8h-242-241.9c-1.6 0-2.8-1.3-2.8-2.8l-3-104.1c0-1.6 1.3-2.8 2.8-2.8h244.9" fill="#e2e4e2"/><path id="path9" d="m426.2 135.2h0.1 0.1v0.1 2.2l-0.1 0.2s-0.1 0.1-0.2 0.1h-4.1c-0.1 0-0.2 0-0.2-0.1l-0.1-0.2v-2.2-0.1h0.1 0.1 0.1 0.1v0.1 1.8h1.4v-1.5-0.1h0.1 0.1 0.1 0.1v0.1 1.5h1.6v-1.8-0.1h0.1 0.6z" fill="#bdbbb8"/><path id="path11" d="m425.3 133.2h0.5c0.1 0 0.3 0.1 0.4 0.2s0.2 0.2 0.2 0.3c0.1 0.1 0.1 0.3 0.1 0.5v0.2 0.2l-0.2 0.2h-0.1-0.1-0.1-0.1-0.1v-0.1l0.2-0.2v-0.2-0.2l-0.1-0.1c-0.1 0-0.1-0.1-0.2-0.1h-0.4-3.3v-0.1-0.1-0.1-0.1l3.3-0.3z" fill="#bdbbb8"/><path id="path13" d="m426.2 129.4h0.1 0.1v0.1 2.2l-0.1 0.2s-0.1 0.1-0.2 0.1h-4.1c-0.1 0-0.2 0-0.2-0.1l-0.1-0.2v-2.2-0.1h0.1 0.1 0.1 0.1v0.1 1.8h1.4v-1.5-0.1h0.1 0.1 0.1 0.1v0.1 1.5h1.6v-1.8-0.1h0.1 0.6z" fill="#bdbbb8"/><path id="path15" d="m425.8 125.4h0.2 0.1 0.1l0.1 0.1c0 0.1 0.1 0.2 0.1 0.3s0.1 0.2 0.1 0.4v0.5c0 0.3 0 0.6-0.1 0.8s-0.2 0.4-0.4 0.6-0.4 0.3-0.7 0.4-0.6 0.1-1 0.1-0.7 0-1-0.1-0.5-0.2-0.7-0.4-0.4-0.4-0.5-0.6-0.2-0.5-0.2-0.8v-0.4c0-0.1 0.1-0.2 0.1-0.3s0.1-0.2 0.1-0.3l0.1-0.2 0.1-0.1h0.1 0.1 0.1 0.1 0.1l-0.1 0.1c0 0.1-0.1 0.1-0.2 0.2s-0.1 0.2-0.2 0.3c0 0.1-0.1 0.3-0.1 0.5s0 0.4 0.1 0.5c0.1 0.2 0.2 0.3 0.4 0.4s0.3 0.2 0.6 0.3 0.5 0.1 0.8 0.1 0.5 0 0.8-0.1 0.4-0.2 0.6-0.3 0.3-0.3 0.3-0.4c0.1-0.2 0.1-0.4 0.1-0.6s0-0.3-0.1-0.5c0-0.1-0.1-0.2-0.1-0.3-0.1-0.1-0.1-0.2-0.1-0.2l-0.1-0.1h0.1l0.2 0.1z" fill="#bdbbb8"/><polygon id="polygon17" points="422.4 121.8 422.4 121.9 422.4 123.2 426.4 123.2 426.4 123.2 426.5 123.2 426.5 123.3 426.5 123.5 426.5 123.6 426.5 123.7 426.4 123.8 426.4 123.8 422.4 123.8 422.4 125.1 422.4 125.1 422.4 125.1 422.3 125.2 422.2 125.2 422.1 125.2 422 125.1 421.9 125.1 421.9 125.1 421.9 121.9 421.9 121.8 422 121.8 422.1 121.8 422.2 121.8 422.2 121.8 422.3 121.8" fill="#bdbbb8"/><path id="path19" d="m72.1 135.1c0.2 0 0.4 0 0.6 0.1s0.3 0.2 0.5 0.3c0.1 0.1 0.2 0.3 0.3 0.5s0.1 0.4 0.1 0.7v0.5h1.6v0.1 0.1 0.1 0.1h-4.2c-0.1 0-0.2 0-0.2-0.1l-0.1-0.2v-1-0.3c0-0.1 0-0.2 0.1-0.3 0-0.1 0.1-0.2 0.2-0.4l0.3-0.3c0.1-0.1 0.2-0.2 0.4-0.2 0.1 0.3 0.2 0.3 0.4 0.3zm0 0.6c-0.2 0-0.3 0-0.5 0.1l-0.3 0.3c-0.1 0.1-0.1 0.2-0.1 0.3v0.3 0.6h1.8v-0.5c0-0.2 0-0.3-0.1-0.5 0-0.1-0.1-0.2-0.2-0.3s-0.2-0.1-0.3-0.2c0-0.1-0.1-0.1-0.3-0.1z" fill="#bdbbb8"/><path id="path21" d="m73 130.3c0.4 0 0.7 0 1 0.1s0.5 0.2 0.8 0.4c0.2 0.2 0.4 0.4 0.5 0.6 0.1 0.3 0.2 0.6 0.2 0.9s-0.1 0.6-0.2 0.9c-0.1 0.2-0.2 0.5-0.4 0.6-0.2 0.2-0.4 0.3-0.7 0.4s-0.6 0.1-1 0.1-0.7 0-1-0.1-0.5-0.2-0.7-0.4-0.4-0.4-0.5-0.6c-0.1-0.3-0.2-0.6-0.2-0.9s0.1-0.6 0.2-0.9c0.1-0.2 0.2-0.5 0.4-0.6 0.2-0.2 0.4-0.3 0.7-0.4 0.2 0 0.5-0.1 0.9-0.1zm0 0.7c-0.3 0-0.5 0-0.7 0.1-0.2 0-0.4 0.1-0.6 0.2s-0.3 0.2-0.4 0.4-0.1 0.4-0.1 0.7 0 0.5 0.1 0.7 0.2 0.3 0.4 0.4 0.4 0.2 0.6 0.2 0.4 0.1 0.7 0.1 0.5 0 0.7-0.1 0.4-0.1 0.6-0.2 0.3-0.2 0.4-0.4 0.1-0.4 0.1-0.7 0-0.5-0.1-0.7-0.2-0.3-0.4-0.4-0.4-0.2-0.6-0.2c-0.2-0.1-0.4-0.1-0.7-0.1z" fill="#bdbbb8"/><polygon id="polygon23" points="75.3 125.3 75.3 125.5 75.3 125.6 75.3 125.8 75.2 125.8 75.2 125.9 71.7 126.8 71.7 126.8 75.2 127.7 75.2 127.8 75.3 127.8 75.3 127.9 75.3 128.1 75.3 128.3 75.3 128.4 75.2 128.5 75.2 128.6 71 129.8 70.8 129.8 70.8 129.8 70.7 129.7 70.7 129.5 70.7 129.3 70.8 129.2 70.8 129.2 70.9 129.1 74.7 128.1 74.7 128.1 70.9 127.1 70.8 127.1 70.8 127.1 70.7 127 70.7 126.8 70.7 126.6 70.8 126.6 70.8 126.5 70.9 126.5 74.7 125.4 74.7 125.4 70.9 124.4 70.8 124.4 70.8 124.4 70.7 124.3 70.7 124.1 70.7 123.9 70.8 123.8 70.8 123.8 71 123.8 75.2 125 75.2 125.1 75.3 125.2" fill="#bdbbb8"/><path id="path25" d="m75.1 120.5h0.1 0.1v0.1 2.2l-0.1 0.2s-0.1 0.1-0.2 0.1h-4c-0.1 0-0.2 0-0.2-0.1l-0.1-0.2v-2.2-0.1h0.1 0.1 0.1 0.1v0.1 1.8h1.4v-1.5-0.1h0.1 0.1 0.1 0.1v0.1 1.5h1.6v-1.8-0.1h0.1 0.5z" fill="#bdbbb8"/><path id="path27" d="m75.2 116.4 0.1 0.2v0.2 0.1 0.1 0.1h-0.1l-1.1 0.4c-0.1 0-0.2 0.1-0.3 0.2s-0.2 0.1-0.3 0.2-0.1 0.2-0.2 0.3c0 0.1-0.1 0.2-0.1 0.4v0.4h1.9v0.1 0.1 0.1 0.1h-4.1c-0.1 0-0.2 0-0.2-0.1l-0.1-0.2v-1-0.3-0.2c0-0.2 0.1-0.3 0.1-0.5 0.1-0.1 0.1-0.2 0.2-0.3s0.2-0.2 0.3-0.2 0.3-0.1 0.4-0.1c0.2 0 0.3 0 0.4 0.1 0.1 0 0.2 0.1 0.3 0.2s0.2 0.2 0.2 0.3c0.1 0.1 0.1 0.2 0.2 0.4l0.1-0.2 0.2-0.2c0.1-0.1 0.2-0.1 0.2-0.1 0.1 0 0.2-0.1 0.3-0.1l1-0.4 0.6-0.1zm-3.2 1c-0.2 0-0.3 0-0.5 0.1-0.1 0.1-0.2 0.2-0.3 0.4v0.2 0.3 0.5h1.5v-0.6c0-0.2 0-0.3-0.1-0.4 0-0.1-0.1-0.2-0.2-0.3s-0.2-0.1-0.2-0.2h-0.2z" fill="#bdbbb8"/><path id="path29" d="m479.3 106.8c-0.2 0.7-0.9 1.4-1.6 1.7-0.5 0.2-3.1 0.9-12.3 3.5l-1.4 0.4v-1.7-1.8s2.5-0.7 5.6-1.4l5.6-1.4-2.6-0.7c-6.1-1.6-7.1-1.9-7.5-2.1-0.6-0.3-1-0.7-1.1-1.3-0.1-0.3-0.1-1 0-1.3 0.2-0.6 0.6-1.1 1.3-1.4 0.4-0.2 1.7-0.5 6.7-1.8 1.7-0.4 3.1-0.8 3.1-0.8s-2-0.6-5.5-1.5l-5.6-1.4v-1.8-1.7s1.4 0.4 3 0.8c7.7 2.1 10.3 2.9 10.8 3.1 0.8 0.4 1.3 1 1.5 1.7 0.1 0.3 0.1 0.9 0 1.2-0.1 0.4-0.2 0.6-0.6 1-0.3 0.3-0.4 0.4-0.7 0.5-0.5 0.2-1.3 0.5-6.9 2-1.3 0.4-2.4 0.7-2.4 0.7s1.2 0.4 2.8 0.8c3.5 1 5.3 1.5 5.8 1.6 1.1 0.3 1.8 1 2 1.8v1.3zm-5.4-18.3h-5.3v-1.7-1.7h5.3 5.3v1.7 1.7h-5.3zm0-6.7h-5.3v-1.7-1.7h5.3 5.3v1.7 1.7h-5.3zm-7.2 5.5c-0.2 0.8-0.8 1.4-1.6 1.5-0.9 0.2-1.8-0.5-2.1-1.4-0.1-0.5-0.1-1.1 0.2-1.5 0.1-0.3 0.5-0.7 0.7-0.8 0.8-0.5 1.9-0.2 2.4 0.6 0.4 0.5 0.5 1.1 0.4 1.6zm0-6.7c-0.2 1-1.2 1.7-2.1 1.5-0.7-0.1-1.3-0.7-1.5-1.4-0.1-0.5-0.1-1.1 0.2-1.5 0.1-0.3 0.5-0.6 0.7-0.8 0.8-0.5 1.9-0.2 2.4 0.6 0.3 0.5 0.4 1.1 0.3 1.6z" fill="#bdbbb8"/><path id="path31" d="m243.4 88.9-194.2-2.8-0.7-0.2c-5.5-1.8-9.5-7.4-9.5-13.3 0-5.7 3.6-10.4 9.4-12.3l0.7-0.2 195.5-4.7h6l195.6 4.7 0.7 0.2c5.8 1.9 9.4 6.6 9.4 12.3 0 5.9-4 11.5-9.4 13.2l-0.7 0.2-197.4 2.8-5.4 0.1z" fill="#eeefec"/><path id="path33" d="m244.7 60.4-194.7 4.7c-9.2 3-6.6 13.8 0 16l193.4 2.8h5.4l196.6-2.8c6.6-2.2 9.2-13 0-16l-194.9-4.7h-5.8z" fill="#91b9e3"/><path id="path35" d="m52.8 66c-9.1 2.2-6.6 10.2 0 11.8l190.6 2c1.3 0.1 2.9 0 4.3 0l194.9-2.1c6.6-1.6 9.1-9.6 0-11.8l-194.9-3.5c-64.9 1-129.9 2.4-194.9 3.6z"/><path id="path37" d="m116.5 138.3h-5v-1.8c0-0.4 0-0.7 0.1-0.8 0.1-0.2 0.2-0.3 0.5-0.4 0.2-0.1 0.5-0.2 0.8-0.2 0.4 0 0.7 0.1 0.9 0.3s0.4 0.5 0.4 0.9c0.1-0.2 0.2-0.3 0.3-0.3 0.2-0.2 0.4-0.3 0.6-0.4l1.4-0.7v0.7l-1 0.5c-0.4 0.2-0.7 0.4-0.8 0.5l-0.3 0.3c0 0.1-0.1 0.2-0.1 0.4v0.6h2.2v0.4zm-2.8-0.5v-1.2c0-0.3 0-0.4-0.1-0.6s-0.2-0.2-0.3-0.3-0.3-0.1-0.5-0.1c-0.3 0-0.5 0.1-0.6 0.2s-0.2 0.4-0.2 0.7v1.3h1.7z" fill="#bdbbb8"/><polygon id="polygon39" points="112.1 131.2 112.1 133.6 113.6 133.6 113.6 131.3 114.2 131.3 114.2 133.6 115.9 133.6 115.9 131.1 116.5 131.1 116.5 134.2 111.5 134.2 111.5 131.2" fill="#bdbbb8"/><path id="path41" d="m114.9 130.5-0.1-0.5c0.3 0 0.5-0.1 0.6-0.2 0.2-0.1 0.3-0.2 0.4-0.4s0.1-0.4 0.1-0.6c0-0.3-0.1-0.6-0.2-0.8-0.2-0.2-0.4-0.3-0.6-0.3-0.1 0-0.3 0-0.4 0.1l-0.3 0.3c-0.1 0.1-0.2 0.4-0.3 0.8s-0.2 0.7-0.3 0.8l-0.4 0.4c-0.2 0.1-0.4 0.1-0.6 0.1-0.4 0-0.7-0.1-1-0.4s-0.4-0.6-0.4-1.1c0-0.3 0.1-0.6 0.2-0.8s0.3-0.4 0.5-0.5 0.5-0.2 0.8-0.2v0.5c-0.3 0-0.6 0.1-0.7 0.3-0.2 0.2-0.2 0.4-0.2 0.7s0.1 0.5 0.2 0.7 0.3 0.2 0.5 0.2 0.4-0.1 0.5-0.2 0.2-0.4 0.3-0.8 0.2-0.7 0.3-0.9c0.1-0.3 0.3-0.4 0.5-0.6 0.2-0.1 0.5-0.2 0.7-0.2 0.3 0 0.5 0.1 0.8 0.2 0.2 0.1 0.4 0.3 0.5 0.5s0.2 0.5 0.2 0.8c0 0.5-0.2 0.9-0.5 1.2-0.2 0.8-0.6 0.9-1.1 0.9z" fill="#bdbbb8"/><polygon id="polygon43" points="112.1 123.5 112.1 126 113.6 126 113.6 123.7 114.2 123.7 114.2 126 115.9 126 115.9 123.4 116.5 123.4 116.5 126.5 111.5 126.5 111.5 123.5" fill="#bdbbb8"/><polygon id="polygon45" points="111.5 123 111.5 119.7 112.1 119.7 112.1 121.1 116.5 121.1 116.5 121.6 112.1 121.6 112.1 123" fill="#bdbbb8"/><path id="path47" d="m48.5 146.9-1.1-27.3c0-2 1.5-3.6 3.4-3.6h9.7c1.9 0 3.4 1.6 3.4 3.5l1.1 27.4h-16.5z" fill="#fff"/><path id="path49" d="m54.7 155.1c-1.7 0-2.4-1.3-2.8-2.1l-0.2-0.3-3.2-5.8h16.5l2.3 4c0.4 0.8 0.4 1.8 0 2.5-0.5 1-1.7 1.6-2.9 1.6h-9.7z" fill="#edefea"/><path id="path51" d="m49.6 146.9-1.1-27.2c0-0.9 0.8-1.7 1.7-1.7h10.6c0.9 0 1.7 0.8 1.7 1.7l1.1 27.2h-14z" fill="#ebece7"/><path id="path53" d="m63.6 146.9h-14l3.1 5.4c0.5 0.9 0.7 1.5 1.5 1.5h11c0.8 0 1.9-0.8 1.5-1.5l-3.1-5.4z" fill="#e4e4e2"/><rect id="rect55" x="50.6" y="127.2" width="6.2" height=".9" fill="#b9bcbf"/><path id="path57" d="m51.9 125.8h1.1c0.7-1 1.8-1.7 3.1-1.7 2 0 3.7 1.6 3.7 3.7 0 2-1.6 3.7-3.7 3.7-1.3 0-2.4-0.7-3.1-1.7v0.1h-1c0.8 1.5 2.3 2.5 4.1 2.5 2.6 0 4.6-2.1 4.6-4.6 0-2.6-2.1-4.6-4.6-4.6-1.9 0-3.5 1.1-4.2 2.6z" fill="#b9bcbf"/><path id="path59" d="m56.3 142.6c-0.5 0-1-0.2-1.4-0.6s-0.6-0.9-0.6-1.4c0-1.1 0.9-1.9 1.9-1.9 0.5 0 1 0.2 1.4 0.6s0.6 0.9 0.6 1.4-0.2 1-0.6 1.4c-0.3 0.3-0.8 0.5-1.3 0.5z" fill="#b2d42e"/><path id="path61" d="m56.3 139.5c-0.7 0-1.2 0.5-1.2 1.2 0 0.3 0.1 0.6 0.4 0.9 0.2 0.2 0.5 0.4 0.9 0.4 0.3 0 0.6-0.1 0.9-0.4 0.2-0.2 0.4-0.5 0.4-0.9 0-0.3-0.1-0.6-0.4-0.9-0.4-0.2-0.7-0.3-1-0.3z" fill="#d2eb76"/><path id="path63" d="m92.4 146.9-0.9-27.3c0-2 1.3-3.6 3-3.6h8.4c1.6 0 3 1.6 3 3.5l0.9 27.4h-14.4z" fill="#fff"/><path id="path65" d="m97.8 155.1c-1.5 0-2.1-1.3-2.4-2.1l-0.1-0.3-2.8-5.8h14.4l2 4c0.4 0.8 0.4 1.8 0 2.5-0.5 1-1.5 1.6-2.5 1.6h-8.6z" fill="#edefea"/><path id="path67" d="m93.3 146.9-0.9-27.2c0-0.9 0.7-1.7 1.5-1.7h9.2c0.8 0 1.5 0.8 1.5 1.7l0.9 27.2h-12.2z" fill="#ebece7"/><path id="path69" d="m105.5 146.9h-12.2l2.7 5.4c0.4 0.9 0.6 1.5 1.3 1.5h9.6c0.7 0 1.7-0.8 1.3-1.5l-2.7-5.4z" fill="#e4e4e2"/><path id="path71" d="m446.6 146.9 1.1-27.3c0-2-1.6-3.6-3.5-3.6h-10c-1.9 0-3.5 1.6-3.5 3.5l-1.1 27.4h17z" fill="#fff"/><path id="path73" d="m440.2 155.1c1.8 0 2.5-1.3 2.9-2.1l0.2-0.3 3.4-5.8h-17.1l-2.4 4c-0.5 0.8-0.4 1.8 0 2.5 0.6 1 1.8 1.6 3 1.6h10z" fill="#edefea"/><path id="path75" d="m445.6 146.9 1.1-27.2c0-0.9-0.8-1.7-1.8-1.7h-11c-1 0-1.8 0.8-1.8 1.7l-1.1 27.2h14.6z" fill="#ebece7"/><path id="path77" d="m431 146.9h14.5l-3.2 5.4c-0.5 0.9-0.7 1.5-1.6 1.5h-11.4c-0.9 0-2-0.8-1.6-1.5l3.3-5.4z" fill="#e4e4e2"/><polyline id="polyline79" points="227.6 114.8 227.6 116.4 267.8 116.4 267.8 114.8 227.6 114.8 227.6 114.8" fill="#808080"/><path id="path81" d="m344.9 146.9h-1.1c0 1.6-1 7.3-2.6 7.3h-93.4-93.4c-1.6 0-2.6-5.7-2.6-7.3h-1.1c0 1.6 1.3 7.8 2.9 7.8h94.3 94.1c1.6 0 2.9-6.3 2.9-7.8" fill="#848381"/><path id="path83" d="m338.8 114h-58.2-32.9-32.9-58.2c-3.7 0-6.1 3.6-6.1 7.5v25.4h1.1l-0.3-25.1c0-3.5 2-6.7 5.2-6.7h58.2 12.8v-0.3h40.2v0.3h12.8 58.2c3.2 0 5.2 3.2 5.2 6.7l-0.3 25.1h1.1v-25.4c0.2-3.9-2.2-7.5-5.9-7.5" fill="#8a8b8a"/><polyline id="polyline85" points="267.8 114.8 227.6 114.8 227.6 114.8 227.6 115 247.7 115 267.8 115 267.8 114.8" fill="#595959"/><polygon id="polygon87" points="435.9 132 440.4 128.4 440.4 135.6" fill="#bdbbb8"/><rect id="rect89" x="441.7" y="128.4" width="1.2" height="7.2" fill="#bdbbb8"/><path id="path91" d="m247.7 0h18.6 49.9 113.3c1 0 2.1 0.3 3 0.8l61.2 36.6h-246-246l61.2-36.6c0.9-0.5 1.9-0.8 3-0.8h113.3 49.9 18.6z" fill="#ebeae8"/><path id="path93" d="m467.5 32.5h-439.6v-0.1l0.1-0.1c0.4-0.3 1.9-1.2 7.2-4.4l39.7-23.7h345.7l39.5 23.7c5.3 3.2 6.8 4.1 7.2 4.4l0.2 0.1v0.1zm-438.9-0.3h438.2c-4.8-2.9-44.9-26.9-46.4-27.8h-345.4c-1.4 0.9-41.6 25-46.4 27.8z" fill="#bdbbb8"/><rect id="rect95" x="10.1" y="32.2" width="18" height=".3" fill="#bdbbb8"/><rect id="rect97" x="467.4" y="32.2" width="18" height=".3" fill="#bdbbb8"/></g><g id="g3432" transform="matrix(1.5587 0 0 1.5587 534.77 0)"><g id="g3434"><path id="path3436" d="m84.7 169.4c-46.7 0-84.7-38-84.7-84.7s38-84.7 84.7-84.7 84.7 38 84.7 84.7-38 84.7-84.7 84.7zm0-169.3c-46.6 0-84.6 38-84.6 84.6s37.9 84.5 84.5 84.5 84.5-37.9 84.5-84.5c0.1-46.6-37.8-84.6-84.4-84.6z" fill="#0f1317"/></g><path id="path3438" d="m166.9 84.7c0 45.4-36.8 82.2-82.2 82.2s-82.2-36.8-82.2-82.2 36.8-82.2 82.2-82.2 82.2 36.8 82.2 82.2zm-82.2-21c-11.6 0-21 9.4-21 21s9.4 21 21 21 21-9.4 21-21-9.4-21-21-21z" fill="#005c9b"/><path id="path3440" d="m66.6 112.4" fill="none" stroke="#7ac143" stroke-miterlimit="10"/><path id="path3442" d="m84.7 117.8" fill="none" stroke="#7ac143" stroke-miterlimit="10"/><path id="path3444" d="m98.8 54.7" fill="none" stroke="#7ac143" stroke-miterlimit="10"/><path id="path3446" d="m84.7 51.6" fill="none" stroke="#7ac143" stroke-miterlimit="10"/><path id="path3448" d="m51.6 84.7" fill="none" stroke="#7ac143" stroke-miterlimit="10"/><path id="path3450" d="m51.9 89.2" fill="none" stroke="#7ac143" stroke-miterlimit="10"/><g id="g3452"><path id="path3454" d="m84.7 99.4c-8.1 0-14.7-6.6-14.7-14.7s6.6-14.7 14.7-14.7 14.7 6.6 14.7 14.7-6.6 14.7-14.7 14.7zm0-28.4c-7.6 0-13.7 6.1-13.7 13.7 0 7.5 6.1 13.7 13.7 13.7 7.5 0 13.7-6.1 13.7-13.7s-6.2-13.7-13.7-13.7z" fill="#a299a1"/></g><g id="g3456"><path id="path3458" d="m84.7 96.5c-6.5 0-11.8-5.3-11.8-11.8s5.3-11.8 11.8-11.8 11.8 5.3 11.8 11.8-5.3 11.8-11.8 11.8zm0-22.7c-6 0-10.8 4.9-10.8 10.8 0 6 4.9 10.8 10.8 10.8 6 0 10.8-4.9 10.8-10.8s-4.8-10.8-10.8-10.8z" fill="#a299a1"/></g><path id="path1363" d="m24.3 91.9c-0.6-0.2-1.2-0.7-1.5-1.4-0.2-0.4-0.8-2.7-3-10.7l-0.3-1.2h1.5 1.5s0.6 2.2 1.3 4.9l1.2 4.8 0.6-2.2c1.4-5.3 1.6-6.2 1.8-6.5 0.2-0.5 0.6-0.9 1.1-1 0.3-0.1 0.9-0.1 1.1 0 0.5 0.1 1 0.5 1.2 1.1 0.1 0.3 0.4 1.5 1.6 5.8 0.4 1.5 0.7 2.7 0.7 2.7s0.5-1.8 1.3-4.8l1.2-4.8h1.5 1.5s-0.3 1.2-0.7 2.6c-1.9 6.7-2.5 9-2.7 9.4-0.3 0.7-0.8 1.1-1.5 1.3-0.3 0.1-0.8 0.1-1.1 0-0.4-0.1-0.6-0.2-0.9-0.5-0.2-0.2-0.3-0.3-0.4-0.6-0.2-0.4-0.4-1.1-1.7-6-0.3-1.1-0.6-2.1-0.6-2.1s-0.3 1.1-0.7 2.5c-0.8 3-1.3 4.6-1.4 5.1-0.3 0.9-0.8 1.5-1.5 1.7-0.3 0-0.9 0-1.1-0.1zm15.8-4.6v-4.6h1.4 1.5v4.6 4.6h-1.4-1.4v-4.6zm5.8 0v-4.6h1.4 1.4v4.6 4.6h-1.4-1.4v-4.6zm4 4.1v-0.4h-0.2c-0.2 0-0.2 0-0.2-0.1v-0.1h0.5 0.4v0.1c0 0.1 0 0.1-0.2 0.1h-0.2v0.5 0.5h-0.1v-0.6zm0.6 0v-0.5h0.2 0.2l0.1 0.3c0.1 0.2 0.1 0.4 0.1 0.4 0 0.1 0.1 0 0.2-0.4l0.1-0.3h0.2 0.2v0.5 0.5h-0.1-0.1v-0.4c0-0.4 0-0.4-0.2 0.1-0.1 0.3-0.1 0.3-0.2 0.3s-0.1 0-0.2-0.4l-0.1-0.4v0.4 0.4h-0.1-0.1v-0.5zm-9.3-10.4c-0.7-0.1-1.2-0.7-1.3-1.3-0.1-0.8 0.4-1.6 1.2-1.8 0.4-0.1 0.9-0.1 1.3 0.1 0.2 0.1 0.6 0.4 0.7 0.7 0.4 0.7 0.2 1.7-0.5 2.1-0.4 0.2-1 0.3-1.4 0.2zm5.8 0c-0.8-0.2-1.4-1-1.3-1.8 0.1-0.6 0.6-1.2 1.2-1.3 0.4-0.1 0.9-0.1 1.3 0.1 0.2 0.1 0.5 0.4 0.7 0.6 0.4 0.7 0.2 1.7-0.5 2.1-0.4 0.3-1 0.4-1.4 0.3z" fill="#c1cdcc"/><circle id="circle3461" cx="84.7" cy="84.7" r="21" fill="none" stroke="#2b84c6" stroke-miterlimit="10"/><g id="g3463" fill="#c1cdcc"><path id="path3465" d="m74.8 152c-2.1 0-3.5-1.5-3.5-3.4s1.4-3.4 3.5-3.4h19.8c2.1 0 3.5 1.5 3.5 3.4s-1.4 3.4-3.5 3.4h-19.8zm0-6c-1.7 0-2.7 1.2-2.7 2.6s1 2.6 2.7 2.6h19.8c1.7 0 2.7-1.1 2.7-2.6 0-1.4-1-2.6-2.7-2.6h-19.8z"/><path id="path456_2_" d="m73.9 146.9h1l1.3 2.2v-2.2h1v3.2h-1l-1.3-2.2v2.2h-1v-3.2z"/><path id="path458_2_" d="m82.4 147.3h0.9v0.4h0.5v0.3h-0.5v2.1h-0.9v-2.1h-0.5v-0.3h0.5v-0.4z"/><path id="path460_2_" d="m77.7 148h0.9v2.1h-0.9v-2.1z"/><path id="path462_2_" d="m77.7 146.9h0.9v0.7h-0.9v-0.7z"/><path id="path464_2_" d="m94.1 147.9c-0.8 0-1.4 0.5-1.4 1.2s0.6 1.2 1.4 1.2 1.4-0.5 1.4-1.2-0.6-1.2-1.4-1.2m0.4 1.2v0.5c0 0.3-0.2 0.5-0.4 0.5s-0.4-0.1-0.4-0.5v-0.5-0.4c0-0.3 0.2-0.5 0.4-0.5s0.4 0.1 0.4 0.5v0.4z"/><path id="path466_2_" d="m91.6 149.1v-0.4c0-0.3-0.2-0.4-0.4-0.4-0.1 0-0.4 0.1-0.4 0.4v0.4 0.4c0 0.3 0.2 0.4 0.4 0.4 0.1 0 0.4-0.1 0.4-0.4v-0.4zm-0.1-2.2h0.9v3.2h-0.9v-0.1c-0.4 0.2-0.8 0.2-1.1 0.1-0.1 0-0.6-0.3-0.6-1.1 0-0.6 0.5-1.2 1.2-1.1 0.2 0 0.4 0.1 0.5 0.2v-1.2z"/><path id="path468_2_" d="m80.9 147.9c0.4 0 1.1 0.2 1.1 1.1v1.2h-1v-1.4c0-0.2-0.2-0.4-0.4-0.4-0.3 0-0.4 0.2-0.4 0.4v1.4h-0.9v-2.1h0.9v0.2c0.1-0.2 0.4-0.4 0.7-0.4"/><path id="path470_2_" d="m88.5 147.9c0.4 0 1.1 0.2 1.1 1.1v1.2h-0.9v-1.4c0-0.2-0.2-0.4-0.4-0.4-0.3 0-0.4 0.2-0.4 0.4v1.4h-0.9v-2.2h0.9v0.2c0-0.1 0.3-0.3 0.6-0.3"/><path id="path472_2_" d="m85.5 149.4v0.1c0 0.4-0.2 0.5-0.4 0.5-0.1 0-0.4-0.1-0.4-0.5v-0.4h1.8c0-0.7-0.6-1.2-1.4-1.2s-1.4 0.5-1.4 1.2 0.6 1.2 1.4 1.2c0.6 0 1.2-0.4 1.3-0.9h-0.9zm-0.8-0.6c0-0.2 0-0.3 0.1-0.4s0.2-0.2 0.3-0.2 0.3 0.1 0.3 0.2c0.1 0.1 0.1 0.2 0.1 0.4h-0.8z"/><path id="path474_2_" d="m95.7 147.3c0.1 0 0.2 0 0.2-0.1s-0.1-0.1-0.2-0.1h-0.1v0.2h0.1zm-0.1 0.4h-0.1v-0.7h0.3c0.2 0 0.3 0.1 0.3 0.2s-0.1 0.2-0.2 0.2l0.2 0.3h-0.1l-0.2-0.3h-0.1l-0.1 0.3z"/><path id="path476_2_" d="m95.7 147.9c0.3 0 0.5-0.2 0.5-0.5s-0.2-0.5-0.5-0.5-0.5 0.2-0.5 0.5c0 0.2 0.2 0.5 0.5 0.5m-0.6-0.6c0-0.4 0.3-0.6 0.6-0.6s0.6 0.3 0.6 0.6c0 0.4-0.3 0.6-0.6 0.6-0.3 0.1-0.6-0.2-0.6-0.6"/></g><g id="g3478"><path id="path3480" d="m125.3 79.3c4.2 0 7.7 2.4 7.7 5.3s-3.4 5.3-7.7 5.3c-4.2 0-7.7-2.4-7.7-5.3 0.1-2.9 3.5-5.3 7.7-5.3z" fill="#fff"/><g id="g3482"><g id="g3484" fill="#a58353"><path id="path3486" d="m123.7 87.8h0.2c0 0.1 0 0.1 0.1 0.2 0 0 0.1 0.1 0.2 0.1h0.2l0.1-0.1v-0.1h-0.1-0.2c-0.1 0-0.2-0.1-0.3-0.1-0.1-0.1-0.1-0.1-0.1-0.3 0-0.1 0-0.2 0.1-0.3s0.2-0.1 0.3-0.1 0.3 0 0.3 0.1c0.1 0.1 0.1 0.2 0.1 0.3h-0.2c0-0.1 0-0.1-0.1-0.1h-0.2-0.2l-0.1 0.1v0.1h0.2 0.2c0.1 0 0.2 0.1 0.3 0.1 0.1 0.1 0.1 0.2 0.1 0.3s0 0.3-0.1 0.3-0.2 0.1-0.4 0.1-0.3 0-0.4-0.1v-0.5z"/><path id="path3488" d="m125.6 87.9c0 0.1-0.1 0.2-0.1 0.3-0.1 0.1-0.2 0.1-0.3 0.1s-0.2 0-0.3-0.1-0.1-0.2-0.1-0.4 0-0.3 0.1-0.4 0.2-0.1 0.3-0.1 0.2 0 0.3 0.1 0.1 0.2 0.1 0.4v0.1l-0.6-0.1v0.2l0.1 0.1h0.1l0.1-0.1 0.3-0.1zm-0.6-0.3h0.3c0-0.1 0-0.1-0.1-0.1l-0.1-0.1s-0.1 0-0.1 0.1v0.1z"/><path id="path3490" d="m126.5 88.1v0 0.1h-0.2v-0.1l-0.1 0.1h-0.2c-0.1 0-0.2 0-0.2-0.1-0.1-0.1-0.1-0.1-0.1-0.2s0-0.2 0.1-0.2c0 0 0.1-0.1 0.3-0.1h0.1c0.1 0 0.2-0.1 0.2-0.1v-0.1h-0.1-0.1v0.1h-0.2c0-0.1 0-0.2 0.1-0.3s0.2-0.1 0.3-0.1h0.2s0.1 0 0.1 0.1c0 0 0 0.1 0.1 0.1v0.2l-0.3 0.6zm-0.2-0.3h-0.2-0.2v0.1 0.1h0.1c0.1 0 0.1 0 0.2-0.1 0.1 0.1 0.1 0 0.1-0.1z"/><path id="path3492" d="m126.7 88.2v-1.3h0.2v1.3h-0.2z"/></g></g><path id="path3494" d="m133.9 84.6 0.9 1-1.3 0.8 0.4 1.5h-1.4l-0.1 1.7-1.6-0.4-0.3 1.6-1.5-0.6-0.8 1.4-1.1-1-1 1.4-1.1-1.2-1.2 1.1-0.8-1.3-1.4 0.8-0.5-1.5-1.6 0.6-0.2-1.4-1.5 0.1 0.2-1.5h-1.5l0.3-1.6-1.2-0.6 0.9-1-0.8-1.5 1.3-0.4-0.4-1.6h1.5l0.2-1.5 1.3 0.4 0.4-1.5 1.3 0.7 0.6-1.3 1.2 0.8 0.8-1.3 1.1 1.1 1-1 0.9 1.3 1.3-0.9 0.5 1.4 1.3-0.6 0.3 1.5 1.6-0.3v1.4l1.6 0.2-0.5 1.4 1.4 0.6-0.5 1.2zm-0.9 0c0-2.9-3.4-5.3-7.7-5.3-4.2 0-7.7 2.4-7.7 5.3s3.4 5.3 7.7 5.3c4.2 0.1 7.7-2.3 7.7-5.3z" fill="#a58353"/><g id="g3496"><g id="g3498" fill="#a58353"><path id="path3500" d="m122.8 81.9c0-0.4 0.2-0.4 0.3-0.4s0.3 0.1 0.3 0.4c0 0.4-0.2 0.4-0.3 0.4s-0.3 0-0.3-0.4zm-0.3 0c0 0.6 0.4 0.7 0.6 0.7s0.6-0.1 0.6-0.7-0.4-0.7-0.6-0.7-0.6 0.1-0.6 0.7z"/><path id="path3502" d="m124.2 82.5h-0.2v-0.8h-0.1v-0.2h0.1v-0.1c0-0.2 0.1-0.3 0.3-0.3h0.1v0.2h-0.1c-0.1 0-0.1 0-0.1 0.1h0.2v0.2h-0.2v0.9z"/><path id="path3504" d="m124.7 82.5h-0.2v-0.8h-0.1v-0.2h0.1v-0.1c0-0.2 0.1-0.3 0.3-0.3h0.1v0.2h-0.1c-0.1 0-0.1 0-0.1 0.1h0.2v0.2h-0.2v0.9z"/><path id="path3506" d="m125.2 81.6v0.9h-0.2v-0.9h0.2zm0-0.1h-0.2v-0.2h0.2v0.2z"/><path id="path3508" d="m126.2 82.2c0 0.1-0.1 0.4-0.4 0.4-0.4 0-0.4-0.3-0.4-0.5 0-0.3 0.1-0.5 0.4-0.5 0.1 0 0.4 0.1 0.4 0.4h-0.2c0-0.1 0-0.2-0.2-0.2s-0.2 0.2-0.2 0.3 0 0.3 0.2 0.3c0.1 0 0.2-0.1 0.2-0.2h0.2z"/><path id="path3510" d="m126.6 81.6v0.9h-0.2v-0.9h0.2zm0-0.1h-0.2v-0.2h0.2v0.2z"/><path id="path3512" d="m127.4 82.2c0 0.1-0.1 0.2-0.2 0.2 0 0-0.1 0-0.1-0.1s0.1-0.1 0.2-0.1 0.1 0 0.2-0.1v0.1h-0.1zm0.2-0.4c0-0.2-0.2-0.3-0.4-0.3s-0.4 0-0.4 0.3h0.2c0-0.1 0-0.1 0.2-0.1 0.1 0 0.2 0 0.2 0.1s0 0.1-0.1 0.1h-0.2c-0.2 0-0.3 0.1-0.3 0.3s0.1 0.3 0.3 0.3 0.2-0.1 0.3-0.1v0.1h0.3s-0.1 0-0.1-0.1v-0.6z"/><polygon id="polygon3514" points="128 81.3 128 82.5 127.8 82.5 127.8 81.3"/></g></g><path id="path3516" d="m125.3 89.5c4 0 7.2-2.2 7.2-4.9s-3.2-4.9-7.2-4.9-7.2 2.2-7.2 4.9 3.3 4.9 7.2 4.9zm-7-4.9c0-2.6 3.1-4.7 7-4.7s7 2.1 7 4.7-3.1 4.7-7 4.7c-3.8 0.1-7-2.1-7-4.7z" fill="#a58353"/><g id="g3518"><g id="g3520" fill="#a58353"><path id="path3522" d="m129.8 86.3c0.8 0 1.5-0.7 1.5-1.5s-0.7-1.5-1.5-1.5h-9.1c-0.8 0-1.5 0.7-1.5 1.5s0.7 1.5 1.5 1.5h9.1zm-9.1-0.4c-0.6 0-1.1-0.5-1.1-1.1s0.5-1.1 1.1-1.1h9.1c0.6 0 1.1 0.5 1.1 1.1s-0.5 1.1-1.1 1.1h-9.1z"/><path id="path3524" d="m120.3 85.5v-1.4h0.4l0.6 0.9v-0.9h0.5v1.4h-0.5c0-0.1-0.6-0.9-0.6-0.9v0.9h-0.4z"/><path id="path3526" d="m123.2 84.5v0h0.2c0.4-0.1 0.5 0.1 0.6 0.1 0.2 0.1 0.1 0.6 0.1 0.9h-0.5v-0.7c0-0.1-0.1-0.2-0.2-0.2s-0.2 0-0.2 0.2v0.7h-0.5v-1h0.5z"/><polygon id="polygon3528" points="124.7 85.5 124.2 85.5 124.2 84.6 124 84.6 124 84.4 124.2 84.4 124.2 84.3 124.7 84.3 124.7 84.4 124.9 84.4 124.9 84.6 124.7 84.6"/><path id="path3530" d="m124.9 85c0-0.3 0.3-0.5 0.5-0.5h0.3c0.1 0 0.1 0 0.2 0.1s0.2 0.2 0.2 0.4h-0.8c0 0.1-0.1 0.4 0.1 0.4 0.1 0 0.1 0 0.2-0.1v-0.2h0.5c-0.1 0.3-0.4 0.4-0.6 0.4-0.1 0-0.6 0-0.6-0.5zm0.5-0.1h0.3v-0.1c0-0.1-0.1-0.1-0.2-0.1s-0.2 0.1-0.2 0.2c0.1-0.1 0.1-0.1 0.1 0z"/><path id="path3532" d="m129.2 85.2c-0.1-0.1-0.1-0.3 0-0.5l0.3-0.3c0.1 0 0.3-0.1 0.5 0 0.1 0 0.3 0.1 0.4 0.3 0.1 0.1 0.1 0.4 0 0.5s-0.2 0.2-0.3 0.2h-0.5c-0.2 0-0.3 0-0.4-0.2zm0.5 0.2c0.1 0 0.2-0.1 0.2-0.2v-0.5c0-0.1 0-0.2-0.2-0.2s-0.2 0.1-0.2 0.2v0.5c0.1 0.1 0.1 0.2 0.2 0.2z"/><path id="path3534" d="m128.9 85.5h-0.4v-0.1c-0.1 0.1-0.6 0.1-0.8-0.2 0 0-0.1-0.3 0-0.4 0.1-0.2 0.4-0.3 0.5-0.3s0.2 0.1 0.2 0.1v-0.5h0.4c0.1-0.1 0.1 1.4 0.1 1.4zm-0.4-0.2v-0.5-0.1l-0.1-0.1c-0.1 0-0.1 0.1-0.1 0.1v0.4s0 0.1 0.1 0.1c0 0.2 0.1 0.1 0.1 0.1z"/><polygon id="polygon3536" points="122 85.5 122.5 85.5 122.5 84.5 122 84.5"/><polygon id="polygon3538" points="122 84.4 122.5 84.4 122.5 84.1 122 84.1"/><path id="path3540" d="m126.7 84.5c0.1 0.1 0.1 0.1 0 0h0.2c0.4-0.1 0.5 0.1 0.6 0.1 0.2 0.1 0.1 0.6 0.1 0.9h-0.5v-0.7c0-0.1-0.1-0.2-0.2-0.2s-0.2 0-0.2 0.2v0.7h-0.4v-1h0.4z"/><path id="path3542" d="m130.1 84.4v-0.1h0.1 0.1c-0.1 0-0.1 0-0.2 0.1zm0-0.1c0.1 0 0.1 0 0 0 0.1 0 0.1 0 0 0zm0 0.1c-0.1 0-0.1 0-0.1-0.1s0.1-0.1 0.1-0.1c0.1 0 0.1 0 0.1 0.1 0.1 0.1 0 0.1-0.1 0.1zm0-0.2c-0.1 0-0.1 0-0.1 0.1s0 0.1 0.1 0.1 0.1 0 0.1-0.1 0-0.1-0.1-0.1z"/></g></g></g><g id="g3544"><rect id="rect3546" x="145.7" y="76.3" width="11.7" height="16.8" fill="#010101"/><rect id="rect3548" x="146.3" y="79.1" width="10.5" height="10.4" fill="#fff"/><path id="path3550" d="m146.8 90.5c0 0.2-0.1 0.4-0.3 0.4-0.3 0-0.3-0.2-0.3-0.4v-0.1c0-0.2 0-0.4 0.3-0.4 0.2 0 0.3 0.1 0.3 0.2v0.1h-0.2c0-0.1 0-0.2-0.1-0.2s-0.1 0.2-0.1 0.2v0.3c0 0.1 0 0.2 0.1 0.2s0.1-0.2 0.1-0.2h0.2v-0.1z" fill="#fff"/><path id="path3552" d="m147 90.3c0-0.2 0-0.4 0.3-0.4s0.3 0.2 0.3 0.4v0.1c0 0.2 0 0.4-0.3 0.4s-0.3-0.2-0.3-0.4v-0.1zm0.1 0.2c0 0.1 0 0.2 0.1 0.2s0.1-0.1 0.1-0.2v-0.2c0-0.1 0-0.2-0.1-0.2s-0.1 0.2-0.1 0.2v0.2z" fill="#fff"/><path id="path3554" d="m148.2 89.9h0.2v0.9h-0.2l-0.1-0.3c0-0.1-0.1-0.2-0.1-0.4v0.3 0.3 0.2h-0.2v-0.9h0.2l0.1 0.3c0 0.1 0.1 0.2 0.1 0.4v-0.3-0.3-0.2z" fill="#fff"/><polygon id="polygon3556" points="148.9 90 148.9 90.8 148.7 90.8 148.7 90 148.5 90 148.5 89.9 149.1 89.9 149.1 90" fill="#fff"/><polygon id="polygon3558" points="149.7 90.4 149.4 90.4 149.4 90.7 149.7 90.7 149.7 90.8 149.2 90.8 149.2 89.9 149.7 89.9 149.7 90 149.4 90 149.4 90.3 149.7 90.3" fill="#fff"/><path id="path3560" d="m150.3 89.9h0.2v0.9h-0.2l-0.1-0.3c0-0.1-0.1-0.2-0.1-0.4v0.3 0.3 0.2h-0.2v-0.9h0.2l0.1 0.3c0 0.1 0.1 0.2 0.1 0.4v-0.3-0.3-0.2z" fill="#fff"/><polygon id="polygon3562" points="151 90 151 90.8 150.8 90.8 150.8 90 150.6 90 150.6 89.9 151.2 89.9 151.2 90" fill="#fff"/><path id="path3564" d="m151.8 90.4v0.4h-0.2v-0.9h0.3c0.2 0 0.3 0.1 0.3 0.2s0 0.2-0.1 0.2c0.1 0 0.1 0.1 0.1 0.2v0.3h-0.2v-0.2c0-0.1 0-0.1-0.1-0.2h-0.1zm0-0.1h0.1c0.1 0 0.1 0 0.1-0.1s0-0.1-0.1-0.1h-0.1v0.2z" fill="#fff"/><path id="path3566" d="m152.3 90.8 0.2-0.9h0.2l0.2 0.9h-0.2v-0.2h-0.2v0.2h-0.2zm0.3-0.3h0.2v-0.3-0.1-0.1 0.1 0.1l-0.2 0.3z" fill="#fff"/><polygon id="polygon3568" points="153.4 90 153.4 90.8 153.2 90.8 153.2 90 153 90 153 89.9 153.6 89.9 153.6 90" fill="#fff"/><polygon id="polygon3570" points="154.2 90.4 153.9 90.4 153.9 90.7 154.2 90.7 154.2 90.8 153.7 90.8 153.7 89.9 154.2 89.9 154.2 90 153.9 90 153.9 90.3 154.2 90.3" fill="#fff"/><path id="path3572" d="m154.4 90.8v-0.9h0.4s0.1 0 0.2 0.1c0 0.1 0.1 0.2 0.1 0.3 0 0.2 0 0.4-0.1 0.5h-0.1-0.5zm0.3-0.1c0.2 0 0.2-0.1 0.2-0.4 0-0.2 0-0.3-0.1-0.3h-0.1v0.7z" fill="#fff"/><path id="path3574" d="m155.5 90.8v-0.9h0.3c0.1 0 0.2 0 0.2 0.1v0.2c0 0.1 0 0.2-0.1 0.2 0.1 0 0.1 0.1 0.1 0.2v0.1c0 0.1-0.1 0.2-0.2 0.2l-0.3-0.1zm0.2-0.1h0.1l0.1-0.1c0-0.1 0-0.1-0.1-0.1h-0.1v0.2zm0-0.4h0.1v-0.1c0-0.1 0-0.1-0.1-0.1h-0.1l0.1 0.2z" fill="#fff"/><path id="path3576" d="m156.4 90.1v0.1c0-0.1 0-0.1 0.1-0.2l0.1-0.2h0.2l-0.3 0.5v0.4h-0.2v-0.4l-0.3-0.5h0.2l0.2 0.3z" fill="#fff"/><polygon id="polygon3578" points="148 91.9 147.1 91.9 147.1 92.2 148.3 92.2 148.3 92.5 146.3 92.5 146.3 91.1 148.2 91.1 148.2 91.4 147.1 91.4 147.1 91.6 148 91.6" fill="#fff"/><path id="path3580" d="m150.2 91.5-0.1-0.1h-0.2c-0.2 0-0.2 0-0.2 0.1 0 0.2 1.4 0.1 1.4 0.6 0 0.3-0.5 0.5-1.1 0.5s-1-0.2-1.1-0.5h0.8l0.1 0.1h0.2c0.2 0 0.3 0 0.3-0.1 0-0.2-1.4-0.1-1.4-0.6 0-0.3 0.4-0.4 1-0.4 0.7 0 1 0.2 1 0.4h-0.7z" fill="#fff"/><path id="path3582" d="m152.5 92v0.5h-0.8v-1.4h1.1c0.8 0 1.1 0.1 1.1 0.4 0 0.2-0.1 0.3-0.4 0.3 0.3 0.1 0.4 0.1 0.4 0.4 0 0.2 0 0.2 0.1 0.2h-0.8v-0.2c0-0.2-0.1-0.2-0.4-0.2h-0.3zm0-0.3h0.3c0.2 0 0.4 0 0.4-0.1s-0.1-0.1-0.3-0.1h-0.4v0.2z" fill="#fff"/><path id="path3584" d="m154.6 92.5v-1.4h1.1c0.5 0 1 0.1 1 0.3 0 0.1-0.2 0.2-0.3 0.3 0.3 0 0.4 0.2 0.4 0.3 0 0.3-0.4 0.4-1 0.4l-1.2 0.1zm0.8-0.6v0.3h0.3c0.2 0 0.3 0 0.3-0.1s-0.2-0.1-0.4-0.1h-0.2v-0.1zm0-0.5v0.2h0.3c0.2 0 0.3 0 0.3-0.1s-0.2-0.1-0.3-0.1h-0.3z" fill="#fff"/><path id="path3586" d="m146.6 80c0-0.3 0.3-0.5 0.6-0.5s0.6 0.2 0.6 0.5-0.3 0.6-0.6 0.6c-0.3-0.1-0.6-0.3-0.6-0.6m1.1 0c0-0.2-0.2-0.5-0.5-0.5s-0.5 0.2-0.5 0.5 0.2 0.5 0.5 0.5 0.5-0.3 0.5-0.5m-0.6 0v0.3h-0.1v-0.6h0.2c0.1 0 0.3 0 0.3 0.2 0 0.1 0 0.1-0.1 0.2 0.1 0 0.1 0.1 0.1 0.1v0.2h-0.1v-0.1-0.1c-0.2-0.2-0.2-0.2-0.3-0.2m0.1-0.1c0.1 0 0.1 0 0.1-0.1 0 0 0-0.1-0.1-0.1h-0.1v0.2h0.1z" fill="#010101"/><polygon id="polygon3588" points="156.8 76.9 155.9 76.9 155.9 78.6 156.8 78.6 156.8 78.2 156.3 78.2 156.3 77.9 156.8 77.9 156.8 77.5 156.3 77.5 156.3 77.2 156.8 77.2" fill="#fff"/><polygon id="polygon3590" points="154.8 77.6 155.1 78.6 155.6 78.6 155.6 76.9 155.1 76.9 155.2 77.8 155.2 77.8 154.9 76.9 154.4 76.9 154.4 78.6 154.8 78.6" fill="#fff"/><path id="path3592" d="m153.6 76.9c-0.4 0-0.6 0.2-0.6 0.5v0.6c0 0.4 0.1 0.6 0.6 0.6 0.4 0 0.6-0.2 0.6-0.6v-0.7c0-0.3-0.2-0.4-0.6-0.4m0.1 1.2c0 0.1 0 0.2-0.1 0.2s-0.2-0.1-0.2-0.2v-0.7c0-0.1 0-0.2 0.2-0.2 0.1 0 0.1 0.1 0.1 0.2v0.7z" fill="#fff"/><polygon id="polygon3594" points="152.4 76.9 152.2 77.4 152.2 77.4 152 76.9 151.5 76.9 152 77.9 152 78.6 152.4 78.6 152.4 77.9 152.8 76.9" fill="#fff"/><path id="path3596" d="m151.4 78c0-0.1-0.1-0.2-0.2-0.2 0.2-0.1 0.2-0.2 0.2-0.4 0-0.3-0.2-0.5-0.5-0.5h-0.6v1.7h0.4v-0.7h0.1c0.1 0 0.1 0.1 0.1 0.2v0.4 0.1h0.5v-0.1-0.5m-0.6-0.4h-0.1v-0.4c0.2 0 0.3 0 0.3 0.2 0 0.1-0.1 0.2-0.2 0.2" fill="#fff"/><polygon id="polygon3598" points="149 76.9 149 78.6 150 78.6 150 78.2 149.4 78.2 149.4 77.9 150 77.9 150 77.5 149.4 77.5 149.4 77.2 150 77.2 150 76.9" fill="#fff"/><polygon id="polygon3600" points="147.5 76.9 147.9 78.6 148.4 78.6 148.8 76.9 148.4 76.9 148.1 78.1 148.1 78.1 147.9 76.9" fill="#fff"/><polygon id="polygon3602" points="146.3 76.9 146.3 78.6 147.3 78.6 147.3 78.2 146.7 78.2 146.7 77.9 147.3 77.9 147.3 77.5 146.7 77.5 146.7 77.2 147.3 77.2 147.3 76.9" fill="#fff"/><polygon id="polygon3604" points="151.6 85.4 151.8 86.3 155.6 85.4 156.2 87.5 149.8 89.1 147.5 81.1 153.9 79.4 154.5 81.5 150.7 82.5 151 83.3 154.8 82.4 155.4 84.5" fill="#010101"/></g><g id="g3606"><rect id="rect3608" x="136.5" y="97.8" width="20.9" height="7.8" fill="none"/><path id="path3610" d="m156.7 98.3-0.8 1.4-0.7-1.4h-0.7c0.1 0.2 1 1.9 1 1.9v1.1h0.7v-1.1s0.9-1.7 1.1-1.9h-0.6z" fill="#010101"/><rect id="rect3612" x="136.5" y="97.8" width="20.9" height="7.8" fill="none"/><path id="path3614" d="m136.5 101.7h5.6v-3.9h-5.6v3.9zm1.3-0.5h-0.6v-2.9h0.6c0.7 0 1.2 0.7 1.2 1.4 0 0.9-0.5 1.5-1.2 1.5m3.6 0h-0.6c-0.7 0-1.2-0.6-1.2-1.4s0.6-1.4 1.2-1.4h0.6v2.8z" fill="#010101"/><rect id="rect3616" x="136.5" y="97.8" width="20.9" height="7.8" fill="none"/><path id="path3618" d="m148.5 100.2c0 0.5-0.2 0.7-0.7 0.7s-0.7-0.1-0.7-0.7v-0.9c0-0.5 0.2-0.6 0.7-0.6s0.7 0.1 0.7 0.6v0.9zm0.3-1.8c-0.2-0.1-0.6-0.2-1-0.2s-0.8 0.1-1 0.2c-0.3 0.2-0.4 0.4-0.4 0.9v1c0 0.4 0.1 0.7 0.4 0.9 0.2 0.1 0.5 0.2 1 0.2s0.8-0.1 1-0.2c0.3-0.2 0.4-0.5 0.4-0.9v-1c0-0.4-0.1-0.7-0.4-0.9" fill="#010101"/><rect id="rect3620" x="136.5" y="97.8" width="20.9" height="7.8" fill="none"/><path id="path3622" d="m145.3 100.2c0 0.5-0.3 0.7-0.5 0.7h-0.8v-2.1h0.8c0.2 0 0.5 0.1 0.5 0.6v0.8zm-0.5-1.9h-1.5v3h1.6c0.8 0 1.1-0.3 1.1-1.2v-0.7c0-0.8-0.4-1.1-1.2-1.1" fill="#010101"/><rect id="rect3624" x="136.5" y="97.8" width="20.9" height="7.8" fill="none"/><polygon id="polygon3626" points="149.7 98.3 149.7 101.3 151.7 101.3 151.7 100.8 150.4 100.8 150.4 98.3" fill="#010101"/><rect id="rect3628" x="136.5" y="97.8" width="20.9" height="7.8" fill="none"/><path id="path3630" d="m157.3 101c0 0.1-0.1 0.2-0.2 0.2s-0.2-0.1-0.2-0.2 0.1-0.2 0.2-0.2 0.2 0.1 0.2 0.2m-0.5 0c0 0.2 0.1 0.3 0.3 0.3s0.3-0.1 0.3-0.3-0.1-0.3-0.3-0.3-0.3 0.1-0.3 0.3m0.2-0.1h0.1s0 0.1-0.1 0.1v-0.1zm0 0.1 0.1 0.1h0.1l-0.1-0.1s0.1 0 0.1-0.1 0-0.1-0.1-0.1h-0.1v0.3h0.1l-0.1-0.1z" fill="#010101"/><rect id="rect3632" x="136.5" y="97.8" width="20.9" height="7.8" fill="none"/><path id="path3634" d="m153.7 99.7c0.5 0 0.7-0.3 0.7-0.7 0-0.3-0.1-0.5-0.3-0.6-0.1-0.1-0.3-0.1-0.6-0.1h-1.5v3h1.4c0.4 0 0.6-0.1 0.7-0.1 0.1-0.1 0.3-0.3 0.3-0.7 0.1-0.4 0-0.8-0.7-0.8m-0.4 1.2h-0.6v-2.1h0.7c0.2 0 0.4 0.2 0.4 0.4 0 0.4-0.2 0.4-0.7 0.4v0.4c0.5 0 0.8 0 0.8 0.5 0 0.1-0.2 0.4-0.6 0.4" fill="#010101"/><rect id="rect3636" x="136.5" y="97.8" width="20.9" height="7.8" fill="none"/><rect id="rect3638" x="136.5" y="97.8" width="20.9" height="7.8" fill="none"/><path id="path3640" d="m141.3 104.3c0 0.1 0 0.1-0.1 0.1l-0.1 0.1h-0.2-0.6v0.6h-0.4v-1.9h1c0.2 0 0.3 0 0.4 0.1s0.1 0.2 0.1 0.4v0.3c0 0.2-0.1 0.2-0.1 0.3m-0.3-0.6v-0.1h-0.1-0.5v0.7h0.5 0.1v-0.1-0.5z" fill="#010101"/><path id="path3642" d="m142.7 105.1-0.4-0.6h-0.2v0.6h-0.4v-1.8h1 0.2c0.1 0 0.1 0.1 0.1 0.1l0.1 0.1v0.2 0.2 0.2c0 0.1 0 0.1-0.1 0.1l-0.1 0.1h-0.2-0.1l0.5 0.7-0.4 0.1zm0.1-1.3v-0.1h-0.1-0.5v0.6h0.5c0.1 0 0.2-0.1 0.2-0.2v-0.3z" fill="#010101"/><path id="path3644" d="m145 104.9c0 0.1-0.1 0.1-0.1 0.2 0 0-0.1 0.1-0.2 0.1h-0.2-0.5-0.2c-0.1 0-0.1 0-0.2-0.1 0 0-0.1-0.1-0.1-0.2v-0.2-1-0.2c0-0.1 0.1-0.1 0.1-0.1s0.1-0.1 0.2-0.1h0.2 0.5c0.2 0 0.3 0 0.4 0.1s0.1 0.2 0.1 0.4v1 0.1m-0.4-1.2v-0.1h-0.1-0.5-0.1v0.1 1 0.1h0.1 0.4 0.1v-0.1l0.1-1z" fill="#010101"/><polygon id="polygon3646" points="146 103.2 146.4 103.2 146.4 104.9 147.2 104.9 147.2 105.2 146 105.2" fill="#010101"/><path id="path3648" d="m149.1 105c0 0.1-0.1 0.1-0.1 0.2 0 0-0.1 0.1-0.2 0.1h-0.2-0.5-0.2c-0.1 0-0.1 0-0.2-0.1 0 0-0.1-0.1-0.1-0.2v-0.2-1-0.2c0-0.1 0.1-0.1 0.1-0.1s0.1-0.1 0.2-0.1h0.2 0.5c0.2 0 0.3 0 0.4 0.1s0.1 0.2 0.1 0.4v1 0.1m-0.4-1.3v-0.1h-0.1-0.5-0.1v0.1 1 0.1h0.1 0.4 0.1v-0.1l0.1-1z" fill="#010101"/><path id="path3650" d="m150.6 105.2v-0.1 0.1c-0.1-0.1-0.2 0-0.2 0h-0.1-0.2-0.2-0.2c-0.1 0-0.1 0-0.2-0.1 0 0-0.1-0.1-0.1-0.2v-0.2-0.9c0-0.1 0-0.2 0.1-0.3 0-0.1 0.1-0.1 0.1-0.1 0.1 0 0.1 0 0.2-0.1h0.2 0.5 0.2c0.1 0 0.1 0 0.2 0.1v0.2h-0.9-0.1v0.1 1 0.1h0.1 0.3 0.1 0.1 0.1 0.1v-0.4h-0.4v-0.3h0.8v1.1h-0.5z" fill="#010101"/><rect id="rect3652" x="151.3" y="103.3" width=".4" height="1.9" fill="#010101"/><path id="path3654" d="m153.4 105.2h-0.1-0.1-0.1-0.4c-0.2 0-0.3 0-0.4-0.1s-0.1-0.2-0.1-0.4v-1-0.2c0-0.1 0.1-0.1 0.1-0.2 0 0 0.1-0.1 0.2-0.1h0.2 0.4 0.2c0.1 0 0.1 0 0.2 0.1v0.2h-0.8-0.1v0.1 1 0.1h0.1 0.8l-0.1 0.5v0" fill="#010101"/><rect id="rect3656" x="154.4" y="103.3" width=".4" height="1.9" fill="#010101"/><rect id="rect3658" x="155.2" y="103.3" width=".4" height="1.9" fill="#010101"/><path id="path3660" d="m157.2 105.1v-2.5h-20.6s-0.1 0-0.1-0.1c0 0 0-0.1 0.1-0.1h20.7 0.1v0.1 2.6s-0.1 0.1-0.2 0c0.1 0.1 0 0 0 0" fill="#010101"/></g></g></svg>
