<?xml version="1.0" encoding="UTF-8"?>
<!-- Created with Inkscape (http://www.inkscape.org/) -->
<svg id="svg3786" width="1035.7" height="376.95" version="1.1" xmlns="http://www.w3.org/2000/svg" xmlns:cc="http://creativecommons.org/ns#" xmlns:dc="http://purl.org/dc/elements/1.1/" xmlns:rdf="http://www.w3.org/1999/02/22-rdf-syntax-ns#">
 <defs id="defs3788">
  <clipPath id="clipPath16">
   <path id="path18" d="m0 792h612v-792h-612v792z"/>
  </clipPath>
  <clipPath id="clipPath342">
   <path id="path344" d="m0 792h612v-792h-612v792z"/>
  </clipPath>
 </defs>
 <metadata id="metadata3791">
  <rdf:RDF>
   <cc:Work rdf:about="">
    <dc:format>image/svg+xml</dc:format>
    <dc:type rdf:resource="http://purl.org/dc/dcmitype/StillImage"/>
    <dc:title/>
   </cc:Work>
  </rdf:RDF>
 </metadata>
 <g id="layer1" transform="translate(-47.871 -343.89)">
  <g id="g12" transform="matrix(1.25 0 0 -1.25 -11.653 985.18)">
   <g id="g14" clip-path="url(#clipPath16)">
    <g id="g20" transform="translate(570.58 268.57)">
     <path id="path22" d="m0 0c-0.897-18.048-16.502-27.826-32.795-34.667-25.978-10.913-44.631-16.614-72.538-19.666-64-7-105.33 0.666-170.33 7.666-16.86 1.816-60.316-2-83.217-5.333-30.764-4.478-58.726-3.925-89.783-4.667-33.792-0.796-57.17 17.608-64.333 52.049-16.333 78.534-12.667 158.41 11.633 220.61 8.764 22.432 18.91 25.335 43.366 25.342l202.48 3.125h1.375c68.335 0 136.22-0.898 204.57-0.975 20.343-0.031 33.236-8.549 38.322-24.193l0.309-8.17 0.239-6.377 0.07-1.94 0.24-6.291 0.061-1.732 0.232-6.021 0.101-2.713 0.201-5.503 0.123-3.169 0.178-4.746 0.132-3.493c0.061-58.782 12.269-110.38 9.371-169.14" fill="#303d59"/>
    </g>
    <g id="g24" transform="translate(480.75,282.56)">
     <path id="path26" d="m0 0c-2.9-13.69-2.27-16.54-16.75-18.16-15.94-1.77-51.81-7.38-67.75-8.5-5.08-0.35-36.12-5.38-43.84-4.58-5.75 0.6-2 7.83-10 12.83-3.92 2.46-14.89 1.86-22.41 2.25-4.78 0.25-8.28-0.72-10.7-2.19-0.41-0.24-0.79-0.5-1.14-0.76-2.02-1.57-3.06-3.47-3.32-5.04-0.26-1.59-6.68-3.92-8.59-0.01-1.83 3.75-6.04 7.75-11.67 7.67-22.47-0.33-34.78 0.03-57.25-0.08-5.96-0.03-12.51 1.34-17.5-3.17-5.05-4.57-3.82-9.24-5.6-12.58-1.2-2.25-10.52-2.74-16.21-1.53-7.62 1.63-8.99 8.19-10.94 16.19-7.67 31.47-12.45 64.16-13.33 96.13-0.17 5.84-0.01 16.02-0.01 21.87-0.15 33.56 5.46 61.52 13.51 94.26 6 24.41 6.75 26.64 31.93 26.63 85.07 0 156.98-2.14 237.57-12.55 19.59-2.53 24.75-3.69 28-15.34 5.16-18.5 9.32-40.74 11.5-59.33 5.33-45.5 4.16-88.33-5.5-134.01" fill="#f5e8d1"/>
    </g>
    <g id="g28" transform="translate(68.533 306.75)">
     <path id="path30" d="m0 0c0 24.326 19.72 44.046 44.046 44.046s44.046-19.72 44.046-44.046-19.72-44.046-44.046-44.046-44.046 19.72-44.046 44.046" fill="#4f6185"/>
    </g>
    <g id="g32" transform="translate(73.822 447.95)">
     <path id="path34" d="m0 0c0 24.326 19.72 44.046 44.046 44.046s44.046-19.72 44.046-44.046-19.72-44.046-44.046-44.046-44.046 19.72-44.046 44.046" fill="#4f6185"/>
    </g>
    <g id="g36" transform="translate(554.84 313.42)">
     <path id="path38" d="m0 0c0-3.769 0.69-15.377-9.321-16.695-4.558-0.601-17.129 13.541-17.345 16.896-0.263 4.127 12.637 17.012 17.074 16.394 10.017-1.384 9.592-12.826 9.592-16.595" fill="#93a9b5"/>
    </g>
    <g id="g40" transform="translate(528.67 283.75)">
     <path id="path42" d="m0 0c-1.637-9.45-11.527-9.291-17.004-9.291-5.478 0-15.369-0.454-16.827 9.191-0.631 4.176 12.251 17.545 17.561 17.545 5.768 0 16.976-13.369 16.27-17.445" fill="#93a9b5"/>
    </g>
    <g id="g44" transform="translate(88.872 328.06)">
     <path id="path46" d="m0 0-4.122 5.926s-0.773 2.447 0 2.19l0.773-0.258s2.576-1.417 3.349-2.19 11.207-10.112 12.818-11.465c1.61-1.353 7.697-7.109 11.159-7.15 3.8-0.044 6.715 2.641 8.776 4.058s19.033 14.686 19.033 14.686 1.933 1.159 2.834 0.386c0.902-0.773-0.515-2.962-0.515-2.962s-20.531-20.032-21.352-22.061-1.371-4.186 0.096-6.763c2.12-3.724 6.137-6.952 9.131-9.855 0 0 10.08-10.66 10.837-11.562s1.546-2.576 0.515-3.349c-1.03-0.773-8.792 5.829-8.792 5.829s-13.145 10.306-14.975 11.594c-1.831 1.288-6.055 3.865-11.208 0.386-5.153-3.478-22.823-17.876-22.823-17.876s-1.975-0.711-2.49 0c-0.516 0.711 20.289 21.773 20.289 21.773s3.053 3.232 2.963 6.699c-0.097 3.724-0.064 4.122-3.027 7.343-2.963 3.22-13.269 14.621-13.269 14.621" fill="#354269"/>
    </g>
    <g id="g48" transform="translate(94.351 469.25)">
     <path id="path50" d="m0 0-4.122 5.926s-0.773 2.447 0 2.19l0.773-0.258s2.576-1.417 3.349-2.19 11.207-10.112 12.818-11.465c1.61-1.353 7.697-7.109 11.159-7.15 3.8-0.044 6.715 2.641 8.776 4.058s19.033 14.686 19.033 14.686 1.933 1.159 2.834 0.386c0.902-0.772-0.515-2.962-0.515-2.962s-20.531-20.032-21.352-22.061-1.371-4.186 0.096-6.763c2.12-3.724 6.137-6.952 9.131-9.855 0 0 10.08-10.66 10.837-11.562s1.546-2.576 0.515-3.349c-1.03-0.773-8.792 5.829-8.792 5.829s-13.145 10.306-14.975 11.594c-1.831 1.288-6.055 3.865-11.208 0.386-5.153-3.478-22.823-17.876-22.823-17.876s-1.975-0.711-2.49 0c-0.516 0.711 20.289 21.773 20.289 21.773s3.053 3.232 2.963 6.699c-0.097 3.724-0.064 4.122-3.027 7.343-2.963 3.22-13.269 14.621-13.269 14.621" fill="#354269"/>
    </g>
    <g id="g52" transform="translate(237.26 247.22)">
     <path id="path54" d="m0 0h-17.947c-3.387 0-6.157 2.771-6.157 6.157s2.77 6.157 6.157 6.157h17.947c3.386 0 6.157-2.771 6.157-6.157s-2.771-6.157-6.157-6.157" fill="#f5e8d1"/>
    </g>
    <g id="g56" transform="translate(284.05 247.22)">
     <path id="path58" d="m0 0h-17.947c-3.387 0-6.157 2.771-6.157 6.157s2.77 6.157 6.157 6.157h17.947c3.386 0 6.157-2.771 6.157-6.157s-2.771-6.157-6.157-6.157" fill="#f5e8d1"/>
    </g>
    <g id="g60" transform="translate(335.05 247.22)">
     <path id="path62" d="m0 0h-17.947c-3.387 0-6.157 2.771-6.157 6.157s2.77 6.157 6.157 6.157h17.947c3.386 0 6.157-2.771 6.157-6.157s-2.771-6.157-6.157-6.157" fill="#f36f40"/>
    </g>
    <g id="g64" transform="translate(118.7 320.13)">
     <path id="path66" d="m0 0s3.568 3.347 9.538 9.547c5.024 5.217 2.899 11.787-0.766 13.707-3.381 1.771-4.259 2.211-13.243 2.235-10.197 0.027-11.904-0.438-15.362-2.512-3.907-2.344-4.992-8.503-1.449-12.561l9.983-10.015c2.903-3.161 8.1-3.261 11.299-0.401" fill="#93a9b5"/>
    </g>
    <g id="g68" transform="translate(99.329 312.6)">
     <path id="path70" d="m0 0s-3.347 3.568-9.547 9.538c-5.217 5.024-11.787 2.899-13.707-0.766-1.771-3.381-2.211-4.259-2.235-13.243-0.027-10.197 0.438-11.904 2.512-15.362 2.344-3.907 8.503-4.992 12.561-1.449l10.015 9.983c3.161 2.903 3.261 8.1 0.401 11.299" fill="#93a9b5"/>
    </g>
    <g id="g72" transform="translate(107.11 292.72)">
     <path id="path74" d="m0 0s-3.568-3.347-9.538-9.547c-5.024-5.217-2.899-11.787 0.766-13.707 3.381-1.771 4.259-2.211 13.243-2.235 10.197-0.027 11.904 0.438 15.362 2.512 3.907 2.344 4.992 8.503 1.449 12.561l-9.983 10.015c-2.903 3.161-8.1 3.261-11.299 0.401" fill="#93a9b5"/>
    </g>
    <g id="g76" transform="translate(126.48 300.24)">
     <path id="path78" d="m0 0s3.347-3.568 9.547-9.538c5.217-5.024 11.787-2.899 13.707 0.766 1.771 3.381 2.211 4.259 2.235 13.243 0.027 10.197-0.438 11.904-2.512 15.362-2.344 3.907-8.503 4.992-12.561 1.449l-10.015-9.983c-3.161-2.903-3.261-8.1-0.401-11.299" fill="#93a9b5"/>
    </g>
    <g id="g80" transform="translate(124.27 461.49)">
     <path id="path82" d="m0 0s3.568 3.347 9.538 9.547c5.024 5.217 2.899 11.787-0.766 13.707-3.381 1.771-4.259 2.211-13.243 2.235-10.197 0.027-11.904-0.438-15.362-2.512-3.907-2.344-4.992-8.503-1.449-12.561l9.983-10.015c2.903-3.161 8.1-3.261 11.299-0.401" fill="#93a9b5"/>
    </g>
    <g id="g84" transform="translate(104.9 453.96)">
     <path id="path86" d="m0 0s-3.347 3.568-9.547 9.538c-5.217 5.024-11.787 2.899-13.707-0.766-1.771-3.381-2.211-4.259-2.235-13.243-0.027-10.197 0.438-11.904 2.512-15.362 2.344-3.907 8.503-4.992 12.561-1.449l10.015 9.983c3.161 2.903 3.261 8.1 0.401 11.299" fill="#93a9b5"/>
    </g>
    <g id="g88" transform="translate(112.68 434.08)">
     <path id="path90" d="m0 0s-3.568-3.347-9.538-9.547c-5.024-5.217-2.899-11.787 0.766-13.707 3.381-1.771 4.259-2.211 13.243-2.235 10.197-0.027 11.904 0.438 15.362 2.512 3.907 2.344 4.992 8.503 1.449 12.561l-9.983 10.015c-2.903 3.161-8.1 3.261-11.299 0.401" fill="#93a9b5"/>
    </g>
    <g id="g92" transform="translate(132.05 441.61)">
     <path id="path94" d="m0 0s3.347-3.568 9.547-9.538c5.217-5.024 11.787-2.899 13.707 0.766 1.771 3.381 2.211 4.259 2.235 13.243 0.027 10.197-0.438 11.904-2.512 15.362-2.344 3.907-8.503 4.992-12.561 1.449l-10.015-9.983c-3.161-2.903-3.261-8.1-0.401-11.299" fill="#93a9b5"/>
    </g>
    <g id="g96" transform="translate(560.23 475)">
     <path id="path98" d="m0 0-36.629 2.381c-1.098 0-2.002 0.904-2.002 2.001 0 0.549 0.224 1.052 0.587 1.407 0.364 0.363 0.866 0.588 1.415 0.588h36.389l0.24-6.377z" fill="#cbcacb"/>
    </g>
    <g id="g100" transform="translate(560.54 466.77)">
     <path id="path102" d="m0 0c-0.093-0.046-0.193-0.077-0.294-0.077l-36.644 2.38c-1.098 0-2.002 0.905-2.002 2.002 0 0.549 0.224 1.044 0.587 1.407 0.364 0.363 0.866 0.587 1.415 0.587h36.582c0.039 0 0.078 0 0.116-7e-3l0.24-6.292z" fill="#cbcacb"/>
    </g>
    <g id="g104" transform="translate(560.83 459.02)">
     <path id="path106" d="m0 0c-0.185-0.193-0.379-0.309-0.587-0.309l-36.645 2.38c-1.098 0-2.002 0.897-2.002 1.995 0 0.548 0.224 1.051 0.588 1.414 0.363 0.363 0.865 0.587 1.414 0.587h36.583c0.139 0 0.286-0.015 0.417-0.046l0.232-6.021z" fill="#cbcacb"/>
    </g>
    <g id="g108" transform="translate(561.13 450.8)">
     <path id="path110" d="m0 0c-0.263-0.441-0.564-0.727-0.889-0.727l-36.644 2.381c-1.098 0-2.002 0.904-2.002 2.002 0 0.549 0.224 1.043 0.587 1.407 0.363 0.363 0.866 0.587 1.415 0.587h36.582c0.263 0 0.518-0.054 0.75-0.147l0.201-5.503z" fill="#cbcacb"/>
    </g>
    <g id="g112" transform="translate(561.43 442.88)">
     <path id="path114" d="m0 0c-0.325-0.75-0.734-1.314-1.19-1.314l-36.645 2.381c-1.097 0-2.002 0.904-2.002 2.002 0 0.548 0.224 1.043 0.588 1.406 0.363 0.364 0.865 0.588 1.414 0.588h36.583c0.394 0 0.765-0.116 1.074-0.317l0.178-4.746z" fill="#cbcacb"/>
    </g>
    <path id="path116" d="m559.34 476.74h-7.472v3.221h7.472v-3.221z" fill="#354876"/>
    <path id="path118" d="m559.34 468.27h-7.472v3.221h7.472v-3.221z" fill="#354876"/>
    <path id="path120" d="m559.34 460.28h-7.472v3.221h7.472v-3.221z" fill="#354876"/>
    <path id="path122" d="m559.34 451.65h-7.472v3.221h7.472v-3.221z" fill="#354876"/>
    <path id="path124" d="m559.34 443.15h-7.472v3.221h7.472v-3.221z" fill="#354876"/>
    <g id="g126" transform="translate(522.95 404.84)">
     <path id="path128" d="m0 0s9.275-16.489 20.611-26.28c11.337-9.79 14.686-19.838 14.686-29.371v-40.965s0.258-30.724-25.249-39.935c-29.611-10.693-176.48-22.93-176.48-22.93s132.69 8.502 178.03 20.611c25.686 6.86 30.239 32.774 30.531 56.167 0.222 17.903-1.317 34.569-2.19 38.646-1.546 7.214-13.14 16.489-19.324 21.9-6.183 5.41-17.004 15.974-20.611 22.157" fill="#2d3442"/>
    </g>
    <g id="g130" transform="translate(203.59 495.54)">
     <path id="path132" d="m0 0c0.942 0.615 1.517 1.869 2.832 1.835 0.475-0.012 0.95-1e-3 1.484-1e-3 -0.65-2.877-1.276-5.647-1.908-8.445 1.466 0.544 1.43 0.585 1.897 2.135 0.466 1.546 0.854 3.11 1.218 4.683 0.157 0.682 1.303 1.631 1.953 1.622 0.782-0.011 1.568 0.07 2.361-0.057-0.62-2.768-1.232-5.497-1.883-8.402 1.001 0.614 1.725 1.168 1.906 2.324 0.207 1.321 0.54 2.62 0.813 3.93 0.195 0.935 1.047 1.289 1.529 1.969 0.281 0.396 0.693 0.219 1.05 0.234 0.576 0.024 1.153 7e-3 1.754 7e-3 -0.634-2.7-1.255-5.297-1.849-7.9-0.134-0.583-0.079-0.483-0.78-1.285l-0.852-0.778c-0.551-0.503-1.104-0.822-1.887-0.813-3.848 0.044-7.697 0.02-11.546 0.02 0 0.219 1.867 8.895 1.908 8.922" fill="#aa8958"/>
    </g>
    <g id="g134" transform="translate(317.33 487.11)">
     <path id="path136" d="m0 0h-3.762c0.269 1.059 0.536 2.129 0.812 3.197 0.351 1.362 0.05 1.795-1.26 1.797-0.308 1e-3 -0.616 0-0.987 0-0.308-1.129-0.6-2.269-0.933-3.395-0.372-1.262-1.168-1.896-2.378-1.862-0.692 0.018-1.416-0.181-2.087 0.149 0.289 1.492 1.691 5.96 1.869 6.645h5.683c0.684 0 1.369-0.032 2.05 8e-3 0.783 0.046 1.371-0.311 1.881-0.886 0-0.732-0.603-4.454-0.888-5.653" fill="#aa8958"/>
    </g>
    <g id="g138" transform="translate(257.35 492.09)">
     <path id="path140" d="m0 0c-2.754 0.067-3.282-0.16-3.451-1.44 2.03-0.246 2.154-0.197 3.451 1.44m3.112-0.687c0.869 0.87 1.817 1.321 2.679 1.913 0.377 0.259 0.789 0.346 1.247 0.339 1.614-0.024 3.229-0.023 4.844-2e-3 0.524 7e-3 0.976-0.104 1.432-0.405 0.791-0.52 0.99-1.135 0.469-1.926-0.313-0.474-0.735-0.831-1.285-0.996-1.015-0.302-2.01-0.335-3.004 0.048 0.036 0.195 0.043 0.265 0.062 0.332 0.113 0.407 0.633 0.749 0.194 1.245-0.218 0.247-1.14 0.17-1.543-0.014-0.926-0.421-1.198-1.305-1.359-2.207-0.173-0.972-0.554-1.873-0.692-2.845h-3.853c0.287 1.448 0.565 2.85 0.857 4.322-0.514-0.194-0.751-0.582-1.035-0.868-1.175-1.181-2.553-1.487-4.102-1.314-0.606 0.068-1.224 0.011-1.805 0.011-0.174-0.301-0.135-0.538-0.05-0.846h4.993c-0.716-0.859-1.46-1.58-2.59-1.571-1.511 0.011-3.023-5e-3 -4.535 9e-3 -0.294 2e-3 -0.574-0.013-0.886 0.138-1.008 0.488-1.428 0.751-1.006 2.208 0.314 1.085 0.405 2.248 1.29 3.035 0.59 0.525 1.224 0.994 1.822 1.508 0.252 0.217 0.526 0.12 0.786 0.122 1.924 0.012 3.848 9e-3 5.772 6e-3 1.047-2e-3 1.269-0.245 1.297-1.405 5e-3 -0.219 1e-3 -0.438 1e-3 -0.837" fill="#aa8958"/>
    </g>
    <g id="g142" transform="translate(266.44 486.71)">
     <path id="path144" d="m0 0c0.681 0.725 1.338 1.401 1.965 2.106 0.229 0.257 0.489 0.219 0.754 0.213 2.67-0.065 5.344 0.137 8.012-0.1 0.571-0.05 0.813 0.274 1.043 1.419-1.173 0-2.33 0.082-3.472-0.021-1.325-0.119-2.222 0.699-2.121 2.278 0.113 1.767 0.887 3.071 2.195 4.062 0.231 0.175 0.517 0.281 0.85 0.279 2.74-0.022 5.48-0.013 8.393-0.013-0.602-0.652-1.111-1.174-1.584-1.73-0.251-0.294-0.547-0.243-0.848-0.244-1.099-3e-3 -2.199 6e-3 -3.299-3e-3 -1.086-9e-3 -1.514-0.412-1.776-1.754 1.208 0 2.394-0.013 3.578 4e-3 0.8 0.012 1.465-0.311 1.931-0.966s0.362-1.493 0.241-2.208c-0.235-1.379-0.909-2.517-2.152-3.161-0.298-0.155-0.601-0.266-0.959-0.265-4.159 0.017-8.318 0.011-12.477 0.014-0.056 0-0.113 0.036-0.274 0.09" fill="#aa8958"/>
    </g>
    <g id="g146" transform="translate(291.52 488.64)">
     <path id="path148" d="m0 0c0.93 0.457 1.577 1.109 1.819 2.259 0.298 1.421 0.799 1.746 1.45 2.502 0.386 0.447 0.902 0.186 1.358 0.235 0.333 0.036 0.673 7e-3 1.027 7e-3 -0.146-1.583-0.698-2.973-0.853-4.454-0.075-0.719-2.2-1.949-2.59-2.397-0.17-0.195-0.363-0.171-0.562-0.171-3.673-1e-3 -7.346 1e-3 -11.019 6e-3 -0.062 0-0.124 0.051-0.232 0.098 0.239 1.555 0.605 3.097 0.916 4.642 0.184 0.909 1.096 1.435 1.72 2.093 0.36 0.381 0.845 0.137 1.272 0.176 0.371 0.034 0.748 7e-3 1.247 7e-3 -0.144-1.796-0.711-3.444-1.041-5.101 0.15-0.153 0.201-0.018 0.279 8e-3 1.463 0.479 1.589 1.832 1.789 3.122 0.163 1.049 1.141 1.969 2.149 1.971 0.652 1e-3 1.305 0 1.957-7e-3 0.064-1e-3 0.127-0.048 0.191-0.074-0.281-1.591-0.96-5.001-0.877-4.922" fill="#aa8958"/>
    </g>
    <g id="g150" transform="translate(246.17 491.98)">
     <path id="path152" d="m0 0c-0.604 0.193-1.015 0.125-1.419 0.12-0.681-9e-3 -1.488-0.396-1.731-1.362-0.18-0.719-0.495-1.645-0.222-2.51 1.499-0.144 2.378 0.08 2.949 1.555 0.228 0.591 0.423 1.445 0.423 2.197m5.555 4.076c-0.561-0.837-0.964-1.571-1.489-2.189-0.625-0.736-0.724-1.631-0.911-2.522-0.325-1.55-0.681-3.093-1.044-4.726h-4.106c-1.167 0-2.335-5e-3 -3.502 1e-3 -1.396 6e-3 -2.065 0.794-1.848 2.259 0.097 0.654 0.302 1.299 0.522 1.922 0.209 0.596 0.303 0.855 0.818 1.315 0.374 0.333 0 0 1.395 1.039 0.874 0.57 0.779 0.512 1.282 0.496 0.857-0.029 1.716 5e-3 2.574-0.013 0.497-0.011 0.861 0.066 1.226 0.608 0.852 1.264 0.548 0.833 0.852 1.264 0.17 0.24 0.347 0.551 0.716 0.548 1.118-6e-3 2.236-2e-3 3.515-2e-3" fill="#aa8958"/>
    </g>
    <g id="g154" transform="translate(221.33 488.19)">
     <path id="path156" d="m0 0c2.219 1e-3 2.99 1.582 2.939 3.854-2.097 0.359-3.394-0.715-2.939-3.854m6.35 1.363c-0.131-0.575-0.419-0.999-0.866-1.31-0.696-0.483-1.412-0.932-2.098-1.43-0.282-0.205-0.569-0.194-0.871-0.194-1.65 0-3.304-0.076-4.949 0.022-1.456 0.088-2.043 0.994-1.674 2.348 0.129 0.473 0.228 0.973 0.39 1.412 0.239 0.648 0.45 1.294 1.12 1.777 1.196 0.977 0.779 0.679 1.196 0.977 0.44 0.314 0.89 0.533 1.484 0.511 1.751-0.065 3.505-0.022 5.258-0.023 1.32-1e-3 1.906-0.799 1.512-2.156-0.095-0.329-0.423-1.586-0.502-1.934" fill="#aa8958"/>
    </g>
    <g id="g158" transform="translate(303.94 491.95)">
     <path id="path160" d="m0 0c-0.92 0.255-1.688 0.363-2.355-0.496-0.301-0.387-0.601-0.79-0.829-1.207-0.206-0.375-0.376-0.895-0.023-1.357 0.4-0.524 0.947-0.79 1.534-0.938 0.386-0.097 0.59 0.125 0.7 0.572 0.274 1.113 0.621 2.206 0.973 3.426m2.422-4.889c-2.683 0-5.388-0.011-8.093 8e-3 -0.687 4e-3 -1.437 1.021-1.511 1.879-0.164 1.902 0.695 3.146 2.169 4.072 0.723 0.453 1.444 0.658 2.286 0.641 2.33-0.044 4.662-0.015 7.017-0.015-0.101-0.622-1.421-5.136-1.868-6.585" fill="#aa8958"/>
    </g>
    <g id="g162" transform="translate(228.86 492.97)">
     <path id="path164" d="m0 0c0.191 0.523 0.371 0.683 0.842 0.681 2.44-0.011 4.881 0.029 7.32-0.023 0.952-0.02 1.641-0.587 1.608-1.706-0.041-1.381-0.489-2.644-0.763-3.956-0.057-0.271-5e-3 -0.572-0.173-0.864h-3.457c0.169 1.014 0.276 1.993 0.519 2.931 0.095 0.364 0.13 0.707 0.125 1.06-9e-3 0.679-0.291 0.984-0.916 1.012-0.477 0.021-0.955 4e-3 -1.461 4e-3 -0.273-1.119-0.513-2.211-0.809-3.285-0.353-1.278-1.286-1.981-2.541-1.983-1.791-3e-3 -1.753-0.012-1.359 1.834 0.131 0.615 0.771 3.491 1.065 4.295" fill="#aa8958"/>
    </g>
    <g id="g166" transform="translate(255.8 265.97)">
     <path id="path168" d="m 0,0 -21.205,21.257 0.831,0.829 L 1.721,-0.041 0,0 Z" fill="#aa8958"/>
    </g>
    <g id="g170" transform="translate(210.68 263.6)">
     <path id="path172" d="m 0,0 -22.66,22.715 1.016,1.013 L 1.016,1.013 0,0 Z" fill="#aa8958"/>
    </g>
    <g id="g174" transform="translate(309.3,264.21)">
     <path id="path176" d="m0 0c-0.41-0.24-0.79-0.5-1.14-0.76l-23.37 23.42 0.94 0.93 23.57-23.59z" fill="#43426f"/>
    </g>
    <g id="g178" transform="translate(194.9 282.91)">
     <path id="path180" d="m0 0c-0.655 0.658-0.754 1.576-0.132 2.316l0.72-0.723c-0.272-0.331-0.252-0.644 0.055-0.952 0.297-0.299 0.684-0.326 0.943-0.069 0.146 0.145 0.222 0.342 0.194 0.536-0.028 0.193-0.054 0.249-0.367 0.924-0.318 0.68-0.249 1.303 0.204 1.754 0.57 0.568 1.507 0.534 2.106-0.068 0.6-0.602 0.678-1.461 0.08-2.127l-0.715 0.718c0.223 0.263 0.218 0.541-0.013 0.773-0.227 0.228-0.534 0.234-0.748 0.021-0.132-0.131-0.174-0.314-0.12-0.533 0.021-0.079 0.026-0.095 0.252-0.575 0.482-1.03 0.372-1.553-0.115-2.038-0.653-0.651-1.674-0.63-2.344 0.043" fill="#aa8958"/>
    </g>
    <g id="g182" transform="translate(201.41 282.54)">
     <path id="path184" d="m0 0c-0.715 0.718-1.785 0.74-2.482 0.046-0.683-0.679-0.665-1.769 0.04-2.477 0.706-0.709 1.751-0.715 2.443-0.026s0.689 1.764-1e-3 2.457m-3.08-3.077c-1.093 1.097-1.135 2.787-0.097 3.821 1.052 1.048 2.722 0.999 3.831-0.114 1.062-1.067 1.08-2.751 0.052-3.775-1.053-1.049-2.703-1.02-3.786 0.068" fill="#aa8958"/>
    </g>
    <g id="g186" transform="translate(202.04 275.73)">
     <path id="path188" d="m0 0c-0.73 0.733-0.786 1.725 0.13 2.638l2.281 2.271 0.69-0.693-2.281-2.271c-0.56-0.558-0.524-0.955-0.172-1.309 0.343-0.344 0.74-0.392 1.305 0.171l2.281 2.271 0.69-0.693-2.281-2.271c-0.921-0.917-1.908-0.852-2.643-0.114" fill="#aa8958"/>
    </g>
    <g id="g190" transform="translate(206.32 271.57)">
     <path id="path192" d="M 0,0 1.061,4.169 -1.556,1.563 -2.246,2.256 1.355,5.842 2.141,5.053 1.06,0.895 3.682,3.506 4.372,2.813 0.771,-0.774 0,0 Z" fill="#aa8958"/>
    </g>
    <g id="g194" transform="translate(212.33 271.16)">
     <path id="path196" d="m0 0c-0.109 0.324-0.307 0.601-0.745 1.041l-0.136 0.136-2.325-2.315 0.151-0.152c0.413-0.414 0.749-0.654 1.068-0.75 0.507-0.159 1.099 0.017 1.533 0.449 0.463 0.461 0.631 1.062 0.454 1.591m-2.265-2.96c-0.448 0.158-0.839 0.443-1.403 1.009l-0.866 0.87 3.601 3.587 0.851-0.855c0.585-0.586 0.94-1.119 1.062-1.582 0.216-0.822-0.057-1.678-0.739-2.358-0.726-0.723-1.658-0.976-2.506-0.671" fill="#aa8958"/>
    </g>
    <g id="g198" transform="translate(460.55 291.75)">
     <path id="path200" d="m0 0-266.2-0.592c-2.778 0-4.562 0.663-5.099 4.667-1.592 11.888-3.75 23.833-5.916 44.12-2.085 19.527-1.389 60.638 1.416 82.426 2.806 21.787 4.063 25.848 7.563 37.975 1.004 3.479 1.91 5.437 4.687 5.437h257.25c2.778 0 4.782-0.875 6.558-4.625s5.919-24.887 7.692-41.75c1.774-16.862 3.823-41.746 3.75-60.75 0 0-0.625-38.635-6.666-61.878-1.387-5.334-2.252-5.03-5.03-5.03" fill="#a18b68"/>
    </g>
    <g id="g202" transform="translate(452.75 299.24)">
     <path id="path204" d="m0 0h-251.72c-0.642 0-1.167 0.525-1.167 1.167v158.71c0 0.641 0.525 1.166 1.167 1.166h251.72c0.642 0 1.167-0.525 1.167-1.166v-158.71c0-0.642-0.525-1.167-1.167-1.167" fill="#312f36"/>
    </g>
    <g id="g206" transform="translate(268.16 472.04)">
     <path id="path208" d="m0 0c0.054-0.627-0.244-1.02-0.788-1.432-0.984-0.747-2.083-0.689-3.205-0.659-1.011 0.028-1.964 0.305-2.81 0.79-0.509 0.293-0.774 0.769-0.795 1.386-0.057 1.656 0.45 3.216 0.875 4.789 0.444 1.648 0.926 3.289 1.441 4.92 0.307 0.972 0.886 1.807 1.694 2.522 0.615 0.544 1.234 0.428 1.882 0.149 0.593-0.256 0.976-0.603 0.981-1.312 7e-3 -1.122-0.442-2.124-0.81-3.141-0.759-2.098-1.402-4.224-2.012-6.359-0.352-1.232 0.374-1.824 1.756-1.529 0.595 0.127 1.261 0.52 1.804-0.136l-0.013 0.012z" fill="#4692b7"/>
    </g>
    <g id="g210" transform="translate(249.95 469.6)">
     <path id="path212" d="m0 0c-0.086 0.225-0.299 0.162-0.477 0.174-1.759 0.118-3.325 1.368-3.53 3.199-0.118 1.062-0.026 2.085 0.206 3.112 0.399 1.77 1.78 2.683 3.488 3.264 0.573 0.195 1.17 0.384 1.807 0.365 0.733-0.023 0.934-0.23 0.695-0.851-0.319-0.83-0.724-1.631-1.042-2.461-0.318-0.832-0.564-1.676-0.593-2.579-0.038-1.21 0.582-1.921 1.609-2.254 1.123-0.364 2.481 0.098 3.159 0.996 0.385 0.511 0.466 1.08 0.606 1.67 0.177 0.745-0.068 1.388-0.194 2.075-0.122 0.665-0.515 1.072-1.182 1.321-0.273 0.102-0.619 0.159-0.753 0.542 1.349 0.863 2.872 1.167 4.48 0.985 0.623-0.07 1.227-0.385 1.514-1.024 0.39-0.865 0.626-1.728 0.337-2.666-0.093-0.299-0.059-0.63-0.139-0.934-0.552-2.081-2.163-3.271-4.189-4.047-1.115-0.428-2.285-0.739-3.52-0.727-0.107 1e-3 -0.157-0.079-0.194-0.16h-2.088z" fill="#4692b7"/>
    </g>
    <g id="g214" transform="translate(272.15 469.6)">
     <path id="path216" d="m0 0c-0.28 0.35-0.702 0.112-1.049 0.211-1.16 0.328-2.068 0.933-2.675 1.907-0.074 0.118-0.079 0.289-0.272 0.325l0.013-0.012c-0.186 0.822-0.236 1.654-0.19 2.49 0.132 2.397 1.464 4.206 3.942 4.897 0.529 0.147 1.073 0.282 1.64 0.297 0.479 0.012 0.661-0.184 0.689-0.623 0.045-0.685-0.418-1.203-0.679-1.765-0.505-1.092-0.77-2.227-1.014-3.372-0.191-0.896 0.585-2.004 1.564-2.287 1.883-0.543 3.642 0.274 3.894 2.513 0.066 0.585 0.04 1.187-0.104 1.8-0.235 0.993-0.79 1.591-1.836 1.846-0.083 0.021-0.148 0.099-0.273 0.187 0.128 0.235 0.324 0.372 0.576 0.499 1.196 0.602 2.484 0.77 3.814 0.663 0.931-0.074 1.943-0.942 1.988-1.814 0.044-0.882 0.089-1.768-0.107-2.669-0.385-1.774-1.638-2.859-3.198-3.727-1.354-0.754-2.842-1.157-4.436-1.192-0.159-3e-3 -0.316-8e-3 -0.389-0.174h-1.898z" fill="#4692b7"/>
    </g>
    <g id="g218" transform="translate(237.94 469.74)">
     <path id="path220" d="m0 0c-2.648 0.031-4.738 0.59-6.343 2.175-1.083 1.068-1.633 2.366-1.804 3.855-0.186 1.614 0.153 3.056 1.192 4.327 0.872 1.066 1.991 1.907 3.282 2.538 1.538 0.753 3.137 1.367 4.849 1.688 1.569 0.295 3.139 0.393 4.747 0.137 0.726-0.116 1.487-0.141 2.233-0.208 0.424-0.039 0.695-0.176 0.591-0.587-0.294-1.162-0.307-2.366-0.699-3.52-0.161-0.472-0.388-0.902-0.623-1.329-0.268-0.488-1.009-0.489-1.286-6e-3 -0.302 0.527-0.559 1.083-0.759 1.65-0.107 0.305-0.241 0.607-0.424 0.85-0.611 0.81-1.288 1.128-2.372 0.907-2.593-0.529-4.03-2.164-5.128-4.156-0.476-0.861-0.736-1.815-0.644-2.821 0.13-1.411 0.892-2.734 2.454-3.107 0.596-0.142 1.148-0.061 1.744 0.05 1.361 0.254 2.536 0.757 3.451 1.733 0.484 0.516 1.199 0.559 1.844 0.724 0.312 0.079 0.518-0.113 0.572-0.433 0.182-1.077-0.26-1.963-1.15-2.583-1.364-0.95-3.984-2.051-5.727-1.884" fill="#4692b7"/>
    </g>
    <g id="g222" transform="translate(293.89 474.07)">
     <path id="path224" d="m0 0c-0.4 0.274-0.451 0.578-0.63 0.809-0.582 0.75-1.3 0.996-2.27 0.752-1.729-0.435-2.794-1.552-3.587-2.947-0.276-0.484-0.523-0.983-0.809-1.462-0.507-0.845-1.891-1.296-2.776-0.867-0.343 0.167-0.661 0.425-0.664 0.879-5e-3 0.752 0.025 1.49 0.297 2.211 0.489 1.296 0.939 2.6 1.256 3.945 0.103 0.437 0.366 0.861 0.64 1.24 0.492 0.68 2.438 0.809 3.001 0.21 0.457-0.486 0.348-1.084 0.265-1.656-0.019-0.132-0.164-0.249 0.028-0.452 2.06 1.605 4.158 3.196 7.272 2.937-0.186-2.043-1.18-3.755-2.023-5.599" fill="#4692b7"/>
    </g>
    <g id="g226" transform="translate(241.7 284.34)">
     <path id="path228" d="m0 0c0.101-0.399 0.343-0.887 0.729-1.27 0.572-0.568 1.197-0.606 1.62-0.18 0.391 0.394 0.383 0.848 0.016 1.648-0.465 0.945-0.548 1.735 0.042 2.329 0.652 0.657 1.695 0.59 2.537-0.246 0.443-0.44 0.665-0.859 0.752-1.156l-0.595-0.291c-0.067 0.215-0.231 0.627-0.623 1.016-0.591 0.587-1.158 0.466-1.443 0.179-0.391-0.394-0.321-0.85 0.053-1.668 0.459-1.002 0.49-1.716-0.124-2.335-0.646-0.651-1.7-0.722-2.721 0.292-0.417 0.414-0.755 0.986-0.837 1.366l0.594 0.316z" fill="#aa8958"/>
    </g>
    <g id="g230" transform="translate(248.84 283.39)">
     <path id="path232" d="m0 0-1.317 1.308 0.46 0.462 3.205-3.182-0.46-0.463-1.323 1.314-3.725-3.752-0.565 0.561 3.725 3.752z" fill="#aa8958"/>
    </g>
    <g id="g234" transform="translate(250.86 277.4)">
     <path id="path236" d="m0 0 0.781 1.634c0.177 0.371 0.361 0.685 0.539 0.992l-0.013 0.013c-0.313-0.186-0.638-0.372-0.976-0.546l-1.635-0.798 1.304-1.295zm-1.842 0.984-1.765-0.879-0.579 0.574 5.656 2.754 0.675-0.669-2.708-5.682-0.597 0.593 0.853 1.785-1.535 1.524z" fill="#aa8958"/>
    </g>
    <g id="g238" transform="translate(253.72 275.54)">
     <path id="path240" d="m0 0 0.572-0.568c0.597-0.593 1.293-0.65 1.771-0.168 0.54 0.544 0.371 1.183-0.214 1.776-0.269 0.268-0.487 0.434-0.601 0.499l-1.528-1.539zm1.347 2.475c0.339-0.224 0.775-0.595 1.16-0.978 0.597-0.593 0.877-1.082 0.911-1.587 0.032-0.405-0.131-0.814-0.454-1.139-0.553-0.556-1.279-0.568-1.884-0.266l-0.018-0.018c0.222-0.444 0.123-0.942-0.209-1.482-0.442-0.728-0.743-1.237-0.815-1.489l-0.578 0.574c0.048 0.189 0.311 0.648 0.711 1.294 0.449 0.709 0.435 1.158-0.054 1.68l-0.527 0.523-1.813-1.826-0.559 0.555 4.129 4.159z" fill="#aa8958"/>
    </g>
    <g id="g242" transform="translate(259 273.3)">
     <path id="path244" d="m0 0-1.317 1.308 0.46 0.463 3.205-3.183-0.46-0.463-1.323 1.314-3.725-3.752-0.565 0.561 3.725 3.752z" fill="#aa8958"/>
    </g>
    <g id="g246" transform="translate(294.64 286.82)">
     <path id="path248" d="m0 0c0.085-0.148 0.218-0.31 0.394-0.491 0.638-0.656 1.338-0.754 1.905-0.203 0.543 0.528 0.422 1.176-0.161 1.776-0.231 0.238-0.425 0.401-0.54 0.471l-1.598-1.553zm1.453 2.47c0.298-0.221 0.669-0.529 1.094-0.967 0.522-0.537 0.783-1.049 0.806-1.512 0.03-0.421-0.135-0.849-0.501-1.205-0.372-0.361-0.774-0.533-1.194-0.528-0.578-3e-3 -1.186 0.317-1.702 0.848-0.158 0.163-0.298 0.319-0.389 0.473l-1.646-1.6-0.529 0.543 4.061 3.948z" fill="#43426f"/>
    </g>
    <g id="g250" transform="translate(297.62 283.65)">
     <path id="path252" d="m0 0c-0.878-0.853-1.191-2.105-0.359-2.961 0.838-0.862 2.086-0.597 3.019 0.31 0.817 0.794 1.246 2.061 0.365 2.967-0.874 0.9-2.122 0.561-3.025-0.316m3.243-3.203c-1.414-1.375-3.021-1.222-4.065-0.148-1.081 1.112-0.999 2.711 0.245 3.92 1.305 1.269 2.966 1.268 4.059 0.143 1.118-1.15 0.981-2.729-0.239-3.915" fill="#43426f"/>
    </g>
    <g id="g254" transform="translate(300.12 277.02)">
     <path id="path256" d="m0 0 3.071 5.064 0.559-0.575-1.594-2.521c-0.39-0.623-0.793-1.234-1.117-1.694l0.012-0.012c0.476 0.328 1.091 0.671 1.761 1.043l2.62 1.453 0.553-0.569-1.587-2.539c-0.373-0.593-0.751-1.18-1.123-1.663l0.012-0.013c0.536 0.351 1.109 0.678 1.748 1.044l2.614 1.459 0.541-0.556-5.27-2.801-0.553 0.568 1.624 2.612c0.397 0.641 0.714 1.119 1.074 1.579l-0.012 0.012c-0.481-0.322-0.975-0.62-1.657-0.979l-2.723-1.481-0.553 0.569z" fill="#43426f"/>
    </g>
    <g id="g258" transform="translate(308.64 272.11)">
     <path id="path260" d="m0 0-1.591 1.637-1.482-1.44 1.773-1.825-0.445-0.433-2.302 2.369 4.11 3.994 2.211-2.274-0.445-0.432-1.682 1.73-1.299-1.262 1.591-1.637-0.439-0.427z" fill="#43426f"/>
    </g>
    <g id="g262" transform="translate(310.3 270.92)">
     <path id="path264" d="m0 0 0.541-0.556c0.564-0.581 1.234-0.647 1.703-0.191 0.531 0.516 0.38 1.135-0.173 1.715-0.255 0.263-0.461 0.426-0.571 0.49l-1.5-1.458zm1.344 2.363c0.322-0.221 0.735-0.585 1.099-0.96 0.565-0.581 0.826-1.057 0.849-1.544 0.024-0.391-0.141-0.782-0.458-1.09-0.543-0.528-1.243-0.528-1.821-0.226l-0.018-0.018c0.206-0.432 0.102-0.91-0.228-1.425-0.44-0.694-0.739-1.18-0.812-1.421l-0.547 0.562c0.049 0.182 0.312 0.619 0.709 1.236 0.445 0.676 0.44 1.108-0.021 1.62l-0.498 0.512-1.781-1.731-0.528 0.544 4.055 3.941z" fill="#43426f"/>
    </g>
    <g id="g266" transform="translate(544.45 314.1)">
     <path id="path268" d="m0 0-0.589 2.864-1.537-2.864h2.126zm2.683-4.013h-1.88l-0.529 2.584h-3.158l-1.399-2.584h-1.784l5.065 9.031h1.6l2.085-9.031z" fill="#373535"/>
    </g>
    <g id="g270" transform="translate(511.23 283.8)">
     <path id="path272" d="m0 0h1.777c1.153 0 1.786 0.396 1.897 1.189 0.029 0.206 0.024 0.383-0.014 0.534-0.038 0.15-0.123 0.274-0.255 0.372s-0.316 0.171-0.551 0.219c-0.234 0.048-0.534 0.072-0.899 0.072h-1.62l-0.335-2.386zm0.551 3.917h1.613c0.524 0 0.921 0.079 1.192 0.236 0.27 0.157 0.431 0.42 0.483 0.789 0.023 0.164 0.015 0.308-0.025 0.431s-0.118 0.226-0.237 0.308c-0.118 0.082-0.278 0.142-0.48 0.181-0.202 0.038-0.456 0.058-0.761 0.058h-1.504l-0.281-2.003zm4.853-2.728c-0.127-0.902-0.511-1.585-1.153-2.047s-1.536-0.694-2.685-0.694h-3.466l1.268 9.024h3.302c0.483 0 0.914-0.056 1.293-0.168 0.378-0.112 0.692-0.272 0.94-0.482 0.249-0.209 0.428-0.465 0.539-0.765 0.11-0.301 0.139-0.64 0.085-1.019-0.053-0.383-0.171-0.715-0.352-0.998s-0.435-0.533-0.762-0.752c0.204-0.105 0.375-0.231 0.514-0.379s0.249-0.314 0.331-0.496c0.081-0.182 0.134-0.377 0.157-0.584 0.023-0.208 0.019-0.421-0.011-0.64" fill="#373535"/>
    </g>
    <g id="g274" transform="translate(122.01 476.35)">
     <path id="path276" d="m0 0-5.332-1.007-2.3-2.299-1.023 1.023 2.299 2.3 1.003 5.336 1.235-1.235-0.767-3.658 3.65 0.775 1.235-1.235z" fill="#373535"/>
    </g>
    <g id="g278" transform="translate(119.66 467.76)">
     <path id="path280" d="m0 0-0.982 0.982 3.891 3.89c-0.395 0.185-0.85 0.535-1.364 1.049l0.825 0.824c0.806-0.806 1.572-0.964 2.295-0.472l0.804-0.804-5.469-5.469z" fill="#373535"/>
    </g>
    <g id="g282" transform="translate(94.167 450.81)">
     <path id="path284" d="m0 0-5.332-1.007-2.3-2.299-1.023 1.023 2.299 2.3 1.003 5.336 1.235-1.235-0.767-3.658 3.65 0.775 1.235-1.235z" fill="#373535"/>
    </g>
    <g id="g286" transform="translate(93.259 444.96)">
     <path id="path288" d="m0 0 1.699 1.699-2.776-0.622 1.077-1.077zm0.771-2.544-0.68 0.68-1.201-1.202-0.978 0.978 1.201 1.201-2.15 2.151 0.775 0.774 5.896 1.173 0.766-0.767-3.422-3.422 0.679-0.679-0.886-0.887z" fill="#373535"/>
    </g>
    <g id="g290" transform="translate(120.49 424.4)">
     <path id="path292" d="m0 0-5.332-1.007-2.3-2.299-1.023 1.023 2.299 2.3 1.003 5.336 1.235-1.235-0.767-3.658 3.65 0.775 1.235-1.235z" fill="#373535"/>
    </g>
    <g id="g294" transform="translate(122.91 419.24)">
     <path id="path296" d="m0 0c-0.097-0.097-0.206-0.185-0.327-0.265-0.122-0.08-0.251-0.147-0.388-0.201-0.136-0.054-0.278-0.092-0.424-0.114-0.147-0.022-0.293-0.024-0.44-4e-3 0.058-0.185 0.085-0.374 0.081-0.566s-0.035-0.38-0.093-0.565-0.139-0.364-0.244-0.535-0.23-0.328-0.373-0.472c-0.254-0.254-0.535-0.441-0.841-0.559-0.307-0.119-0.618-0.173-0.933-0.162s-0.626 0.086-0.934 0.226c-0.308 0.139-0.59 0.337-0.847 0.594-0.26 0.26-0.456 0.539-0.589 0.837-0.132 0.299-0.203 0.602-0.211 0.912-8e-3 0.309 0.048 0.618 0.168 0.926s0.304 0.6 0.553 0.876l1.015-1.015c-0.124-0.124-0.224-0.259-0.3-0.404s-0.122-0.293-0.137-0.443c-0.015-0.151 3e-3 -0.3 0.054-0.448s0.141-0.286 0.271-0.416c0.125-0.124 0.26-0.216 0.406-0.274 0.147-0.058 0.295-0.083 0.446-0.076 0.15 7e-3 0.299 0.045 0.447 0.116 0.148 0.07 0.287 0.17 0.417 0.3 0.132 0.133 0.234 0.274 0.304 0.425 0.071 0.15 0.106 0.304 0.106 0.462 0 0.157-0.035 0.315-0.106 0.474-0.07 0.159-0.181 0.314-0.333 0.466l-0.415 0.415 0.825 0.824 0.315-0.315c0.259-0.259 0.522-0.385 0.787-0.377s0.515 0.13 0.75 0.365c0.207 0.207 0.31 0.418 0.308 0.632-1e-3 0.214-0.101 0.42-0.3 0.619-0.411 0.412-0.911 0.381-1.5-0.091l-1.002 1.003c0.295 0.234 0.592 0.404 0.89 0.509 0.299 0.105 0.591 0.151 0.877 0.139s0.56-0.081 0.822-0.205 0.504-0.297 0.725-0.518c0.249-0.249 0.437-0.509 0.566-0.781 0.128-0.272 0.199-0.544 0.211-0.816s-0.032-0.536-0.133-0.792c-0.1-0.255-0.259-0.491-0.474-0.706" fill="#373535"/>
    </g>
    <g id="g298" transform="translate(111.62 330.86)">
     <path id="path300" d="M 0,0 -1.251,1.251 -0.63,4.74 -4.118,4.118 -5.382,5.382 -0.41,6.161 0.29,10.648 1.537,9.401 1.007,6.393 4.023,6.915 5.27,5.668 0.779,4.972 0,0 Z" fill="#373535"/>
    </g>
    <g id="g302" transform="translate(114.74 327.74)">
     <path id="path304" d="m0 0-0.982 0.982 3.891 3.89c-0.395 0.185-0.85 0.535-1.364 1.049l0.825 0.824c0.806-0.806 1.572-0.964 2.295-0.472l0.804-0.804-5.469-5.469z" fill="#373535"/>
    </g>
    <g id="g306" transform="translate(138.89 302.49)">
     <path id="path308" d="M 0,0 -1.251,1.251 -0.63,4.74 -4.118,4.118 -5.382,5.382 -0.41,6.161 0.29,10.648 1.537,9.401 1.007,6.393 4.023,6.915 5.27,5.668 0.779,4.972 0,0 Z" fill="#373535"/>
    </g>
    <g id="g310" transform="translate(142.95 298.43)">
     <path id="path312" d="m0 0-3.663 3.663c0.473 0.472 0.955 0.758 1.446 0.857 0.266 0.05 0.582 0.079 0.949 0.087 0.368 9e-3 0.792-0.012 1.272-0.062 0.426-0.044 0.794-0.072 1.104-0.085 0.311-0.012 0.581-2e-3 0.81 0.031 0.23 0.033 0.429 0.092 0.599 0.176 0.17 0.085 0.328 0.2 0.474 0.346 0.232 0.232 0.348 0.477 0.348 0.734s-0.121 0.506-0.364 0.75c-0.1 0.099-0.215 0.174-0.346 0.225s-0.272 0.072-0.423 0.062c-0.15-9e-3 -0.308-0.049-0.472-0.12-0.164-0.07-0.331-0.178-0.499-0.325l-1.003 1.003c0.29 0.246 0.592 0.431 0.905 0.557 0.314 0.126 0.625 0.187 0.935 0.184 0.309-2e-3 0.612-0.068 0.909-0.196 0.297-0.129 0.574-0.322 0.831-0.578 0.276-0.277 0.482-0.563 0.619-0.86s0.208-0.589 0.214-0.876c5e-3 -0.288-0.049-0.565-0.162-0.833s-0.282-0.514-0.506-0.738c-0.207-0.207-0.425-0.37-0.654-0.489-0.229-0.118-0.478-0.201-0.746-0.248-0.249-0.039-0.584-0.062-1.007-0.071-0.422-8e-3 -0.91 0.013-1.462 0.063-0.163 0.013-0.377 0.026-0.64 0.039-0.264 0.012-0.555-8e-3 -0.873-0.06l2.321-2.32-0.916-0.916z" fill="#373535"/>
    </g>
    <g id="g314" transform="translate(111.62 274.63)">
     <path id="path316" d="M 0,0 -1.251,1.251 -0.63,4.74 -4.118,4.118 -5.382,5.382 -0.41,6.161 0.29,10.648 1.537,9.401 1.007,6.393 4.023,6.915 5.27,5.668 0.779,4.972 0,0 Z" fill="#373535"/>
    </g>
    <g id="g318" transform="translate(119.51 274.94)">
     <path id="path320" d="m0 0c-0.097-0.097-0.206-0.185-0.327-0.265-0.122-0.08-0.251-0.147-0.388-0.201-0.136-0.054-0.278-0.092-0.424-0.114-0.147-0.022-0.293-0.024-0.44-4e-3 0.058-0.185 0.085-0.374 0.081-0.566s-0.035-0.38-0.093-0.565-0.139-0.363-0.244-0.535c-0.105-0.171-0.23-0.328-0.373-0.472-0.254-0.254-0.535-0.441-0.841-0.559-0.307-0.119-0.618-0.173-0.933-0.162s-0.626 0.086-0.934 0.226c-0.308 0.139-0.59 0.337-0.847 0.594-0.26 0.26-0.456 0.539-0.589 0.837-0.132 0.299-0.203 0.602-0.211 0.912-8e-3 0.309 0.048 0.618 0.168 0.926s0.304 0.6 0.553 0.876l1.015-1.015c-0.124-0.124-0.224-0.259-0.3-0.404s-0.122-0.293-0.137-0.443c-0.015-0.151 3e-3 -0.3 0.054-0.448s0.141-0.286 0.271-0.416c0.125-0.124 0.26-0.216 0.406-0.274 0.147-0.058 0.295-0.083 0.446-0.076 0.15 7e-3 0.299 0.045 0.447 0.116 0.148 0.07 0.287 0.17 0.417 0.3 0.132 0.133 0.234 0.274 0.304 0.425 0.071 0.15 0.106 0.304 0.106 0.462 0 0.157-0.035 0.315-0.106 0.474-0.07 0.159-0.182 0.314-0.333 0.466l-0.415 0.415 0.825 0.824 0.315-0.315c0.259-0.259 0.522-0.385 0.787-0.377s0.515 0.13 0.75 0.365c0.207 0.207 0.31 0.418 0.308 0.632-1e-3 0.214-0.101 0.42-0.3 0.619-0.412 0.412-0.911 0.381-1.5-0.091l-1.002 1.003c0.295 0.234 0.592 0.404 0.89 0.509 0.299 0.105 0.591 0.151 0.877 0.139s0.56-0.081 0.822-0.205 0.504-0.297 0.725-0.518c0.249-0.249 0.437-0.509 0.566-0.781 0.128-0.272 0.199-0.544 0.211-0.816s-0.032-0.536-0.133-0.792c-0.1-0.255-0.259-0.491-0.474-0.706" fill="#373535"/>
    </g>
    <g id="g322" transform="translate(83.596 304.35)">
     <path id="path324" d="M 0,0 -1.251,1.251 -0.63,4.74 -4.118,4.118 -5.382,5.382 -0.41,6.161 0.29,10.648 1.537,9.401 1.007,6.393 4.023,6.915 5.27,5.668 0.779,4.972 0,0 Z" fill="#373535"/>
    </g>
    <g id="g326" transform="translate(88.157 303.96)">
     <path id="path328" d="m0 0 1.699 1.699-2.776-0.622 1.077-1.077zm0.771-2.544-0.68 0.68-1.201-1.202-0.978 0.978 1.201 1.201-2.15 2.151 0.775 0.774 5.896 1.173 0.766-0.767-3.422-3.422 0.679-0.679-0.886-0.887z" fill="#373535"/>
    </g>
    <g id="g330" transform="translate(148.02 450.26)">
     <path id="path332" d="m0 0-5.332-1.007-2.3-2.299-1.023 1.023 2.299 2.3 1.003 5.336 1.235-1.235-0.767-3.658 3.65 0.775 1.235-1.235z" fill="#373535"/>
    </g>
    <g id="g334" transform="translate(146.61 440.73)">
     <path id="path336" d="m0 0-3.663 3.663c0.473 0.472 0.955 0.758 1.446 0.857 0.266 0.05 0.582 0.079 0.949 0.087 0.368 9e-3 0.792-0.012 1.272-0.062 0.426-0.044 0.794-0.072 1.104-0.085 0.311-0.012 0.581-2e-3 0.81 0.031 0.23 0.033 0.429 0.092 0.599 0.176 0.17 0.085 0.328 0.2 0.474 0.346 0.232 0.232 0.348 0.477 0.348 0.734s-0.121 0.506-0.364 0.75c-0.1 0.099-0.215 0.174-0.346 0.225s-0.272 0.072-0.423 0.063c-0.15-0.01-0.308-0.05-0.472-0.121-0.164-0.07-0.331-0.178-0.499-0.325l-1.003 1.003c0.29 0.246 0.592 0.431 0.905 0.557 0.314 0.126 0.625 0.187 0.935 0.184 0.309-2e-3 0.612-0.068 0.909-0.196 0.297-0.129 0.574-0.322 0.831-0.578 0.276-0.277 0.482-0.563 0.619-0.86s0.208-0.589 0.214-0.876c5e-3 -0.288-0.049-0.565-0.162-0.833s-0.282-0.514-0.506-0.738c-0.207-0.207-0.425-0.37-0.654-0.489-0.229-0.118-0.478-0.201-0.746-0.248-0.249-0.039-0.584-0.062-1.007-0.071-0.422-8e-3 -0.91 0.013-1.462 0.063-0.163 0.013-0.377 0.027-0.64 0.039-0.264 0.012-0.555-8e-3 -0.873-0.06l2.321-2.32-0.916-0.916z" fill="#373535"/>
    </g>
   </g>
  </g>
  <g id="layer1-7" transform="translate(539.52 83.277)">
   <g id="g338" transform="matrix(1.25 0 0 -1.25 -20.82 670.73)">
    <g id="g340" clip-path="url(#clipPath342)">
     <g id="g346" transform="translate(442.9 81.901)">
      <path id="path348" d="m0 0c0-3.203-2.649-5.851-5.851-5.851h-241.54c-3.264 0-5.851 2.648-5.851 5.851v83.511c0 3.202 2.587 5.85 5.851 5.85h241.54c3.202 0 5.851-2.648 5.851-5.85v-83.511zm-178.23 108.08h105.5c3.879 0 7.082-3.14 7.082-7.02s-3.203-7.083-7.082-7.083h-105.5c-3.88 0-7.021 3.203-7.021 7.083s3.141 7.02 7.021 7.02m180.26 4.866h-256.57c-3.819 0-6.96-3.079-6.96-6.898v-112.39c0-2.71 1.54-5.05 3.819-6.159 0.924-0.554 2.032-0.8 3.141-0.8h256.57c3.141 0 5.789 2.093 6.651 4.926 0.185 0.616 0.308 1.355 0.308 2.033v112.39c0 3.819-3.079 6.898-6.959 6.898" fill="#d4d4d4"/>
     </g>
     <path id="path350" d="m442.9 30.107h-248.87v33.133h248.87v-33.133zm4.188 8.253v16.012h4.557l-0.061 19.154c-0.863-2.834-3.511-4.927-6.652-4.927h-256.57c-1.109 0-2.217 0.246-3.141 0.8v-15.027h4.557v-16.012s-6.158-1.047-4.557-6.036c1.601-5.05 4.557-5.789 4.557-5.789h257.31s2.956 0.739 4.557 5.789c1.602 4.989-4.557 6.036-4.557 6.036" fill="#d4d4d4"/>
     <g id="g352" transform="translate(442.9 165.41)">
      <path id="path354" d="m0 0v-83.511c0-3.202-2.649-5.85-5.851-5.85h-241.54c-3.264 0-5.851 2.648-5.851 5.85v83.511c0 3.203 2.587 5.851 5.851 5.851h241.54c3.202 0 5.851-2.648 5.851-5.851" fill="#f4f4f5"/>
     </g>
     <g id="g356" transform="translate(377.25 182.96)">
      <path id="path358" d="m0 0c0-3.88-3.203-7.083-7.082-7.083h-105.5c-3.88 0-7.021 3.203-7.021 7.083s3.141 7.021 7.021 7.021h105.5c3.879 0 7.082-3.141 7.082-7.021" fill="#bababa"/>
     </g>
     <path id="path360" d="m442.9 54.495h-248.87v8.745h248.87v-8.745z" fill="#969b9b"/>
     <path id="path362" d="m291.52 30.107h4.249v24.388h-4.249v-24.388zm142.14 0h4.249v24.388h-4.249v-24.388zm-7.945 0h4.003v24.388h-4.003v-24.388zm-8.19 0h3.941v24.388h-3.941v-24.388zm-8.007 0h4.249v24.388h-4.249v-24.388zm-7.944 0h4.003v24.388h-4.003v-24.388zm-8.191 0h4.003v24.388h-4.003v-24.388zm-8.622 0h4.249v24.388h-4.249v-24.388zm-7.945 0h4.003v24.388h-4.003v-24.388zm-8.191 0h3.941v24.388h-3.941v-24.388zm-7.944 0h4.188v24.388h-4.188v-24.388zm-7.945 0h3.942v24.388h-3.942v-24.388zm-8.253 0h4.003v24.388h-4.003v-24.388zm-8.437 0h4.188v24.388h-4.188v-24.388zm-7.944 0h3.942v24.388h-3.942v-24.388zm-8.253 0h4.003v24.388h-4.003v-24.388zm-7.945 0h4.249v24.388h-4.249v-24.388zm-7.944 0h3.941v24.388h-3.941v-24.388zm-20.693 0h4.003v24.388h-4.003v-24.388zm-8.191 0h4.249v24.388h-4.249v-24.388zm-15.889 0h3.942v24.388h-3.942v-24.388zm-8.253 0h4.249v24.388h-4.249v-24.388zm-8.191 0h4.249v24.388h-4.249v-24.388zm-8.191 0h3.942v24.388h-3.942v-24.388zm-8.191 0h4.188v24.388h-4.188v-24.388zm-7.76 0h3.757v24.388h-3.757v-24.388zm-8.19 0h4.003v24.388h-4.003v-24.388zm-8.191 0h4.249v24.388h-4.249v-24.388zm-4.004 0h-4.188v24.388h4.188v-24.388z" fill="#4e4f4f"/>
     <path id="path364" d="m295.77 30.107h3.942v24.388h-3.942v-24.388zm-32.641 0h4.249v24.388h-4.249v-24.388zm174.78 0h4.988v24.388h-4.988v-24.388zm-8.191 0h3.942v24.388h-3.942v-24.388zm-8.253 0h4.249v24.388h-4.249v-24.388zm-7.698 0h3.757v24.388h-3.757v-24.388zm-8.191 0h3.941v24.388h-3.941v-24.388zm-8.191 0h4.188v24.388h-4.188v-24.388zm-8.376 0h4.372v24.388h-4.372v-24.388zm-8.191 0h3.942v24.388h-3.942v-24.388zm-8.252 0h4.249v24.388h-4.249v-24.388zm-7.699 0h3.757v24.388h-3.757v-24.388zm-8.19 0h4.003v24.388h-4.003v-24.388zm-8.191 0h4.249v24.388h-4.249v-24.388zm-8.253 0h4.249v24.388h-4.249v-24.388zm-8.191 0h4.003v24.388h-4.003v-24.388zm-8.191 0h4.249v24.388h-4.249v-24.388zm-7.698 0h3.695v24.388h-3.695v-24.388zm-8.253 0h4.003v24.388h-4.003v-24.388zm-8.19 0h4.249v24.388h-4.249v-24.388zm-12.441 0h4.249v24.388h-4.249v-24.388zm-7.944 0h3.941v24.388h-3.941v-24.388zm-8.191 0h3.942v24.388h-3.942v-24.388zm-3.757 0h3.757v24.388h-3.757v-24.388zm-12.194 0h4.003v24.388h-4.003v-24.388zm-8.191 0h3.941v24.388h-3.941v-24.388zm-8.499 0h4.249v24.388h-4.249v-24.388zm-7.945 0h4.003v24.388h-4.003v-24.388zm-8.191 0h4.003v24.388h-4.003v-24.388zm-7.944 0h4.188v24.388h-4.188v-24.388zm-7.945 0h3.942v24.388h-3.942v-24.388zm-4.249 0h-4.003v24.388h4.003v-24.388z" fill="#485551"/>
     <g id="g366" transform="translate(230.37 146.69)">
      <path id="path368" d="m0 0c0.386 0.636 0.473 1.3 0.534 1.962 0.05 0.54-0.065 1.07-0.181 1.597-0.397 1.806-1.304 3.337-2.55 4.675-0.432 0.465-0.884 0.913-1.385 1.314-0.681 0.547-1.399 1.032-2.163 1.445-0.965 0.522-1.992 0.899-3.068 1.109-0.615 0.12-1.252 0.214-1.874 0.19-0.555-0.021-1.12-0.105-1.67-0.255-1.374-0.377-2.414-1.18-3.05-2.444-0.549-1.091-0.611-2.28-0.373-3.459 0.212-1.045 0.617-2.039 1.187-2.943 0.716-1.135 1.556-2.166 2.614-3.02 0.68-0.549 1.382-1.055 2.143-1.476 1.703-0.941 3.512-1.493 5.479-1.399 0.54 0.026 1.071 0.126 1.572 0.349-0.159 0.024-0.315 0.029-0.47 0.023-0.925-0.035-1.781 0.227-2.601 0.621-1.382 0.665-2.466 1.677-3.236 2.986-0.592 1.007-0.902 2.113-0.595 3.298 0.164 0.637 0.502 1.155 1.053 1.556 0.886 0.646 1.896 0.633 2.882 0.525 0.805-0.088 1.58-0.401 2.294-0.822 1.035-0.61 1.925-1.38 2.572-2.396 0.62-0.974 1.041-2.019 0.865-3.216-8e-3 -0.053 0.01-0.111 0.021-0.22m-9.693 19.448c0.275-0.208 0.616-0.121 0.916-0.167 1.589-0.244 3.102-0.721 4.574-1.346 1.473-0.625 2.882-1.381 4.21-2.265 0.902-0.6 1.776-1.249 2.597-1.969 0.464-0.405 0.894-0.848 1.375-1.238 0.465-0.378 0.836-0.873 1.236-1.325 0.547-0.615 1.05-1.273 1.51-1.96 0.912-1.362 1.603-2.828 1.954-4.432 0.099-0.454 0.208-0.932 0.066-1.518-0.064 0.556-0.102 1.014-0.254 1.444-0.276 0.78-0.695 1.485-1.189 2.146-0.455 0.608-0.944 1.189-1.511 1.695-0.753 0.672-1.55 1.282-2.431 1.791-0.862 0.499-1.773 0.859-2.726 1.112-0.777 0.205-1.574 0.305-2.391 0.224 0-0.137 0.112-0.196 0.208-0.261 0.65-0.438 1.246-0.942 1.83-1.466 0.437-0.392 0.844-0.803 1.238-1.239 0.72-0.8 1.36-1.655 1.93-2.564 0.763-1.219 1.303-2.539 1.637-3.934 0.274-1.147 0.331-2.31 0.159-3.488-0.183-1.258-0.625-2.413-1.334-3.45-0.684-1-1.585-1.773-2.653-2.376-1.071-0.605-2.209-0.999-3.394-1.263-0.519-0.116-1.052-0.187-1.589-0.236-0.768-0.072-1.535-0.148-2.305-0.167-0.926-0.023-1.836 0.126-2.752 0.259-0.926 0.133-1.813 0.386-2.691 0.676-1.722 0.571-3.339 1.368-4.898 2.297-1.011 0.602-1.975 1.269-2.896 1.991-1.063 0.833-2.061 1.754-2.959 2.765-1.178 1.326-2.248 2.737-2.982 4.371-0.387 0.861-0.688 1.744-0.835 2.685-0.061 0.389-0.065 0.763-0.044 1.149 0.076-0.379 0.14-0.758 0.222-1.134 0.172-0.795 0.602-1.456 1.028-2.117 0.384-0.595 0.881-1.107 1.357-1.626 0.425-0.462 0.926-0.862 1.428-1.243 0.667-0.504 1.376-0.959 2.14-1.301 1.072-0.48 2.176-0.878 3.375-0.889 0.233-2e-3 0.439-0.147 0.683-0.101 0.119 0.022 0.247-2e-3 0.314 0.145-1.253 0.83-2.365 1.834-3.371 2.945-0.81 0.894-1.491 1.889-2.11 2.93-0.739 1.244-1.175 2.594-1.504 3.984-0.154 0.649-0.119 1.323-0.127 1.99-0.022 1.749 0.562 3.312 1.559 4.697 0.891 1.238 2.123 2.086 3.545 2.673 0.834 0.344 1.69 0.597 2.56 0.79 0.547 0.121 1.113 0.22 1.685 0.226 0.109 1e-3 0.255-0.076 0.325 0.09h3.285z" fill="#eb3f3f"/>
     </g>
     <g id="g370" transform="translate(196.69 135.43)">
      <path id="path372" d="m0 0c0.43 0.264 0.694 0.803 1.294 0.788 0.217-5e-3 0.435-1e-3 0.679-1e-3 -0.297-1.235-0.583-2.425-0.872-3.626 0.67 0.233 0.653 0.251 0.867 0.917 0.213 0.664 0.39 1.335 0.556 2.011 0.072 0.293 0.596 0.701 0.893 0.697 0.358-5e-3 0.717 0.03 1.079-0.025-0.283-1.189-0.563-2.361-0.86-3.609 0.457 0.264 0.788 0.502 0.871 0.999 0.095 0.567 0.246 1.125 0.371 1.688 0.09 0.401 0.479 0.553 0.699 0.845 0.129 0.17 0.317 0.094 0.48 0.101 0.264 0.01 0.527 2e-3 0.802 2e-3 -0.29-1.159-0.574-2.274-0.845-3.392-0.061-0.251-0.036-0.208-0.357-0.552l-0.389-0.334c-0.252-0.216-0.505-0.353-0.863-0.35-1.759 0.019-3.518 9e-3 -5.277 9e-3 0 0.094 0.853 3.821 0.872 3.832" fill="#393738"/>
     </g>
     <g id="g374" transform="translate(248.68 131.81)">
      <path id="path376" d="m0 0h-1.719c0.122 0.455 0.245 0.914 0.371 1.373 0.16 0.585 0.022 0.771-0.576 0.772h-0.451c-0.141-0.485-0.275-0.975-0.427-1.458-0.17-0.542-0.534-0.814-1.087-0.8-0.316 8e-3 -0.647-0.078-0.954 0.064 0.132 0.641 0.773 2.56 0.855 2.854h2.597c0.313 0 0.626-0.014 0.937 4e-3 0.358 0.019 0.627-0.134 0.86-0.381 0-0.314-0.276-1.913-0.406-2.428" fill="#393738"/>
     </g>
     <g id="g378" transform="translate(221.26 133.95)">
      <path id="path380" d="m0 0c-1.259 0.029-1.5-0.069-1.577-0.618 0.927-0.106 0.984-0.085 1.577 0.618m1.422-0.295c0.398 0.374 0.831 0.567 1.225 0.821 0.172 0.112 0.361 0.149 0.57 0.146 0.738-0.01 1.476-0.01 2.214-1e-3 0.24 3e-3 0.446-0.045 0.655-0.174 0.361-0.223 0.452-0.487 0.214-0.827-0.143-0.203-0.336-0.357-0.587-0.427-0.464-0.131-0.919-0.145-1.373 0.02 0.016 0.084 0.019 0.114 0.028 0.142 0.052 0.175 0.289 0.322 0.089 0.535-0.1 0.106-0.522 0.073-0.706-6e-3 -0.423-0.181-0.547-0.56-0.621-0.948-0.079-0.417-0.253-0.804-0.316-1.222h-1.761c0.131 0.622 0.258 1.224 0.391 1.857-0.234-0.084-0.343-0.25-0.473-0.373-0.537-0.507-1.167-0.639-1.875-0.564-0.277 0.029-0.559 4e-3 -0.824 4e-3 -0.08-0.129-0.062-0.231-0.023-0.363h2.282c-0.328-0.369-0.668-0.678-1.184-0.675-0.691 5e-3 -1.382-2e-3 -2.073 4e-3 -0.134 1e-3 -0.262-6e-3 -0.405 0.059-0.461 0.21-0.653 0.323-0.46 0.949 0.144 0.466 0.185 0.965 0.59 1.303 0.27 0.226 0.559 0.427 0.833 0.648 0.115 0.093 0.24 0.052 0.359 0.052 0.879 6e-3 1.759 4e-3 2.638 3e-3 0.479-1e-3 0.58-0.105 0.593-0.604 2e-3 -0.094 0-0.188 0-0.359" fill="#393738"/>
     </g>
     <g id="g382" transform="translate(225.42 131.64)">
      <path id="path384" d="m0 0c0.311 0.312 0.611 0.602 0.898 0.904 0.105 0.111 0.224 0.095 0.345 0.092 1.22-0.028 2.442 0.059 3.662-0.043 0.261-0.022 0.372 0.118 0.477 0.61-0.537 0-1.065 0.035-1.587-9e-3 -0.606-0.052-1.016 0.3-0.97 0.978 0.052 0.759 0.406 1.319 1.004 1.745 0.105 0.075 0.236 0.12 0.388 0.119 1.252-9e-3 2.505-5e-3 3.836-5e-3 -0.275-0.28-0.507-0.504-0.724-0.743-0.114-0.126-0.25-0.105-0.387-0.105-0.503-1e-3 -1.006 3e-3 -1.508-1e-3 -0.497-4e-3 -0.692-0.177-0.812-0.754 0.552 0 1.094-5e-3 1.636 2e-3 0.365 5e-3 0.669-0.134 0.882-0.415s0.166-0.641 0.11-0.948c-0.107-0.592-0.415-1.081-0.983-1.358-0.137-0.066-0.275-0.114-0.439-0.113-1.901 7e-3 -3.802 4e-3 -5.703 6e-3 -0.025 0-0.051 0.015-0.125 0.038" fill="#393738"/>
     </g>
     <g id="g386" transform="translate(236.88 132.47)">
      <path id="path388" d="m0 0c0.425 0.196 0.721 0.476 0.831 0.97 0.137 0.611 0.366 0.75 0.663 1.075 0.177 0.192 0.412 0.08 0.621 0.101 0.152 0.015 0.307 3e-3 0.469 3e-3 -0.066-0.68-0.319-1.277-0.39-1.913-0.034-0.309-1.005-0.837-1.183-1.03-0.078-0.083-0.166-0.073-0.257-0.073-1.679-1e-3 -3.358 0-5.037 3e-3 -0.028 0-0.057 0.021-0.106 0.042 0.109 0.667 0.276 1.329 0.419 1.993 0.084 0.391 0.501 0.617 0.786 0.899 0.165 0.164 0.386 0.059 0.581 0.076 0.17 0.014 0.342 3e-3 0.571 3e-3 -0.067-0.772-0.326-1.479-0.477-2.191 0.069-0.066 0.093-8e-3 0.128 3e-3 0.669 0.206 0.726 0.787 0.818 1.341 0.074 0.451 0.521 0.846 0.982 0.847 0.298 0 0.596 0 0.894-3e-3 0.03-1e-3 0.059-0.021 0.088-0.032-0.129-0.683-0.439-2.148-0.401-2.114" fill="#393738"/>
     </g>
     <g id="g390" transform="translate(216.15 133.9)">
      <path id="path392" d="m0 0c-0.276 0.083-0.464 0.054-0.649 0.051-0.311-3e-3 -0.68-0.17-0.791-0.584-0.082-0.309-0.226-0.707-0.101-1.079 0.685-0.061 1.087 0.035 1.347 0.668 0.105 0.254 0.194 0.621 0.194 0.944m2.539 1.751c-0.256-0.36-0.441-0.675-0.68-0.941-0.286-0.316-0.331-0.7-0.417-1.083-0.149-0.666-0.311-1.328-0.477-2.03h-1.877c-0.533 0-1.067-2e-3 -1.6 1e-3 -0.638 3e-3 -0.945 0.341-0.845 0.97 0.044 0.281 0.138 0.558 0.238 0.826 0.096 0.255 0.139 0.367 0.374 0.564 0.171 0.144 0 0 0.638 0.447 0.399 0.245 0.356 0.22 0.586 0.213 0.392-0.013 0.784 2e-3 1.176-6e-3 0.228-5e-3 0.394 0.028 0.561 0.261 0.389 0.543 0.25 0.358 0.389 0.543 0.078 0.103 0.159 0.237 0.328 0.236 0.51-3e-3 1.021-1e-3 1.606-1e-3" fill="#393738"/>
     </g>
     <g id="g394" transform="translate(204.8 132.27)">
      <path id="path396" d="m0 0c1.014 0 1.367 0.679 1.343 1.655-0.958 0.155-1.551-0.307-1.343-1.655m2.902 0.586c-0.059-0.248-0.191-0.43-0.395-0.563-0.318-0.208-0.646-0.401-0.959-0.615-0.129-0.087-0.26-0.083-0.398-0.083-0.755 0-1.511-0.033-2.262 0.01-0.666 0.037-0.934 0.427-0.766 1.008 0.059 0.203 0.105 0.418 0.178 0.607 0.11 0.278 0.206 0.555 0.512 0.763 0.547 0.419 0.356 0.291 0.547 0.419 0.201 0.135 0.407 0.229 0.678 0.22 0.801-0.028 1.603-0.01 2.404-0.01 0.603-1e-3 0.871-0.343 0.691-0.926-0.044-0.141-0.194-0.681-0.23-0.83" fill="#393738"/>
     </g>
     <g id="g398" transform="translate(242.56 133.89)">
      <path id="path400" d="m0 0c-0.421 0.109-0.771 0.156-1.077-0.213-0.137-0.166-0.274-0.339-0.379-0.518-0.093-0.162-0.171-0.385-0.01-0.583 0.183-0.225 0.433-0.34 0.701-0.403 0.177-0.042 0.27 0.054 0.32 0.246 0.126 0.478 0.284 0.947 0.445 1.471m1.107-2.1c-1.226 0-2.463-5e-3 -3.699 3e-3 -0.314 2e-3 -0.657 0.439-0.691 0.808-0.075 0.817 0.318 1.351 0.992 1.748 0.33 0.195 0.66 0.283 1.045 0.276 1.065-0.019 2.13-7e-3 3.207-7e-3 -0.046-0.267-0.65-2.205-0.854-2.828" fill="#393738"/>
     </g>
     <g id="g402" transform="translate(208.24 134.33)">
      <path id="path404" d="m0 0c0.087 0.225 0.17 0.293 0.385 0.292 1.115-4e-3 2.231 0.013 3.346-9e-3 0.435-9e-3 0.75-0.253 0.735-0.733-0.019-0.593-0.224-1.136-0.349-1.699-0.026-0.117-2e-3 -0.246-0.079-0.371h-1.58c0.077 0.435 0.126 0.856 0.237 1.259 0.043 0.156 0.059 0.303 0.057 0.455-4e-3 0.292-0.133 0.423-0.418 0.434-0.219 9e-3 -0.437 2e-3 -0.668 2e-3 -0.125-0.48-0.235-0.949-0.37-1.411-0.161-0.549-0.588-0.85-1.162-0.851-0.818-2e-3 -0.801-6e-3 -0.621 0.787 0.06 0.264 0.353 1.5 0.487 1.845" fill="#393738"/>
     </g>
     <g id="g406" transform="translate(215.16 120.83)">
      <path id="path408" d="m0 0c-0.05 0.143-0.174 0.102-0.277 0.11-1.023 0.075-1.933 0.866-2.052 2.025-0.069 0.672-0.015 1.319 0.119 1.969 0.232 1.121 1.035 1.698 2.028 2.066 0.333 0.123 0.68 0.243 1.05 0.231 0.427-0.014 0.543-0.146 0.405-0.539-0.186-0.525-0.422-1.032-0.606-1.557-0.185-0.527-0.328-1.061-0.345-1.632-0.022-0.766 0.339-1.216 0.936-1.427 0.652-0.23 1.442 0.062 1.836 0.63 0.224 0.324 0.271 0.684 0.352 1.057 0.103 0.472-0.04 0.879-0.113 1.314-0.071 0.42-0.299 0.678-0.687 0.836-0.159 0.064-0.359 0.1-0.437 0.343 0.784 0.546 1.669 0.738 2.604 0.623 0.362-0.044 0.713-0.244 0.88-0.648 0.227-0.547 0.364-1.094 0.196-1.687-0.054-0.189-0.034-0.399-0.081-0.591-0.321-1.318-1.257-2.07-2.435-2.562-0.648-0.27-1.328-0.468-2.047-0.46-0.062 1e-3 -0.09-0.05-0.112-0.101h-1.214z" fill="#efac50"/>
     </g>
     <g id="g410" transform="translate(228.07 120.83)">
      <path id="path412" d="m0 0c-0.163 0.221-0.408 0.071-0.61 0.133-0.674 0.208-1.202 0.591-1.555 1.207-0.043 0.075-0.046 0.184-0.158 0.206l8e-3 -8e-3c-0.109 0.521-0.138 1.048-0.111 1.576 0.077 1.518 0.851 2.662 2.291 3.099 0.308 0.094 0.625 0.179 0.954 0.189 0.279 7e-3 0.384-0.117 0.401-0.395 0.026-0.433-0.243-0.761-0.395-1.117-0.294-0.691-0.447-1.409-0.589-2.134-0.112-0.567 0.339-1.268 0.909-1.447 1.094-0.344 2.117 0.173 2.263 1.59 0.039 0.371 0.024 0.751-0.06 1.14-0.136 0.628-0.459 1.007-1.067 1.168-0.048 0.013-0.087 0.063-0.159 0.118 0.075 0.149 0.188 0.235 0.335 0.316 0.695 0.381 1.444 0.487 2.217 0.42 0.541-0.048 1.13-0.597 1.155-1.149 0.026-0.558 0.053-1.118-0.061-1.689-0.224-1.122-0.953-1.809-1.86-2.359-0.787-0.477-1.652-0.732-2.578-0.754-0.093-2e-3 -0.184-5e-3 -0.227-0.11h-1.103z" fill="#7b9ac8"/>
     </g>
     <g id="g414" transform="translate(208.18 120.92)">
      <path id="path416" d="m0 0c-1.539 0.019-2.755 0.373-3.688 1.376-0.629 0.677-0.949 1.498-1.048 2.441-0.108 1.021 0.089 1.933 0.693 2.738 0.507 0.674 1.158 1.207 1.908 1.606 0.894 0.476 1.823 0.865 2.819 1.069 0.912 0.186 1.825 0.248 2.759 0.086 0.422-0.073 0.865-0.089 1.298-0.132 0.247-0.024 0.405-0.111 0.344-0.371-0.171-0.735-0.178-1.498-0.407-2.228-0.093-0.299-0.225-0.571-0.362-0.841-0.156-0.309-0.586-0.309-0.747-4e-3 -0.176 0.334-0.325 0.686-0.441 1.044-0.063 0.193-0.141 0.385-0.247 0.539-0.355 0.512-0.749 0.713-1.379 0.573-1.507-0.334-2.342-1.369-2.981-2.629-0.277-0.546-0.428-1.149-0.374-1.786 0.075-0.893 0.518-1.73 1.426-1.966 0.347-0.09 0.668-0.039 1.014 0.031 0.791 0.161 1.475 0.479 2.006 1.097 0.282 0.327 0.698 0.354 1.072 0.458 0.182 0.05 0.302-0.072 0.333-0.274 0.106-0.681-0.151-1.242-0.669-1.635-0.792-0.601-2.315-1.298-3.329-1.192" fill="#00a9e6"/>
     </g>
     <g id="g418" transform="translate(225.74 122.38)">
      <path id="path420" d="m0 0c0.032-0.397-0.142-0.645-0.458-0.907-0.572-0.472-1.211-0.436-1.863-0.416-0.588 0.017-1.142 0.192-1.634 0.5-0.296 0.185-0.45 0.486-0.462 0.877-0.033 1.048 0.262 2.035 0.508 3.031 0.259 1.043 0.539 2.081 0.838 3.113 0.179 0.615 0.516 1.144 0.985 1.596 0.358 0.345 0.718 0.272 1.094 0.095 0.345-0.162 0.568-0.382 0.57-0.83 5e-3 -0.711-0.256-1.345-0.47-1.988-0.441-1.328-0.815-2.673-1.17-4.025-0.205-0.78 0.217-1.154 1.021-0.968 0.345 0.081 0.733 0.329 1.049-0.086l-8e-3 8e-3z" fill="#e56565"/>
     </g>
     <g id="g422" transform="translate(240.7 123.67)">
      <path id="path424" d="m0 0c-0.233 0.174-0.262 0.366-0.366 0.512-0.339 0.475-0.756 0.631-1.32 0.476-1.005-0.276-1.624-0.982-2.085-1.865-0.16-0.307-0.304-0.622-0.471-0.925-0.294-0.535-1.099-0.821-1.613-0.549-0.2 0.105-0.384 0.269-0.386 0.556-3e-3 0.476 0.014 0.943 0.173 1.4 0.283 0.82 0.545 1.645 0.73 2.496 0.06 0.276 0.213 0.545 0.372 0.785 0.285 0.431 1.417 0.512 1.744 0.133 0.266-0.308 0.203-0.686 0.154-1.048-0.011-0.084-0.095-0.158 0.017-0.286 1.197 1.015 2.417 2.023 4.227 1.859-0.108-1.294-0.686-2.377-1.176-3.544" fill="#d78fac"/>
     </g>
    </g>
   </g>
  </g>
 </g>
</svg>
