<?xml version="1.0" encoding="UTF-8"?>
<svg id="svg2" width="537" height="297" version="1.1" viewBox="0 0 537 297" xmlns="http://www.w3.org/2000/svg" xmlns:cc="http://creativecommons.org/ns#" xmlns:dc="http://purl.org/dc/elements/1.1/" xmlns:rdf="http://www.w3.org/1999/02/22-rdf-syntax-ns#" xmlns:xlink="http://www.w3.org/1999/xlink">
 <metadata id="metadata8">
  <rdf:RDF>
   <cc:Work rdf:about="">
    <dc:format>image/svg+xml</dc:format>
    <dc:type rdf:resource="http://purl.org/dc/dcmitype/StillImage"/>
    <dc:title/>
   </cc:Work>
  </rdf:RDF>
 </metadata>
 <defs id="defs6">
  <clipPath id="clipPath5332">
   <path id="path5334" d="m242.8 695.39h336.52v-142.36h-336.52z"/>
  </clipPath>
  <radialGradient id="radialGradient6072" cx="0" cy="0" r="1" gradientTransform="matrix(207.43 -21.51 -19.788 -190.88 415.48 501.29)" gradientUnits="userSpaceOnUse">
   <stop id="stop5342" stop-color="#fff" offset="0"/>
   <stop id="stop5344" offset=".95506"/>
   <stop id="stop5348" offset="1"/>
  </radialGradient>
  <clipPath id="clipPath5368">
   <path id="path5370" d="m481.12 609.93h144.4v-254.9h-144.4z"/>
  </clipPath>
  <radialGradient id="radialGradient6074" cx="0" cy="0" r="1" gradientTransform="matrix(-59.414 -151.8 -183.86 71.965 430.59 518.58)" gradientUnits="userSpaceOnUse">
   <stop id="stop5378" stop-color="#fff" offset="0"/>
   <stop id="stop5380" offset=".95506"/>
   <stop id="stop5384" offset="1"/>
  </radialGradient>
  <linearGradient id="linearGradient6076" x2="1" gradientTransform="matrix(112.95 139.49 139.49 -112.95 242.33 465.08)" gradientUnits="userSpaceOnUse">
   <stop id="stop5414" stop-color="#ff0" offset="0"/>
   <stop id="stop5416" stop-color="#9dff00" offset=".5"/>
   <stop id="stop5418" stop-color="#458c41" offset="1"/>
  </linearGradient>
  <linearGradient id="linearGradient6078" x2="1" gradientTransform="matrix(138.34 -205.1 -205.1 -138.34 228.25 725.86)" gradientUnits="userSpaceOnUse">
   <stop id="stop5436" stop-color="#4a7d62" offset="0"/>
   <stop id="stop5438" offset="1"/>
  </linearGradient>
  <linearGradient id="linearGradient6080" x2="1" gradientTransform="matrix(221.12 149.15 149.15 -221.12 150.16 295.6)" gradientUnits="userSpaceOnUse">
   <stop id="stop5456" stop-color="#ff0" offset="0"/>
   <stop id="stop5458" stop-color="#9dff00" offset=".42134"/>
   <stop id="stop5462" stop-color="#5c5c5c" offset="1"/>
  </linearGradient>
  <linearGradient id="linearGradient6082" x2="1" gradientTransform="matrix(179.04 310.1 310.1 -179.04 150.04 206.61)" gradientUnits="userSpaceOnUse">
   <stop id="stop5480" stop-color="#4a7d62" offset="0"/>
   <stop id="stop5482" stop-color="#182920" offset="1"/>
  </linearGradient>
  <linearGradient id="linearGradient6084" x2="1" gradientTransform="matrix(-123.56 119.32 119.32 123.56 588.99 485.63)" gradientUnits="userSpaceOnUse">
   <stop id="stop5500" stop-color="#ff0" offset="0"/>
   <stop id="stop5502" stop-color="#9dff00" offset=".47752"/>
   <stop id="stop5504" stop-color="#4a4a4a" offset="1"/>
  </linearGradient>
  <linearGradient id="linearGradient6086" x2="1" gradientTransform="matrix(19.705 160.48 160.48 -19.705 528.97 540.92)" gradientUnits="userSpaceOnUse">
   <stop id="stop5522" offset="0"/>
   <stop id="stop5524" stop-color="#45755c" offset=".87079"/>
   <stop id="stop5526" stop-color="#45755c" offset="1"/>
  </linearGradient>
  <linearGradient id="linearGradient6088" x2="1" gradientTransform="matrix(57.405 123.11 123.11 -57.405 544.35 308.62)" gradientUnits="userSpaceOnUse">
   <stop id="stop5544" stop-color="#ff0" offset="0"/>
   <stop id="stop5546" stop-color="#aeff00" offset=".41573"/>
   <stop id="stop5548" stop-color="#575757" offset="1"/>
  </linearGradient>
  <linearGradient id="linearGradient6090" x2="1" gradientTransform="matrix(-55.596 315.3 315.3 55.596 625.09 206.59)" gradientUnits="userSpaceOnUse">
   <stop id="stop5566" stop-color="#4a7d62" offset="0"/>
   <stop id="stop5568" offset=".83147"/>
   <stop id="stop5572" offset="1"/>
  </linearGradient>
  <linearGradient id="linearGradient1081" x1="190.27" x2="191.23" y1="237.41" y2="139.47" gradientTransform="translate(-9.4927 -41.286)" gradientUnits="userSpaceOnUse">
   <stop id="stop1088" stop-color="#545454" offset="0"/>
   <stop id="stop1090" stop-color="#939393" stop-opacity="0" offset="1"/>
  </linearGradient>
  <linearGradient id="linearGradient1694" x1="189.45" x2="190.63" y1="139.28" y2="239.16" gradientTransform="translate(-9.4927 -40.952)" gradientUnits="userSpaceOnUse">
   <stop id="stop1696" stop-color="#9f9f9f" offset="0"/>
   <stop id="stop1698" stop-color="#3b3b3b" offset="1"/>
  </linearGradient>
 </defs>
 <g id="g3695" transform="matrix(.65644 0 0 .65386 395.83 156.39)">
  <path id="path22" d="m210.27 108c0-56.48-45.786-102.27-102.27-102.27-56.48 0-102.27 45.786-102.27 102.27 0 56.48 45.786 102.27 102.27 102.27 56.48 0 102.27-45.786 102.27-102.27" fill="#86bd33"/>
  <circle id="path3164" cx="108" cy="108" r="36.009" fill="#afdf5e" style="paint-order:stroke fill markers"/>
  <circle id="circle3263" cx="108" cy="108" r="26.876" fill="#f0f0f0" style="paint-order:stroke fill markers"/>
  <path id="rect1644" d="m106.88 3.0068c-33.455 0-63.121 16.59-81.583 42.168h163.17c-18.462-25.578-48.128-42.168-81.583-42.168z" fill="#0e0e0e" style="paint-order:stroke fill markers"/>
  <g id="g114" transform="matrix(1.25 0 0 -1.25 188.23 169.5)">
   <path id="path116" d="m0 0c-14.768-19.276-38.038-31.691-64.194-31.691s-49.405 12.415-64.193 31.691c-10.459 13.622-16.686 30.683-16.686 49.208 0 44.68 36.219 80.879 80.879 80.879 44.681 0 80.9-36.199 80.9-80.879 0-18.525-6.228-35.586-16.686-49.208zm-64.194 133.8c-46.716 0-84.596-37.879-84.596-84.596s37.88-84.596 84.596-84.596c46.737 0 84.597 37.879 84.597 84.596s-37.86 84.596-84.597 84.596" fill="#fff"/>
  </g>
  <g id="g122" transform="matrix(.80654 0 0 -.80654 107.99 126.2)" fill="#c6c6c6" opacity=".99">
   <path id="path124" d="m0 0c-12.455 0-22.558 10.122-22.558 22.577 0 12.456 10.103 22.558 22.558 22.558 12.475 0 22.577-10.102 22.577-22.558 0-12.455-10.102-22.577-22.577-22.577m0 46.697c-13.325 0-24.12-10.795-24.12-24.12s10.795-24.119 24.12-24.119 24.139 10.794 24.139 24.119-10.814 24.12-24.139 24.12" fill="#c6c6c6"/>
  </g>
  <g id="g5834" transform="matrix(.041287 0 0 .041287 90.499 11.864)">
   <g id="g5328" transform="matrix(1.25 0 0 -1.25 -97.211 943.55)">
    <g id="g5350">
     <g id="g5352" clip-path="url(#clipPath5332)">
      <g id="g5354">
       <g id="g5356">
        <g id="g5358">
         <g id="g5360">
          <path id="path5362" d="m417.09 553.03-174.29 83.727s175.19 135.82 336.52-5.986z" fill="url(#radialGradient6072)"/>
         </g>
        </g>
       </g>
      </g>
     </g>
    </g>
   </g>
   <g id="g5364" transform="matrix(1.25 0 0 -1.25 -97.211 943.55)">
    <g id="g5386">
     <g id="g5388" clip-path="url(#clipPath5368)">
      <g id="g5390">
       <g id="g5392">
        <g id="g5394">
         <g id="g5396">
          <path id="path5398" d="m481.12 501.93 114.42 108s101.09-174.09-67.989-254.9z" fill="url(#radialGradient6074)"/>
         </g>
        </g>
       </g>
      </g>
     </g>
    </g>
   </g>
   <g id="g5400" transform="matrix(1.25 0 0 -1.25 -97.211 943.55)">
    <g id="g5402">
     <g id="g5408">
      <g id="g5410">
       <path id="path5420" d="m344.64 507.72v-125.5c24.426 20.367 48.894 41.889 72.242 64.093v108.36s-131.23 43.744-214.07 95.919c34.127-38.852 90.552-100.24 141.83-142.88" fill="url(#linearGradient6076)"/>
      </g>
     </g>
    </g>
   </g>
   <g id="g5422" transform="matrix(1.25 0 0 -1.25 -97.211 943.55)">
    <g id="g5424">
     <g id="g5430">
      <g id="g5432">
       <path id="path5440" d="m202.81 650.6c82.848-52.175 214.07-95.919 214.07-95.919v14.449s-170.67 56.89-245.62 118.3c0 0 12.187-14.789 31.546-36.825" fill="url(#linearGradient6078)"/>
      </g>
     </g>
    </g>
   </g>
   <g id="g5442" transform="matrix(1.25 0 0 -1.25 -97.211 943.55)">
    <g id="g5444">
     <g id="g5450">
      <g id="g5452">
       <path id="path5464" d="m176.8 256.1c42.305 28.866 104.91 73.64 167.84 126.12v102.02s-85.697-130.06-167.84-228.14" fill="url(#linearGradient6080)"/>
      </g>
     </g>
    </g>
   </g>
   <g id="g5466" transform="matrix(1.25 0 0 -1.25 -97.211 943.55)">
    <g id="g5468">
     <g id="g5474">
      <g id="g5476">
       <path id="path5484" d="m124.31 221.47s20.413 12.745 52.494 34.636c82.143 98.077 167.84 228.14 167.84 228.14v23.477s-127.32-193.24-220.33-286.26" fill="url(#linearGradient6082)"/>
      </g>
     </g>
    </g>
   </g>
   <g id="g5486" transform="matrix(1.25 0 0 -1.25 -97.211 943.55)">
    <g id="g5488">
     <g id="g5494">
      <g id="g5496">
       <path id="path5506" d="m416.89 554.68v-108.36c23.349-22.204 47.817-43.726 72.243-64.093v125.5c51.28 42.639 107.71 104.02 141.84 142.88-82.853-52.175-214.08-95.919-214.08-95.919" fill="url(#linearGradient6084)"/>
      </g>
     </g>
    </g>
   </g>
   <g id="g5508" transform="matrix(1.25 0 0 -1.25 -97.211 943.55)">
    <g id="g5510">
     <g id="g5516">
      <g id="g5518">
       <path id="path5528" d="m416.89 569.13v-14.449s131.23 43.744 214.08 95.919c19.355 22.036 31.542 36.825 31.542 36.825-74.95-61.405-245.62-118.3-245.62-118.3" fill="url(#linearGradient6086)"/>
      </g>
     </g>
    </g>
   </g>
   <g id="g5530" transform="matrix(1.25 0 0 -1.25 -97.211 943.55)">
    <g id="g5532">
     <g id="g5538">
      <g id="g5540">
       <path id="path5550" d="m489.13 382.23c62.933-52.482 125.54-97.256 167.84-126.12-82.142 98.077-167.84 228.14-167.84 228.14z" fill="url(#linearGradient6088)"/>
      </g>
     </g>
    </g>
   </g>
   <g id="g5552" transform="matrix(1.25 0 0 -1.25 -97.211 943.55)">
    <g id="g5554">
     <g id="g5560">
      <g id="g5562">
       <path id="path5574" d="m489.13 484.25s85.703-130.06 167.84-228.14c32.077-21.891 52.491-34.636 52.491-34.636-93.011 93.013-220.34 286.26-220.34 286.26z" fill="url(#linearGradient6090)"/>
      </g>
     </g>
    </g>
   </g>
  </g>
  <rect id="rect2555" x="26.034" y="45.064" width="164.68" height="1.0091" fill="#fff" style="paint-order:stroke fill markers"/>
  <g id="g190" transform="matrix(.58625 0 0 .58625 50.965 86.719)" fill="#111609" stroke-width=".51101px">
   <path id="path186-3" d="m174.57 133.67h-0.396l-0.477 1.504a0.643 0.643 0 0 0-0.118 0.316 1.786 1.786 0 0 1-0.119-0.276l-0.516-1.544h-0.396v2.138h0.238v-1.821l0.634 1.821h0.236l0.635-1.782v1.782h0.277v-2.138zm-3.01 0.276h0.673v-0.276h-1.663v0.276h0.713v1.862h0.277zm-9.795-0.273-11.928 9.651-11.869-9.651h-6.713l15.285 12.349-15.285 12.348h6.713l11.869-9.711 11.928 9.711h6.653l-15.225-12.348 15.225-12.349zm-32.488 12.349c0-5.515-1.438-9.59-4.195-12.349h-24.396c-2.878 2.759-4.316 6.834-4.316 12.349 0 5.514 1.438 9.59 4.316 12.349h24.396c2.757-2.76 4.195-6.895 4.195-12.349zm-4.076 0c0 1.858-0.418 3.775-1.199 5.755l-1.139 2.577h-20.021l-1.139-2.577c-0.839-1.979-1.199-3.896-1.199-5.755 0-2.937 0.78-5.695 2.338-8.272h20.021c1.559 2.576 2.338 5.335 2.338 8.272zm-35.064 1.019v-2.038l1.798-0.96c-0.42-4.615-1.798-8.091-4.136-10.37h-24.397c-2.338 2.219-3.776 5.695-4.136 10.31h-3.955v4.077h3.955c0.36 4.614 1.798 8.032 4.136 10.311h24.397c2.338-2.339 3.715-5.755 4.136-10.311zm-4.556-9.292a17.578 17.578 0 0 1 2.218 6.233h-24.397c0.36-2.337 1.079-4.375 2.218-6.233zm2.218 10.311a17.869 17.869 0 0 1-2.218 6.294h-19.961c-1.139-1.858-1.858-3.956-2.218-6.294z"/>
   <path id="path188-6" d="m41.885 146.02 15.224-12.349h-6.713l-11.868 9.651-11.928-9.651h-6.594l15.165 12.349-15.165 12.348h6.594l11.928-9.711 11.868 9.711h6.713z"/>
  </g>
  <circle id="circle3168" cx="108" cy="108" r="14.032" fill="#fff" style="paint-order:stroke fill markers"/>
  <path id="path3174" d="m214.32 108c0-58.718-47.6-106.32-106.32-106.32-58.718 0-106.32 47.6-106.32 106.32 0 58.718 47.6 106.32 106.32 106.32 58.718 0 106.32-47.6 106.32-106.32" fill="none" stroke="#919191" stroke-width="1.467"/>
 </g>
 <g id="g5164">
  <path id="path913" d="m219.35 291.79c-24.722 0.22948-49.363 0.39149-73.752 0.34553l-0.49364-0.41175 37.902-40.648 37.078 39.859z" fill="#181818" style="paint-order:stroke fill markers"/>
  <path id="path866-6" d="m225.79 0.1874h-85.65l42.825 43.34z" fill="#181818" style="paint-order:stroke fill markers"/>
  <path id="path891" d="m139.85 0.16007c-0.0402 1e-3 -0.0812 3e-3 -0.1215 4e-3 -45.077 1.637-89.683 5.9177-134.38 11.925-0.07676 0.01033-0.16624 0.03278-0.24299 0.04311-0.19074 0.05795-0.24338 0.079-0.31943 0.12141-0.52424 0.35-1.1467 0.88353-2.0028 2.0873-0.04977 0.06998-0.05669 0.10369-0.10778 0.17818-0.04806 0.11726-0.07686 0.1669-0.09402 0.23497-0.9325 3.692-2.4916 15.579-2.5809 18.758-0.00501 0.16296 0.028897 0.30911 0.052877 0.39162 0.029198 0.07218 0.091105 0.17963 0.1607 0.26826 1.74 2.2149 3.9021 4.6843 5.9143 6.8709l0.3939 107.46-0.3939 107.46c-2.0122 2.1866-4.1743 4.656-5.9143 6.8709-0.069633 0.0886-0.13153 0.19603-0.1607 0.26825-0.02398 0.0825-0.057893 0.22866-0.052877 0.39162 0.089299 3.1792 1.6484 15.066 2.5809 18.758 0.01716 0.0681 0.04605 0.11772 0.09402 0.23498 0.05107 0.0745 0.05799 0.10816 0.10778 0.17818 0.85612 1.2038 1.4786 1.7373 2.0028 2.0873 0.07605 0.0424 0.12869 0.0635 0.31943 0.1214 0.07676 0.0103 0.16623 0.0328 0.24299 0.0431 44.7 6.007 89.307 10.288 134.38 11.925 0.0403 1e-3 0.0813 3e-3 0.1215 4e-3 0.10089 4e-3 0.13035 2.8e-4 0.28219-0.0274 0.0593-0.0277 0.18918-0.13147 0.3449-0.27217l42.46-41.4c14.766 14.258 29.856 29.075 42.5 41.4 0.15572 0.14069 0.2856 0.2445 0.3449 0.27217 0.15184 0.0278 0.1813 0.0314 0.28219 0.0274 0.0402-1e-3 0.0812-3e-3 0.12151-4e-3 45.077-1.637 89.683-5.9177 134.38-11.925 0.0767-0.0103 0.16625-0.0328 0.24301-0.0431 0.19074-0.0579 0.24337-0.079 0.31943-0.1214 0.52424-0.35001 1.1467-0.88354 2.0028-2.0873 0.0497-0.07 0.0567-0.10369 0.10778-0.17818 0.048-0.11726 0.077-0.1669 0.094-0.23498 0.93249-3.692 2.4916-15.579 2.5809-18.758 5e-3 -0.16296-0.0289-0.30911-0.0528-0.39162-0.0292-0.0722-0.0911-0.17963-0.16069-0.26825-1.74-2.2149-3.9021-4.6843-5.9143-6.8709l-0.3939-107.46 0.3939-107.46c2.0122-2.1866 4.1743-4.656 5.9143-6.8709 0.0697-0.08862 0.13149-0.19608 0.16069-0.26826 0.024-0.08251 0.0579-0.22866 0.0528-0.39162-0.0893-3.1792-1.6484-15.066-2.5809-18.758-0.017-0.06807-0.0459-0.11772-0.094-0.23497-0.051-0.07449-0.058-0.1082-0.10778-0.17818-0.85612-1.2038-1.4786-1.7373-2.0028-2.0873-0.076-0.04241-0.12869-0.06346-0.31943-0.12141-0.0767-0.01033-0.16625-0.03278-0.24301-0.04311-44.7-6.007-89.307-10.288-134.38-11.925-0.0403-1e-3 -0.0813-3e-3 -0.12151-4e-3 -0.10089-4e-3 -0.13035-3.6e-4 -0.28219 0.02737-0.0593 0.02767-0.18918 0.13147-0.3449 0.27217l-42.48 41.403c-14.158-13.789-28.322-27.603-42.48-41.404-0.15572-0.1407-0.2856-0.2445-0.3449-0.27217-0.15184-0.02767-0.1813-0.03138-0.28219-0.02737z" fill="#232323" style="paint-order:stroke fill markers"/>
  <ellipse id="path828" cx="181.61" cy="148.75" rx="48.212" ry="48.499" fill="url(#linearGradient1081)" style="paint-order:stroke fill markers"/>
  <ellipse id="circle847" cx="181.61" cy="149.08" rx="38.399" ry="38.628" fill="#5dbd33" style="paint-order:stroke fill markers"/>
  <path id="path911" d="m362.44 38.002c0.26692 0.2104 0.7124 0.71379 1.3168 1.5312 0.39303 1.0682 1.0154 2.1353 0.5802 3.2035-1.9087 4.6092-2.8907 7.269-4.5662 11.043-0.5927 63.13-0.25029 126.27-0.0234 189.4 1.676 3.7732 2.6971 6.4532 4.6066 11.062 0.43538 1.0682-0.18682 2.1354-0.57968 3.2036-0.60423 0.81749-1.034 1.3209-1.3008 1.5314l-3.2958-3.6772c-33.783-35.673-67.836-71.093-101.57-106.81 33.846-35.609 67.702-71.208 101.55-106.81z" fill="#131313" style="paint-order:stroke fill markers"/>
  <path id="path188" d="m161.12 149.08 5.9625-4.8365h-2.6292l-4.6481 3.7798-4.6716-3.7798h-2.5826l5.9394 4.8365-5.9394 4.8361h2.5826l4.6716-3.8033 4.6481 3.8033h2.6292z" fill="#8d8d8d"/>
  <path id="rect927" d="m349.41 55.504 15.359 0.0625c0.40638 0.66304 0.52448 1.343 0.19839 2.122-5.9842 0.28557-11.932 0.36466-18.01 0.47885z" fill="#2d2d2d" style="paint-order:stroke fill markers"/>
  <path id="path930" d="m340.83 64.536 24.111 0.31209c0.5912 0.95186 0.2643 1.5614-0.053 2.0914-8.6952 0.22032-17.863 0.35112-26.679 0.47871z" fill="#2d2d2d" style="paint-order:stroke fill markers"/>
  <path id="path932" d="m332.24 73.374 32.544 0.34575c0.88052 0.97653 0.52363 1.9021 0.0542 2.4336-11.574 0.25073-23.954 0.44377-35.688 0.58897z" fill="#2d2d2d" style="paint-order:stroke fill markers"/>
  <path id="path936" d="m322.79 82.567c14.116-0.081 27.974 0.18207 41.738 0.57009 1.097 0.86122 0.58767 1.6888 0.0675 2.1462-14.42 0.22112-29.843 0.39137-44.463 0.51942z" fill="#2d2d2d" style="paint-order:stroke fill markers"/>
  <path id="path938" d="m314.26 91.627c16.955-0.081 33.81 0.30361 50.343 0.69163 0.59949 0.47452 0.62853 1.7772 0.19159 2.2236-17.32 0.48628-36.343 0.36927-53.902 0.49732z" fill="#2d2d2d" style="paint-order:stroke fill markers"/>
  <path id="path949" d="m305.06 100.97c19.637-0.081 40.396 0.21522 59.544 0.60324 0.69432 0.47452 0.72795 1.7772 0.22189 2.2236-20.06 0.48628-42.666 0.32508-63.004 0.45313z" fill="#2d2d2d" style="paint-order:stroke fill markers"/>
  <path id="path951" d="m296.29 109.84c22.563-0.1056 46.32 0.43681 68.321 0.94265 0.79777 0.61861 0.64891 1.8481 0.0675 2.43-23.048 0.63394-48.929 0.67379-72.296 0.84072z" fill="#2d2d2d" style="paint-order:stroke fill markers"/>
  <path id="path953" d="m287.84 118.91c25.237-0.1056 52.122 0.49931 76.73 1.0052 0.89231 0.61861 0.72581 1.8481 0.0755 2.43-25.779 0.63394-54.79 0.58004-80.926 0.74697z" fill="#2d2d2d" style="paint-order:stroke fill markers"/>
  <path id="path955" d="m278.63 128.06c28.07-0.10115 58.441 0.64745 85.812 1.132 0.77376 0.68629 0.80731 1.6452 0.084 2.2026-28.674 0.60722-61.054 0.51141-90.126 0.6713z" fill="#2d2d2d" style="paint-order:stroke fill markers"/>
  <path id="path957" d="m269.73 137.21c30.931-0.10226 64.528 0.69877 94.689 1.1886 0.8526 0.69385 0.88957 1.6633 0.0925 2.2268-31.596 0.6139-67.364 0.95897-99.398 1.1206z" fill="#2d2d2d" style="paint-order:stroke fill markers"/>
  <path id="path959" d="m260.9 146c32.421-0.10226 71.88 1.0965 103.49 1.5864 0.89368 0.69385 0.93244 1.6633 0.097 2.2268-33.119 0.6139-70.266 0.95897-103.84 1.1206l-2.2648-2.3942z" fill="#2d2d2d" style="paint-order:stroke fill markers"/>
  <path id="path961" d="m349.35 241.81 15.359-0.0625c0.40638-0.66304 0.52448-1.343 0.19839-2.122-5.9842-0.28557-11.932-0.36465-18.01-0.47885z" fill="#2d2d2d" style="paint-order:stroke fill markers"/>
  <path id="path963" d="m340.77 232.77 24.111-0.31209c0.5912-0.95186 0.2643-1.5614-0.053-2.0914-8.6952-0.22032-17.863-0.35112-26.679-0.47871z" fill="#2d2d2d" style="paint-order:stroke fill markers"/>
  <path id="path965" d="m332.18 223.94 32.544-0.34575c0.88052-0.97653 0.52363-1.9021 0.0542-2.4336-11.574-0.25073-23.954-0.44377-35.688-0.58897z" fill="#2d2d2d" style="paint-order:stroke fill markers"/>
  <path id="path967" d="m322.73 214.74c14.116 0.081 27.974-0.18207 41.738-0.57009 1.097-0.86122 0.58767-1.6888 0.0675-2.1462-14.42-0.22112-29.843-0.39137-44.463-0.51942z" fill="#2d2d2d" style="paint-order:stroke fill markers"/>
  <path id="path969" d="m314.2 205.68c16.955 0.081 33.81-0.30361 50.343-0.69163 0.59949-0.47452 0.62853-1.7772 0.19159-2.2236-17.32-0.48628-36.343-0.36927-53.902-0.49732z" fill="#2d2d2d" style="paint-order:stroke fill markers"/>
  <path id="path971" d="m305 196.34c19.637 0.081 40.396-0.21522 59.544-0.60324 0.69432-0.47452 0.72795-1.7772 0.22189-2.2236-20.06-0.48628-42.666-0.32508-63.004-0.45313z" fill="#2d2d2d" style="paint-order:stroke fill markers"/>
  <path id="path973" d="m296.23 187.47c22.563 0.1056 46.32-0.43681 68.321-0.94265 0.79777-0.61861 0.64891-1.8481 0.0675-2.43-23.048-0.63394-48.929-0.67379-72.296-0.84072z" fill="#2d2d2d" style="paint-order:stroke fill markers"/>
  <path id="path975" d="m287.78 178.4c25.237 0.1056 52.122-0.49931 76.73-1.0052 0.89231-0.61861 0.72581-1.8481 0.0755-2.43-25.779-0.63394-54.79-0.58004-80.926-0.74697z" fill="#2d2d2d" style="paint-order:stroke fill markers"/>
  <path id="path977" d="m278.56 169.25c28.07 0.10115 58.441-0.64745 85.812-1.132 0.77376-0.68629 0.80731-1.6452 0.084-2.2026-28.674-0.60722-61.054-0.51141-90.126-0.6713z" fill="#2d2d2d" style="paint-order:stroke fill markers"/>
  <path id="path979" d="m269.67 160.1c30.931 0.10226 64.528-0.69877 94.689-1.1886 0.8526-0.69385 0.88957-1.6633 0.0925-2.2268-31.596-0.6139-67.364-0.95897-99.398-1.1206z" fill="#2d2d2d" style="paint-order:stroke fill markers"/>
  <path id="path1025" d="m218.14 4.1746-36.041-0.73373-34.248 0.80035 35.084 34.027z" fill="#1d1d1d" style="paint-order:stroke fill markers"/>
  <path id="path1027" d="m3.4144 37.752c-0.26708 0.2107-0.71282 0.7148-1.3175 1.5333-0.39326 1.0697-1.016 2.1383-0.58054 3.208 1.9098 4.6157 2.8924 7.2793 4.5688 11.058 0.59305 63.22 0.25044 126.45 0.02341 189.67-1.677 3.7786-2.6987 6.4623-4.6093 11.078-0.43564 1.0697 0.18693 2.1384 0.58002 3.2082 0.60458 0.81865 1.0346 1.3228 1.3016 1.5336l3.2977-3.6824c33.803-35.724 67.876-71.194 101.63-106.96-33.866-35.659-67.742-71.309-101.61-106.96z" fill="#141414" style="paint-order:stroke fill markers"/>
  <path id="path1029" d="m16.508 55.567-15.359 0.0625c-0.40638 0.66304-0.52448 1.343-0.19839 2.122 5.9842 0.28557 11.932 0.36466 18.01 0.47885z" fill="#2d2d2d" style="paint-order:stroke fill markers"/>
  <path id="path1031" d="m25.091 64.598-24.111 0.31209c-0.5912 0.95186-0.2643 1.5614 0.053 2.0914 8.6952 0.22032 17.863 0.35112 26.679 0.47871z" fill="#2d2d2d" style="paint-order:stroke fill markers"/>
  <path id="path1033" d="m33.681 73.437-32.544 0.34575c-0.88052 0.97653-0.52363 1.9021-0.0542 2.4336 11.574 0.25073 23.954 0.44377 35.688 0.58897z" fill="#2d2d2d" style="paint-order:stroke fill markers"/>
  <path id="path1035" d="m43.13 82.629c-14.116-0.081-27.974 0.18207-41.738 0.57009-1.097 0.86122-0.58767 1.6888-0.0675 2.1462 14.42 0.22112 29.843 0.39137 44.463 0.51942z" fill="#2d2d2d" style="paint-order:stroke fill markers"/>
  <path id="path1037" d="m51.656 91.689c-16.955-0.081-33.81 0.30361-50.343 0.69163-0.59949 0.47452-0.62853 1.7772-0.19159 2.2236 17.32 0.48628 36.343 0.36927 53.902 0.49732z" fill="#2d2d2d" style="paint-order:stroke fill markers"/>
  <path id="path1039" d="m60.86 101.03c-19.637-0.081-40.396 0.21522-59.544 0.60324-0.69432 0.47452-0.72795 1.7772-0.22189 2.2236 20.06 0.48628 42.666 0.32508 63.004 0.45313z" fill="#2d2d2d" style="paint-order:stroke fill markers"/>
  <path id="path1041" d="m69.628 109.91c-22.563-0.1056-46.32 0.43681-68.321 0.94265-0.79777 0.61861-0.64891 1.8481-0.0675 2.43 23.048 0.63394 48.929 0.67379 72.296 0.84072z" fill="#2d2d2d" style="paint-order:stroke fill markers"/>
  <path id="path1043" d="m78.077 118.97c-25.237-0.1056-52.122 0.49931-76.73 1.0052-0.89231 0.61861-0.72581 1.8481-0.0755 2.43 25.779 0.63394 54.79 0.58004 80.926 0.74697z" fill="#2d2d2d" style="paint-order:stroke fill markers"/>
  <path id="path1045" d="m87.276 128.12c-28.18-0.10115-58.669 0.64745-86.147 1.132-0.77678 0.68629-0.81046 1.6452-0.08433 2.2026 28.786 0.60722 61.292 0.51141 90.477 0.6713z" fill="#2d2d2d" style="paint-order:stroke fill markers"/>
  <path id="path1047" d="m96.198 137.27c-30.853-0.10226-64.367 0.69877-94.452 1.1886-0.85047 0.69385-0.88735 1.6633-0.09227 2.2268 31.517 0.6139 67.196 0.95897 99.149 1.1206z" fill="#2d2d2d" style="paint-order:stroke fill markers"/>
  <path id="path1049" d="m104.59 145.98c-32.326-0.10226-71.67 1.0965-103.19 1.5864-0.89106 0.69385-0.92971 1.6633-0.09672 2.2268 33.022 0.6139 70.06 0.95897 103.54 1.1206l2.2582-2.3942z" fill="#2d2d2d" style="paint-order:stroke fill markers"/>
  <path id="path1051" d="m16.571 241.87-15.359-0.0625c-0.40638-0.66304-0.52448-1.343-0.19839-2.122 5.9842-0.28557 11.932-0.36465 18.01-0.47885z" fill="#2d2d2d" style="paint-order:stroke fill markers"/>
  <path id="path1053" d="m25.154 232.84-24.111-0.31209c-0.5912-0.95186-0.2643-1.5614 0.053-2.0914 8.6952-0.22032 17.863-0.35112 26.679-0.47871z" fill="#2d2d2d" style="paint-order:stroke fill markers"/>
  <path id="path1055" d="m33.744 224-32.544-0.34575c-0.88052-0.97653-0.52363-1.9021-0.0542-2.4336 11.574-0.25073 23.954-0.44377 35.688-0.58897z" fill="#2d2d2d" style="paint-order:stroke fill markers"/>
  <path id="path1057" d="m43.193 214.81c-14.116 0.081-27.974-0.18207-41.738-0.57009-1.097-0.86122-0.58767-1.6888-0.0675-2.1462 14.42-0.22112 29.843-0.39137 44.463-0.51942z" fill="#2d2d2d" style="paint-order:stroke fill markers"/>
  <path id="path1059" d="m51.718 205.75c-16.955 0.081-33.81-0.30361-50.343-0.69163-0.59949-0.47452-0.62853-1.7772-0.19159-2.2236 17.32-0.48628 36.343-0.36927 53.902-0.49732z" fill="#2d2d2d" style="paint-order:stroke fill markers"/>
  <path id="path1061" d="m60.923 196.41c-19.637 0.081-40.396-0.21522-59.544-0.60324-0.69432-0.47452-0.72795-1.7772-0.22189-2.2236 20.06-0.48628 42.666-0.32508 63.004-0.45313z" fill="#2d2d2d" style="paint-order:stroke fill markers"/>
  <path id="path1063" d="m69.691 187.53c-22.563 0.1056-46.32-0.43681-68.321-0.94265-0.79777-0.61861-0.64891-1.8481-0.0675-2.43 23.048-0.63394 48.929-0.67379 72.296-0.84072z" fill="#2d2d2d" style="paint-order:stroke fill markers"/>
  <path id="path1065" d="m78.14 178.46c-25.237 0.1056-52.122-0.49931-76.73-1.0052-0.89231-0.61861-0.72581-1.8481-0.0755-2.43 25.779-0.63394 54.79-0.58004 80.926-0.74697z" fill="#2d2d2d" style="paint-order:stroke fill markers"/>
  <path id="path1067" d="m87.09 169.31c-28.07 0.10115-58.441-0.64745-85.812-1.132-0.77376-0.68629-0.80731-1.6452-0.084-2.2026 28.674-0.60722 61.054-0.51141 90.126-0.6713z" fill="#2d2d2d" style="paint-order:stroke fill markers"/>
  <path id="path1069" d="m95.807 160.17c-30.931 0.10226-64.528-0.69877-94.689-1.1886-0.8526-0.69385-0.88957-1.6633-0.0925-2.2268 31.596-0.6139 67.364-0.95897 99.398-1.1206z" fill="#2d2d2d" style="paint-order:stroke fill markers"/>
  <path id="path1071" d="m151.68 288.67 31.229-29.951 30.833 29.648c-27.135 1.0949-35.51 1.11-62.062 0.30331z" fill="#1d1d1d" style="paint-order:stroke fill markers"/>
  <ellipse id="ellipse1686" cx="181.61" cy="149.08" rx="38.399" ry="38.628" fill="none" stroke="url(#linearGradient1694)" stroke-linecap="round" stroke-linejoin="round" style="paint-order:stroke fill markers"/>
  <g id="g4221" transform="translate(-.039444)" fill="#d7d7d7">
   <path id="path186" d="m208.11 144.24-4.6716 3.7798-4.6485-3.7798h-2.6292l5.9864 4.8365-5.9864 4.8361h2.6292l4.6485-3.8033 4.6716 3.8033h2.6057l-5.9629-4.8361 5.9629-4.8365zm-12.724 4.8365c0-2.16-0.56319-3.7559-1.643-4.8365h-9.5547c-1.1272 1.0806-1.6904 2.6765-1.6904 4.8365 0 2.1596 0.56319 3.7559 1.6904 4.8365h9.5547c1.0798-1.081 1.643-2.7004 1.643-4.8365zm-1.5964 0c0 0.72769-0.16371 1.4785-0.46959 2.254l-0.44609 1.0093h-7.8412l-0.44609-1.0093c-0.32859-0.77508-0.46959-1.5259-0.46959-2.254 0-1.1503 0.30549-2.2304 0.91568-3.2397h7.8412c0.61058 1.0089 0.91568 2.0895 0.91568 3.2397zm-13.733 0.39909v-0.79818l0.70419-0.37599c-0.1645-1.8075-0.70419-3.1688-1.6199-4.0614h-9.5551c-0.91568 0.86907-1.4789 2.2304-1.6199 4.0379h-1.549v1.5968h1.549c0.14099 1.8071 0.70418 3.1457 1.6199 4.0383h9.5551c0.91568-0.91607 1.455-2.254 1.6199-4.0383zm-1.7844-3.6392c0.44146 0.7514 0.73625 1.5798 0.86869 2.4412h-9.5551c0.141-0.91529 0.4226-1.7135 0.86869-2.4412zm0.86869 4.0383c-0.1322 0.86894-0.4269 1.7052-0.86869 2.465h-7.8177c-0.44609-0.72769-0.72769-1.5494-0.86869-2.465z" style="paint-order:fill markers stroke"/>
   <path id="path2460" d="m161.16 149.08 5.9625-4.8365h-2.6292l-4.6481 3.7798-4.6716-3.7798h-2.5826l5.9394 4.8365-5.9394 4.8361h2.5826l4.6716-3.8033 4.6481 3.8033h2.6292z"/>
  </g>
 </g>
</svg>
