<?xml version="1.0" encoding="UTF-8"?>
<!-- Generator: Adobe Illustrator 22.0.0, SVG Export Plug-In . SVG Version: 6.00 Build 0)  -->
<svg id="Capa_1" baseProfile="tiny" version="1.1" viewBox="0 0 325 731.6" xml:space="preserve" xmlns="http://www.w3.org/2000/svg">

	<polygon points="80.6 458.8 78.6 457.4 80.4 455.8 78.3 454.7 79.9 452.8 77.6 452 78.9 449.9 76.5 449.4 77.6 447.2 75.2 446.9 76 444.6 73.5 444.7 74.1 442.3 71.6 442.6 71.9 440.2 69.5 440.9 69.4 438.4 67.1 439.4 66.7 437 64.6 438.2 63.9 435.8 62 437.3 61 435.1 59.2 436.8 58 434.7 56.4 436.6 54.9 434.7 53.7 436.8 51.9 435.1 50.9 437.3 49 435.8 48.3 438.2 46.1 437 45.7 439.4 43.5 438.4 43.4 440.9 41 440.2 41.2 442.6 38.8 442.3 39.3 444.7 36.9 444.6 37.7 446.9 35.2 447.2 36.3 449.4 34 449.9 35.3 452 33 452.8 34.6 454.7 32.4 455.8 34.3 457.4 32.3 458.8 34.3 460.2 32.4 461.9 34.6 463 33 464.8 35.3 465.7 34 467.7 36.3 468.3 35.2 470.5 37.7 470.7 36.9 473.1 39.3 473 38.8 475.4 41.2 475 41 477.5 43.4 476.8 43.5 479.3 45.7 478.3 46.1 480.7 48.3 479.5 49 481.8 50.9 480.3 51.9 482.6 53.7 480.9 54.9 483 56.4 481 58 483 59.2 480.9 61 482.6 62 480.3 63.9 481.8 64.6 479.5 66.7 480.7 67.1 478.3 69.4 479.3 69.5 476.8 71.9 477.5 71.6 475 74.1 475.4 73.5 473 76 473.1 75.2 470.7 77.6 470.5 76.5 468.3 78.9 467.7 77.6 465.7 79.9 464.8 78.3 463 80.4 461.9 78.6 460.2" fill="#211915" fill-rule="evenodd"/>
	<path d="m310.1 502.8 5.7 0.5c2.9 0.6 4.8 3.5 4.1 6.4l-24.9 116.9c-0.6 2.9-3.4 4.3-6.4 4.1l-7.6 0.1" fill="#41403E"/>
	<path d="m310.1 228.8 5.7-0.5c2.9-0.6 4.8-3.5 4.1-6.4l-24.9-116.9c-0.6-2.9-3.4-4.3-6.4-4.1l-7.6-0.1" fill="#41403E"/>
	
		<rect transform="matrix(-1.837e-16 1 -1 -1.837e-16 413.51 316.88)" x="36.3" y="361.3" width="24" height="7.7" fill="#050403"/>
	<path d="m317.8 359.1c0-67.1-5.8-129.4-15.7-180.8s-23.8-91.9-40.3-115.5l-0.3-0.5c-25.4-37.3-69.2-62-118.9-62-78.5 0-142.2 61.4-142.2 137.1 0 21.1 4.9 41.1 13.8 59l0.2 0.2v0.1c23 45.6 37.5 100.8 37.5 167.4v3.5c0 66.6-14.5 121.8-37.5 167.4l-0.1 0.1v0.1h-0.1c-8.8 17.9-13.8 37.9-13.8 59 0 75.7 63.7 137.2 142.2 137.2 49.7 0 93.5-24.6 118.9-62l0.3-0.5c16.5-23.7 30.4-64.1 40.3-115.5s15.7-113.7 15.7-180.8v-13.5z" fill="#35383B"/>
	<path id="path9_4_" d="m12.5 538.5c22.1-48 72.1-81.4 130.1-81.4 78.5 0 142.2 61.4 142.2 137.2 0 25.8-7.4 50-20.2 70.6-0.9 1.4-1.8 2.8-2.7 4.1l-0.3 0.5c-25.4 37.3-69.2 62-118.9 62-78.8-0.1-142.5-61.5-142.5-137.3 0-19.8 4.4-38.7 12.3-55.7z" fill="#333638"/>
	<path id="path3_4_" d="m260.3 60.7c12.7 21.2 20 46.2 20 72.7 0 78-62.9 141.2-140.5 141.2-57.3 0-106.6-34.4-128.5-83.9-7.2-16.4-11.1-34.4-11.1-53.3 0-75.7 63.7-137.1 142.3-137.1 49 0 92.3 23.9 117.8 60.4z" fill="#333638"/>
	<path d="m250 159.1c0-46.7-37.6-84.7-83.9-84.7s-83.9 37.9-83.9 84.7c0 46.7 37.5 84.7 83.9 84.7 46.3 0 83.9-38 83.9-84.7z" fill="#211915"/>
	<path d="m247.6 159.1c0 45.4-36.5 82.3-81.5 82.3s-81.5-36.8-81.5-82.3c0-45.4 36.4-82.3 81.5-82.3 45 0 81.5 36.9 81.5 82.3z" fill="#242C32"/>
	
		<path d="m151.5 522.4c0-17.1-14.4-31.1-32.2-31.1-17.7 0-32.2 13.9-32.2 31.1 0 17.1 14.4 31 32.2 31 17.8 0.1 32.2-13.8 32.2-31z" fill="#211915"/>
		<path d="m149.1 522.4c0 15.8-13.3 28.6-29.7 28.6s-29.7-12.8-29.7-28.6 13.3-28.7 29.7-28.7c16.4 0.1 29.7 12.9 29.7 28.7z" fill="#9F9288"/>
	
	
		<path d="m235.1 645.8c0-17.1-14.4-31-32.2-31-17.7 0-32.2 13.9-32.2 31s14.4 31 32.2 31 32.2-13.9 32.2-31z" fill="#211915"/>
		<path d="m232.6 645.8c0 15.8-13.3 28.6-29.7 28.6s-29.7-12.8-29.7-28.6 13.3-28.6 29.7-28.6 29.7 12.8 29.7 28.6z" fill="#9F9288"/>
	
	<g fill="#1F2627">
		
			<path d="m62.9 346c-0.5 0-1-0.1-1.5-0.3s-0.8-0.4-1.2-0.8-0.6-0.8-0.8-1.3-0.3-1.1-0.3-1.8v-1h-3.1v-1.9h10.2v3c0 0.7-0.1 1.2-0.2 1.8s-0.4 0.9-0.6 1.3-0.6 0.6-1 0.8-0.9 0.2-1.5 0.2zm-0.1-2.1c0.3 0 0.5 0 0.7-0.1s0.4-0.2 0.6-0.4 0.3-0.4 0.4-0.7 0.1-0.6 0.1-0.9v-1h-3.7v1.1c0 0.3 0 0.6 0.1 0.9s0.2 0.5 0.4 0.6 0.4 0.3 0.6 0.4 0.5 0.1 0.8 0.1z"/>
			<path d="M56,352.7h4.4v-3.5H56v-1.9h10.2v1.9h-4.1v3.5h4.1v1.9H56V352.7z"/>
			<path d="m61.1 363.9c-0.9 0-1.7-0.1-2.4-0.3s-1.2-0.5-1.7-0.9-0.8-0.8-1-1.3-0.3-1.1-0.3-1.6c0-1.3 0.4-2.4 1.3-3s2.2-1 3.9-1c0.9 0 1.7 0.1 2.4 0.3s1.2 0.5 1.7 0.9 0.8 0.8 1 1.3 0.3 1.1 0.3 1.6c0 1.3-0.4 2.4-1.3 3s-2.2 1-3.9 1zm-0.1-2c1.2 0 2.1-0.2 2.7-0.5s0.9-0.9 0.9-1.6c0-0.4-0.1-0.7-0.2-0.9s-0.4-0.5-0.7-0.6-0.7-0.3-1.1-0.4-0.9-0.1-1.5-0.1c-1.2 0-2.1 0.2-2.7 0.5s-0.9 0.9-0.9 1.6c0 0.4 0.1 0.7 0.2 0.9s0.4 0.5 0.7 0.6 0.7 0.3 1.1 0.4 1 0.1 1.5 0.1z"/>
			<path d="m56 370 6.1-2.7 1.3-0.6h-7.4v-1.8h10.2v2.4l-6.1 2.8-1.2 0.5h7.3v1.8h-10.2v-2.4z"/>
			<path d="M56,374.4h10.2v6.1h-1.6v-4.2H62v4h-1.6v-4h-2.8v4.2H56V374.4z"/>
			<path d="m59.1 389.8c-0.6 0-1-0.1-1.5-0.3s-0.8-0.5-1-0.9-0.5-0.8-0.6-1.3-0.2-1.1-0.2-1.7c0-0.5 0-1.1 0.1-1.6s0.2-1 0.3-1.5h1.9c-0.1 0.2-0.2 0.5-0.2 0.8s-0.1 0.5-0.2 0.8-0.1 0.5-0.1 0.8 0 0.5 0 0.8c0 0.4 0 0.7 0.1 0.9s0.1 0.5 0.3 0.6 0.2 0.3 0.4 0.4 0.3 0.1 0.5 0.1c0.3 0 0.5-0.1 0.6-0.2s0.3-0.3 0.4-0.6 0.2-0.5 0.4-0.8 0.2-0.6 0.3-0.9 0.3-0.6 0.4-0.9 0.3-0.6 0.6-0.8 0.5-0.4 0.8-0.6 0.7-0.2 1.1-0.2 0.8 0.1 1.1 0.2 0.7 0.4 0.9 0.7 0.5 0.7 0.6 1.2 0.2 1.1 0.2 1.8v0.6s0 0.4-0.1 0.7-0.1 0.4-0.1 0.6-0.1 0.4-0.1 0.6h-1.8c0.1-0.2 0.1-0.3 0.2-0.5s0.1-0.4 0.1-0.6 0.1-0.4 0.1-0.6 0-0.4 0-0.6c0-0.3 0-0.6-0.1-0.9s-0.1-0.4-0.2-0.6-0.2-0.3-0.4-0.3-0.3-0.1-0.5-0.1-0.4 0.1-0.6 0.2-0.3 0.3-0.4 0.6-0.2 0.5-0.3 0.8-0.2 0.6-0.3 0.9-0.3 0.6-0.4 0.9-0.3 0.6-0.6 0.8-0.5 0.4-0.8 0.6-0.5 0.1-0.9 0.1z"/>
		
		
			<path d="M56,416v-2.5l10.2-3.1v2.2l-6.1,1.7l-2,0.6l2.1,0.6l6,1.7v2L56,416z"/>
			<path d="m61.1 427.6c-0.9 0-1.7-0.1-2.4-0.3s-1.2-0.5-1.7-0.9-0.8-0.8-1-1.3-0.3-1.1-0.3-1.6c0-1.3 0.4-2.4 1.3-3s2.2-1 3.9-1c0.9 0 1.7 0.1 2.4 0.3s1.2 0.5 1.7 0.9 0.8 0.8 1 1.3 0.3 1.1 0.3 1.6c0 1.3-0.4 2.4-1.3 3s-2.2 1-3.9 1zm-0.1-2c1.2 0 2.1-0.2 2.7-0.5s0.9-0.9 0.9-1.6c0-0.4-0.1-0.7-0.2-0.9s-0.4-0.5-0.7-0.6-0.7-0.3-1.1-0.4-0.9-0.1-1.5-0.1c-1.2 0-2.1 0.2-2.7 0.5s-0.9 0.9-0.9 1.6c0 0.4 0.1 0.7 0.2 0.9s0.4 0.5 0.7 0.6 0.7 0.3 1.1 0.4 1 0.1 1.5 0.1z"/>
			<path d="M56,429.4h10.2v2h-8.6v4.3H56V429.4z"/>
		
		<polygon points="56 438.1 56 462.1 66.2 462.1 57.3 438.1"/>
	</g>
	
		<path d="m159.6 494.2-9.4 12.2-2.1-3 2-2.5-2.7-3.9-3 1-1.7-2.5 14.7-4.6 2.2 3.3zm-9.5 1.9 1.8 2.5 3.3-4.2-5.1 1.7z" fill="#90979A"/>
	
	
		<path d="m203.9 544.6 3.9 5.6c0.7 1 1.1 1.8 1.2 2.5s0 1.3-0.2 2-0.7 1.2-1.3 1.7c-1.3 0.9-2.7 0.8-4.2-0.3 0.4 1 0.5 1.9 0.2 2.7s-0.7 1.4-1.4 1.9c-0.9 0.6-1.9 0.8-3 0.6s-2.2-1.1-3.3-2.6l-3.9-5.6 12-8.5zm-0.2 4.3-2.6 1.8 1.5 2.1c0.5 0.8 1 1.2 1.5 1.2s0.8-0.1 1.1-0.3 0.5-0.5 0.6-0.8 0.1-0.6 0-0.8-0.3-0.7-0.7-1.2l-1.4-2zm-4.7 3.3-2.9 2 1.5 2.2c0.5 0.7 1 1.2 1.5 1.3s0.9 0 1.4-0.3c0.4-0.3 0.6-0.7 0.7-1.1 0.1-0.5-0.1-1.1-0.6-1.8l-1.6-2.3z" fill="#90979A"/>
	
	
		<path d="m244.6 623.4-2.2-2.8c1.7-1.2 2.1-2.5 1.2-3.8-1-1.5-2.8-1.3-5.5 0.5-1.5 1.1-2.4 2-2.6 2.7-0.3 0.8-0.1 1.5 0.4 2.2 0.8 1.2 2.1 1.3 3.8 0.5l1.7 2.8c-1.6 0.8-3 1.1-4.4 0.7s-2.5-1.2-3.4-2.5c-1.1-1.6-1.5-3.3-1.1-5 0.4-1.8 1.6-3.3 3.5-4.7 1.8-1.3 3.6-1.8 5.5-1.7 1.8 0.2 3.3 1.1 4.5 2.7 1.8 3.1 1.4 5.8-1.4 8.4z" fill="#90979A"/>
	
	
		<path d="m145 314.9-5-2.9-5.7 3.3v-2.9l3.9-2.1-3.9-2.1v-2.4l5.7 3.3 5-2.9v2.9l-3.2 1.7 3.2 1.8v2.3z" fill="#1F2627"/>
	
	
		<path d="m138.3 418.3h-4v-2.5h10.7v4.2c0 0.9-0.1 1.7-0.3 2.2s-0.6 0.9-1.1 1.3-1.1 0.6-1.9 0.6c-0.5 0-1-0.1-1.5-0.3s-0.9-0.5-1.2-0.9-0.5-0.7-0.6-1.1-0.1-0.9-0.1-1.7v-1.8zm2-0.1v1.6c0 0.6 0.1 1.1 0.4 1.3s0.6 0.4 1 0.4 0.8-0.1 1-0.4 0.4-0.7 0.4-1.3v-1.6h-2.8z" fill="#1F2627"/>
	
	
		<path d="m176.1 408.2c0-6-5.1-10.9-11.3-10.9s-11.3 4.9-11.3 10.9v23.8c0 6 5.1 10.9 11.3 10.9s11.3-4.9 11.3-10.9v-23.8z" fill="#211915"/>
		<path d="m173.7 408.2v23.8c0 4.8-4 8.7-9 8.7s-9-3.9-9-8.7v-23.8c0-4.8 4-8.7 9-8.7 5 0.1 9 3.9 9 8.7z" fill="#9F9288"/>
	
	
		<path d="m176.1 299.2c0-6-5.1-10.9-11.3-10.9s-11.3 4.9-11.3 10.9v23.8c0 6 5.1 10.9 11.3 10.9s11.3-4.9 11.3-10.9v-23.8z" fill="#211915"/>
		<path d="m173.7 299.2v23.8c0 4.8-4 8.7-9 8.7s-9-3.9-9-8.7v-23.8c0-4.8 4-8.7 9-8.7 5 0.1 9 3.9 9 8.7z" fill="#9F9288"/>
	
	<g fill="#90979A" fill-rule="evenodd">
		<path d="m251.4 325c3.8 0 6.9-0.4 6.9-7.6 0-6-2.3-8-6-7.9v5.4c1.4 0.1 2 1.4 2 2.2 0 0.6-0.2 2-1.3 2-3.5 0-0.3-10.4-7.7-10.4-3.3 0-4.7 3.3-4.6 5 0.1 2.3 0.5 4 2.2 5.7l-1.7 0.7v5.3c0.4-0.4 10.2-0.4 10.2-0.4zm-7.2-8.8c0-1.2 0.9-1.7 1.7-1.7 1.4 0 1.3 2.7 2.3 4.6-2.2 0.2-4-0.8-4-2.9z"/>
		<path d="m247.7 431.1c-1.3-0.2-2.8-0.8-2.8-2.3 0-1.9 1.9-2.9 4.4-2.9 1.9 0 4.4 0.7 4.4 2.9 0 0.7-0.2 1.2-0.6 1.6s-0.9 0.6-1.7 0.6v5.8c4.7-0.4 6.6-3.9 6.6-8 0-5-3.1-8.7-8.6-8.7-5.4 0-8.7 3.8-8.7 8.7 0 4.2 2.2 7.6 7.1 8.1v-5.8h-0.1z"/>
		<polygon points="241 413.6 241 419.4 257.5 419.4 257.5 413.6 241 413.6"/>
		<polygon points="260 413.6 260 419.4 264.2 419.4 264.2 413.6 260 413.6"/>
		<path d="m258.2 386.3c0-5.1-3.2-8.6-8.8-8.6-5.5 0-8.7 3.8-8.7 8.7s3.2 8.7 9 8.7c5-0.1 8.5-3.4 8.5-8.8zm-13.3 0c0-1.5 1.7-2.7 4.8-2.7 1.8 0 4 0.7 4 2.8 0.1 1.6-1.8 2.7-4.2 2.7-3 0-4.6-1.1-4.6-2.8z"/>
		<path d="m253.5 367.2c0.8 0 1.2 0.8 1.2 1.9 0 0.5-0.1 1.1-0.4 1.4-0.1 0.2-0.6 0.5-1.2 0.6v5.5c4.3-0.1 5.2-4.1 5.2-7.7 0-3.2-1.3-7.2-5.4-7.2-6.7 0-4.3 9.7-6.8 9.7-1.1 0-1.6-0.8-1.6-2.2 0-0.6 0.4-1.2 0.7-1.6s0.7-0.6 1.5-0.6v-5.4c-4.5 0.1-6.2 4-6.2 7.4 0 6.4 3 8.3 6.3 8.3 6.4 0 4.4-10.2 6.7-10.1z"/>
		<path d="m251.4 360.6c3.8 0 6.9-0.4 6.9-7.6 0-6-2.3-8-6-7.9v5.4c1.4 0.1 2 1.4 2 2.2 0 0.6-0.2 2-1.3 2-3.5 0-0.3-10.4-7.7-10.4-3.3 0-4.7 3.3-4.6 5 0.1 2.3 0.5 4 2.2 5.7l-1.7 0.7v5.3c0.4-0.4 10.2-0.4 10.2-0.4zm-7.2-8.8c0-1.2 0.9-1.7 1.7-1.7 1.4 0 1.3 2.7 2.3 4.6-2.2 0.2-4-0.8-4-2.9z"/>
		<path d="m264.8 299.9v-10.3h-23.8v6.7h7.4v3.9c0 6 3.4 8.9 8.1 8.9 4.6-0.1 8.3-3.2 8.3-9.2zm-11.2-0.3v-3.3h5.4v2.4c0 1.4-0.4 3.6-2.5 3.6-1.9 0-2.9-1.1-2.9-2.7z"/>
		<path d="m258.2 406.7c0-2.3-0.4-3.2-2.5-5.4h1.8v-5.5h-16.5v5.5h8.7c2 0 3.3 1 3.3 2.8 0 1.7-0.9 2.1-2.5 2.1h-9.5v6h10.1c4.4 0.1 7.1-1.5 7.1-5.5z"/>
		<path d="m258.2 337.6c0-2.3-0.4-3.2-2.5-5.4h1.8v-5.5h-16.5v5.8h8.7c2 0 3.5 0.8 3.5 2.6 0 1.7-1.2 2-2.8 2h-9.4v6h10.1c4.4 0.1 7.1-1.5 7.1-5.5z"/>
	</g>
	
		
			
				
					
						<rect x="77.2" y="349.4" width="12" height="29.1" fill="#90979A"/>
						<path d="m97 358.7c0.5 0 0.9 2.3 0.9 5.2s-0.4 5.2-0.9 5.2-0.9-2.3-0.9-5.2 0.4-5.2 0.9-5.2z" fill="#90979A"/>
						<g fill="#35383B">
							<path d="m83.7 354.2c0 0.9-0.2 1.5-0.5 1.9s-0.7 0.6-1.2 0.6-1-0.2-1.3-0.7-0.5-1.1-0.5-1.9c0-0.7 0.1-1.2 0.4-1.6s0.6-0.6 0.9-0.6c0.2 0 0.4 0.1 0.6 0.3 0.1 0.2 0.2 0.4 0.2 0.6s-0.1 0.4-0.2 0.6-0.3 0.2-0.5 0.2c-0.3 0-0.5-0.2-0.7-0.5 0-0.1-0.1-0.1-0.1-0.1-0.1 0-0.2 0.1-0.2 0.3-0.1 0.2-0.1 0.4-0.1 0.6 0 0.7 0.5 1 1.5 1s1.5-0.4 1.5-1.3v-0.7c0-0.1 0.1-0.2 0.2-0.2s0.2 0.1 0.2 0.2v0.5c0 0.5 0.1 0.9 0.3 1 0.2 0.2 0.6 0.3 1 0.3s0.8-0.1 1-0.2 0.3-0.4 0.3-0.7c0-0.2 0-0.3-0.1-0.5s-0.1-0.2-0.2-0.2-0.1 0.1-0.2 0.2c-0.2 0.3-0.4 0.4-0.6 0.4s-0.3-0.1-0.5-0.2c-0.1-0.1-0.2-0.3-0.2-0.5s0.1-0.4 0.2-0.6 0.3-0.3 0.5-0.3c0.3 0 0.6 0.2 0.9 0.6 0.2 0.4 0.4 0.9 0.4 1.4 0 0.7-0.1 1.2-0.4 1.6s-0.6 0.7-1.1 0.7c-0.8 0.2-1.3-0.6-1.5-2.2z"/>
							<path d="m86.5 362.1h-5.8v0.6c0 0.9 0.2 1.4 0.7 1.6s1.2 0.3 2.4 0.3c0.9 0 1.5-0.1 1.9-0.2s0.6-0.3 0.7-0.5 0.2-0.5 0.2-0.9v-0.9zm-5.9-1.7h5.8v-0.9h0.3v3.7c0 1.1-0.3 1.9-0.9 2.5s-1.4 0.9-2.3 0.9c-0.5 0-0.9-0.1-1.3-0.3s-0.8-0.5-1.1-0.9-0.6-0.8-0.7-1.2-0.1-0.9-0.1-1.5v-3.2h0.3v0.9z"/>
							<path d="m83.5 373.6c1 0 1.6 0 2-0.1 0.3 0 0.6-0.1 0.8-0.3s0.3-0.5 0.3-0.8-0.1-0.6-0.2-0.8c-0.2-0.2-0.4-0.3-0.8-0.4-0.3 0-1-0.1-2-0.1s-1.6 0-2 0.1c-0.3 0-0.6 0.2-0.8 0.3-0.2 0.2-0.3 0.5-0.3 0.8s0.1 0.6 0.2 0.8c0.2 0.2 0.4 0.3 0.7 0.4 0.5 0.1 1.1 0.1 2.1 0.1zm0.1-4.4c1 0 1.8 0.3 2.4 1 0.6 0.6 0.9 1.4 0.9 2.3 0 0.8-0.3 1.6-0.9 2.2-0.6 0.7-1.4 1-2.5 1-1 0-1.8-0.3-2.4-0.9s-0.9-1.4-0.9-2.3c0-1 0.3-1.8 1-2.4 0.6-0.6 1.4-0.9 2.4-0.9z"/>
						</g>
						<path d="m105.6 359.5c2.4 0 4.4 2 4.4 4.4s-2 4.4-4.4 4.4-4.4-2-4.4-4.4c-0.1-2.4 1.9-4.4 4.4-4.4z" fill="#90979A"/>
						<path d="m117.1 359.8c-0.4-0.6-2.9-0.8-2.9-0.8s-2.5 0.2-2.9 0.8-0.7 4.1-0.7 4.1 0.3 3.5 0.7 4.1 2.9 0.8 2.9 0.8 2.5-0.2 2.9-0.8 0.7-4.1 0.7-4.1-0.3-3.4-0.7-4.1z" fill="#90979A"/>
						<polygon points="128.4 363.9 123.3 369.1 118.1 363.9 123.3 358.7" fill="#90979A"/>
					
				
			
			
				<rect transform="matrix(-1.837e-16 1 -1 -1.837e-16 470.59 257.24)" x="92.1" y="334.4" width="29.1" height="59" fill="none" stroke="#90979A" stroke-miterlimit="10"/>
		
	
	<g fill="#373F43">
		<polygon points="102.1 172.9 90.4 172.9 96.2 161.2"/>
		<polygon points="102.1 161.2 90.4 161.2 96.2 149.5"/>
	</g>
	<g fill="#373F43">
		<polygon points="241.8 147.4 230.1 147.4 236 159.1"/>
		<polygon points="241.8 159.1 230.1 159.1 236 170.8"/>
	</g>
	<g fill="#373F43">
		<polygon points="170.4 97.7 162.6 97.7 166.5 89.9"/>
		<polygon points="170.4 89.9 162.6 89.9 166.5 82.1"/>
		
			<rect transform="matrix(-1.837e-16 1 -1 -1.837e-16 247.5 -85.46)" x="165.4" y="77.1" width="2.2" height="7.8"/>
	</g>
	<g fill="#373F43">
		<polygon points="170.4 221.6 162.6 221.6 166.5 229.4"/>
		<polygon points="170.4 229.4 162.6 229.4 166.5 237.3"/>
		
			<rect transform="matrix(4.4677e-11 -1 1 4.4677e-11 -71.864 404.82)" x="165.4" y="234.4" width="2.2" height="7.8"/>
	</g>
	
		<rect transform="matrix(-1.837e-16 1 -1 -1.837e-16 495.79 120.93)" x="181.8" y="302.7" width="11.3" height="11.3" fill="#90979A"/>
	
		<rect transform="matrix(-1.837e-16 1 -1 -1.837e-16 602.38 227.06)" x="185.4" y="409" width="4.6" height="11.4" fill="#90979A"/>
	
		<rect transform="matrix(-1.837e-16 1 -1 -1.837e-16 609.07 233.75)" x="185.4" y="415.7" width="4.6" height="11.4" fill="#90979A"/>
	<polygon points="182 387.4 193.3 387.4 187.7 400.7" fill="#90979A"/>
	
		<rect transform="matrix(-.5319 .8468 -.8468 -.5319 631.64 462.71)" x="187.1" y="399.5" width="1.8" height="13" fill="#90979A"/>
	
		
			<ellipse transform="matrix(.1602 -.9871 .9871 .1602 -17.807 298.43)" cx="166.5" cy="159.7" rx="58" ry="58" fill="#211915"/>
		<circle cx="166.5" cy="159.7" r="57.3" fill="#97897F"/>
		<g fill="none" stroke="#211915" stroke-miterlimit="10" stroke-width=".25">
			<path d="m222.5 145.9h-37.3c-1.5 0-2.8-0.4-3.7-1.4s-1.2-2.4-1.2-4.1v-37.3"/>
			<path d="m152.9 103.6v37.3c0 1.5-0.4 2.8-1.4 3.7s-2.4 1.2-4.1 1.2h-37.3"/>
			<path d="m110.4 173.5h37.3c1.5 0 2.8 0.4 3.7 1.4s1.2 2.4 1.2 4.1v37.3"/>
			<path d="m180.1 216v-37.3c0-1.5 0.4-2.8 1.4-3.7s2.4-1.2 4.1-1.2h37.3"/>
		</g>
		<path d="m179.3 159.7c0-7.1-5.8-13-12.8-13-7.1 0-12.8 5.8-12.8 13s5.7 13 12.8 13c7-0.1 12.8-5.9 12.8-13z" fill="#8E837B"/>
	
	<path d="m315 451.1 2.8-107.9h5.3c1.1 0 2 0.9 2 2l-3.5 104.5c0 0.8-0.7 1.4-1.6 1.4h-5z" fill="#41403E"/>
	<path d="m317.7 359.1c0-67.1-5.8-129.4-15.7-180.8s-23.8-91.9-40.3-115.5l-0.3-0.5c-25.4-37.3-69.2-62-118.9-62-78.6 0-142.3 61.4-142.3 137.1 0 21.1 4.9 41.1 13.8 59l0.2 0.2v0.1c23 45.6 37.5 100.8 37.5 167.4v3.5c0 66.6-14.5 121.8-37.5 167.4l-0.1 0.1v0.1h-0.1c-8.8 17.9-13.8 37.9-13.8 59 0 75.7 63.7 137.2 142.2 137.2 49.7 0 93.5-24.6 118.9-62l0.3-0.5c16.5-23.7 30.4-64.1 40.3-115.5s15.7-113.7 15.7-180.8v-13.5h0.1z" fill="none" stroke="#211915" stroke-miterlimit="10" stroke-width=".5"/>
	<path id="path9_1_" d="m264.5 664.9c12.9-20.6 20.3-44.8 20.3-70.6 0-75.7-63.7-137.2-142.2-137.2-58 0-107.8 33.5-129.9 81.5" fill="none" stroke="#211915" stroke-miterlimit="10" stroke-width=".5"/>
	<path id="path3_1_" d="m11.6 190.7c21.9 49.4 71.1 83.9 128.4 83.9 77.6 0 140.5-63.2 140.5-141.2 0-26.6-7.3-51.5-20-72.7" fill="none" stroke="#211915" stroke-miterlimit="10" stroke-width=".5"/>
	
		
			<ellipse cx="166.5" cy="579.3" rx="32.2" ry="31" fill="#211915"/>
			<ellipse cx="166.5" cy="579.3" rx="29.7" ry="28.6" fill="#9F9288"/>
		
		<circle cx="166.5" cy="579.3" r="7.1" fill="#8E837B"/>
	

</svg>
