<?xml version="1.0" encoding="UTF-8"?>
<!-- Generator: Adobe Illustrator 19.0.0, SVG Export Plug-In . SVG Version: 6.00 Build 0)  -->
<svg id="Layer_1" version="1.1" viewBox="0 0 303.7 728.2" xml:space="preserve" xmlns="http://www.w3.org/2000/svg">
<g id="g80">
	<path id="path1" d="M11,728.2c-4.8,0-8.6-3.9-8.6-8.6V264.1c0-4.8,3.9-8.6,8.6-8.6h281.8c4.8,0,8.6,3.9,8.6,8.6v455.5   c0,4.8-3.9,8.6-8.6,8.6H11z" fill="#bd9a4e"/>
	<path id="path2" d="m292.8 726.2h-281.8c-3.6 0-6.6-3-6.6-6.6v-455.5c0-3.6 3-6.6 6.6-6.6h281.8c3.6 0 6.6 3 6.6 6.6v455.5c0 3.6-3 6.6-6.6 6.6z" fill="#ccb176"/>
	<rect id="rect2" y="176" width="8" height="75.3" fill="#a69372"/>
	<rect id="rect3" x="15.8" y="173" width="271.8" height="91.9" fill="#bd9a4e"/>
	<rect id="rect4" x="17.3" y="174.5" width="268.8" height="88.9" fill="#ccb176"/>
	<rect id="rect5" x="18.8" y="176" width="265.8" height="85.9" fill="#e2c99a"/>
	<path id="path5" d="m2.1 168.1v-155.5c0-4.3 3.5-7.9 7.9-7.9h283.5c4.3 0 7.9 3.5 7.9 7.9v155.5c0 4.3-3.5 7.9-7.9 7.9h-283.5c-4.3 0-7.9-3.6-7.9-7.9z" fill="#bd9a4e"/>
	<path id="path6" d="m293.5 176h-283.5c-3.8 0-6.9-3.1-6.9-6.9v-156.5c0-3.8 3.1-6.9 6.9-6.9h283.5c3.8 0 6.9 3.1 6.9 6.9v156.5c0 3.8-3.1 6.9-6.9 6.9z" fill="#ccb176"/>
	<path id="path7" d="m290.4 176h-277.3c-3.8 0-6.9-3.1-6.9-6.9v-153.5c0-3.8 3.1-6.9 6.9-6.9h277.3c3.8 0 6.9 3.1 6.9 6.9v153.5c0 3.8-3.1 6.9-6.9 6.9z" fill="#ecdbbd"/>
	<path id="path8" d="m151.8 155.2c-38.5 0-69.9-31.4-69.9-69.9s31.4-69.9 69.9-69.9 69.9 31.4 69.9 69.9-31.4 69.9-69.9 69.9z" fill="#e2c89a" stroke="#e2c99d"/>
	<path id="path9" d="m151.7 152.2c-36.9 0-66.9-30-66.9-66.9s30-66.9 66.9-66.9 66.9 30 66.9 66.9-30 66.9-66.9 66.9z" fill="#8a7f61" stroke="#4f4a37"/>
	<rect id="rect9" x="149" y="139.4" width="5.5" height="15.8" fill="#e2c89a" stroke="#dab474"/>
	<path id="path10" d="m151.7 133.8c-36.9 0-66.9-30-66.9-66.9s30.1-66.9 66.9-66.9 66.9 30 66.9 66.9-30 66.9-66.9 66.9z" fill="#7e6e5f" stroke="#423932"/>
	<path id="path11" d="M151.7,131.8c-35.8,0-64.9-29.1-64.9-64.9S116,2,151.7,2s64.9,29.1,64.9,64.9S187.5,131.8,151.7,131.8z" fill="#a69372" stroke="#4c4034"/>
	<circle id="circle11" cx="151.8" cy="66.9" r="52.9" fill="#d2bea5" stroke="#513e2a"/>
	<rect id="rect11" x="8" y="176" width="8" height="75.3" fill="#d2bea5"/>
	<rect id="rect12" x="295.7" y="176" width="8" height="75.3" fill="#a69372"/>
	<rect id="rect13" x="287.7" y="176" width="8" height="75.3" fill="#d2bea5"/>
	<path id="path13" d="m290.9 726.2h-278.3c-3.6 0-6.6-3-6.6-6.6v-452.8c0-3.6 3-6.6 6.6-6.6h278.3c3.6 0 6.6 3 6.6 6.6v452.8c0 3.6-3 6.6-6.6 6.6z" fill="#d7c395"/>
	<path id="path14" d="M25.8,254.8V183c0-2.6,2.1-4.8,4.8-4.8h242c2.6,0,4.8,2.1,4.8,4.8v71.9l18.8,14.7v439.6   c0,3-2.4,5.4-5.4,5.4H12.3c-3,0-5.4-2.4-5.4-5.4V269.5L25.8,254.8z" fill="#e3d4b5"/>
	<path id="path15" d="m91.9 429.8h-48c-6.6 0-12-5.4-12-12v-52.8c0-6.6 5.4-12 12-12h48c6.6 0 12 5.4 12 12v52.8c0 6.6-5.4 12-12 12z" fill="#463928"/>
	<path id="path16" d="m90.1 429.8h-45c-6.6 0-12-5.4-12-12v-46.1c0-6.6 5.4-12 12-12h45c6.6 0 12 5.4 12 12v46.1c0 6.6-5.4 12-12 12z" fill="#706353"/>
	<path id="path17" d="m90.4 429.8h-45c-6.6 0-12-5.4-12-12v-39.8c0-6.6 5.4-12 12-12h45c6.6 0 12 5.4 12 12v39.8c0 6.6-5.4 12-12 12z" fill="#92836e"/>
	<g id="g18">
		<path id="path18" d="m69.1 385.8-5.8 3-0.9-3.3 7.1-3.8h3.7v32.5h-4.2v-28.4z"/>
	</g>
	<g id="g21">
		<path id="path19" d="m175.8 429.8h-48c-6.6 0-12-5.4-12-12v-52.8c0-6.6 5.4-12 12-12h48c6.6 0 12 5.4 12 12v52.8c0 6.6-5.4 12-12 12z" fill="#282627"/>
		<path id="path20" d="m174 429.8h-45c-6.6 0-12-5.4-12-12v-46.1c0-6.6 5.4-12 12-12h45c6.6 0 12 5.4 12 12v46.1c0 6.6-5.4 12-12 12z" fill="#939393"/>
		<path id="path21" d="m174 429.8h-45c-6.6 0-12-5.4-12-12v-39.8c0-6.6 5.4-12 12-12h45c6.6 0 12 5.4 12 12v39.8c0 6.6-5.4 12-12 12z" fill="#B3B3B3"/>
	</g>
	<text id="text21" transform="translate(137.9 405.26)" font-family="'MyriadHebrew-Regular'" font-size="54px">1</text>
	<path id="path22" d="m175.5 429.8h-48c-6.6 0-12-5.4-12-12v-52.8c0-6.6 5.4-12 12-12h48c6.6 0 12 5.4 12 12v52.8c0 6.6-5.4 12-12 12z" fill="#463928"/>
	<path id="path23" d="m173.8 429.8h-45c-6.6 0-12-5.4-12-12v-46.1c0-6.6 5.4-12 12-12h45c6.6 0 12 5.4 12 12v46.1c0 6.6-5.4 12-12 12z" fill="#706353"/>
	<path id="path24" d="m174.2 429.8h-45c-6.6 0-12-5.4-12-12v-39.8c0-6.6 5.4-12 12-12h45c6.6 0 12 5.4 12 12v39.8c0 6.6-5.4 12-12 12z" fill="#92836e"/>
	<g id="g25">
		<path id="path25" d="m141.4 414.5v-2.7l3.5-3.3c8.3-7.9 12.1-12.2 12.1-17.1 0-3.3-1.6-6.4-6.5-6.4-3 0-5.4 1.5-6.9 2.8l-1.4-3.1c2.3-1.9 5.5-3.3 9.2-3.3 7 0 9.9 4.8 9.9 9.5 0 6-4.4 10.9-11.2 17.5l-2.6 2.5v0.1h14.6v3.6h-20.7z"/>
	</g>
	<path id="path26" d="m259.1 429.8h-48c-6.6 0-12-5.4-12-12v-52.8c0-6.6 5.4-12 12-12h48c6.6 0 12 5.4 12 12v52.8c0 6.6-5.4 12-12 12z" fill="#463928"/>
	<path id="path27" d="m257.4 429.8h-45c-6.6 0-12-5.4-12-12v-46.1c0-6.6 5.4-12 12-12h45c6.6 0 12 5.4 12 12v46.1c0 6.6-5.4 12-12 12z" fill="#706353"/>
	<path id="path28" d="m257.8 429.8h-45c-6.6 0-12-5.4-12-12v-39.8c0-6.6 5.4-12 12-12h45c6.6 0 12 5.4 12 12v39.8c0 6.6-5.4 12-12 12z" fill="#92836e"/>
	<g id="g29">
		<path id="path29" d="m226.4 409.1c1.3 0.8 4.1 2.1 7.2 2.1 5.7 0 7.4-3.6 7.4-6.3-0.1-4.5-4.2-6.5-8.4-6.5h-2.5v-3.3h2.5c3.2 0 7.3-1.7 7.3-5.5 0-2.6-1.7-4.9-5.7-4.9-2.6 0-5.1 1.2-6.5 2.2l-1.1-3.2c1.7-1.3 5-2.5 8.5-2.5 6.4 0 9.4 3.8 9.4 7.8 0 3.4-2 6.2-6 7.7v0.1c4 0.8 7.3 3.8 7.3 8.3 0 5.2-4.1 9.8-11.9 9.8-3.7 0-6.9-1.1-8.5-2.3l1-3.5z"/>
	</g>
	<path id="path30" d="m92.1 516.1h-48c-6.6 0-12-5.4-12-12v-52.8c0-6.6 5.4-12 12-12h48c6.6 0 12 5.4 12 12v52.8c0 6.6-5.4 12-12 12z" fill="#463928"/>
	<path id="path31" d="m90.4 516.1h-45c-6.6 0-12-5.4-12-12v-46.1c0-6.6 5.4-12 12-12h45c6.6 0 12 5.4 12 12v46.1c0 6.6-5.4 12-12 12z" fill="#706353"/>
	<path id="path32" d="m89.9 516.1h-45c-6.6 0-12-5.4-12-12v-39.8c0-6.6 5.4-12 12-12h45c6.6 0 12 5.4 12 12v39.8c0 6.6-5.4 12-12 12z" fill="#92836e"/>
	<g id="g33">
		<path id="path33" d="m70.6 500.5v-8.9h-15.1v-2.9l14.5-20.7h4.8v20.3h4.6v3.4h-4.6v8.9h-4.2zm0-12.2v-10.9c0-1.7 0.1-3.4 0.2-5.1h-0.2c-1 2-1.8 3.4-2.7 4.9l-8 11.1v0.1h10.7z"/>
	</g>
	<path id="path34" d="m175.7 516.1h-48c-6.6 0-12-5.4-12-12v-52.8c0-6.6 5.4-12 12-12h48c6.6 0 12 5.4 12 12v52.8c0 6.6-5.4 12-12 12z" fill="#463928"/>
	<path id="path35" d="m174 516.1h-45c-6.6 0-12-5.4-12-12v-46.1c0-6.6 5.4-12 12-12h45c6.6 0 12 5.4 12 12v46.1c0 6.6-5.4 12-12 12z" fill="#706353"/>
	<path id="path36" d="m174.2 516.1h-45c-6.6 0-12-5.4-12-12v-39.8c0-6.6 5.4-12 12-12h45c6.6 0 12 5.4 12 12v39.8c0 6.6-5.4 12-12 12z" fill="#92836e"/>
	<g id="g37">
		<path id="path37" d="m161.2 471.4h-12.4l-1.3 8.4c0.8-0.1 1.5-0.2 2.7-0.2 2.5 0 5 0.6 7 1.8 2.5 1.5 4.7 4.3 4.7 8.4 0 6.4-5.1 11.1-12.1 11.1-3.5 0-6.5-1-8.1-2l1.1-3.4c1.3 0.8 4 1.8 7 1.8 4.1 0 7.7-2.7 7.7-7.1 0-4.2-2.9-7.2-9.4-7.2-1.9 0-3.3 0.2-4.5 0.4l2.1-15.6h15.6v3.6z"/>
	</g>
	<path id="path38" d="m259.4 516.1h-48c-6.6 0-12-5.4-12-12v-52.8c0-6.6 5.4-12 12-12h48c6.6 0 12 5.4 12 12v52.8c0 6.6-5.4 12-12 12z" fill="#463928"/>
	<path id="path39" d="m257.6 516.1h-45c-6.6 0-12-5.4-12-12v-46.1c0-6.6 5.4-12 12-12h45c6.6 0 12 5.4 12 12v46.1c0 6.6-5.4 12-12 12z" fill="#706353"/>
	<path id="path40" d="m257.8 516.1h-45c-6.6 0-12-5.4-12-12v-39.8c0-6.6 5.4-12 12-12h45c6.6 0 12 5.4 12 12v39.8c0 6.6-5.4 12-12 12z" fill="#92836e"/>
	<g id="g41">
		<path id="path41" d="m243.3 471.1c-0.9 0-2 0-3.3 0.3-6.9 1.1-10.6 6.2-11.3 11.6h0.1c1.5-2.2 4.3-3.9 7.9-3.9 5.8 0 9.8 4.2 9.8 10.6 0 6-4.1 11.5-10.9 11.5-6.9 0-11.5-5.4-11.5-13.9 0-6.4 2.3-11.5 5.5-14.7 2.7-2.7 6.3-4.3 10.4-4.8 1.3-0.2 2.3-0.3 3.2-0.3v3.6zm-1.2 18.8c0-4.7-2.6-7.5-6.7-7.5-2.7 0-5.2 1.6-6.4 4-0.3 0.5-0.4 1.2-0.4 1.9 0.1 5.4 2.5 9.4 7.2 9.4 3.7 0 6.3-3.2 6.3-7.8z"/>
	</g>
	<path id="path42" d="m92.1 602.5h-48c-6.6 0-12-5.4-12-12v-52.8c0-6.6 5.4-12 12-12h48c6.6 0 12 5.4 12 12v52.8c0 6.6-5.4 12-12 12z" fill="#463928"/>
	<path id="path43" d="m90.4 602.5h-45c-6.6 0-12-5.4-12-12v-46.1c0-6.6 5.4-12 12-12h45c6.6 0 12 5.4 12 12v46.1c0 6.6-5.4 12-12 12z" fill="#706353"/>
	<path id="path44" d="m90.4 602.5h-45c-6.6 0-12-5.4-12-12v-39.8c0-6.6 5.4-12 12-12h45c6.6 0 12 5.4 12 12v39.8c0 6.6-5.4 12-12 12z" fill="#92836e"/>
	<g id="g45">
		<path id="path45" d="M78.2,554.4v2.9L64,586.9h-4.5l14.1-28.8V558H57.7v-3.7H78.2z"/>
	</g>
	<path id="path46" d="m175.7 602.5h-48c-6.6 0-12-5.4-12-12v-52.8c0-6.6 5.4-12 12-12h48c6.6 0 12 5.4 12 12v52.8c0 6.6-5.4 12-12 12z" fill="#463928"/>
	<path id="path47" d="m174 602.5h-45c-6.6 0-12-5.4-12-12v-46.1c0-6.6 5.4-12 12-12h45c6.6 0 12 5.4 12 12v46.1c0 6.6-5.4 12-12 12z" fill="#706353"/>
	<path id="path48" d="m174 602.5h-45c-6.6 0-12-5.4-12-12v-39.8c0-6.6 5.4-12 12-12h45c6.6 0 12 5.4 12 12v39.8c0 6.6-5.4 12-12 12z" fill="#92836e"/>
	<g id="g49">
		<path id="path49" d="m140.5 578.6c0-4 2.4-7 6.4-8.7v-0.2c-3.6-1.7-5.2-4.5-5.2-7.3 0-5.1 4.4-8.7 10.1-8.7 6.3 0 9.5 4 9.5 8 0 2.8-1.4 5.7-5.4 7.6v0.1c4.1 1.6 6.6 4.5 6.6 8.4 0 5.7-4.9 9.5-11.1 9.5-6.8 0.1-10.9-3.9-10.9-8.7zm17.5-0.2c0-3.9-2.8-5.9-7.2-7.1-3.8 1-5.9 3.6-5.9 6.7-0.2 3.3 2.3 6.2 6.5 6.2 4.1 0 6.6-2.4 6.6-5.8zm-12.1-16.2c0 3.3 2.5 5 6.2 6 2.8-1 4.9-3 4.9-5.9 0-2.6-1.5-5.3-5.5-5.3-3.6 0-5.6 2.4-5.6 5.2z"/>
	</g>
	<path id="path50" d="m259.4 602.5h-48c-6.6 0-12-5.4-12-12v-52.8c0-6.6 5.4-12 12-12h48c6.6 0 12 5.4 12 12v52.8c0 6.6-5.4 12-12 12z" fill="#463928"/>
	<path id="path51" d="m257.6 602.5h-45c-6.6 0-12-5.4-12-12v-46.1c0-6.6 5.4-12 12-12h45c6.6 0 12 5.4 12 12v46.1c0 6.6-5.4 12-12 12z" fill="#706353"/>
	<path id="path52" d="m257.3 602.5h-45c-6.6 0-12-5.4-12-12v-39.8c0-6.6 5.4-12 12-12h45c6.6 0 12 5.4 12 12v39.8c0 6.6-5.4 12-12 12z" fill="#92836e"/>
	<g id="g53">
		<path id="path53" d="m226.6 583.8c0.9 0.1 2 0 3.5-0.1 2.5-0.4 5-1.4 6.8-3.2 2.1-2 3.7-4.8 4.3-8.7h-0.2c-1.8 2.3-4.4 3.5-7.7 3.5-5.8 0-9.6-4.4-9.6-10 0-6.2 4.5-11.6 11.1-11.6s10.8 5.4 10.8 13.7c0 7.2-2.4 12.2-5.6 15.3-2.5 2.5-6 4-9.5 4.4-1.6 0.3-3 0.3-4 0.3v-3.6zm1.6-18.7c0 4 2.5 6.9 6.3 6.9 2.9 0 5.2-1.5 6.3-3.5 0.2-0.4 0.5-0.8 0.5-1.6 0-5.6-2.1-9.8-6.7-9.8-3.7 0.1-6.4 3.4-6.4 8z"/>
	</g>
	<path id="path54" d="m92.1 694.8h-48c-6.6 0-12-5.4-12-12v-52.8c0-6.6 5.4-12 12-12h48c6.6 0 12 5.4 12 12v52.8c0 6.6-5.4 12-12 12z" fill="#282627"/>
	<path id="path55" d="m90.4 694.8h-45c-6.6 0-12-5.4-12-12v-46.1c0-6.6 5.4-12 12-12h45c6.6 0 12 5.4 12 12v46.1c0 6.6-5.4 12-12 12z" fill="#2F3133"/>
	<path id="path56" d="m90.4 694.8h-45c-6.6 0-12-5.4-12-12v-39.8c0-6.6 5.4-12 12-12h45c6.6 0 12 5.4 12 12v39.8c0 6.6-5.4 12-12 12z" fill="#36393B"/>
	<g id="g57">
		<path id="path57" d="m70.7 648.7-1.6 11.9 0.1 0.2 9.4-7.2 2.6 4.6-10.8 4.6 0.1 0.1 11.1 4.4-2.8 4.8-9.5-7-0.1 0.1 1.1 12-5.3-0.2 1.6-11.9-0.1-0.1-9.2 7-2.6-4.6 10.5-4.4v-0.2l-11-4.6 2.7-4.7 9.5 6.9 0.1-0.1-1.3-11.7 5.5 0.1z" fill="#92836e"/>
	</g>
	<path id="path58" d="m175.7 694.8h-48c-6.6 0-12-5.4-12-12v-52.8c0-6.6 5.4-12 12-12h48c6.6 0 12 5.4 12 12v52.8c0 6.6-5.4 12-12 12z" fill="#463928"/>
	<path id="path59" d="m174 694.8h-45c-6.6 0-12-5.4-12-12v-46.1c0-6.6 5.4-12 12-12h45c6.6 0 12 5.4 12 12v46.1c0 6.6-5.4 12-12 12z" fill="#706353"/>
	<path id="path60" d="m174.2 694.8h-45c-6.6 0-12-5.4-12-12v-39.8c0-6.6 5.4-12 12-12h45c6.6 0 12 5.4 12 12v39.8c0 6.6-5.4 12-12 12z" fill="#92836e"/>
	<g id="g61">
		<path id="path61" d="m162.8 662.6c0 11-4.1 17.2-11.3 17.2-6.4 0-10.7-6-10.8-16.7 0-10.9 4.7-16.9 11.3-16.9 6.9-0.1 10.8 6 10.8 16.4zm-17.7 0.5c0 8.5 2.6 13.3 6.6 13.3 4.5 0 6.7-5.3 6.7-13.5 0-8-2-13.2-6.6-13.2-3.9-0.1-6.7 4.5-6.7 13.4z"/>
	</g>
	<path id="path62" d="m258.3 694.8h-48c-6.6 0-12-5.4-12-12v-52.8c0-6.6 5.4-12 12-12h48c6.6 0 12 5.4 12 12v52.8c0 6.6-5.4 12-12 12z" fill="#282627"/>
	<path id="path63" d="m256.6 694.8h-45c-6.6 0-12-5.4-12-12v-46.1c0-6.6 5.4-12 12-12h45c6.6 0 12 5.4 12 12v46.1c0 6.6-5.4 12-12 12z" fill="#2F3133"/>
	<path id="path64" d="m256.6 694.8h-45c-6.6 0-12-5.4-12-12v-39.8c0-6.6 5.4-12 12-12h45c6.6 0 12 5.4 12 12v39.8c0 6.6-5.4 12-12 12z" fill="#36393B"/>
	<g id="g65">
		<path id="path65" d="m226.3 679.2 1.3-9.8h-4.1v-3h4.5l1-7.3h-4.4v-3h4.8l1.3-9.6h2.9l-1.3 9.6h5.2l1.3-9.6h3l-1.3 9.6h4v3h-4.5l-0.9 7.3h4.3v3h-4.8l-1.3 9.8h-3l1.3-9.8h-5.2l-1.3 9.8h-2.8zm10-12.8 1-7.3h-5.3l-1 7.3h5.3z" fill="#92836e"/>
	</g>
	<rect id="rect65" x="15.8" y="257.5" width="1.5" height="2.8" fill="#ccb176"/>
	<rect id="rect66" x="286.2" y="257.5" width="1.5" height="2.8" fill="#ccb176"/>
	<g id="g79">
		<path id="path66" d="m210.7 231.2h-117.9c-6.6 0-12-5.4-12-12v-6c0-6.6 5.4-12 12-12h117.8c6.6 0 12 5.4 12 12v6c0.1 6.6-5.3 12-11.9 12z" fill="#f4e6cb" stroke="#ccb78c"/>
		<g id="g78">
			<path id="path67" d="m151.6 215.9" fill="#171717"/>
			<path id="path68" d="m151.6 215.9" fill="#1B1B1B"/>
			<polygon id="polygon68" points="133.6 225.6 133.6 206.8 139.6 206.8 139.6 220.2 151 220.2 151 225.6" fill="#232323"/>
			<polygon id="polygon69" points="139.1 220.7 150.5 220.7 150.5 225.1 134.1 225.1 134.1 207.3 139.1 207.3" fill="#f2e4c9" stroke="#85641b" stroke-opacity=".35"/>
			<polygon id="polygon70" points="151.6 225.6 151.6 206.8 170.3 206.8 170.3 211.9 157.6 211.9 157.6 213.9 169.4 213.9 169.4 218.4 157.6 218.4 157.6 220.6 170.3 220.6 170.3 225.6" fill="#232323"/>
			<polygon id="polygon71" points="152.1 207.3 169.8 207.3 169.8 211.4 157.1 211.4 157.1 214.4 168.9 214.4 168.9 217.9 157.1 217.9 157.1 221.1 169.8 221.1 169.8 225.1 152.1 225.1" fill="#f2e4c9" stroke="#85641b" stroke-opacity=".35"/>
			<path id="path71" d="m115.4 225.3c-3 0-5.5-2.6-5.5-5.9v-6.8c0-3.3 2.5-5.9 5.5-5.9h12.2c3 0 5.5 2.6 5.5 5.9v6.8c0 3.3-2.5 5.9-5.5 5.9h-12.2zm2.4-13.5c-1.3 0-2.4 1.2-2.4 2.6v3.4c0 1.4 1.1 2.6 2.4 2.6h7.4c1.3 0 2.4-1.2 2.4-2.6v-3.4c0-1.4-1.1-2.6-2.4-2.6h-7.4z" fill="#232323"/>
			<path id="path72" d="m127.7 207.3h-12.2c-2.8 0-5 2.4-5 5.4v6.8c0 3 2.2 5.4 5 5.4h12.2c2.8 0 5-2.4 5-5.4v-6.8c0-3-2.3-5.4-5-5.4zm0.4 10.5c0 1.7-1.3 3.1-2.9 3.1h-7.4c-1.6 0-2.9-1.4-2.9-3.1v-3.4c0-1.7 1.3-3.1 2.9-3.1h7.4c1.6 0 2.9 1.4 2.9 3.1v3.4z" fill="#f2e4c9" stroke="#85641b" stroke-opacity=".35"/>
			<path id="path73" d="m92.8 225.3c-2.9 0-5.3-2.6-5.3-5.9v-6.8c0-3.3 2.4-5.9 5.3-5.9h11.6c2.9 0 5.3 2.6 5.3 5.9v1.5h-5.3l-0.1-0.4c-0.2-1.2-1.1-2-2.1-2h-7c-1.2 0-2.2 1.2-2.2 2.6v3.4c0 1.4 1 2.6 2.2 2.6h7c1 0 1.9-0.8 2.1-2l0.1-0.4h5.3v1.5c0 3.3-2.4 5.9-5.3 5.9h-11.6z" fill="#232323"/>
			<path id="path74" d="m104.7 218.5c-0.3 1.4-1.4 2.4-2.6 2.4h-7c-1.5 0-2.7-1.4-2.7-3.1v-3.4c0-1.7 1.2-3.1 2.7-3.1h7c1.3 0 2.3 1 2.6 2.4h4.4v-1c0-3-2.1-5.4-4.8-5.4h-11.5c-2.6 0-4.8 2.4-4.8 5.4v6.8c0 3 2.1 5.4 4.8 5.4h11.6c2.6 0 4.8-2.4 4.8-5.4v-1h-4.5z" fill="#f2e4c9" stroke="#85641b" stroke-opacity=".35"/>
			<path id="path75" d="m198.3 225.3c-3 0-5.5-2.6-5.5-5.9v-6.8c0-3.3 2.5-5.9 5.5-5.9h12.2c3 0 5.5 2.6 5.5 5.9v6.8c0 3.3-2.5 5.9-5.5 5.9h-12.2zm2.4-13.5c-1.3 0-2.4 1.2-2.4 2.6v3.4c0 1.4 1.1 2.6 2.4 2.6h7.4c1.3 0 2.4-1.2 2.4-2.6v-3.4c0-1.4-1.1-2.6-2.4-2.6h-7.4z" fill="#232323"/>
			<path id="path76" d="m210.5 207.3h-12.2c-2.8 0-5 2.4-5 5.4v6.8c0 3 2.2 5.4 5 5.4h12.2c2.8 0 5-2.4 5-5.4v-6.8c0-3-2.2-5.4-5-5.4zm0.4 10.5c0 1.7-1.3 3.1-2.9 3.1h-7.4c-1.6 0-2.9-1.4-2.9-3.1v-3.4c0-1.7 1.3-3.1 2.9-3.1h7.4c1.6 0 2.9 1.4 2.9 3.1v3.4z" fill="#f2e4c9" stroke="#85641b" stroke-opacity=".35"/>
			<path id="path77" d="m175.6 225.3c-2.9 0-5.3-2.6-5.3-5.9v-6.8c0-3.3 2.4-5.9 5.3-5.9h11.6c2.9 0 5.3 2.6 5.3 5.9v1.5h-5.3l-0.1-0.4c-0.2-1.2-1.1-2-2.1-2h-7c-1.2 0-2.2 1.2-2.2 2.6v3.4c0 1.4 1 2.6 2.2 2.6h7c1 0 1.9-0.8 2.1-2l0.1-0.4h5.3v1.5c0 3.3-2.4 5.9-5.3 5.9h-11.6z" fill="#232323"/>
			<path id="path78" d="m187.6 218.5c-0.3 1.4-1.4 2.4-2.6 2.4h-7c-1.5 0-2.7-1.4-2.7-3.1v-3.4c0-1.7 1.2-3.1 2.7-3.1h7c1.3 0 2.3 1 2.6 2.4h4.4v-1c0-3-2.1-5.4-4.8-5.4h-11.6c-2.6 0-4.8 2.4-4.8 5.4v6.8c0 3 2.1 5.4 4.8 5.4h11.6c2.6 0 4.8-2.4 4.8-5.4v-1h-4.4z" fill="#f2e4c9" stroke="#85641b" stroke-opacity=".35"/>
		</g>
	</g>
</g>
</svg>
