<?xml version="1.0" encoding="UTF-8"?>
<!-- Generator: Adobe Illustrator 19.0.0, SVG Export Plug-In . SVG Version: 6.00 Build 0)  -->
<svg id="Layer_1" baseProfile="tiny" version="1.1" viewBox="-261 285 87.2 221" xml:space="preserve" xmlns="http://www.w3.org/2000/svg">
<g id="XMLID_2_">
	<g id="XMLID_698_">
		<path d="m-214.2 367.6h-6v-50c0-18.4-9.3-26.6-30.2-26.6v-6c24 0 36.2 11 36.2 32.6v50z" fill="#60605D"/>
	</g>
	<polygon id="XMLID_697_" points="-207.6 362 -216.2 362 -216.2 360.4 -208.3 360.4 -209 358.4 -216.2 358.4 -216.2 356.8 -209.7 356.8 -210.6 354.4 -216.2 354.4 -216.2 352.8 -211.3 352.8 -212.2 350.4 -222.2 350.4 -223.1 352.8 -217.8 352.8 -217.8 354.4 -223.7 354.4 -224.6 356.8 -217.8 356.8 -217.8 358.4 -225.1 358.4 -225.9 360.4 -217.8 360.4 -217.8 362 -226.5 362 -227.8 365.6 -206.2 365.6" fill="#868580"/>
	<path id="XMLID_695_" d="m-253.8 364.4h72.8c4 0 7.2 3.2 7.2 7.2v127.2c0 4-3.2 7.2-7.2 7.2h-72.8c-4 0-7.2-3.2-7.2-7.2v-127.2c0-4 3.2-7.2 7.2-7.2z" fill="#C9C9C9"/>
	<path id="XMLID_693_" d="m-242.2 390.4h50.4c1.3 0 2.4 1.1 2.4 2.4v70.4c0 1.3-1.1 2.4-2.4 2.4h-50.4c-1.3 0-2.4-1.1-2.4-2.4v-70.4c0-1.4 1.1-2.4 2.4-2.4z" fill="#DCDBDB"/>
	<g id="XMLID_688_">
		<path id="XMLID_691_" d="m-242.2 376.5h16c1.3 0 2.4 1.1 2.4 2.4v32c0 1.3-1.1 2.4-2.4 2.4h-16c-1.3 0-2.4-1.1-2.4-2.4v-32c0-1.3 1.1-2.4 2.4-2.4z" fill="#60605D"/>
		<path id="XMLID_689_" d="m-242.2 374.4h16c1.3 0 2.4 1.1 2.4 2.4v32c0 1.3-1.1 2.4-2.4 2.4h-16c-1.3 0-2.4-1.1-2.4-2.4v-32c0-1.4 1.1-2.4 2.4-2.4z" fill="#868580"/>
	</g>
	<g id="XMLID_683_">
		<path id="XMLID_686_" d="m-207.8 376.5h16c1.3 0 2.4 1.1 2.4 2.4v32c0 1.3-1.1 2.4-2.4 2.4h-16c-1.3 0-2.4-1.1-2.4-2.4v-32c0-1.3 1.1-2.4 2.4-2.4z" fill="#60605D"/>
		<path id="XMLID_684_" d="m-207.8 374.4h16c1.3 0 2.4 1.1 2.4 2.4v32c0 1.3-1.1 2.4-2.4 2.4h-16c-1.3 0-2.4-1.1-2.4-2.4v-32c0-1.4 1.1-2.4 2.4-2.4z" fill="#868580"/>
	</g>
</g>
</svg>
