<?xml version="1.0" encoding="UTF-8"?>
<!-- Generator: Adobe Illustrator 19.0.0, SVG Export Plug-In . SVG Version: 6.00 Build 0)  -->
<svg id="Layer_1" width="837.3" height="490" version="1.1" viewBox="0 0 837.3 490" xml:space="preserve" xmlns="http://www.w3.org/2000/svg">

<g id="g1096" transform="rotate(-90 245 244.31)"><g id="g137">
	<g id="g4">
		<path id="path2" d="m489.5 528v-516c0-6.6-5.4-12-12-12h-465c-6.6 0-12 5.4-12 12v516c0 6.6 5.4 12 12 12h465c6.6 0 12-5.4 12-12z" fill="#a29583"/>
	</g>
	<g id="g8">
		<path id="path6" d="m369.6 99.4v-67c0-6.6-5.4-12-12-12h-62c-6.6 0-12 5.4-12 12v67c0 6.6 5.4 12 12 12h62c6.6 0 12-5.4 12-12z" fill="#d7250b"/>
	</g>
	<g id="g12">
		<path id="path10" d="m473.6 217.4v-67c0-6.6-5.4-12-12-12h-62c-6.6 0-12 5.4-12 12v67c0 6.6 5.4 12 12 12h62c6.6 0 12-5.4 12-12z" fill="#d7250b"/>
	</g>
	<g id="g18">
		<path id="path14" d="m0.5 128.4v399.6c0 6.6 5.4 12 12 12h357.1c6.6 0 12-5.4 12-12v-399.6c0-6.6-5.4-12-12-12h-357.1c-6.6 0-12 5.4-12 12z" fill="#a29583"/>
		<path id="path16" d="m0 528v-399.6c0-6.9 5.6-12.5 12.5-12.5h357.1c6.9 0 12.5 5.6 12.5 12.5v399.6c0 6.9-5.6 12.5-12.5 12.5h-357.1c-6.9 0-12.5-5.6-12.5-12.5zm381.1-399.6c0-6.3-5.2-11.5-11.5-11.5h-357.1c-6.3 0-11.5 5.2-11.5 11.5v399.6c0 6.3 5.2 11.5 11.5 11.5h357.1c6.3 0 11.5-5.2 11.5-11.5z" fill="#2d241a"/>
	</g>
	<g id="g22">
		<path id="path20" d="m50.2 475v-293.7c0-6.6 5.4-12 12-12h261.8c6.6 0 12 5.4 12 12v293.7c0 6.6-5.4 12-12 12h-261.8c-6.6 0-12-5.4-12-12z" fill="#685646"/>
	</g>
	<g id="g26">
		<path id="path24" d="m170.5 328.2" fill="none" stroke="#000" stroke-miterlimit="10"/>
	</g>
	<g id="g30">
		<path id="path28" d="m240.7 340.2" fill="none" stroke="#000" stroke-miterlimit="10"/>
	</g>
	<g id="g34">
		<path id="path32" d="m38.6 62.4v-40c0-6.6 5.4-12 12-12h40c6.6 0 12 5.4 12 12v40c0 6.6-5.4 12-12 12h-40c-6.6 0-12-5.4-12-12z" fill="#847863"/>
	</g>
	<g id="g38">
		<path id="path36" d="m211.5 312.6" fill="none" stroke="#000" stroke-miterlimit="10"/>
	</g>
	<g id="g42">
		<path id="path40" d="m211.5 358" fill="none" stroke="#000" stroke-miterlimit="10"/>
	</g>
	<g id="g46">
		<path id="path44" d="m350.6 352" fill="none" stroke="#000" stroke-miterlimit="10"/>
	</g>
	<g id="g69">
		<g id="path5_1_">
			<path id="path48" d="m76.6 25s0.1 0 0 0c3.7 2.4 5.8 6.1 5.8 9.5 0 3.5-1.9 5.7-1.9 8.7 0 2.8 1.9 4.6 1.9 8.6 0 3.1-1.7 6.4-4.6 8.7-0.4-0.6-0.8-1.2-1.2-1.7z" fill="#a29583"/>
		</g>
		<g id="path7_1_">
			<path id="path51" d="m85.7 48.7c1.9 1.5 4.6 2.6 7.4 2.2-0.2-2.4-1.7-5.3-3.7-6.9-1.8-1.5-4.5-2.7-7.2-2.3-0.2 2.7 1.4 5.4 3.5 7z" fill="#a29583"/>
		</g>
		<g id="path9_1_">
			<path id="path54" d="m76.7 24.9c-1.6-1-3.9-1.7-5.8-1.9v32.7c2.2 0.4 4.3 1.5 5.8 3.4z" fill="#a29583"/>
		</g>
		<g id="path11_1_">
			<path id="path57" d="m65 23.3c2-0.3 4-0.4 5.8-0.2v32.4c-2-0.3-4-0.1-5.8 0.8z" fill="#a29583"/>
		</g>
		<g id="path13_1_">
			<path id="path60" d="m59.2 24.9c1.9-0.8 3.9-1.3 5.8-1.6v33c-2.3 1-4.3 2.9-5.3 5.6-0.2-0.1-0.3-0.2-0.5-0.2z" fill="#a29583"/>
		</g>
		<g id="path15_1_">
			<path id="path63" d="m59.2 61.6c-2-0.9-3.1-1.4-5-2.7-0.3-0.2-0.5-0.3-0.8-0.5v-30.4c0.1-0.1 0.3-0.2 0.4-0.3 1.7-1.1 3.5-2.1 5.4-2.8z" fill="#a29583"/>
		</g>
		<g id="path19_1_">
			<path id="path66" d="m53.4 58.4c-2.7-1.9-5.8-4.4-5.8-7.4s1.9-3.7 1.9-7.7-1.9-4.9-1.9-7.8c0-3.2 3-5.6 5.8-7.5z" fill="#a29583"/>
		</g>
	</g>
	<g id="g73">
		<path id="path71" d="m306.3 346" fill="none" stroke="#000" stroke-miterlimit="10"/>
	</g>
	<g id="g77">
		
			<rect id="rect75" transform="matrix(-.7405 .6721 -.6721 -.7405 730.94 528.9)" x="262.9" y="301.5" width="1" height="208.1" fill="#6d5a4b"/>
	</g>
	<g id="g81">
		
			<rect id="rect79" transform="matrix(-.67 .7424 -.7424 -.67 626.18 223.79)" x="159.1" y="250.6" width="208.5" height="1" fill="#6d5a4b"/>
	</g>
	<g id="g85">
		
			<rect id="rect83" transform="matrix(-.7423 .67 -.67 -.7423 383.18 354.24)" x="123" y="146.2" width="1" height="209.2" fill="#6d5a4b"/>
	</g>
	<g id="g89">
		
			<rect id="rect87" transform="matrix(-.6723 .7403 -.7403 -.6723 506.73 586.84)" x="19.3" y="405.1" width="208.3" height="1" fill="#6d5a4b"/>
	</g>
	<g id="g135">
		<g id="g99">
			<g id="g93">
				<circle id="circle91" cx="193" cy="328.5" r="36.5" fill="#463a2d"/>
			</g>
			<g id="g97">
				<path id="path95" d="m156 328.5c0-20.4 16.6-37 37-37s37 16.6 37 37-16.6 37-37 37-37-16.6-37-37zm73 0c0-19.9-16.1-36-36-36s-36 16.1-36 36 16.1 36 36 36 36-16.2 36-36z" fill="#606060"/>
			</g>
		</g>
		<g id="g109">
			<g id="g103">
				<ellipse id="ellipse101" cx="390.6" cy="355.2" rx="24.5" ry="31.6" fill="#3f3126"/>
			</g>
			<g id="g107">
				<path id="path105" d="m365.6 355.2c0-17.7 11.2-32.1 25-32.1s25 14.4 25 32.1-11.2 32.1-25 32.1-25-14.4-25-32.1zm49 0c0-17.1-10.8-31.1-24-31.1s-24 13.9-24 31.1 10.8 31.1 24 31.1 24-13.9 24-31.1z" fill="#606060"/>
			</g>
		</g>
		<g id="g123">
			<g id="g115">
				<path id="path111" d="m237.3 351.9-44.2-6.2c-8.8 0-16-7.7-16-17.3 0-9.5 7.2-17.3 16-17.3l45.8 6.4" fill="#372e24"/>
				<path id="path113" d="m176.5 328.5c0-9.8 7.4-17.8 16.5-17.8l45.9 6.4-0.1 1-45.8-6.4c-8.5 0-15.4 7.5-15.4 16.8s7 16.8 15.5 16.8l44.3 6.2-0.1 1-44.2-6.2c-9.2-0.1-16.6-8-16.6-17.8z" fill="#606060"/>
			</g>
			<g id="g121">
				<path id="path117" d="m237.3 351.9c-3.4-4.1-5.5-9.9-5.5-16.3 0-7.3 2.8-13.8 7.1-18" fill="#372e24"/>
				<path id="path119" d="m231.2 335.6c0-7.2 2.6-13.9 7.2-18.3l0.7 0.7c-4.4 4.3-6.9 10.7-6.9 17.6 0 6.1 1.9 11.8 5.4 16l-0.8 0.6c-3.6-4.4-5.6-10.3-5.6-16.6z" fill="#606060"/>
			</g>
		</g>
		<g id="g133">
			<g id="g127">
				<path id="path125" d="m390.6 386.8c-13.5 0-24.5-14.1-24.5-31.6 0-17.4 11-31.6 24.5-31.6h-0.6l-64-13.8-76 3.3c-10.1 0-18.3 10.5-18.3 23.3 0 12.9 10 22.1 18 24.5l74.5 21.8 67.3 4.1" fill="#403124"/>
			</g>
			<g id="g131">
				<path id="path129" d="m231.2 336.5c0-13.2 8.4-23.8 18.8-23.8h0.5l75.5-3.3h0.1l63.9 13.8h0.5v1c-13.2 0-24 13.9-24 31.1 0 15.8 9.2 28.9 21 30.8l3.9 0.2-0.1 1-0.9-0.1v0.1c-1 0-2.1-0.1-3.1-0.2l-63.4-3.9-74.5-21.8c-7.4-2.2-18.2-11.4-18.2-24.9zm18.3-22.9c-9.6 0.3-17.3 10.5-17.3 22.8 0 13 10.3 21.8 17.7 24l74.4 21.8 58.6 3.6c-10.1-4.1-17.4-16.3-17.4-30.5 0-16.1 9.3-29.4 21.3-31.7l-61-13.2z" fill="#606060"/>
			</g>
		</g>
	</g>
</g><g id="g200">
	<g id="g153">
		<g id="g141">
			<path id="path139" d="m375.3 721.4c0-2.9 2.1-5.4 5-5.9 37.8-6.4 57.8 4.4 66.4 11.4 22.4 18.4 28.5 42.8 34.9 68.6 2.2 8.9 4.5 18.1 7.5 27.2 1.1 3.2-0.7 6.6-3.8 7.6-3.2 1.1-6.6-0.7-7.6-3.8-3.2-9.5-5.5-19-7.8-28.1-6.2-24.9-11.5-46.4-30.8-62.2-5.6-4.6-22.4-14.7-56.8-8.9-3.3 0.6-6.4-1.7-6.9-4.9-0.1-0.4-0.1-0.7-0.1-1z" fill="#919d9c"/>
		</g>
		<path id="path143" d="m389.9 682.1v78.8c0 1.7-1.3 3-3 3h-1.8c-1.7 0-3-1.3-3-3v-78.8c0-1.7 1.3-3 3-3h1.8c1.6 0 3 1.4 3 3z" fill="#979577" fill-rule="evenodd"/>
		<polygon id="polygon145" points="389 691.1 396.5 694.4 396.5 748.7 389 752.5" fill="#919d9c" fill-rule="evenodd"/>
		<polygon id="polygon147" points="399.8 693.5 408.6 696.6 408.6 747.1 399.8 750.7" fill="#919d9c" fill-rule="evenodd"/>
		<polygon id="polygon149" points="411.8 698.4 421.8 700.9 421.8 742.3 411.8 745.3" fill="#919d9c" fill-rule="evenodd"/>
		<polygon id="polygon151" points="423.9 703.2 433.8 705.2 433.8 738.1 423.9 740.5" fill="#919d9c" fill-rule="evenodd"/>
	</g>
	<path id="path155" d="m385.7 624.4v194.3c0 10.3-8.4 18.7-18.7 18.7h-317.4c-10.3 0-18.7-8.4-18.7-18.7v-194.3c0-10.3 8.4-26.8 18.7-26.8l317.4 8.1c10.3 0 18.7 8.4 18.7 18.7" fill="none" fill-rule="evenodd"/>
	<path id="path157" d="m385.7 624.4v194.3c0 10.3-8.4 18.7-18.7 18.7h-317.4c-10.3 0-18.7-8.4-18.7-18.7v-194.3c0-10.3 8.4-26.8 18.7-26.8l317.4 8.1c10.3 0 18.7 8.4 18.7 18.7z" fill="#9e9a7b" fill-rule="evenodd"/>
	<path id="path159" d="m330.3 638.2v164.2c0 8-6.5 14.4-14.4 14.4h-215c-8 0-14.4-6.5-14.4-14.4v-164.2c0-8 6.5-14.4 14.4-14.4h215c7.9 0 14.4 6.4 14.4 14.4z" fill="#aaa584" fill-rule="evenodd"/>
	<g id="g169" fill-rule="evenodd">
		<path id="path161" d="m367 651.4v134.1c0 4-3.2 7.2-7.2 7.2h-90.3c-4 0-7.2-3.2-7.2-7.2v-134.1c0-4 3.2-7.2 7.2-7.2h90.3c4 0 7.2 3.3 7.2 7.2z" fill="#525b55"/>
		<path id="path163" d="m329.7 650.2v137.1c0 1.7-1.3 3-3 3h-59.7c-1.7 0-3-1.3-3-3v-137.1c0-1.7 1.3-3 3-3h59.6c1.7 0 3.1 1.4 3.1 3z" fill="#6e766f"/>
		<path id="path165" d="m364.6 650.2v137.1c0 1.7-1.3 3-3 3h-29.5c-1.7 0-3-1.3-3-3v-137.1c0-1.7 1.3-3 3-3h29.5c1.6 0 3 1.4 3 3z" fill="#949f94"/>
		<path id="path167" d="m268.8 650.2v137.1c0 1.7-1.1 3-2.4 3s-2.4-1.3-2.4-3v-137.1c0-1.7 1.1-3 2.4-3 1.4 0 2.4 1.4 2.4 3z" fill="#4e453d"/>
	</g>
	<path id="path171" d="m148.4 653.9v25.9c0 4-3.2 7.2-7.2 7.2h-26.5c-4 0-7.2-3.2-7.2-7.2v-25.9c0-4 3.2-7.2 7.2-7.2h26.5c4-0.1 7.2 3.2 7.2 7.2z" fill="#a19b7e" fill-rule="evenodd"/>
	<path id="path173" d="m386 626.6" fill="#a7a488"/>
	<path id="path175" d="m382 625.4c-11 3.7-22 7.3-33 11-5.2 1.7-10.3 3.6-15.5 5-0.8 0.2-1.6 0.6-2.5 0.4-1.1-0.6-0.9-1.7-0.9-2.7 0.3-5.4-2-9.6-6.3-12.8-0.5-0.3-1.1-0.6-1-1.4 3.8-2.9 8.1-4.8 12.3-7 7.1-3.7 14.2-7.4 21.6-10.7 1-0.5 2.2-0.8 3-1.7h11.5c0.2 0.6 0.8 0.6 1.3 0.8 8.4 3 13 9.2 13.4 18.1" fill="#a7a488"/>
	<path id="path177" d="m384.9 628.8" fill="#a7a488"/>
	<path id="path179" d="m384.9 630.4" fill="#a7a488"/>
	<path id="path181" d="m59.3 597.6c4 3 8 6.1 12.1 9.1 6.9 5.1 13.9 10.2 20.9 15.2 0.5 0.4 1.1 0.7 1.3 1.5 0.1 1.4-0.8 1.9-1.4 2.5-3.8 4-5.4 9.4-5.5 15.8 0 1.5 0.2 3.1-0.5 4.4-0.9 0.7-1.9 0.2-2.7-0.2-16.3-7.5-32.6-15.4-48.7-23.8-0.3-0.1-0.5-0.4-0.8-0.6-0.2-0.2-0.3-0.5-0.5-0.7v-1.2c0.5-8.5 3.5-14.7 8.6-19.2 1.8-1.6 3.9-2.2 5.9-2.9 3.7 0.1 7.5 0.1 11.3 0.1z" fill="#979378"/>
	<path id="path183" d="m385.6 816.8" fill="#a7a488"/>
	<path id="path185" d="m385.6 819.7c-0.4 5.7-2.8 10.6-7.8 14.2-4 2.9-8.5 3.8-13.3 3.4-7.5-3.1-15-6.1-22.4-9.2-7.5-3.2-15-6.5-22.5-9.7-0.8-0.3-1.4-0.9-2.1-1.3 0.6-0.7 1.4-0.9 2.2-1.1 5.4-1.7 8.6-5.3 9.9-10.6 0.2-0.7 0.2-1.5 0.8-2.1 18.3 5.2 36.5 10.7 54.8 16.4" fill="#a7a488"/>
	<path id="path187" d="m386 817.7" fill="#a7a488"/>
	<path id="path189" d="m94.9 816.7c-4.8 2.5-9.6 5.1-14.5 7.5-8.3 4-16.4 8.2-24.9 11.9-0.7 0.3-1.3 0.7-2 1.1-6.1 0.5-11.9-0.3-16.6-4.6-3.4-3.1-5.5-6.9-6-11.4 0-0.5 0.1-0.9 0.1-1.4 2.7-2.1 6.2-2.6 9.3-3.7 14.1-4.8 28.2-9.5 42.4-14.1 0.9-0.3 1.9-0.8 2.9-0.3 0.6 0.5 0.6 1.2 0.6 1.8 0.5 5 2.6 9.1 7.2 11.7 0.7 0.5 1.3 0.8 1.5 1.5z" fill="#979378"/>
	<g id="g198" fill="#aaa584">
		<path id="path5" d="m134.3 655.3c2.5 1.6 4 4.2 4 6.6s-1.3 4-1.3 6 1.3 3.2 1.3 6c0 2.1-1.2 4.4-3.2 6-0.2-0.4-0.5-0.8-0.8-1.2z"/>
		<path id="path7" d="m140.6 671.8c1.3 1 3.2 1.8 5.1 1.5-0.1-1.7-1.2-3.6-2.6-4.8-1.3-1-3.2-1.9-5-1.6-0.1 1.9 1 3.8 2.5 4.9z"/>
		<path id="path9" d="m134.3 655.2c-1.1-0.7-2.7-1.2-4-1.3v22.6c1.5 0.2 3 1.1 4 2.3z"/>
		<path id="path11" d="m126.3 654.1c1.4-0.2 2.8-0.3 4-0.1v22.4c-1.4-0.2-2.8 0-4 0.5z"/>
		<path id="path13" d="m122.3 655.2c1.3-0.5 2.7-0.9 4-1.1v22.8c-1.6 0.7-3 2-3.7 3.9-0.1-0.1-0.2-0.1-0.4-0.2z"/>
		<path id="path15" d="m122.2 680.7c-1.4-0.6-2.1-1-3.5-1.9-0.2-0.1-0.4-0.2-0.5-0.4v-21.1c0.1-0.1 0.2-0.1 0.3-0.2 1.2-0.8 2.5-1.4 3.7-1.9z"/>
		<path id="path19" d="m118.2 678.4c-1.9-1.3-4-3-4-5.1s1.3-2.6 1.3-5.4-1.3-3.4-1.3-5.4c0-2.2 2.1-3.9 4-5.2z"/>
	</g>
</g></g>
</svg>
