<?xml version="1.0" encoding="UTF-8"?>
<svg id="svg2" width="206.78" height="400.95" version="1.1" viewBox="0 0 206.78 400.95" xml:space="preserve" xmlns="http://www.w3.org/2000/svg" xmlns:cc="http://creativecommons.org/ns#" xmlns:dc="http://purl.org/dc/elements/1.1/" xmlns:rdf="http://www.w3.org/1999/02/22-rdf-syntax-ns#"><metadata id="metadata8"><rdf:RDF><cc:Work rdf:about=""><dc:format>image/svg+xml</dc:format><dc:type rdf:resource="http://purl.org/dc/dcmitype/StillImage"/><dc:title/></cc:Work></rdf:RDF></metadata><defs id="defs6"><clipPath id="clipPath16"><path id="path18" d="m0 320.76h165.43v-320.76h-165.43v320.76z"/></clipPath></defs><g id="g10" transform="matrix(1.25 0 0 -1.25 0 400.95)"><g id="g12"><g id="g14" clip-path="url(#clipPath16)"><g id="g20" transform="translate(0 10.883)"><path id="path22" d="m0 0v299c0 5.986 4.897 10.883 10.883 10.883h143.66c5.986 0 10.883-4.897 10.883-10.883v-299c0-5.986-4.897-10.883-10.883-10.883h-143.66c-5.986 0-10.883 4.897-10.883 10.883" fill="#333"/></g><g id="g24" transform="translate(96.983 55.815)"><path id="path26" d="m0 0c-0.724 0.638-1.304 1.388-1.726 2.255-0.425 0.872-0.71 1.788-0.805 2.757-0.042 0.431-0.083 0.866-0.08 1.299 6e-3 0.856 0.126 1.7 0.337 2.532 0.216 0.854 0.518 1.676 0.913 2.464 0.348 0.693 0.727 1.368 1.218 1.971 0.418 0.515 0.833 1.037 1.29 1.516 1.898 1.987 3.811 3.959 5.719 5.937 0.057 0.06 0.115 0.12 0.181 0.188 0.386-0.372 0.761-0.733 1.159-1.117-0.052-0.055-0.108-0.113-0.164-0.171-1.407-1.459-2.827-2.907-4.215-4.384-0.441-0.468-0.804-1.011-1.194-1.526-0.474-0.626-0.822-1.325-1.139-2.038-0.486-1.094-0.841-2.228-0.933-3.426-0.051-0.656-0.099-1.32-0.048-1.973 0.115-1.477 0.539-2.864 1.416-4.085 0.028-0.039 0.048-0.083 0.072-0.125-0.667-0.691-1.334-1.383-2.001-2.074" fill="#a6a8ab" fill-rule="evenodd"/></g><g id="g28" transform="translate(103.52 77.304)"><path id="path30" d="m0 0c-4.612-4.782-9.225-9.563-13.848-14.356-0.578 0.558-1.149 1.108-1.738 1.677 4.616 4.785 9.232 9.571 13.847 14.356 0.58-0.559 1.159-1.118 1.739-1.677" fill="#a6a8ab" fill-rule="evenodd"/></g><g id="g32" transform="translate(108.38 55.452)"><path id="path34" d="m0 0c2.26 1.487 4.512 2.965 6.764 4.443 0.017-0.016 0.026-0.041 0.043-0.058-1.431-2.253-2.862-4.507-4.309-6.795l-2.498 2.41zm2.532-11.759c1.56 3.055 3.127 6.118 4.686 9.173 0.78 1.511 1.577 3.005 2.323 4.532 0.446 0.908 0.884 1.824 1.169 2.787 0.46 1.572-0.593 3.067-1.543 3.521-1.086 0.518-2.133 0.323-3.115-0.216-2.632-1.41-5.246-2.853-7.852-4.287-1.465-0.8-2.913-1.616-4.37-2.408-1.225-0.652-2.449-1.288-3.682-1.932l-0.148-0.154c0.975-0.941 1.951-1.882 2.909-2.824 0.214-0.206 0.375-0.262 0.666-0.097 0.973 0.581 1.981 1.112 2.997 1.669 1.318-1.272 2.635-2.526 3.919-3.797 0.094-0.091 0.116-0.377 0.043-0.504-0.511-1.027-1.057-2.037-1.593-3.039l3.234-3.12c0.13 0.255 0.244 0.475 0.357 0.696" fill="#a6a8ab" fill-rule="evenodd"/></g><g id="g36" transform="translate(139.42 14.957)"><path id="path38" d="m0 0c4.535 4.701 9.07 9.403 13.66 14.161 1.08-1.042 2.14-2.064 3.2-3.086-4.553-4.721-9.107-9.441-13.66-14.162-1.067 1.029-2.133 2.058-3.2 3.087" fill="#a6a8ab" fill-rule="evenodd"/></g><g id="g40" transform="translate(80.572 71.645)"><path id="path42" d="m0 0c0.652 0.676 1.277 1.328 1.911 1.973 0.041 0.042 0.164 0.063 0.209 0.033 0.643-0.433 1.343-0.75 2.091-0.934 0.596-0.146 1.207-0.254 1.817-0.31 1.057-0.097 2.106 5e-3 3.138 0.258 0.842 0.206 1.667 0.471 2.43 0.881 0.704 0.377 1.387 0.795 2.06 1.225 0.319 0.205 0.619 0.455 0.886 0.725 1.624 1.648 3.236 3.307 4.853 4.962 0.029 0.03 0.057 0.06 0.096 0.1 0.387-0.372 0.764-0.737 1.159-1.118-0.058-0.061-0.115-0.12-0.173-0.179-2.083-2.16-4.159-4.328-6.257-6.474-0.415-0.424-0.909-0.774-1.379-1.142-0.611-0.478-1.28-0.866-1.977-1.203-1.104-0.533-2.252-0.93-3.474-1.072-0.562-0.066-1.13-0.123-1.695-0.117-1.097 0.012-2.158 0.239-3.174 0.663-0.897 0.374-1.694 0.89-2.373 1.586-0.043 0.044-0.088 0.086-0.148 0.143" fill="#a6a8ab" fill-rule="evenodd"/></g><g id="g44" transform="translate(142.86 33.73)"><path id="path46" d="m0 0c-3.673-3.808-7.285-7.552-10.928-11.329-1.003 0.968-1.994 1.924-3.04 2.932 0.139 0.144 0.288 0.299 0.437 0.453 3.728 3.865 7.483 7.704 11.164 11.614 0.836 0.888 2.923 1.042 3.932 0.07 0.974-0.938 1.975-1.849 2.912-2.821 1.804-1.871 2.429-4.726 1.193-7.094-0.973-1.864-3.147-2.989-5.216-2.607-0.619 0.114-1.232 0.258-1.891 0.396-0.764-3.222-1.541-6.495-2.334-9.837-0.141 0.106-0.244 0.167-0.327 0.247-1.042 1.001-2.086 1.999-3.113 3.014-0.115 0.114-0.217 0.353-0.178 0.494 0.775 2.818 1.58 5.628 2.362 8.444 0.597 2.148 1.852 2.207 3.566 1.574 0.572-0.211 1.181-0.397 1.783-0.439 1.161-0.081 1.603 0.657 1.726 1.563 0.111 0.808-0.03 1.56-0.769 2.111-0.453 0.337-0.828 0.78-1.279 1.215" fill="#a6a8ab" fill-rule="evenodd"/></g><g id="g48" transform="translate(126.29 38.16)"><path id="path50" d="m0 0c2.26 1.487 4.504 2.957 6.756 4.435 0.017-0.017 0.034-0.05 0.051-0.066-1.422-2.246-2.853-4.5-4.309-6.779l-2.498 2.41zm2.549-11.759c1.56 3.055 3.11 6.119 4.686 9.174 0.942 1.85 1.901 3.7 2.852 5.541 0.414 0.807 0.81 1.663 0.743 2.586-0.13 2.075-1.898 3.632-4.06 2.778-0.919-0.37-1.793-0.865-2.658-1.335-3.614-1.965-7.202-3.938-10.807-5.912-1.082-0.591-2.173-1.191-3.306-1.8 1.036-0.998 2.011-1.956 3.021-2.896 0.094-0.091 0.371-0.111 0.496-0.034 1.025 0.532 2.032 1.096 3.073 1.662 1.309-1.263 2.626-2.517 3.91-3.789 0.103-0.099 0.116-0.376 0.06-0.503-0.528-1.027-1.073-2.038-1.601-3.048l3.225-3.111c0.131 0.237 0.244 0.458 0.366 0.687" fill="#a6a8ab" fill-rule="evenodd"/></g><g id="g52" transform="translate(111.84 41.775)"><path id="path54" d="m0 0c3.647 3.781 7.267 7.534 10.915 11.316-0.927 0.894-1.828 1.763-2.762 2.664 0.88 0.912 1.733 1.796 2.612 2.708 2.846-2.745 5.702-5.5 8.583-8.279-0.851-0.883-1.704-1.767-2.585-2.68-0.885 0.855-1.76 1.698-2.675 2.581-3.656-3.792-7.285-7.554-10.942-11.345-1.057 1.02-2.074 2.001-3.146 3.035" fill="#a6a8ab" fill-rule="evenodd"/></g><g id="g56" transform="translate(74.796 265.05)"><path id="path58" d="m0 0c0.268 23.076 18.541 41.948 42.201 41.764 22.922-0.174 41.405-18.959 41.376-42.394-0.028-23.153-18.885-42.151-41.74-42.045-22.903-0.116-42.125 18.756-41.837 42.675m86.53-107.47c-0.038 6.22-0.278 12.44-0.297 18.64-0.134 45.048-0.067 90.086-0.067 135.14v2.228c-0.47 0.717-0.872 1.172-1.496 1.463h-154.05c-0.403-0.388-0.806-0.766-1.189-1.124-0.365-1.763 0.067-2.974 1.169-4.108 4.823-4.989 9.808-9.794 14.505-14.919 6.481-7.072 13.556-13.572 20.056-20.654 6.576-7.16 13.747-13.747 20.324-20.916 6.451-7.024 13.479-13.486 19.94-20.519 6.625-7.208 13.834-13.834 20.458-21.052 6.404-6.984 13.393-13.398 19.807-20.383 6.662-7.256 13.92-13.921 20.592-21.177 4.86-5.29 10.076-10.259 15.137-15.365 0.432-0.436 0.892-0.843 1.256-1.192h2.09c1.515 0.969 1.774 2.384 1.764 3.943" fill="#2b2a2b"/></g><g id="g60" transform="translate(.0547 73.509)"><path id="path62" d="m0 0c-0.018 14.363-0.046 28.726-0.046 43.079 0 5.687 0.037 11.374 0.064 17.051 1.212 0.137 5.559 5.131 6.753 6.325 5.423 5.395 10.836 10.8 16.222 16.231 1.267 1.276 2.434 2.661 3.664 3.983 0.383 0.419 0.747 0.92 1.422 0.911-0.128-0.383-0.21-0.793-0.401-1.139-2.47-4.456-3.609-9.113-2.817-14.272 1.313-8.512 6.079-14.226 13.871-17.461 3.345-1.394 6.881-1.905 10.599-1.358 2.944 0.438 5.605 1.495 8.302 2.561-0.829-1.959-2.551-3.181-4.055-4.493-4.065-3.545-7.592-7.637-11.574-11.255-4.848-4.411-9.25-9.287-14.08-13.698-4.202-3.827-7.984-8.074-12.194-11.865-4.056-3.636-15.666-14.591-15.73-14.6" fill="#4a4a4c"/></g><g id="g64" transform="translate(3.4906,2.944)"><path id="path66" d="m0 0s-3.491 3.044-3.491 7.472c0 17.079 0.01 32.116 0.01 49.195 0 0.173 7.345 7.391 9.423 9.442 5.76 5.695 11.216 11.709 17.033 17.361 0.503 0.489 0 0 2.999 2.765-0.643-1.229-1.641-2.592-1.915-3.039-1.877-3.053-2.788-6.452-2.879-9.952-0.183-6.744 2.132-12.558 7.199-17.142 5.514-4.976 11.93-6.744 19.22-5.377 5.44 1.371 6.31 2.714 8.27 3.765-5.727-6.007-4.223-4.704-5.727-6.007-3.582-3.108-6.735-6.653-10.171-9.897-6.798-6.425-13.26-13.187-20.049-19.603-5.14-4.867-19.238-18.564-19.922-18.983" fill="#4a4a4c"/></g><g id="g68" transform="translate(26.383 76.352)"><path id="path70" d="m0 0c0.118 10.982 9.505 19.794 20.943 19.658 10.817-0.119 19.694-9.405 19.566-20.451-0.118-11.364-9.141-20.204-20.459-20.059-11.456 0.146-20.168 9.214-20.05 20.852m24.707-22.683c2.305 0.437 6.151 1.831 9.459 4.538 6.927 5.815 9.442 13.233 7.811 22.046-0.894 4.802-3.391 8.639-7.082 11.956-5.459 4.922-11.71 6.17-18.628 4.903-4.903-0.893-9.058-3.335-12.467-6.99-0.738-0.792-2.36-3.536-2.633-3.982-1.878-3.053-2.789-6.452-2.88-9.952-0.183-6.744 2.132-12.558 7.199-17.142 5.514-4.976 11.93-6.744 19.221-5.377" fill="#1f1718"/></g><g id="g72" transform="translate(26.383 149.3)"><path id="path74" d="m0 0c0.018 11.055 9.177 20.214 20.25 20.232 11.21 0.018 20.186-9.077 20.287-20.323 0.109-11.173-9.442-20.587-20.305-20.195-10.572-0.319-20.25 8.621-20.232 20.286m23.002-22.437c2.944 0.437 5.605 1.494 8.303 2.561 1.175 0.464 1.886 1.522 2.834 2.26 5.504 4.32 8.129 10.125 8.375 16.969 0.265 7.446-2.943 13.533-8.667 18.017-6.735 5.286-14.362 5.578-22.173 2.525-4.146-1.623-7.09-4.821-9.924-8.102-0.128-0.383-0.21-0.793-0.401-1.139-2.47-4.457-3.609-9.114-2.816-14.272 1.312-8.512 6.078-14.226 13.87-17.461 3.345-1.395 6.881-1.905 10.599-1.358" fill="#1f1718"/></g><g id="g76" transform="translate(46.437 55.503)"><path id="path78" d="m 0,0 c -11.461,0.148 -20.176,9.21 -20.054,20.851 0.115,10.978 9.509,19.794 20.947,19.661 C 11.704,40.385 20.58,31.104 20.459,20.053 20.334,8.692 11.317,-0.146 0,0" fill="#b82c31"/></g><g id="g80" transform="translate(46.616 129.01)"><path id="path82" d="m0 0c-10.575-0.32-20.254 8.62-20.235 20.289 0.018 11.05 9.18 20.207 20.249 20.225 11.214 0.018 20.187-9.077 20.293-20.32 0.106-11.175-9.444-20.583-20.307-20.194" fill="#b82c31"/></g><g id="g84" transform="translate(106.22 232.94)"><path id="path86" d="m0 0c0 4.108-0.192 8.409 0.058 12.691 0.21 3.536-2.464 6.781-6.692 6.675-3.758-0.097-7.516-0.029-11.284-0.02-2.118 0.01-2.444 0.34-2.454 2.51-0.01 6.413 0 12.826 0 19.046 0.345 0.794 0.834 1.153 1.457 1.598 4.209 0 8.523-9e-3 12.827 0.01 3.864 0.01 6.059 2.219 6.078 6.113 0.02 3.924 0 7.847 0.01 11.771 0.01 2.276 0.748 3.032 2.981 3.042 5.427 0.019 10.843-0.01 16.269 9e-3 1.735 0.01 2.857-0.629 2.886-2.567-0.307-5.154-1.151-10.337 0.767-15.384 9e-3 -0.116 9e-3 -0.223 0.019-0.349 0.288-0.165 0.355-0.436 0.374-0.746 0.259-0.262 0.508-0.504 0.767-0.756 0.239-0.232 0.47-0.465 0.709-0.697 2.685-1.463 5.589-1.647 8.561-1.56 2.646 0.078 5.283 0 7.928 0.02 1.045 9e-3 1.956-0.31 1.966-1.463 0.057-6.326 0.029-12.653 0.029-18.775-0.835-0.998-1.726-1.085-2.675-1.076-2.886 0.02-5.781-0.029-8.667 0.02-1.783 0.029-3.537-0.107-5.292-0.407h-9e-3c-0.163-0.281-0.432-0.349-0.738-0.368-0.163-0.291-0.432-0.368-0.738-0.378-0.125-0.126-0.24-0.252-0.374-0.378-0.135-0.349-0.374-0.6-0.729-0.736-0.115-0.116-0.24-0.233-0.355-0.349-1.236-2.228-2.051-4.553-1.888-7.188 0.211-3.188 0.134-9.882 0.029-10.027 9e-3 -1.221-0.585-1.86-1.793-1.87h-18.493c-0.729 0.397-1.16 0.833-1.534 1.589m52.152 31.476c0.029 23.434-18.454 42.219-41.376 42.393-23.661 0.184-41.933-18.687-42.201-41.764-0.288-23.919 18.933-42.791 41.836-42.674 22.855-0.107 41.712 18.891 41.741 42.045" fill="#59585a"/></g><g id="g88" transform="translate(102.41 263.87)"><path id="path90" d="m0 0c0.134 8.186 7.133 15.539 15.837 15.413 7.89-0.116 15.406-7.44 15.061-16.188-0.297-7.808-7.037-15.375-15.454-14.929-8.436-0.504-15.588 7.392-15.444 15.704m25.635-30.652c0.105 0.145 0.182 6.839-0.029 10.027-0.163 2.635 0.652 4.96 1.889 7.188 0.115 0.116 2.77 1.928 2.933 2.209l0.01 9e-3v-9e-3c1.754 0.3 3.509 0.436 5.292 0.407 2.885-0.049 5.781 0 8.666-0.02 0.949-9e-3 1.841 0.078 2.675 1.076 0 6.122 0.029 12.449-0.029 18.775-9e-3 1.152-0.92 1.472-1.965 1.462-2.646-0.019-5.282 0.058-7.928-0.019-2.972-0.087-5.877 0.097-8.561 1.56-0.24 0.232-1.86 2.431-1.87 2.548-1.917 5.047-1.073 10.23-0.767 15.384-0.028 1.937-1.15 2.577-2.885 2.567-5.426-0.019-10.843 0.01-16.269-0.01-2.234-9e-3 -2.972-0.765-2.981-3.042-0.01-3.923 9e-3 -7.847-0.01-11.77-0.019-3.895-2.215-6.103-6.078-6.113-4.305-0.02-8.619-0.01-12.827-0.01-0.623-0.445-1.112-0.804-1.457-1.598 0-6.22-0.01-12.633 0-19.047 9e-3 -2.17 0.335-2.499 2.454-2.509 3.767-9e-3 7.525-0.077 11.283 0.02 4.228 0.106 6.903-3.139 6.692-6.675-0.249-4.282-0.057-8.584-0.057-12.691 0.373-0.756 0.805-1.192 1.533-1.589h18.493c1.208 0.01 1.803 0.649 1.793 1.87" fill="#6e6d6e"/></g><g id="g92" transform="translate(106.73 263.63)"><path id="path94" d="m0 0c0 6.413 3.851 11.056 10.977 11.275 6.167 0.181 10.917-4.025 11.493-11.154-0.564-6.801-4.415-11.323-11.277-11.408-6.598-0.073-11.205 4.328-11.193 11.287m30.46-0.691c0.432 10.947-8.974 20.112-18.847 20.258-10.893 0.157-19.651-9.044-19.819-19.288-0.18-10.402 8.77-20.282 19.327-19.652 10.533-0.558 18.967 8.911 19.339 18.682" fill="#363638"/></g><g id="g96" transform="translate(135.4 263.84)"><path id="path98" d="m0 0c-0.873-10.581-6.859-17.608-17.518-17.733-10.274-0.121-17.426 6.718-17.414 17.53 0.012 9.981 5.996 17.208 17.079 17.54 9.585 0.287 16.966-6.259 17.853-17.337" fill="#4f4e4f"/></g></g></g></g></svg>
