<?xml version="1.0" encoding="UTF-8"?>
<svg id="svg2" width="296.24" height="296.23" version="1.1" viewBox="0 0 296.24 296.23" xml:space="preserve" xmlns="http://www.w3.org/2000/svg" xmlns:cc="http://creativecommons.org/ns#" xmlns:dc="http://purl.org/dc/elements/1.1/" xmlns:rdf="http://www.w3.org/1999/02/22-rdf-syntax-ns#"><metadata id="metadata8"><rdf:RDF><cc:Work rdf:about=""><dc:format>image/svg+xml</dc:format><dc:type rdf:resource="http://purl.org/dc/dcmitype/StillImage"/><dc:title/></cc:Work></rdf:RDF></metadata><defs id="defs6"><clipPath id="clipPath16"><path id="path18" d="m0 236.98h236.99v-236.98h-236.99v236.98z"/></clipPath></defs><g id="g10" transform="matrix(1.25 0 0 -1.25 0 296.23)"><g id="g12"><g id="g14" clip-path="url(#clipPath16)"><g id="g20" transform="translate(230.2 26.269)"><path id="path22" d="m0 0c0-11.19-9.044-20.302-20.158-20.302h-183.1c-11.113 0-20.146 9.112-20.146 20.302v184.44c0 11.191 9.033 20.301 20.146 20.301h183.1c11.114 0 20.158-9.11 20.158-20.301v-184.44zm-15.483 210.71h-192.44c-12.286 0-22.282-9.996-22.282-22.272v-192.44c0-12.285 9.996-22.272 22.282-22.272h192.44c12.275 0 22.272 9.987 22.272 22.272v192.44c0 12.276-9.997 22.272-22.272 22.272" fill="#1d1d1d"/></g><g id="g24" transform="translate(230.2 210.7)"><path id="path26" d="m0 0v-184.44c0-11.19-9.044-20.301-20.158-20.301h-183.1c-11.113 0-20.146 9.111-20.146 20.301v184.44c0 11.191 9.033 20.302 20.146 20.302h183.1c11.114 0 20.158-9.111 20.158-20.302" fill="#0c0d0d"/></g><g id="g28" transform="translate(210.14 105.06)"><path id="path30" d="m0 0c0-50.622-41.028-91.649-91.648-91.649-50.621 0-91.649 41.027-91.649 91.649 0 18.023 5.212 34.841 14.201 49.02l-22.03 22.568c-3.843 5.157-6.12 11.553-6.12 18.473 0 17.081 13.84 30.921 30.922 30.921 9.35 0 17.716-4.15 23.377-10.688v-0.01l21.537-23.574c9.33 3.197 19.338 4.938 29.762 4.938 50.62 0 91.648-41.029 91.648-91.648" fill="#040505"/></g><g id="g32" transform="translate(188.43 106.32)"><path id="path34" d="m0 0c0-38.629-31.316-69.934-69.936-69.934-38.619 0-69.935 31.305-69.935 69.934 0 38.62 31.316 69.925 69.935 69.925 38.62 0 69.936-31.305 69.936-69.925" fill="#121312"/></g><g id="g36" transform="translate(118.5 71.786)"><path id="path38" d="m0 0c-19.062 0-34.523 15.461-34.523 34.534 0 19.064 15.461 34.525 34.523 34.525 19.074 0 34.525-15.461 34.525-34.525 0-19.073-15.451-34.534-34.525-34.534m0 83.479c-27.035 0-48.944-21.92-48.944-48.945 0-27.034 21.909-48.944 48.944-48.944s48.945 21.91 48.945 48.944c0 27.025-21.91 48.945-48.945 48.945" fill="#121312"/></g><g id="g40" transform="translate(153.02 106.32)"><path id="path42" d="m0 0c0-19.073-15.451-34.534-34.525-34.534-19.063 0-34.524 15.461-34.524 34.534 0 19.064 15.461 34.525 34.524 34.525 19.074 0 34.525-15.461 34.525-34.525" fill="#040405"/></g><g id="g44" transform="translate(118.5 57.376)"><path id="path46" d="m0 0c-27.035 0-48.944 21.91-48.944 48.944 0 27.025 21.909 48.946 48.944 48.946s48.945-21.921 48.945-48.946c0-27.034-21.91-48.944-48.945-48.944m0 109.56c-33.483 0-60.628-27.144-60.628-60.617 0-33.484 27.145-60.628 60.628-60.628 33.484 0 60.629 27.144 60.629 60.628 0 33.473-27.145 60.617-60.629 60.617" fill="#040405"/></g><g id="g48" transform="translate(118.5 36.387)"><path id="path50" d="m0 0c-38.619 0-69.936 31.305-69.936 69.934 0 38.62 31.317 69.924 69.936 69.924s69.936-31.304 69.936-69.924c0-38.629-31.317-69.934-69.936-69.934m0 142.05c-39.834 0-72.125-32.29-72.125-72.115 0-39.834 32.291-72.124 72.125-72.124 39.836 0 72.125 32.29 72.125 72.124 0 39.825-32.289 72.115-72.125 72.115" fill="#5d5d5d"/></g><g id="g52" transform="translate(43.547 175.33)"><path id="path54" d="m0 0c-11.093 0-20.071 8.98-20.071 20.071 0 11.092 8.978 20.071 20.071 20.071 11.092 0 20.07-8.979 20.07-20.071 0-11.091-8.978-20.071-20.07-20.071m0 41.697c-11.947 0-21.626-9.679-21.626-21.626 0-11.946 9.679-21.626 21.626-21.626 11.945 0 21.625 9.68 21.625 21.626 0 11.947-9.68 21.626-21.625 21.626" fill="#911a21"/></g><g id="g56" transform="translate(63.617 195.4)"><path id="path58" d="m0 0c0-11.092-8.979-20.071-20.07-20.071-11.093 0-20.072 8.979-20.072 20.071s8.979 20.07 20.072 20.07c11.091 0 20.07-8.978 20.07-20.07" fill="#bb2127"/></g><g id="g60" transform="translate(140.31 95.164)"><path id="path62" d="m0 0-21.812-14.837-21.811 13.763v25.523l21.932 12.692 21.691-12.692v-24.449zm-21.67 39.921-24.275-14.059v-28.238l24.133-15.243 24.132 16.426v27.055l-23.99 14.059z" fill="#171818"/></g><g id="g64" transform="translate(140.31 119.61)"><path id="path66" d="m0 0v-24.449l-21.812-14.837-21.811 13.763v25.523l21.932 12.691 21.691-12.691z" fill="#2f2f2f"/></g><g id="g68" transform="translate(146.34 187.03)"><path id="path70" d="m0 0-1.741-4.611c-2.748 0.931-5.573 1.709-8.453 2.322l0.712 4.894c3.24-0.678 6.406-1.555 9.482-2.605" fill="#e57225"/></g><g id="g72" transform="translate(160.19 180.89)"><path id="path74" d="m0 0-2.398-4.314c-2.53 1.414-5.135 2.695-7.83 3.81l1.73 4.621c2.924-1.216 5.76-2.596 8.498-4.117" fill="#e57225"/></g><g id="g76" transform="translate(173.1 172.06)"><path id="path78" d="m0 0-3.482-3.526c-2.222 1.828-4.544 3.526-6.954 5.101l2.759 4.074c2.672-1.73 5.235-3.624 7.677-5.649" fill="#e57225"/></g><g id="g80" transform="translate(183.71 161.55)"><path id="path82" d="m0 0-3.789-3.164c-1.785 2.112-3.679 4.127-5.672 6.044l3.525 3.439c2.082-1.994 4.063-4.106 5.936-6.319" fill="#e57225"/></g><g id="g84" transform="translate(191.74 150.3)"><path id="path86" d="m0 0-4.424-2.2c-1.247 2.081-2.595 4.095-4.04 6.045l3.888 3.033c1.641-2.213 3.174-4.5 4.576-6.878" fill="#e57225"/></g><g id="g88" transform="translate(198.04 137.39)"><path id="path90" d="m0 0-4.664-1.589c-0.93 2.388-1.96 4.709-3.109 6.977l4.379 2.264c1.259-2.484 2.386-5.036 3.394-7.652" fill="#e57225"/></g><g id="g92" transform="translate(201.85 124.58)"><path id="path94" d="m0 0-4.862-0.844c-0.46 2.18-1.018 4.315-1.664 6.417l4.641 1.719c0.735-2.387 1.369-4.817 1.885-7.292" fill="#e57225"/></g><g id="g96" transform="translate(201.78 89.108)"><path id="path98" d="m0 0c-0.536-2.529-1.193-5.004-1.947-7.434l-4.622 1.773c0.678 2.179 1.259 4.402 1.741 6.657l4.828-0.996z" fill="#e57225"/></g><g id="g100" transform="translate(197.94 76.297)"><path id="path102" d="m0 0c-1.029-2.628-2.179-5.2-3.448-7.697l-4.238 2.562c1.127 2.222 2.146 4.511 3.067 6.854l4.619-1.719z" fill="#e57225"/></g><g id="g104" transform="translate(191.58 63.388)"><path id="path106" d="m0 0c-1.392-2.321-2.902-4.567-4.512-6.724l-3.689 3.296c1.411 1.916 2.736 3.899 3.963 5.947l4.238-2.519z" fill="#e57225"/></g><g id="g108" transform="translate(183.61 52.317)"><path id="path110" d="m0 0c-1.948-2.311-4.018-4.5-6.208-6.569l-3.251 3.7c1.916 1.829 3.733 3.756 5.451 5.76l4.008-2.891z" fill="#e57225"/></g><g id="g112" transform="translate(173.06 41.882)"><path id="path114" d="m0 0c-2.551-2.112-5.223-4.073-8.016-5.88l-2.244 4.413c2.409 1.588 4.731 3.296 6.953 5.124l3.307-3.657z" fill="#e57225"/></g><g id="g116" transform="translate(160.32 33.166)"><path id="path118" d="m0 0c-2.737-1.544-5.585-2.934-8.508-4.149l-1.752 4.598c2.639 1.117 5.201 2.365 7.687 3.745l2.573-4.194z" fill="#e57225"/></g><g id="g120" transform="translate(146.4 26.958)"><path id="path122" d="m0 0c-2.944-1.007-5.956-1.85-9.044-2.518l-0.908 4.839c2.791 0.613 5.517 1.38 8.189 2.278l1.763-4.599z" fill="#e57225"/></g><g id="g124" transform="translate(102.19 29.214)"><path id="path126" d="m0 0-0.887-4.852c-3.109 0.669-6.153 1.512-9.12 2.508l1.741 4.611c2.694-0.898 5.453-1.654 8.266-2.267" fill="#e57225"/></g><g id="g128" transform="translate(88.439 33.551)"><path id="path130" d="m0 0-1.74-4.61c-2.924 1.204-5.76 2.584-8.497 4.106l2.616 4.182c2.464-1.358 5.004-2.583 7.621-3.678" fill="#e57225"/></g><g id="g132" transform="translate(75.793 40.251)"><path id="path134" d="m0 0-2.574-4.216c-2.758 1.795-5.408 3.745-7.926 5.836l3.316 3.648c2.289-1.884 4.688-3.648 7.184-5.268" fill="#e57225"/></g><g id="g136" transform="translate(64.416 49.228)"><path id="path138" d="m0 0-3.383-3.579c-2.178 2.059-4.238 4.238-6.187 6.526l3.865 3.044c1.797-2.091 3.701-4.095 5.705-5.991" fill="#e57225"/></g><g id="g140" transform="translate(55.098 59.774)"><path id="path142" d="m0 0-3.931-2.957c-1.554 2.081-3 4.237-4.335 6.461l4.258 2.463c1.249-2.047 2.584-4.04 4.008-5.967" fill="#e57225"/></g><g id="g144" transform="translate(48.211 70.91)"><path id="path146" d="m0 0-4.227-2.551c-1.293 2.496-2.453 5.07-3.493 7.697l4.632 1.697c0.92-2.343 1.949-4.621 3.088-6.843" fill="#e57225"/></g><g id="g148" transform="translate(43.053 83.711)"><path id="path150" d="m0 0-4.555-1.993c-0.755 2.43-1.412 4.915-1.948 7.444l4.86 0.821c0.46-2.123 0.997-4.214 1.643-6.272" fill="#e57225"/></g><g id="g152" transform="translate(43.043 130.24)"><path id="path154" d="m0 0c-0.68-2.18-1.248-4.392-1.72-6.646l-4.84 0.908c0.494 2.42 1.106 4.797 1.83 7.128l4.73-1.39z" fill="#e57225"/></g><g id="g156" transform="translate(48.079 142.8)"><path id="path158" d="m0 0c-1.116-2.201-2.134-4.469-3.044-6.79l-4.653 1.621c0.974 2.508 2.069 4.961 3.273 7.348l4.424-2.179z" fill="#e57225"/></g><g id="g160" transform="translate(54.912 153.94)"><path id="path162" d="m0 0c-1.369-1.861-2.66-3.787-3.854-5.759l-4.282 2.432c1.347 2.243 2.803 4.423 4.358 6.513l3.778-3.186z" fill="#e57225"/></g><g id="g164" transform="translate(64.405 164.73)"><path id="path166" d="m0 0c-1.981-1.873-3.854-3.844-5.628-5.913l-3.898 3.033c1.927 2.268 3.975 4.412 6.133 6.46l3.393-3.58z" fill="#e57225"/></g><g id="g168" transform="translate(75.814 173.74)"><path id="path170" d="m0 0c-2.42-1.566-4.741-3.275-6.963-5.093l-3.274 3.692c2.43 2.004 4.981 3.875 7.641 5.584l2.596-4.183z" fill="#e57225"/></g><g id="g172" transform="translate(88.571 180.47)"><path id="path174" d="m0 0c-2.607-1.085-5.146-2.3-7.6-3.648l-2.518 4.239c2.606 1.434 5.3 2.737 8.07 3.897l2.048-4.488z" fill="#e57225"/></g><g id="g176" transform="translate(102.17 184.74)"><path id="path178" d="m0 0c-2.803-0.603-5.539-1.347-8.211-2.255l-1.971 4.544c2.945 1.008 5.979 1.85 9.065 2.507l1.117-4.796z" fill="#e57225"/></g><g id="g180" transform="translate(114.57 189.56)"><path id="path182" d="m0 0h-2.817v-4.398h-1.131v4.398h-2.793v0.592h6.741v-0.592z" fill="#e16f26"/></g><g id="g184" transform="translate(119.46 185.64)"><path id="path186" d="m0 0c0.85 0 1.549 0.177 2.094 0.531 0.542 0.354 0.814 0.848 0.814 1.485 0 0.634-0.269 1.129-0.812 1.482-0.543 0.354-1.235 0.531-2.075 0.531-0.854 0-1.555-0.177-2.104-0.531-0.548-0.353-0.821-0.848-0.821-1.482 0-0.633 0.273-1.128 0.819-1.484 0.546-0.355 1.241-0.532 2.085-0.532m0.011 4.596c1.192 0 2.169-0.237 2.927-0.708 0.757-0.473 1.137-1.098 1.137-1.872 0-0.777-0.38-1.401-1.137-1.873-0.758-0.472-1.735-0.708-2.927-0.708-1.196 0-2.175 0.238-2.939 0.71-0.761 0.472-1.144 1.096-1.144 1.871 0 0.774 0.383 1.399 1.144 1.872 0.764 0.471 1.743 0.708 2.939 0.708" fill="#e16f26"/></g><g id="g188" transform="translate(126.16 187.75)"><path id="path190" d="m0 0h2.156c0.724 0 1.239 0.081 1.547 0.24 0.308 0.158 0.462 0.388 0.462 0.688 0 0.2-0.086 0.377-0.256 0.53-0.171 0.154-0.386 0.251-0.646 0.292-0.263 0.042-0.638 0.062-1.13 0.062h-2.133v-1.812zm-1.125 2.404h3.176c0.696 0 1.281-0.039 1.75-0.113 0.472-0.077 0.844-0.242 1.119-0.494 0.275-0.254 0.412-0.536 0.412-0.849 0-0.505-0.273-0.887-0.82-1.147-0.545-0.261-1.334-0.392-2.369-0.392h-2.143v-1.994h-1.125v4.989z" fill="#e16f26"/></g><g id="g192" transform="translate(36.566 118.49)"><path id="path194" d="m0 0 3.648-0.518-0.546-8.03h-11.224v1.188l7.71 2.828 0.412 4.532z" fill="#e16f26"/></g><g id="g196" transform="translate(36.566 95.298)"><path id="path198" d="m0 0 3.648 0.519-0.546 8.029h-11.224v-1.187l7.71-2.828 0.412-4.533z" fill="#e16f26"/></g><g id="g200" transform="translate(201.52 95.237)"><path id="path202" d="m0 0-3.65 0.519 0.547 8.027h11.225v-1.185l-7.712-2.829-0.41-4.532z" fill="#e16f26"/></g><g id="g204" transform="translate(201.52 118.43)"><path id="path206" d="m0 0-3.65-0.518 0.547-8.029h11.225v1.186l-7.712 2.829-0.41 4.532z" fill="#e16f26"/></g></g></g></g></svg>
