<?xml version="1.0" encoding="UTF-8"?>
<svg id="svg2" width="150.88" height="574.01" version="1.1" viewBox="0 0 150.88 574.01" xml:space="preserve" xmlns="http://www.w3.org/2000/svg" xmlns:cc="http://creativecommons.org/ns#" xmlns:dc="http://purl.org/dc/elements/1.1/" xmlns:rdf="http://www.w3.org/1999/02/22-rdf-syntax-ns#"><metadata id="metadata8"><rdf:RDF><cc:Work rdf:about=""><dc:format>image/svg+xml</dc:format><dc:type rdf:resource="http://purl.org/dc/dcmitype/StillImage"/><dc:title/></cc:Work></rdf:RDF></metadata><defs id="defs6"><clipPath id="clipPath16"><path id="path18" d="m0 459.2h120.7v-459.2h-120.7v459.2z"/></clipPath></defs><g id="g10" transform="matrix(1.25 0 0 -1.25 0 574.01)"><g id="g12"><g id="g14" clip-path="url(#clipPath16)"><g id="g20" transform="translate(50.911 129.97)"><path id="path22" d="m0 0c-1.525-1.173-4.695-1.821-4.371 2.077-0.025 8.031-0.946 16.185 0.435 24.02 0.636 3.614 5.519 7.089 9.326 9.619 1.878 1.249 7.786 1.017 8.251 0.063 1.881-3.857 4.431-9.108 2.806-12.232-1.734-3.332-6.775-5.307-11.492-8.104-0.651-0.386-0.523-1.271 0.206-1.521l9.801-3.363c0.737-0.253 0.848-1.138 0.192-1.53l-15.154-9.029zm59.284 27.143c-0.047 15.1-0.029 32.78-0.029 48.274 0 0.414 0.342 0.776 0.799 0.857l6.458 1.141c0.52 0.092 0.835 0.446 0.835 0.86v235.04c0 0.452-0.381 0.828-0.888 0.864l-7.996 0.569c-0.452 0.032-0.849 0.378-0.88 0.809l-0.913 12.862c-0.033 0.457-0.459 0.813-0.975 0.813h-19.208c-0.505 0-0.926-0.341-0.973-0.788l-0.735-7.09c-0.042-0.411-0.409-0.742-0.871-0.788-9.218-0.915-17.821-0.981-25.715-3.116-3.545-0.959-7.843-6.376-7.901-9.821-0.584-34.612-0.403-69.236-0.333-103.86 0.023-11.1 9.198-10.882 18.257-11.239 0.521-0.021 0.931-0.405 0.931-0.868v-38.74c0-0.442-0.376-0.814-0.871-0.862-2.569-0.25-7.275 0.248-9.065-0.302-0.275-0.085-0.505-0.955 0.112-1.503 9.677-8.596 7.777-23.65 7.777-36.982 0-17.615 0.445-34.764 0.459-52.889 7e-3 -8.504-2.681-14.461-12.296-16.911-13.657-3.48-19.196-11.27-16.627-23.796 0.648-3.161 0.097-6.517 0.097-9.783 0-19.917-0.107-19.689-19.51-26.812-6.527-2.396-12.51-6.084-18.399-9.63-1.334-0.803-1.709-3.467-1.734-5.283-0.13-9.42 16.279-19.066 25.747-14.821 9.96 4.465 19.375 9.881 29.241 14.524 5.439 2.56 14.441 6.539 16.348 6.028 6.213-1.664 34.689-6.976 35.63-1.962"/></g><g id="g24" transform="translate(69.349 274.42)"><path id="path26" d="m0 0v-168.22c0-1.182 0.929-2.205 2.231-2.454l18.169-3.478c6.462-0.853 10.911 2.725 10.911 7.826v166.33c0 1.387-1.265 2.511-2.826 2.511h-25.659c-1.561 0-2.826-1.124-2.826-2.511" fill="#212121"/></g><g id="g28" transform="translate(11.34 100.23)"><path id="path30" d="m0 0c-3.317-1.835-5.89-3.644-2.315-7.188 3.201-3.174 6.476-6.862 11.894-5.106 4.277 1.386 9.173 3.115 11.908 6.069 9.28 10.027 21.99 12.499 35.246 14.308 6.879 7.643 6.296 12.821-2.206 19.581" fill="#292828"/></g><g id="g32" transform="translate(99.031 100.23)"><path id="path34" d="m0 0h9.009c1.158 0 2.097 1.089 2.097 2.431v177.56c0 1.342-0.939 2.431-2.097 2.431h-9.009" fill="#3b3b3b"/></g><g id="g36" transform="translate(86.936 64.495)"><path id="path38" d="m0 0c-5.819-15.788-9.767-31.869-13.762-48.003-1.61-6.503 1.785-12.253 8.488-10.681 12.633 2.962 21.194 4.635 36.545 7.738 0.124 20.51 0.249 41.517 0.367 62.027 6e-3 0.976 0.396 2.243-0.139 2.886-10.328 12.439-2.864 24.541 0.164 37.13 2.306 9.586 2.376 18.502 1.795 27.841-7.827-0.046-7.897-5.865-9.171-10.288" fill="#6e4428"/></g><g id="g40" transform="translate(118.21 13.549)"><path id="path42" d="m0 0c-10.771-1.792-21.535-3.615-32.314-5.367-7.956-1.292-11.615 0.151-9.526 8.69 5.529 22.595 11.807 44.917 22.707 66.026 0.608 1.178 1.87 2.917 1.392 3.584-7.071 9.875 3.445 15.529 6.641 22.961 3.249 7.558 7.27 14.87 7.648 23.331 0.16 3.591 1.302 7.864 5.639 10.162-0.143 5.595 0.415 10.084-3.52 13.705-1.594 1.466-4.188 1.903-6.156 0.855-3.297-1.757-3.454-5.504-3.758-8.577-0.433-4.379-0.433-8.172-0.544-12.269-0.486-7.747-2.481-15.329-3.406-23.036-0.503-6.226-1.909-11.796-10.914-11.837-3.979-1.161-6.875-2.855-3.269-6.772 4.345-4.72 3.317-9.777 1.228-14.755-3.516-8.38-5.084-17.315-9.355-25.468-6.448-14.361-8.655-29.705-12.723-44.599-2.855-10.453-0.372-11.613 11.827-8.989 11.077 2.382 22.206 4.8 33.471 6.166 5.452 0.662 5.862 2.502 4.932 6.189" fill="#4f2f1b"/></g><g id="g44" transform="translate(80.7 54.782)"><path id="path46" d="m0 0c8.246 8.976 8.707 20.961 15.035 30.735 2.286 3.53-0.327 6.945-3.631 9.302-3.463 2.471-3.061 4.637-9e-3 6.958-3.04-0.068-6.081-0.136-9.121-0.204 9.028-12.902 2.968-25.736-0.695-38.395-0.821-2.837-0.685-5.665-1.579-8.396" fill="#361e10"/></g><g id="g48" transform="translate(59.849 281.08)"><path id="path50" d="m0 0v0.284c0 0.707 0.578 1.286 1.285 1.286h38.241c0.707 0 1.285-0.579 1.285-1.286v-0.284c0-0.707-0.578-1.285-1.285-1.285h-38.241c-0.707 0-1.285 0.578-1.285 1.285" fill="#212121"/></g><g id="g52" transform="translate(96.599 217.83)"><path id="path54" d="m0 0v-102.56l2.433 3.924v102.56l-2.433-3.923z"/></g><g id="g56" transform="translate(77.276 276.93)"><path id="path58" d="m0 0v-114.39l2.433 3.923v110.47h-2.433z"/></g><g id="g60" transform="translate(71.883 276.93)"><path id="path62" d="m0 0v-127.27l4.53 4.397v122.87h-4.53z" fill="#383838"/></g><g id="g64" transform="translate(83.136 267.8)"><path id="path66" d="m0 0v-35.542c0-2.289 1.872-4.161 4.161-4.161h12.931c2.289 0 4.161 1.872 4.161 4.161v35.542c0 2.289-1.872 4.161-4.161 4.161h-12.931c-2.289 0-4.161-1.872-4.161-4.161"/></g><g id="g68" transform="translate(99.144 270.23)"><path id="path70" d="m0 0h-10.701c-2.194 0-3.988-1.594-3.988-3.543v-33.65c0-1.948 1.794-3.542 3.988-3.542h10.701" fill="#3d3d3d"/></g><g id="g72" transform="translate(99.144 229.5)"><path id="path74" d="m0 0c2.194 0 3.988 1.594 3.988 3.543v33.65c0 1.948-1.794 3.542-3.988 3.542" fill="#6c6c6c"/></g><path id="path76" d="m92.347 270.23h1.856v-25.849h-1.856v25.849z"/><g id="g78" transform="translate(70.116 285.19)"><path id="path80" d="m0 0h6.826c2.428 0 4.415 1.765 4.415 3.922v34.258c0 2.157-1.987 3.922-4.415 3.922h-6.826" fill="#3e3e3e"/></g><g id="g82" transform="translate(110.14 437.45)"><path id="path84" d="m0 0v-148.1c0-2.288-1.872-4.161-4.161-4.161h-16.811c-2.288 0-4.161 1.873-4.161 4.161v148.1c0 2.289 1.873 4.161 4.161 4.161h16.811c2.289 0 4.161-1.872 4.161-4.161" fill="#252525"/></g><path id="path86" d="m99.144 285.19h6.579v156.43h-6.579v-156.43z" fill="#6c6c6c"/><path id="path88" d="m94.204 441.62h4.94v-156.43h-4.94v156.43z" fill="#3d3d3d"/><g id="g90" transform="translate(94.174 436.81)"><path id="path92" d="m0 0v-111.37c0-4.577-3.745-8.322-8.322-8.322h-26.392c-4.577 0-8.322 3.745-8.322 8.322v111.37c0 4.577 3.745 8.322 8.322 8.322h26.392c4.577 0 8.322-3.745 8.322-8.322" fill="#5f3a22"/></g><g id="g94" transform="translate(55.656 331.95)"><path id="path96" d="m0 0h24.723c1.83 0 3.328 1.33 3.328 2.956s-1.498 2.957-3.328 2.957h-24.723" fill="#361e10"/></g><g id="g98" transform="translate(55.656 347.6)"><path id="path100" d="m0 0h24.723c1.83 0 3.328 1.33 3.328 2.956s-1.498 2.957-3.328 2.957h-24.723" fill="#361e10"/></g><g id="g102" transform="translate(55.656 363.3)"><path id="path104" d="m0 0h24.723c1.83 0 3.328 1.33 3.328 2.956s-1.498 2.957-3.328 2.957h-24.723" fill="#361e10"/></g><g id="g106" transform="translate(55.656 381.1)"><path id="path108" d="m0 0h24.723c1.83 0 3.328 1.33 3.328 2.956s-1.498 2.957-3.328 2.957h-24.723" fill="#361e10"/></g><g id="g110" transform="translate(55.656 396.75)"><path id="path112" d="m0 0h24.723c1.83 0 3.328 1.33 3.328 2.956s-1.498 2.957-3.328 2.957h-24.723" fill="#361e10"/></g><g id="g114" transform="translate(55.656 412.45)"><path id="path116" d="m0 0h24.723c1.83 0 3.328 1.33 3.328 2.956s-1.498 2.957-3.328 2.957h-24.723" fill="#361e10"/></g><g id="g118" transform="translate(53.397 325.04)"><path id="path120" d="m0 0c1.242 0 2.259 0.903 2.259 2.006v110.28c0 1.104-1.017 2.006-2.259 2.006s-2.258-0.902-2.258-2.006v-110.28c0-1.103 1.016-2.006 2.258-2.006" fill="#361e10"/></g><g id="g122" transform="translate(55.656 427.77)"><path id="path124" d="m0 0h24.723c1.83 0 3.328 1.33 3.328 2.956s-1.498 2.957-3.328 2.957h-24.723" fill="#361e10"/></g><g id="g126" transform="translate(56.926 334.91)"><path id="path128" d="m0 0c0-0.367 0.3-0.666 0.666-0.666h21.647c0.366 0 0.666 0.299 0.666 0.666s-0.3 0.666-0.666 0.666h-21.647c-0.366 0-0.666-0.299-0.666-0.666"/></g><g id="g130" transform="translate(56.926 350.56)"><path id="path132" d="m0 0c0-0.367 0.3-0.666 0.666-0.666h21.647c0.366 0 0.666 0.299 0.666 0.666s-0.3 0.666-0.666 0.666h-21.647c-0.366 0-0.666-0.299-0.666-0.666"/></g><g id="g134" transform="translate(56.926 366.25)"><path id="path136" d="m0 0c0-0.367 0.3-0.666 0.666-0.666h21.647c0.366 0 0.666 0.299 0.666 0.666s-0.3 0.666-0.666 0.666h-21.647c-0.366 0-0.666-0.299-0.666-0.666"/></g><g id="g138" transform="translate(56.926 384.04)"><path id="path140" d="m0 0c0-0.367 0.3-0.666 0.666-0.666h21.647c0.366 0 0.666 0.299 0.666 0.666s-0.3 0.666-0.666 0.666h-21.647c-0.366 0-0.666-0.299-0.666-0.666"/></g><g id="g142" transform="translate(56.926 399.69)"><path id="path144" d="m0 0c0-0.367 0.3-0.666 0.666-0.666h21.647c0.366 0 0.666 0.299 0.666 0.666s-0.3 0.666-0.666 0.666h-21.647c-0.366 0-0.666-0.299-0.666-0.666"/></g><g id="g146" transform="translate(56.926 415.38)"><path id="path148" d="m0 0c0-0.367 0.3-0.666 0.666-0.666h21.647c0.366 0 0.666 0.299 0.666 0.666s-0.3 0.666-0.666 0.666h-21.647c-0.366 0-0.666-0.299-0.666-0.666"/></g><g id="g150" transform="translate(56.926 430.72)"><path id="path152" d="m0 0c0-0.367 0.3-0.666 0.666-0.666h21.647c0.366 0 0.666 0.299 0.666 0.666s-0.3 0.666-0.666 0.666h-21.647c-0.366 0-0.666-0.299-0.666-0.666"/></g></g></g></g></svg>
