<?xml version="1.0" encoding="UTF-8"?>
<!-- Created with Inkscape (http://www.inkscape.org/) -->
<svg id="svg2" width="371.54" height="353.98" version="1.1" viewBox="0 0 371.54 353.98" xml:space="preserve" xmlns="http://www.w3.org/2000/svg" xmlns:cc="http://creativecommons.org/ns#" xmlns:dc="http://purl.org/dc/elements/1.1/" xmlns:rdf="http://www.w3.org/1999/02/22-rdf-syntax-ns#"><metadata id="metadata8"><rdf:RDF><cc:Work rdf:about=""><dc:format>image/svg+xml</dc:format><dc:type rdf:resource="http://purl.org/dc/dcmitype/StillImage"/><dc:title/></cc:Work></rdf:RDF></metadata><g id="g10" transform="matrix(1.25 0 0 -1.25 8.7834 362.76)"><g id="g5141"><g id="g20" transform="matrix(0 -1 1 0 89.081 205.41)" fill="#dedfde"><path id="path22" d="m0 0-6e-3 -0.012c-0.031-0.053-0.16-0.29-0.382-0.697v-3e-3c-0.228-0.425-0.558-1.035-0.971-1.817 0 0 0-3e-3 -3e-3 -3e-3 0-3e-3 -3e-3 -3e-3 -3e-3 -6e-3 -0.277-0.524-0.594-1.125-0.942-1.796-0.117-0.225-0.238-0.456-0.364-0.697-0.459-0.884-0.967-1.87-1.516-2.957-0.104-0.2-0.206-0.4-0.311-0.607-0.049-0.098-0.101-0.2-0.154-0.302-0.209-0.413-0.422-0.841-0.644-1.278-0.163-0.33-0.332-0.669-0.502-1.011-0.255-0.511-0.517-1.035-0.785-1.577-0.09-0.182-0.182-0.367-0.271-0.554-0.453-0.915-0.918-1.87-1.396-2.859-6e-3 -0.013-0.012-0.025-0.018-0.037-0.188-0.385-0.376-0.777-0.564-1.171-6e-3 -0.015-0.015-0.031-0.022-0.046-0.289-0.598-0.579-1.208-0.875-1.83-0.212-0.447-0.428-0.903-0.646-1.368-0.811-1.716-1.646-3.518-2.496-5.388-0.129-0.28-0.259-0.563-0.385-0.85-0.308-0.675-0.616-1.358-0.924-2.052-0.136-0.295-0.268-0.597-0.404-0.902-0.197-0.441-0.394-0.887-0.594-1.337-0.25-0.567-0.502-1.143-0.755-1.722-0.194-0.447-0.388-0.897-0.585-1.35-1.818-4.208-3.657-8.65-5.447-13.24-0.197-0.502-0.391-1.007-0.588-1.516-0.16-0.419-0.324-0.841-0.484-1.266-0.252-0.662-0.505-1.328-0.751-1.996-0.296-0.789-0.589-1.583-0.882-2.381-0.261-0.715-0.52-1.433-0.773-2.151-0.061-0.166-0.12-0.335-0.181-0.508-0.598-1.679-1.18-3.367-1.747-5.064v-4e-3c-0.102-0.295-0.2-0.594-0.299-0.893-3.641-11.007-6.592-22.251-7.976-32.636-0.406-0.089-0.862-0.083-1.377 0.034-3.367 0.761-5.865 2.859-7.969 5.425-7.317 8.928-11.71 19.405-15.751 30.054-5.416 14.273-9.535 28.93-13.044 43.773-1.937 8.188-3.592 16.438-5.101 24.715-1.06 5.81-2.03 11.648-2.739 17.511-0.594 4.904-1.251 9.805-1.673 14.737-0.566 6.617-1.013 13.231-1.272 19.873-0.142 3.635-0.326 7.28-0.16 10.896 0.274 5.912 0.548 11.827 1.097 17.726 0.357 3.86 0.603 7.735 1.035 11.586 0.514 4.603 1.223 9.184 2.027 13.752 1.029 5.866 2.526 11.583 4.732 17.104 1.638 4.1 3.807 7.932 6.339 11.552 0.62 0.884 1.59 1.247 2.573 1.586 5.462 1.898 11.099 3.167 16.706 4.526 5.255 1.272 10.536 2.446 15.81 3.647 0.443 0.102 1.226 0.216 1.685 0.25-0.013-0.019-0.022-0.034-0.031-0.053-0.619-0.995-1.288-2.011-1.966-3.034-2.566-4.119-4.867-8.426-6.875-12.889-6.125-13.61-9.529-28.705-9.529-44.595 0-11.894 1.907-23.342 5.434-34.053 0.096-0.287 0.191-0.576 0.287-0.863 5.363-15.84 14.272-30.045 25.788-41.668 5.896-5.955 12.479-11.235 19.62-15.708" fill="#dedfde"/></g><g id="g24" transform="matrix(0 -1 1 0 146.48 7.1666)" fill="#dedfde"><path id="path26" d="m0 0c-0.08-5.24-0.558-10.486-1.084-15.72-0.419-4.159-0.817-8.321-1.331-12.468-0.555-4.448-1.183-8.89-1.907-13.314-1.165-7.141-2.431-14.263-3.925-21.345-1.885-8.943-4.014-17.825-6.407-26.645-1.645-6.071-3.454-12.097-5.441-18.058-2.283-6.842-4.713-13.638-7.726-20.209-2.545-5.548-5.126-11.072-8.659-16.081-2.428-3.447-5.074-6.697-8.885-8.739-0.81-0.435-1.67-0.801-2.637-0.684-0.132-0.065-0.262-0.114-0.382-0.157-0.074 0.588-0.154 1.18-0.237 1.774-0.09 0.635-0.182 1.272-0.281 1.91-0.135 0.86-0.277 1.722-0.428 2.588-0.012 0.071-0.024 0.142-0.037 0.212-0.104 0.589-0.212 1.18-0.323 1.775-0.105 0.554-0.213 1.112-0.324 1.67-7.335 36.995-28.837 78.98-32.183 85.375-6e-3 -3e-3 -0.012-3e-3 -0.018-6e-3 -0.17 0.324-0.314 0.604-0.435 0.835 16.408 10.323 29.867 24.91 38.822 42.201 3.417 6.596 6.177 13.583 8.195 20.881 0.012 0.037 0.021 0.077 0.03 0.117 2.545 9.226 3.904 18.945 3.904 28.982 0 2.055-0.056 4.094-0.173 6.118v9e-3c-3e-3 0.117-9e-3 0.234-0.018 0.352v6e-3c-0.222 3.792-0.638 7.532-1.242 11.21v3e-3c0 0.012-3e-3 0.025-6e-3 0.037v3e-3c-2.569 15.674-8.487 30.221-16.996 42.882 0.435-0.191 0.844-0.45 1.217-0.816 3.712-0.419 7.304-1.423 10.933-2.246 6.026-1.368 11.962-3.118 17.979-4.495 4.094-0.936 6.004-3.789 7.895-7.03 4.057-6.952 6.254-14.534 7.85-22.331 1.269-6.195 2.067-12.467 2.741-18.745 0.481-4.461 0.539-8.968 1.001-13.435 0.915-8.795 0.65-17.612 0.518-26.416" fill="#dedfde"/></g><g id="g28" transform="matrix(0 -1 1 0 182.47 95.851)" fill="#a7a8a8"><path id="path30" d="m0 0c-0.203-11.448-4.017-21.669-11.183-30.584-7.239-9.005-16.475-15.098-27.728-17.738-15.53-3.645-29.987-0.869-42.842 8.628-10.832 8.001-17.439 18.838-19.885 32.137-0.623 3.38-0.881 6.79-0.881 10.225 3e-3 29.42 3e-3 58.839-4e-3 88.259v0.093c0 0.542 0.013 1.592 0.016 2.393 0.061 0.037 0.123 0.068 0.185 0.102 0.65 0.348 1.303 0.687 1.959 1.016-9e-3 -9.697-6e-3 -22.593-6e-3 -32.164 0-20.018-0.016-40.033 9e-3 -60.05 9e-3 -8.484 1.796-16.568 5.862-24.06 4.581-8.453 11.084-15.024 19.482-19.759 8.715-4.91 18.105-6.793 27.966-6.004 10.785 0.863 20.292 4.987 28.425 12.199 8.471 7.514 13.656 16.879 15.778 27.957 0.472 2.458 0.774 4.947 0.746 7.47-0.046 4.67 0.148 9.35-0.089 14.008-0.358 6.974 0.021 13.952-0.308 20.914-0.324 6.82 0.018 13.644-0.305 20.449-0.339 7.076 0.015 14.158-0.321 21.222-0.228 4.757-0.108 12.923-0.237 17.834 0.724-0.364 1.445-0.74 2.16-1.125v-2.655c-7e-3 -3.749-0.139-7.504 0.061-11.244 0.385-7.178-9e-3 -14.365 0.324-21.537 0.311-6.719-0.022-13.44 0.295-20.15 0.336-7.079-0.012-14.162 0.324-21.228 0.262-5.539 0.296-11.078 0.197-16.608" fill="#a7a8a8"/></g><g id="g32" transform="matrix(0 -1 1 0 -6.9326 55.581)" fill="#a7a8a8"><path id="path34" d="m0 0c-9e-3 0-0.015-3e-3 -0.021-3e-3 -0.811-0.259-1.362 0.025-1.92 0.97-3.059 5.219-4.953 10.906-6.786 16.608-2.283 7.107-4.307 14.306-5.699 21.635-0.493 2.581-1.759 3.475-4.039 4.051-8.57 2.156-17.199 4.051-25.917 5.462-5.94 0.961-11.913 1.734-17.911 2.279-5.188 0.475-10.369 0.959-15.575 1.251-5.111 0.287-10.228 0.475-15.339 0.496-5.674 0.022-11.361-0.215-17.026-0.61-6.463-0.446-12.926-1.029-19.353-1.845-10.683-1.352-21.311-3.065-31.782-5.65-2.628-0.647-5.231-1.417-7.88-1.941-0.176-0.037-0.336-0.08-0.481-0.132l-2.557-6.873c-1.851-8.09-3.937-16.121-6.626-23.989-1.162-3.394-2.548-6.7-4.433-9.777-0.576-0.943-1.251-1.602-2.16-1.793 1.383 10.384 4.335 21.629 7.976 32.636 0.099 0.298 0.197 0.594 0.299 0.893v3e-3c0.567 1.697 1.149 3.386 1.746 5.065 0.062 0.172 0.121 0.341 0.182 0.508 0.256 0.721 0.515 1.435 0.773 2.15 0.293 0.798 0.586 1.593 0.881 2.381 0.25 0.669 0.5 1.334 0.752 1.997 0.16 0.425 0.324 0.847 0.484 1.266 0.197 0.508 0.391 1.01 0.588 1.515 1.79 4.591 3.629 9.033 5.447 13.241 0.197 0.453 0.391 0.902 0.585 1.349 0.253 0.579 0.505 1.155 0.755 1.722 0.2 0.45 0.397 0.897 0.594 1.337 0.136 0.305 0.268 0.607 0.404 0.903 0.308 0.693 0.616 1.377 0.924 2.052 0.126 0.286 0.256 0.569 0.385 0.85 0.425 0.933 0.847 1.851 1.263 2.751 0.105 0.225 0.21 0.449 0.311 0.671 0.21 0.444 0.413 0.884 0.616 1.319 0.102 0.215 0.204 0.431 0.305 0.647 0.219 0.465 0.435 0.921 0.647 1.368 0.296 0.622 0.589 1.232 0.875 1.829 6e-3 0.016 0.016 0.031 0.022 0.047 0.191 0.394 0.379 0.785 0.564 1.17 6e-3 0.013 0.012 0.025 0.018 0.037 0.481 0.989 0.946 1.944 1.396 2.859 0.089 0.188 0.181 0.373 0.271 0.555 0.268 0.539 0.53 1.065 0.785 1.577 0.17 0.342 0.339 0.681 0.502 1.01 0.222 0.438 0.438 0.866 0.644 1.279 0.053 0.101 0.105 0.203 0.154 0.302 0.105 0.206 0.21 0.409 0.311 0.606 0.549 1.088 1.057 2.074 1.516 2.958 0.126 0.24 0.247 0.471 0.364 0.696 0.348 0.672 0.665 1.272 0.942 1.796 0 3e-3 3e-3 3e-3 3e-3 6e-3 3e-3 0 3e-3 3e-3 3e-3 3e-3 0.413 0.783 0.743 1.393 0.971 1.818v3e-3c0.222 0.407 0.351 0.644 0.382 0.696l6e-3 0.012c0.573-0.36 1.152-0.714 1.734-1.062-0.847-1.612-13.058-24.932-21.277-48.264 0 0 40.454 9.497 75.933 9.55l-0.129-0.09c35.55 0 78.13-9.55 78.13-9.55-8.197 23.274-19.836 46.632-20.701 48.357 0.64 0.385 1.272 0.773 1.903 1.17 0.121-0.231 0.265-0.511 0.435-0.834 4.476-8.645 25.067-49.595 32.201-85.37 0.111-0.558 0.219-1.115 0.324-1.67 0.111-0.594 0.219-1.186 0.323-1.774 0.013-0.071 0.025-0.142 0.037-0.213 0.151-0.866 0.293-1.728 0.428-2.588 0.099-0.637 0.192-1.275 0.281-1.91 0.083-0.594 0.163-1.186 0.237-1.774" fill="#a7a8a8"/></g><g id="g36" transform="matrix(0 -1 1 0 49.224 149.18)" fill="#e4e5e4"><path id="path38" d="m0 0 0.129 0.089c-35.479-0.052-75.933-9.55-75.933-9.55 8.219 23.333 20.43 46.653 21.277 48.264 0.361-0.215 0.721-0.431 1.085-0.64 11.309-6.621 23.917-11.257 37.352-13.432l0.499 1.137 0.169 0.391c0.379-0.058 0.761-0.117 1.143-0.172 0.228-0.034 0.459-0.068 0.687-0.099 0.044-6e-3 0.084-0.012 0.124-0.019 0.4-0.055 0.801-0.107 1.204-0.16 0.521-0.067 1.044-0.129 1.568-0.188 0.493-0.055 0.986-0.107 1.479-0.157 0.077-6e-3 0.157-0.015 0.234-0.021 0.48-0.047 0.961-0.09 1.445-0.13-0.293-0.514-0.582-1.029-0.863-1.549-1.633-2.979-3.13-6.035-4.587-9.122-0.856-1.821-0.579-2.421 1.43-2.541 4.34-0.253 8.671-0.737 13.027-0.638 4.409-0.111 8.789 0.41 13.182 0.638 1.913 0.101 2.221 0.711 1.513 2.461-1.291 3.182-2.763 6.26-4.396 9.245-0.283 0.517-0.573 1.035-0.866 1.546 0.887 0.077 1.775 0.167 2.656 0.265 0.317 0.034 0.631 0.071 0.949 0.111 0.797 0.096 1.592 0.204 2.384 0.318 0.256 0.036 0.508 0.073 0.764 0.113 0.095 0.013 0.194 0.028 0.29 0.044l0.2-0.459 0.468-1.072c13.404 2.122 25.997 6.694 37.3 13.24 0.508 0.293 1.014 0.591 1.516 0.893 0.865-1.725 12.504-25.082 20.701-48.356 0 0-42.58 9.55-78.13 9.55" fill="#e4e5e4"/></g><g id="g40" transform="matrix(0 -1 1 0 181.37 38.866)" fill="#a7a8a8"><path id="path42" d="m0 0c0-10.037-1.359-19.756-3.903-28.982-9e-3 -0.04-0.019-0.08-0.031-0.117-2.018-7.298-4.778-14.285-8.194-20.881-8.956-17.291-22.415-31.878-38.822-42.201-12.162-7.652-25.948-12.966-40.72-15.304l-0.468 1.072-0.2 0.459c1.439 0.221 2.868 0.474 4.288 0.751 0.428 0.084 0.857 0.17 1.285 0.262 0.527 0.108 1.053 0.222 1.577 0.342 0.24 0.053 0.481 0.108 0.721 0.163 0.092 0.022 0.185 0.044 0.274 0.065 0.437 0.102 0.872 0.21 1.309 0.317 0.37 0.093 0.74 0.185 1.109 0.281 0.201 0.052 0.404 0.108 0.604 0.16 0.191 0.049 0.379 0.102 0.57 0.154 0.481 0.129 0.958 0.262 1.432 0.4 0.278 0.081 0.555 0.161 0.832 0.244 0.376 0.111 0.752 0.222 1.125 0.339 0.329 0.101 0.659 0.203 0.985 0.311 0.441 0.138 0.878 0.28 1.316 0.428 0.314 0.105 0.631 0.21 0.946 0.32 0.767 0.262 1.531 0.533 2.292 0.817 0.348 0.126 0.699 0.259 1.047 0.391 0.015 6e-3 0.031 0.012 0.046 0.018 0.361 0.139 0.724 0.278 1.085 0.423 0.385 0.15 0.77 0.305 1.152 0.462 0.123 0.049 0.243 0.098 0.363 0.147 0.213 0.09 0.425 0.176 0.638 0.268 0.357 0.148 0.715 0.302 1.069 0.456 0.339 0.145 0.675 0.293 1.01 0.441 0.804 0.36 1.599 0.727 2.391 1.103 0.474 0.225 0.949 0.453 1.417 0.687 0.471 0.231 0.94 0.465 1.408 0.705 0.311 0.16 0.622 0.321 0.93 0.484 0.173 0.089 0.345 0.179 0.515 0.271 0.018 9e-3 0.037 0.018 0.055 0.031 0.2 0.105 0.401 0.212 0.601 0.32 2.128 1.149 4.214 2.369 6.253 3.657 0.176 0.111 0.349 0.222 0.521 0.333 0.357 0.224 0.715 0.456 1.066 0.69 0.481 0.314 0.958 0.631 1.432 0.955 0.047 0.03 0.09 0.061 0.136 0.092 0.169 0.114 0.342 0.231 0.511 0.351 0.173 0.117 0.342 0.234 0.512 0.354 0.286 0.198 0.57 0.398 0.85 0.601 0.567 0.401 1.127 0.81 1.685 1.226 0.203 0.148 0.404 0.299 0.604 0.45 0.04 0.028 0.077 0.059 0.117 0.089 0.142 0.105 0.28 0.213 0.422 0.321 0.172 0.129 0.345 0.262 0.518 0.397 0.545 0.422 1.087 0.847 1.623 1.279l9e-3 9e-3c0.542 0.434 1.078 0.875 1.608 1.318 0.268 0.222 0.533 0.447 0.795 0.672 0.277 0.237 0.555 0.474 0.829 0.712 0.249 0.218 0.496 0.434 0.739 0.653 0.416 0.366 0.826 0.736 1.232 1.109 0.262 0.237 0.521 0.477 0.78 0.721 0.157 0.144 0.314 0.292 0.471 0.44 0.665 0.629 1.322 1.266 1.972 1.91l0.089 0.089c7.689 7.662 14.226 16.485 19.318 26.182 3.574 6.805 6.442 14.045 8.497 21.62 2.44 8.974 3.74 18.416 3.74 28.163 0 1.368-0.025 2.732-0.077 4.085-0.201 5.332-0.789 10.563-1.741 15.671-2.828 15.184-8.854 29.241-17.362 41.449-8.484 12.187-19.439 22.529-32.134 30.301-1.719 1.054-3.472 2.061-5.255 3.016-0.715 0.385-1.436 0.761-2.16 1.125-14.559 7.402-31.037 11.57-48.489 11.57-17.458 0-33.945-4.174-48.513-11.586-0.656-0.329-1.309-0.668-1.959-1.016-0.062-0.034-0.124-0.065-0.185-0.102-6e-3 -3e-3 -9e-3 -6e-3 -0.016-9e-3 -0.412-0.222-0.822-0.444-1.229-0.672-0.268-0.145-0.533-0.296-0.798-0.447-0.271-0.15-0.542-0.305-0.81-0.462-0.145-0.083-0.289-0.166-0.434-0.252-0.308-0.176-0.616-0.358-0.924-0.546-0.176-0.101-0.355-0.209-0.53-0.317-0.444-0.265-0.887-0.536-1.325-0.81-0.459-0.286-0.915-0.576-1.368-0.872-0.086-0.052-0.172-0.108-0.255-0.163-0.435-0.28-0.869-0.567-1.297-0.857-0.484-0.32-0.961-0.65-1.439-0.982-0.477-0.327-0.952-0.663-1.423-1.005-0.08-0.055-0.163-0.113-0.247-0.178-0.268-0.191-0.539-0.388-0.804-0.585-0.332-0.244-0.665-0.493-0.995-0.743-0.252-0.188-0.502-0.379-0.751-0.573-0.278-0.209-0.552-0.422-0.826-0.641-0.548-0.428-1.091-0.862-1.63-1.303-0.271-0.218-0.539-0.44-0.804-0.665-0.268-0.219-0.536-0.444-0.801-0.672-0.807-0.684-1.605-1.38-2.39-2.092-0.25-0.218-0.496-0.443-0.739-0.671-0.974-0.89-1.932-1.802-2.872-2.733-0.295-0.292-0.591-0.585-0.884-0.884-0.406-0.409-0.81-0.822-1.207-1.241-3e-3 -3e-3 -7e-3 -6e-3 -7e-3 -6e-3 -0.4-0.416-0.794-0.835-1.186-1.26-0.394-0.425-0.785-0.854-1.17-1.285-0.388-0.431-0.773-0.866-1.152-1.303-0.305-0.351-0.607-0.702-0.906-1.057-0.601-0.708-1.189-1.423-1.768-2.147-0.293-0.36-0.579-0.724-0.866-1.09-5.274-6.744-9.759-14.134-13.311-22.033-6.038-13.413-9.399-28.292-9.399-43.957 0-7.132 0.696-14.1 2.027-20.843 4.048-20.551 13.967-38.992 27.941-53.504 6.46-6.713 13.786-12.585 21.798-17.433 1.303-0.789 2.625-1.553 3.965-2.286 0.213-0.12 0.428-0.234 0.644-0.351 0.216-0.118 0.431-0.231 0.647-0.345 0.447-0.238 0.893-0.472 1.343-0.703 0.447-0.228 0.896-0.456 1.349-0.678 0.385-0.191 0.77-0.379 1.156-0.563 0.197-0.096 0.397-0.191 0.597-0.284 0.274-0.132 0.552-0.262 0.829-0.388 0.123-0.058 0.249-0.117 0.376-0.172 0.292-0.136 0.585-0.268 0.878-0.398 1.004-0.45 2.014-0.884 3.037-1.3 0.262-0.108 0.524-0.215 0.789-0.317 0.283-0.117 0.567-0.231 0.853-0.339 0.613-0.243 1.232-0.478 1.855-0.705 0.175-0.068 0.354-0.133 0.533-0.195 1.059-0.388 2.128-0.757 3.206-1.109 0.481-0.16 0.962-0.314 1.445-0.462 0.262-0.083 0.521-0.163 0.783-0.24 0.237-0.074 0.471-0.145 0.708-0.212 0.447-0.133 0.897-0.265 1.347-0.389 0.12-0.037 0.24-0.071 0.36-0.101 0.265-0.074 0.533-0.148 0.798-0.219 1.537-0.416 3.084-0.795 4.645-1.14 0.299-0.068 0.595-0.132 0.894-0.194 0.055-0.012 0.111-0.025 0.166-0.034 0.163-0.037 0.327-0.071 0.49-0.101 0.246-0.053 0.493-0.105 0.736-0.151 0.317-0.065 0.638-0.127 0.955-0.185 0.077-0.016 0.151-0.031 0.228-0.043 0.2-0.037 0.401-0.074 0.601-0.111 0.354-0.065 0.711-0.13 1.069-0.188 0.434-0.074 0.868-0.148 1.303-0.216l-0.17-0.391h-3e-3l-0.496-1.137c-14.562 2.357-28.153 7.606-40.171 15.135-7.141 4.473-13.724 9.753-19.62 15.708-11.515 11.623-20.424 25.828-25.788 41.668-0.095 0.287-0.191 0.577-0.286 0.863-3.528 10.711-5.434 22.159-5.434 34.053 0 15.89 3.404 30.985 9.528 44.595 2.008 4.464 4.31 8.77 6.876 12.889 0.677 1.023 1.346 2.039 1.965 3.034 9e-3 0.019 0.019 0.034 0.031 0.053 19.534 29.108 52.749 48.264 90.437 48.264 37.667 0 70.863-19.134 90.398-48.212l3e-3 -3e-3c8.508-12.661 14.426-27.208 16.995-42.882v-3e-3c3e-3 -0.012 6e-3 -0.025 6e-3 -0.037v-3e-3c0.604-3.678 1.02-7.418 1.242-11.21v-6e-3c9e-3 -0.118 0.015-0.235 0.018-0.352v-9e-3c0.118-2.024 0.173-4.063 0.173-6.118" fill="#a7a8a8"/></g><g id="g44" transform="matrix(0 -1 1 0 182.59 97.952)" fill="#c1c3c2"><path id="path46" d="m0 0c0.028-2.523-0.274-5.012-0.746-7.47-2.122-11.078-7.307-20.443-15.778-27.957-8.133-7.212-17.64-11.337-28.425-12.199-9.861-0.789-19.251 1.093-27.966 6.004-8.398 4.735-14.901 11.306-19.482 19.759-4.066 7.492-5.853 15.575-5.862 24.059-0.025 20.018-9e-3 40.033-9e-3 60.051 0 9.571-3e-3 22.467 6e-3 32.164 14.568 7.412 31.055 11.586 48.513 11.586 17.452 0 33.93-4.168 48.489-11.57 0.129-4.911 9e-3 -13.077 0.237-17.834 0.336-7.064-0.018-14.146 0.321-21.222 0.323-6.805-0.019-13.629 0.305-20.449 0.329-6.962-0.05-13.94 0.308-20.915 0.237-4.657 0.043-9.337 0.089-14.007" fill="#c1c3c2"/></g><g id="g48" transform="matrix(0 -1 1 0 181.37 40.483)" fill="#dedfde"><path id="path50" d="m0 0c0-29.685-12.064-56.551-31.555-75.965-15.705-15.643-36.237-26.45-59.166-29.989-2.323-0.361-4.673-0.644-7.042-0.851-2.2 3.848-4.67 7.539-7.369 11.097-1.528 2.011-1.873 1.944-3.472 0.021-2.911-3.496-5.382-7.254-7.6-11.158-2.655 0.219-5.286 0.536-7.883 0.946-13.936 2.203-26.98 7.092-38.584 14.119-8.013 4.848-15.339 10.72-21.799 17.433-13.973 14.512-23.893 32.953-27.941 53.504-1.331 6.743-2.027 13.711-2.027 20.843 0 15.665 3.361 30.544 9.399 43.957 3.552 7.899 8.037 15.289 13.311 22.033 9.144 11.697 20.665 21.444 33.838 28.514 6e-3 3e-3 9e-3 6e-3 0.015 9e-3 -3e-3 -0.801-0.015-1.851-0.015-2.394v-0.092c6e-3 -29.42 6e-3 -58.84 3e-3 -88.259 0-3.435 0.259-6.846 0.881-10.225 2.446-13.299 9.054-24.136 19.885-32.137 12.856-9.497 27.313-12.273 42.842-8.629 11.254 2.64 20.489 8.734 27.729 17.739 7.165 8.915 10.979 19.136 11.182 30.584 0.099 5.529 0.065 11.068-0.197 16.607-0.336 7.067 0.012 14.15-0.323 21.229-0.318 6.709 0.015 13.431-0.296 20.15-0.333 7.172 0.061 14.359-0.324 21.537-0.2 3.739-0.067 7.495-0.061 11.244v2.655c1.783-0.955 3.536-1.962 5.255-3.016 30.779-18.841 51.314-52.777 51.314-91.506" fill="#dedfde"/></g><g id="g52" transform="matrix(0 -1 1 0 61.316 147.71)" fill="#a7a8a8"><path id="path54" d="m0 0c3.724 0.194 7.448 0.408 11.173 0.573 2.34 0.105 2.633 0.524 1.783 2.692-2.844 7.253-6.906 13.81-11.467 20.081-0.864 1.186-1.234 1.145-2.168 0.036-5.199-6.171-8.87-13.246-12.214-20.52-0.743-1.616-0.541-2.123 1.262-2.244 3.874-0.259 7.755-0.418 11.631-0.618m0.029-0.637c-4.357-0.101-8.688 0.382-13.028 0.637-2.008 0.118-2.287 0.721-1.428 2.541 3.632 7.706 7.553 15.231 13.047 21.83 1.6 1.923 1.945 1.989 3.473-0.024 5.133-6.763 9.434-14.005 12.63-21.888 0.708-1.748 0.4-2.359-1.512-2.459-4.393-0.23-8.773-0.748-13.182-0.637" fill="#a7a8a8"/></g><g id="g56" transform="matrix(0 -1 1 0 61.316 147.71)" fill="#c1c3c2"><path id="path58" d="m0 0c-3.877 0.2-7.758 0.359-11.632 0.618-1.803 0.121-2.005 0.628-1.262 2.244 3.344 7.274 7.015 14.349 12.214 20.52 0.934 1.108 1.304 1.15 2.167-0.036 4.562-6.271 8.623-12.829 11.468-20.081 0.85-2.169 0.556-2.588-1.783-2.692-3.726-0.166-7.449-0.38-11.172-0.573" fill="#c1c3c2"/></g><g id="g60" transform="matrix(0 -1 1 0 231.05 147.39)" fill="#a7a8a8"><path id="path62" d="m0 0c-8.417 0-16.838-0.137-25.25 0.065-3.545 0.085-6.492-2.94-6.458-6.421 0.148-14.985 0.145-29.974 7e-3 -44.959-0.035-3.855 3.175-6.43 6.461-6.406 16.834 0.124 33.669 0.127 50.503 0 3.495-0.026 6.633 2.576 6.616 6.652-0.061 14.884-0.07 29.768 0.012 44.652 0.018 3.351-2.802 6.555-6.486 6.475-8.465-0.184-16.936-0.058-25.405-0.058m37.09-27.862c0-8.366 1e-3 -16.732 0-25.099-1e-3 -3.959-1.793-6.166-5.586-7.169-2.976-0.786-17.115-2.592-31.23-2.488-14.681 0.108-29.337 2.154-31.495 2.75-3.462 0.957-5.293 3.164-5.3 6.747-0.033 16.989-0.027 36.195-4e-3 53.184 4e-3 3.245 14.622 7.146 36.616 7.146 21.75 0 36.993-4.084 36.996-7.139 9e-3 -8.571 3e-3 -19.36 3e-3 -27.932" fill="#a7a8a8"/></g><g id="g64" transform="matrix(0 -1 1 0 174.88 147.33)" fill="#c1c3c2"><path id="path66" d="m0 0c8.008 0 16.016-2e-3 24.025 1e-3 3.729 1e-3 6.023 2.271 6.026 6.037 0.014 14.219 0.014 28.439 0 42.659-4e-3 3.803-2.237 6.001-6.067 6.003-16.016 8e-3 -32.033 9e-3 -48.049-1e-3 -3.742-2e-3 -6.071-2.279-6.078-6.039-0.027-14.22-0.027-28.44-1e-3 -42.659 7e-3 -3.71 2.399-5.998 6.119-6 8.009-4e-3 16.017-1e-3 24.025-1e-3m-0.059 56.17c8.468 0 16.94-0.126 25.404 0.058 3.685 0.08 6.504-3.124 6.486-6.475-0.081-14.884-0.072-29.769-0.011-44.653 0.017-4.075-3.121-6.678-6.616-6.651-16.834 0.127-33.67 0.124-50.503 0-3.287-0.024-6.497 2.551-6.461 6.405 0.138 14.986 0.14 29.974-7e-3 44.96-0.034 3.481 2.913 6.506 6.457 6.421 8.413-0.202 16.833-0.065 25.251-0.065" fill="#c1c3c2"/></g><g id="g68" transform="matrix(0 -1 1 0 174.88 147.33)"><path id="path70" d="m0 0c-8.008 0-16.016-3e-3 -24.025 1e-3 -3.72 2e-3 -6.112 2.29-6.119 6-0.026 14.219-0.026 28.439 1e-3 42.659 7e-3 3.76 2.336 6.037 6.078 6.039 16.016 0.01 32.033 9e-3 48.049 1e-3 3.83-2e-3 6.063-2.2 6.067-6.003 0.014-14.22 0.014-28.44 0-42.659-3e-3 -3.766-2.297-6.036-6.026-6.037-8.009-3e-3 -16.017-1e-3 -24.025-1e-3" fill="#4a4a4c"/></g><g id="g72" transform="matrix(0 -1 1 0 192.31 62.523)"><path id="path74" d="m0 0c0 6.655 5.395 12.049 12.049 12.049 6.655 0 12.05-5.394 12.05-12.049s-5.395-12.049-12.05-12.049c-6.654 0-12.049 5.394-12.049 12.049" fill="#6d6d6d"/></g><g id="g76" transform="matrix(0 -1 1 0 192.31 61.652)"><path id="path78" d="m0 0c0 6.174 5.005 11.179 11.179 11.179 6.173 0 11.178-5.005 11.178-11.179s-5.005-11.179-11.178-11.179c-6.174 0-11.179 5.005-11.179 11.179" fill="#02aa46"/></g><g id="g80" transform="matrix(0 -1 1 0 143.33 62.523)"><path id="path82" d="m0 0c0 6.655 5.395 12.049 12.049 12.049 6.655 0 12.05-5.394 12.05-12.049s-5.395-12.049-12.05-12.049c-6.654 0-12.049 5.394-12.049 12.049" fill="#6d6d6d"/></g><g id="g84" transform="matrix(0 -1 1 0 143.33 61.652)"><path id="path86" d="m0 0c0 6.174 5.005 11.179 11.179 11.179 6.173 0 11.178-5.005 11.178-11.179s-5.005-11.179-11.178-11.179c-6.174 0-11.179 5.005-11.179 11.179" fill="#e23434"/></g><g id="g88" transform="matrix(0 -1 1 0 167.76 88.001)"><path id="path90" d="m0 0c0 6.655 5.395 12.049 12.049 12.049 6.655 0 12.05-5.394 12.05-12.049s-5.395-12.049-12.05-12.049c-6.654 0-12.049 5.394-12.049 12.049" fill="#6d6d6d"/></g><g id="g92" transform="matrix(0 -1 1 0 167.76 87.203)"><path id="path94" d="m0 0c0 6.214 5.038 11.252 11.252 11.252s11.252-5.038 11.252-11.252-5.038-11.252-11.252-11.252-11.252 5.038-11.252 11.252" fill="#f2e825"/></g><g id="g96" transform="matrix(0 -1 1 0 167.76 37.819)"><path id="path98" d="m0 0c0 6.655 5.395 12.049 12.049 12.049 6.655 0 12.05-5.394 12.05-12.049s-5.395-12.049-12.05-12.049c-6.654 0-12.049 5.394-12.049 12.049" fill="#6d6d6d"/></g><g id="g100" transform="matrix(0 -1 1 0 167.76 36.733)"><path id="path102" d="m0 0c0 6.055 4.909 10.964 10.964 10.964s10.964-4.909 10.964-10.964-4.909-10.964-10.964-10.964-10.964 4.909-10.964 10.964" fill="#3f6c9e"/></g><g id="g104" transform="matrix(0 -1 1 0 193.48 284.85)" fill="#e4e5e4"><path id="path106" d="m0 0c0 18.13 14.697 32.827 32.827 32.827s32.827-14.697 32.827-32.827-14.697-32.827-32.827-32.827-32.827 14.697-32.827 32.827" fill="#e4e5e4"/></g><g id="g108" transform="matrix(0 -1 1 0 193.48 274.77)" fill="#a7a8a8"><path id="path110" d="m0 0c0 12.563 10.184 22.748 22.748 22.748 12.563 0 22.747-10.185 22.747-22.748s-10.184-22.748-22.747-22.748c-12.564 0-22.748 10.185-22.748 22.748" fill="#a7a8a8"/></g><g id="g112" transform="matrix(0 -1 1 0 193.48 271.44)" fill="#c1c3c2"><path id="path114" d="m0 0c0 10.725 8.695 19.42 19.42 19.42s19.42-8.695 19.42-19.42-8.695-19.42-19.42-19.42-19.42 8.695-19.42 19.42" fill="#c1c3c2"/></g><g id="g116" transform="matrix(0 -1 1 0 257.47 124.23)" fill="#dedfde"><path id="path118" d="m0 0v-6.249c0-1.397-1.143-2.54-2.539-2.54h-41.054c-1.397 0-2.54 1.143-2.54 2.54v6.249c0 1.397 1.143 2.539 2.54 2.539h5.014c1.252 0 2.267 1.015 2.267 2.268v5.947c0 7.415 5.706 13.789 13.113 14.125 7.901 0.358 14.405-5.937 14.405-13.749v-6.323c0-1.253 1.016-2.268 2.268-2.268h3.987c1.396 0 2.539-1.142 2.539-2.539" fill="#dedfde"/></g><g id="g120" transform="matrix(0 -1 1 0 252.27 150.68)"><path id="path122" d="m0 0c-0.037-0.018-0.148-0.11-0.187-0.13-0.148-0.038-0.242-0.094-0.334-0.112-0.111-0.019-0.243-0.036-0.355-0.036-0.186 0-0.334 0.055-0.448 0.13-0.131 0.073-0.131 0.038-0.224 0.169-0.074 0.109-0.204 0.297-0.204 0.446-0.02 0.113-0.02 0.206 0.018 0.318 0.019 0.075 0.057 0.149 0.112 0.224 0.074 0.075 0.15 0.168 0.261 0.243 0.112 0.057 0.206 0.074 0.392 0.148 0.093 0.038 0.224 0.058 0.43 0.076 0.11 0.017 0.334 0.017 0.41 0.054 0.074 0.02 0.15 0.02 0.205 0.059 0.056 0.037 0.131 0.056 0.169 0.074 0.036 0.036 0.093 0.056 0.185 0.149l-0.018-0.895s-0.018-0.374-0.15-0.579c-0.131-0.226-0.262-0.338-0.262-0.338m-2.032 2.987c0.204 0.092 0.354 0.149 0.484 0.205 0.132 0.037 0.28 0.073 0.466 0.112 0.187 0.038 0.318 0.056 0.505 0.056 0.186 0 0.412-0.073 0.56-0.111 0.131-0.038 0.242-0.187 0.318-0.299 0.094-0.093 0.111-0.15 0.111-0.298v-0.15c-0.018-0.056-0.056-0.074-0.094-0.13s-0.074-0.112-0.13-0.149c-0.038-0.038-0.095-0.075-0.15-0.112-0.075-0.038-0.148-0.056-0.225-0.094-0.074-0.037-0.186-0.019-0.296-0.056-0.374-0.057-0.672-0.074-0.841-0.131-0.168-0.055-0.28-0.093-0.392-0.15-0.13-0.055-0.186-0.112-0.299-0.204-0.112-0.094-0.148-0.168-0.203-0.262-0.058-0.092-0.114-0.187-0.151-0.297-0.019-0.113-0.055-0.261-0.055-0.392 0-0.225 0.036-0.412 0.148-0.616 0.093-0.186 0.28-0.354 0.486-0.449 0.204-0.093 0.466-0.204 0.84-0.204h0.354c0.113 0.018 0.223 0.056 0.431 0.093 0.093 0.075 0.223 0.149 0.372 0.261 0.131 0.13 0.206 0.205 0.206 0.205v-0.466h0.373 0.429c-0.075 0.336-0.111 0.373-0.093 0.615 0 0.412-0.037 1.308-0.019 1.792 0 0.486-0.019 0.354-0.019 0.56 0 0.168-0.075 0.448-0.131 0.596-0.057 0.15-0.15 0.244-0.243 0.412-0.112 0.131-0.374 0.318-0.579 0.374-0.223 0.057-0.374 0.093-0.614 0.093-0.225 0-0.56-0.019-0.803-0.036-0.224-0.037-0.411-0.095-0.729-0.188 0-0.245 0-0.451-0.017-0.58"/></g><g id="g124" transform="matrix(0 -1 1 0 252.33 135.43)"><path id="path126" d="m0 0c-0.056-0.02-0.149-0.112-0.205-0.132-0.131-0.036-0.224-0.094-0.317-0.112-0.132-0.017-0.243-0.036-0.355-0.036-0.186 0-0.354 0.055-0.466 0.131-0.113 0.074-0.113 0.037-0.206 0.168-0.094 0.112-0.224 0.298-0.224 0.448 0 0.111 0 0.206 0.019 0.318 0.037 0.074 0.058 0.149 0.13 0.221 0.076 0.076 0.15 0.169 0.263 0.246 0.093 0.055 0.204 0.073 0.39 0.148 0.076 0.036 0.224 0.056 0.43 0.073 0.094 0.02 0.336 0.02 0.412 0.058 0.055 0.018 0.13 0.037 0.186 0.056 0.074 0.037 0.13 0.056 0.185 0.074 0.037 0.038 0.075 0.058 0.17 0.149v-0.895s-0.02-0.354-0.15-0.579c-0.132-0.226-0.262-0.336-0.262-0.336m-2.034 2.986c0.186 0.093 0.336 0.148 0.466 0.206 0.129 0.037 0.298 0.073 0.466 0.11 0.186 0.036 0.336 0.057 0.504 0.057 0.186 0 0.429-0.074 0.559-0.112 0.149-0.038 0.244-0.186 0.336-0.299 0.094-0.093 0.094-0.184 0.113-0.334 0-0.058 0-0.094-0.02-0.149-0.019-0.059-0.038-0.038-0.075-0.095-0.037-0.055-0.075-0.111-0.131-0.149-0.038-0.036-0.093-0.073-0.168-0.112-0.057-0.036-0.131-0.056-0.206-0.093-0.093-0.038-0.186-0.018-0.296-0.056-0.393-0.057-0.691-0.074-0.84-0.13-0.17-0.057-0.281-0.095-0.412-0.15-0.112-0.057-0.187-0.112-0.298-0.207-0.113-0.093-0.15-0.148-0.206-0.241s-0.094-0.206-0.132-0.318c-0.036-0.112-0.074-0.261-0.074-0.392 0.019-0.223 0.038-0.412 0.15-0.615 0.111-0.186 0.28-0.354 0.486-0.448 0.222-0.093 0.486-0.206 0.859-0.206h0.334c0.132 0.02 0.242 0.056 0.428 0.094 0.095 0.074 0.244 0.15 0.374 0.259 0.15 0.133 0.225 0.207 0.225 0.207v-0.466h0.374 0.427c-0.073 0.335-0.11 0.374-0.11 0.616 0.018 0.411-0.02 1.306-0.02 1.79 0.02 0.486 0 0.354 0 0.561-0.018 0.167-0.073 0.449-0.13 0.595-0.057 0.151-0.148 0.263-0.261 0.412-0.093 0.132-0.354 0.318-0.578 0.375-0.205 0.056-0.354 0.108-0.596 0.108-0.225 0-0.579-0.035-0.804-0.053-0.242-0.038-0.41-0.094-0.728-0.168-0.016-0.262 3e-3 -0.466-0.016-0.597"/></g><g id="g128" transform="matrix(0 -1 1 0 251.62 148.82)"><path id="path130" d="m0 0 0.093 0.316 0.02 0.879-0.056 2.52c0 0.224-0.131 0.484-0.131 0.596 0.131 0 0.41 0.038 0.539 0.096 0.094 0.036 0.225 0.036 0.319 0.036v-0.579c0.093 0.168 0.241 0.185 0.318 0.28 0.055 0.094 0.131 0.094 0.26 0.186 0.113 0.077 0.186 0.077 0.336 0.113 0.187 0.019 0.317 0.036 0.485 0.036 0.112 0 0.224-0.018 0.336-0.055 0.112-0.018 0.222-0.075 0.317-0.131 0.093-0.037 0.186-0.112 0.241-0.169 0.076-0.076 0.151-0.112 0.225-0.242 0.019-0.038 0.186 0.204 0.429 0.335s0.523 0.244 0.822 0.244c0.186 0 0.615-0.02 0.801-0.094 0.187-0.075 0.449-0.17 0.561-0.299 0.112-0.13 0.148-0.186 0.242-0.299 0.131-0.13 0.17-0.466 0.17-0.596 0-0.149 0.018-0.374 0.018-0.654v-2.07c0-0.205 0.056-0.224 0.094-0.449h-0.411-0.448c0.111 0.354 0.094 0.244 0.094 0.449l0.017 1.884c0 0.262 0 0.411-0.017 0.616 0 0.166-0.056 0.374-0.094 0.466-0.038 0.093-0.206 0.281-0.28 0.354-0.076 0.075-0.186 0.094-0.299 0.133-0.093 0.055-0.28 0.055-0.409 0.055-0.095 0-0.244-0.018-0.337-0.038-0.074-0.036-0.168-0.056-0.244-0.111-0.073-0.056-0.148-0.075-0.223-0.168-0.056-0.075-0.111-0.167-0.168-0.279-0.037-0.096-0.037-0.263-0.055-0.431 0-0.186 0.018-0.428 0-0.689v-1.829l0.13-0.412h-0.466-0.431c0 0.374 0.058 0.038 0.058 0.43v1.698 0.857c-0.019 0.15-0.036 0.206-0.058 0.318-0.036 0.094-0.092 0.243-0.166 0.316-0.076 0.096-0.244 0.244-0.356 0.283-0.093 0.055-0.242 0.093-0.373 0.093-0.149 0-0.225-0.02-0.355-0.076-0.112-0.056-0.223-0.074-0.316-0.186-0.095-0.093-0.169-0.113-0.244-0.259-0.057-0.15-0.112-0.112-0.13-0.358-0.038-0.241-0.057-1.118-0.057-1.715 0.019-0.355 0.019-0.671 0.019-0.97 0-0.186 0.094-0.26 0.094-0.429h-0.429c-0.074-2e-3 -0.316-2e-3 -0.485-2e-3"/></g><g id="g132" transform="matrix(0 -1 1 0 252.42 138.21)"><path id="path134" d="m0 0c0-0.058-0.02-0.15-0.037-0.28-0.02-0.132-0.056-0.244-0.075-0.374-0.186-0.056-0.391-0.112-0.577-0.131-0.17-0.019-0.653-0.036-0.804-0.036-0.28 0-0.617 0.055-0.859 0.129-0.242 0.095-0.559 0.262-0.746 0.466-0.186 0.187-0.412 0.393-0.504 0.691-0.093 0.299-0.167 0.579-0.167 0.895-0.019 0.449 0.056 0.598 0.167 0.989 0.131 0.392 0.449 0.691 0.728 0.915 0.297 0.225 0.971 0.411 1.475 0.411 0.374 0 0.82-0.056 1.194-0.168 0.019-0.262 0.038-0.41 0.058-0.579-0.262 0.096-0.505 0.208-0.654 0.244-0.168 0.02-0.374 0.056-0.504 0.056-0.242 0-0.727-0.113-0.914-0.204-0.186-0.096-0.335-0.225-0.467-0.412-0.112-0.168-0.206-0.411-0.26-0.653-0.057-0.244-0.074-0.261-0.057-0.522 0.019-0.336 0.074-0.635 0.169-0.896 0.111-0.243 0.28-0.503 0.522-0.634 0.225-0.15 0.504-0.281 0.803-0.281 0.278 0 0.875 0.037 1.509 0.374"/></g><g id="g136" transform="matrix(0 -1 1 0 251.79 133.68)"><path id="path138" d="m0 0-0.074 0.297c0 0.038-0.074 0.224-0.111 0.43 0.503-0.28 1.027-0.485 1.418-0.485 0.186 0 0.392 0.073 0.522 0.111 0.131 0.056 0.261 0.15 0.336 0.26 0.058 0.095 0.13 0.206 0.15 0.3 0.018 0.057 0.036 0.148 0.018 0.204-0.018 0.057-0.038 0.224-0.093 0.281-0.038 0.056-0.187 0.185-0.261 0.261-0.075 0.055-0.28 0.168-0.561 0.28-0.26 0.11-0.616 0.223-0.745 0.335-0.133 0.095-0.355 0.224-0.449 0.336-0.093 0.113-0.15 0.224-0.206 0.334-0.036 0.114 0 0.282-0.019 0.414 0 0.186 0.112 0.374 0.224 0.54 0.111 0.187 0.298 0.28 0.522 0.374 0.225 0.072 0.486 0.132 0.785 0.132 0.335 0 0.653-0.077 1.065-0.15 0.017-0.225-0.039-0.393-0.02-0.579-0.282 0.186-0.617 0.298-0.933 0.298-0.17 0-0.336-0.036-0.486-0.074-0.15-0.057-0.298-0.186-0.374-0.28-0.056-0.093-0.093-0.17-0.093-0.28 0-0.075 0.019-0.186 0.055-0.261 0.02-0.057 0.187-0.242 0.281-0.28 0.131-0.057 0.075-0.038 0.186-0.074 0.132-0.019 0.43-0.186 0.727-0.318 0.319-0.148 0.599-0.335 0.691-0.43 0.094-0.094 0.206-0.222 0.281-0.448 0.056-0.112 0.073-0.242 0.073-0.335 0-0.168-0.037-0.186-0.037-0.298 0.02-0.206-0.036-0.281-0.149-0.448-0.11-0.186-0.318-0.354-0.559-0.448-0.243-0.093-0.485-0.169-0.784-0.169-0.131 0-0.411-0.018-0.578 0-0.168 0.019-0.318 0.076-0.449 0.094-0.109 0.018-0.183 0.018-0.353 0.076"/></g><g id="g140" transform="matrix(0 -1 1 0 252.16 128.23)"><path id="path142" d="m0 0c-0.037-0.15-0.075-0.226-0.094-0.466-0.186-0.058-0.261-0.076-0.373-0.076-0.095-0.018-0.206 0.019-0.3 0.019-0.241 0-0.428 0.02-0.576 0.093-0.15 0.075-0.262 0.168-0.336 0.319-0.094 0.148-0.151 0.522-0.151 0.782v0.17c0 0.094-0.017 0.168 0 0.67l-0.017 1.943h-0.542v0.391l0.542 0.02c0.017 0.108 0 0.484 0 0.764 0 0.132-0.076 0.26-0.132 0.337 0.261 0.055 0.636 0.168 0.802 0.203 0-0.428 0.038-1.063 0.038-1.304l1.12-0.02c-0.018-0.187 0-0.261 0.02-0.429l-0.318 0.038h-0.822l-0.017-2.445v-0.206c0.017-0.224 0.035-0.503 0.093-0.615 0.036-0.112 0.11-0.15 0.204-0.206 0.093-0.038 0.187-0.057 0.28-0.057h0.244c0.074-1e-3 0.13 0.017 0.335 0.075"/></g><g id="g144" transform="matrix(0 -1 1 0 252.4 153.67)"><path id="path146" d="m0 0c-0.018-0.167-0.075-0.372-0.093-0.633-0.26-0.074-0.672-0.224-0.858-0.262-0.186-0.018-0.373-0.018-0.559-0.018-0.336 0-0.673 0.074-0.953 0.168-0.26 0.094-0.524 0.279-0.728 0.504-0.206 0.223-0.392 0.467-0.486 0.745-0.093 0.298-0.112 0.579-0.131 0.895-0.018 0.449 0.057 0.617 0.188 1.008 0.148 0.374 0.428 0.654 0.728 0.878 0.298 0.225 0.672 0.317 1.156 0.317 0.244 0 0.522-0.018 0.747-0.092 0.223-0.076 0.411-0.169 0.559-0.318 0.149-0.168 0.281-0.335 0.374-0.56 0.094-0.243 0.113-0.243 0.15-0.522 0.036-0.132 0.036-0.337 0.036-0.449l-3.19-0.018v-0.319c0.018-0.318 0.056-0.634 0.185-0.896 0.132-0.261 0.299-0.448 0.541-0.577 0.244-0.131 0.542-0.261 0.842-0.261 0.355 2e-3 0.97 0.15 1.492 0.41m-2.928 2.112h2.332c0 0.185 0 0.13-0.019 0.241-0.017 0.094-0.055 0.187-0.111 0.299-0.056 0.111-0.149 0.185-0.243 0.261-0.094 0.094-0.186 0.148-0.317 0.206-0.113 0.038-0.3 0.056-0.449 0.056s-0.28-0.039-0.412-0.095c-0.148-0.055-0.26-0.111-0.353-0.205-0.113-0.076-0.186-0.168-0.261-0.28s-0.131-0.225-0.149-0.335l-0.019-0.037s0.019 0 1e-3 -0.111"/></g><g id="g148" transform="matrix(0 -1 1 0 251.51 160.2)"><path id="path150" d="m0 0c0 0.095 0.076 0.207 0.076 0.281 0.019 1.417 0 2.5-0.038 3.396l-0.018 0.393-0.131 0.317c0.131 0.02 0.318 0.037 0.411 0.056s0.335 0.056 0.447 0.056v-0.804c0.095 0.188 0.112 0.17 0.186 0.262 0.057 0.096 0.187 0.204 0.28 0.281 0.095 0.056 0.186 0.131 0.318 0.169 0.112 0.036 0.224 0.092 0.355 0.092 0.112 0 0.205 0.02 0.467 0 0.259-0.037 0.41-0.092 0.467-0.111 0.018-0.112-0.187-0.598-0.187-0.598s-0.206 0.02-0.374 0.094c-0.168 0.037-0.278 0.037-0.411 0.037-0.148 0-0.334-0.037-0.466-0.093-0.111-0.058-0.242-0.133-0.334-0.242-0.095-0.112-0.15-0.244-0.206-0.411-0.058-0.132-0.038-0.02-0.058-0.225-0.017-0.224 0-2.221 0.02-2.688l0.074-0.241h-0.448c-0.074 0-0.28-0.021-0.43-0.021"/></g><g id="g152" transform="matrix(0 -1 1 0 251.49 166.79)"><path id="path154" d="m0 0 0.15 0.429v5.298c-0.02 0.17-0.074 0.318-0.169 0.599 0.374-0.02 0.989 0.019 1.25 0.019 0.149 0 0.393-0.019 0.728-0.019 0.336 0 0.635 0 0.783-0.02 0.467-0.036 0.599-0.056 0.934-0.148 0.242-0.056 0.708-0.318 0.933-0.467 0.205-0.15 0.428-0.318 0.597-0.559 0.166-0.243 0.243-0.318 0.372-0.597 0.15-0.394 0.244-0.804 0.244-1.177 0.038-0.542-0.019-0.933-0.169-1.418-0.166-0.486-0.503-0.84-0.82-1.158-0.318-0.336-0.672-0.522-1.082-0.635-0.41-0.093-0.876-0.186-1.399-0.186h-1.214l-1.138 0.039zm1.103 0.504c0.352-0.02 0.652-0.02 0.95-0.02 0.244 0 0.542 0.02 0.803 0.038 0.279 0.038 0.466 0.131 0.673 0.206 0.205 0.075 0.41 0.185 0.596 0.374 0.206 0.186 0.354 0.411 0.487 0.635 0.11 0.243 0.205 0.503 0.241 0.802 0.056 0.299 0.076 0.598 0.076 0.895-0.02 0.336-0.112 0.599-0.207 0.878-0.093 0.298-0.26 0.654-0.503 0.859-0.261 0.204-0.448 0.372-0.728 0.447-0.261 0.075-0.652 0.188-1.082 0.188-0.28 0-0.636-0.02-0.804-0.039-0.186-0.019-0.336-0.038-0.579-0.038l0.077-5.225z"/></g><g id="g156" transform="matrix(0 -1 1 0 266.9 146.6)"><path id="path158" d="m0 0c0 0.748-0.356 0.674-0.598 0.71-0.26 0.038-0.878-0.094-1.435 0.038-0.673 0.13-1.028 1.063-0.916 1.511 0.336 1.289 1.176 1.457 1.754 1.418 0.449-0.019 1.288-0.056 2.315-0.952 0.466-0.41 0.746-1.493 0.765-2.108 0.02-0.764-0.019-1.624-0.466-2.108-0.728-0.784-2.651-1.454-3.732-1.418-4.237 0.448-4.087 4.44-4.087 4.44s-0.337 1.717 1.101 3.547c0.113 0.149 0.299 0.504 0.448 0.652 0.149 0.168 0.26 0.206 0.448 0.356 0.168 0.13 0.354 0.223 0.541 0.335 0.466 0.28 0.97 0.539 1.455 0.689 0.729 0.224 1.456 0.28 2.035 0.262 1.753-0.056 3.657-1.008 4.61-2.483 0.148-0.204 0.26-0.354 0.391-0.541 0.131-0.206 0.298-0.56 0.466-0.988 0.225-0.636 0.148-0.374 0.392-1.345 0.168-0.69 0.244-1.121 0.28-1.567 0.02-0.205 0.037-0.428 0.058-0.672 0.018-0.765 0.11-0.952-0.058-1.549-0.261-1.006-0.897-1.998-1.419-2.519-0.933-0.915-1.79-1.196-2.295-1.455-0.504-0.262-0.709-0.299-1.361-0.523-0.652-0.243-1.008-0.281-2.167-0.281-1.137 0.018-2.07 0.075-2.349 0.149-2.036 0.56-2.762 0.933-3.639 1.643-2.277 1.79-2.744 5.299-2.744 5.299s-0.242 1.79 0.148 3.657c0.225 0.989 1.215 2.799 1.794 3.528 0.484 0.614 1.603 1.512 2.275 1.923 0.672 0.428 1.625 0.988 2.726 1.323 0.54 0.184 0.952 0.261 2.182 0.318 1.419 0.055 3.51-0.318 4.74-0.691 1.289-0.392 2.463-1.232 3.062-1.884 0.614-0.673 1.978-2.669 2.201-3.08 0.244-0.411 0.896-2.594 0.952-2.893 0.057-0.279 0.168-1.268 1.139-1.213 0.895 0.077 0.633 1.101 0.615 1.289-0.038 0.187-0.354 1.884-0.505 2.351-0.13 0.466-0.819 1.698-0.988 1.94-0.075 0.151-0.709 1.177-1.323 1.979-0.468 0.598-0.917 1.196-1.421 1.494-0.951 0.614-2.164 1.157-2.164 1.157s-2.071 0.71-3.155 0.84c-0.933 0.112-1.939 0.316-3.6 0.206-1.661-0.112-2.576-0.561-3.19-0.803-0.599-0.262-1.979-0.86-3.007-1.698-1.027-0.842-0.709-0.43-1.269-1.045-0.541-0.616-0.709-0.784-1.081-1.308-0.374-0.541-1.175-2.108-1.476-3.171-0.11-0.43-0.316-1.083-0.41-1.717-0.074-0.54-0.094-1.064-0.036-1.493 0.093-0.915 0.055-0.933 0.055-0.933s0.429-1.772 0.653-2.482c0.242-0.689 0.56-1.717 1.997-3.322 1.455-1.587 2.78-2.015 3.284-2.221 0.504-0.187 2.202-0.783 4.442-0.821 2.594-0.057 3.266 0.522 3.733 0.709 0.484 0.206 2.071 0.878 3.34 2.071 1.268 1.193 1.679 2.482 1.717 2.575 0.353 1.008 0.466 2.614 0.148 4.181-0.224 1.063-0.392 1.98-0.598 2.632-0.374 1.119-0.821 1.754-1.156 2.258-0.298 0.466-1.233 1.176-1.811 1.531-0.28 0.166-0.541 0.373-0.914 0.523-0.374 0.168-0.86 0.278-1.437 0.41-0.541 0.131-1.251 0.261-1.848 0.299-0.522 0.037-0.969 0.018-1.158 0.018-0.261 0-1.156-0.15-2.35-0.783-0.672-0.355-1.382-0.767-2.183-1.567-0.244-0.262-0.467-0.579-0.653-0.84-1.773-2.426-1.12-5.133-1.12-5.133s0.316-3.658 3.526-4.703c1.139-0.354 2.129-0.374 2.969-0.279 1.4 0.186 2.426 0.765 3.116 1.119 0.71 0.372 1.232 0.971 1.512 1.625 0.28 0.597 0.335 1.231 0.317 1.753-0.018 0.318-0.018 0.709-0.093 1.12-0.186 1.044-0.56 2.09-1.475 2.872l-0.281 0.188c-0.168 0.112-0.316 0.187-0.447 0.261-0.783 0.411-1.55 0.56-2.613 0.616-0.393-0.019-0.97-0.094-1.288-0.261-1.27-0.616-1.959-1.737-1.904-3.209 0.056-1.381 1.344-2.109 1.567-2.314 0.021-0.02 2.875-0.747 2.951 0.558" fill="#3e649f"/></g><g id="g160" transform="matrix(0 -1 1 0 133.61 213.41)" fill="#a7a8a8"><path id="path162" d="m0 0v-12.204c0-0.756-0.62-1.376-1.379-1.376h-14.383v-14.386c0-0.756-0.62-1.379-1.379-1.379h-12.201c-0.759 0-1.379 0.623-1.379 1.379v14.386h-14.383c-0.759 0-1.379 0.62-1.379 1.376v12.204c0 0.759 0.62 1.379 1.379 1.379h14.383v14.383c0 0.759 0.62 1.379 1.379 1.379h12.201c0.759 0 1.379-0.62 1.379-1.379v-14.383h14.383c0.759 0 1.379-0.62 1.379-1.379" fill="#a7a8a8"/></g><g id="g164" transform="matrix(0 -1 1 0 132.94 214.73)" fill="#c1c3c2"><path id="path166" d="m0 0v-10.867c0-0.673-0.552-1.225-1.228-1.225h-14.04v-14.039c0-0.673-0.552-1.227-1.227-1.227h-10.865c-0.676 0-1.228 0.554-1.228 1.227v14.039h-14.04c-0.675 0-1.227 0.552-1.227 1.225v10.867c0 0.676 0.552 1.228 1.227 1.228h14.04v14.035c0 0.676 0.552 1.228 1.228 1.228h10.864c0.676 0 1.228-0.552 1.228-1.228v-14.035h14.04c0.676 0 1.228-0.552 1.228-1.228" fill="#c1c3c2"/></g><g id="g168" transform="matrix(0 -1 1 0 56.216 156.06)"><path id="path170" d="m0 0c0.27-0.147 0.664-0.269 1.079-0.269 0.615 0 0.975 0.287 0.975 0.703 0 0.385-0.249 0.606-0.879 0.82-0.76 0.238-1.23 0.587-1.23 1.168 0 0.642 0.601 1.119 1.507 1.119 0.477 0 0.823-0.098 1.03-0.202l-0.166-0.434c-0.152 0.073-0.463 0.195-0.885 0.195-0.636 0-0.878-0.336-0.878-0.617 0-0.386 0.284-0.575 0.927-0.795 0.788-0.269 1.189-0.606 1.189-1.211 0-0.636-0.532-1.186-1.632-1.186-0.449 0-0.94 0.116-1.189 0.263l0.152 0.446z" fill="#7f7f7f"/></g><g id="g172" transform="matrix(0 -1 1 0 59.237 151.68)"><path id="path174" d="m0 0h-1.418v0.452h3.451v-0.452h-1.425v-3.669h-0.608v3.669z" fill="#7f7f7f"/></g><g id="g176" transform="matrix(0 -1 1 0 57.28 147.37)"><path id="path178" d="m0 0-0.456 1.187c-0.104 0.268-0.173 0.513-0.243 0.752h-0.013c-0.07-0.245-0.145-0.496-0.235-0.746l-0.457-1.193h1.404zm-1.528-0.416-0.484-1.296h-0.622l1.583 4.121h0.726l1.59-4.121h-0.643l-0.498 1.296h-1.652z" fill="#7f7f7f"/></g><g id="g180" transform="matrix(0 -1 1 0 57.757 144.82)"><path id="path182" d="m0 0h0.616c0.643 0 1.051 0.312 1.051 0.783 0 0.532-0.436 0.764-1.072 0.771-0.291 0-0.498-0.025-0.595-0.049v-1.505zm-0.601 1.878c0.304 0.055 0.739 0.085 1.154 0.085 0.643 0 1.058-0.104 1.349-0.336 0.235-0.184 0.366-0.465 0.366-0.783 0-0.544-0.387-0.905-0.878-1.052v-0.018c0.36-0.11 0.574-0.404 0.685-0.832 0.152-0.575 0.262-0.972 0.359-1.131h-0.622c-0.076 0.116-0.18 0.471-0.311 0.984-0.139 0.569-0.388 0.783-0.934 0.802h-0.567v-1.786h-0.601v4.067z" fill="#7f7f7f"/></g><g id="g184" transform="matrix(0 -1 1 0 59.237 140.75)"><path id="path186" d="m0 0h-1.418v0.452h3.451v-0.452h-1.425v-3.669h-0.608v3.669z" fill="#7f7f7f"/></g><g id="g188" transform="matrix(0 -1 1 0 208.87 259.34)"><path id="path190" d="m0 0c0.13-0.299 0.478-0.436 0.777-0.307 0.299 0.13 0.436 0.478 0.306 0.777s-0.477 0.437-0.776 0.307c-0.3-0.13-0.437-0.478-0.307-0.777m1.41-3.25c0.13-0.299 0.478-0.436 0.777-0.306 0.299 0.129 0.436 0.477 0.307 0.776-0.13 0.299-0.478 0.437-0.777 0.307s-0.436-0.478-0.307-0.777m1.519-3.499c0.13-0.299 0.477-0.436 0.776-0.306 0.3 0.129 0.437 0.477 0.307 0.776-0.13 0.3-0.478 0.437-0.777 0.307s-0.436-0.478-0.306-0.777m1.829-2.732c0.299 0.13 0.647-7e-3 0.777-0.307 0.13-0.299-8e-3 -0.646-0.307-0.776s-0.647 7e-3 -0.776 0.306c-0.13 0.299 7e-3 0.647 0.306 0.777m9.889-21.303c-0.13 0.299-0.478 0.437-0.777 0.307s-0.437-0.478-0.307-0.777 0.478-0.436 0.777-0.307c0.299 0.13 0.436 0.478 0.307 0.777m-1.411 3.25c-0.13 0.299-0.477 0.436-0.776 0.307-0.3-0.13-0.437-0.478-0.307-0.777s0.478-0.437 0.777-0.307 0.436 0.478 0.306 0.777m-1.518 3.499c-0.13 0.299-0.478 0.436-0.777 0.306-0.299-0.129-0.436-0.477-0.306-0.776 0.129-0.299 0.477-0.437 0.776-0.307s0.437 0.478 0.307 0.777m-1.83 2.732c-0.299-0.13-0.646 8e-3 -0.776 0.307s7e-3 0.647 0.306 0.776c0.3 0.13 0.647-7e-3 0.777-0.306s-7e-3 -0.647-0.307-0.777m12.827 13.234c-0.299-0.129-0.436-0.477-0.306-0.776 0.129-0.299 0.477-0.437 0.776-0.307s0.437 0.478 0.307 0.777-0.478 0.436-0.777 0.306m-3.25-1.41c-0.299-0.13-0.436-0.478-0.306-0.777s0.477-0.436 0.776-0.306c0.3 0.13 0.437 0.477 0.307 0.776-0.13 0.3-0.477 0.437-0.777 0.307m-3.499-1.518c-0.299-0.13-0.436-0.478-0.306-0.777s0.477-0.436 0.777-0.307c0.299 0.13 0.436 0.478 0.306 0.777s-0.477 0.436-0.777 0.307m-2.732-1.83c0.13-0.299-7e-3 -0.647-0.306-0.776-0.299-0.13-0.647 7e-3 -0.777 0.306s7e-3 0.647 0.307 0.777c0.299 0.13 0.646-8e-3 0.776-0.307m-21.303-9.888c0.3 0.13 0.437 0.477 0.307 0.776-0.13 0.3-0.478 0.437-0.777 0.307s-0.436-0.477-0.306-0.777c0.129-0.299 0.477-0.436 0.776-0.306m3.25 1.41c0.299 0.13 0.437 0.478 0.307 0.777s-0.478 0.436-0.777 0.306c-0.299-0.129-0.436-0.477-0.306-0.776 0.129-0.299 0.477-0.437 0.776-0.307m3.499 1.519c0.299 0.129 0.437 0.477 0.307 0.776s-0.478 0.437-0.777 0.307-0.436-0.478-0.307-0.777c0.13-0.299 0.478-0.436 0.777-0.306m2.732 1.829c-0.129 0.299 8e-3 0.647 0.307 0.777 0.299 0.129 0.647-8e-3 0.777-0.307 0.129-0.299-8e-3 -0.647-0.307-0.777s-0.647 8e-3 -0.777 0.307m-6.551 14.194c0.231-0.23 0.604-0.23 0.835 0 0.231 0.231 0.231 0.604 0 0.835-0.23 0.231-0.604 0.231-0.835 0-0.23-0.23-0.231-0.604 0-0.835m2.505-2.505c0.23-0.231 0.604-0.231 0.835 0 0.231 0.23 0.231 0.604 0 0.835-0.231 0.23-0.604 0.23-0.835 0-0.231-0.231-0.231-0.605 0-0.835m2.697-2.697c0.23-0.231 0.604-0.231 0.835 0 0.23 0.23 0.23 0.604 0 0.835-0.231 0.23-0.605 0.23-0.835 0-0.231-0.231-0.231-0.605 0-0.835m19.723-18.056c-0.231 0.231-0.605 0.231-0.835 0-0.231-0.23-0.231-0.604-1e-3 -0.835 0.231-0.231 0.605-0.231 0.835 0 0.231 0.231 0.231 0.604 1e-3 0.835m-2.505 2.505c-0.231 0.231-0.605 0.231-0.835 0-0.231-0.23-0.231-0.604 0-0.835 0.23-0.23 0.604-0.23 0.835 0 0.23 0.231 0.23 0.605 0 0.835m-2.697 2.697c-0.231 0.231-0.605 0.231-0.835 1e-3 -0.231-0.231-0.231-0.605 0-0.835 0.23-0.231 0.604-0.231 0.835-1e-3 0.23 0.231 0.23 0.605 0 0.835m4.368 18.889c-0.23-0.23-0.23-0.604 0-0.835 0.231-0.23 0.605-0.23 0.835 0 0.231 0.231 0.231 0.605 0 0.835-0.23 0.231-0.604 0.231-0.835 0m-2.505-2.505c-0.231-0.23-0.231-0.604 0-0.835 0.231-0.23 0.604-0.23 0.835 0 0.231 0.231 0.231 0.605 0 0.835-0.23 0.231-0.604 0.231-0.835 0m-2.697-2.696c-0.231-0.231-0.231-0.605 0-0.835 0.23-0.231 0.604-0.231 0.835 0 0.23 0.23 0.23 0.604 0 0.835-0.231 0.23-0.605 0.23-0.835 0m-18.056-19.723c0.231 0.23 0.231 0.604 0 0.835-0.23 0.23-0.604 0.23-0.835 0-0.23-0.231-0.23-0.605 0-0.835 0.231-0.231 0.605-0.231 0.835 0m2.505 2.505c0.231 0.23 0.231 0.604 1e-3 0.835-0.231 0.23-0.605 0.23-0.835 0-0.231-0.231-0.231-0.605-1e-3 -0.835 0.231-0.231 0.605-0.231 0.835 0m2.698 2.697c0.23 0.23 0.23 0.604 0 0.835-0.231 0.23-0.605 0.23-0.835 0-0.231-0.231-0.231-0.605 0-0.835 0.23-0.231 0.604-0.231 0.835 0m-9.506 13.318c0.3-0.127 0.646 0.015 0.773 0.315 0.126 0.301-0.015 0.647-0.316 0.773-0.3 0.127-0.646-0.015-0.773-0.315-0.126-0.301 0.015-0.647 0.316-0.773m3.266-1.373c0.3-0.127 0.646 0.015 0.773 0.315 0.126 0.301-0.015 0.647-0.316 0.773-0.3 0.127-0.647-0.015-0.773-0.315-0.126-0.301 0.015-0.647 0.316-0.773m3.516-1.478c0.3-0.127 0.646 0.014 0.773 0.315 0.126 0.301-0.015 0.647-0.316 0.773-0.3 0.127-0.647-0.015-0.773-0.315-0.126-0.301 0.015-0.647 0.316-0.773m3.21-0.71c0.127 0.301 0.473 0.442 0.773 0.316 0.301-0.127 0.442-0.473 0.316-0.773-0.126-0.301-0.473-0.442-0.773-0.316-0.301 0.127-0.442 0.473-0.316 0.773m21.873-8.555c-0.301 0.127-0.647-0.014-0.773-0.315-0.127-0.301 0.015-0.647 0.315-0.773 0.301-0.127 0.647 0.015 0.773 0.315 0.127 0.301-0.014 0.647-0.315 0.773m-3.266 1.373c-0.301 0.127-0.647-0.014-0.773-0.315s0.015-0.647 0.315-0.773c0.301-0.127 0.647 0.015 0.774 0.315 0.126 0.301-0.015 0.647-0.316 0.773m-3.516 1.479c-0.301 0.126-0.647-0.015-0.773-0.316-0.127-0.3 0.015-0.647 0.315-0.773 0.301-0.126 0.647 0.015 0.773 0.315 0.127 0.301-0.014 0.647-0.315 0.774m-3.211 0.709c-0.126-0.301-0.472-0.442-0.773-0.316-0.3 0.127-0.442 0.473-0.315 0.774 0.126 0.3 0.472 0.441 0.773 0.315 0.3-0.126 0.442-0.473 0.315-0.773m0.118 18.43c-0.126-0.301 0.015-0.647 0.315-0.773 0.301-0.127 0.647 0.014 0.773 0.315 0.127 0.301-0.014 0.647-0.315 0.773-0.301 0.127-0.647-0.015-0.773-0.315m-1.373-3.266c-0.126-0.301 0.015-0.647 0.315-0.773 0.301-0.127 0.647 0.015 0.774 0.315 0.126 0.301-0.015 0.647-0.316 0.773-0.301 0.127-0.647-0.015-0.773-0.315m-1.478-3.516c-0.127-0.301 0.015-0.647 0.315-0.773 0.301-0.127 0.647 0.015 0.773 0.315 0.127 0.301-0.014 0.647-0.315 0.773-0.301 0.127-0.647-0.015-0.773-0.315m-0.71-3.211c0.301-0.126 0.442-0.472 0.316-0.773s-0.473-0.442-0.773-0.316c-0.301 0.127-0.442 0.473-0.316 0.774 0.127 0.3 0.473 0.441 0.773 0.315m-8.554-21.873c0.126 0.301-0.015 0.647-0.316 0.774-0.3 0.126-0.647-0.015-0.773-0.316-0.126-0.3 0.015-0.647 0.316-0.773 0.3-0.126 0.646 0.015 0.773 0.315m1.373 3.266c0.126 0.301-0.015 0.647-0.316 0.773-0.3 0.127-0.647-0.014-0.773-0.315s0.015-0.647 0.316-0.773c0.3-0.127 0.646 0.015 0.773 0.315m1.478 3.516c0.126 0.301-0.015 0.647-0.316 0.773-0.3 0.127-0.646-0.014-0.773-0.315-0.126-0.301 0.015-0.647 0.316-0.773 0.3-0.126 0.646 0.015 0.773 0.315m0.709 3.211c-0.301 0.126-0.442 0.473-0.315 0.773 0.126 0.301 0.472 0.442 0.773 0.316 0.3-0.127 0.442-0.473 0.315-0.773-0.126-0.301-0.472-0.442-0.773-0.316m3.088-11.095c0 0.326-0.265 0.59-0.591 0.59s-0.59-0.264-0.59-0.59 0.264-0.59 0.59-0.59 0.591 0.264 0.591 0.59m0 3.543c0 0.326-0.265 0.59-0.591 0.59s-0.59-0.264-0.59-0.59 0.264-0.591 0.59-0.591 0.591 0.265 0.591 0.591m0 3.814c0 0.326-0.265 0.59-0.591 0.59s-0.59-0.264-0.59-0.59 0.264-0.591 0.59-0.591 0.591 0.265 0.591 0.591m-1.181 26.713c0-0.326 0.264-0.59 0.59-0.59s0.591 0.264 0.591 0.59-0.265 0.591-0.591 0.591-0.59-0.265-0.59-0.591m0-3.543c0-0.326 0.264-0.59 0.59-0.59s0.591 0.264 0.591 0.59c0 0.327-0.265 0.591-0.591 0.591s-0.59-0.264-0.59-0.591m0-3.814c0-0.326 0.264-0.59 0.59-0.59s0.591 0.264 0.591 0.59-0.265 0.591-0.591 0.591-0.59-0.265-0.59-0.591m-16.445-10.268c0.326 0 0.591 0.264 0.591 0.59s-0.265 0.591-0.591 0.591-0.59-0.265-0.59-0.591 0.264-0.59 0.59-0.59m3.543 0c0.326 0 0.59 0.264 0.59 0.59s-0.264 0.591-0.59 0.591-0.591-0.265-0.591-0.591 0.265-0.59 0.591-0.59m3.814 0c0.326 0 0.591 0.264 0.591 0.59s-0.265 0.591-0.591 0.591-0.59-0.265-0.59-0.591 0.264-0.59 0.59-0.59m26.713 1.181c-0.326 0-0.59-0.265-0.59-0.591s0.264-0.59 0.59-0.59 0.591 0.264 0.591 0.59-0.265 0.591-0.591 0.591m-3.542 0c-0.326 0-0.591-0.265-0.591-0.591s0.265-0.59 0.591-0.59 0.59 0.264 0.59 0.59-0.264 0.591-0.59 0.591m-3.814 0c-0.327 0-0.591-0.265-0.591-0.591s0.264-0.59 0.591-0.59c0.326 0 0.59 0.264 0.59 0.59s-0.264 0.591-0.59 0.591" fill="#b1b2b5"/></g><g id="g192" transform="matrix(0 -1 1 0 162.49 73.463)"><path id="path194" d="m0 0-1.339 2.325c-0.55 0.89-0.89 1.466-1.222 2.076h-0.03c-0.297-0.61-0.593-1.169-1.139-2.089l-1.265-2.312h-1.561l3.219 5.322-3.093 5.199h1.575l1.392-2.469c0.388-0.685 0.684-1.217 0.968-1.779h0.044c0.296 0.628 0.562 1.108 0.955 1.779l1.435 2.469h1.562l-3.202-5.121 3.28-5.4h-1.579z" fill="#b5aa1d"/></g><g id="g196" transform="matrix(0 -1 1 0 187.13 51.305)"><path id="path198" d="m0 0v4.462l-3.324 6.059h1.544l1.483-2.905c0.406-0.794 0.716-1.435 1.043-2.168h0.035c0.296 0.685 0.654 1.374 1.06 2.168l1.513 2.905h1.545l-3.525-6.041v-4.48h-1.374z" fill="#036d2e"/></g><g id="g200" transform="matrix(0 -1 1 0 142.44 48.927)"><path id="path202" d="m0 0-1.029 3.027c-0.236 0.685-0.393 1.313-0.55 1.92h-0.031c-0.157-0.624-0.327-1.265-0.527-1.902l-1.034-3.045h3.171zm-3.45-1.06-1.095-3.311h-1.405l3.577 10.521h1.64l3.59-10.521h-1.452l-1.126 3.311h-3.729z" fill="#a02727"/></g><g id="g204" transform="matrix(0 -1 1 0 163.53 27.73)"><path id="path206" d="m0 0c0.266-0.048 0.659-0.061 1.138-0.061 1.405 0 2.701 0.515 2.701 2.046 0 1.435-1.23 2.028-2.714 2.028h-1.125v-4.013zm0 5.043h1.234c1.436 0 2.277 0.75 2.277 1.762 0 1.234-0.933 1.718-2.307 1.718-0.624 0-0.986-0.048-1.204-0.096v-3.384zm-1.357 4.305c0.594 0.126 1.531 0.222 2.482 0.222 1.357 0 2.234-0.235 2.888-0.767 0.545-0.406 0.872-1.03 0.872-1.859 0-1.012-0.671-1.901-1.779-2.307v-0.031c0.999-0.253 2.172-1.077 2.172-2.639 0-0.907-0.362-1.592-0.89-2.107-0.733-0.671-1.919-0.981-3.638-0.981-0.938 0-1.653 0.061-2.107 0.122v10.347z" fill="#264560"/></g><g id="g208" transform="matrix(0 -1 1 0 127.51 243.09)" fill="#a7a8a8"><path id="path210" d="m0 0c0 3.553 2.88 6.433 6.433 6.433 3.554 0 6.434-2.88 6.434-6.433s-2.88-6.433-6.434-6.433c-3.553 0-6.433 2.88-6.433 6.433" fill="#a7a8a8"/></g></g></g></svg>
