<?xml version="1.0" encoding="UTF-8"?>
<!-- Generator: Adobe Illustrator 19.0.0, SVG Export Plug-In . SVG Version: 6.00 Build 0)  -->
<svg id="Layer_1" baseProfile="tiny" version="1.1" viewBox="0 0 162.5 367" xml:space="preserve" xmlns="http://www.w3.org/2000/svg">
<g id="PAD">
	<g id="XMLID_60_">
		<path id="XMLID_61_" d="m162.5 347v-0.6s0-36.4 0-48.9v-227.8-49.7c0-11-9-20-20-20h-59.3-63.2c-11 0-20 9-20 20v327c0 11 9 20 20 20h122.5c11 0 20-9 20-20z" fill="#59001D"/>
	</g>
	<g id="XMLID_58_">
		<path id="XMLID_59_" d="m154.5 344.9v-320.4c0-11-9-20-20-20h-113.5c-11 0-20 9-20 20v318c0 11 9 20 20 20h113.5c11 0 20-10.7 20-17.6z" fill="#AA1C41"/>
	</g>
	<g id="XMLID_56_">
		<path id="XMLID_57_" d="m85.8 349.1v-198.8c0-2.9 2.8-2.5 2.8-2.5h47.2c2.2 0 4-1.8 4-4v-124.7c0-2.2-1.8-4-4-4h-120c-2.2 0-4 1.8-4 4v329.9c0 2.2 1.8 4 4 4h66c2.2 0.1 4-1.7 4-3.9z" fill="#C0A987"/>
	</g>
	<g id="XMLID_54_">
		<rect id="XMLID_55_" x="38" y="15" width="3" height="337.9" fill="#414042"/>
	</g>
	<g id="XMLID_52_">
		<rect id="XMLID_53_" x="30.8" y="15" width="3" height="337.9" fill="#414042"/>
	</g>
	<g id="XMLID_50_">
		<path id="XMLID_51_" d="m24.5 206.1v-66c0-10.4 8.5-19 19-19 10.4 0 19 8.5 19 19v66c0 10.4-8.5 19-19 19s-19-8.6-19-19z" fill="#AA1C41"/>
	</g>
	<g id="XMLID_48_">
		<circle id="XMLID_49_" cx="43.8" cy="261.8" r="21.2" fill="#AA1C41"/>
	</g>
	<g id="XMLID_46_">
		<circle id="XMLID_47_" cx="43.8" cy="310.5" r="21.5" fill="#AA1C41"/>
	</g>
	<g id="XMLID_44_">
		<circle id="XMLID_45_" cx="43.8" cy="261.8" r="18.5" fill="#414042"/>
	</g>
	<g id="XMLID_42_">
		<circle id="XMLID_43_" cx="43.8" cy="310.5" r="18.5" fill="#414042"/>
	</g>
	<g id="XMLID_40_">
		<path id="XMLID_41_" d="m74.6 101.3v-18.1h19.3c1.1 0 2-0.9 2-2v-28.7c0-1.1-0.9-2-2-2h-19.3v-18.2c0-1.1-0.9-2-2-2h-26.8c-1.1 0-2 0.9-2 2v18.2h-19.3c-1.1 0-2 0.9-2 2v28.7c0 1.1 0.9 2 2 2h19.3v18.2c0 1.1 0.9 2 2 2h26.8c1.1-0.1 2-1 2-2.1z" fill="#AA1C41"/>
	</g>
	<g id="XMLID_38_">
		<polygon id="XMLID_39_" points="69.6 98.3 69.6 78.2 90.9 78.2 90.9 55.5 69.6 55.5 69.6 35.3 48.8 35.3 48.8 55.5 27.5 55.5 27.5 78.2 48.8 78.2 48.8 98.3" fill="#414042"/>
	</g>
	<g id="XMLID_36_">
		<path id="XMLID_37_" d="m39.2 158.6v-19.3c0-2.5 2-4.5 4.5-4.5s4.5 2 4.5 4.5v19.3c0 2.5-2 4.5-4.5 4.5s-4.5-2-4.5-4.5z" fill="#414042"/>
	</g>
	<g id="XMLID_34_">
		<path id="XMLID_35_" d="m39.2 206.6v-19.3c0-2.5 2-4.5 4.5-4.5s4.5 2 4.5 4.5v19.3c0 2.5-2 4.5-4.5 4.5s-4.5-2-4.5-4.5z" fill="#414042"/>
	</g>
	<g id="XMLID_25_">
		<g id="XMLID_32_">
			<path id="XMLID_33_" d="m74.1 264.3c0.1-0.3 0.1-0.9 0.1-1.8v-1.7h-2.3v1.9c0 0.7 0 1.2 0.1 1.4 0 0.3 0.2 0.6 0.3 0.8s0.4 0.3 0.7 0.3 0.5-0.1 0.7-0.2 0.3-0.4 0.4-0.7z" fill="#414042"/>
		</g>
		<g id="XMLID_30_">
			<path id="XMLID_31_" d="m75.7 263.6c0 0.4 0.1 0.6 0.3 0.8s0.4 0.3 0.7 0.3 0.5-0.1 0.6-0.3c0.2-0.2 0.3-0.4 0.3-0.8v-1.8-1.2h-2v1.4c0.1 0.9 0.1 1.4 0.1 1.6z" fill="#414042"/>
		</g>
		<g id="XMLID_26_">
			<path id="XMLID_27_" d="m80.4 267.5v-11.1c0-3.1-2.6-5.7-5.7-5.7s-5.7 2.6-5.7 5.7v11.1c0 3.1 2.6 5.7 5.7 5.7s5.7-2.5 5.7-5.7zm-8.5-0.5c-0.4-0.2-0.7-0.5-0.9-0.9s-0.4-0.8-0.4-1.4c0-0.3-0.1-1.2-0.1-2.5v-3.5h8.6v4.1c0 0.8 0 1.4-0.1 1.8s-0.2 0.8-0.4 1.1-0.4 0.6-0.7 0.8-0.6 0.3-1 0.3-0.8-0.1-1.1-0.4-0.6-0.6-0.8-1.1c-0.2 0.6-0.4 1.1-0.8 1.4s-0.8 0.5-1.3 0.5c-0.3 0.1-0.7 0-1-0.2z" fill="#414042"/>
		</g>
	</g>
	<g id="XMLID_18_">
		<g id="XMLID_23_">
			<polygon id="XMLID_24_" points="73.9 309.6 73.9 312.4 77.1 311" fill="#414042"/>
		</g>
		<g id="XMLID_19_">
			<path id="XMLID_20_" d="m80.4 316v-11c0-3.1-2.6-5.7-5.7-5.7s-5.7 2.5-5.7 5.7v11c0 3.1 2.6 5.7 5.7 5.7s5.7-2.5 5.7-5.7zm-9.9-2.1 2-0.9v-4l-2-0.8v-2.2l8.6 4v2.2l-8.6 4.1v-2.4z" fill="#414042"/>
		</g>
	</g>
	<g id="XMLID_14_">
		<path id="XMLID_15_" d="m136.5 18.9h-25.3v25.3h25.3v-25.3zm-20.2 14.4c-0.1 0.3-0.3 0.8-0.4 1.5 0 0.2-0.2 0.3-0.5 0.3-0.1 0-0.3 0-0.5-0.1 0-0.6 0.1-1.2 0.1-1.8v-1.7-1.7s-0.1-1.2-0.1-1.7c0.2 0 0.3-0.1 0.5-0.1 0.3 0 0.4 0.1 0.5 0.3 0.1 0.7 0.3 1.2 0.4 1.5 0.2 0.3 0.4 0.4 0.8 0.4h14.4c0.4 0 0.6-0.1 0.8-0.4s0.3-0.8 0.4-1.5c0-0.1 0.1-0.2 0.2-0.2s0.2-0.1 0.3-0.1 0.3 0 0.5 0.1c0 0.6-0.1 1.2-0.1 1.8s0 1.2 0 1.7v1.6c0 0.6 0.1 1.2 0.1 1.8-0.2 0-0.3 0.1-0.5 0.1-0.3 0-0.4-0.1-0.5-0.3-0.1-0.7-0.3-1.2-0.4-1.5-0.2-0.3-0.4-0.4-0.8-0.4h-14.4c-0.4 0-0.6 0.1-0.8 0.4z" fill="#414042"/>
	</g>
	<g id="XMLID_12_">
		<circle id="XMLID_13_" cx="59.2" cy="66.8" r="8.9" fill="#282829"/>
	</g>
	<g id="XMLID_10_">
		<polygon id="XMLID_11_" points="86.9 66.9 80.8 59.6 80.8 61.1 73.6 61.1 73.6 72.7 80.8 72.7 80.8 74"/>
	</g>
	<g id="XMLID_8_">
		<polygon id="XMLID_9_" points="86.9 66.9 80.8 59.6 80.8 61.1 73.6 61.1 73.6 72.7 80.8 72.7 80.8 74" fill="#282829"/>
	</g>
	<g id="XMLID_6_">
		<polygon id="XMLID_7_" points="59.3 39.1 52 45.2 53.5 45.2 53.5 52.5 65.1 52.5 65.1 45.2 66.4 45.2" fill="#282829"/>
	</g>
	<g id="XMLID_4_">
		<polygon id="XMLID_5_" points="31.5 66.7 37.6 74 37.6 72.5 44.8 72.5 44.8 60.9 37.6 60.9 37.6 59.6" fill="#282829"/>
	</g>
	<g id="XMLID_2_">
		<polygon id="XMLID_3_" points="59.1 94.5 66.4 88.4 64.9 88.4 64.9 81.2 53.3 81.2 53.3 88.4 52 88.4" fill="#282829"/>
	</g>
</g>
</svg>
