<?xml version="1.0" encoding="UTF-8"?>
<svg id="svg2" width="210.4" height="556.95" version="1.1" viewBox="0 0 210.4 556.95" xml:space="preserve" xmlns="http://www.w3.org/2000/svg" xmlns:cc="http://creativecommons.org/ns#" xmlns:dc="http://purl.org/dc/elements/1.1/" xmlns:rdf="http://www.w3.org/1999/02/22-rdf-syntax-ns#"><metadata id="metadata8"><rdf:RDF><cc:Work rdf:about=""><dc:format>image/svg+xml</dc:format><dc:type rdf:resource="http://purl.org/dc/dcmitype/StillImage"/><dc:title/></cc:Work></rdf:RDF></metadata><defs id="defs6"><clipPath id="clipPath16"><path id="path18" d="m0 445.56h168.32v-445.56h-168.32v445.56z"/></clipPath><clipPath id="clipPath28"><path id="path30" d="m91.622 364.86h53.062v-53.061h-53.062v53.061z"/></clipPath><clipPath id="clipPath52"><path id="path54" d="m92.31 364.02h51.534v-51.534h-51.534v51.534z"/></clipPath><clipPath id="clipPath68"><path id="path70" d="m84.911 371.42h66.331v-66.331h-66.331v66.331z"/></clipPath><clipPath id="clipPath88"><path id="path90" d="m7.9934 160.33h154.21v-154.21h-154.21v154.21z"/></clipPath><linearGradient id="linearGradient144" x2="1" gradientTransform="matrix(39.823 39.823 39.823 -39.823 65.124 63.311)" gradientUnits="userSpaceOnUse"><stop id="stop146" stop-color="#a6a8ab" offset="0"/><stop id="stop148" stop-color="#e6e7e8" offset="1"/></linearGradient><clipPath id="clipPath156"><path id="path158" d="m0 445.56h168.32v-445.56h-168.32v445.56z"/></clipPath><clipPath id="clipPath164"><path id="path166" d="m62.599 105.66h44.872v-44.873h-44.872v44.873z"/></clipPath><clipPath id="clipPath180"><path id="path182" d="m56.923 111.2h56.094v-56.094h-56.094v56.094z"/></clipPath><clipPath id="clipPath184"><path id="path186" d="m58.434 83.504c0 14.847 12.035 26.882 26.882 26.882s26.883-12.035 26.883-26.882-12.036-26.883-26.883-26.883-26.882 12.036-26.882 26.883m54.583-0.346c0 15.49-12.557 28.047-28.047 28.047s-28.047-12.557-28.047-28.047 12.557-28.047 28.047-28.047 28.047 12.557 28.047 28.047"/></clipPath><linearGradient id="linearGradient192" x2="1" gradientTransform="matrix(39.664 -39.664 -39.664 -39.664 65.138 102.99)" gradientUnits="userSpaceOnUse"><stop id="stop194" stop-color="#fff" stop-opacity="0" offset="0"/><stop id="stop196" stop-color="#fff" offset=".20752"/><stop id="stop198" stop-color="#fff" offset=".5"/><stop id="stop200" stop-color="#fff" offset=".79248"/><stop id="stop202" stop-color="#fff" stop-opacity="0" offset="1"/></linearGradient><mask id="mask204" x="0" y="0" width="1" height="1" maskUnits="userSpaceOnUse"><g id="g206"><g id="g208"><g id="g210"><g id="g212"><path id="path214" d="m-32768 32767h65535v-65535h-65535v65535z" fill="url(#linearGradient192)"/></g></g></g></g></mask><linearGradient id="linearGradient216" x2="1" gradientTransform="matrix(39.664 -39.664 -39.664 -39.664 65.138 102.99)" gradientUnits="userSpaceOnUse"><stop id="stop218" stop-color="#231f20" offset="0"/><stop id="stop220" stop-color="#231f20" offset=".20752"/><stop id="stop222" stop-color="#231f20" offset=".5"/><stop id="stop224" stop-color="#231f20" offset=".79248"/><stop id="stop226" stop-color="#231f20" offset="1"/></linearGradient><clipPath id="clipPath250"><path id="path252" d="m56.924 111.2h56.094v-56.094h-56.094v56.094z"/></clipPath><clipPath id="clipPath254"><path id="path256" d="m111.51 82.812c0-14.847-12.036-26.883-26.882-26.883-14.847 0-26.883 12.036-26.883 26.883s12.036 26.883 26.883 26.883c14.846 0 26.882-12.036 26.882-26.883m-54.583 0.346c0-15.49 12.556-28.047 28.047-28.047 15.49 0 28.047 12.557 28.047 28.047s-12.557 28.047-28.047 28.047c-15.491 0-28.047-12.557-28.047-28.047"/></clipPath><linearGradient id="linearGradient262" x2="1" gradientTransform="matrix(-39.664 39.664 39.664 39.664 104.8 63.326)" gradientUnits="userSpaceOnUse"><stop id="stop264" stop-color="#fff" stop-opacity="0" offset="0"/><stop id="stop266" stop-color="#fff" offset=".5"/><stop id="stop268" stop-color="#fff" stop-opacity="0" offset="1"/></linearGradient><mask id="mask270" x="0" y="0" width="1" height="1" maskUnits="userSpaceOnUse"><g id="g272"><g id="g274"><g id="g276"><g id="g278"><path id="path280" d="m-32768 32767h65535v-65535h-65535v65535z" fill="url(#linearGradient262)"/></g></g></g></g></mask><linearGradient id="linearGradient282" x2="1" gradientTransform="matrix(-39.664 39.664 39.664 39.664 104.8 63.326)" gradientUnits="userSpaceOnUse"><stop id="stop284" stop-color="#fff" offset="0"/><stop id="stop286" stop-color="#fff" offset=".5"/><stop id="stop288" stop-color="#fff" offset="1"/></linearGradient><clipPath id="clipPath316"><path id="path318" d="m91.955 294.6h53.062v-53.062h-53.062v53.062z"/></clipPath><clipPath id="clipPath340"><path id="path342" d="m92.642 293.76h51.534v-51.534h-51.534v51.534z"/></clipPath><clipPath id="clipPath356"><path id="path358" d="m85.244 301.16h66.331v-66.331h-66.331v66.331z"/></clipPath><clipPath id="clipPath376"><path id="path378" d="m91.137 435.13h53.062v-53.061h-53.062v53.061z"/></clipPath><clipPath id="clipPath396"><path id="path398" d="m91.825 434.29h51.533v-51.534h-51.533v51.534z"/></clipPath><clipPath id="clipPath412"><path id="path414" d="m84.426 441.68h66.331v-66.331h-66.331v66.331z"/></clipPath><clipPath id="clipPath432"><path id="path434" d="m27.518 329.25h53.062v-53.062h-53.062v53.062z"/></clipPath><clipPath id="clipPath456"><path id="path458" d="m28.206 328.41h51.534v-51.534h-51.534v51.534z"/></clipPath><clipPath id="clipPath472"><path id="path474" d="m20.807 335.81h66.331v-66.331h-66.331v66.331z"/></clipPath><clipPath id="clipPath492"><path id="path494" d="m27.033 399.51h53.062v-53.062h-53.062v53.062z"/></clipPath><clipPath id="clipPath516"><path id="path518" d="m27.72 398.67h51.534v-51.534h-51.534v51.534z"/></clipPath><clipPath id="clipPath532"><path id="path534" d="m20.322 406.07h66.331v-66.331h-66.331v66.331z"/></clipPath><clipPath id="clipPath552"><path id="path554" d="m26.956 258.3h53.062v-53.062h-53.062v53.062z"/></clipPath><clipPath id="clipPath576"><path id="path578" d="m27.644 257.46h51.534v-51.534h-51.534v51.534z"/></clipPath><clipPath id="clipPath592"><path id="path594" d="m20.245 264.86h66.331v-66.331h-66.331v66.331z"/></clipPath></defs><g id="g10" transform="matrix(1.25 0 0 -1.25 0 556.95)"><g id="g12"><g id="g14" clip-path="url(#clipPath16)"><g id="g20" transform="translate(118.15 305.04)"><path id="path22" d="m0 0c-18.39 0-33.298 14.908-33.298 33.298s14.908 33.298 33.298 33.298 33.298-14.908 33.298-33.298-14.908-33.298-33.298-33.298" fill="#c0392b"/></g><g id="g24"><g id="g32"><g id="g34" clip-path="url(#clipPath28)" opacity=".3"><g id="g36" transform="translate(118.15 311.8)"><path id="path38" d="m0 0c-14.653 0-26.531 11.878-26.531 26.531 0 14.652 11.878 26.531 26.531 26.531s26.531-11.879 26.531-26.531c0-14.653-11.878-26.531-26.531-26.531" fill="#c0392b"/></g></g></g></g><g id="g40" transform="translate(118.08 312.49)"><path id="path42" d="m0 0c-14.231 0-25.767 11.536-25.767 25.767s11.536 25.767 25.767 25.767 25.767-11.536 25.767-25.767-11.536-25.767-25.767-25.767" fill="#c0392b"/></g><g id="g44" transform="translate(118.08 312.49)"><path id="path46" d="m0 0c-14.231 0-25.767 11.536-25.767 25.767s11.536 25.767 25.767 25.767 25.767-11.536 25.767-25.767-11.536-25.767-25.767-25.767" fill="#c0392b"/></g><g id="g48"><g id="g56"><g id="g58" clip-path="url(#clipPath52)" opacity=".2"><g id="g60" transform="translate(93.697 338.58)"><path id="path62" d="m0 0c0 13.64 11.057 24.697 24.697 24.697s24.698-11.057 24.698-24.697-11.058-24.698-24.698-24.698-24.697 11.058-24.697 24.698m50.146-0.318c0 14.231-11.536 25.767-25.766 25.767-14.231 0-25.767-11.536-25.767-25.767s11.536-25.767 25.767-25.767c14.23 0 25.766 11.536 25.766 25.767" fill="#c0392b"/></g></g></g></g><g id="g64"><g id="g72"><g id="g74" clip-path="url(#clipPath68)" opacity=".14999"><g id="g76" transform="translate(86.697 338.67)"><path id="path78" d="m0 0c0 17.557 14.233 31.789 31.789 31.789 17.557 0 31.789-14.232 31.789-31.789 0-17.556-14.232-31.789-31.789-31.789-17.556 0-31.789 14.233-31.789 31.789m64.546-0.409c0 18.317-14.849 33.166-33.166 33.166s-33.166-14.849-33.166-33.166 14.849-33.165 33.166-33.165 33.166 14.848 33.166 33.165" fill="#c0392b"/></g></g></g></g><g id="g80" transform="translate(85.1)"><path id="path82" d="m0 0c-45.962 0-83.222 37.26-83.222 83.222 0 45.963 37.26 83.222 83.222 83.222s83.222-37.259 83.222-83.222c0-45.962-37.26-83.222-83.222-83.222" fill="#231f20"/></g><g id="g84"><g id="g92"><g id="g94" clip-path="url(#clipPath88)" opacity=".10001"><g id="g96" transform="translate(85.099 6.1158)"><path id="path98" d="m0 0 16.896 16.323h-8.253v18.674h-17.286v-18.674h-8.252l16.895-16.323z" fill="#84849b"/></g><g id="g100" transform="translate(139.62 28.699)"><path id="path102" d="M 0,0 0.405,23.489 -5.43,17.654 -18.635,30.858 -30.858,18.635 -17.653,5.431 -23.489,-0.405 0,0 Z" fill="#84849b"/></g><g id="g104" transform="translate(162.21 83.222)"><path id="path106" d="m0 0-16.323 16.896v-8.252h-18.674v-17.287h18.674v-8.252l16.323 16.895z" fill="#84849b"/></g><g id="g108" transform="translate(139.62 137.74)"><path id="path110" d="m0 0-23.489 0.405 5.835-5.835-13.205-13.205 12.224-12.223 13.204 13.205 5.836-5.835-0.405 23.488z" fill="#84849b"/></g><g id="g112" transform="translate(85.1 160.33)"><path id="path114" d="m0 0-16.896-16.322h8.252v-18.675h17.287v18.674l8.252 1e-3 -16.895 16.322z" fill="#84849b"/></g><g id="g116" transform="translate(30.578 137.75)"><path id="path118" d="M 0,0 -0.405,-23.489 5.43,-17.654 18.635,-30.859 30.858,-18.636 17.653,-5.431 23.488,0.405 0,0 Z" fill="#84849b"/></g><g id="g120" transform="translate(7.9934,83.223)"><path id="path122" d="m0 0 16.322-16.895v8.251h18.675v17.286h-18.674l-1e-3 8.253-16.322-16.895z" fill="#84849b"/></g><g id="g124" transform="translate(30.577 28.7)"><path id="path126" d="M 0,0 23.489,-0.405 17.654,5.43 30.859,18.635 18.636,30.858 5.431,17.653 -0.405,23.488 0,0 Z" fill="#84849b"/></g></g></g></g><g id="g128" transform="translate(84.161 .0119)"><path id="path130" d="m0 0c-45.529 0.504-82.284 37.562-82.284 83.21 0 45.649 36.755 82.707 82.284 83.211-0.313 3e-3 -0.625 0.012-0.939 0.012-45.962 0-83.222-37.26-83.222-83.223 0-45.962 37.26-83.222 83.222-83.222 0.314 0 0.626 9e-3 0.939 0.012" fill="#6d6e70"/></g></g></g><g id="g132"><g id="g134"><g id="g140"><g id="g142"><path id="path150" d="m56.876 83.222c0-15.551 12.608-28.159 28.159-28.159 15.552 0 28.159 12.608 28.159 28.159 0 15.552-12.607 28.159-28.159 28.159-15.551 0-28.159-12.607-28.159-28.159" fill="url(#linearGradient144)"/></g></g></g></g><g id="g152"><g id="g154" clip-path="url(#clipPath156)"><g id="g160"><g id="g168"><g id="g170" clip-path="url(#clipPath164)" opacity=".3"><g id="g172" transform="translate(85.035,60.786)"><path id="path174" d="m0 0c-12.391 0-22.436 10.045-22.436 22.436s10.045 22.437 22.436 22.437 22.436-10.046 22.436-22.437-10.045-22.436-22.436-22.436" fill="#231f20"/></g></g></g></g><g id="g176"><g id="g228"><g id="g230" clip-path="url(#clipPath180)" opacity=".14999"><g id="g232"><g id="g234" clip-path="url(#clipPath184)"><g id="g236"><g id="g240" mask="url(#mask204)"><g id="g242"><path id="path244" d="m58.434 83.504c0 14.847 12.035 26.882 26.882 26.882s26.883-12.035 26.883-26.882-12.036-26.883-26.883-26.883-26.882 12.036-26.882 26.883m54.583-0.346c0 15.49-12.557 28.047-28.047 28.047s-28.047-12.557-28.047-28.047 12.557-28.047 28.047-28.047 28.047 12.557 28.047 28.047" fill="url(#linearGradient216)"/></g></g></g></g></g></g></g></g><g id="g246"><g id="g290"><g id="g292" clip-path="url(#clipPath250)" opacity=".39999"><g id="g294"><g id="g296" clip-path="url(#clipPath254)"><g id="g298"><g id="g302" mask="url(#mask270)"><g id="g304"><path id="path306" d="m111.51 82.812c0-14.847-12.036-26.883-26.882-26.883-14.847 0-26.883 12.036-26.883 26.883s12.036 26.883 26.883 26.883c14.846 0 26.882-12.036 26.882-26.883m-54.583 0.346c0-15.49 12.556-28.047 28.047-28.047 15.49 0 28.047 12.557 28.047 28.047s-12.557 28.047-28.047 28.047c-15.491 0-28.047-12.557-28.047-28.047" fill="url(#linearGradient282)"/></g></g></g></g></g></g></g></g><g id="g308" transform="translate(118.49 234.77)"><path id="path310" d="m0 0c-18.39 0-33.298 14.908-33.298 33.298s14.908 33.298 33.298 33.298 33.298-14.908 33.298-33.298-14.908-33.298-33.298-33.298" fill="#c0392b"/></g><g id="g312"><g id="g320"><g id="g322" clip-path="url(#clipPath316)" opacity=".3"><g id="g324" transform="translate(118.49 241.54)"><path id="path326" d="m0 0c-14.653 0-26.531 11.878-26.531 26.531 0 14.652 11.878 26.531 26.531 26.531s26.531-11.879 26.531-26.531c0-14.653-11.878-26.531-26.531-26.531" fill="#c0392b"/></g></g></g></g><g id="g328" transform="translate(118.41 242.23)"><path id="path330" d="m0 0c-14.231 0-25.767 11.536-25.767 25.767s11.536 25.767 25.767 25.767 25.767-11.536 25.767-25.767-11.536-25.767-25.767-25.767" fill="#c0392b"/></g><g id="g332" transform="translate(118.41 242.23)"><path id="path334" d="m0 0c-14.231 0-25.767 11.536-25.767 25.767s11.536 25.767 25.767 25.767 25.767-11.536 25.767-25.767-11.536-25.767-25.767-25.767" fill="#c0392b"/></g><g id="g336"><g id="g344"><g id="g346" clip-path="url(#clipPath340)" opacity=".2"><g id="g348" transform="translate(94.03 268.31)"><path id="path350" d="m0 0c0 13.64 11.057 24.697 24.697 24.697s24.698-11.057 24.698-24.697-11.058-24.698-24.698-24.698-24.697 11.058-24.697 24.698m50.146-0.318c0 14.231-11.536 25.767-25.766 25.767-14.231 0-25.767-11.536-25.767-25.767s11.536-25.767 25.767-25.767c14.23 0 25.766 11.536 25.766 25.767" fill="#c0392b"/></g></g></g></g><g id="g352"><g id="g360"><g id="g362" clip-path="url(#clipPath356)" opacity=".14999"><g id="g364" transform="translate(87.029 268.4)"><path id="path366" d="m0 0c0 17.557 14.233 31.789 31.789 31.789 17.557 0 31.789-14.232 31.789-31.789 0-17.556-14.232-31.789-31.789-31.789-17.556 0-31.789 14.233-31.789 31.789m64.546-0.409c0 18.317-14.849 33.166-33.166 33.166s-33.166-14.849-33.166-33.166 14.849-33.165 33.166-33.165 33.166 14.848 33.166 33.165" fill="#c0392b"/></g></g></g></g><g id="g368" transform="translate(117.67 375.3)"><path id="path370" d="m0 0c-18.39 0-33.298 14.908-33.298 33.298s14.908 33.298 33.298 33.298 33.298-14.908 33.298-33.298-14.908-33.298-33.298-33.298" fill="#c0392b"/></g><g id="g372"><g id="g380"><g id="g382" clip-path="url(#clipPath376)" opacity=".3"><g id="g384" transform="translate(117.67 382.06)"><path id="path386" d="m0 0c-14.653 0-26.531 11.878-26.531 26.531 0 14.652 11.878 26.531 26.531 26.531s26.531-11.879 26.531-26.531c0-14.653-11.878-26.531-26.531-26.531" fill="#c0392b"/></g></g></g></g><g id="g388" transform="translate(117.59 382.75)"><path id="path390" d="m0 0c-14.231 0-25.767 11.536-25.767 25.767s11.536 25.767 25.767 25.767 25.767-11.536 25.767-25.767-11.536-25.767-25.767-25.767" fill="#c0392b"/></g><g id="g392"><g id="g400"><g id="g402" clip-path="url(#clipPath396)" opacity=".2"><g id="g404" transform="translate(93.212 408.84)"><path id="path406" d="m0 0c0 13.64 11.057 24.697 24.697 24.697s24.698-11.057 24.698-24.697-11.058-24.698-24.698-24.698-24.697 11.058-24.697 24.698m50.146-0.318c0 14.231-11.536 25.767-25.766 25.767-14.231 0-25.767-11.536-25.767-25.767s11.536-25.767 25.767-25.767c14.23 0 25.766 11.536 25.766 25.767" fill="#c0392b"/></g></g></g></g><g id="g408"><g id="g416"><g id="g418" clip-path="url(#clipPath412)" opacity=".14999"><g id="g420" transform="translate(86.212 408.93)"><path id="path422" d="m0 0c0 17.557 14.233 31.789 31.789 31.789 17.557 0 31.789-14.232 31.789-31.789 0-17.556-14.232-31.789-31.789-31.789-17.556 0-31.789 14.233-31.789 31.789m64.546-0.409c0 18.317-14.849 33.166-33.166 33.166s-33.166-14.849-33.166-33.166 14.849-33.165 33.166-33.165 33.166 14.848 33.166 33.165" fill="#c0392b"/></g></g></g></g><g id="g424" transform="translate(54.049 269.42)"><path id="path426" d="m0 0c-18.39 0-33.298 14.908-33.298 33.298s14.908 33.298 33.298 33.298 33.298-14.908 33.298-33.298-14.908-33.298-33.298-33.298" fill="#c0392b"/></g><g id="g428"><g id="g436"><g id="g438" clip-path="url(#clipPath432)" opacity=".3"><g id="g440" transform="translate(54.049 276.19)"><path id="path442" d="m0 0c-14.653 0-26.531 11.878-26.531 26.531 0 14.652 11.878 26.531 26.531 26.531s26.531-11.879 26.531-26.531c0-14.653-11.878-26.531-26.531-26.531" fill="#c0392b"/></g></g></g></g><g id="g444" transform="translate(53.973 276.87)"><path id="path446" d="m0 0c-14.231 0-25.767 11.536-25.767 25.767s11.536 25.767 25.767 25.767 25.767-11.536 25.767-25.767-11.536-25.767-25.767-25.767" fill="#c0392b"/></g><g id="g448" transform="translate(53.973 276.87)"><path id="path450" d="m0 0c-14.231 0-25.767 11.536-25.767 25.767s11.536 25.767 25.767 25.767 25.767-11.536 25.767-25.767-11.536-25.767-25.767-25.767" fill="#c0392b"/></g><g id="g452"><g id="g460"><g id="g462" clip-path="url(#clipPath456)" opacity=".2"><g id="g464" transform="translate(29.593 302.96)"><path id="path466" d="m0 0c0 13.64 11.057 24.697 24.697 24.697s24.698-11.057 24.698-24.697-11.058-24.698-24.698-24.698-24.697 11.058-24.697 24.698m50.146-0.318c0 14.231-11.536 25.767-25.766 25.767-14.231 0-25.767-11.536-25.767-25.767s11.536-25.767 25.767-25.767c14.23 0 25.766 11.536 25.766 25.767" fill="#c0392b"/></g></g></g></g><g id="g468"><g id="g476"><g id="g478" clip-path="url(#clipPath472)" opacity=".14999"><g id="g480" transform="translate(22.593 303.05)"><path id="path482" d="m0 0c0 17.557 14.233 31.789 31.789 31.789 17.557 0 31.789-14.232 31.789-31.789 0-17.556-14.232-31.789-31.789-31.789-17.556 0-31.789 14.233-31.789 31.789m64.546-0.409c0 18.317-14.849 33.166-33.166 33.166s-33.166-14.849-33.166-33.166 14.849-33.165 33.166-33.165 33.166 14.848 33.166 33.165" fill="#c0392b"/></g></g></g></g><g id="g484" transform="translate(53.564 339.68)"><path id="path486" d="m0 0c-18.39 0-33.298 14.908-33.298 33.298s14.908 33.298 33.298 33.298 33.298-14.908 33.298-33.298-14.908-33.298-33.298-33.298" fill="#c0392b"/></g><g id="g488"><g id="g496"><g id="g498" clip-path="url(#clipPath492)" opacity=".3"><g id="g500" transform="translate(53.564 346.45)"><path id="path502" d="m0 0c-14.653 0-26.531 11.878-26.531 26.531 0 14.652 11.878 26.531 26.531 26.531s26.531-11.879 26.531-26.531c0-14.653-11.878-26.531-26.531-26.531" fill="#c0392b"/></g></g></g></g><g id="g504" transform="translate(53.487 347.14)"><path id="path506" d="m0 0c-14.231 0-25.767 11.536-25.767 25.767s11.536 25.767 25.767 25.767 25.767-11.536 25.767-25.767-11.536-25.767-25.767-25.767" fill="#c0392b"/></g><g id="g508" transform="translate(53.487 347.14)"><path id="path510" d="m0 0c-14.231 0-25.767 11.536-25.767 25.767s11.536 25.767 25.767 25.767 25.767-11.536 25.767-25.767-11.536-25.767-25.767-25.767" fill="#c0392b"/></g><g id="g512"><g id="g520"><g id="g522" clip-path="url(#clipPath516)" opacity=".2"><g id="g524" transform="translate(29.108 373.22)"><path id="path526" d="m0 0c0 13.64 11.057 24.697 24.697 24.697s24.698-11.057 24.698-24.697-11.058-24.698-24.698-24.698-24.697 11.058-24.697 24.698m50.146-0.318c0 14.231-11.536 25.767-25.766 25.767-14.231 0-25.767-11.536-25.767-25.767s11.536-25.767 25.767-25.767c14.23 0 25.766 11.536 25.766 25.767" fill="#c0392b"/></g></g></g></g><g id="g528"><g id="g536"><g id="g538" clip-path="url(#clipPath532)" opacity=".14999"><g id="g540" transform="translate(22.107 373.31)"><path id="path542" d="m0 0c0 17.557 14.233 31.789 31.789 31.789 17.557 0 31.789-14.232 31.789-31.789 0-17.556-14.232-31.789-31.789-31.789-17.556 0-31.789 14.233-31.789 31.789m64.546-0.409c0 18.317-14.849 33.166-33.166 33.166s-33.166-14.849-33.166-33.166 14.849-33.165 33.166-33.165 33.166 14.848 33.166 33.165" fill="#c0392b"/></g></g></g></g><g id="g544" transform="translate(53.487 198.48)"><path id="path546" d="m0 0c-18.39 0-33.298 14.908-33.298 33.298s14.908 33.298 33.298 33.298 33.298-14.908 33.298-33.298-14.908-33.298-33.298-33.298" fill="#c0392b"/></g><g id="g548"><g id="g556"><g id="g558" clip-path="url(#clipPath552)" opacity=".3"><g id="g560" transform="translate(53.487 205.24)"><path id="path562" d="m0 0c-14.653 0-26.531 11.878-26.531 26.531 0 14.652 11.878 26.531 26.531 26.531s26.531-11.879 26.531-26.531c0-14.653-11.878-26.531-26.531-26.531" fill="#c0392b"/></g></g></g></g><g id="g564" transform="translate(53.411 205.93)"><path id="path566" d="m0 0c-14.231 0-25.767 11.536-25.767 25.767s11.536 25.767 25.767 25.767 25.767-11.536 25.767-25.767-11.536-25.767-25.767-25.767" fill="#c0392b"/></g><g id="g568" transform="translate(53.411 205.93)"><path id="path570" d="m0 0c-14.231 0-25.767 11.536-25.767 25.767s11.536 25.767 25.767 25.767 25.767-11.536 25.767-25.767-11.536-25.767-25.767-25.767" fill="#c0392b"/></g><g id="g572"><g id="g580"><g id="g582" clip-path="url(#clipPath576)" opacity=".2"><g id="g584" transform="translate(29.031 232.01)"><path id="path586" d="m0 0c0 13.64 11.057 24.697 24.697 24.697s24.698-11.057 24.698-24.697-11.058-24.698-24.698-24.698-24.697 11.058-24.697 24.698m50.146-0.318c0 14.231-11.536 25.767-25.766 25.767-14.231 0-25.767-11.536-25.767-25.767s11.536-25.767 25.767-25.767c14.23 0 25.766 11.536 25.766 25.767" fill="#c0392b"/></g></g></g></g><g id="g588"><g id="g596"><g id="g598" clip-path="url(#clipPath592)" opacity=".14999"><g id="g600" transform="translate(22.031 232.11)"><path id="path602" d="m0 0c0 17.557 14.233 31.789 31.789 31.789 17.557 0 31.789-14.232 31.789-31.789 0-17.556-14.232-31.789-31.789-31.789-17.556 0-31.789 14.233-31.789 31.789m64.546-0.409c0 18.317-14.849 33.165-33.166 33.165s-33.166-14.848-33.166-33.165 14.849-33.165 33.166-33.165 33.166 14.848 33.166 33.165" fill="#c0392b"/></g></g></g></g><g id="g604" transform="translate(144.88 83.541)"><path id="path606" d="m0 0c0-21.526-17.45-38.977-38.977-38.977-21.526 0-38.976 17.451-38.976 38.977s17.45 38.977 38.976 38.977c21.527 0 38.977-17.451 38.977-38.977" fill="#c0392b"/></g></g></g></g></svg>
