<?xml version="1.0" encoding="UTF-8"?>
<svg id="svg2" width="210.21" height="465.84" version="1.1" viewBox="0 0 210.21 465.84" xml:space="preserve" xmlns="http://www.w3.org/2000/svg" xmlns:cc="http://creativecommons.org/ns#" xmlns:dc="http://purl.org/dc/elements/1.1/" xmlns:rdf="http://www.w3.org/1999/02/22-rdf-syntax-ns#"><metadata id="metadata8"><rdf:RDF><cc:Work rdf:about=""><dc:format>image/svg+xml</dc:format><dc:type rdf:resource="http://purl.org/dc/dcmitype/StillImage"/><dc:title/></cc:Work></rdf:RDF></metadata><defs id="defs6"><clipPath id="clipPath16"><path id="path18" d="m0 372.67h168.17v-372.67h-168.17v372.67z"/></clipPath></defs><g id="g10" transform="matrix(1.25 0 0 -1.25 0 465.84)"><g id="g12"><g id="g14" clip-path="url(#clipPath16)"><g id="g20" transform="translate(165.33 22.835)"><path id="path22" d="m0 0v0.562 48.938 227.81 49.688c0 11-9 20-20 20h-59.333-63.167c-11 0-20-9-20-20v-327c0-11 9-20 20-20h122.5c11 0 20 9 20 20" fill="#63242b"/></g><g id="g24" transform="translate(157.33 24.897)"><path id="path26" d="m0 0v320.44c0 11-9 20-20 20h-113.5c-11 0-20-9-20-20v-318c0-11.001 9-20 20-20h113.5c11 0 20 10.666 20 17.562" fill="#ae2740"/></g><g id="g28" transform="translate(88.668 20.751)"><path id="path30" d="m0 0v198.83c0 2.875 2.792 2.5 2.792 2.5h47.208c2.2 0 4 1.8 4 4v124.67c0 2.2-1.8 4-4 4h-120c-2.2 0-4-1.8-4-4v-121.33-3.334-205.33c0-2.2 1.8-4 4-4h66c2.2 0 4 1.8 4 4" fill="#cbb48f"/></g><path id="path32" d="m40.835 354.84h3v-337.92h-3v337.92z" fill="#444443"/><path id="path34" d="m33.668 354.84h3v-337.92h-3v337.92z" fill="#444443"/><g id="g36" transform="translate(27.335 163.75)"><path id="path38" d="m0 0v66c0 10.45 8.55 19 19 19s19-8.55 19-19v-66c0-10.45-8.55-19-19-19s-19 8.55-19 19" fill="#ae2740"/></g><g id="g40" transform="translate(46.585 86.918)"><path id="path42" d="m0 0c-11.69 0-21.167 9.477-21.167 21.167s9.477 21.166 21.167 21.166 21.167-9.476 21.167-21.166-9.477-21.167-21.167-21.167" fill="#ae2740"/></g><g id="g44" transform="translate(46.585 37.835)"><path id="path46" d="m0 0c-11.874 0-21.5 9.626-21.5 21.5s9.626 21.5 21.5 21.5 21.5-9.626 21.5-21.5-9.626-21.5-21.5-21.5" fill="#ae2740"/></g><g id="g48" transform="translate(46.585 89.585)"><path id="path50" d="m0 0c-10.217 0-18.5 8.283-18.5 18.5s8.283 18.5 18.5 18.5 18.5-8.283 18.5-18.5-8.283-18.5-18.5-18.5" fill="#444443"/></g><g id="g52" transform="translate(46.585 40.835)"><path id="path54" d="m0 0c-10.217 0-18.5 8.283-18.5 18.5s8.283 18.5 18.5 18.5 18.5-8.283 18.5-18.5-8.283-18.5-18.5-18.5" fill="#444443"/></g><g id="g56" transform="translate(77.46 268.5)"><path id="path58" d="m0 0v18.167h19.25c1.1 0 2 0.9 2 2v28.666c0 1.1-0.9 2-2 2h-19.25v18.167c0 1.1-0.9 2-2 2h-26.833c-1.1 0-2-0.9-2-2v-18.167h-19.25c-1.1 0-2-0.9-2-2v-28.666c0-1.1 0.9-2 2-2h19.25v-18.167c0-1.1 0.9-2 2-2h26.833c1.1 0 2 0.9 2 2" fill="#ae2740"/></g><g id="g60" transform="translate(72.46 271.5)"><path id="path62" d="m0 0v20.167h21.25v22.666h-21.25v20.167h-20.833v-20.167h-21.25v-22.666h21.25v-20.167h20.833z" fill="#444443"/></g><g id="g64" transform="translate(42.001 211.25)"><path id="path66" d="m0 0v19.333c0 2.475 2.025 4.5 4.5 4.5s4.5-2.025 4.5-4.5v-19.333c0-2.475-2.025-4.5-4.5-4.5s-4.5 2.025-4.5 4.5" fill="#444443"/></g><g id="g68" transform="translate(42.001 163.25)"><path id="path70" d="m0 0v19.333c0 2.475 2.025 4.5 4.5 4.5s4.5-2.025 4.5-4.5v-19.333c0-2.475-2.025-4.5-4.5-4.5s-4.5 2.025-4.5 4.5" fill="#444443"/></g><g id="g72" transform="translate(76.956 105.55)"><path id="path74" d="m0 0c0.082 0.281 0.123 0.893 0.123 1.834v1.669h-2.297v-1.914c0-0.745 0.018-1.218 0.053-1.418 0.047-0.308 0.161-0.558 0.343-0.751 0.181-0.193 0.424-0.29 0.729-0.29 0.258 0 0.477 0.074 0.656 0.224 0.18 0.149 0.311 0.364 0.393 0.646" fill="#444443"/></g><g id="g76" transform="translate(78.538 106.2)"><path id="path78" d="m0 0c0.035-0.354 0.138-0.632 0.308-0.835 0.17-0.202 0.393-0.304 0.671-0.304 0.265 0 0.481 0.088 0.647 0.263 0.166 0.174 0.267 0.434 0.302 0.778 0.019 0.205 0.029 0.794 0.029 1.768v1.187h-1.986v-1.355c0-0.806 9e-3 -1.306 0.029-1.502" fill="#444443"/></g><g id="g80" transform="translate(74.685 102.87)"><path id="path82" d="m0 0c-0.369 0.216-0.664 0.512-0.885 0.887-0.22 0.375-0.356 0.837-0.407 1.386-0.031 0.345-0.051 1.176-0.059 2.495v3.486h8.59v-4.094c0-0.81-0.028-1.415-0.085-1.813-0.056-0.399-0.175-0.754-0.354-1.069-0.18-0.314-0.419-0.576-0.718-0.786s-0.634-0.314-1.005-0.314c-0.402 0-0.771 0.129-1.107 0.387-0.336 0.259-0.588 0.61-0.756 1.052-0.152-0.624-0.412-1.104-0.779-1.439-0.368-0.335-0.799-0.503-1.295-0.503-0.391 0-0.771 0.108-1.14 0.325m8.566-0.577v11.083c0 3.14-2.569 5.708-5.708 5.708-3.14 0-5.709-2.568-5.709-5.708v-11.083c0-3.14 2.569-5.709 5.709-5.709 3.139 0 5.708 2.569 5.708 5.709" fill="#444443"/></g><g id="g84" transform="translate(76.733 60.243)"><path id="path86" d="M 0,0 0,-2.795 3.188,-1.383 0,0 Z" fill="#444443"/></g><g id="g88" transform="translate(73.335 55.89)"><path id="path90" d="m0 0 1.951 0.895v4.093l-1.951 0.846v2.193l8.59-3.989v-2.186l-8.59-4.101v2.249zm9.917-2.097v11.083c0 3.14-2.569 5.708-5.709 5.708-3.139 0-5.708-2.568-5.708-5.708v-11.083c0-3.14 2.569-5.709 5.708-5.709 3.14 0 5.709 2.569 5.709 5.709" fill="#444443"/></g><g id="g92" transform="translate(119.17 336.52)"><path id="path94" d="m0 0c-0.142-0.264-0.289-0.755-0.439-1.473-0.039-0.189-0.189-0.283-0.454-0.283-0.113 0-0.264 0.019-0.453 0.056 0.038 0.586 0.071 1.172 0.099 1.757 0.029 0.585 0.043 1.143 0.043 1.671 0 0.51-0.014 1.072-0.043 1.686-0.028 0.613-0.061 1.194-0.099 1.741 0.189 0.038 0.34 0.057 0.453 0.057 0.265 0 0.415-0.094 0.454-0.283 0.131-0.718 0.273-1.208 0.425-1.473 0.151-0.265 0.415-0.397 0.793-0.397h14.418c0.378 0 0.647 0.132 0.807 0.397 0.161 0.265 0.298 0.755 0.411 1.473 0.019 0.113 0.075 0.189 0.17 0.226 0.094 0.038 0.198 0.057 0.311 0.057 0.114 0 0.265-0.019 0.454-0.057-0.038-0.566-0.071-1.156-0.1-1.77-0.028-0.614-0.042-1.166-0.042-1.657 0-0.472 0.014-1.015 0.042-1.629 0.029-0.613 0.062-1.213 0.1-1.799-0.189-0.037-0.34-0.056-0.454-0.056-0.283 0-0.443 0.094-0.481 0.283-0.113 0.718-0.25 1.209-0.411 1.473-0.16 0.265-0.429 0.396-0.807 0.396h-14.418c-0.378 0-0.637-0.131-0.779-0.396m20.166 14.394h-25.333v-25.333h25.333v25.333z" fill="#444443"/></g><g id="g96" transform="translate(62.043 294.08)"><path id="path98" d="m0 0c-4.925 0-8.917 3.992-8.917 8.917 0 4.924 3.992 8.916 8.917 8.916s8.917-3.992 8.917-8.916c0-4.925-3.992-8.917-8.917-8.917" fill="#383737"/></g><g id="g100" transform="translate(89.751 302.89)"><path id="path102" d="m0 0-6.093 7.319v-1.522h-7.246v-11.594h7.246v-1.305l6.093 7.102z" fill="#2b2b2a"/></g><g id="g104" transform="translate(89.751 302.89)"><path id="path106" d="m0 0-6.093 7.319v-1.522h-7.246v-11.594h7.246v-1.305l6.093 7.102z" fill="#383737"/></g><g id="g108" transform="translate(62.152 330.71)"><path id="path110" d="m0 0-7.319-6.093h1.522v-7.246h11.594v7.246h1.305l-7.102 6.093z" fill="#383737"/></g><g id="g112" transform="translate(34.335 303.11)"><path id="path114" d="m0 0 6.093-7.319v1.522h7.246v11.594h-7.246v1.305l-6.093-7.102z" fill="#383737"/></g><g id="g116" transform="translate(61.934 275.29)"><path id="path118" d="m0 0 7.319 6.093h-1.522v7.246h-11.594v-7.246h-1.305l7.102-6.093z" fill="#383737"/></g></g></g></g></svg>
