<?xml version="1.0" encoding="UTF-8"?>
<svg id="svg2" width="473" height="620" version="1.1" viewBox="0 0 473 620" xmlns="http://www.w3.org/2000/svg" xmlns:bx="https://www.boxy-svg.com/bx" xmlns:cc="http://creativecommons.org/ns#" xmlns:dc="http://purl.org/dc/elements/1.1/" xmlns:rdf="http://www.w3.org/1999/02/22-rdf-syntax-ns#">
 <metadata id="metadata8">
  <rdf:RDF>
   <cc:Work rdf:about="">
    <dc:format>image/svg+xml</dc:format>
    <dc:type rdf:resource="http://purl.org/dc/dcmitype/StillImage"/>
   </cc:Work>
  </rdf:RDF>
 </metadata>
 <g id="g245764">
  <ellipse id="path41370-9" transform="matrix(0,-1,-1,0,0,0)" cx="-507.21" cy="-421.07" rx="49.808" ry="35.549" fill="#b6b6b6" fill-rule="evenodd" stop-color="#000000"/>
  <path id="path42269" d="m440.49 481.33c6.936-16.113 7.0455-15.937 7.4588-15.119s1.1303 2.277 1.6005 3.6284c0.47021 1.3514 0.68381 2.5397 0.82381 3.8548 0.14001 1.3151 0.20405 2.7858 0.1341 4.6422-0.0699 1.8565-0.2725 4.1268-0.55107 6.5613-0.27856 2.4345-0.63305 5.033-1.1313 7.8547s-1.1402 5.8663-2.0155 9.4226-1.9839 7.6241-2.8873 10.547c-0.90344 2.9229-1.6016 4.7008-2.4469 6.7162-0.84534 2.0154-1.8483 4.292-2.9189 6.5531-1.0706 2.2611-2.2138 4.5184-3.5435 7.0172-1.3296 2.4988-2.8455 5.2389-4.4044 7.879-1.5589 2.6401-3.1605 5.1801-4.6654 7.4123-1.5049 2.2322-2.9129 4.1566-4.1243 5.8064-1.2114 1.6499-2.2262 3.0252-3.341 4.2226-1.1148 1.1974-2.3295 2.2171-3.3004 2.994-0.97089 0.77687-1.6979 1.311-2.3614 1.7033-0.66353 0.39236-1.2634 0.64329-1.9756 0.70524-0.71219 0.062-1.5923-0.0729-2.4913-0.42122-0.89895-0.34833-1.8449-0.91429-2.239-1.1279-0.3941-0.21359-0.23662-0.0749 6.7229-16.206 6.9596-16.131 20.721-48.533 27.657-64.646z" fill="#453ade"/>
  <ellipse id="path41370" transform="rotate(90)" cx="123.28" cy="-416.11" rx="49.808" ry="35.549" fill="#b6b6b6" fill-rule="evenodd" stop-color="#000000"/>
  <path id="path1103" d="m472.78 301.83c-0.26546-5.6127-0.79651-16.839-1.6182-28.937-0.82172-12.098-1.934-25.069-4.1253-39.224-2.1913-14.156-5.4616-29.497-8.7524-43.173s-6.6032-25.685-10.608-37.355-8.702-23.003-11.936-31.561c-3.2343-8.5584-8.6053-25.713-14.969-37.438-6.3633-11.726-13.722-18.037-27.685-31.26-13.962-13.224-30.936-22.02-43.346-27.617s-20.349-8.0215-27.391-9.8164c-7.0418-1.7948-13.232-2.9729-26.164-4.4617-12.932-1.4888-32.744-3.3006-58.023-5.2126-25.279-1.912-56.092-3.9312-79.236-4.9305-23.144-0.99921-38.619-0.97731-51.299-0.63404-12.68 0.34336-22.572 1.0095-31.787 2.0733-9.2151 1.0639-17.742 2.5221-24.798 4.2363-7.0563 1.714-12.634 3.6817-17.985 5.7824-5.3508 2.1007-10.474 4.3347-14.758 6.8074-4.2848 2.4727-7.6844 5.1459-10.338 7.883-2.6531 2.7371-4.6063 5.6248-5.9205 8.801-1.3142 3.1762-2.0076 6.6058-2.0131 10.61-0.0049791 4.0041 0.68513 8.5381 2.1123 12.746 1.4271 4.2073 3.5287 7.9768 6.0625 11.259 2.5338 3.2826 5.5232 6.0737 9.5246 8.6902 4.0013 2.6164 9.0412 5.0831 16.68 7.8869 7.6389 2.8038 17.876 5.9443 31.275 8.5735 13.399 2.6291 29.947 4.7452 44.036 6.786 14.089 2.0408 25.674 3.9984 36.221 6.078 10.547 2.0797 20.038 4.2784 26.959 6.2687 6.9217 1.9903 11.275 3.7716 25.893 16.915s39.502 37.649 52.816 55.389c13.314 17.74 15.056 28.715 15.992 36.186 0.9358 7.4715 1.0649 11.439 1.4938 16.956 0.42884 5.5175 1.157 12.585 1.1145 18.925-0.0425 6.34-0.85511 11.953-1.7699 17.569s-1.9305 11.234-2.6646 16.445c-0.73413 5.2104-1.187 10.013-1.2 14.401-3e-3 0.86257-3e-3 4.1752 0 5.0375 0.0131 4.3877 0.46593 9.1883 1.2 14.399 0.73413 5.2103 1.7498 10.831 2.6646 16.447s1.7274 11.229 1.7699 17.569c0.0425 6.34-0.68563 13.405-1.1145 18.923-0.42885 5.5176-0.55795 9.4867-1.4938 16.958-0.9358 7.4715-2.6779 18.444-15.992 36.184-13.314 17.74-38.197 42.245-52.816 55.389s-18.972 14.925-25.893 16.915c-6.9217 1.9903-16.412 4.189-26.959 6.2687-10.547 2.0796-22.133 4.0373-36.221 6.078-14.089 2.0407-30.637 4.1589-44.036 6.788-13.399 2.6291-23.636 5.7678-31.275 8.5715-7.6389 2.8037-12.679 5.2724-16.68 7.8888-4.0013 2.6165-6.9907 5.4056-9.5246 8.6882-2.5338 3.2826-4.6354 7.0522-6.0625 11.259-1.4271 4.2073-2.1177 8.7414-2.1123 12.745 0.0049791 4.0041 0.69881 7.4356 2.0131 10.612 1.3142 3.1762 3.2674 6.064 5.9205 8.801s6.0527 5.4103 10.338 7.883c4.2848 2.4727 9.4076 4.7067 14.758 6.8074 5.3509 2.1007 10.929 4.0665 17.985 5.7805 7.0563 1.714 15.583 3.1742 24.798 4.2381 9.2151 1.0639 19.107 1.73 31.787 2.0734 12.68 0.34331 28.155 0.36519 51.299-0.63407 23.144-0.99924 53.958-3.0205 79.236-4.9324 25.279-1.912 45.091-3.7218 58.023-5.2106 12.932-1.4888 19.122-2.6689 26.164-4.4637s16.287-3.3549 28.697-8.9512c12.41-5.5963 28.078-15.256 42.04-28.48 13.962-13.224 24.912-30.873 31.275-42.599s8.1438-17.543 11.378-26.102c3.2343-8.5584 7.9316-19.888 11.936-31.559 4.0047-11.671 7.3171-23.679 10.608-37.355s6.5611-29.017 8.7524-43.173 3.3036-27.126 4.1253-39.224 1.3528-23.325 1.6182-28.937c0.26545-5.6127 0.2655-10.717 0-16.33z" fill="#524c82"/>
  <path id="path1103-3" d="m287.04 300.63c-0.0651-5.9558-0.23738-12.367-0.52515-18.886-0.28778-6.5187-5.6737-54.3-6.3602-60.504-0.68643-6.2033 0.65777-10.076-0.18469-17.085-0.84249-7.0095-1.6629-14.418-2.4157-21.566-0.75274-7.1475-1.4386-14.033-2.1239-20.92l0.57378-0.9531c-1.5989-2.9626-3.1956-5.9267-5.8583-7.0641-1.0682-0.45649-2.307-0.58256-3.5554 0 0.51651 7.9138 0.8527 14.771 1.2642 22.34 0.6 11.035 1.6194 25.169 1.5599 37.849-0.0594 12.68-1.196 23.906-2.476 35.138-1.2799 11.232-2.7014 22.469-3.7285 32.89-0.99651 10.11-1.6098 19.436-1.663 27.998 0.0532 8.5618 0.66644 17.888 1.663 27.998 1.0271 10.421 2.4486 21.657 3.7285 32.89 1.2799 11.232 2.4165 22.458 2.476 35.138 0.0596 12.68-0.95987 26.814-1.5599 37.849-0.41154 7.5692-0.74773 14.426-1.2642 22.34 1.2485 0.58256 2.4872 0.45649 3.5554 0 2.6626-1.1374 4.2594-4.1016 5.8583-7.0642l-0.57378-0.95305c0.68536-6.8872 1.3712-13.773 2.1239-20.92 0.75275-7.1475 1.5732-14.556 2.4157-21.566 0.84246-7.0095-1.091-12.771-0.40452-18.974 0.68644-6.2032 6.6616-52.097 6.9494-58.615 0.28777-6.5187 0.46002-12.93 0.52515-18.886v-4e-3c0.0342-3.1455 7e-3 -6.1864-8e-3 -9.2328 0.0146-3.0464 0.042-6.0873 8e-3 -9.2328z" fill="#403a62"/>
  <path id="path1209" d="m430.03 120.14c-1.1e-4 -60.615-47.81-109.75-106.79-109.75-46.133 0.03585-86.929 30.497-101.33 75.349-0.24889 0.77545-0.69456 1.5744-0.92756 2.3583-1.145 2.3292-1.9046 3.988-3.2251 6.3669-1.5485 2.7898-3.1874 5.1733-5.0386 7.5709-1.8512 2.3976-4.1114 4.683-6.5799 6.8328-2.4684 2.1497-5.1441 4.1627-8.1164 6.255-2.9723 2.0923-6.2412 4.2646-9.2367 6.2006s-5.7183 3.6355-8.2564 4.9363c-1.5656 0.80243-3.0226 1.4569-4.1759 2.1104-36.026 6.8761-62.113 38.339-62.196 75.016 6.4e-4 42.276 34.272 76.547 76.548 76.547 23.283-2e-3 45.25-10.597 59.745-28.7 0.53378-0.66667 2.8077-2.6698 3.334-3.1675 1.7271-1.6334 3.3035-3.138 5.6392-4.9293 2.3358-1.7913 5.5434-3.9168 8.5346-5.6404 2.9912-1.7236 5.7583-3.0416 8.7796-4.2148 3.0213-1.1732 6.266-2.1886 9.1725-2.9019 2.9065-0.71332 5.4405-1.1155 8.1436-1.3264 2.7031-0.21091 5.5663-0.23053 8.342-0.20424 2.7757 0.0259 5.4632 0.0916 6.8074 0.13424 0.58814 0.0189 0.79903 0.0309 1.1712 0.0498 0.50051 0.0219 0.81036 0.0299 1.2785 0.0916 3.8443 0.47312 7.7111 0.73104 11.583 0.77257 58.977-7e-4 106.79-49.139 106.79-109.75z" fill="#5e5795" fill-rule="evenodd" stop-color="#000000" stroke-linejoin="round" stroke-miterlimit="2" stroke-width=".18097" style="-inkscape-stroke:none"/>
  <circle id="path149414" transform="rotate(90)" cx="120.8" cy="-328.07" r="68.626" fill="#524c82" fill-rule="evenodd" stop-color="#000000"/>
  <circle id="path149414-1" transform="rotate(90)" cx="205.88" cy="-191.6" r="50.062" fill="#524c82" fill-rule="evenodd" stop-color="#000000"/>
  <path id="path13862-0" transform="matrix(-.20412 .76179 -.76179 -.20412 145.18 982.54)" d="m-1060.1 90.779-38.908 29.5-48.446-6.0931-29.5-38.909 6.0931-48.446 38.908-29.5 48.446 6.0931 29.5 38.909z" fill="#adadad" fill-rule="evenodd" stop-color="#000000" stroke="#000" stroke-linejoin="round" stroke-miterlimit="2" stroke-width="4.7224"/>
  <rect id="rect12476-7" transform="rotate(90)" x="190.76" y="-234.35" width="30.231" height="85.492" rx="6.4304" ry="5.6582" fill-rule="evenodd" stop-color="#000000" style="-inkscape-stroke:none"/>
  <rect id="rect12476-7-2" transform="scale(-1)" x="-206.72" y="-248.62" width="30.231" height="85.492" rx="6.4304" ry="5.6582" fill-rule="evenodd" stop-color="#000000" style="-inkscape-stroke:none"/>
  <path id="path1209-7" d="m430.29 493.32c-1.1e-4 60.615-47.81 109.75-106.79 109.75-46.133-0.0359-86.929-30.497-101.33-75.349-0.24889-0.77545-0.69456-1.5744-0.92756-2.3583-1.145-2.3292-1.9046-3.988-3.2251-6.3669-1.5485-2.7898-3.1874-5.1733-5.0386-7.5709-1.8512-2.3976-4.1114-4.683-6.5799-6.8328-2.4684-2.1497-5.1441-4.1627-8.1164-6.255-2.9723-2.0923-6.2412-4.2646-9.2367-6.2006s-5.7183-3.6355-8.2564-4.9363c-1.5656-0.80243-3.0226-1.4569-4.1759-2.1104-36.026-6.8761-62.113-38.339-62.196-75.016 6.4e-4 -42.276 34.272-76.547 76.548-76.547 23.283 0 45.25 10.597 59.745 28.7 0.53378 0.66661 2.8077 2.6697 3.334 3.1674 1.7271 1.6335 3.3035 3.1381 5.6392 4.9294 2.3358 1.7913 5.5434 3.9168 8.5346 5.6404 2.9912 1.7236 5.7583 3.0417 8.7796 4.2148 3.0213 1.1732 6.266 2.1886 9.1725 2.9019 2.9065 0.71332 5.4405 1.1155 8.1436 1.3264 2.7031 0.21091 5.5663 0.23053 8.342 0.20424 2.7757-0.0259 5.4632-0.0916 6.8074-0.13424 0.58814-0.0189 0.79903-0.0309 1.1712-0.0498 0.5005-0.0219 0.81035-0.0299 1.2785-0.0916 3.8443-0.47312 7.7111-0.73104 11.583-0.77257 58.977 7e-4 106.79 49.139 106.79 109.75z" fill="#5e5795" fill-rule="evenodd" stop-color="#000000" stroke-linejoin="round" stroke-miterlimit="2" stroke-width=".18097" style="-inkscape-stroke:none"/>
  <circle id="path152254" transform="rotate(90)" cx="495.44" cy="-325.85" r="68.094" fill="#524c82" fill-rule="evenodd" stop-color="#000000"/>
  <g id="g157" transform="matrix(.84572 0 0 .84572 -38.052 -25.869)" fill="#d1d1d1" fill-rule="evenodd">
   <path id="path127" d="m563.5 410.9h2.1v-6c0-0.8-0.2-1.5-0.5-2.1s-0.7-1.2-1.2-1.5c-0.5-0.4-1.1-0.6-1.7-0.6h-6.5c-0.6 0-1.2 0.2-1.7 0.6s-0.9 0.9-1.2 1.5-0.5 1.3-0.5 2.1v6.1h2.1v-5.8c0-0.5 0.1-0.9 0.4-1.3 0.3-0.3 0.6-0.6 1-0.6h2.4v7.7h2.1v-7.7h1.8c0.4 0 0.8 0.2 1 0.6 0.3 0.4 0.4 0.8 0.4 1.3z"/>
   <polygon id="polygon129" points="552.3 423.8 552.3 426.4 562.6 426.4 552.3 431.8 552.3 434.4 565.6 434.4 565.6 431.8 557.1 431.8 565.6 427.3 565.6 423.8"/>
   <path id="path131" d="m565.6 447.3h-13.3v6.4c0 0.8 0.2 1.5 0.5 2.2s0.7 1.2 1.2 1.6 1.1 0.6 1.8 0.6h6.4c0.6 0 1.2-0.2 1.7-0.6s0.9-0.9 1.2-1.6c0.3-0.6 0.5-1.4 0.5-2.2zm-2.5 7.6c-0.3 0.4-0.6 0.6-1 0.6h-6.3c-0.4 0-0.8-0.2-1-0.6-0.3-0.3-0.4-0.8-0.4-1.2v-3.7h9.2v3.7c-0.1 0.5-0.2 0.9-0.5 1.2z"/>
   <path id="path133" d="m565.2 479c0.3-0.6 0.4-1.4 0.5-2.2v-2.4c0-0.8-0.2-1.5-0.5-2.2s-0.7-1.2-1.2-1.6-1.1-0.6-1.8-0.6h-6.6c-0.6 0-1.2 0.2-1.7 0.6s-0.9 0.9-1.2 1.6c-0.3 0.6-0.5 1.4-0.5 2.2v2.4c0 0.8 0.2 1.5 0.5 2.2s0.7 1.2 1.2 1.6 1.1 0.6 1.7 0.6h6.6c0.6 0 1.2-0.2 1.8-0.6 0.5-0.4 0.9-0.9 1.2-1.6zm-2-1c-0.3 0.4-0.6 0.6-1 0.6h-6.5c-0.4 0-0.7-0.2-1-0.6-0.3-0.3-0.4-0.8-0.4-1.2v-2.2c0-0.5 0.2-0.9 0.4-1.3 0.3-0.3 0.6-0.6 1-0.6h6.5c0.4 0 0.7 0.2 1 0.6s0.4 0.8 0.4 1.3v2.2c0 0.4-0.1 0.8-0.4 1.2z"/>
   <polygon id="polygon135" points="534.1 484.5 534.1 470.8 537.3 470.8 537.3 478.7 541 478.7 541 470.8 543.8 470.8 543.8 484.4 547.5 484.4 547.5 466 530.2 466 530.2 484.5"/>
   <path id="path137" d="m543.9 464c1.2 0 2.1-0.3 2.7-1s0.9-1.8 0.9-3.2v-15.1h-17.4v14.1c0 3.7 1.2 5.5 3.7 5.5h2.1c1.5 0 2.5-0.6 3.1-2 0.6 1.2 1.5 1.8 2.8 1.8h2.1zm-0.1-4.7c-0.2 0.2-0.3 0.3-0.6 0.2h-1.6c-0.2 0-0.4 0-0.6-0.2l-0.2-1.2v-8.7h3.1v8.7c0.1 0.6 0 1.1-0.1 1.2zm-9.9-9.9h3.4v8.7c0 0.6-0.1 1-0.2 1.2-0.2 0.2-0.4 0.3-0.9 0.3h-1.2c-0.4 0-0.7-0.1-0.8-0.3-0.2-0.2-0.3-0.6-0.3-1.2z"/>
   <path id="path139" d="m547.5 442.5v-4.8h-13.4v-10.5h13.4v-4.8h-13c-1.1 0-1.9 0.1-2.6 0.4-0.6 0.3-1.1 0.8-1.3 1.5-0.3 0.7-0.4 1.6-0.4 2.8v10.8c0 1.2 0.1 2.1 0.4 2.8s0.7 1.2 1.3 1.5 1.5 0.4 2.6 0.4h13z"/>
   <path id="path141" d="m545.7 419.9c0.6-0.3 1.1-0.8 1.4-1.5s0.4-1.6 0.4-2.8v-10.6c0-1.2-0.1-2.1-0.4-2.8s-0.7-1.2-1.4-1.5c-0.6-0.3-1.5-0.5-2.6-0.4h-8.7c-1.1 0-1.9 0.1-2.6 0.4-0.6 0.3-1.1 0.8-1.3 1.5-0.3 0.7-0.4 1.6-0.4 2.8v10.6c0 1.2 0.1 2.1 0.4 2.8 0.3 0.6 0.7 1.2 1.3 1.5s1.5 0.4 2.6 0.4h3.2v-4.8h-3.5v-10.3h9.6v10.3h-3.1v4.8h2.6c1.1 0.1 1.9-0.1 2.5-0.4z"/>
   <polygon id="polygon143" points="534.1 397 534.1 383.3 537.3 383.3 537.3 391.1 541 391.1 541 383.3 543.8 383.3 543.8 396.8 547.5 396.8 547.5 378.4 530.2 378.4 530.2 397"/>
   <polygon id="polygon145" points="552.3 323.1 565.6 323.1 565.6 320.5 557.1 320.5 565.6 316 565.6 312.5 552.3 312.5 552.3 315.1 562.6 315.1 552.3 320.5"/>
   <polygon id="polygon147" points="565.6 340.9 565.6 337.9 552.3 337.9 552.3 340.9"/>
   <polygon id="polygon149" points="552.3 355.6 552.3 358.2 562.6 358.2 552.3 363.6 552.3 366.2 565.6 366.2 565.6 363.6 557.1 363.6 565.6 359.1 565.6 355.6"/>
   <polygon id="polygon151" points="563.5 385.3 563.5 389.8 565.6 389.8 565.6 378.1 563.5 378.1 563.5 382.5 552.3 382.5 552.3 385.3"/>
   <polygon id="polygon153" points="530.2 342.4 534.1 342.4 534.1 336.6 542.7 341.9 530.2 349.2 530.2 357.1 539.4 357.1 530.2 362.7 530.2 366.2 539.4 371.8 530.2 371.8 530.2 376.3 547.5 376.3 547.5 371.8 535.2 364.4 547.5 357.1 547.5 352.7 533.2 352.7 547.5 344.1 547.5 339.7 530.2 329.4"/>
   <path id="path155" d="m543.7 329.8h3.8v-16.3c0-1.2-0.1-2.1-0.4-2.8s-0.7-1.2-1.4-1.5c-0.6-0.3-1.5-0.4-2.6-0.4h-8.7c-1.1 0-1.9 0.1-2.6 0.4-0.6 0.3-1.1 0.8-1.3 1.5-0.3 0.7-0.4 1.6-0.4 2.8v11.9c0 1.7 0.3 2.9 0.9 3.6 0.7 0.7 1.8 1 3.4 1h6.1v-11.2h-3.6v6.5h-2.9v-11.6h9.6v16.1z"/>
  </g>
  <g id="text4350" transform="matrix(0 .61559 -.84746 0 374.27 876.9)" fill="#302d4f" aria-label="START/PAUSE">
   <path id="path11254" d="m-974.92 22.925v2.4688q-0.96093-0.42969-1.875-0.64844-0.91406-0.21875-1.7266-0.21875-1.0781 0-1.5938 0.29688-0.51562 0.29688-0.51562 0.92188 0 0.46875 0.34375 0.73438 0.35156 0.25781 1.2656 0.44531l1.2812 0.25781q1.9453 0.39062 2.7656 1.1875 0.82031 0.79688 0.82031 2.2656 0 1.9297-1.1484 2.875-1.1406 0.9375-3.4922 0.9375-1.1094 0-2.2266-0.21094-1.1172-0.21094-2.2344-0.625v-2.5391q1.1172 0.59375 2.1562 0.89844 1.0469 0.29688 2.0156 0.29688 0.98438 0 1.5078-0.32812 0.52344-0.32812 0.52344-0.9375 0-0.54688-0.35937-0.84375-0.35157-0.29688-1.4141-0.53125l-1.1641-0.25781q-1.75-0.375-2.5625-1.1953-0.80469-0.82031-0.80469-2.2109 0-1.7422 1.125-2.6797t3.2344-0.9375q0.96094 0 1.9766 0.14844 1.0156 0.14062 2.1016 0.42969z"/>
   <path id="path11256" d="m-972.9 22.558h10.75v2.2734h-3.8672v9.3906h-3.0078v-9.3906h-3.875z"/>
   <path id="path11258" d="m-954.76 32.097h-4.7031l-0.74219 2.125h-3.0234l4.3203-11.664h3.5859l4.3203 11.664h-3.0234zm-3.9531-2.1641h3.1953l-1.5938-4.6406z"/>
   <path id="path11260" d="m-945.18 27.73q0.94531 0 1.3516-0.35156 0.41406-0.35156 0.41406-1.1562 0-0.79688-0.41406-1.1406-0.40625-0.34375-1.3516-0.34375h-1.2656v2.9922zm-1.2656 2.0781v4.4141h-3.0078v-11.664h4.5938q2.3047 0 3.375 0.77344 1.0781 0.77344 1.0781 2.4453 0 1.1562-0.5625 1.8984-0.55469 0.74219-1.6797 1.0938 0.61719 0.14062 1.1016 0.64062 0.49219 0.49219 0.99219 1.5l1.6328 3.3125h-3.2031l-1.4219-2.8984q-0.42969-0.875-0.875-1.1953-0.4375-0.32031-1.1719-0.32031z"/>
   <path id="path11262" d="m-939.24 22.558h10.75v2.2734h-3.8672v9.3906h-3.0078v-9.3906h-3.875z"/>
   <path id="path11264" d="m-924.3 22.558h1.7344l-4.1172 13.148h-1.7266z"/>
   <path id="path11266" d="m-921.1 22.558h4.9922q2.2266 0 3.4141 0.99219 1.1953 0.98438 1.1953 2.8125 0 1.8359-1.1953 2.8281-1.1875 0.98438-3.4141 0.98438h-1.9844v4.0469h-3.0078zm3.0078 2.1797v3.2578h1.6641q0.875 0 1.3516-0.42188 0.47657-0.42969 0.47657-1.2109t-0.47657-1.2031q-0.47656-0.42188-1.3516-0.42188z"/>
   <path id="path11268" d="m-903.76 32.097h-4.7031l-0.74219 2.125h-3.0234l4.3203-11.664h3.5859l4.3203 11.664h-3.0234zm-3.9531-2.1641h3.1953l-1.5938-4.6406z"/>
   <path id="path11270" d="m-898.95 22.558h3.0078v6.9922q0 1.4453 0.46875 2.0703 0.47656 0.61719 1.5469 0.61719 1.0781 0 1.5469-0.61719 0.47656-0.625 0.47656-2.0703v-6.9922h3.0078v6.9922q0 2.4766-1.2422 3.6875-1.2422 1.2109-3.7891 1.2109-2.5391 0-3.7812-1.2109-1.2422-1.2109-1.2422-3.6875z"/>
   <path id="path11272" d="m-877.84 22.925v2.4688q-0.96094-0.42969-1.875-0.64844t-1.7266-0.21875q-1.0781 0-1.5938 0.29688-0.51563 0.29688-0.51563 0.92188 0 0.46875 0.34375 0.73438 0.35156 0.25781 1.2656 0.44531l1.2812 0.25781q1.9453 0.39062 2.7656 1.1875t0.82031 2.2656q0 1.9297-1.1484 2.875-1.1406 0.9375-3.4922 0.9375-1.1094 0-2.2266-0.21094-1.1172-0.21094-2.2344-0.625v-2.5391q1.1172 0.59375 2.1562 0.89844 1.0469 0.29688 2.0156 0.29688 0.98437 0 1.5078-0.32812t0.52344-0.9375q0-0.54688-0.35938-0.84375-0.35156-0.29688-1.4141-0.53125l-1.1641-0.25781q-1.75-0.375-2.5625-1.1953-0.80469-0.82031-0.80469-2.2109 0-1.7422 1.125-2.6797t3.2344-0.9375q0.96094 0 1.9766 0.14844 1.0156 0.14062 2.1016 0.42969z"/>
   <path id="path11274" d="m-874.43 22.558h8.1172v2.2734h-5.1094v2.1719h4.8047v2.2734h-4.8047v2.6719h5.2812v2.2734h-8.2891z"/>
  </g>
  <circle id="path11506-1" transform="rotate(90)" cx="495.44" cy="-325.85" r="35.597" fill="#66cea8" fill-rule="evenodd" stop-color="#000000" stroke="#000" stroke-linejoin="round" stroke-miterlimit="2" stroke-width="2.5583"/>
  <circle id="path11632" transform="rotate(90)" cx="424.54" cy="-292.72" r="23.984" fill="#cc2c2a" fill-rule="evenodd" stop-color="#000000" stroke="#000" stroke-linejoin="round" stroke-miterlimit="2" stroke-width="2.4667"/>
  <path id="path51" d="m302.61 419.29v6.4841c-2e-3 0.0167-2e-3 0.0335 0 0.0502v0.0825c-0.52589 4.1319-9.044 4.3985-9.4269 0.28805-0.36905 5.0116-9.9528 4.6722-10.352-0.28805h-2e-3v-0.0215c-2e-3 -0.0382 0-0.0765 0-0.11475v-6.4806zm-16.137 6.5822c0.50975 1.5777 3.9627 1.6781 4.5901 0.0347v-3.9813h-4.5854zm8.2344-0.0382c1.2432 1.7032 3.9373 0.98009 4.2625 0.0729v-3.9813h-4.2579z" fill="#9a0b1c" stroke-width="1.6604" bx:origin="0 0"/>
  <circle id="path11632-1" transform="rotate(90)" cx="310" cy="-315.66" r="16" fill="#010000" fill-opacity=".66112" fill-rule="evenodd" stop-color="#000000" style="-inkscape-stroke:none"/>
  <circle id="path11632-1-7" transform="rotate(90)" cx="310" cy="-315.66" r="12.642" fill="#ececec" fill-rule="evenodd" stop-color="#000000" style="-inkscape-stroke:none"/>
  <path id="path11942" d="m410.25 471.02c0.58161 1.8689 1.1494 4.0315 1.5126 6.622 0.36325 2.5904 0.52214 5.6083 0.41586 8.2142-0.10628 2.6059-0.4775 4.7994-0.97812 6.9584-0.50062 2.159-1.1304 4.2832-1.8403 6.0158s-1.4995 3.0735-2.2702 4.1565c-0.77078 1.083-1.5224 1.9081-2.5915 2.746-1.069 0.83787-2.4552 1.6888-3.8692 2.2749-1.414 0.5861-2.8537 0.90736-4.3882 1.0978s-3.1552 0.2493-4.6711-1e-3c-1.5159-0.25051-2.9427-0.81714-4.2273-1.5006-1.2846-0.68342-2.436-1.4872-3.4797-2.5372-1.0437-1.05-1.98-2.3467-2.6953-3.9234-0.71536-1.5767-1.2068-3.4226-1.5024-5.2278-0.29561-1.8052-0.39372-3.5643-0.62493-5.8712s-0.59556-5.1614-1.1696-7.75c-0.57409-2.5886-1.3516-4.8917-2.136-6.9247-0.78448-2.033-1.5606-3.7592-2.272-5.3686-0.7114-1.6093-1.3677-3.1246-1.9327-4.7791-0.56494-1.6544-1.0463-3.4663-1.1394-5.2869-0.0931-1.8205 0.20244-3.6501 0.78994-5.3019s1.4674-3.126 2.3169-4.278c0.84951-1.1519 1.6688-1.9814 2.7869-2.849 1.1181-0.86763 2.5351-1.7731 4.008-2.4069 1.473-0.63385 2.9938-0.99367 4.5332-1.0336 1.5394-0.0399 3.0872 0.24032 4.4158 0.58101s2.4177 0.73674 3.6373 1.4264c1.2196 0.6897 2.5651 1.6714 4.0027 2.9587s2.967 2.8798 4.487 4.7289c1.52 1.8492 3.0071 3.9224 4.1904 6.0053 1.1833 2.0829 2.051 4.1589 2.7826 5.9846 0.73162 1.8256 1.3271 3.4007 1.9087 5.2697z" fill="#e6e6e6" stroke="#010101" stroke-width="1.5196"/>
  <path id="path11942-3" d="m345.65 581.12c-1.0816 0.28395-3.2442 0.85169-5.8673 1.2196-2.623 0.36796-5.706 0.53626-8.2559 0.41842-2.5499-0.11784-4.6353-0.53536-6.7617-1.0406s-4.328-1.1051-6.0994-1.8c-1.7714-0.69492-3.1123-1.4845-4.1953-2.2553s-1.9081-1.5224-2.746-2.5915c-0.83787-1.069-1.6888-2.4552-2.2349-3.8916-0.5461-1.4364-0.78794-2.9229-0.91357-4.5012-0.12564-1.5783-0.13523-3.2434 0.0765-4.7395 0.2117-1.4961 0.64671-2.8282 1.2656-4.0681 0.61884-1.24 1.4226-2.3914 2.4726-3.435s2.3467-1.98 3.9234-2.7546c1.5767-0.77465 3.4226-1.384 5.2278-1.6797 1.8051-0.29566 3.5642-0.27553 5.8711-0.44758 2.3069-0.17205 5.1614-0.5364 7.75-1.1105 2.5886-0.5741 4.8917-1.3516 6.9247-2.136s3.7592-1.5606 5.3685-2.272c1.6093-0.7114 3.1246-1.3677 4.7791-1.9327 1.6544-0.56495 3.4663-1.0463 5.2869-1.1394 1.8205-0.0931 3.6501 0.20243 5.3019 0.78993s3.126 1.4674 4.278 2.317 1.9814 1.6688 2.849 2.7869 1.7731 2.5351 2.4069 4.008 0.99367 2.9938 1.0128 4.486c0.0192 1.4922-0.30374 2.9512-0.64384 4.277-0.3401 1.3258-0.69472 2.5091-1.3636 3.7761-0.6689 1.267-1.6506 2.6125-2.9379 4.0501-1.2872 1.4376-2.8797 2.967-4.7289 4.487-1.8492 1.52-3.9224 3.0071-5.9469 4.2008s-3.9837 2.0821-5.8099 2.8139c-1.8262 0.73179-3.5169 1.3061-4.3626 1.5934-0.84571 0.2873-0.84567 0.28731-1.9273 0.57127z" fill="#e6e6e6" stroke="#000" stroke-width="1.5196"/>
  <rect id="rect12476" transform="rotate(90)" x="192.83" y="-232.78" width="26.095" height="82.36" rx="5.5506" ry="5.4509" fill="#c9c8cd" fill-rule="evenodd" stop-color="#000000" style="-inkscape-stroke:none"/>
  <rect id="rect12476-5" transform="scale(-1)" x="-204.65" y="-247.06" width="26.095" height="82.36" rx="5.5506" ry="5.4509" fill="#c9c8cd" fill-rule="evenodd" stop-color="#000000" style="-inkscape-stroke:none"/>
  <path id="path90-6" d="m225.73 207.73c2.1279-1.0169 2.1279-2.6826 0-3.7005l-8.2442-3.9417c-2.1279-1.0186-3.8685-0.54303-3.8685 1.056v9.4719c0 1.5991 1.7406 2.0729 3.8685 1.0569l8.2442-3.9426c2.1279-1.0169 2.1279-2.6826 0-3.7005l-8.2442-3.9417c-2.1279-1.0186-3.8685-0.54303-3.8685 1.056v9.4719c0 1.5991 1.7406 2.0729 3.8685 1.0569z" clip-path="url(#clipPath16)" fill="#aeaeae" bx:origin="0.5 0.5"/>
  <path id="path90-6-2" d="m157.47 207.73c-2.1279-1.0169-2.1279-2.6826 0-3.7005l8.2442-3.9417c2.1279-1.0186 3.8685-0.54303 3.8685 1.056v9.4719c0 1.5991-1.7406 2.0729-3.8685 1.0569l-8.2442-3.9426c-2.1279-1.0169-2.1279-2.6826 0-3.7005l8.2442-3.9417c2.1279-1.0186 3.8685-0.54303 3.8685 1.056v9.4719c0 1.5991-1.7406 2.0729-3.8685 1.0569z" clip-path="url(#clipPath16)" fill="#aeaeae" bx:origin="0.5 0.5"/>
  <path id="path90-6-3" d="m189.75 240.01c1.0169 2.1279 2.6826 2.1279 3.7005 0l3.9417-8.2442c1.0186-2.1279 0.54302-3.8685-1.056-3.8685h-9.4719c-1.5991 0-2.0729 1.7406-1.0569 3.8685l3.9426 8.2442c1.0169 2.1279 2.6826 2.1279 3.7005 0l3.9417-8.2442c1.0186-2.1279 0.54302-3.8685-1.056-3.8685h-9.4719c-1.5991 0-2.0729 1.7406-1.0569 3.8685z" clip-path="url(#clipPath16)" fill="#aeaeae" bx:origin="0.5 0.5"/>
  <path id="path90-6-2-6" d="m189.75 171.74c1.0169-2.1278 2.6826-2.1278 3.7005 0l3.9417 8.2443c1.0186 2.1279 0.54302 3.8685-1.056 3.8685h-9.4719c-1.5991 0-2.0729-1.7406-1.0569-3.8685l3.9426-8.2443c1.0169-2.1278 2.6826-2.1278 3.7005 0l3.9417 8.2443c1.0186 2.1279 0.54302 3.8685-1.056 3.8685h-9.4719c-1.5991 0-2.0729-1.7406-1.0569-3.8685z" clip-path="url(#clipPath16)" fill="#aeaeae" bx:origin="0.5 0.5"/>
  <circle id="path12853" transform="rotate(90)" cx="205.88" cy="-191.6" r="6.7373" fill="#949494" fill-rule="evenodd" stop-color="#000000" style="-inkscape-stroke:none"/>
  <path id="path13862-0-2" transform="matrix(-.20042 .74799 -.74799 -.20042 11.195 1254.1)" d="m-1060.1 90.779-38.908 29.5-48.446-6.0931-29.5-38.909 6.0931-48.446 38.908-29.5 48.446 6.0931 29.5 38.909z" fill="#f0cd40" fill-rule="evenodd" stop-color="#000000" stroke="#000" stroke-linejoin="round" stroke-miterlimit="2" stroke-width="4.8095"/>
  <circle id="path14146" transform="rotate(90)" cx="120.8" cy="-328.07" r="39.861" fill="#ececec" fill-rule="evenodd" stop-color="#000000"/>
  <circle id="path14146-2" transform="rotate(90)" cx="120.8" cy="-328.07" r="32.024" fill="none" stop-color="#000000" stroke="#cfcfcf" stroke-linejoin="round" stroke-miterlimit="2" stroke-width="2.39"/>
  <circle id="path14146-2-5" transform="rotate(90)" cx="120.8" cy="-328.07" r="22.999" fill="none" stop-color="#000000" stroke="#cfcfcf" stroke-linejoin="round" stroke-miterlimit="2" stroke-width="2.39"/>
  <circle id="path14146-2-5-2" transform="rotate(90)" cx="120.8" cy="-328.07" r="10.615" fill="none" stop-color="#000000" stroke="#cfcfcf" stroke-linejoin="round" stroke-miterlimit="2" stroke-width="2.39"/>
  <circle id="path15249-8" transform="rotate(90)" cx="408.01" cy="-190.77" r="26.066" fill="#ffde32" fill-rule="evenodd" stop-color="#000000" stroke="#d1b000" stroke-linejoin="round" stroke-miterlimit="2" stroke-width="2.4046"/>
  <path id="path47" d="m335.91 493.56-0.0266 1.8784 0.0266 1.8769-20.087 5.6876-0.0266-3.0573 5.0392-1.42 0.058-6.1595-5.0972-1.4365 0.0266-3.0573zm-10.975 3.8122 6.8663-1.9338-6.7575-1.9039z" fill="#459e9c" stroke-width="1.9027" bx:origin="0 0"/>
  <path id="path49" d="m402.96 472.41 4e-3 -3.3614-9.9696 5.5708h-8.1822v2.9379h8.2291l9.9227 5.5441-6e-3 -3.3614-6.6016-3.665z" fill="#b8b8b8" stroke-width="1.7772" bx:origin="0 0"/>
  <path id="path44" d="m352.34 561.5 0.0658-3.0854-8.8428 3.8918-9.6342-4.1503 0.0373 2.9028 6.2167 2.7362-6.2167 2.7351-0.0373 2.9028 9.6342-4.1503 8.8428 3.8918-0.0658-3.0854-5.3245-2.294z" fill="#b8b8b8" stroke-width="1.5868" bx:origin="0 0"/>
  <g id="text17008" transform="matrix(0 .88665 -1.1185 0 383.71 1233)" fill="#695800" opacity=".52197" stroke-width=".60027" aria-label="C">
   <path id="path34810" d="m-925 180.74c-0.54712 0.28138-1.1216 0.49241-1.7234 0.6331s-1.2349 0.21103-1.8993 0.21103c-2.3604 0-4.162-0.77769-5.4048-2.3331s-1.8641-3.8025-1.8641-6.7413c0-2.9466 0.62137-5.1976 1.8641-6.753s3.0443-2.3331 5.4048-2.3331c0.66437 0 1.3014 0.0703 1.911 0.21103 0.60965 0.14069 1.1802 0.35172 1.7117 0.6331v3.2993c-1.0791-0.47206-1.0847-0.45445-1.7039-0.68915-0.65704-0.22785-1.1607-0.34738-1.7547-0.34738-1.2662 0-2.2236 0.50413-2.8724 1.5124-0.64091 1.0004-0.96137 2.4894-0.96137 4.4669 0 1.9696 0.32046 3.4586 0.96137 4.4668 0.64873 1.0004 1.6062 1.5007 2.8724 1.5007 0.59402 0 1.0679-0.14904 1.728-0.34919 0.58078-0.21525 0.98634-0.33226 1.7306-0.82673z" fill="#695800"/>
  </g>
 </g>
</svg>
