<?xml version="1.0" encoding="UTF-8"?>
<svg id="svg2" width="210.4" height="418.77" version="1.1" viewBox="0 0 210.4 418.77" xml:space="preserve" xmlns="http://www.w3.org/2000/svg" xmlns:cc="http://creativecommons.org/ns#" xmlns:dc="http://purl.org/dc/elements/1.1/" xmlns:rdf="http://www.w3.org/1999/02/22-rdf-syntax-ns#"><metadata id="metadata8"><rdf:RDF><cc:Work rdf:about=""><dc:format>image/svg+xml</dc:format><dc:type rdf:resource="http://purl.org/dc/dcmitype/StillImage"/><dc:title/></cc:Work></rdf:RDF></metadata><defs id="defs6"><clipPath id="clipPath16"><path id="path18" d="m0 335.02h168.32v-335.02h-168.32v335.02z"/></clipPath><clipPath id="clipPath28"><path id="path30" d="m7.9934 160.33h154.21v-154.21h-154.21v154.21z"/></clipPath><linearGradient id="linearGradient84" x2="1" gradientTransform="matrix(39.823 39.823 39.823 -39.823 65.124 63.311)" gradientUnits="userSpaceOnUse"><stop id="stop86" stop-color="#a6a8ab" offset="0"/><stop id="stop88" stop-color="#e6e7e8" offset="1"/></linearGradient><clipPath id="clipPath96"><path id="path98" d="m0 335.02h168.32v-335.02h-168.32v335.02z"/></clipPath><clipPath id="clipPath104"><path id="path106" d="m62.599 105.66h44.872v-44.873h-44.872v44.873z"/></clipPath><clipPath id="clipPath120"><path id="path122" d="m56.923 111.2h56.094v-56.094h-56.094v56.094z"/></clipPath><clipPath id="clipPath124"><path id="path126" d="m58.434 83.504c0 14.847 12.035 26.882 26.882 26.882s26.883-12.035 26.883-26.882-12.036-26.883-26.883-26.883-26.882 12.036-26.882 26.883m54.583-0.346c0 15.49-12.557 28.047-28.047 28.047s-28.047-12.557-28.047-28.047 12.557-28.047 28.047-28.047 28.047 12.557 28.047 28.047"/></clipPath><linearGradient id="linearGradient132" x2="1" gradientTransform="matrix(39.664 -39.664 -39.664 -39.664 65.138 102.99)" gradientUnits="userSpaceOnUse"><stop id="stop134" stop-color="#fff" stop-opacity="0" offset="0"/><stop id="stop136" stop-color="#fff" offset=".20752"/><stop id="stop138" stop-color="#fff" offset=".5"/><stop id="stop140" stop-color="#fff" offset=".79248"/><stop id="stop142" stop-color="#fff" stop-opacity="0" offset="1"/></linearGradient><mask id="mask144" x="0" y="0" width="1" height="1" maskUnits="userSpaceOnUse"><g id="g146"><g id="g148"><g id="g150"><g id="g152"><path id="path154" d="m-32768 32767h65535v-65535h-65535v65535z" fill="url(#linearGradient132)"/></g></g></g></g></mask><linearGradient id="linearGradient156" x2="1" gradientTransform="matrix(39.664 -39.664 -39.664 -39.664 65.138 102.99)" gradientUnits="userSpaceOnUse"><stop id="stop158" stop-color="#231f20" offset="0"/><stop id="stop160" stop-color="#231f20" offset=".20752"/><stop id="stop162" stop-color="#231f20" offset=".5"/><stop id="stop164" stop-color="#231f20" offset=".79248"/><stop id="stop166" stop-color="#231f20" offset="1"/></linearGradient><clipPath id="clipPath190"><path id="path192" d="m56.924 111.2h56.094v-56.094h-56.094v56.094z"/></clipPath><clipPath id="clipPath194"><path id="path196" d="m111.51 82.812c0-14.847-12.036-26.883-26.882-26.883-14.847 0-26.883 12.036-26.883 26.883s12.036 26.883 26.883 26.883c14.846 0 26.882-12.036 26.882-26.883m-54.583 0.346c0-15.49 12.556-28.047 28.047-28.047 15.49 0 28.047 12.557 28.047 28.047s-12.557 28.047-28.047 28.047c-15.491 0-28.047-12.557-28.047-28.047"/></clipPath><linearGradient id="linearGradient202" x2="1" gradientTransform="matrix(-39.664 39.664 39.664 39.664 104.8 63.326)" gradientUnits="userSpaceOnUse"><stop id="stop204" stop-color="#fff" stop-opacity="0" offset="0"/><stop id="stop206" stop-color="#fff" offset=".5"/><stop id="stop208" stop-color="#fff" stop-opacity="0" offset="1"/></linearGradient><mask id="mask210" x="0" y="0" width="1" height="1" maskUnits="userSpaceOnUse"><g id="g212"><g id="g214"><g id="g216"><g id="g218"><path id="path220" d="m-32768 32767h65535v-65535h-65535v65535z" fill="url(#linearGradient202)"/></g></g></g></g></mask><linearGradient id="linearGradient222" x2="1" gradientTransform="matrix(-39.664 39.664 39.664 39.664 104.8 63.326)" gradientUnits="userSpaceOnUse"><stop id="stop224" stop-color="#fff" offset="0"/><stop id="stop226" stop-color="#fff" offset=".5"/><stop id="stop228" stop-color="#fff" offset="1"/></linearGradient><clipPath id="clipPath256"><path id="path258" d="m58.518 328.25h53.062v-53.062h-53.062v53.062z"/></clipPath><clipPath id="clipPath280"><path id="path282" d="m59.206 327.41h51.533v-51.534h-51.533v51.534z"/></clipPath><clipPath id="clipPath296"><path id="path298" d="m51.807 334.81h66.331v-66.331h-66.331v66.331z"/></clipPath><clipPath id="clipPath316"><path id="path318" d="m57.956 252.3h53.062v-53.062h-53.062v53.062z"/></clipPath><clipPath id="clipPath340"><path id="path342" d="m58.644 251.46h51.534v-51.533h-51.534v51.533z"/></clipPath><clipPath id="clipPath356"><path id="path358" d="m51.245 258.86h66.332v-66.331h-66.332v66.331z"/></clipPath></defs><g id="g10" transform="matrix(1.25,0,0,-1.25,0,418.77)"><g id="g12"><g id="g14" clip-path="url(#clipPath16)"><g id="g20" transform="translate(85.1)"><path id="path22" d="m0 0c-45.962 0-83.222 37.26-83.222 83.222 0 45.963 37.26 83.222 83.222 83.222s83.222-37.259 83.222-83.222c0-45.962-37.26-83.222-83.222-83.222" fill="#231f20"/></g><g id="g24"><g id="g32"><g id="g34" clip-path="url(#clipPath28)" opacity=".10001"><g id="g36" transform="translate(85.099 6.1158)"><path id="path38" d="m0 0 16.896 16.323h-8.253v18.674h-17.286v-18.674h-8.252l16.895-16.323z" fill="#84849b"/></g><g id="g40" transform="translate(139.62 28.699)"><path id="path42" d="M 0,0 0.405,23.489 -5.43,17.654 -18.635,30.858 -30.858,18.635 -17.653,5.431 -23.489,-0.405 0,0 Z" fill="#84849b"/></g><g id="g44" transform="translate(162.21 83.222)"><path id="path46" d="m0 0-16.323 16.896v-8.252h-18.674v-17.287h18.674v-8.252l16.323 16.895z" fill="#84849b"/></g><g id="g48" transform="translate(139.62 137.74)"><path id="path50" d="m0 0-23.489 0.405 5.835-5.835-13.205-13.205 12.224-12.223 13.204 13.205 5.836-5.835-0.405 23.488z" fill="#84849b"/></g><g id="g52" transform="translate(85.1 160.33)"><path id="path54" d="m0 0-16.896-16.322h8.252v-18.675h17.287v18.674l8.252 1e-3 -16.895 16.322z" fill="#84849b"/></g><g id="g56" transform="translate(30.578 137.75)"><path id="path58" d="M 0,0 -0.405,-23.489 5.43,-17.654 18.635,-30.859 30.858,-18.636 17.653,-5.431 23.488,0.405 0,0 Z" fill="#84849b"/></g><g id="g60" transform="translate(7.9934,83.223)"><path id="path62" d="m0 0 16.322-16.895v8.251h18.675v17.286h-18.674l-1e-3 8.253-16.322-16.895z" fill="#84849b"/></g><g id="g64" transform="translate(30.577 28.7)"><path id="path66" d="M 0,0 23.489,-0.405 17.654,5.43 30.859,18.635 18.636,30.858 5.431,17.653 -0.405,23.488 0,0 Z" fill="#84849b"/></g></g></g></g><g id="g68" transform="translate(84.161 .0119)"><path id="path70" d="m0 0c-45.529 0.504-82.284 37.562-82.284 83.21 0 45.649 36.755 82.707 82.284 83.211-0.313 3e-3 -0.625 0.012-0.939 0.012-45.962 0-83.222-37.26-83.222-83.223 0-45.962 37.26-83.222 83.222-83.222 0.314 0 0.626 9e-3 0.939 0.012" fill="#6d6e70"/></g></g></g><g id="g72"><g id="g74"><g id="g80"><g id="g82"><path id="path90" d="m56.876 83.222c0-15.551 12.608-28.159 28.159-28.159 15.552 0 28.159 12.608 28.159 28.159 0 15.552-12.607 28.159-28.159 28.159-15.551 0-28.159-12.607-28.159-28.159" fill="url(#linearGradient84)"/></g></g></g></g><g id="g92"><g id="g94" clip-path="url(#clipPath96)"><g id="g100"><g id="g108"><g id="g110" clip-path="url(#clipPath104)" opacity=".3"><g id="g112" transform="translate(85.035,60.786)"><path id="path114" d="m0 0c-12.391 0-22.436 10.045-22.436 22.436s10.045 22.437 22.436 22.437 22.436-10.046 22.436-22.437-10.045-22.436-22.436-22.436" fill="#231f20"/></g></g></g></g><g id="g116"><g id="g168"><g id="g170" clip-path="url(#clipPath120)" opacity=".14999"><g id="g172"><g id="g174" clip-path="url(#clipPath124)"><g id="g176"><g id="g180" mask="url(#mask144)"><g id="g182"><path id="path184" d="m58.434 83.504c0 14.847 12.035 26.882 26.882 26.882s26.883-12.035 26.883-26.882-12.036-26.883-26.883-26.883-26.882 12.036-26.882 26.883m54.583-0.346c0 15.49-12.557 28.047-28.047 28.047s-28.047-12.557-28.047-28.047 12.557-28.047 28.047-28.047 28.047 12.557 28.047 28.047" fill="url(#linearGradient156)"/></g></g></g></g></g></g></g></g><g id="g186"><g id="g230"><g id="g232" clip-path="url(#clipPath190)" opacity=".39999"><g id="g234"><g id="g236" clip-path="url(#clipPath194)"><g id="g238"><g id="g242" mask="url(#mask210)"><g id="g244"><path id="path246" d="m111.51 82.812c0-14.847-12.036-26.883-26.882-26.883-14.847 0-26.883 12.036-26.883 26.883s12.036 26.883 26.883 26.883c14.846 0 26.882-12.036 26.882-26.883m-54.583 0.346c0-15.49 12.556-28.047 28.047-28.047 15.49 0 28.047 12.557 28.047 28.047s-12.557 28.047-28.047 28.047c-15.491 0-28.047-12.557-28.047-28.047" fill="url(#linearGradient222)"/></g></g></g></g></g></g></g></g><g id="g248" transform="translate(85.049 268.42)"><path id="path250" d="m0 0c-18.39 0-33.298 14.908-33.298 33.298s14.908 33.298 33.298 33.298 33.298-14.908 33.298-33.298-14.908-33.298-33.298-33.298" fill="#00adee"/></g><g id="g252"><g id="g260"><g id="g262" clip-path="url(#clipPath256)" opacity=".3"><g id="g264" transform="translate(85.049 275.19)"><path id="path266" d="m0 0c-14.653 0-26.531 11.878-26.531 26.531 0 14.652 11.878 26.531 26.531 26.531s26.531-11.879 26.531-26.531c0-14.653-11.878-26.531-26.531-26.531" fill="#00adee"/></g></g></g></g><g id="g268" transform="translate(84.973 275.87)"><path id="path270" d="m0 0c-14.231 0-25.767 11.536-25.767 25.767s11.536 25.767 25.767 25.767 25.767-11.536 25.767-25.767-11.536-25.767-25.767-25.767" fill="#00adee"/></g><g id="g272" transform="translate(84.973 275.87)"><path id="path274" d="m0 0c-14.231 0-25.767 11.536-25.767 25.767s11.536 25.767 25.767 25.767 25.767-11.536 25.767-25.767-11.536-25.767-25.767-25.767" fill="#00adee"/></g><g id="g276"><g id="g284"><g id="g286" clip-path="url(#clipPath280)" opacity=".2"><g id="g288" transform="translate(60.593 301.96)"><path id="path290" d="m0 0c0 13.64 11.057 24.697 24.697 24.697s24.698-11.057 24.698-24.697-11.058-24.698-24.698-24.698-24.697 11.058-24.697 24.698m50.146-0.318c0 14.231-11.536 25.767-25.766 25.767-14.231 0-25.767-11.536-25.767-25.767s11.536-25.767 25.767-25.767c14.23 0 25.766 11.536 25.766 25.767" fill="#00adee"/></g></g></g></g><g id="g292"><g id="g300"><g id="g302" clip-path="url(#clipPath296)" opacity=".14999"><g id="g304" transform="translate(53.593 302.05)"><path id="path306" d="m0 0c0 17.557 14.233 31.789 31.789 31.789 17.557 0 31.789-14.232 31.789-31.789 0-17.556-14.232-31.789-31.789-31.789-17.556 0-31.789 14.233-31.789 31.789m64.546-0.409c0 18.317-14.849 33.166-33.166 33.166s-33.166-14.849-33.166-33.166 14.849-33.165 33.166-33.165 33.166 14.848 33.166 33.165" fill="#00adee"/></g></g></g></g><g id="g308" transform="translate(84.487 192.48)"><path id="path310" d="m0 0c-18.39 0-33.298 14.908-33.298 33.298s14.908 33.298 33.298 33.298 33.298-14.908 33.298-33.298-14.908-33.298-33.298-33.298" fill="#00adee"/></g><g id="g312"><g id="g320"><g id="g322" clip-path="url(#clipPath316)" opacity=".3"><g id="g324" transform="translate(84.487 199.24)"><path id="path326" d="m0 0c-14.653 0-26.531 11.878-26.531 26.531 0 14.652 11.878 26.531 26.531 26.531s26.531-11.879 26.531-26.531c0-14.653-11.878-26.531-26.531-26.531" fill="#00adee"/></g></g></g></g><g id="g328" transform="translate(84.411 199.93)"><path id="path330" d="m0 0c-14.231 0-25.767 11.536-25.767 25.767s11.536 25.767 25.767 25.767 25.767-11.536 25.767-25.767-11.536-25.767-25.767-25.767" fill="#00adee"/></g><g id="g332" transform="translate(84.411 199.93)"><path id="path334" d="m0 0c-14.231 0-25.767 11.536-25.767 25.767s11.536 25.767 25.767 25.767 25.767-11.536 25.767-25.767-11.536-25.767-25.767-25.767" fill="#00adee"/></g><g id="g336"><g id="g344"><g id="g346" clip-path="url(#clipPath340)" opacity=".2"><g id="g348" transform="translate(60.031 226.01)"><path id="path350" d="m0 0c0 13.64 11.057 24.697 24.697 24.697s24.698-11.057 24.698-24.697-11.058-24.698-24.698-24.698-24.697 11.058-24.697 24.698m50.146-0.318c0 14.231-11.536 25.767-25.766 25.767-14.231 0-25.767-11.536-25.767-25.767s11.536-25.767 25.767-25.767c14.23 0 25.766 11.536 25.766 25.767" fill="#00adee"/></g></g></g></g><g id="g352"><g id="g360"><g id="g362" clip-path="url(#clipPath356)" opacity=".14999"><g id="g364" transform="translate(53.031 226.11)"><path id="path366" d="m0 0c0 17.557 14.233 31.789 31.789 31.789 17.557 0 31.789-14.232 31.789-31.789 0-17.556-14.232-31.789-31.789-31.789-17.556 0-31.789 14.233-31.789 31.789m64.546-0.409c0 18.317-14.849 33.165-33.166 33.165s-33.166-14.848-33.166-33.165 14.849-33.165 33.166-33.165 33.166 14.848 33.166 33.165" fill="#00adee"/></g></g></g></g><g id="g368" transform="translate(144.71 82.808)"><path id="path370" d="m0 0c0-21.185-17.173-38.358-38.358-38.358s-38.358 17.173-38.358 38.358 17.173 38.358 38.358 38.358 38.358-17.173 38.358-38.358" fill="#00adee"/></g></g></g></g></svg>
