<?xml version="1.0" encoding="UTF-8"?>
<svg id="svg2" width="157.41" height="379.96" version="1.1" viewBox="0 0 157.41 379.96" xml:space="preserve" xmlns="http://www.w3.org/2000/svg" xmlns:cc="http://creativecommons.org/ns#" xmlns:dc="http://purl.org/dc/elements/1.1/" xmlns:rdf="http://www.w3.org/1999/02/22-rdf-syntax-ns#"><metadata id="metadata8"><rdf:RDF><cc:Work rdf:about=""><dc:format>image/svg+xml</dc:format><dc:type rdf:resource="http://purl.org/dc/dcmitype/StillImage"/><dc:title/></cc:Work></rdf:RDF></metadata><defs id="defs6"><clipPath id="clipPath16"><path id="path18" d="m0 303.97h125.92v-303.97h-125.92v303.97z"/></clipPath></defs><g id="g10" transform="matrix(1.25 0 0 -1.25 0 379.96)"><g id="g12"><g id="g14" clip-path="url(#clipPath16)"><g id="g20" transform="translate(0,2.8444)"><path id="path22" d="m0 0v298.28c0 1.564 1.28 2.844 2.844 2.844h120.24c1.565 0 2.845-1.28 2.845-2.844v-298.28c0-1.564-1.28-2.844-2.845-2.844h-120.24c-1.564 0-2.844 1.28-2.844 2.844" fill="#333"/></g><g id="g24" transform="translate(9.7423 179.3)"><path id="path26" d="m0 0v93.51c0 3.129 2.56 5.689 5.689 5.689h93.51c3.129 0 5.689-2.56 5.689-5.689v-93.51c0-3.129-2.56-5.689-5.689-5.689h-93.51c-3.129 0-5.689 2.56-5.689 5.689" fill="#b12a12"/></g><g id="g28" transform="translate(12.518 181.78)"><path id="path30" d="m0 0v88.561c0 2.963 2.424 5.387 5.388 5.387h88.56c2.964 0 5.388-2.424 5.388-5.387v-88.561c0-2.963-2.424-5.388-5.388-5.388h-88.56c-2.964 0-5.388 2.425-5.388 5.388" fill="#333"/></g><g id="g32" transform="translate(17.055 186.61)"><path id="path34" d="m0 0v78.884c0 3.129 2.56 5.689 5.689 5.689h78.884c3.129 0 5.689-2.56 5.689-5.689v-78.884c0-3.129-2.56-5.689-5.689-5.689h-78.884c-3.129 0-5.689 2.56-5.689 5.689" fill="#ccc"/></g><path id="path36" d="m19.046 113.63h45.154v-46.028h-45.154v46.028z" fill="#ccc"/><path id="path38" d="m66.74 113.63h13.915v-46.028h-13.915v46.028z" fill="#b12a12"/><path id="path40" d="m66.74 62.617h13.915v-46.028h-13.915v46.028z" fill="#b12a12"/><path id="path42" d="m19.046 62.617h45.154v-46.028h-45.154v46.028z" fill="#ccc"/><g id="g44" transform="translate(27.312 212.34)"><path id="path46" d="m0 0v28.353c0 10.951 8.96 19.911 19.911 19.911h28.353c10.951 0 19.911-8.96 19.911-19.911v-28.353c0-10.951-8.96-19.911-19.911-19.911h-28.353c-10.951 0-19.911 8.96-19.911 19.911" fill="#333"/></g><g id="g48" transform="translate(54.415 226.52)"><path id="path50" d="m0 0c0 3.841 3.143 6.984 6.984 6.984 3.842 0 6.985-3.143 6.985-6.984s-3.143-6.984-6.985-6.984c-3.841 0-6.984 3.143-6.984 6.984"/></g><g id="g52" transform="translate(73.605 226.78)"><path id="path54" d="m0 0c0 1.545 1.264 2.81 2.81 2.81h9.476c1.545 0 2.81-1.265 2.81-2.81s-1.265-2.81-2.81-2.81h-9.476c-1.546 0-2.81 1.265-2.81 2.81"/></g><g id="g56" transform="translate(49.194 226.78)"><path id="path58" d="m0 0c0 1.545-1.264 2.81-2.81 2.81h-9.476c-1.545 0-2.81-1.265-2.81-2.81s1.265-2.81 2.81-2.81h9.476c1.546 0 2.81 1.265 2.81 2.81"/></g><g id="g60" transform="translate(61.399 214.58)"><path id="path62" d="m0 0c1.545 0 2.81-1.264 2.81-2.81v-9.476c0-1.545-1.265-2.81-2.81-2.81s-2.81 1.265-2.81 2.81v9.476c0 1.546 1.265 2.81 2.81 2.81"/></g><g id="g64" transform="translate(61.399 238.99)"><path id="path66" d="m0 0c1.545 0 2.81 1.264 2.81 2.81v9.476c0 1.545-1.265 2.81-2.81 2.81s-2.81-1.265-2.81-2.81v-9.476c0-1.546 1.265-2.81 2.81-2.81"/></g><g id="g68" transform="translate(25.908 90.619)"><path id="path70" d="m0 0c0 8.656 7.082 15.738 15.738 15.738s15.738-7.082 15.738-15.738-7.082-15.738-15.738-15.738-15.738 7.082-15.738 15.738" fill="#191919"/></g><g id="g72" transform="translate(25.908 39.603)"><path id="path74" d="m0 0c0 8.656 7.082 15.738 15.738 15.738s15.738-7.082 15.738-15.738-7.082-15.738-15.738-15.738-15.738 7.082-15.738 15.738" fill="#191919"/></g><g id="g76" transform="translate(79.003 246.99)"><path id="path78" d="m0 0-1.756-6.554-4.798 4.798 6.554 1.756z"/></g><g id="g80" transform="translate(79.003 206.04)"><path id="path82" d="m0 0-1.756 6.554-4.798-4.798 6.554-1.756z"/></g><g id="g84" transform="translate(43.795 246.99)"><path id="path86" d="m0 0 1.756-6.554 4.798 4.798-6.554 1.756z"/></g><g id="g88" transform="translate(43.795 206.04)"><path id="path90" d="m0 0 1.756 6.554 4.798-4.798-6.554-1.756z"/></g><path id="path92" d="m19.046 168.48h45.154v-3.84h-45.154v3.84z" fill="#666"/><path id="path94" d="m19.046 163.05h45.154v-3.84h-45.154v3.84z" fill="#666"/><path id="path96" d="m19.046 157.62h45.154v-3.84h-45.154v3.84z" fill="#666"/><path id="path98" d="m19.046 152.19h45.154v-3.84h-45.154v3.84z" fill="#666"/><path id="path100" d="m19.046 146.76h45.154v-3.84h-45.154v3.84z" fill="#666"/><path id="path102" d="m19.046 141.34h45.154v-3.84h-45.154v3.84z" fill="#666"/><path id="path104" d="m19.046 135.91h45.154v-3.84h-45.154v3.84z" fill="#666"/><path id="path106" d="m19.046 130.48h45.154v-3.84h-45.154v3.84z" fill="#666"/><path id="path108" d="m19.046 125.05h45.154v-3.84h-45.154v3.84z" fill="#666"/><path id="path110" d="m19.046 119.62h45.154v-3.84h-45.154v3.84z" fill="#666"/><g id="g112" transform="translate(35.134 164.8)"><path id="path114" d="m0 0 5e-3 -6.195c0-2.534 2.054-4.587 4.587-4.587s4.587 2.053 4.587 4.587l-7e-3 1.609c0 0.128 0.104 0.232 0.232 0.232s0.232-0.104 0.232-0.232l-1e-3 -6.18 1.943-4e-3v6.185c0 1.199-0.972 2.17-2.17 2.17-1.199 0-2.17-0.971-2.17-2.17l-0.018-1.616c0-1.451-1.176-2.627-2.626-2.627-1.451 0-2.627 1.176-2.627 2.627v6.199l-1.967 2e-3" fill="#fff"/></g><g id="g116" transform="translate(37.558 164.8)"><path id="path118" d="m0 0v-6.199c0-1.199 0.971-2.17 2.17-2.17 1.198 0 2.169 0.971 2.169 2.17l0.018 1.616c0 1.451 1.176 2.627 2.627 2.627 1.45 0 2.626-1.176 2.626-2.627l3e-3 -6.185 1.952 4e-3 3e-3 6.18c0 2.534-2.054 4.587-4.588 4.587-2.533 0-4.587-2.053-4.587-4.587l-1e-3 -1.599c0-0.124-0.101-0.224-0.225-0.224-0.123 0-0.224 0.1-0.224 0.224l-2e-3 6.185-1.941-2e-3" fill="#fff"/></g><g id="g120" transform="translate(37.089 149.22)"><path id="path122" d="m0 0c0 1.073 0.86 1.953 1.953 1.953h6.21c1.052 0 1.923-0.88 1.923-1.953l-2e-3 -6.612h1.951l1e-3 6.612c0 2.15-1.743 3.893-3.893 3.893h-6.19c-2.15 0-3.892-1.743-3.892-3.893l-3e-3 -6.585 1.945 2e-3 -3e-3 6.583" fill="#fff"/></g><g id="g124" transform="translate(45.232 150.7)"><path id="path126" d="m0 0c0.82 0 1.484-0.659 1.484-1.48v-6.612h-1.947v5.697c0 0.457-0.458 0.462-0.458 0.462v-4.75l-1.941-2e-3v6.688l2.862-3e-3" fill="#fff"/></g><g id="g128" transform="translate(37.561 149.22)"><path id="path130" d="m0 0c0 0.818 0.663 1.481 1.481 1.481l2.864 2e-3v-6.688l-1.947 1e-3v4.751c-0.458-5e-3 -0.459-0.462-0.459-0.462v-5.67l-1.937 2e-3 -2e-3 6.583" fill="#fff"/></g><g id="g132" transform="translate(37.094 137.97)"><path id="path134" d="m0 0c0 1.073 0.875 1.948 1.948 1.948h6.19c1.072 0 1.943-0.869 1.943-1.943l1e-3 -6.402h1.948l1e-3 6.417c0 2.151-1.744 3.893-3.893 3.893h-6.19c-2.15 0-3.893-1.757-3.893-3.908l-2e-3 -6.402h9.165v5.503h-1.943v-3.558h-5.276l1e-3 4.452" fill="#fff"/></g><g id="g136" transform="translate(39.042 139.46)"><path id="path138" d="m0 0c-0.82 0-1.495-0.665-1.495-1.485v-3.998h4.363v3.094h-1.949v-1.148l-0.459-5e-3 2e-3 1.142c0 0.252 0.205 0.457 0.457 0.457l4.354 7e-3s0.454 2e-3 0.463-0.459v-5.497l1.943 5e-3 -5e-3 6.402c0 0.82-0.664 1.485-1.484 1.485h-6.19" fill="#fff"/></g><g id="g140" transform="translate(46.748 125.56)"><path id="path142" d="m0 0c0.248-0.086 0.426-0.322 0.426-0.599s-0.179-0.513-0.427-0.599l-9.211-3.105v4.548l2.166-5e-3v-1.521l2.04 0.686-6.595 2.229v2.296l11.601-3.93" fill="#fff"/></g><g id="g144" transform="translate(37.093 120.63)"><path id="path146" d="m0 0v5.169h-1.945v-7.869l12.147 4.093c1.185 0.358 2.054 1.539 2.054 2.941 0 1.4-0.869 2.581-2.052 2.94l-12.149 4.131v-2.061l11.811-4.007c0.391-0.164 0.665-0.549 0.665-1 0-0.449-0.272-0.834-0.662-0.999l-9.869-3.338" fill="#fff"/></g><g id="g148" transform="translate(0 285.73)"><path id="path150" d="m0 0v1.47h125.93v-1.47h-125.93z"/></g><g id="g152" transform="translate(125.93 160.96)"><path id="path154" d="m0 0h-39.899c-0.232 0-0.42 0.186-0.42 0.416v0.53c0 0.229 0.188 0.415 0.42 0.415h39.899"/></g><g id="g156" transform="translate(85.607)"><path id="path158" d="m0 0v161.9c0 0.232 0.186 0.42 0.416 0.42h0.53c0.229 0 0.415-0.188 0.415-0.42v-161.9"/></g><g id="g160" transform="translate(12.973)"><path id="path162" d="m0 0v161.9c0 0.232 0.186 0.42 0.416 0.42h0.53c0.229 0 0.415-0.188 0.415-0.42v-161.9"/></g><g id="g164" transform="translate(0 162.32)"><path id="path166" d="m0 0h13.914c0.232 0 0.42-0.186 0.42-0.416v-0.53c0-0.229-0.188-0.415-0.42-0.415h-13.914"/></g></g></g></g></svg>
