<?xml version="1.0" encoding="UTF-8"?>
<!-- Created with Inkscape (http://www.inkscape.org/) -->
<svg id="svg2" width="215.89" height="316.09" version="1.1" viewBox="0 0 215.89 316.09" xml:space="preserve" xmlns="http://www.w3.org/2000/svg" xmlns:cc="http://creativecommons.org/ns#" xmlns:dc="http://purl.org/dc/elements/1.1/" xmlns:rdf="http://www.w3.org/1999/02/22-rdf-syntax-ns#"><metadata id="metadata8"><rdf:RDF><cc:Work rdf:about=""><dc:format>image/svg+xml</dc:format><dc:type rdf:resource="http://purl.org/dc/dcmitype/StillImage"/><dc:title/></cc:Work></rdf:RDF></metadata><defs id="defs6"><clipPath id="clipPath16"><path id="path18" d="m0 186.67h274v-186.67h-274v186.67z"/></clipPath></defs><g id="g10" transform="matrix(1.25 0 0 -1.25 -64.955 275.56)"><g id="g12" transform="matrix(0 -1 1 0 44.314 232.33)"><g id="g14" clip-path="url(#clipPath16)"><g id="g20" transform="translate(200.33 7.6503)"><path id="path22" d="m0 0h-123.76c-42.109 3.803-63.139 37.722-64.637 76.413-1.799 46.484 56.787 96.302 126.4 96.302s128.2-49.818 126.4-96.302c-1.498-38.691-22.528-72.61-64.637-76.413" fill="#242d32"/></g><g id="g24" transform="translate(138.32 169.11)"><path id="path26" d="m0 0c-52.137 0-113.74-51.541-112.4-86.357 1.122-28.98 16.307-54.909 47.847-57.757h129.1c31.54 2.848 46.725 28.777 47.847 57.757 1.347 34.816-60.259 86.357-112.4 86.357" fill="#42494c"/></g><g id="g28" transform="translate(121.1 87.585)"><path id="path30" d="m0 0c-17.693-1e-3 -31.784 6.318-35.97 17.819-4.258 11.697 2.692 26.434 18.136 38.461l1.229-1.578c-14.736-11.475-21.436-25.347-17.486-36.199 6.077-16.695 34.94-21.571 64.338-10.874 29.399 10.701 48.373 32.99 42.297 49.686-2.908 7.989-11.133 13.546-23.159 15.649-12.226 2.137-26.849 0.441-41.18-4.775l-0.684 1.879c14.654 5.335 29.643 7.062 42.208 4.866 12.761-2.231 21.532-8.246 24.694-16.935 6.454-17.732-13.057-41.171-43.492-52.249-10.697-3.894-21.343-5.749-30.931-5.75" fill="#6d7779"/></g><g id="g32" transform="translate(156.48 120.19)"><path id="path34" d="M 0,0 0,6.673 -6.281,3.337 0,0 Z" fill="#c66a56"/></g><g id="g36" transform="translate(162.76 120.34)"><path id="path38" d="M 0,0 0,6.673 -6.281,3.337 0,0 Z" fill="#c66a56"/></g><g id="g40" transform="translate(50.254 47.71)"><path id="path42" d="m0 0-13.984 13.984v19.777l13.984 13.984h19.777l13.984-13.984v-19.777l-13.984-13.984h-19.777z" fill="#f86745"/></g><g id="g44" transform="translate(66.424 71.881)"><path id="path46" d="m0 0c0-3.469-2.812-6.281-6.281-6.281-3.468 0-6.28 2.812-6.28 6.281s2.812 6.281 6.28 6.281c3.469 0 6.281-2.812 6.281-6.281" fill="#c66a56"/></g><g id="g48" transform="translate(47.606 66.807)"><path id="path50" d="M 0,0 0,10.147 -9.55,5.073 0,0 Z" fill="#c66a56"/></g><g id="g52" transform="translate(72.68 76.954)"><path id="path54" d="M 0,0 0,-10.147 9.55,-5.073 0,0 Z" fill="#c66a56"/></g><g id="g56" transform="translate(65.216 59.045)"><path id="path58" d="M 0,0 -10.147,0 -5.073,-9.55 0,0 Z" fill="#c66a56"/></g><g id="g60" transform="translate(55.07 84.12)"><path id="path62" d="M 0,0 10.147,0 5.073,9.55 0,0 Z" fill="#c66a56"/></g><g id="g64" transform="translate(210.41 71.591)"><path id="path66" d="m0 0c0-6.937-5.624-12.561-12.561-12.561s-12.561 5.624-12.561 12.561 5.624 12.561 12.561 12.561 12.561-5.624 12.561-12.561" fill="#f86745"/></g><g id="g68" transform="translate(246.98 72.474)"><path id="path70" d="m0 0c0-6.937-5.624-12.561-12.561-12.561s-12.561 5.624-12.561 12.561 5.624 12.561 12.561 12.561 12.561-5.624 12.561-12.561" fill="#f86745"/></g><path id="path72" d="m237.38 100.69h-21.303v8.628h21.303v-8.628z" fill="#405762"/><g id="g74" transform="translate(235.7 108.1)"><path id="path76" d="m0 0-2.025-2.958 2.203-3.232h-2.035l-1.21 1.73-1.22-1.734h-2.021c0.055 0.114 2.212 3.236 2.212 3.236l-0.92 1.279-3.9-4e-3c-0.182-0.015-0.405 0.041-0.496-0.165-0.032-0.068-0.046-0.168-9e-3 -0.236 0.031-0.078 0.104-0.15 0.186-0.173l0.123-9e-3h1.561c0.724-0.018 1.393-0.469 1.707-1.12 0.278-0.546 0.237-1.292-0.073-1.811-0.391-0.66-1.088-1.029-1.843-1.002h-4.342s-0.665 2.399-0.669 2.403l-0.67-2.403h-1.583l-0.637 2.413-0.697-2.408h-1.752s1.611 5.798 1.716 6.181h1.479l0.697-2.585 0.71 2.585h1.451l1.243-4.502h2.895c0.199 0.01 0.477-0.045 0.559 0.201 0.032 0.109 5e-3 0.223-0.072 0.3-0.073 0.064-0.164 0.082-0.26 0.082h-1.556c-0.738 0.023-1.47 0.505-1.743 1.215-0.296 0.71-0.123 1.562 0.418 2.111 0.382 0.384 0.837 0.575 1.37 0.597l5.107 5e-3 1.029-1.484 1.064 1.488h2.003z" fill="#fff"/></g><g id="g78" transform="translate(114.81 41.569)"><path id="path80" d="m0 0c0.446 0.011 0.95 0.035 1.27 0.362 0.091 0.096 0.24 0.289 0.24 0.604-0.011 0.312-0.149 0.506-0.229 0.603-0.389 0.422-1.018 0.374-1.533 0.374h-0.743v-1.943h0.995m-3.718-4.841v9.057h3.798c1.281-0.014 2.517-0.081 3.375-1.233 0.24-0.325 0.572-0.923 0.572-1.925 0-1.26-0.549-2.019-0.927-2.373-0.675-0.676-1.578-0.744-2.471-0.786h-1.659v-2.74h-2.688z" fill="#c66a56"/></g><g id="g82" transform="translate(122.96 39.626)"><path id="path84" d="m0 0c-0.332-0.116-0.675-0.219-1.018-0.334l-0.252-0.077c-0.126-0.025-0.515-0.11-0.515-0.597 0-0.218 0.126-0.615 0.629-0.615 0.069 0 0.378 0.029 0.538 0.081 0.458 0.128 0.492 0.425 0.618 0.555v0.987m0.24-2.908-0.103 0.603c-0.343-0.269-0.972-0.795-2.105-0.795-0.194 0-1.041 0.026-1.624 0.512-0.252 0.219-0.687 0.745-0.687 1.616 0 0.205 0.057 0.556 0.389 0.991 0.469 0.629 1.03 0.799 1.751 0.967l1.212 0.151c0.138 0.039 0.286 0.077 0.446 0.102 0.035 0.014 0.229 0.04 0.332 0.117 0.103 0.076 0.183 0.372 0.183 0.513 0 0.257-0.331 0.466-0.846 0.466-0.458 0-0.675-0.166-0.79-0.333-0.057-0.089-0.08-0.166-0.091-0.372l-2.3 0.014c0.103 0.525 0.206 0.948 0.584 1.384 0.469 0.527 1.212 0.86 2.665 0.86 0.275 0 1.396 0.115 2.22-0.436 0.332-0.219 0.549-0.476 0.698-0.822 0.251-0.539 0.183-1.191 0.183-1.756v-1.808c-0.012-1.128 0.068-1.332 0.274-1.974h-2.391z" fill="#c66a56"/></g><g id="g86" transform="translate(130.12 36.711)"><path id="path88" d="m0 0v3.208c0-0.382 0.103 1.253-0.24 1.414-0.115 0.056-0.332 0.167-0.595 0.161-0.298-5e-3 -0.629-0.149-0.744-0.414-0.126-0.322-0.171-0.619-0.16-1.29v-3.081h-2.471v6.64h2.334l0.034-0.771c0.32 0.392 0.698 0.899 2.071 0.899 1.007 0 1.773-0.351 2.082-1.371 0.069-0.257 0.103-0.506 0.126-1.035v-4.36h-2.437" fill="#c66a56"/></g><g id="g90" transform="translate(143.85 41.43)"><path id="path92" d="m0 0c-0.046 0.253-0.229 0.672-0.858 0.672-0.275 0-0.481-0.075-0.584-0.139-0.057-0.024-0.148-0.19-0.148-0.38 0-0.05 0.045-0.201 0.194-0.29 0.092-0.052 0.309-0.115 0.561-0.143l0.972-0.253c0.687-0.174 1.282-0.296 1.762-0.777 0.24-0.228 0.366-0.523 0.401-0.643 0.114-0.343 0.057-0.612 0.057-0.726 0-0.783-0.378-1.254-0.595-1.457-0.469-0.43-1.213-0.755-2.574-0.755-1.133 0-1.842 0.298-2.266 0.543-0.903 0.524-0.949 1.489-1.006 1.792l2.356 8e-3c0.023-0.228 0.058-0.398 0.241-0.562 0.148-0.139 0.309-0.235 0.732-0.235 0.503 0 0.789 0.242 0.801 0.463 0.011 0.026 0.011 0.204-0.057 0.292-0.115 0.19-0.424 0.27-0.87 0.384 0 0-1.373 0.295-1.476 0.345-0.309 0.141-1.556 0.422-1.556 1.813 0 0.783 0.401 1.2 0.629 1.415 0.424 0.367 1.122 0.708 2.369 0.708 0.274 0 1.441 0.013 2.311-0.582 0.24-0.164 0.435-0.366 0.583-0.606 0.206-0.341 0.241-0.749 0.263-0.887h-2.242" fill="#c66a56"/></g><g id="g94" transform="translate(150.52 41.48)"><path id="path96" d="m0 0c-0.217 0.204-0.549 0.245-0.664 0.245-0.286 0-0.492-0.166-0.56-0.216-0.298-0.242-0.515-0.609-0.515-1.434 0-0.647 0.149-1.731 1.064-1.731 0.263 0 0.515 0.069 0.675 0.259 0.217 0.241 0.446 0.677 0.435 1.439 0 0.038 0.011 0.982-0.435 1.438m1.831-4.009c-0.401-0.406-1.225-0.939-2.586-0.939-0.435 0-1.636 0.025-2.517 1.066-0.366 0.444-0.812 1.181-0.812 2.502 0 0.229 0 0.75 0.217 1.321 0.492 1.447 1.831 2.107 3.238 2.094 0.377 0 1.556-0.037 2.402-0.901 0.424-0.432 0.961-1.219 0.95-2.616 0-0.342-0.023-1.638-0.892-2.527" fill="#c66a56"/></g><path id="path98" d="m160.74 45.844h2.425v-1.736h-2.425v1.736zm0-2.473h2.425v-6.671h-2.425v6.671z" fill="#c66a56"/><g id="g100" transform="translate(167.83 40.819)"><path id="path102" d="m0 0c-0.183 0.801-0.572 0.841-1.007 0.841-0.354 0-0.469-0.12-0.583-0.22-0.309-0.263-0.412-0.589-0.412-1.402 0-0.062-0.034-1.149 0.56-1.562 0.172-0.113 0.252-0.12 0.458-0.12 0.069 0 0.275-7e-3 0.458 0.08 0.24 0.112 0.492 0.318 0.537 0.882l2.346 0.019c-0.023-0.151-0.115-0.683-0.343-1.121-0.584-1.163-1.774-1.648-2.975-1.648-0.492 0-0.835 0.074-1.041 0.112-0.95 0.238-1.785 0.901-2.151 1.852-0.103 0.287-0.24 0.725-0.24 1.452 0 0.3 0.011 1.075 0.434 1.851 0.058 0.125 0.252 0.438 0.527 0.725 0.892 0.877 2.219 0.902 2.54 0.902 1.235 0 2.002-0.464 2.379-0.814 0.115-0.113 0.344-0.415 0.527-0.828 0.148-0.337 0.228-0.638 0.286-1.001h-2.3" fill="#c66a56"/></g><g id="g104" transform="translate(136.5 38.045)"><path id="path106" d="m0 0c-0.16-0.051-0.435-0.04-0.503-0.037-0.412 0.028-0.63 0.403-0.63 0.622 0 0.487 0.389 0.566 0.515 0.591l0.263 0.073c0.332 0.116 0.675 0.213 1.007 0.329l0.012-0.848c-0.103-0.191-0.218-0.602-0.664-0.73m3.032 0.612v1.804c0 0.564 0 1.323-0.24 1.861-0.161 0.346-0.275 0.538-0.607 0.756-0.824 0.551-2.036 0.447-2.311 0.447-1.453 0-2.196-0.383-2.666-0.909-0.377-0.436-0.457-0.863-0.56-1.389h2.299c0.012 0.206 0.046 0.282 0.092 0.373 0.126 0.166 0.309 0.375 0.767 0.375 0.514 0 0.846-0.262 0.846-0.518 0-0.141-0.011-0.371-0.114-0.448s-0.366-0.169-0.412-0.182c-0.115-0.019-0.263-0.053-0.446-0.101l-1.202-0.153c-0.72-0.167-1.281-0.313-1.75-0.941-0.343-0.436-0.343-0.834-0.343-1.039 0-0.872 0.377-1.375 0.629-1.594 0.583-0.486 1.419-0.468 1.625-0.468 1.132 0 1.727 0.498 2.082 0.767l0.103-0.629h2.482c-0.137 0.436-0.286 0.663-0.274 1.988" fill="#c66a56"/></g><g id="g108" transform="translate(157.81 36.724)"><path id="path110" d="m0 0v3.229c0-0.383 0.114 1.232-0.229 1.394-0.114 0.054-0.332 0.166-0.583 0.16-0.298-5e-3 -0.641-0.149-0.744-0.414-0.137-0.322-0.206-0.542-0.194-1.212l-0.023-3.17-2.414 0.011v6.64h2.322l0.034-0.771c0.321 0.392 0.698 0.899 2.083 0.899 0.995 0 1.762-0.423 2.07-1.443 0.069-0.257 0.081-0.425 0.115-0.954v-4.371l-2.437 2e-3" fill="#c66a56"/></g><path id="path112" d="m173.13 110.76h-66.338v3.664h66.338v-3.664z" fill="#5e676a"/><g id="g114" transform="translate(171.29 110.76)"><path id="path116" d="m0 0h-9.22c-1.007 0-1.831 0.824-1.831 1.832 0 1.007 0.824 1.832 1.831 1.832h9.22c1.008 0 1.832-0.825 1.832-1.832 0-1.008-0.824-1.832-1.832-1.832" fill="#231f20"/></g><path id="path118" d="m173.13 130.78h-66.338v3.664h66.338v-3.664z" fill="#5e676a"/><g id="g120" transform="translate(124.06 130.78)"><path id="path122" d="m0 0h-9.22c-1.007 0-1.831 0.824-1.831 1.832 0 1.007 0.824 1.832 1.831 1.832h9.22c1.008 0 1.832-0.825 1.832-1.832 0-1.008-0.824-1.832-1.832-1.832" fill="#231f20"/></g><g id="g124" transform="translate(117.88 120.34)"><path id="path126" d="M 0,0 0,6.673 -6.281,3.337 0,0 Z" fill="#c66a56"/></g><g id="g128" transform="translate(169.04 120.34)"><path id="path130" d="M 0,0 0,6.673 -6.281,3.337 0,0 Z" fill="#c66a56"/></g><g id="g132" transform="translate(100 150.32)"><path id="path134" d="m0 0h2.018c0.782 0 1.357 0.098 1.723 0.295 0.366 0.196 0.66 0.496 0.881 0.899s0.331 0.83 0.331 1.282c0 0.349-0.058 0.634-0.175 0.856-0.117 0.221-0.281 0.383-0.494 0.487-0.212 0.105-0.62 0.158-1.223 0.158h-2.349l-0.712-3.977zm-2.218-5.543 1.918 10.678h3.822c0.663 0 1.16-0.089 1.491-0.267 0.331-0.177 0.604-0.48 0.821-0.91 0.216-0.43 0.324-0.911 0.324-1.445 0-0.443-0.077-0.892-0.23-1.348-0.155-0.456-0.35-0.833-0.584-1.129-0.236-0.296-0.474-0.519-0.716-0.67-0.241-0.15-0.499-0.262-0.774-0.335-0.587-0.16-1.181-0.24-1.781-0.24h-2.292l-0.774-4.334h-1.225z" fill="#c66a56"/></g><g id="g136" transform="translate(108.14 149.18)"><path id="path138" d="m0 0c0-0.627 0.111-1.202 0.334-1.727 0.223-0.524 0.555-0.934 0.996-1.23 0.441-0.297 0.905-0.444 1.393-0.444 0.47 0 0.919 0.13 1.343 0.389 0.425 0.26 0.805 0.621 1.14 1.085s0.6 1.034 0.794 1.712c0.194 0.677 0.291 1.344 0.291 1.999 0 1.064-0.256 1.91-0.767 2.542-0.509 0.631-1.139 0.946-1.889 0.946-0.958 0-1.803-0.476-2.536-1.43s-1.099-2.236-1.099-3.842m-1.206 0.072c0 1.904 0.472 3.445 1.415 4.621 0.943 1.178 2.087 1.767 3.433 1.767 1.14 0 2.07-0.434 2.789-1.3 0.718-0.867 1.077-2.028 1.077-3.485 0-1.039-0.181-2.003-0.543-2.892-0.271-0.665-0.612-1.239-1.024-1.722-0.414-0.483-0.855-0.856-1.326-1.118-0.624-0.349-1.286-0.524-1.986-0.524-0.733 0-1.4 0.203-2.002 0.611s-1.058 0.978-1.367 1.708c-0.311 0.731-0.466 1.509-0.466 2.334" fill="#c66a56"/></g><g id="g140" transform="translate(117.88 144.78)"><path id="path142" d="m0 0-0.562 10.678h1.243l0.213-5.282c0.012-0.251 0.033-0.936 0.062-2.053 8e-3 -0.311 0.013-0.53 0.013-0.655 0-0.084-3e-3 -0.324-7e-3 -0.721 0.508 1.214 0.875 2.068 1.1 2.563l2.786 6.148h1.261l0.306-6.242c0.033-0.714 0.057-1.574 0.069-2.579 0.075 0.247 0.208 0.617 0.4 1.107 0.303 0.792 0.528 1.357 0.675 1.697l2.61 6.017h1.25l-4.66-10.678h-1.312l-0.306 6.468c-0.03 0.553-0.052 1.233-0.069 2.039-0.254-0.675-0.467-1.199-0.636-1.573l-3.174-6.934h-1.262z" fill="#c66a56"/></g><g id="g144" transform="translate(128.37 144.78)"><path id="path146" d="m0 0 1.918 10.678h6.608l-0.217-1.217h-5.385l-0.6-3.321h5.247l-0.218-1.216h-5.248l-0.662-3.715h5.766l-0.219-1.209h-6.99z" fill="#c66a56"/></g><g id="g148" transform="translate(139.21 150.68)"><path id="path150" d="m0 0h1.692c0.784 0 1.293 0.012 1.531 0.036 0.463 0.054 0.841 0.175 1.136 0.364 0.296 0.19 0.526 0.445 0.688 0.765 0.162 0.321 0.243 0.666 0.243 1.034 0 0.312-0.06 0.582-0.181 0.813-0.121 0.23-0.279 0.386-0.474 0.469-0.197 0.083-0.53 0.124-1 0.124h-2.986l-0.649-3.605zm-2.28-5.899 1.918 10.677h3.841c0.758 0 1.333-0.074 1.724-0.222 0.392-0.149 0.698-0.426 0.921-0.834s0.335-0.923 0.335-1.544c0-0.869-0.244-1.59-0.731-2.163-0.488-0.574-1.275-0.945-2.362-1.115 0.333-0.287 0.585-0.568 0.756-0.844 0.384-0.627 0.691-1.275 0.925-1.946l0.699-2.009h-1.367l-0.656 1.988c-0.238 0.719-0.508 1.34-0.813 1.864-0.208 0.364-0.42 0.604-0.637 0.718-0.216 0.114-0.568 0.171-1.055 0.171h-1.424l-0.85-4.741h-1.224z" fill="#c66a56"/></g><g id="g152" transform="translate(151.89 150.32)"><path id="path154" d="m0 0h2.018c0.782 0 1.357 0.098 1.723 0.295 0.366 0.196 0.66 0.496 0.881 0.899s0.331 0.83 0.331 1.282c0 0.349-0.058 0.634-0.175 0.856-0.117 0.221-0.281 0.383-0.494 0.487-0.212 0.105-0.62 0.158-1.223 0.158h-2.349l-0.712-3.977zm-2.218-5.543 1.918 10.678h3.822c0.663 0 1.16-0.089 1.491-0.267 0.331-0.177 0.604-0.48 0.821-0.91 0.216-0.43 0.324-0.911 0.324-1.445 0-0.443-0.077-0.892-0.23-1.348-0.155-0.456-0.35-0.833-0.584-1.129-0.236-0.296-0.474-0.519-0.716-0.67-0.241-0.15-0.499-0.262-0.774-0.335-0.587-0.16-1.181-0.24-1.781-0.24h-2.292l-0.774-4.334h-1.225z" fill="#c66a56"/></g><g id="g156" transform="translate(159.78 148.95)"><path id="path158" d="m0 0h3.03l-0.356 2.68c-0.138 1.063-0.223 1.949-0.256 2.658-0.209-0.611-0.513-1.338-0.912-2.178l-1.506-3.16zm-3.335-4.174 5.19 10.678h1.444l1.512-10.678h-1.188l-0.443 3.073h-3.704l-1.468-3.073h-1.343z" fill="#c66a56"/></g><g id="g160" transform="translate(167.25 145.98)"><path id="path162" d="m0 0h1.449c0.654 0 1.235 0.07 1.742 0.211 0.317 0.088 0.587 0.217 0.813 0.387 0.295 0.217 0.563 0.506 0.806 0.866 0.316 0.475 0.569 1.018 0.758 1.628 0.19 0.609 0.285 1.303 0.285 2.079 0 0.864-0.129 1.528-0.388 1.992-0.258 0.464-0.587 0.771-0.986 0.922-0.296 0.111-0.756 0.167-1.381 0.167h-1.618l-1.48-8.252zm-1.443-1.209 1.911 10.678h2.761c0.663 0 1.168-0.057 1.518-0.168 0.5-0.151 0.927-0.419 1.28-0.805 0.354-0.386 0.62-0.868 0.8-1.445 0.179-0.578 0.269-1.227 0.269-1.946 0-0.859-0.112-1.642-0.334-2.348-0.224-0.706-0.515-1.328-0.875-1.864-0.361-0.538-0.738-0.957-1.131-1.261-0.394-0.303-0.859-0.528-1.396-0.673-0.408-0.112-0.91-0.168-1.506-0.168h-3.297z" fill="#c66a56"/></g><g id="g164" transform="translate(196.11 92.62)"><path id="path166" d="m0 0v-1.804h1.26c0.491 0 0.803 0.015 0.934 0.042 0.202 0.037 0.368 0.126 0.494 0.269 0.127 0.142 0.192 0.334 0.192 0.573 0 0.202-0.05 0.374-0.148 0.515s-0.24 0.244-0.425 0.308c-0.186 0.065-0.588 0.097-1.207 0.097h-1.1zm0 2.682v-1.56h0.893c0.53 0 0.86 8e-3 0.988 0.024 0.233 0.027 0.417 0.108 0.55 0.241 0.133 0.134 0.2 0.308 0.2 0.526 0 0.209-0.058 0.378-0.172 0.509-0.115 0.13-0.286 0.209-0.514 0.237-0.134 0.015-0.522 0.023-1.163 0.023h-0.782zm-1.361 1.122h2.695c0.533 0 0.932-0.022 1.193-0.067 0.263-0.044 0.497-0.136 0.704-0.278 0.207-0.141 0.38-0.329 0.518-0.563 0.138-0.235 0.207-0.498 0.207-0.79 0-0.315-0.085-0.605-0.256-0.869-0.17-0.263-0.4-0.462-0.692-0.593 0.411-0.12 0.727-0.324 0.948-0.612s0.331-0.627 0.331-1.016c0-0.307-0.071-0.605-0.214-0.895-0.142-0.29-0.338-0.521-0.584-0.695-0.247-0.173-0.551-0.28-0.913-0.32-0.227-0.024-0.774-0.04-1.642-0.045h-2.295v6.743z" fill="#c66a56"/></g><g id="g168" transform="translate(100.86 112.91)"><path id="path170" d="m0 0v-1.804h1.26c0.491 0 0.803 0.015 0.934 0.042 0.202 0.037 0.368 0.126 0.494 0.269 0.127 0.142 0.192 0.334 0.192 0.573 0 0.202-0.05 0.374-0.148 0.515s-0.24 0.244-0.425 0.308c-0.186 0.065-0.588 0.097-1.207 0.097h-1.1zm0 2.682v-1.56h0.893c0.53 0 0.86 8e-3 0.988 0.024 0.233 0.027 0.417 0.108 0.55 0.241 0.133 0.134 0.2 0.308 0.2 0.526 0 0.209-0.058 0.378-0.172 0.509-0.115 0.13-0.286 0.209-0.514 0.237-0.134 0.015-0.522 0.023-1.163 0.023h-0.782zm-1.361 1.122h2.695c0.533 0 0.932-0.022 1.193-0.067 0.263-0.044 0.497-0.136 0.704-0.278 0.207-0.141 0.38-0.329 0.518-0.563 0.138-0.235 0.207-0.498 0.207-0.79 0-0.315-0.085-0.605-0.256-0.869-0.17-0.263-0.4-0.462-0.692-0.593 0.411-0.12 0.727-0.324 0.948-0.612s0.331-0.627 0.331-1.016c0-0.307-0.071-0.605-0.214-0.895-0.142-0.29-0.338-0.521-0.584-0.695-0.247-0.173-0.551-0.28-0.913-0.32-0.227-0.024-0.774-0.04-1.642-0.045h-2.295v6.743z" fill="#c66a56"/></g><g id="g172" transform="translate(235.48 92.871)"><path id="path174" d="m0 0-0.93 2.503-0.91-2.503h1.84zm2.507-2.668h-1.482l-0.588 1.532h-2.696l-0.556-1.532h-1.445l2.627 6.743h1.44l2.7-6.743z" fill="#c66a56"/></g><g id="g176" transform="translate(103.07 131.48)"><path id="path178" d="m0 0-0.93 2.503-0.91-2.503h1.84zm2.507-2.668h-1.482l-0.588 1.532h-2.696l-0.556-1.532h-1.445l2.627 6.743h1.44l2.7-6.743z" fill="#c66a56"/></g><path id="path180" d="m148.72 123.21h-29.767v1h29.767v-1z" fill="#c66a56"/><path id="path182" d="m47.605 81.042h-11.353v0.875h11.353v-0.875z" fill="#c66a56"/><path id="path184" d="m50.71 84.102h-0.875v11.353h0.875v-11.353z" fill="#c66a56"/><g id="g186" transform="translate(50.71 84.109)"><path id="path188" d="M 0,0 -3.067,-3.067 -3.686,-2.448 -0.619,0.619 0,0 Z" fill="#c66a56"/></g><path id="path190" d="m50.683 47.728h-0.875v11.353h0.875v-11.353z" fill="#c66a56"/><path id="path192" d="m36.27 62.185h11.353v-0.875h-11.353v0.875z" fill="#c66a56"/><g id="g194" transform="translate(47.616 62.185)"><path id="path196" d="M 0,0 3.067,-3.067 2.448,-3.686 -0.619,-0.619 0,0 Z" fill="#c66a56"/></g><path id="path198" d="m72.662 81.033h11.353v0.875h-11.353v-0.875z" fill="#c66a56"/><path id="path200" d="m69.558 84.093h0.875v11.353h-0.875v-11.353z" fill="#c66a56"/><g id="g202" transform="translate(69.558 84.1)"><path id="path204" d="M 0,0 3.067,-3.067 3.686,-2.448 0.619,0.619 0,0 Z" fill="#c66a56"/></g><path id="path206" d="m69.584 47.719h0.875v11.353h-0.875v-11.353z" fill="#c66a56"/><path id="path208" d="m83.997 62.176h-11.353v-0.875h11.353v0.875z" fill="#c66a56"/><g id="g210" transform="translate(72.651 62.176)"><path id="path212" d="M 0,0 -3.067,-3.067 -2.448,-3.686 0.619,-0.619 0,0 Z" fill="#c66a56"/></g></g></g></g></svg>
