<?xml version="1.0" encoding="UTF-8"?>
<svg id="svg2" width="441.06" height="457.59" version="1.1" viewBox="0 0 441.06 457.59" xml:space="preserve" xmlns="http://www.w3.org/2000/svg" xmlns:cc="http://creativecommons.org/ns#" xmlns:dc="http://purl.org/dc/elements/1.1/" xmlns:rdf="http://www.w3.org/1999/02/22-rdf-syntax-ns#"><metadata id="metadata8"><rdf:RDF><cc:Work rdf:about=""><dc:format>image/svg+xml</dc:format><dc:type rdf:resource="http://purl.org/dc/dcmitype/StillImage"/><dc:title/></cc:Work></rdf:RDF></metadata><defs id="defs6"><clipPath id="clipPath16"><path id="path18" d="m0 366.07h352.84v-366.07h-352.84v366.07z"/></clipPath></defs><g id="g10" transform="matrix(1.25 0 0 -1.25 0 457.59)"><g id="g12"><g id="g14" clip-path="url(#clipPath16)"><g id="g20" transform="translate(293.84 36.355)"><path id="path22" d="m0 0h12.5s26 39 26 147.75-26 147.75-26 147.75h-12.5" fill="#515151"/></g><g id="g24" transform="translate(238.01 357.69)"><path id="path26" d="m0 0c-23.332 4.998-63.715 10.999-111.33 5.999-38.535-4.046-51.408-21.029-51.582-30.583-0.314-17.259 43.146-29.602 68.25-34.751 39-8 49-7.333 49-7.333l45.666 66.668z" fill="#a3a3a3"/></g><g id="g28" transform="translate(238.01 357.69)"><path id="path30" d="m0 0c-23.332 4.998-63.715 10.999-111.33 5.999-38.535-4.046-51.408-21.029-51.582-30.583-0.314-17.259 43.146-29.602 68.25-34.751 39-8 49-7.333 49-7.333l45.666 66.668z" fill="none" stroke="#a3a3a3" stroke-linecap="round" stroke-linejoin="round" stroke-miterlimit="10"/></g><g id="g32" transform="translate(238.01 8.3798)"><path id="path34" d="m0 0c-23.333-4.998-63.715-10.999-111.33-5.999-38.536 4.046-51.409 21.029-51.583 30.583-0.314 17.259 43.147 29.601 68.25 34.751 39 8 49 7.333 49 7.333l45.667-66.668z" fill="#a3a3a3"/></g><g id="g36" transform="translate(238.01 8.3798)"><path id="path38" d="m0 0c-23.333-4.998-63.715-10.999-111.33-5.999-38.536 4.046-51.409 21.029-51.583 30.583-0.314 17.259 43.147 29.601 68.25 34.751 39 8 49 7.333 49 7.333l45.667-66.668z" fill="none" stroke="#a3a3a3" stroke-linecap="round" stroke-linejoin="round" stroke-miterlimit="10"/></g><g id="g40" transform="translate(.0109 183.16)"><path id="path42" d="m0 0c-1-27 67.001-40.198 126.67-49.864 56.959-9.228 53-14 60-48.667 3.808-18.856-2.001-76.667 62.333-77s71.333 95.333 71.333 95.333l17.5 9s15 38.198 15 71.198-15 71.197-15 71.197l-17.5 9s-7 95.666-71.334 95.333-58.525-58.144-62.332-77c-7-34.667-3.041-39.439-60-48.667-59.667-9.666-127.67-22.863-126.67-49.863" fill="#b2b2b2"/></g><g id="g44" transform="translate(246.34 264.11)"><path id="path46" d="m 0,0 c -19.969,0 -36.154,16.187 -36.154,36.154 0,19.968 16.185,36.155 36.154,36.155 19.967,0 36.154,-16.187 36.154,-36.155 C 36.154,16.187 19.967,0 0,0" fill="#a3a3a3"/></g><g id="g48" transform="translate(246.34 264.11)"><path id="path50" d="m0 0c-19.969 0-36.154 16.187-36.154 36.154 0 19.968 16.185 36.155 36.154 36.155 19.967 0 36.154-16.187 36.154-36.155 0-19.967-16.187-36.154-36.154-36.154z" fill="none" stroke="#a3a3a3" stroke-linecap="round" stroke-linejoin="round" stroke-miterlimit="10"/></g><g id="g52" transform="translate(218.35 293.61)"><path id="path54" d="m0 0v12.485c0 1.379 1.121 2.5 2.498 2.5h16.961v16.553c0 1.375 1.123 2.497 2.5 2.497h12.484c1.379 0 2.498-1.119 2.498-2.497v-16.553h16.553c1.381 0 2.5-1.121 2.5-2.5v-12.485c0-1.377-1.119-2.497-2.5-2.497h-16.553v-15.74c0-1.378-1.119-2.497-2.498-2.497h-12.484c-1.377 0-2.496 1.119-2.496 2.497v15.74h-16.963c-1.379 0-2.5 1.12-2.5 2.497" fill="#515151"/></g><g id="g56" transform="translate(239.85 166.33)"><path id="path58" d="m 0,0 c -9.864,0 -17.861,7.997 -17.861,17.861 0,9.865 7.997,17.862 17.86,17.862 9.865,0 17.861,-7.997 17.861,-17.862 C 17.86,7.997 9.864,0 0,0" fill="#a3a3a3"/></g><g id="g60" transform="translate(239.85 166.33)"><path id="path62" d="m0 0c-9.864 0-17.861 7.997-17.861 17.861 0 9.865 7.997 17.862 17.86 17.862 9.865 0 17.861-7.997 17.861-17.862 0-9.864-7.996-17.861-17.86-17.861z" fill="none" stroke="#a3a3a3" stroke-linecap="round" stroke-linejoin="round" stroke-miterlimit="10"/></g><g id="g64" transform="translate(164.37 144.83)"><path id="path66" d="m0 0c-21.738 0-39.361 17.623-39.361 39.361 0 21.739 17.623 39.362 39.361 39.362s39.361-17.623 39.361-39.362c0-21.738-17.623-39.361-39.361-39.361" fill="#515151"/></g><g id="g68" transform="translate(226.05 100.14)"><path id="path70" d="M 0,0 -2.23,2.309 6.186,10.439 8.417,8.13 0,0 Z" fill="#a3a3a3"/></g><g id="g72" transform="translate(264.51 36.78)"><path id="path74" d="m0 0c-14.634 0-26.499 11.865-26.499 26.5s11.865 26.5 26.499 26.5c14.636 0 26.5-11.865 26.5-26.5s-11.864-26.5-26.5-26.5" fill="#a3a3a3"/></g><g id="g76" transform="translate(264.51 37.78)"><path id="path78" d="m0 0c-14.082 0-25.499 11.417-25.499 25.5s11.417 25.5 25.499 25.5c14.084 0 25.5-11.417 25.5-25.5s-11.416-25.5-25.5-25.5" fill="#afafaf"/></g><g id="g80" transform="translate(246.34 294.44)"><path id="path82" d="m0 0c-3.215 0-5.82 2.605-5.82 5.82s2.605 5.821 5.82 5.821 5.82-2.606 5.82-5.821-2.605-5.82-5.82-5.82" fill="#3d3d3d"/></g><g id="g84" transform="translate(233.12 304.7)"><path id="path86" d="M 0,0 0,-8.875 -9.543,-4.437 0,0 Z" fill="#3d3d3d"/></g><g id="g88" transform="translate(233.12 304.7)"><path id="path90" d="M 0,0 0,-8.875 -9.543,-4.437 0,0 Z" fill="none" stroke="#3d3d3d" stroke-linejoin="round" stroke-miterlimit="10"/></g><g id="g92" transform="translate(259.57 295.82)"><path id="path94" d="M 0,0 0,8.875 9.543,4.437 0,0 Z" fill="#3d3d3d"/></g><g id="g96" transform="translate(259.57 295.82)"><path id="path98" d="M 0,0 0,8.875 9.543,4.437 0,0 Z" fill="none" stroke="#3d3d3d" stroke-linejoin="round" stroke-miterlimit="10"/></g><g id="g100" transform="translate(250.78 313.49)"><path id="path102" d="M 0,0 -8.875,0 -4.437,9.543 0,0 Z" fill="#3d3d3d"/></g><g id="g104" transform="translate(250.78 313.49)"><path id="path106" d="M 0,0 -8.875,0 -4.437,9.543 0,0 Z" fill="none" stroke="#3d3d3d" stroke-linejoin="round" stroke-miterlimit="10"/></g><g id="g108" transform="translate(241.91 287.03)"><path id="path110" d="M 0,0 8.875,0 4.437,-9.543 0,0 Z" fill="#3d3d3d"/></g><g id="g112" transform="translate(241.91 287.03)"><path id="path114" d="M 0,0 8.875,0 4.437,-9.543 0,0 Z" fill="none" stroke="#3d3d3d" stroke-linejoin="round" stroke-miterlimit="10"/></g><g id="g116" transform="translate(239.85 170.19)"><path id="path118" d="m0 0c-7.732 0-14.001 6.269-14.001 14.001s6.268 14.001 14 14.001c7.733 0 14.002-6.269 14.002-14.001s-6.269-14.001-14.001-14.001" fill="#ca2e39"/></g><g id="g120" transform="translate(243.12 103.37)"><path id="path122" d="m0 0c-8.191 0-14.833 6.642-14.833 14.834s6.642 14.834 14.833 14.834c8.193 0 14.834-6.642 14.834-14.834s-6.641-14.834-14.834-14.834" fill="#00935c"/></g><g id="g124" transform="translate(264.51 73.529)"><path id="path126" d="m0 0c-5.354 0-9.693 4.34-9.693 9.693 0 5.354 4.339 9.694 9.693 9.694 5.353 0 9.693-4.34 9.693-9.694 0-5.353-4.34-9.693-9.693-9.693" fill="#e1c245"/></g><g id="g128" transform="translate(264.51 33.645)"><path id="path130" d="m0 0c-5.354 0-9.693 4.34-9.693 9.693 0 5.354 4.339 9.694 9.693 9.694 5.353 0 9.693-4.34 9.693-9.694 0-5.353-4.34-9.693-9.693-9.693" fill="#e1c245"/></g><g id="g132" transform="translate(254.26 63.28)"><path id="path134" d="m0 0c0-5.354-4.34-9.693-9.693-9.693-5.354 0-9.694 4.339-9.694 9.693s4.34 9.693 9.694 9.693c5.353 0 9.693-4.339 9.693-9.693" fill="#e1c245"/></g><g id="g136" transform="translate(294.15 63.28)"><path id="path138" d="m0 0c0-5.354-4.34-9.693-9.693-9.693-5.354 0-9.694 4.339-9.694 9.693s4.34 9.693 9.694 9.693c5.353 0 9.693-4.339 9.693-9.693" fill="#e1c245"/></g><g id="g140" transform="translate(147.85 201.06)"><path id="path142" d="m0 0 16.76 6.739 16.617-7.086 6.739-16.758-7.086-16.618-16.759-6.739-16.617 7.086-6.739 16.759 7.085 16.617z" fill="#212121"/></g><g id="g144" transform="translate(216.39 76.455)"><path id="path146" d="m0 0c-8.192 0-14.834 6.642-14.834 14.834s6.642 14.834 14.834 14.834 14.834-6.642 14.834-14.834-6.642-14.834-14.834-14.834" fill="#143f9e"/></g><g id="g148" transform="translate(164.37 165.33)"><path id="path150" d="m0 0c-10.417 0-18.861 8.444-18.861 18.861s8.443 18.862 18.861 18.862c10.416 0 18.861-8.445 18.861-18.862s-8.444-18.861-18.861-18.861" fill="#b2b2b2"/></g><g id="g152" transform="translate(164.37 169.44)"><path id="path154" d="m 0,0 c -8.151,0 -14.759,6.608 -14.759,14.759 0,8.15 6.607,14.758 14.759,14.758 8.15,0 14.758,-6.608 14.758,-14.758 C 14.758,6.608 8.151,0 0,0" fill="#a3a3a3"/></g><g id="g156" transform="translate(164.37 170.33)"><path id="path158" d="m 0,0 c -7.655,0 -13.861,6.206 -13.861,13.861 0,7.656 6.205,13.862 13.861,13.862 7.654,0 13.861,-6.206 13.861,-13.862 C 13.861,6.206 7.655,0 0,0" fill="#b2b2b2"/></g><g id="g160" transform="translate(164.37 173.29)"><path id="path162" d="m 0,0 c -6.021,0 -10.902,4.881 -10.902,10.902 0,6.02 4.881,10.901 10.902,10.901 6.02,0 10.901,-4.881 10.901,-10.901 C 10.901,4.881 6.02,0 0,0" fill="#a3a3a3"/></g><g id="g164" transform="translate(164.37 174.26)"><path id="path166" d="m0 0c-5.484 0-9.931 4.446-9.931 9.931 0 5.484 4.447 9.93 9.931 9.93s9.931-4.446 9.931-9.93c0-5.485-4.447-9.931-9.931-9.931" fill="#b2b2b2"/></g><g id="g168" transform="translate(164.37 177.9)"><path id="path170" d="m0 0c-3.474 0-6.289 2.816-6.289 6.289 0 3.474 2.815 6.289 6.289 6.289 3.473 0 6.289-2.815 6.289-6.289 0-3.473-2.816-6.289-6.289-6.289" fill="#a3a3a3"/></g><g id="g172" transform="translate(164.37 178.97)"><path id="path174" d="m0 0c-2.883 0-5.22 2.337-5.22 5.22s2.337 5.219 5.22 5.219 5.22-2.336 5.22-5.219-2.337-5.22-5.22-5.22" fill="#b2b2b2"/></g><g id="g176" transform="translate(299.76 183.15)"><path id="path178" d="m0 0v-31.522c0-0.555 0.039-1.106 0.137-1.655 0.777-4.401 5.144-7.33 9.484-6.355 3.715 0.834 6.272 4.012 6.272 7.816 3e-3 21.145 1e-3 42.289 0 63.434 0 1.866-0.579 3.533-1.733 5-2.674 3.397-7.721 3.996-11.1 1.3-2.072-1.652-3.06-3.83-3.06-6.47v-31.548zm18.352 1e-3c0-10.516-4e-3 -21.033 3e-3 -31.549 2e-3 -1.947-0.416-3.782-1.421-5.453-1.719-2.853-4.229-4.586-7.536-5.049-5.058-0.707-9.759 2.253-11.343 7.076-0.362 1.104-0.51 2.239-0.51 3.399 2e-3 18.676 2e-3 37.353 2e-3 56.029 0 2.504-0.02 5.008 8e-3 7.51 0.048 4.697 3.404 8.851 7.974 9.92 5.303 1.238 10.59-1.717 12.309-6.884 0.373-1.12 0.515-2.272 0.515-3.45-3e-3 -10.516-1e-3 -21.032-1e-3 -31.549" fill="#a3a3a3" fill-rule="evenodd"/></g><g id="g180" transform="translate(305.87 209.65)"><path id="path182" d="m0 0h0.275c2.028 0 4.053-4e-3 6.08 6e-3 0.219 0 0.272-0.058 0.268-0.272-0.012-0.804-0.01-1.61-2e-3 -2.416 2e-3 -0.168-0.041-0.216-0.213-0.215-3.058 4e-3 -6.115 4e-3 -9.172-1e-3 -0.183 0-0.232 0.048-0.23 0.23 0.01 0.814 0.01 1.629 0 2.443-4e-3 0.174 0.062 0.259 0.197 0.347 2.147 1.38 4.289 2.765 6.432 4.149 0.08 0.051 0.16 0.104 0.236 0.205h-0.264c-2.095 0-4.191 6e-3 -6.287-7e-3 -0.273-3e-3 -0.322 0.078-0.316 0.329 0.016 0.77 0.012 1.542 2e-3 2.311-2e-3 0.185 0.031 0.254 0.238 0.253 3.047-7e-3 6.096-7e-3 9.145 1e-3 0.209 0 0.234-0.07 0.232-0.25-8e-3 -0.875-0.01-1.75 2e-3 -2.625 2e-3 -0.18-0.062-0.275-0.209-0.367-2.141-1.352-4.281-2.711-6.42-4.066 2e-3 -0.019 4e-3 -0.037 6e-3 -0.055" fill="#a3a3a3" fill-rule="evenodd"/></g><g id="g184" transform="translate(306.03 161.57)"><path id="path186" d="m0 0c0.459 0 0.92-9e-3 1.377 2e-3 0.654 0.017 1.1 0.444 1.117 1.057 0.02 0.63-0.394 1.138-1.041 1.162-0.959 0.036-1.92 0.023-2.881 6e-3 -0.414-8e-3 -0.658-0.258-0.732-0.677-0.049-0.282-0.057-0.568-0.01-0.853 0.076-0.447 0.336-0.685 0.795-0.694s0.918-2e-3 1.375-3e-3m2.943-2e-3c0.944 0 1.842 3e-3 2.741-2e-3 0.25 0 0.572 0.106 0.728-0.04 0.158-0.147 0.045-0.475 0.047-0.723 8e-3 -0.631-2e-3 -1.264 6e-3 -1.897 2e-3 -0.169-0.026-0.237-0.219-0.236-3.058 5e-3 -6.117 5e-3 -9.174 1e-3 -0.164-1e-3 -0.224 0.034-0.222 0.211 9e-3 0.824 2e-3 1.647 5e-3 2.469 0 0.093-0.044 0.203 0.129 0.226 0.155 0.018 0.026 0.128 8e-3 0.174-0.195 0.512-0.316 1.044-0.344 1.591-0.062 1.308 0.559 2.265 1.616 2.946 2.396 1.543 4.711-0.032 5.203-1.898 0.236-0.9 0.07-1.748-0.373-2.552-0.041-0.075-0.082-0.148-0.151-0.27" fill="#a3a3a3" fill-rule="evenodd"/></g><g id="g188" transform="translate(308.53 173.43)"><path id="path190" d="m0 0c0.125-0.326 0.295-0.596 0.453-0.869 0.963-1.674 0.197-3.602-1.262-4.574-0.199-0.131-0.421-0.186-0.666-0.185-1.384 6e-3 -2.769 6e-3 -4.154-1e-3 -0.17-1e-3 -0.24 0.024-0.238 0.219 0.012 0.84 0.012 1.68 2e-3 2.519-2e-3 0.184 0.051 0.23 0.228 0.229 1.352-8e-3 2.703-4e-3 4.053-4e-3 0.66 0 1.27 0.803 1.104 1.451-0.053 0.202-0.137 0.391-0.231 0.576-0.221 0.44-0.519 0.668-1.06 0.652-1.29-0.038-2.581-8e-3 -3.87-0.017-0.187-2e-3 -0.226 0.05-0.224 0.229 0.01 0.814 0.01 1.629 0 2.442-4e-3 0.185 0.051 0.228 0.23 0.228 2.018-6e-3 4.035-7e-3 6.053 0 0.191 0 0.223-0.065 0.221-0.237-8e-3 -0.804-0.012-1.61 2e-3 -2.416 6e-3 -0.217-0.071-0.265-0.26-0.244-0.117 0.014-0.236 2e-3 -0.381 2e-3" fill="#a3a3a3" fill-rule="evenodd"/></g><g id="g192" transform="translate(308.73 197.59)"><path id="path194" d="m0 0c0.141-0.264 0.246-0.5 0.387-0.716 0.883-1.378 0.562-3.046-0.502-4.169-0.477-0.502-0.998-0.793-1.731-0.763-1.236 0.048-2.476 0.02-3.715 6e-3 -0.248-3e-3 -0.296 0.076-0.291 0.304 0.012 0.797 0.012 1.594 0 2.391-5e-3 0.213 0.049 0.276 0.268 0.275 1.324-0.012 2.65-6e-3 3.975-6e-3 0.728 0 1.332 0.807 1.132 1.516-0.054 0.191-0.136 0.371-0.228 0.547-0.219 0.414-0.506 0.642-1.025 0.627-1.272-0.038-2.547-4e-3 -3.819-0.02-0.262-4e-3 -0.31 0.074-0.305 0.317 0.016 0.779 0.012 1.558 2e-3 2.337-2e-3 0.174 0.036 0.239 0.225 0.238 2.027-7e-3 4.053-5e-3 6.08-1e-3 0.156 0 0.205-0.037 0.203-0.201-8e-3 -0.823-8e-3 -1.645 0-2.467 2e-3 -0.164-0.033-0.238-0.211-0.219-0.129 0.015-0.26 4e-3 -0.445 4e-3" fill="#a3a3a3" fill-rule="evenodd"/></g><g id="g196" transform="translate(306.04 154.41)"><path id="path198" d="m0 0v-1e-3c-0.623 0-1.244 8e-3 -1.867-3e-3 -0.449-7e-3 -0.699-0.225-0.799-0.664-0.055-0.23-0.049-0.464-0.033-0.697 0.035-0.564 0.328-0.862 0.889-0.865 1.203-0.01 2.404-0.013 3.607 0 0.697 5e-3 1.121 0.434 1.121 1.09-2e-3 0.704-0.414 1.128-1.127 1.139-0.598 9e-3 -1.193 1e-3 -1.791 1e-3m3.565-1.158c-4e-3 -1.04-0.292-2.012-0.938-2.861-1.383-1.817-3.732-1.858-5.186-0.096-1.351 1.64-1.365 4.268-0.029 5.922 1.443 1.787 3.906 1.73 5.266-0.123 0.613-0.839 0.879-1.789 0.887-2.842" fill="#a3a3a3" fill-rule="evenodd"/></g><g id="g200" transform="translate(307.15 181.67)"><path id="path202" d="m0 0v-0.416c0-0.75 0-0.75 0.758-0.699 0.607 0.042 1.035 0.489 1.051 1.105 0.017 0.617-0.344 1.051-0.95 1.117-0.24 0.026-0.484 4e-3 -0.724 0.014-0.129 5e-3 -0.137-0.064-0.135-0.162 2e-3 -0.32 0-0.639 0-0.959m-1.082-1.552c0 0.814-6e-3 1.628 2e-3 2.441 2e-3 0.173-0.029 0.24-0.221 0.236-0.537-0.015-1.074-2e-3 -1.609-8e-3 -0.563-6e-3 -0.86-0.294-0.897-0.859-0.015-0.225-0.019-0.449 0.032-0.671 0.109-0.468 0.382-0.692 0.863-0.702 0.242-6e-3 0.484-8e-3 0.726 0 0.123 4e-3 0.166-0.03 0.164-0.157-3e-3 -0.874-5e-3 -1.749 0-2.624 2e-3 -0.208-0.105-0.148-0.211-0.108-0.79 0.305-1.369 0.854-1.8 1.572-1.018 1.698-0.834 4.037 0.433 5.512 1.391 1.615 3.578 1.621 4.971 0.012 1.467-1.695 1.445-4.539-0.047-6.186-0.578-0.64-1.287-1.031-2.158-1.121-0.189-0.019-0.258 0.014-0.254 0.222 0.012 0.813 6e-3 1.628 6e-3 2.441" fill="#a3a3a3" fill-rule="evenodd"/></g><g id="g204" transform="translate(306.15 190.22)"><path id="path206" d="m0 0c1.006 0 2.01 5e-3 3.014-5e-3 0.187-2e-3 0.234 0.055 0.226 0.233-0.011 0.363 2e-3 0.728-6e-3 1.091-4e-3 0.139 0.026 0.196 0.182 0.2 0.691 0.021 0.691 0.027 0.691-0.67 0-0.225 8e-3 -0.451-2e-3 -0.676-5e-3 -0.135 0.034-0.18 0.174-0.176 0.336 0.01 0.674-4e-3 1.012 6e-3 0.146 4e-3 0.189-0.041 0.188-0.189-6e-3 -0.857-6e-3 -1.714 0-2.572 1e-3 -0.156-0.038-0.213-0.202-0.206-0.328 0.013-0.658-4e-3 -0.986 7e-3 -0.148 5e-3 -0.191-0.044-0.186-0.189 0.01-0.38-3e-3 -0.762 6e-3 -1.143 4e-3 -0.145-0.039-0.186-0.185-0.188-0.69-0.01-0.686-0.016-0.69 0.675-4e-3 0.275 0.116 0.639-0.052 0.795-0.149 0.136-0.508 0.045-0.776 0.045-1.803 2e-3 -3.603 5e-3 -5.406-4e-3 -0.213-1e-3 -0.275 0.052-0.272 0.27 0.014 0.822 0.012 1.646 2e-3 2.469-2e-3 0.179 0.041 0.234 0.229 0.232 1.012-0.01 2.025-5e-3 3.039-5e-3" fill="#a3a3a3" fill-rule="evenodd"/></g><g id="g208" transform="translate(306.14 202.07)"><path id="path210" d="m0 0c-1.004 0-2.01 5e-3 -3.014-6e-3 -0.195-2e-3 -0.246 0.048-0.242 0.243 0.01 0.806 0.01 1.611 0 2.416-2e-3 0.179 0.047 0.235 0.231 0.235 2.017-7e-3 4.035-7e-3 6.052 0 0.19 1e-3 0.227-0.058 0.225-0.234-8e-3 -0.814-8e-3 -1.629 0-2.443 2e-3 -0.166-0.039-0.217-0.213-0.216-1.014 9e-3 -2.025 5e-3 -3.039 5e-3" fill="#a3a3a3" fill-rule="evenodd"/></g><g id="g212" transform="translate(310.77 203.52)"><path id="path214" d="m0 0c0 0.416 4e-3 0.832-4e-3 1.248-4e-3 0.148 0.045 0.191 0.189 0.188 0.459-8e-3 0.92-6e-3 1.379 0 0.119 0 0.164-0.03 0.164-0.16-5e-3 -0.856-5e-3 -1.714 0-2.572 0-0.127-0.041-0.16-0.162-0.159-0.468 7e-3 -0.935 9e-3 -1.404 0-0.148-4e-3 -0.168 0.057-0.166 0.182 6e-3 0.425 4e-3 0.849 4e-3 1.273" fill="#a3a3a3" fill-rule="evenodd"/></g><g id="g216" transform="translate(309.73 148.66)"><path id="path218" d="m0 0c-6e-3 -0.674 0.576-1.266 1.248-1.27 0.717-3e-3 1.326 0.573 1.326 1.256 2e-3 0.711-0.56 1.246-1.31 1.248-0.709 3e-3 -1.26-0.535-1.264-1.234m2.81-5e-3c3e-3 -0.8-0.716-1.493-1.552-1.495-0.787-1e-3 -1.498 0.706-1.498 1.49 0 0.807 0.679 1.483 1.494 1.485 0.857 2e-3 1.555-0.661 1.556-1.48" fill="#a3a3a3" fill-rule="evenodd"/></g><g id="g220" transform="translate(311.04 148.71)"><path id="path222" d="m0 0c-0.017-0.179-8e-3 -0.332 0.219-0.335 0.256-6e-3 0.242 0.173 0.256 0.355 0.019 0.203-0.057 0.233-0.242 0.241-0.227 0.01-0.272-0.08-0.233-0.261m0.035 0.49c0.043 1e-3 0.088 5e-3 0.131-1e-3 0.176-0.017 0.445 0.087 0.508-0.051 0.094-0.214 0.072-0.494-8e-3 -0.735-0.098-0.286-0.525-0.382-0.758-0.152-0.127 0.124-0.203 0.1-0.322 0.024-0.07-0.045-0.152-0.137-0.231 0.01-0.08 0.154 0.071 0.143 0.129 0.193 0.047 0.039 0.102 0.069 0.157 0.092 0.146 0.063 0.093 0.19 0.092 0.293 0 0.15-0.124 0.076-0.194 0.088-0.084 0.011-0.176-0.018-0.174 0.123 2e-3 0.139 0.094 0.115 0.178 0.116 0.164 1e-3 0.328 0 0.492 0" fill="#a3a3a3" fill-rule="evenodd"/></g><g id="g224" transform="translate(337.84 111.96)"><path id="path226" d="M 0,0 -75.75,6.24 -17.5,-9 0,0 Z" fill="#a3a3a3"/></g><g id="g228" transform="translate(337.84 254.37)"><path id="path230" d="M 0,0 -75.75,-6.24 -17.5,9 0,0 Z" fill="#a3a3a3"/></g></g></g></g></svg>
