<?xml version="1.0" encoding="UTF-8"?>
<svg id="svg2" width="296.8" height="431.76" version="1.1" viewBox="0 0 296.8 431.76" xml:space="preserve" xmlns="http://www.w3.org/2000/svg" xmlns:cc="http://creativecommons.org/ns#" xmlns:dc="http://purl.org/dc/elements/1.1/" xmlns:rdf="http://www.w3.org/1999/02/22-rdf-syntax-ns#"><metadata id="metadata8"><rdf:RDF><cc:Work rdf:about=""><dc:format>image/svg+xml</dc:format><dc:type rdf:resource="http://purl.org/dc/dcmitype/StillImage"/><dc:title/></cc:Work></rdf:RDF></metadata><defs id="defs6"><clipPath id="clipPath16"><path id="path18" d="m0 345.41h237.44v-345.41h-237.44v345.41z"/></clipPath></defs><g id="g10" transform="matrix(1.25 0 0 -1.25 0 431.76)"><g id="g12"><g id="g14" clip-path="url(#clipPath16)"><g id="g20" transform="translate(5.0801)"><path id="path22" d="m0 0c-2.805 0-5.08 2.275-5.08 5.077v335.26c0 2.803 2.275 5.077 5.08 5.077h227.28c2.807 0 5.079-2.274 5.079-5.077v-335.26c0-2.802-2.272-5.077-5.079-5.077h-227.28z" fill="#383838"/></g><g id="g24" transform="translate(150.23 203.24)"><path id="path26" d="m 0,0 c -24.741,0 -44.799,20.057 -44.799,44.799 0,24.744 20.058,44.799 44.799,44.799 24.743,0 44.801,-20.055 44.801,-44.799 C 44.801,20.057 24.743,0 0,0" fill="#2d2d2d"/></g><g id="g28" transform="translate(149.63 230.12)"><path id="path30" d="m0 0c-9.898 0-17.92 8.025-17.92 17.922s8.022 17.918 17.92 17.918c9.897 0 17.92-8.021 17.92-17.918s-8.023-17.922-17.92-17.922" fill="#3f3f3f"/></g><g id="g32" transform="translate(168.38 71.88)"><path id="path34" d="m0 0c6.902-13.08 15.031-17.825 26.328-14.581 11.295 3.245 17.824 15.032 14.578 26.328-8.804 27.479-41.172 60.853-84.576 85.198-10.21 5.825-23.037 3.599-29.437-6.259-6.399-9.861-3.88-23.498 6.262-29.439 34.546-20.228 49.407-29.864 66.845-61.247" fill="#2d2d2d"/></g><g id="g36" transform="translate(113.46 136.42)"><path id="path38" d="m0 0c-7.857 0-14.225 6.369-14.225 14.226s6.368 14.221 14.225 14.221c7.854 0 14.224-6.364 14.224-14.221s-6.37-14.226-14.224-14.226" fill="#494949"/></g><g id="g40" transform="translate(143.55 117.4)"><path id="path42" d="m0 0c-7.857 0-14.224 6.365-14.224 14.223 0 7.856 6.367 14.225 14.224 14.225s14.225-6.369 14.225-14.225c0-7.858-6.368-14.223-14.225-14.223" fill="#494949"/></g><g id="g44" transform="translate(169.9 92.387)"><path id="path46" d="m0 0c-7.857 0-14.224 6.369-14.224 14.222 0 7.857 6.367 14.226 14.224 14.226 7.855 0 14.225-6.369 14.225-14.226 0-7.853-6.37-14.222-14.225-14.222" fill="#494949"/></g><g id="g48" transform="translate(189.56 63.115)"><path id="path50" d="m 0,0 c -7.856,0 -14.224,6.365 -14.224,14.223 0,7.856 6.368,14.225 14.224,14.225 7.857,0 14.225,-6.369 14.225,-14.225 C 14.225,6.365 7.857,0 0,0" fill="#494949"/></g><g id="g52" transform="translate(199.77 202.41)"><path id="path54" d="m0 0c0.316 2.373 2.494 4.037 4.867 3.719 2.37-0.32 4.035-2.497 3.716-4.865l-1.83-13.691c-0.319-2.372-2.497-4.037-4.867-3.723-2.37 0.32-4.034 2.498-3.718 4.87l1.832 13.69z" fill="#494949"/></g><g id="g56" transform="translate(199.77 144.2)"><path id="path58" d="m0 0c0.316-2.368 2.494-4.032 4.867-3.719 2.37 0.32 4.035 2.497 3.716 4.869l-1.83 13.692c-0.319 2.367-2.497 4.036-4.867 3.718-2.37-0.32-4.034-2.498-3.718-4.865l1.832-13.695z" fill="#494949"/></g><g id="g60" transform="translate(221.79 328.51)"><path id="path62" d="m0 0v-2.404h3.866l-3.866-4.347v-2.386h6.469v2.4h-3.869l3.869 4.346v2.391h-6.469z" fill="#e8e2e9"/></g><g id="g64" transform="translate(221.79 319.1)"><path id="path66" d="m0 0v-2.399h3.066l-3.066-3.613v-2.854l3.328 3.89 3.141-3.824v2.855l-2.866 3.546h2.866v2.399h-6.469z" fill="#e8e2e9"/></g><g id="g68" transform="translate(226.46 328.9)"><path id="path70" d="m0 0h1.802v7.003c0.019 1.217-0.928 2-2.068 2-1.141 0-2.09-0.752-2.069-2v-4.436c0-0.164-0.117-0.3-0.266-0.3-0.148 0-0.265 0.136-0.265 0.3v6.369h-1.801v-7.001c-0.022-1.222 0.925-2.001 2.066-2.001 1.143 0 2.09 0.748 2.068 2.001v4.435c0 0.164 0.12 0.301 0.267 0.301s0.266-0.137 0.266-0.301v-6.37z" fill="#e8e2e9"/></g><g id="g72" transform="translate(41.575 163.02)"><path id="path74" d="m0 0h-3.139v0.23c0.864 0.266 1.514 0.673 1.953 1.222 0.447 0.536 0.677 0.859 0.677 1.505 0 0.611-0.195 1.125-0.564 1.531-0.379 0.416-0.895 0.699-1.563 0.872-0.669 0.169-1.355 0.253-2.058 0.253-0.852 0-1.598-0.093-2.24-0.279-0.651-0.186-0.994-0.486-1.293-0.902-0.298-0.416-0.447-0.748-0.447-1.32 0-0.204 0.016-0.407 0.06-0.611 0.053-0.212 0.113-0.376 0.201-0.593h2.27c0.349 0 0.579 0.022 0.685 0.062 0.096 0.049 0.192 0.141 0.272 0.279 0.086 0.138 0.133 0.31 0.133 0.514v0.212h0.237v-4.006h-0.237c-0.028 0.301-0.071 0.51-0.141 0.633-0.063 0.124-0.178 0.212-0.334 0.279-0.089 0.031-0.291 0.049-0.615 0.053l-2.199 0.017c-0.245 0.523-0.456 1.001-0.589 1.572-0.121 0.571-0.227 1.165-0.227 1.775 0 0.784 0.061 1.279 0.29 1.793 0.227 0.522 0.437 0.97 0.807 1.368 0.378 0.389 0.799 0.699 1.266 0.929 0.609 0.274 1.275 0.424 2.032 0.424 1.336 0 2.461-0.442 3.381-1.314 0.926-0.863 1.382-1.961 1.382-3.279 0-0.603-0.166-1.143-0.396-1.705-0.166-0.399-0.246-0.633-0.246-0.708 0-0.111 0.044-0.212 0.133-0.31 0.088-0.098 0.254-0.185 0.509-0.266v-0.23z" fill="#e8e2e9"/></g><g id="g76" transform="translate(41.004 177.81)"><path id="path78" d="m0 0c-9e-3 0.774-0.405 1.355-1.195 1.752-0.642 0.332-1.582 0.496-2.795 0.496-1.452 0-2.541-0.234-3.227-0.739-0.482-0.363-0.713-0.872-0.713-1.509h-0.674v9e-3c0 1.562 0.535 2.775 1.608 3.634 0.844 0.672 1.844 1.013 3.006 1.013 1.301 0 2.39-0.438 3.251-1.314 0.872-0.881 1.284-1.966 1.233-3.254v-0.088h-0.494zm0-0.018v0.018h0.494c0.033-1.342-0.379-2.452-1.224-3.298-0.87-0.863-1.953-1.292-3.251-1.292-1.119 0-2.094 0.322-2.947 0.965-1.115 0.858-1.676 2.063-1.676 3.625h0.674c0-0.43 0.124-0.806 0.336-1.089 0.264-0.368 0.694-0.602 1.282-0.81 0.58-0.2 1.328-0.341 2.269-0.341 1.124 0 1.961 0.106 2.514 0.318 0.562 0.204 0.949 0.475 1.186 0.788 0.228 0.328 0.343 0.704 0.343 1.116" fill="#e8e2e9"/></g><g id="g80" transform="translate(40.854 186.8)"><path id="path82" d="m0 0h-3.508v-0.177c0-0.562 0.177-0.783 0.537-1.035 0.353-0.253 0.87-0.412 1.566-0.479v-0.251h-4.659v0.251c0.511 0.049 0.923 0.16 1.248 0.324 0.326 0.173 0.545 0.367 0.651 0.589 0.112 0.216 0.166 0.358 0.166 0.778h-2.609c-0.492 0-0.792-0.021-0.897-0.062-0.115-0.045-0.204-0.115-0.274-0.23-0.069-0.115-0.104-0.292-0.104-0.553v-0.531c0-0.819 0.192-1.059 0.579-1.554 0.379-0.496 0.82-0.837 1.61-1.057v-0.245l-2.681 0.381v7.242h0.246v-0.301c0-0.252 0.042-0.465 0.131-0.62 0.061-0.115 0.168-0.203 0.318-0.261 0.104-0.049 0.376-0.075 0.823-0.075h5.854c0.396 0 0.645 9e-3 0.739 0.035 0.151 0.04 0.273 0.12 0.352 0.244 0.125 0.163 0.183 0.389 0.183 0.677v0.301h0.249v-7.427h-2.629v0.243c0.642 0.128 1.099 0.301 1.379 0.54 0.283 0.226 0.484 0.545 0.617 0.965 0.08 0.248 0.113 0.704 0.113 1.377v0.911z" fill="#e8e2e9"/></g><g id="g84" transform="translate(41.373 196.42)"><path id="path86" d="m0 0-5.521-4.568h3.826c0.534 0 0.894 0.07 1.08 0.234 0.255 0.222 0.379 0.482 0.367 1.005h0.248v-2.762h-0.248c-0.041 0.39-0.112 0.456-0.184 0.584-0.079 0.138-0.201 0.243-0.376 0.32-0.168 0.074-0.466 0.114-0.887 0.114h-7.403v0.23l7.403 6.268h-5.653c-0.51 0-0.851-0.124-1.037-0.367-0.176-0.244-0.263-0.523-0.263-0.837v-0.221h-0.247v3.288h0.247c0-0.509 0.103-0.862 0.298-1.066 0.193-0.195 0.527-0.301 1.002-0.301h6.276l0.236 0.203c0.238 0.195 0.387 0.368 0.467 0.514 0.07 0.155 0.115 0.017 0.121 0.292h0.248v-2.93z" fill="#e8e2e9"/></g><g id="g88" transform="translate(41.004 150.13)"><path id="path90" d="m0 0c-9e-3 0.77-0.405 1.35-1.195 1.748-0.642 0.336-1.582 0.5-2.795 0.5-1.452 0-2.541-0.239-3.227-0.744-0.482-0.358-0.713-0.871-0.713-1.504h-0.674v8e-3c0 1.562 0.535 2.775 1.608 3.63 0.844 0.677 1.844 1.018 3.006 1.018 1.301 0 2.39-0.438 3.251-1.319 0.872-0.876 1.284-1.961 1.233-3.249v-0.088h-0.494zm0-0.018v0.018h0.494c0.033-1.346-0.379-2.453-1.224-3.298-0.87-0.872-1.953-1.306-3.251-1.306-1.119 0-2.094 0.328-2.947 0.969-1.115 0.864-1.676 2.068-1.676 3.635h0.674c0-0.435 0.124-0.807 0.336-1.094 0.264-0.367 0.694-0.601 1.282-0.805 0.58-0.205 1.328-0.341 2.269-0.341 1.124 0 1.961 0.106 2.514 0.318 0.562 0.204 0.949 0.47 1.186 0.788 0.228 0.327 0.343 0.699 0.343 1.116" fill="#e8e2e9"/></g><g id="g92" transform="translate(40.854 159.12)"><path id="path94" d="m0 0h-3.508v-0.177c0-0.566 0.177-0.783 0.537-1.036 0.353-0.252 0.87-0.416 1.566-0.482v-0.252h-4.659v0.252c0.511 0.049 0.923 0.164 1.248 0.328 0.326 0.168 0.545 0.367 0.651 0.584 0.112 0.221 0.166 0.358 0.166 0.783h-2.609c-0.492 0-0.792-0.026-0.897-0.066-0.115-0.04-0.204-0.111-0.274-0.226-0.069-0.115-0.104-0.297-0.104-0.553v-0.531c0-0.824 0.192-1.059 0.579-1.559 0.379-0.496 0.82-0.836 1.61-1.057v-0.243l-2.681 0.384v7.237h0.246v-0.301c0-0.252 0.042-0.46 0.131-0.619 0.061-0.115 0.168-0.204 0.318-0.262 0.104-0.049 0.376-0.07 0.823-0.07h5.854c0.396 0 0.645 9e-3 0.739 0.031 0.151 0.039 0.273 0.123 0.352 0.248 0.125 0.158 0.183 0.389 0.183 0.672v0.301h0.249v-7.427h-2.629v0.248c0.642 0.128 1.099 0.301 1.379 0.535 0.283 0.231 0.484 0.545 0.617 0.97 0.08 0.243 0.113 0.699 0.113 1.377v0.911z" fill="#e8e2e9"/></g><g id="g96" transform="translate(37.848 172.07)"><path id="path98" d="m0 0v-0.049c0-0.465-0.396-0.841-0.869-0.841-0.475 0-0.861 0.376-0.861 0.841v0.049c0 0.465 0.386 0.837 0.861 0.837 0.473 0 0.869-0.372 0.869-0.837" fill="#e8e2e9" fill-rule="evenodd"/></g><g id="g100" transform="translate(217.06 172.71)"><path id="path102" d="m0 0c0-21.281 20.384-167.63 20.384-167.63v335.26s-20.384-146.8-20.384-167.62" fill="#494949"/></g></g></g></g></svg>
