<?xml version="1.0" encoding="UTF-8"?>
<svg id="svg2" width="228.03" height="525.1" version="1.1" viewBox="0 0 228.03 525.1" xml:space="preserve" xmlns="http://www.w3.org/2000/svg" xmlns:cc="http://creativecommons.org/ns#" xmlns:dc="http://purl.org/dc/elements/1.1/" xmlns:rdf="http://www.w3.org/1999/02/22-rdf-syntax-ns#"><metadata id="metadata8"><rdf:RDF><cc:Work rdf:about=""><dc:format>image/svg+xml</dc:format><dc:type rdf:resource="http://purl.org/dc/dcmitype/StillImage"/><dc:title/></cc:Work></rdf:RDF></metadata><g id="g1480"><g id="g20" transform="matrix(1.25 0 0 -1.25 2.351 525.1)" fill="#dcdcdc"><path id="path22" d="m0 0c-1.039 0-1.881 0.958-1.881 2.139v415.8c0 1.182 0.842 2.14 1.881 2.14h178.66c1.038 0 1.88-0.958 1.88-2.14v-415.8c0-1.181-0.842-2.139-1.88-2.139z" fill="#dcdcdc"/></g><g id="g24" transform="matrix(1.25 0 0 -1.25 14.905 316.88)"><path id="path26" d="m0 0v-152.92c0-1.111 0.65-2.012 1.451-2.012h137.89c0.802 0 1.451 0.901 1.451 2.012v391.02c0 1.112-0.649 2.012-1.451 2.012h-137.89c-0.801 0-1.451-0.9-1.451-2.012v-120.67z" fill="#333"/></g><g id="g28" transform="matrix(1.25 0 0 -1.25 49.65 318.46)"><path id="path30" d="m0 0c-3.512 0-6.358 2.314-6.358 5.169v108.02c0 2.856 2.846 5.17 6.358 5.17h27.98c3.511 0 6.359-2.314 6.359-5.17v-108.02c0-2.855-2.848-5.169-6.359-5.169z" fill="#212121"/></g><g id="g32" transform="matrix(1.25 0 0 -1.25 51.41 311.18)"><path id="path34" d="m0 0c-1.287 0-2.33 1.043-2.33 2.33v102.05c0 1.286 1.043 2.329 2.33 2.329h25.164c1.287 0 2.33-1.043 2.33-2.329v-102.05c0-1.287-1.043-2.33-2.33-2.33z" fill="#fff"/></g><g id="g36" transform="matrix(1.25 0 0 -1.25 186.23 317.88)"><path id="path38" d="m0 0c2.059 0 3.728 1.67 3.728 3.729v109.98c0 2.06-1.669 3.728-3.728 3.728h-11.301c-2.058 0-3.727-1.668-3.727-3.728v-109.98c0-2.059 1.669-3.729 3.727-3.729z" fill="#666"/></g><g id="g40" transform="matrix(1.25 0 0 -1.25 154.21 317.88)"><path id="path42" d="m0 0c2.059 0 3.729 1.67 3.729 3.729v109.98c0 2.06-1.67 3.728-3.729 3.728h-11.301c-2.058 0-3.727-1.668-3.727-3.728v-109.98c0-2.059 1.669-3.729 3.727-3.729z" fill="#666"/></g><g id="g44" transform="matrix(1.25 0 0 -1.25 121.08 317.88)"><path id="path46" d="m0 0c2.06 0 3.729 1.67 3.729 3.729v109.98c0 2.06-1.669 3.728-3.729 3.728h-11.3c-2.059 0-3.728-1.668-3.728-3.728v-109.98c0-2.059 1.669-3.729 3.728-3.729z" fill="#666"/></g><g id="g48" transform="matrix(1.25 0 0 -1.25 30.415 313.22)"><path id="path50" d="m0 0v109.98c0 2.06-1.669 3.728-3.727 3.728h-8.681v-117.43h8.681c2.058 0 3.727 1.67 3.727 3.729" fill="#666"/></g><g id="g52" transform="matrix(1.25 0 0 -1.25 71.493 114.92)"><path id="path54" d="m0 0v-20.241c0-2.059 1.669-3.728 3.729-3.728h27.726c2.06 0 3.729 1.669 3.729 3.728v20.241h20.242c2.058 0 3.727 1.67 3.727 3.728v27.727c0 2.06-1.669 3.729-3.727 3.729h-20.242v20.242c0 2.058-1.669 3.728-3.729 3.728h-27.726c-2.06 0-3.729-1.67-3.729-3.728v-20.242h-20.241c-2.059 0-3.729-1.669-3.729-3.729v-27.727c0-2.058 1.67-3.728 3.729-3.728z" fill="#fff"/></g><g id="g56" transform="matrix(1.25 0 0 -1.25 42.793 398.72)"><path id="path58" d="m0 0c-1.287 0-2.33 1.043-2.33 2.33v38.912c0 1.286 1.043 2.329 2.33 2.329h39.377c1.287 0 2.33-1.043 2.33-2.329v-38.912c0-1.287-1.043-2.33-2.33-2.33z" fill="#fff"/></g><g id="g60" transform="matrix(1.25 0 0 -1.25 67.404 393.19)"><path id="path62" d="m0 0c-9.587 0-17.358 7.771-17.358 17.357 0 9.588 7.771 17.36 17.358 17.36s17.358-7.772 17.358-17.36c0-9.586-7.771-17.357-17.358-17.357" fill="#cd3332"/></g><g id="g64" transform="matrix(1.25 0 0 -1.25 42.793 467.05)"><path id="path66" d="m0 0c-1.287 0-2.33 1.043-2.33 2.33v38.911c0 1.286 1.043 2.329 2.33 2.329h39.377c1.287 0 2.33-1.043 2.33-2.329v-38.911c0-1.287-1.043-2.33-2.33-2.33z" fill="#fff"/></g><g id="g68" transform="matrix(1.25 0 0 -1.25 67.404 461.52)"><path id="path70" d="m0 0c-9.587 0-17.358 7.771-17.358 17.357 0 9.588 7.771 17.36 17.358 17.36s17.358-7.772 17.358-17.36c0-9.586-7.771-17.357-17.358-17.357" fill="#cd3332"/></g><g id="g72" transform="matrix(1.25 0 0 -1.25 59.88 196.41)"><path id="path74" d="m0 0c0 3.323 2.694 6.019 6.019 6.019s6.019-2.696 6.019-6.019v-21.94c0-3.325-2.694-6.02-6.019-6.02s-6.019 2.695-6.019 6.02z" fill="#212121"/></g><g id="g76" transform="matrix(1.25 0 0 -1.25 59.88 265.14)"><path id="path78" d="m0 0c0 3.325 2.694 6.02 6.019 6.02s6.019-2.695 6.019-6.02v-21.94c0-3.325-2.694-6.02-6.019-6.02s-6.019 2.695-6.019 6.02z" fill="#212121"/></g><g id="g80" transform="matrix(1.25 0 0 -1.25 75.425 110.99)"><path id="path82" d="m0 0v-24.058h28.893v24.058h24.057v28.893h-24.057v24.056h-28.893v-24.056h-24.057v-28.893z" fill="#212121"/></g><g id="g84" transform="matrix(1.25 0 0 -1.25 116.2 92.933)"><path id="path86" d="m0 0v-6h6.933v-2.563l8.446 8.563-8.446 8.563v-2.563h-6.933z"/></g><g id="g88" transform="matrix(1.25 0 0 -1.25 70.765 92.933)"><path id="path90" d="m0 0v6h-6.932v2.563l-8.446-8.563 8.446-8.563v2.563h6.932z"/></g><g id="g92" transform="matrix(1.25 0 0 -1.25 93.208 115.65)"><path id="path94" d="m0 0h-6v-6.932h-2.564l8.564-8.445 8.563 8.445h-2.564v6.932z"/></g><g id="g96" transform="matrix(1.25,0,0,-1.25,93.208,70.216)"><path id="path98" d="m0 0h5.999v6.932h2.564l-8.563 8.447-8.564-8.447h2.564v-6.932z"/></g><g id="g100" transform="matrix(1.25 0 0 -1.25 93.208 102.81)"><path id="path102" d="m0 0c-4.364 0-7.902 3.539-7.902 7.902 0 4.366 3.538 7.903 7.902 7.903 4.363 0 7.902-3.537 7.902-7.903 0-4.363-3.539-7.902-7.902-7.902"/></g><g id="g104" transform="matrix(1.25 0 0 -1.25 149.74 359.41)"><path id="path106" d="m0 0c0.08 0.115 0.173 0.176 0.267 0.234 2.855 1.764 5.71 3.53 8.568 5.287 0.172 0.107 0.243 0.213 0.24 0.42-0.011 1.162-5e-3 2.323-5e-3 3.483 0 0.092-9e-3 0.183-0.013 0.289h-13.087v-4.008h9.045c6e-3 -0.023 0.014-0.046 0.02-0.068-0.089-0.059-0.179-0.119-0.268-0.176-2.852-1.77-5.703-3.542-8.558-5.306-0.191-0.118-0.262-0.245-0.26-0.471 0.012-1.132 6e-3 -2.264 6e-3 -3.397v-0.295h13.094v4.008z" fill="#cd3332"/></g><g id="g108" transform="matrix(1.25 0 0 -1.25 147.82 440.11)"><path id="path110" d="m0 0c-0.848 0.033-1.414 0.732-1.385 1.563 0.03 0.85 0.614 1.467 1.462 1.501 0.611 0.025 1.227 4e-3 1.839 4e-3v5e-3c0.565 0 1.132 0.013 1.697-3e-3 0.926-0.026 1.51-0.605 1.541-1.501 0.03-0.873-0.518-1.539-1.423-1.575-1.242-0.049-2.489-0.043-3.731 6e-3m5.763-4e-3c0.4 0.733 0.716 1.44 0.775 2.236 0.057 0.788-0.057 1.54-0.396 2.256-0.343 0.723-0.839 1.319-1.475 1.798-1.576 1.19-3.724 1.33-5.291 0.208-2.378-1.702-2.657-3.937-1.436-6.486-0.148-0.01-0.293-0.021-0.432-0.03v-3.849h13.081v3.867z" fill="#cd3332"/></g><g id="g112" transform="matrix(1.25 0 0 -1.25 154.38 387.95)"><path id="path114" d="m0 0c1.673 1.627 1.79 4.392 0.265 6.199-0.062 0.074-0.12 0.153-0.227 0.287h0.88v3.858h-8.671v-3.843c0.128-7e-3 0.248-0.019 0.368-0.018 1.708 2e-3 3.415 0.013 5.122 3e-3 0.276-2e-3 0.575-0.045 0.82-0.158 0.777-0.36 1.186-1.329 0.972-2.205-0.203-0.832-0.886-1.35-1.787-1.35h-5.482v-3.868c0.048-9e-3 0.075-0.018 0.102-0.018 1.614 0 3.227-0.019 4.839 8e-3 1.06 0.017 2.02 0.348 2.799 1.105" fill="#cd3332"/></g><g id="g116" transform="matrix(1.25 0 0 -1.25 151.38 429.39)"><path id="path118" d="m0 0c1.046 0.037 1.942 0.512 2.638 1.314 1.463 1.69 1.472 4.238 0.027 5.954-0.064 0.075-0.127 0.15-0.246 0.293h0.911v3.868h-8.667v-3.87h0.388c1.726 2e-3 3.453 2e-3 5.179 5e-3 0.363 0 0.688-0.097 0.978-0.312 0.667-0.498 0.947-1.406 0.68-2.203-0.262-0.781-0.882-1.201-1.78-1.203-1.697 0-3.395 0-5.093-1e-3 -0.119-1e-3 -0.237-0.015-0.352-0.023v-3.837c0.058-0.01 0.094-0.023 0.131-0.023 1.735 7e-3 3.473-0.023 5.206 0.038" fill="#cd3332"/></g><g id="g120" transform="matrix(1.25 0 0 -1.25 150.21 455.8)"><path id="path122" d="m0 0v0.029c-0.745 0-1.491-0.033-2.234 8e-3 -0.991 0.057-1.624 0.767-1.587 1.701 0.029 0.736 0.595 1.336 1.404 1.474 0.222 0.038 0.449 0.056 0.675 0.056 1.161 5e-3 2.32 5e-3 3.48-2e-3 0.244-1e-3 0.492-0.019 0.731-0.069 0.856-0.181 1.405-0.847 1.363-1.628-0.045-0.828-0.679-1.448-1.57-1.538-0.131-0.013-0.263-0.029-0.395-0.029-0.623-4e-3 -1.245-2e-3 -1.867-2e-3m3.417-2.502c1.969 2.264 1.941 6.008-0.06 8.273-1.834 2.079-4.799 2.114-6.67 0.069-1.095-1.197-1.569-2.635-1.583-4.141 7e-3 -1.582 0.424-2.926 1.363-4.086 1.87-2.308 5.001-2.357 6.95-0.115" fill="#cd3332"/></g><g id="g124" transform="matrix(1.25 0 0 -1.25 151.75 407.16)"><path id="path126" d="m0 0c0 0.669 0.012 1.338-6e-3 2.008-6e-3 0.256 0.079 0.334 0.325 0.306 0.308-0.037 0.624-0.019 0.927-0.078 0.774-0.15 1.309-0.821 1.304-1.591-5e-3 -0.778-0.568-1.456-1.354-1.582-0.377-0.061-0.763-0.061-1.196-0.092zm1.818-3.759c1.086 1.087 1.645 2.419 1.753 3.942 0.126 1.78-0.331 3.383-1.523 4.737-0.797 0.903-1.794 1.463-3.015 1.547-1.585 0.109-2.863-0.528-3.826-1.744-1.436-1.817-1.723-3.881-1.065-6.065 0.459-1.523 1.379-2.711 2.86-3.398 0.113-0.053 0.234-0.086 0.355-0.129v3.844c-0.358 0.027-0.697 0.033-1.032 0.081-0.823 0.117-1.405 0.739-1.433 1.506-0.032 0.838 0.453 1.54 1.299 1.665 0.803 0.117 1.628 0.086 2.488 0.123v-7.455c0.142 0 0.244-0.01 0.344 0 1.094 0.111 2.025 0.574 2.795 1.346" fill="#cd3332"/></g><g id="g128" transform="matrix(1.25 0 0 -1.25 157.18 399.63)"><path id="path130" d="m0 0v2.109h1.748v3.942h-1.751c0 0.128 1e-3 0.229 0 0.33-1e-3 0.519 4e-3 1.038-0.011 1.556-2e-3 0.084-0.087 0.233-0.142 0.236-0.364 0.02-0.731 0.011-1.127 0.011v-2.149h-8.698v-3.933h8.706v-2.102z" fill="#cd3332"/></g><path id="path132" d="m144.7 372.21h10.844v-4.8638h-10.844z" fill="#cd3332"/><path id="path134" d="m161.05 367.32h-3.265v4.885h3.265z" fill="#cd3332"/><g id="g136" transform="matrix(1.25 0 0 -1.25 156.34 462.05)"><path id="path138" d="m0 0c-2e-3 1.208 0.928 2.125 2.166 2.138 1.221 0.011 2.172-0.916 2.177-2.125 4e-3 -1.191-0.933-2.114-2.151-2.118-1.242-5e-3 -2.191 0.907-2.192 2.105m4.753 1e-3c4e-3 1.455-1.121 2.603-2.561 2.613-1.457 0.01-2.59-1.129-2.591-2.603-1e-3 -1.453 1.131-2.602 2.568-2.608 1.43-4e-3 2.58 1.153 2.584 2.598" fill="#cd3332"/></g><g id="g140" transform="matrix(1.25 0 0 -1.25 159.27 461.54)"><path id="path142" d="m0 0c1e-3 0.057 2e-3 0.164 2e-3 0.164l0.958 4e-3 3e-3 -0.928c-8e-3 -0.22-0.266-0.379-0.502-0.369-0.232 9e-3 -0.425 0.143-0.451 0.387-0.029 0.252-0.014 0.489-0.01 0.742m-1.624-1.176v-0.433c0.428 0.273 0.841 0.536 1.264 0.806 0.024-0.093 0.048-0.166 0.072-0.234 0.13-0.375 0.425-0.567 0.831-0.537 0.399 0.029 0.683 0.24 0.715 0.635 0.04 0.494 9e-3 0.993 9e-3 1.511h-2.904v-0.412h1.254v-0.553s-0.204-0.132-0.31-0.193z" fill="#cd3332"/></g></g></svg>
