<?xml version="1.0" encoding="UTF-8"?>
<svg id="svg2" width="212.67" height="257.9" version="1.1" viewBox="0 0 212.67 257.9" xml:space="preserve" xmlns="http://www.w3.org/2000/svg" xmlns:cc="http://creativecommons.org/ns#" xmlns:dc="http://purl.org/dc/elements/1.1/" xmlns:rdf="http://www.w3.org/1999/02/22-rdf-syntax-ns#"><metadata id="metadata8"><rdf:RDF><cc:Work rdf:about=""><dc:format>image/svg+xml</dc:format><dc:type rdf:resource="http://purl.org/dc/dcmitype/StillImage"/><dc:title/></cc:Work></rdf:RDF></metadata><defs id="defs6"><clipPath id="clipPath16"><path id="path18" d="m0 206.32h170.14v-206.32h-170.14v206.32z"/></clipPath></defs><g id="g10" transform="matrix(1.25 0 0 -1.25 0 257.9)"><g id="g12"><g id="g14" clip-path="url(#clipPath16)"><g id="g20" transform="translate(164.44)"><path id="path22" d="m0 0h-158.73c-3.137 0-5.703 2.566-5.703 5.703v194.92c0 3.137 2.566 5.703 5.703 5.703h158.73c3.137 0 5.703-2.566 5.703-5.703v-194.92c0-3.137-2.566-5.703-5.703-5.703" fill="#1d1d1b"/></g><g id="g24" transform="translate(20.016 153.97)"><path id="path26" d="m0 0v-128.95c0-3.176 2.598-5.774 5.774-5.774h118.56c3.176 0 5.774 2.598 5.774 5.774v156.28c0 3.176-2.598 5.774-5.774 5.774h-83.914"/></g><g id="g28" transform="translate(144.35 18.669)"><path id="path30" d="m0 0h-118.56c-3.502 0-6.351 2.85-6.351 6.351v128.95h1.154v-128.95c0-2.865 2.331-5.196 5.197-5.196h118.56c2.866 0 5.197 2.331 5.197 5.196v156.28c0 2.865-2.331 5.196-5.197 5.196h-83.914v1.155h83.914c3.502 0 6.351-2.849 6.351-6.351v-156.28c0-3.501-2.849-6.351-6.351-6.351" fill="#fff"/></g><g id="g32" transform="translate(50.554 187.08)"><path id="path34" d="m0 0h-24.764c-3.175 0-5.774-2.598-5.774-5.774v-20.401-6.929h40.418v33.104h-9.88z" fill="#e20613"/></g><g id="g36" transform="translate(20.594 154.55)"><path id="path38" d="m0 0h39.263v31.949h-34.066c-2.866 0-5.197-2.331-5.197-5.196v-26.753zm40.418-1.155h-41.573v27.908c0 3.502 2.849 6.351 6.352 6.351h35.221v-34.259z" fill="#fff"/></g><g id="g40" transform="translate(112.1 110.66)"><path id="path42" d="m0 0-5.663 5.663v8.008c0 2.54-2.078 4.619-4.619 4.619h-8.008l-5.662 5.662c-1.797 1.797-4.736 1.797-6.533 0l-5.662-5.662h-8.008c-2.541 0-4.62-2.079-4.62-4.619v-8.008l-5.662-5.663c-1.797-1.796-1.797-4.736 0-6.532l5.662-5.663v-8.008c0-2.541 2.079-4.619 4.62-4.619h8.008l5.662-5.663c1.797-1.796 4.736-1.796 6.533 0l5.662 5.663h8.008c2.541 0 4.619 2.078 4.619 4.619v8.008l5.663 5.663c1.796 1.796 1.796 4.736 0 6.532" fill="#fff"/></g><g id="g44" transform="translate(67.94 128.37)"><path id="path46" d="m0 0c-2.228 0-4.042-1.813-4.042-4.042v-8.247l-5.831-5.832c-0.76-0.76-1.178-1.775-1.178-2.858s0.418-2.098 1.178-2.858l5.831-5.831v-8.247c0-2.229 1.814-4.042 4.042-4.042h8.248l5.831-5.831c1.519-1.519 4.195-1.521 5.716 0l5.832 5.831h8.247c2.228 0 4.042 1.813 4.042 4.042v8.247l5.831 5.831c0.76 0.76 1.179 1.775 1.179 2.858s-0.419 2.098-1.179 2.858l-5.831 5.832v8.247c0 2.229-1.814 4.042-4.042 4.042h-8.247l-5.832 5.831c-1.521 1.52-4.196 1.519-5.716 0l-5.831-5.831h-8.248zm16.937-50.123c-1.392 0-2.697 0.539-3.674 1.518l-5.494 5.493h-7.769c-2.866 0-5.197 2.331-5.197 5.197v7.769l-5.493 5.493c-0.977 0.978-1.516 2.283-1.516 3.674 0 1.392 0.539 2.697 1.516 3.675l5.493 5.493v7.769c0 2.866 2.331 5.197 5.197 5.197h7.769l5.494 5.493c0.977 0.978 2.283 1.516 3.674 1.516s2.697-0.538 3.674-1.516l5.494-5.493h7.769c2.866 0 5.197-2.331 5.197-5.197v-7.769l5.493-5.493c0.977-0.978 1.516-2.283 1.516-3.675 0-1.391-0.539-2.696-1.516-3.674l-5.493-5.493v-7.769c0-2.866-2.331-5.197-5.197-5.197h-7.769l-5.494-5.493c-0.977-0.979-2.282-1.518-3.674-1.518" fill="#fff"/></g><g id="g48" transform="translate(143.96 66.304)"><path id="path50" d="m0 0h-117.79c-0.32 0-0.578 0.258-0.578 0.577 0 0.32 0.258 0.578 0.578 0.578h117.79c0.319 0 0.577-0.258 0.577-0.578 0-0.319-0.258-0.577-0.577-0.577" fill="#575756"/></g><g id="g52" transform="translate(143.96 56.705)"><path id="path54" d="m0 0h-117.79c-0.32 0-0.578 0.258-0.578 0.577 0 0.32 0.258 0.578 0.578 0.578h117.79c0.319 0 0.577-0.258 0.577-0.578 0-0.319-0.258-0.577-0.577-0.577" fill="#575756"/></g><g id="g56" transform="translate(143.96 47.106)"><path id="path58" d="m0 0h-117.79c-0.32 0-0.578 0.258-0.578 0.577 0 0.32 0.258 0.578 0.578 0.578h117.79c0.319 0 0.577-0.258 0.577-0.578 0-0.319-0.258-0.577-0.577-0.577" fill="#575756"/></g><g id="g60" transform="translate(143.96 37.507)"><path id="path62" d="m0 0h-117.79c-0.32 0-0.578 0.258-0.578 0.577 0 0.32 0.258 0.578 0.578 0.578h117.79c0.319 0 0.577-0.258 0.577-0.578 0-0.319-0.258-0.577-0.577-0.577" fill="#575756"/></g><g id="g64" transform="translate(143.96 27.907)"><path id="path66" d="m0 0h-117.79c-0.32 0-0.578 0.258-0.578 0.577 0 0.32 0.258 0.578 0.578 0.578h117.79c0.319 0 0.577-0.258 0.577-0.578 0-0.319-0.258-0.577-0.577-0.577" fill="#575756"/></g><g id="g68" transform="translate(142.52 180.72)"><path id="path70" d="m0 0h-75.061c-0.319 0-0.578 0.258-0.578 0.577 0 0.32 0.259 0.578 0.578 0.578h75.061c0.319 0 0.577-0.258 0.577-0.578 0-0.319-0.258-0.577-0.577-0.577" fill="#575756"/></g><g id="g72" transform="translate(142.52 175.35)"><path id="path74" d="m0 0h-75.061c-0.319 0-0.578 0.258-0.578 0.577 0 0.32 0.259 0.578 0.578 0.578h75.061c0.319 0 0.577-0.258 0.577-0.578 0-0.319-0.258-0.577-0.577-0.577" fill="#575756"/></g><g id="g76" transform="translate(142.52 169.98)"><path id="path78" d="m0 0h-75.061c-0.319 0-0.578 0.258-0.578 0.577 0 0.32 0.259 0.578 0.578 0.578h75.061c0.319 0 0.577-0.258 0.577-0.578 0-0.319-0.258-0.577-0.577-0.577" fill="#575756"/></g><g id="g80" transform="translate(142.52 164.62)"><path id="path82" d="m0 0h-75.061c-0.319 0-0.578 0.258-0.578 0.577 0 0.32 0.259 0.578 0.578 0.578h75.061c0.319 0 0.577-0.258 0.577-0.578 0-0.319-0.258-0.577-0.577-0.577" fill="#575756"/></g><g id="g84" transform="translate(142.52 159.25)"><path id="path86" d="m0 0h-75.061c-0.319 0-0.578 0.258-0.578 0.577 0 0.32 0.259 0.578 0.578 0.578h75.061c0.319 0 0.577-0.258 0.577-0.578 0-0.319-0.258-0.577-0.577-0.577" fill="#575756"/></g><g id="g88" transform="translate(142.52 153.88)"><path id="path90" d="m0 0h-75.061c-0.319 0-0.578 0.258-0.578 0.577 0 0.32 0.259 0.578 0.578 0.578h75.061c0.319 0 0.577-0.258 0.577-0.578 0-0.319-0.258-0.577-0.577-0.577" fill="#575756"/></g><g id="g92" transform="translate(98.927 107.4)"><path id="path94" d="m0 0c0-7.76-6.29-14.05-14.05-14.05s-14.05 6.29-14.05 14.05 6.29 14.05 14.05 14.05 14.05-6.29 14.05-14.05" fill="#1d1d1b"/></g><g id="g96" transform="translate(84.877 120.87)"><path id="path98" d="m0 0c-7.429 0-13.473-6.043-13.473-13.472s6.044-13.473 13.473-13.473 13.472 6.044 13.472 13.473-6.043 13.472-13.472 13.472m0-28.099c-8.065 0-14.628 6.561-14.628 14.627 0 8.065 6.563 14.627 14.628 14.627s14.627-6.562 14.627-14.627c0-8.066-6.562-14.627-14.627-14.627" fill="#fff"/></g><g id="g100" transform="translate(84.877 114.9)"><path id="path102" d="m0 0c-4.136 0-7.502-3.365-7.502-7.502 0-4.136 3.366-7.502 7.502-7.502s7.502 3.366 7.502 7.502c0 4.137-3.366 7.502-7.502 7.502m0-16.159c-4.774 0-8.657 3.884-8.657 8.657s3.883 8.657 8.657 8.657c4.773 0 8.656-3.884 8.656-8.657s-3.883-8.657-8.656-8.657" fill="#fff"/></g></g></g></g></svg>
