<?xml version="1.0" encoding="UTF-8"?>
<svg id="svg2" width="193.34" height="413.15" version="1.1" viewBox="0 0 193.34 413.15" xml:space="preserve" xmlns="http://www.w3.org/2000/svg" xmlns:cc="http://creativecommons.org/ns#" xmlns:dc="http://purl.org/dc/elements/1.1/" xmlns:rdf="http://www.w3.org/1999/02/22-rdf-syntax-ns#"><metadata id="metadata8"><rdf:RDF><cc:Work rdf:about=""><dc:format>image/svg+xml</dc:format><dc:type rdf:resource="http://purl.org/dc/dcmitype/StillImage"/><dc:title/></cc:Work></rdf:RDF></metadata><defs id="defs6"><clipPath id="clipPath16"><path id="path18" d="m0 154.67h330.52v-154.67h-330.52v154.67z"/></clipPath></defs><g id="g10" transform="matrix(0 1.25 1.25 0 -7.7748e-7 0)"><g id="g12"><g id="g14" clip-path="url(#clipPath16)"><g id="g20" transform="translate(330.52 7.3857)"><path id="path22" d="m0 0c0-4.062-3.323-7.386-7.387-7.386h-315.75c-4.063 0-7.386 3.324-7.386 7.386v119.56c0 4.063 3.303 7.758 7.34 8.211l153.81 17.277c4.038 0.453 10.642 0.439 14.677-0.032l147.36-17.213c4.036-0.47 7.338-4.18 7.338-8.243v-119.56z" fill="#deddde"/></g><g id="g24" transform="translate(324.52 8.9755)"><path id="path26" d="m0 0c0-3.915-3.201-7.118-7.117-7.118h-304.28c-3.915 0-7.118 3.203-7.118 7.118v115.22c0 3.915 3.182 7.475 7.073 7.911l148.23 0.419c3.891 0.436 10.255 0.422 14.144-0.032l142-0.355c3.888-0.454 7.069-4.028 7.069-7.943v-115.22z" fill="#e9e9e9"/></g><g id="g28" transform="translate(80.155 45.854)"><path id="path30" d="m0 0c0-16.933-13.726-30.659-30.66-30.659-16.933 0-30.659 13.726-30.659 30.659s13.726 30.659 30.659 30.659c16.934 0 30.66-13.726 30.66-30.659" fill="#464648"/></g><g id="g32" transform="translate(90.94 9.6938)"><path id="path34" d="m0 0h-14.772c-5.061 0-6.769 0.422-6.769 2.721 0 2.218 2.145 3.042 5.386 6.501 6.734 7.185 11.663 16.314 11.663 26.938 0 20.408-16.545 36.951-36.953 36.951-9.715 0-17.517-4.432-17.517-4.432-3.533-1.822-6.127-0.802-6.127 3.261v33.31c0 4.063 3.324 7.386 7.387 7.386h64.627c4.063 0 7.386-2.804 7.386-6.232v-6.386c0-34.672 28.107-63.026 62.779-63.026 34.674 0 62.781 27.8 62.781 62.472v6.478c0 3.682 3.324 6.694 7.386 6.694h61.859c4.06 0 7.385-3.323 7.385-7.386v-67.002c2.822-3.946 4.482-8.78 4.482-14.034 0-13.494-10.888-24.214-24.381-24.214h-196.6" fill="#464648"/></g><g id="g36" transform="translate(287.86 44.589)"><path id="path38" d="m0 0c-6.115 0-11.09-4.922-11.09-10.972 0-6.082 4.975-11.03 11.09-11.03 6.114 0 11.089 4.948 11.089 11.03 0 6.05-4.975 10.972-11.089 10.972m0-26.619c-8.66 0-15.707 7.019-15.707 15.647 0 8.596 7.047 15.588 15.707 15.588s15.706-6.992 15.706-15.588c0-8.628-7.046-15.647-15.706-15.647" fill="#cacac8"/></g><g id="g40" transform="translate(287.86 20.279)"><path id="path42" d="m0 0c7.4 0 13.398 5.939 13.398 13.339s-5.998 13.28-13.398 13.28-13.398-5.88-13.398-13.28 5.998-13.339 13.398-13.339" fill="#464648"/></g><g id="g44" transform="translate(196.19 27.235)"><path id="path46" d="m0 0h-15.695c-3.825 0-6.925 3.1-6.925 6.924s3.1 6.925 6.925 6.925h15.695c3.824 0 6.924-3.101 6.924-6.925s-3.1-6.924-6.924-6.924" fill="#cacac8"/></g><g id="g48" transform="translate(196.19 29.543)"><path id="path50" d="m0 0h-15.695c-2.55 0-4.617 2.067-4.617 4.616 0 2.55 2.067 4.616 4.617 4.616h15.695c2.549 0 4.616-2.066 4.616-4.616 0-2.549-2.067-4.616-4.616-4.616" fill="#464648"/></g><g id="g52" transform="translate(155.66 27.235)"><path id="path54" d="m0 0h-15.695c-3.824 0-6.924 3.1-6.924 6.924s3.1 6.925 6.924 6.925h15.695c3.824 0 6.924-3.101 6.924-6.925s-3.1-6.924-6.924-6.924" fill="#cacac8"/></g><g id="g56" transform="translate(155.66 29.543)"><path id="path58" d="m0 0h-15.695c-2.549 0-4.616 2.067-4.616 4.616 0 2.55 2.067 4.616 4.616 4.616h15.695c2.549 0 4.616-2.066 4.616-4.616 0-2.549-2.067-4.616-4.616-4.616" fill="#464648"/></g><g id="g60" transform="translate(257.9 60.803)"><path id="path62" d="m0 0c0-0.508-0.416-0.923-0.923-0.923h-13.079c-0.508 0-0.924 0.415-0.924 0.923v14.584c0 0.507 0.336 1.168 0.746 1.469l5.973 4.384c0.409 0.3 1.079 0.3 1.489 0l5.974-4.384c0.409-0.301 0.744-0.962 0.744-1.469v-14.584z" fill="#ed1f24"/></g><g id="g64" transform="translate(295.32 60.803)"><path id="path66" d="m0 0c0-0.508-0.415-0.923-0.923-0.923h-13.077c-0.51 0-0.926 0.415-0.926 0.923v14.584c0 0.507 0.337 1.168 0.747 1.469l5.972 4.384c0.41 0.3 1.08 0.3 1.489 0l5.975-4.384c0.408-0.301 0.743-0.962 0.743-1.469v-14.584z" fill="#ed1f24"/></g><g id="g68" transform="translate(52.312 114.74)"><path id="path70" d="m0 0c-0.564-0.482-1.074-1.121-1.413-1.818-0.339-0.698-0.512-1.455-0.52-2.147-8e-3 -0.695 0.145-1.326 0.427-1.904 0.284-0.58 0.695-1.107 1.204-1.461 0.51-0.357 1.116-0.544 1.672-0.629s1.062-0.071 1.463-0.014 0.695 0.152 0.966 0.302l1.593 3.311c-0.413-0.194-0.833-0.371-1.268-0.551-0.435-0.178-0.887-0.361-1.365-0.42-0.478-0.055-0.983 0.01-1.434 0.278-0.449 0.265-0.841 0.732-1.044 1.257-0.205 0.521-0.217 1.1-0.076 1.624 0.142 0.521 0.443 0.987 0.81 1.396 0.363 0.408 0.793 0.759 1.193 0.989 0.399 0.232 0.767 0.344 1.143 0.372l1.204-1.734 1.385 0.517-0.971 2.375c-0.273 9e-3 -0.548 0-0.875-0.036-0.325-0.035-0.7-0.096-1.091-0.196-0.391-0.099-0.795-0.24-1.308-0.473-0.511-0.232-1.131-0.557-1.695-1.038m-9.047 0.884c0.141-0.159 0.317-0.363 0.277-0.582l-0.551-2.905c-0.044-0.227-0.245-0.392-0.404-0.505-0.158-0.114-0.352-0.144-0.546-0.175 0.168-0.065 0.335-0.131 0.448-0.253s0.268-0.295 0.227-0.478l-0.631-2.83c-0.06-0.26-0.326-0.425-0.514-0.568-0.19-0.141-0.405-0.213-0.621-0.285h7.551l0.532 2.832c-0.29-0.589-0.581-1.175-1.075-1.553-0.498-0.377-1.175-0.708-1.893-0.708h-1.385l0.691 3.504c0.25 0.086 0.535 0.077 0.79-0.048 0.256-0.122 0.484-0.363 0.69-0.624 0.204-0.261 0.384-0.541 0.528-0.841l0.723 3.686c-0.246-0.27-0.522-0.516-0.818-0.737-0.298-0.22-0.614-0.417-0.912-0.515-0.297-0.097-0.574-0.097-0.83-0.021l0.715 3.449 1.114 0.012c0.504 4e-3 1.007 0.065 1.413-0.269 0.408-0.333 0.721-1.031 1.03-1.731l0.55 2.526h-7.675c0.216-0.11 0.432-0.22 0.576-0.381m-3.954-4.475-4.488 5.377-2.039-2.331 0.978-0.894-1.169-6.472 2.346 1.03-1.21 1.121 0.671 3.423 4.728-5.45 1.632 7.431 1.654 1-1.998 1.216-1.105-5.451z" fill="#ed1f24" fill-rule="evenodd"/></g><g id="g72" transform="translate(78.506 12.206)"><path id="path74" d="m0 0-2.412 2.796c8.982 7.75 14.134 18.996 14.134 30.851 0 22.461-18.273 40.734-40.734 40.734-6.405 0-12.535-1.443-18.22-4.291l-1.654 3.302c6.203 3.107 12.89 4.682 19.874 4.682 24.497 0 44.428-19.93 44.428-44.427 0-12.93-5.619-25.194-15.416-33.647" fill="#ed1f24"/></g><g id="g76" transform="translate(287.58 13.259)"><path id="path78" d="m0 0c11.356 0 20.559 9.02 20.559 20.375s-9.203 20.376-20.559 20.376h-37.605c-11.355 0-20.559-9.021-20.559-20.376s9.204-20.466 20.559-20.466l37.605 0.091z" fill="#ed1f24"/></g><g id="g80" transform="translate(250.43 44.589)"><path id="path82" d="m0 0c-6.116 0-11.092-4.922-11.092-10.972 0-6.082 4.976-11.03 11.092-11.03 6.114 0 11.089 4.948 11.089 11.03 0 6.05-4.975 10.972-11.089 10.972m0-26.619c-8.661 0-15.708 7.019-15.708 15.647 0 8.596 7.047 15.588 15.708 15.588 8.66 0 15.706-6.992 15.706-15.588 0-8.628-7.046-15.647-15.706-15.647" fill="#cacac8"/></g><g id="g84" transform="translate(250.43 20.279)"><path id="path86" d="m0 0c7.399 0 13.398 5.939 13.398 13.339s-5.999 13.28-13.398 13.28-13.399-5.88-13.399-13.28 6-13.339 13.399-13.339" fill="#464648"/></g><g id="g88" transform="translate(287.86 17.767)"><path id="path90" d="m0 0c8.796 0 15.926 7.06 15.926 15.857 0 8.796-7.13 15.786-15.926 15.786-8.798 0-15.93-6.99-15.93-15.786 0-8.797 7.132-15.857 15.93-15.857" fill="#cacac8"/></g><g id="g92" transform="translate(287.86 20.279)"><path id="path94" d="m0 0c7.398 0 13.398 5.939 13.398 13.339s-6 13.28-13.398 13.28c-7.4 0-13.399-5.88-13.399-13.28s5.999-13.339 13.399-13.339" fill="#464648"/></g><g id="g96" transform="translate(124.18 154.67)"><path id="path98" d="m0 0c-1.524 0-2.77-1.247-2.77-2.77v-45.479c0-26.195 20.89-47.5 47.085-47.5 26.197 0 47.086 21.166 47.086 47.361v45.618c0 1.523-1.246 2.77-2.77 2.77h-88.631z" fill="#deddde"/></g><g id="g100" transform="translate(57.844 75.812)"><path id="path102" d="m0 0c0 0.531-0.426 1.052-0.945 1.156 0 0-2.868 0.915-7.404 0.915-4.34 0-7.402-0.914-7.402-0.914-0.52-0.105-0.945-0.626-0.945-1.157v-20.645c0-0.531-0.434-0.965-0.965-0.965h-20.646c-0.531 0-1.051-0.425-1.155-0.945 0 0-0.916-2.9-0.916-7.403 0-3.838 0.916-7.403 0.916-7.403 0.104-0.519 0.624-0.944 1.155-0.944h20.646c0.531 0 0.965-0.435 0.965-0.966v-20.644c0-0.531 0.425-1.052 0.945-1.157 0 0 2.526-0.914 7.402-0.914 4.964 0 7.404 0.916 7.404 0.916 0.519 0.103 0.945 0.624 0.945 1.155v20.644c0 0.531 0.434 0.966 0.964 0.966h20.646c0.531 0 1.051 0.425 1.155 0.944 0 0 0.915 2.495 0.915 7.403 0 5.166-0.915 7.403-0.915 7.403-0.104 0.52-0.624 0.945-1.155 0.945h-20.646c-0.53 0-0.964 0.434-0.964 0.965v20.645z" fill="#5f6062"/></g><g id="g104" transform="translate(56.542 45.854)"><path id="path106" d="m0 0c0-3.893-3.155-7.047-7.048-7.047-3.892 0-7.048 3.154-7.048 7.047 0 3.894 3.156 7.048 7.048 7.048 3.893 0 7.048-3.154 7.048-7.048" fill="#464648"/></g></g></g></g></svg>
