<?xml version="1.0" encoding="UTF-8"?>
<svg id="svg2" width="332.14" height="535.78" version="1.1" viewBox="0 0 332.14 535.78" xml:space="preserve" xmlns="http://www.w3.org/2000/svg" xmlns:cc="http://creativecommons.org/ns#" xmlns:dc="http://purl.org/dc/elements/1.1/" xmlns:rdf="http://www.w3.org/1999/02/22-rdf-syntax-ns#"><metadata id="metadata8"><rdf:RDF><cc:Work rdf:about=""><dc:format>image/svg+xml</dc:format><dc:type rdf:resource="http://purl.org/dc/dcmitype/StillImage"/><dc:title/></cc:Work></rdf:RDF></metadata><defs id="defs6"><clipPath id="clipPath16"><path id="path18" d="m0 428.62h265.71v-428.62h-265.71v428.62z"/></clipPath></defs><g id="g10" transform="matrix(1.25 0 0 -1.25 0 535.78)"><g id="g12"><g id="g14" clip-path="url(#clipPath16)"><g id="g20" transform="translate(251.54 114.7)"><path id="path22" d="m0 0c7.795 0 14.173-6.378 14.173-14.173v-23.092c0-7.795-6.378-14.173-14.173-14.173" fill="#666"/></g><g id="g24" transform="translate(251.28 367.59)"><path id="path26" d="m0 0c7.795 0 14.173-6.378 14.173-14.173v-23.092c0-7.795-6.378-14.173-14.173-14.173" fill="#666"/></g><g id="g28" transform="translate(214.18 304.76)"><path id="path30" d="m0 0c19.5 3.018 29.25 4.412 36.447 5.805 7.196 1.392 10.91 13.697 10.91 31.222 0 17.528-3.714 29.83-10.91 31.223-7.197 1.395-16.947 2.785-36.447 5.805" fill="#d1d2d4"/></g><g id="g32" transform="translate(220.54 322.46)"><path id="path34" d="m0 0c0 2.727-2.211 4.883-4.94 4.883h-126.06c-2.728 0-4.883-2.156-4.883-4.883v-216.27c0-2.727 2.155-4.94 4.883-4.94h126.06c2.728 0 4.939 2.213 4.939 4.94v93.783c-0.797 0.484-1.331 1.383-1.331 2.384v25.42c0 1 0.536 1.846 1.331 2.33v92.354z" fill="#b2b2b2"/></g><g id="g36" transform="translate(213.23 315.39)"><path id="path38" d="m0 0v-202.15c0-0.422-0.33-0.764-0.739-0.764h-120.14c-0.409 0-0.739 0.342-0.739 0.764v202.15c0 0.422 0.33 0.764 0.739 0.764h120.14c0.409 0 0.739-0.342 0.739-0.764" fill="#d1d2d4"/></g><g id="g40" transform="translate(184.47 407.14)"><path id="path42" d="m0 0c-53.393 9.75-110.51 16.108-135.57 20.893-39.315 7.502-72.362-58.198-26.93-83.108 34.492-18.912 78.466-40.392 78.466-40.392l84.035 102.61z" fill="#d1d2d4"/></g><g id="g44" transform="translate(104.61 320.59)"><path id="path46" d="m0 0c-0.805 0.042-1.614 0.067-2.429 0.067-24.252 0-43.909-19.659-43.909-43.909s19.657-43.907 43.909-43.907c24.249 0 43.909 19.657 43.909 43.907 0 0.757-0.02 1.51-0.059 2.258" fill="#999"/></g><g id="g48" transform="translate(144.45 277.75)"><path id="path50" d="m0 0c7.316-2.667 15.214-4.122 23.452-4.122 37.814 0 68.471 30.654 68.471 68.47 0 37.815-30.657 68.469-68.471 68.469s-68.471-30.654-68.471-68.469c0-8.147 1.426-15.959 4.037-23.205-0.797 0.042-1.597 0.067-2.404 0.067" fill="#999"/></g><g id="g52" transform="translate(184.47 21.526)"><path id="path54" d="m0 0c-53.393-9.75-111.44-16.109-135.57-20.893-39.26-7.781-72.363 58.198-26.93 83.108 34.492 18.912 78.466 40.392 78.466 40.392l84.035-102.61z" fill="#d1d2d4"/></g><g id="g56" transform="translate(146.13 150.28)"><path id="path58" d="m0 0c0.042 0.805 0.067 1.614 0.067 2.429 0 24.252-19.659 43.909-43.909 43.909s-43.907-19.657-43.907-43.909c0-24.249 19.657-43.909 43.907-43.909 0.757 0 1.51 0.021 2.258 0.059" fill="#999"/></g><g id="g60" transform="translate(214.18 51.958)"><path id="path62" d="m0 0c19.5 3.018 29.25 4.41 36.447 5.805 7.196 1.392 10.91 13.695 10.91 31.222 0 17.528-3.714 29.831-10.91 31.225-7.197 1.391-16.947 2.785-36.447 5.801" fill="#d1d2d4"/></g><g id="g64" transform="translate(103.29 110.44)"><path id="path66" d="m0 0c-2.667-7.316-4.122-15.214-4.122-23.452 0-37.814 30.654-68.471 68.47-68.471 37.815 0 68.469 30.657 68.469 68.471s-30.654 68.471-68.469 68.471c-8.147 0-15.959-1.426-23.205-4.037 0.042 0.797 0.067 1.597 0.067 2.404" fill="#999"/></g><g id="g68" transform="translate(144.98 278.3)"><path id="path70" d="m0 0c7.11-2.555 14.774-3.951 22.767-3.951 37.18 0 67.32 30.14 67.32 67.322 0 37.18-30.14 67.32-67.32 67.32-37.182 0-67.322-30.14-67.322-67.32 0-7.652 1.28-15.006 3.632-21.861-0.59 0.023-1.18 0.041-1.775 0.041-23.591 0-42.714-19.125-42.714-42.715 0-23.592 19.123-42.715 42.714-42.715 23.59 0 42.715 19.123 42.715 42.715 0 0.389-6e-3 0.777-0.017 1.164" fill="#d1d2d4"/></g><g id="g72" transform="translate(104.48 110.05)"><path id="path74" d="m0 0c-2.622-7.193-4.053-14.959-4.053-23.059 0-37.179 30.14-67.322 67.322-67.322 37.18 0 67.32 30.143 67.32 67.322 0 37.18-30.14 67.323-67.32 67.323-8.01 0-15.692-1.403-22.816-3.969 0.041 0.783 0.066 1.57 0.066 2.363 0 23.592-19.125 42.715-42.715 42.715-23.591 0-42.714-19.123-42.714-42.715 0-23.59 19.123-42.715 42.714-42.715 0.736 0 1.468 0.02 2.196 0.057" fill="#d1d2d4"/></g><g id="g76" transform="translate(102.29 244.17)"><path id="path78" d="m0 0c-18.205 0-32.964 14.762-32.964 32.967s14.759 32.963 32.964 32.963c18.206 0 32.965-14.758 32.965-32.963s-14.759-32.967-32.965-32.967" fill="#b2b2b2"/></g><g id="g80" transform="translate(102.29 248.35)"><path id="path82" d="M 0,0 C -15.897,0 -28.785,12.889 -28.785,28.787 -28.785,44.684 -15.897,57.57 0,57.57 15.898,57.57 28.786,44.684 28.786,28.787 28.786,12.889 15.898,0 0,0" fill="#666"/></g><g id="g84" transform="translate(217.5 100.81)"><path id="path86" d="m0 0c0 2.725-2.213 4.937-4.939 4.937h-26.028v26.084c0 2.727-2.214 4.885-4.94 4.885h-27.694c-2.726 0-4.939-2.158-4.939-4.885v-26.084h-26.027c-2.728 0-4.94-2.212-4.94-4.937v-27.695c0-2.727 2.212-4.883 4.94-4.883h26.027v-26.084c0-2.727 2.213-4.883 4.939-4.883h27.694c2.726 0 4.94 2.156 4.94 4.883v26.084h26.028c2.726 0 4.939 2.156 4.939 4.883v27.695z" fill="#b2b2b2"/></g><g id="g88" transform="translate(166.81 263.7)"><path id="path90" d="m0 0v-19.795c0-0.238-0.193-0.433-0.433-0.433h-10.973c-0.239 0-0.432 0.195-0.432 0.433v19.795c0 0.24 0.193 0.432 0.432 0.432h10.973c0.24 0 0.433-0.192 0.433-0.432" fill="#666"/></g><g id="g92" transform="translate(127.37 224.43)"><path id="path94" d="m0 0v-19.793c0-0.24-0.192-0.436-0.433-0.436h-10.974c-0.239 0-0.431 0.196-0.431 0.436v19.793c0 0.24 0.192 0.434 0.431 0.434h10.974c0.241 0 0.433-0.194 0.433-0.434" fill="#666"/></g><g id="g96" transform="translate(103.88 224.43)"><path id="path98" d="m0 0v-19.793c0-0.24-0.077-0.436-0.174-0.436h-4.367c-0.095 0-0.172 0.196-0.172 0.436v19.793c0 0.24 0.077 0.434 0.172 0.434h4.367c0.097 0 0.174-0.194 0.174-0.434" fill="#808080"/></g><g id="g100" transform="translate(160.9 168.73)"><path id="path102" d="m0 0c-2.581 0-5.919 15.09-5.919 15.09-0.445 1.67 0.326 2.785 2.784 2.785h6.269c2.486 0 3.193-1.219 2.785-2.785 0 0-3.489-15.09-5.919-15.09" fill="#666"/></g><g id="g104" transform="translate(199.09 72.366)"><path id="path106" d="m0 0c-8.077 0-14.625 6.549-14.625 14.625s6.548 14.625 14.625 14.625 14.625-6.549 14.625-14.625-6.548-14.625-14.625-14.625" fill="#666"/></g><g id="g108" transform="translate(136.18 72.366)"><path id="path110" d="m0 0c-8.077 0-14.625 6.549-14.625 14.625s6.548 14.625 14.625 14.625c8.078 0 14.625-6.549 14.625-14.625s-6.547-14.625-14.625-14.625" fill="#666"/></g><g id="g112" transform="translate(167.64 70.161)"><path id="path114" d="m0 0c8.076 0 14.626-6.549 14.626-14.625 0-8.078-6.55-14.625-14.626-14.625-8.077 0-14.625 6.547-14.625 14.625 0 8.076 6.548 14.625 14.625 14.625" fill="#666"/></g><g id="g116" transform="translate(167.64 133.07)"><path id="path118" d="m0 0c8.076 0 14.626-6.547 14.626-14.625s-6.55-14.625-14.626-14.625c-8.077 0-14.625 6.547-14.625 14.625s6.548 14.625 14.625 14.625" fill="#666"/></g><g id="g120" transform="translate(218.36 355.81)"><path id="path122" d="m0 0c0 2.729-2.212 4.939-4.939 4.939h-26.028v26.084c0 2.729-2.212 4.883-4.939 4.883h-27.693c-2.727 0-4.939-2.154-4.939-4.883v-26.084h-26.027c-2.728 0-4.94-2.21-4.94-4.939v-27.691c0-2.729 2.212-4.883 4.94-4.883h26.027v-26.084c0-2.729 2.212-4.885 4.939-4.885h27.693c2.727 0 4.939 2.156 4.939 4.885v26.084h26.028c2.727 0 4.939 2.154 4.939 4.883v27.691z" fill="#b2b2b2"/></g><g id="g124" transform="translate(102.29 119.74)"><path id="path126" d="m0 0c-18.205 0-32.964 14.76-32.964 32.965s14.759 32.965 32.964 32.965c18.206 0 32.965-14.76 32.965-32.965s-14.759-32.965-32.965-32.965" fill="#b2b2b2"/></g><g id="g128" transform="translate(102.29 123.92)"><path id="path130" d="M 0,0 C -15.897,0 -28.785,12.887 -28.785,28.785 -28.785,44.684 -15.897,57.57 0,57.57 15.898,57.57 28.786,44.684 28.786,28.785 28.786,12.887 15.898,0 0,0" fill="#666"/></g><g id="g132" transform="translate(213.12 341.99)"><path id="path134" d="m 0,0 -6.382,6.721 0,-13.44 L 0,0 Z" fill="#808080"/></g><g id="g136" transform="translate(124.1 341.99)"><path id="path138" d="m 0,0 6.382,6.721 0,-13.44 L 0,0 Z" fill="#808080"/></g><g id="g140" transform="translate(168.61 297.48)"><path id="path142" d="M 0,0 6.718,6.383 -6.72,6.383 0,0 Z" fill="#808080"/></g><g id="g144" transform="translate(168.61 386.5)"><path id="path146" d="m0 0 6.718-6.383h-13.438l6.72 6.383z" fill="#808080"/></g><g id="g148" transform="translate(178.57 325.44)"><path id="path150" d="m0 0c-0.051 0.596-0.355 1.143-0.833 1.5l-7.881 6.215c-0.753 0.578-1.801 0.578-2.553 0l-7.936-6.215c-0.522-0.395-0.83-1.01-0.833-1.666l-0.055-14.43c-5e-3 -0.56 0.218-1.097 0.613-1.496 0.397-0.394 0.936-0.615 1.496-0.611h15.595c1.146-0.01 2.087 0.906 2.109 2.053l0.278 14.429c3e-3 0.073 3e-3 0.147 0 0.221" fill="#666"/></g><g id="g152" transform="translate(178.73 358.54)"><path id="path154" d="m0 0c-0.051-0.594-0.354-1.139-0.834-1.496l-7.88-6.217c-0.751-0.58-1.8-0.58-2.553 0l-7.934 6.217c-0.524 0.394-0.832 1.008-0.834 1.664l-0.055 14.428c-4e-3 0.562 0.217 1.099 0.612 1.498 0.398 0.394 0.936 0.615 1.497 0.611h15.594c1.148 0.01 2.087-0.906 2.11-2.053l0.277-14.429c3e-3 -0.075 3e-3 -0.149 0-0.223" fill="#666"/></g><g id="g156" transform="translate(152.06 332.02)"><path id="path158" d="m0 0c0.596 0.053 1.141 0.355 1.498 0.834l6.216 7.881c0.579 0.752 0.579 1.801 0 2.553l-6.216 7.935c-0.394 0.522-1.01 0.83-1.664 0.832l-14.429 0.057c-0.561 2e-3 -1.099-0.219-1.495-0.613-0.397-0.397-0.618-0.936-0.614-1.497v-15.595c-9e-3 -1.145 0.907-2.086 2.054-2.108l14.429-0.279c0.073-2e-3 0.148-2e-3 0.221 0" fill="#666"/></g><g id="g160" transform="translate(185.16 331.87)"><path id="path162" d="m0 0c-0.596 0.051-1.14 0.353-1.499 0.832l-6.215 7.879c-0.58 0.754-0.58 1.803 0 2.555l6.215 7.935c0.394 0.524 1.012 0.83 1.665 0.832l14.43 0.057c0.56 4e-3 1.098-0.217 1.495-0.613 0.396-0.397 0.617-0.936 0.613-1.497v-15.593c8e-3 -1.149-0.906-2.088-2.054-2.11l-14.427-0.277c-0.076-4e-3 -0.149-4e-3 -0.223 0" fill="#666"/></g><g id="g164" transform="translate(175.92 206.76)"><path id="path166" d="m0 0c-0.068-0.422-0.107-0.654-0.179-0.977-0.08-0.369-0.177-0.736-0.301-1.093-0.152-0.436-0.337-0.852-0.624-1.217-0.229-0.291-0.503-0.516-0.87-0.625-0.327-0.1-0.629-0.041-0.911 0.131-0.326 0.197-0.557 0.488-0.763 0.801-0.25 0.386-0.429 0.806-0.587 1.234-0.011 0.037-0.015 0.078-0.026 0.117-0.012 0.031-3e-3 0.063 8e-3 0.096 0.113 0.377 0.23 0.75 0.348 1.129 0.187 0.599 0.375 1.199 0.557 1.797 0.107 0.347 0.218 0.693 0.324 1.039 9e-3 0.031 0.014 0.072 0.056 0.084 0.033-0.016 0.038-0.047 0.047-0.077 0.132-0.382 0.268-0.765 0.393-1.148 0.09-0.27 0.191-0.537 0.334-0.787 0.062-0.117 0.139-0.231 0.236-0.324 0.027-0.026 0.055-0.049 0.088-0.069 0.099-0.054 0.197-0.039 0.273 0.051 0.076 0.092 0.115 0.201 0.143 0.313 0.043 0.187 0.06 0.38 0.066 0.572 0.012 0.449-0.042 0.889-0.119 1.326-0.027 0.148-0.086 0.291-0.135 0.432-0.209 0.597-0.401 1.201-0.604 1.802-0.015 0.043-0.038 0.086-0.038 0.135 0.051 0.215 0.124 0.424 0.19 0.635 0.203 0.66 0.409 1.322 0.613 1.982 0.128 0.412 0.257 0.871 0.382 1.284 0.01 0.025 0.02-0.016 0.04 0 6e-3 0 0.011 3e-3 0.015 0 0.01-6e-3 9e-3 7e-3 0.012 0 0.137-0.405 0.275-0.825 0.402-1.235 0.181-0.601 0.345-1.207 0.477-1.822 0.076-0.35 0.076-0.332 0.193-1.051 0.117-0.717 0.158-3.277-0.04-4.535" fill="#666" fill-rule="evenodd"/></g><g id="g168" transform="translate(170.22 223.95)"><path id="path170" d="m0 0c0.034 0.686 0.183 1.504 0.295 2.252 0.086 0.566 0.178 1.135 0.303 1.695 0.111 0.506 0.24 1.008 0.467 1.477 0.075 0.156 0.166 0.303 0.277 0.441 0.231 0.283 0.527 0.389 0.89 0.35 0.595-0.059 1.045-0.371 1.418-0.813 0.28-0.334 0.488-0.709 0.651-1.113 0.034-0.088 0.083-0.174 0.093-0.273 0-0.094-0.04-0.178-0.067-0.264-0.207-0.648-0.409-1.291-0.615-1.938-0.157-0.49-0.31-0.978-0.467-1.466-0.011-0.034-0.022-0.141-0.051-0.164 0 0-0.041 0.119-0.051 0.15-0.081 0.227-0.163 0.455-0.246 0.684-0.055 0.158-0.104 0.324-0.196 0.47-0.034 0.057-0.075 0.112-0.129 0.158-0.192 0.174-0.423 0.135-0.6-0.068-0.186-0.215-0.269-0.476-0.297-0.758-0.038-0.353 0.049-0.683 0.166-1.013 0.108-0.307 0.208-0.616 0.311-0.926 0.097-0.295 0.198-0.59 0.298-0.883 0.011-0.031 0.028-0.064 0.024-0.102-0.075-0.238-0.151-0.474-0.225-0.714-0.131-0.403-0.26-0.877-0.389-1.284-9e-3 -0.033-0.014 0.022-0.046 0-0.413-3e-3 -0.829-9e-3 -1.245 0-3e-3 -2e-3 -7e-3 -5e-3 -5e-3 0-0.045-0.011-0.055-2e-3 -0.097 0-0.09 0.344-0.203 0.985-0.264 1.317 0 0-0.241 1.617-0.203 2.785" fill="#666" fill-rule="evenodd"/></g><g id="g172" transform="translate(172.95 209.27)"><path id="path174" d="m0 0c-0.068-0.145-0.101-0.303-0.148-0.453-0.204-0.649-0.401-1.297-0.603-1.945-0.098-0.319-0.198-0.635-0.299-0.952-0.08-0.263-0.16-0.527-0.24-0.791-0.041 0.112-0.083 0.223-0.125 0.332-0.11 0.321-0.225 0.643-0.336 0.961-0.183 0.522-0.365 1.041-0.547 1.561-0.169 0.475-0.338 0.945-0.503 1.416-0.192 0.545-0.384 1.088-0.575 1.631-0.061 0.168-0.129 0.334-0.175 0.508-0.011 0.05 0.014 0.097 0.026 0.144 0.135 0.422 0.269 0.842 0.401 1.264 0.257 0.795 0.506 1.662 0.758 2.455 0.01 0.033 0.016-0.018 0.051 0h0.22c0.031-0.012 0.032 0.025 0.043 0 0.16-0.486 0.332-1.022 0.493-1.504 0.254-0.74 0.506-1.475 0.758-2.211 0.172-0.51 0.347-1.016 0.521-1.525 0.091-0.266 0.181-0.536 0.275-0.799 9e-3 -0.031 0.037-0.063 5e-3 -0.092" fill="#666" fill-rule="evenodd"/></g><g id="g176" transform="translate(173.42 224.21)"><path id="path178" d="m0 0c0.164 0.52 0.33 1.039 0.5 1.561 0.23 0.732 0.465 1.468 0.697 2.199 0.251-0.744 0.503-1.489 0.752-2.235 0.393-1.162 0.785-2.324 1.176-3.484 0.075-0.225 0.152-0.449 0.225-0.676 0.01-0.029 0-0.062-9e-3 -0.094-0.164-0.523-0.327-1.105-0.484-1.628-0.017-0.059-0.044-2e-3 -0.104 0-0.398 0-0.792-2e-3 -1.187 0-0.032 5e-3 -0.043-0.026-0.051 0-0.164 0.462-0.332 0.976-0.496 1.441-0.197 0.549-0.395 1.098-0.591 1.641-0.142 0.398-0.282 0.787-0.422 1.179-0.011 0.03-0.029 0.061-6e-3 0.096" fill="#666" fill-rule="evenodd"/></g><g id="g180" transform="translate(170.63 215.4)"><path id="path182" d="m0 0c-0.411-1.291-0.823-2.57-1.235-3.863-0.079 0.185-0.136 0.384-0.208 0.58-0.144 0.404-0.285 0.812-0.426 1.22-0.189 0.538-0.375 1.075-0.56 1.612-0.046 0.127-0.092 0.324-0.137 0.451h0.028c0.017 0.016 0.038 0 0.063 0h2.459 0.016z" fill="#666" fill-rule="evenodd"/></g><g id="g184" transform="translate(174.97 219.85)"><path id="path186" d="m0 0c0.401-2e-3 0.798 0 1.201 0 0.038-2e-3 0.06-0.047 0.075 0 0.116 0.391 0.238 0.824 0.361 1.217 0.054 0.168 0.103 0.338 0.155 0.506 0.104-0.295 0.207-0.592 0.308-0.891 0.098-0.279 0.192-0.551 0.29-0.832 6e-3 -6e-3 2e-3 -2e-3 -6e-3 0-0.015-2e-3 -0.032 0-0.046 0-0.762-2e-3 -1.52 0-2.281 0-0.02 0-0.038-2e-3 -0.057 0-4e-3 4e-3 -4e-3 -2e-3 0 0" fill="#666" fill-rule="evenodd"/></g><g id="g188" transform="translate(173.65 211.5)"><path id="path190" d="m0 0c-0.08 0.221-0.157 0.439-0.233 0.658-0.372 1.088-0.742 2.156-1.117 3.24h0.059 2.45 0.049c-0.153-0.492-0.306-0.97-0.457-1.462-0.132-0.422-0.263-0.844-0.393-1.262-0.122-0.393-0.241-0.783-0.358-1.174" fill="#666" fill-rule="evenodd"/></g><g id="g192" transform="translate(172.68 221.85)"><path id="path194" d="m0 0c0.084-0.244 0.17-0.486 0.251-0.732 0.147-0.43 0.286-0.84 0.429-1.268-0.25-2e-3 -0.502 0-0.75 0-0.194-2e-3 -0.383-2e-3 -0.573 0 0.124 0.393 0.248 0.766 0.373 1.158 0.089 0.28 0.178 0.565 0.27 0.842" fill="#666" fill-rule="evenodd"/></g><g id="g196" transform="translate(172.03 219.85)"><path id="path198" d="m0 0c0.443 4e-3 0.887 4e-3 1.328 0 0.467 6e-3 0.936-2e-3 1.401 0 0.07 0 0.141 6e-3 0.209 0 0.757-4e-3 1.511 0 2.267 0 0.043-2e-3 0.086 0.02 0.124 0 0.031-4e-3 0.063 0 0.092 0 3.766-2e-3 7.534-0.018 11.299-0.018h0.071c0.02-3e-3 0.028-0.015 0.018-0.035-0.051-0.189-0.104-0.375-0.155-0.562-0.142-0.531-0.283-1.063-0.422-1.594-0.13-0.484-0.255-0.975-0.384-1.459-0.151-0.572-0.304-1.143-0.452-1.713-0.121-0.463-0.253-0.922-0.411-1.369-0.277-0.781-0.622-1.531-1.089-2.217-0.25-0.369-0.529-0.713-0.853-1.017-0.336-0.323-0.708-0.594-1.123-0.819-0.452-0.244-0.934-0.406-1.438-0.513-0.202-0.043-0.41-0.065-0.615-0.09-0.03-0.012-0.061 2e-3 -0.091-0.012-0.036 0-0.071-2e-3 -0.106-4e-3 -0.045-0.012-0.09 4e-3 -0.135-0.01h-0.637c-0.058 0.014-0.117-2e-3 -0.175 0.01-0.04 2e-3 -0.082 4e-3 -0.122 4e-3 -0.038 0.016-0.081-2e-3 -0.119 0.012-0.029 2e-3 -0.064 2e-3 -0.093 4e-3 -0.027 0.011-0.061-2e-3 -0.089 7e-3 -0.024 2e-3 -0.044 4e-3 -0.066 4e-3 -0.025 0.014-0.049 0-0.078 0.012-0.016 0-0.034 2e-3 -0.053 2e-3 -0.021 0.016-0.049 0-0.073 0.014-0.343 0.049-0.684 0.105-1.02 0.197-0.449 0.127-0.879 0.303-1.266 0.568-0.438 0.301-0.773 0.69-0.99 1.176-0.139 0.322-0.212 0.664-0.247 1.014-0.011 0.031 3e-3 0.062-9e-3 0.092-2e-3 0.05-4e-3 0.097-5e-3 0.148-9e-3 0.094-9e-3 0.189 0 0.283 1e-3 0.049 3e-3 0.1 5e-3 0.151 0.012 0.039-4e-3 0.08 9e-3 0.119 1e-3 0.019 3e-3 0.045 3e-3 0.064 0.014 0.024 0 0.051 0.011 0.076 0.01 0.182 0.041 0.368 0.078 0.547 0.044 0.213 0.084 0.43 0.155 0.637 9e-3 0.035 0.017 0.072 0.027 0.109 4e-3 0.02 0.016 0.03 0.033 0.03h0.065 7.462c0.03 0 0.06-8e-3 0.089 4e-3 0.243 0.023 0.406 0.164 0.52 0.367 0.072 0.133 0.117 0.281 0.129 0.435 7e-3 0.075 7e-3 0.149 0 0.223-0.023 0.246-0.098 0.463-0.321 0.602-0.057 0.037-0.117 0.058-0.183 0.058-0.073 0.014-0.145 4e-3 -0.22 6e-3 -0.212 4e-3 -0.432-6e-3 -0.648 4e-3 -0.27 0-0.543 4e-3 -0.812 6e-3l-8.045-6e-3c-8e-3 -4e-3 -0.017 0-0.026 0-0.027-4e-3 -0.059 0-0.086 0h-2.378-0.091c-0.478-4e-3 -0.959-4e-3 -1.435 0-0.079-4e-3 -0.156-4e-3 -0.234 0-0.603-4e-3 -1.2 0-1.8 0h-0.658-0.08-0.029c0.101 0.297 0.2 0.697 0.298 0.998 0.108 0.328 0.214 0.654 0.32 0.982 0.124 0.393 0.252 0.784 0.381 1.172 0.123 0.381 0.245 0.922 0.368 1.301h0.114 2.486z" fill="#666" fill-rule="evenodd"/></g><g id="g200" transform="translate(161.72 235.14)"><path id="path202" d="m0 0h0.65c0-0.229-4e-3 -0.449 0-0.67 8e-3 -0.57 0.201-0.812 0.762-0.871 0.385-0.037 0.778-0.039 1.159 8e-3 0.518 0.058 0.796 0.416 0.801 0.931 3e-3 0.381 0 0.76 0 1.168h-5.947v1.034h6.625c7e-3 -0.012 0.023-0.026 0.023-0.039-0.012-0.916-9e-3 -1.831-0.038-2.745-0.011-0.246-0.099-0.5-0.196-0.73-0.118-0.301-0.351-0.508-0.667-0.607-0.673-0.211-1.357-0.241-2.046-0.075-0.665 0.16-1.064 0.573-1.12 1.254-0.037 0.442-6e-3 0.887-6e-3 1.342" fill="#666"/></g><g id="g204" transform="translate(161.73 200.49)"><path id="path206" d="m0 0c-0.372-0.049-0.747-0.068-1.107-0.154-0.535-0.129-0.776-0.475-0.785-1.022-5e-3 -0.592 0.218-0.939 0.768-1.082 0.741-0.197 1.497-0.197 2.24-4e-3 0.524 0.135 0.745 0.491 0.733 1.08-0.012 0.578-0.242 0.912-0.761 1.034-0.353 0.08-0.721 0.099-1.088 0.148m-0.079-3.498c-0.363 0.045-0.79 0.064-1.196 0.154-0.827 0.186-1.208 0.596-1.286 1.438-0.046 0.533-0.028 1.082 0.037 1.611 0.08 0.645 0.499 1.039 1.116 1.193 0.886 0.225 1.781 0.221 2.671 0.028 0.734-0.158 1.193-0.614 1.251-1.369 0.045-0.563 0.048-1.147-0.031-1.703-0.109-0.77-0.68-1.114-1.39-1.237-0.369-0.062-0.743-0.074-1.172-0.115" fill="#666"/></g><g id="g208" transform="translate(156.59 224.3)"><path id="path210" d="m0 0c0.732-0.295 1.436-0.543 2.108-0.865 0.475-0.227 0.884-0.217 1.371-0.024 1.306 0.518 2.634 0.983 3.955 1.469 0.064 0.024 0.13 0.041 0.224 0.072 0-0.355 9e-3 -0.687-9e-3 -1.017-5e-3 -0.067-0.115-0.153-0.195-0.184-0.983-0.365-1.966-0.728-2.95-1.092-0.06-0.021-0.117-0.045-0.218-0.084 0.181-0.078 0.329-0.144 0.479-0.207 0.907-0.365 1.811-0.734 2.718-1.095 0.131-0.049 0.184-0.116 0.18-0.258-0.012-0.26-5e-3 -0.522-5e-3 -0.817-0.433 0.176-0.84 0.334-1.24 0.502-2.049 0.827-4.095 1.657-6.142 2.479-0.208 0.082-0.307 0.18-0.283 0.41 0.026 0.219 7e-3 0.445 7e-3 0.711" fill="#666"/></g><g id="g212" transform="translate(162.37 209.58)"><path id="path214" d="m0 0h-0.664c0 0.154 0.015 0.305-6e-3 0.451-0.029 0.194-0.066 0.391-0.134 0.574-0.074 0.188-0.231 0.303-0.443 0.307-0.23 8e-3 -0.461 0.029-0.689 4e-3 -0.407-0.043-0.573-0.221-0.589-0.637-0.018-0.429-4e-3 -0.859-4e-3 -1.324h0.243c0.852 0 1.704 0 2.556 2e-3 0.592 0 0.918 0.312 0.933 0.906 0.011 0.467 2e-3 0.938 2e-3 1.414h0.701c-0.042-0.787-0.045-1.564-0.142-2.334-0.08-0.642-0.469-0.974-1.114-1-1.074-0.043-2.148-0.031-3.222-0.043-0.206-2e-3 -0.409 0-0.666 0 0 0.387-7e-3 0.739 2e-3 1.096 0.019 0.633 0 1.277 0.084 1.902 0.095 0.733 0.415 1.018 1.141 1.092 0.357 0.041 0.727 4e-3 1.09-0.035 0.378-0.037 0.61-0.283 0.735-0.629 0.204-0.559 0.192-1.141 0.186-1.746" fill="#666"/></g><g id="g216" transform="translate(159.84 226.62)"><path id="path218" d="m0 0h1.455c0.454 0 0.908-2e-3 1.359 0 0.564 6e-3 0.896 0.314 0.916 0.879 0.013 0.389 4e-3 0.779 4e-3 1.17v0.275h0.642c6e-3 -0.043 0.02-0.094 0.02-0.146-0.014-0.66-0.011-1.323-0.056-1.981-0.031-0.459-0.204-0.884-0.66-1.086-0.217-0.099-0.477-0.144-0.715-0.15-1.186-0.016-2.375-6e-3 -3.56-8e-3 -0.022 0-0.046 0.01-0.106 0.026 0 0.308-8e-3 0.623 2e-3 0.937 0.015 0.668-0.011 1.344 0.067 2.002 0.092 0.746 0.401 1.029 1.148 1.115 0.38 0.047 0.775 2e-3 1.156-0.051 0.403-0.054 0.635-0.353 0.706-0.722 0.101-0.526 0.141-1.067 0.21-1.625h-0.723c0 0.152 0.024 0.312-6e-3 0.467-0.043 0.216-0.086 0.457-0.199 0.644-0.18 0.303-0.52 0.221-0.805 0.246-0.077 6e-3 -0.159-0.013-0.236-0.023-0.418-0.051-0.596-0.217-0.613-0.641-0.021-0.43-6e-3 -0.861-6e-3 -1.328" fill="#666"/></g><g id="g220" transform="translate(159.17 219.44)"><path id="path222" d="m0 0h0.646c0-0.41-5e-3 -0.812 3e-3 -1.217 6e-3 -0.205 0.021-0.416 0.068-0.613 0.092-0.375 0.334-0.619 0.731-0.647 0.3-0.023 0.605-0.037 0.9-2e-3 0.374 0.043 0.521 0.223 0.566 0.598 0.021 0.174 0.035 0.348 0.048 0.524 0.098 1.306 0.651 1.513 1.612 1.593 0.348 0.028 0.713-0.056 1.056-0.136 0.601-0.143 0.922-0.575 0.958-1.168 0.041-0.674 0.01-1.352 0.01-2.047h-0.631c0 0.326 2e-3 0.65-4e-3 0.972-4e-3 0.202-0.013 0.399-0.041 0.596-0.047 0.338-0.227 0.582-0.578 0.645-0.233 0.039-0.475 0.074-0.709 0.058-0.39-0.023-0.582-0.236-0.621-0.623-0.034-0.34-0.056-0.683-0.096-1.021-0.059-0.481-0.316-0.797-0.787-0.946-0.727-0.222-1.453-0.273-2.183-0.033-0.587 0.196-0.911 0.621-0.939 1.223-0.034 0.738-9e-3 1.48-9e-3 2.244" fill="#666"/></g><g id="g224" transform="translate(159.15 191.86)"><path id="path226" d="m0 0v1.027h1.154c0.782 0 1.563-2e-3 2.343 0 0.585 4e-3 0.905 0.307 0.928 0.885 0.014 0.326 5e-3 0.652 5e-3 0.979 0 0.033-8e-3 0.062-0.017 0.127h-4.415v1.027h5.062c2e-3 0 0.02-0.014 0.02-0.026-0.012-0.939-3e-3 -1.876-0.052-2.814-0.014-0.273-0.168-0.561-0.317-0.803-0.166-0.273-0.469-0.394-0.781-0.398-1.302-0.01-2.606-4e-3 -3.93-4e-3" fill="#666"/></g><g id="g228" transform="translate(165.18 206.69)"><path id="path230" d="m0 0v-1.045h-0.933v-1.174h-0.66v1.17h-0.25c-0.925 0-1.848 4e-3 -2.77 0-0.128 0-0.256-0.015-0.377-0.045-0.267-0.066-0.35-0.185-0.35-0.459v-0.422h-0.687c0.017 0.495-0.077 0.993 0.07 1.479 0.098 0.32 0.349 0.49 0.666 0.49 1.758 8e-3 3.514 6e-3 5.291 6e-3" fill="#666"/></g><g id="g232" transform="translate(165.19 214.78)"><path id="path234" d="m0 0v-1.047h-0.939v-1.182h-0.662v1.176h-0.288-2.673c-0.118 0-0.239 0-0.355-0.019-0.317-0.061-0.43-0.201-0.427-0.524v-0.375h-0.686c0.016 0.498-0.081 1.004 0.08 1.498 0.093 0.287 0.321 0.424 0.612 0.459 0.119 0.014 0.237 0.014 0.356 0.014h4.678 0.304z" fill="#666"/></g><path id="path236" d="m165.79 230.64h-6.644v1.031h6.644v-1.031z" fill="#666"/><path id="path238" d="m164.24 202.61h-5.086v1.021h5.086v-1.021z" fill="#666"/><path id="path240" d="m164.88 203.63h0.904v-1.023h-0.904v1.023z" fill="#666"/><g id="g242" transform="translate(167.81 215.12)"><path id="path244" d="m0 0h7.379" fill="none" stroke="#d1d2d4" stroke-miterlimit="10" stroke-width=".552"/></g><g id="g246" transform="translate(170.41 220.12)"><path id="path248" d="m0 0h7.38" fill="none" stroke="#d1d2d4" stroke-miterlimit="10" stroke-width=".552"/></g><g id="g250" transform="translate(159.06 109.45)"><path id="path252" d="m0 0h17.146c0.318 0 0.578 0.26 0.578 0.578v16.845c0 0.318-0.26 0.578-0.578 0.578h-17.146c-0.318 0-0.578-0.26-0.578-0.578v-16.845c0-0.318 0.26-0.578 0.578-0.578m0.988 16.586h15.17v-15.171h-15.17v15.171z" fill="#bc82a1"/></g><g id="g254" transform="translate(177.02 56.048)"><path id="path256" d="m0 0c0 5.15-4.175 9.325-9.325 9.325s-9.325-4.175-9.325-9.325 4.175-9.325 9.325-9.325 9.325 4.175 9.325 9.325m-9.139-10.81c-5.893 0-10.67 4.778-10.67 10.671s4.777 10.67 10.67 10.67 10.671-4.777 10.671-10.67-4.778-10.671-10.671-10.671" fill="#ca6869"/></g><g id="g258" transform="translate(192.54 77.231)"><path id="path260" d="m0 0c-0.178 0.308-0.072 0.706 0.237 0.884l16.186 9.35c0.308 0.178 0.706 0.072 0.884-0.236 0.178-0.309 0.072-0.707-0.237-0.885l-16.186-9.35c-0.308-0.178-0.706-0.071-0.884 0.237" fill="#5e9d81"/></g><g id="g262" transform="translate(193.13 76.908)"><path id="path264" d="m0 0c-0.356 0-0.647 0.291-0.647 0.647v18.61c0 0.356 0.291 0.647 0.647 0.647s0.647-0.291 0.647-0.647v-18.61c0-0.356-0.291-0.647-0.647-0.647" fill="#5e9d81"/></g><g id="g266" transform="translate(192.5 96.489)"><path id="path268" d="m0 0c0.178 0.308 0.576 0.415 0.884 0.238l16.173-9.321c0.308-0.177 0.415-0.575 0.237-0.884-0.177-0.308-0.575-0.415-0.884-0.237l-16.172 9.32c-0.309 0.178-0.416 0.576-0.238 0.884" fill="#5e9d81"/></g><g id="g270" transform="translate(128.03 78.839)"><path id="path272" d="m0 0c-0.301 0.301-0.301 0.793 0 1.093l15.29 15.291c0.301 0.3 0.793 0.3 1.093 0h1e-3c0.3-0.301 0.3-0.793 0-1.094l-15.291-15.29c-0.3-0.301-0.792-0.301-1.093 0" fill="#5e9ec4"/></g><g id="g274" transform="translate(127.95 95.145)"><path id="path276" d="m0 0c0.301 0.301 0.793 0.301 1.093 0l15.29-15.29c0.301-0.301 0.301-0.793 0-1.094-0.3-0.3-0.792-0.3-1.093 0l-15.29 15.291c-0.301 0.3-0.301 0.792 0 1.093" fill="#5e9ec4"/></g></g></g></g></svg>
