<?xml version="1.0" encoding="UTF-8"?>
<svg id="svg2" width="194" height="346" version="1.1" viewBox="0 0 194 346" xmlns="http://www.w3.org/2000/svg" xmlns:cc="http://creativecommons.org/ns#" xmlns:dc="http://purl.org/dc/elements/1.1/" xmlns:rdf="http://www.w3.org/1999/02/22-rdf-syntax-ns#" xmlns:xlink="http://www.w3.org/1999/xlink">
 <metadata id="metadata8">
  <rdf:RDF>
   <cc:Work rdf:about="">
    <dc:format>image/svg+xml</dc:format>
    <dc:type rdf:resource="http://purl.org/dc/dcmitype/StillImage"/>
   </cc:Work>
  </rdf:RDF>
 </metadata>
 <g id="g1704">
  <path id="path259853" d="m193.91 247.32c-0.0995-1.5242-0.15999-3.0465-0.25744-4.5727-0.0818-1.0849-0.12272-2.2145-0.24219-3.2559-0.17066-0.64093-0.54014-1.1843-0.8086-1.7774-0.13923-0.2604-0.22427-0.4326-0.38778-0.6093-0.11855-0.1281-0.263-0.29868-0.41867-0.31448-0.1603-0.02-0.42584-0.0515-0.49477-0.0601 0.15922 2.2268 0.25578 4.5429 0.21908 6.6983-0.0452 2.6543-0.12955 5.2224-0.44815 8.3303-0.31861 3.1079-0.98763 6.7193-1.7417 10.115s-1.8292 6.6433-3.077 9.8971-2.6253 6.4543-4.2759 9.6071c-1.6507 3.1528-3.56 6.2073-5.2524 8.6722-1.6924 2.4649-3.1624 4.3283-5.154 6.5046-1.9917 2.1764-4.3382 4.5615-6.9589 6.9492-1.4677 1.3373-3.2951 2.5971-4.5136 3.7976 0.16191 0.0473 0.437 0.30674 0.81743 0.26674 0.38021-0.0826 0.44489-0.14058 0.73716-0.26233 0.92821-0.58099 1.8969-1.153 2.7793-1.8001 1.3066-1.0214 2.6231-1.989 3.9316-3.0124 1.5059-1.3089 3.0116-2.6188 4.5195-3.9297 1.3742-1.404 2.7508-2.8088 4.127-4.2148 0.68597-0.80342 1.3726-1.6086 2.0605-2.4141 0.82683-0.62516 1.6536-1.2498 2.4824-1.877 1.0059-0.99222 2.0136-1.9862 3.0215-2.9805 0.85617-1.044 1.7896-2.0328 2.5723-3.1348 1.1209-1.5782 2.1435-3.2338 3.0254-4.957 0.51645-1.0091 0.87792-2.089 1.3184-3.1348 0.44768-1.3982 0.99867-2.7696 1.3457-4.1973 0.35693-1.4684 0.60518-2.9667 0.75195-4.4707 0.12456-1.2763 0.0705-2.5625 0.10742-3.8457-5e-3 -1.7667-9e-3 -3.534-0.0117-5.3027 0.0143-0.84123 0.0306-1.6841 0.0469-2.5274 0.0559-1.3182 0.11198-2.6368 0.16993-3.957 0.0144-1.4076 9e-3 -4.23 9e-3 -4.23z" fill="#bd3786"/>
  <path id="path259853-9" d="m193.83 98.635c-0.0995 1.5242-0.15999 3.0465-0.25744 4.5727-0.0818 1.0849-0.12272 2.2145-0.24219 3.2559-0.17066 0.64093-0.54014 1.1843-0.8086 1.7774-0.13923 0.2604-0.22427 0.4326-0.38779 0.6093-0.11854 0.1281-0.26299 0.29868-0.41866 0.31448-0.1603 0.02-0.42584 0.0515-0.49477 0.0601 0.15922-2.2268 0.25578-4.5429 0.21908-6.6983-0.0452-2.6543-0.12956-5.2224-0.44816-8.3303-0.31861-3.1079-0.98762-6.7193-1.7417-10.115s-1.8292-6.6433-3.077-9.8971-2.6252-6.4543-4.2759-9.6071c-1.6507-3.1528-3.56-6.2073-5.2524-8.6722-1.6924-2.4649-3.1624-4.3283-5.154-6.5046-1.9917-2.1764-4.3382-4.5615-6.9589-6.9492-1.4677-1.3373-3.2951-2.5971-4.5136-3.7976 0.16191-0.0473 0.437-0.30674 0.81743-0.26674 0.38021 0.0826 0.44489 0.14058 0.73716 0.26233 0.92821 0.58099 1.8969 1.153 2.7793 1.8001 1.3066 1.0214 2.6231 1.989 3.9316 3.0124 1.5059 1.3089 3.0116 2.6188 4.5195 3.9297 1.3742 1.404 2.7508 2.8088 4.127 4.2148 0.68597 0.80342 1.3726 1.6086 2.0605 2.4141 0.82683 0.62516 1.6536 1.2498 2.4824 1.877 1.0058 0.99222 2.0136 1.9862 3.0215 2.9805 0.85617 1.044 1.7896 2.0328 2.5723 3.1348 1.1209 1.5782 2.1435 3.2338 3.0254 4.957 0.51645 1.0091 0.87792 2.089 1.3184 3.1348 0.44768 1.3982 0.99867 2.7696 1.3457 4.1973 0.35693 1.4684 0.60518 2.9667 0.75195 4.4707 0.12456 1.2763 0.0705 2.5625 0.10742 3.8457-5e-3 1.7667-9e-3 3.534-0.0117 5.3027 0.0143 0.84123 0.0306 1.6841 0.0469 2.5273 0.0559 1.3182 0.11198 2.6368 0.16993 3.957 0.0144 1.4076 9e-3 4.23 9e-3 4.23z" fill="#bd3786"/>
  <path id="path2319" d="m191.54 102.77c-0.0452-2.6543-0.16382-5.2984-0.48242-8.4062-0.31861-3.1079-0.83773-6.6806-1.5918-10.076-0.75407-3.3956-1.7425-6.6134-2.9902-9.8672-1.2477-3.2538-2.7634-6.564-4.4141-9.7168-1.6507-3.1528-3.4404-6.1601-5.1328-8.625s-3.2349-4.3236-5.2266-6.5c-1.9917-2.1764-4.4379-4.6689-7.0586-7.0566-2.6207-2.3878-5.3949-4.6559-8.0293-6.6582-2.6344-2.0023-5.1104-3.725-8.4024-5.9473-3.2919-2.2223-7.3999-4.9449-11.078-7.1035-3.6782-2.1586-6.8707-3.7248-9.9531-5.2598-3.0824-1.535-6.0801-3.0511-9.7324-4.5215-3.6523-1.4704-7.9866-2.9086-11.816-4.1836s-7.2087-2.4055-10.611-3.3203-6.8547-1.6232-10.527-2.3144c-3.6727-0.69127-7.567-1.3655-11.787-1.875-4.2201-0.50954-8.7677-0.85447-13.32-1.0606-4.5526-0.20608-9.1105-0.27316-12.986-0.10547-3.8758 0.16769-7.0735 0.57071-10.18 1.2734s-6.1224 1.7046-8.7734 2.8848-4.9598 2.551-7.1055 4.0293-4.1407 3.0705-5.834 4.7109c-1.6933 1.6404-3.085 3.3291-4.4336 5.0605-1.3486 1.7314-2.6533 3.5056-3.8418 5.6524-1.1885 2.1468-2.2606 4.6677-3.1289 7.1875s-1.5324 5.0389-2 7.3379c-0.46763 2.299-0.73984 4.3772-0.89063 6.5801-0.15078 2.2029-0.17923 4.5309 0.041 6.8828 0.22025 2.3519 0.68959 4.7274 1.418 7.2793 0.72838 2.5519 1.7159 5.2794 3.0273 7.9648s2.9464 5.3292 4.793 8.0879c1.8466 2.7587 3.9049 5.634 5.627 8.1719 1.722 2.5379 3.1218 4.7579 4.6152 7.1426 1.4935 2.3847 3.087 4.9426 5.0176 8.043 1.9306 3.1004 4.1971 6.7441 6.1426 10.232 1.9455 3.4883 3.5691 6.8223 5.0195 9.9043s2.7283 5.9114 3.9258 8.7774 2.3144 5.7683 3.334 8.707 1.9407 5.9126 2.7188 9.1426c0.77808 3.23 1.4132 6.7158 1.9219 10.027 0.50869 3.3116 0.90091 6.5254 1.168 9.5977 0.24739 2.846 0.37926 5.5837 0.42968 8.1562-0.0505 2.572-0.18236 5.309-0.42968 8.1543-0.26706 3.0723-0.65928 6.2861-1.168 9.5977-0.5087 3.3116-1.1438 6.7954-1.9219 10.025-0.77807 3.23-1.6992 6.2058-2.7188 9.1445s-2.1365 5.8391-3.334 8.7051-2.4753 5.6973-3.9258 8.7793c-1.4504 3.082-3.074 6.416-5.0195 9.9043-1.9455 3.4883-4.212 7.1301-6.1426 10.23s-3.5241 5.6583-5.0176 8.043c-1.4935 2.3847-2.8932 4.6066-4.6152 7.1445-1.722 2.5379-3.7804 5.4112-5.627 8.1699-1.8466 2.7587-3.4815 5.4025-4.793 8.0879-1.3115 2.6854-2.299 5.4129-3.0273 7.9648-0.72838 2.5519-1.1977 4.9274-1.418 7.2793-0.22025 2.3519-0.1918 4.6799-0.041 6.8828 0.15079 2.2029 0.423 4.2811 0.89063 6.5801 0.46763 2.299 1.1317 4.82 2 7.3398s1.9404 5.0388 3.1289 7.1856c1.1885 2.1468 2.4932 3.9209 3.8418 5.6523 1.3486 1.7314 2.7403 3.4201 4.4336 5.0606 1.6933 1.6404 3.6884 3.2326 5.834 4.7109 2.1456 1.4784 4.4545 2.8492 7.1055 4.0293s5.6673 2.184 8.7734 2.8867 6.3039 1.1038 10.18 1.2715c3.8758 0.16769 8.4337 0.10257 12.986-0.10351 4.5526-0.20608 9.1002-0.55296 13.32-1.0625 4.2201-0.50954 8.1144-1.1818 11.787-1.873 3.6727-0.69127 7.1247-1.4016 10.527-2.3164 3.4027-0.91478 6.7815-2.0433 10.611-3.3184 3.8298-1.275 8.1641-2.7132 11.816-4.1836 3.6523-1.4704 6.65-2.9865 9.7324-4.5215 3.0824-1.535 6.2749-3.1031 9.9531-5.2617 3.6782-2.1586 7.7862-4.8812 11.078-7.1035 3.292-2.2223 5.7679-3.9449 8.4024-5.9473 2.6344-2.0023 5.4086-4.2685 8.0293-6.6562 2.6207-2.3878 5.0669-4.8822 7.0586-7.0586 1.9916-2.1764 3.5342-4.0351 5.2266-6.5 1.6924-2.4649 3.4821-5.4722 5.1328-8.625 1.6507-3.1528 3.1664-6.463 4.4141-9.7168 1.2477-3.2538 2.2362-6.4716 2.9902-9.8672s1.2732-6.9683 1.5918-10.076c0.3186-3.1079 0.43718-5.752 0.48242-8.4062 0.0452-2.6543 0.0173-5.3186-0.26953-8.1016-0.28686-2.7829-0.8334-5.6823-1.668-9.0723s-1.9565-7.2696-2.9102-10.717-1.739-6.4632-2.5625-9.9355c-0.82353-3.4724-1.6856-7.4001-2.3105-11.262-0.62491-3.8616-1.0122-7.6561-1.2578-11.492s-0.34849-7.7147-0.40039-9.6543c0.0519-1.9396 0.15474-5.8182 0.40039-9.6543 0.24565-3.8361 0.63291-7.6286 1.2578-11.49 0.6249-3.8616 1.487-7.7913 2.3105-11.264 0.82353-3.4724 1.6089-6.4884 2.5625-9.9356s2.0756-7.3249 2.9102-10.715 1.3811-6.2913 1.668-9.0742 0.31477-5.4473 0.26953-8.1016z" fill="#e7e6e9"/>
  <ellipse id="path25693-4-8-1" transform="matrix(.69959 -.71454 -.73301 -.68022 0 0)" cx="-128.37" cy="-254.73" rx="50.646" ry="44.542" fill="#cececf"/>
  <ellipse id="path25693-4-8" transform="rotate(46.373)" cx="128.32" cy="-13.893" rx="49.044" ry="43.078" fill="#c3c2c7"/>
  <path id="path2307" d="m173.16 171.78h-2e-3c-0.0835-3.9987-0.16663-7.9984-0.29688-12.406-0.1307-4.4231-0.30734-9.2571-0.55859-13.715s-0.5762-8.5361-0.9375-12.65c-0.3613-4.1143-0.76033-8.2703-1.2012-12.02-0.44084-3.7492-0.92199-7.084-1.4785-11.137-0.55652-4.0527-1.1897-8.8315-1.8086-12.785s-1.2237-7.0736-1.8691-10.35c-0.64545-3.276-1.3333-6.7199-2.0684-9.877-0.73505-3.157-1.517-6.029-2.4766-8.7988-0.95962-2.7698-2.0951-5.4347-3.4375-8.1152-1.3424-2.6806-2.8918-5.3797-4.6602-8.0566-1.7683-2.6769-3.751-5.3233-5.4062-7.3848-1.6553-2.0614-2.9918-3.5438-4.5801-5.0957-1.5883-1.5519-3.4306-3.1772-5.5137-4.8613-2.0831-1.6842-4.4087-3.4293-6.9902-5.2051-2.5815-1.7758-5.4234-3.5881-8.3379-5.0742-2.9144-1.4861-5.8828-2.6367-9.1367-3.7344-3.2539-1.0977-6.8114-2.1472-10.633-2.959-3.8214-0.81179-7.8953-1.3836-11.416-1.6328-3.5207-0.24917-6.4817-0.17586-9.002 0.05469-2.5202 0.23054-4.6057 0.61855-6.9297 1.1426-2.324 0.52403-4.9088 1.1884-7.3867 2.0273-2.4779 0.83896-4.8444 1.8507-7.0371 3.0684-2.1927 1.2176-4.1923 2.63-6.0488 3.9375-1.8565 1.3075-3.6 2.5323-5.3711 4.0332-1.7711 1.5009-3.5541 3.2649-5.3476 5.1699-1.7935 1.9051-3.6079 3.9616-5.1953 6.1445-1.5874 2.183-2.9317 4.471-4.2461 6.7598-1.3144 2.2887-2.6076 4.5946-3.8574 6.9961-1.2499 2.4015-2.4584 4.9001-3.5762 7.5664-1.1178 2.6663-2.1404 5.4901-3.0645 8.1836-0.92402 2.6935-1.7507 5.2618-2.3496 7.3496-0.59892 2.0878-0.96685 3.6877-1.248 4.8164-0.2812 1.1287-0.4817 1.8103-0.66016 2.5664-0.17845 0.7561-0.33604 1.5617-0.46484 1.9395-0.12869 0.37747-0.11779 0.30815-0.27539 0.41406l0.55664 0.83008c0.15762-0.10592 0.48541-0.39017 0.66601-0.91992 0.1805-0.52943 0.31935-1.3091 0.49024-2.0332 0.17088-0.72404 0.37109-1.4101 0.65625-2.5547 0.28516-1.1446 0.64865-2.721 1.2402-4.7832 0.59159-2.0623 1.4139-4.6186 2.334-7.3008 0.92012-2.6821 1.9384-5.4864 3.043-8.1211 1.1045-2.6347 2.3004-5.1085 3.541-7.4922 1.2406-2.3837 2.5251-4.6764 3.8359-6.959 1.3109-2.2826 2.6396-4.5385 4.1894-6.6699 1.5499-2.1314 3.3354-4.1584 5.1133-6.0469s3.5368-3.6288 5.2656-5.0938c1.7288-1.465 3.4437-2.6686 5.3008-3.9766 1.8571-1.3079 3.8278-2.6974 5.959-3.8809 2.1312-1.1834 4.4432-2.1734 6.873-2.9961 2.4298-0.82268 4.9812-1.4809 7.2832-2 2.302-0.51907 4.3336-0.89523 6.8027-1.1211 2.4691-0.22587 5.3725-0.30007 8.8398-0.05469 3.4673 0.24539 7.504 0.8117 11.277 1.6133 3.7733 0.80158 7.2937 1.8408 10.521 2.9297 3.2278 1.0889 6.1461 2.2215 9.002 3.6777 2.8558 1.4563 5.666 3.2464 8.2266 5.0078 2.5605 1.7614 4.865 3.4905 6.9277 5.1582 2.0627 1.6677 3.882 3.2733 5.4434 4.7988 1.5613 1.5256 2.8626 2.9667 4.5 5.0059 1.6374 2.0392 3.6036 4.6693 5.3496 7.3125 1.746 2.6432 3.2768 5.3078 4.6016 7.9531 1.3248 2.6453 2.4421 5.2675 3.3867 7.9941 0.94465 2.7267 1.7174 5.5624 2.4473 8.6973 0.72989 3.1349 1.4174 6.5696 2.0625 9.8438 0.64506 3.2741 1.2454 6.3758 1.8613 10.311 0.61589 3.9348 1.2476 8.711 1.8047 12.768 0.55706 4.0566 1.0395 7.3837 1.4785 11.117 0.43899 3.7335 0.83644 7.8813 1.1973 11.99 0.36082 4.1089 0.68509 8.1755 0.93554 12.619 0.25045 4.4436 0.4261 9.2697 0.55664 13.688 0.13016 4.4046 0.2153 8.4037 0.29883 12.404-0.0837 4.7832-0.16864 9.5632-0.29883 14.357-0.13059 4.8092-0.30619 9.6345-0.55664 14.078s-0.57472 8.5102-0.93554 12.619c-0.36083 4.1089-0.75828 8.2568-1.1973 11.99-0.43899 3.7335-0.92146 7.0606-1.4785 11.117-0.55705 4.0566-1.1888 8.8328-1.8047 12.768-0.6159 3.9348-1.2163 7.0364-1.8613 10.311-0.64506 3.2741-1.3326 6.7088-2.0625 9.8438-0.72989 3.1349-1.5026 5.9706-2.4473 8.6973-0.94465 2.7267-2.062 5.3489-3.3867 7.9941-1.3248 2.6453-2.8555 5.3099-4.6016 7.9531-1.746 2.6432-3.7122 5.2714-5.3496 7.3106-1.6374 2.0392-2.9387 3.4822-4.5 5.0078-1.5613 1.5256-3.3806 3.1311-5.4434 4.7988s-4.3672 3.3968-6.9277 5.1582c-2.5605 1.7614-5.3707 3.5496-8.2266 5.0059-2.8559 1.4563-5.7742 2.5908-9.002 3.6797-3.2278 1.0889-6.7481 2.1262-10.521 2.9277-3.7733 0.80159-7.81 1.3698-11.277 1.6152s-6.3707 0.17119-8.8398-0.0547c-2.4691-0.22586-4.5007-0.60398-6.8027-1.123-2.302-0.51908-4.8534-1.1754-7.2832-1.998-2.4298-0.82269-4.7419-1.8126-6.873-2.9961s-4.1019-2.5729-5.959-3.8809c-1.8571-1.3079-3.572-2.5135-5.3008-3.9785-1.7288-1.465-3.4878-3.2034-5.2656-5.0918s-3.5634-3.9154-5.1133-6.0469c-1.5499-2.1314-2.8786-4.3873-4.1894-6.6699s-2.5954-4.5753-3.8359-6.959c-1.2406-2.3837-2.4365-4.8575-3.541-7.4922-1.1045-2.6347-2.1228-5.4409-3.043-8.123-0.92012-2.6821-1.7424-5.2366-2.334-7.2988-0.59158-2.0622-0.95507-3.6386-1.2402-4.7832-0.28516-1.1446-0.48537-1.8306-0.65625-2.5547-0.17089-0.72407-0.30974-1.5038-0.49024-2.0332-0.1806-0.52975-0.50841-0.814-0.66601-0.91992l-0.55664 0.83008c0.15761 0.10592 0.1467 0.0346 0.27539 0.41211 0.1288 0.37779 0.28639 1.1834 0.46484 1.9394 0.17846 0.75614 0.37896 1.4377 0.66016 2.5664 0.2812 1.1287 0.64913 2.7305 1.248 4.8184 0.59891 2.0878 1.4256 4.6541 2.3496 7.3476 0.92403 2.6935 1.9467 5.5192 3.0645 8.1856 1.1178 2.6663 2.3263 5.1649 3.5762 7.5664 1.2498 2.4015 2.543 4.7074 3.8574 6.9961 1.3144 2.2887 2.6587 4.5768 4.2461 6.7598 1.5874 2.183 3.4018 4.2395 5.1953 6.1445 1.7935 1.905 3.5765 3.669 5.3476 5.1699 1.7711 1.5009 3.5146 2.7257 5.3711 4.0332s3.8561 2.7199 6.0488 3.9375 4.5592 2.2294 7.0371 3.0684 5.0627 1.5033 7.3867 2.0273c2.324 0.52403 4.4095 0.91009 6.9297 1.1406 2.5202 0.23055 5.4812 0.30585 9.002 0.0566 3.5207-0.24917 7.5946-0.82102 11.416-1.6328 3.8214-0.81179 7.3789-1.8613 10.633-2.959 3.2539-1.0977 6.2223-2.2482 9.1367-3.7344 2.9144-1.4862 5.7564-3.2984 8.3379-5.0742 2.5815-1.7758 4.9072-3.5209 6.9902-5.2051 2.0831-1.6842 3.9254-3.3094 5.5137-4.8613 1.5883-1.5519 2.9248-3.0343 4.5801-5.0957 1.6553-2.0614 3.638-4.7098 5.4062-7.3867 1.7683-2.6769 3.3177-5.3761 4.6602-8.0566 1.3424-2.6806 2.4779-5.3454 3.4375-8.1152 0.95961-2.7699 1.7415-5.6398 2.4766-8.7969 0.73504-3.157 1.4229-6.6009 2.0684-9.877 0.64544-3.276 1.2503-6.396 1.8691-10.35 0.61885-3.9537 1.2521-8.7324 1.8086-12.785 0.55653-4.0527 1.0377-7.3895 1.4785-11.139s0.83987-7.9033 1.2012-12.018c0.3613-4.1143 0.68625-8.1926 0.9375-12.65s0.42782-9.2918 0.55859-14.107c0.13039-4.8012 0.21515-9.5852 0.29883-14.369 1.1e-4 -6e-3 -1.1e-4 -0.013 0-0.0195 1.4e-4 -8e-3 -1.4e-4 -0.0156 0-0.0234z" color="#000000" fill="#666" style="-inkscape-stroke:none"/>
  <circle id="path7034" transform="rotate(90)" cx="82.745" cy="-97.61" r="34.076" fill="#464849" stroke="#1f1f1f" stroke-linejoin="round" stroke-width="2.6"/>
  <g id="g212-5-7-2" transform="matrix(1.4796 -.073384 -.073384 -1.4796 76.921 66.86)" fill="#5c5f61">
   <path id="path214-9-9-8" d="m0 0-0.2 0.67-0.85 2.86-0.26 0.85 0.84-0.32 2.77-1.12 0.64-0.26-0.52-0.46-1.9-1.76z" fill="#5c5f61"/>
  </g>
  <g id="g216-4-6-9" transform="matrix(1.4796 -.073384 -.073384 -1.4796 74.812 105.68)" fill="#5c5f61">
   <path id="path218-9-0-7" d="m0 0 0.34 0.84 1.11 2.77 0.27 0.65 0.46-0.51 1.74-1.93 0.46-0.5-0.64-0.2-2.87-0.85z" fill="#5c5f61"/>
  </g>
  <g id="g220-0-4-3" transform="matrix(1.4796 -.073384 -.073384 -1.4796 120.04 105.52)" fill="#5c5f61">
   <path id="path222-9-1-6" d="m0 0-0.85 0.34-2.77 1.12-0.63 0.25 0.5 0.47 1.92 1.75 0.51 0.46 0.19-0.66 0.87-2.87z" fill="#5c5f61"/>
  </g>
  <g id="g224-1-0-1" transform="matrix(1.4796 -.073384 -.073384 -1.4796 117.64 66.709)" fill="#5c5f61">
   <path id="path226-7-4-2" d="m0 0-0.46 0.51-1.74 1.92-0.47 0.5 0.66 0.2 2.86 0.86 0.87 0.25-0.34-0.82-1.12-2.79z" fill="#5c5f61"/>
  </g>
  <path id="path230-7-8-9" d="m90.937 83.296c-0.17538-3.5361 2.5385-6.5333 6.0894-6.7094 3.5361-0.17539 6.5628 2.5371 6.7382 6.0732 0.17612 3.5509-2.5674 6.5496-6.1034 6.725-3.5509 0.17612-6.548-2.5378-6.7242-6.0888m13.84 30.846c0.0123-6.1e-4 0.0118-0.0113 0.0304-0.0122 0.21794-0.0812 0.36324-0.15168 0.44732-0.24433 0.0655-0.0937 0.14956-0.25971 0.14666-0.63054l-0.0335-10.84c-0.0112-3.4998 1.0324-6.3993 3.0528-8.4277 2.0211-2.0135 4.9776-3.1094 8.6107-3.1265l10.336-0.0381c0.50496 5e-3 0.84483-0.0115 0.96165-0.0477 0.10183-0.0354 0.0898-0.015 0.13964-0.18481 0.58962-2.4617 0.92153-5.0441 0.92334-7.6991-0.0118-2.6246-0.34789-5.1887-0.94161-7.6214l-5.2e-4 -0.01053c-0.0383-0.14685-0.0445-0.14654-0.12843-0.20171-0.0718-0.03612-0.27306-0.10507-0.64237-0.10182l-10.545 0.01836c-3.7668 0.0089-6.7521-0.97032-8.7953-2.9899-2.0431-2.0196-3.0969-5.0227-3.1072-8.8192l-0.0385-10.351c8e-3 -0.45984-0.0367-0.74005-0.0713-0.81272-0.0405-0.06837-0.0751-0.09982-0.22947-0.15144l-0.0309 0.0015c-0.0123 6.1e-4 -5.2e-4 -0.01053-0.0128-0.0099-2.4469-0.59034-4.9827-0.88004-7.6074-0.86848-2.5063 0.0057-4.9536 0.30584-7.2988 0.86664l-0.0123 6.11e-4c-0.32246 0.08637-0.6196 0.35742-0.6244 1.173l0.0192 10.263c0.0207 3.6921-1.0331 6.6811-3.1267 8.7279-2.1084 2.0476-5.1862 3.0902-9.056 3.119l-9.7575 0.0386c-0.54887-0.0032-0.85782 0.05311-0.98828 0.11939-0.11515 0.06586-0.15756 0.09828-0.22296 0.29249l2e-3 0.0303c-0.57852 2.4019-0.86895 4.9081-0.84487 7.4876 8e-3 2.5506 0.31068 5.0126 0.8705 7.3876 0.0722 0.2045 0.11801 0.2907 0.27153 0.38663 0.13744 0.0837 0.42395 0.17199 0.91274 0.16281l9.7146-7e-3c3.8105-0.0262 6.9031 1.0221 9.0638 3.0211 2.146 1.9996 3.3003 4.9384 3.2982 8.4834l0.0458 10.499c-5e-3 0.51897 0.0705 0.79767 0.13507 0.89801 0.0422 0.1015 0.11214 0.17238 0.48843 0.27227 2.3558 0.55064 4.8169 0.82896 7.338 0.82253 2.5211-6e-3 4.9683-0.30658 7.3136-0.86737" fill="#575a5c" stroke="#252427" stroke-width=".54175"/>
  <g id="g184-4-9-4-1" transform="matrix(1.4656 -.14548 -.14548 -1.4656 106.39 234.08)" fill="#a1a5ba" stroke="#4d4d4d" stroke-width=".91391">
   <path id="path186-8-0-9-0" d="m0 0c-4.54 0-8.21 3.67-8.21 8.21s3.67 8.21 8.21 8.21 8.21-3.67 8.21-8.21-3.68-8.21-8.21-8.21" fill="#a1a5ba" stroke="#4d4d4d" stroke-width=".91391"/>
  </g>
  <g id="g184-4-9-4-1-6" transform="matrix(1.4656 -.14548 -.14548 -1.4656 125.55 263.39)" fill="#a1a5ba" stroke="#4d4d4d" stroke-width=".91391">
   <path id="path186-8-0-9-0-3" d="m0 0c-4.54 0-8.21 3.67-8.21 8.21s3.67 8.21 8.21 8.21 8.21-3.67 8.21-8.21-3.68-8.21-8.21-8.21" fill="#a1a5ba" stroke="#4d4d4d" stroke-width=".91391"/>
  </g>
  <g id="g184-4-9-4-1-6-9" transform="matrix(1.4656 -.14548 -.14548 -1.4656 137.58 295.12)" fill="#a1a5ba" stroke="#4d4d4d" stroke-width=".91391">
   <path id="path186-8-0-9-0-3-4" d="m0 0c-4.54 0-8.21 3.67-8.21 8.21s3.67 8.21 8.21 8.21 8.21-3.67 8.21-8.21-3.68-8.21-8.21-8.21" fill="#a1a5ba" stroke="#4d4d4d" stroke-width=".91391"/>
  </g>
  <g id="g292-5-7-0-6" transform="matrix(1.4656 -.14548 -.14548 -1.4656 103.72 226.16)" fill="#3d3d3e">
   <path id="path294-6-4-9-3" d="m0 0 0.876 2.409-2.424 0.719-0.723 1.461 3.524-1.09 1.291 3.473 0.723-1.461-0.918-2.373 2.466-0.755 0.705-1.425-3.553 1.098-1.262-3.481z" fill="#3d3d3e"/>
  </g>
  <g id="g296-1-9-1-2" transform="matrix(1.4656 -.14548 -.14548 -1.4656 124.19 253.3)" fill="#3d3d3e">
   <path id="path298-1-9-7-0" d="m0 0-1.779-0.88-0.753 1.521 1.779 0.881 1.7 4.201 0.814-1.644-1.314-2.917 3.111-0.714 0.813-1.644z" fill="#3d3d3e"/>
  </g>
  <g id="g300-5-4-7-6" transform="matrix(1.4656 -.14548 -.14548 -1.4656 130.82 281.42)" fill="#3d3d3e">
   <path id="path302-9-5-1-1" d="m0 0 0.756 0.374 4.774-1.578-1.482 2.996 0.853 0.423 2.395-4.839-0.802-0.397-4.716 1.578 1.661-3.357-0.854-0.423z" fill="#3d3d3e"/>
  </g>
  <g id="g172-8-9-5-6" transform="matrix(1.3456 0 0 -1.3456 67.464 250.08)" fill="#4fa66a" stroke="#4d4d4d" stroke-width="1.0003">
   <path id="path174-4-3-9-9" d="m0 0c-6.4 0-11.57 5.16-11.57 11.56s5.17 11.58 11.57 11.58 11.58-5.18 11.58-11.58-5.18-11.56-11.58-11.56" fill="#4fa66a" stroke="#4d4d4d" stroke-width="1.0003"/>
  </g>
  <g id="g172-8-9-5-0-3" transform="matrix(1.3456 0 0 -1.3456 89.363 283.6)" fill="#fde862" stroke="#4d4d4d">
   <path id="path174-4-3-9-3-7" d="m0 0c-6.4 0-11.57 5.16-11.57 11.56s5.17 11.58 11.57 11.58 11.58-5.18 11.58-11.58-5.18-11.56-11.58-11.56" fill="#fde862" stroke="#4d4d4d"/>
  </g>
  <g id="g172-8-9-5-0-0-4" transform="matrix(1.3456 0 0 -1.3456 103.53 320.66)" fill="#2e5ccf" stroke="#4d4d4d">
   <path id="path174-4-3-9-3-9-5" d="m0 0c-6.4 0-11.57 5.16-11.57 11.56s5.17 11.58 11.57 11.58 11.58-5.18 11.58-11.58-5.18-11.56-11.58-11.56" fill="#2e5ccf" stroke="#4d4d4d"/>
  </g>
  <g id="g304-8-5-7-2" transform="matrix(1.3055 0 0 -1.3055 68.681 236.18)" fill="#343434">
   <path id="path306-1-7-7-5" d="m0 0 1.272 1.879-0.264 0.551-2.222 0.114zm-1.029-2.906-0.408 0.855 0.896 1.378-1.548 3.242-1.617 0.132-0.425 0.893 5.666-0.488 0.601-1.259z" fill="#343434"/>
  </g>
  <g id="g308-0-1-6-4" transform="matrix(1.2917 0 0 -1.2917 91.513 269.82)" fill="#343434">
   <path id="path310-4-9-5-7" d="m0 0-1.542 3.265 1.129 0.533 1.542-3.265c0.157-0.333 0.044-0.59-0.335-0.769-0.375-0.177-0.637-0.097-0.794 0.236m-1.891-0.893-0.242 0.513-1.291 2.757 1.128 0.533 1.316-2.787 0.218-0.483c0.157-0.333 0.048-0.588-0.322-0.763-0.379-0.179-0.65-0.103-0.807 0.23m1.828-0.074c0.225-0.24 0.563-0.274 1.011-0.113l0.387 0.172c0.754 0.356 0.921 0.975 0.508 1.849l-1.867 3.953-0.745-0.342-3.011-1.422-0.75-0.364 1.866-3.953c0.413-0.874 1-1.137 1.75-0.783l0.379 0.189c0.331 0.207 0.489 0.476 0.472 0.814" fill="#343434"/>
  </g>
  <g id="g312-4-8-4-4" transform="matrix(1.2917 0 0 -1.2917 106.26 305.49)" fill="#343434">
   <path id="path314-7-2-8-4" d="m0 0-0.791 1.919c-0.524 1.288-0.992 0.964-2.018 0.543-1.027-0.42-1.585-0.515-1.059-1.798l1.39-3.396-0.77-0.315-1.393 3.39c-0.737 1.793-0.028 2.248 1.512 2.879s2.369 0.813 3.104-0.966l1.397-3.411-0.764-0.313z" fill="#343434"/>
  </g>
  <g id="g10316-1-3" transform="matrix(0 .99389 -.99389 0 -16.967 -32.114)" fill="#464849">
   <g id="g240-7-6-2-0" transform="matrix(0 -1.25 -1.25 0 231.61 -151.62)">
    <path id="path242-7-2-7-7" d="m0 0v6.437h1.505v-4.412c0.971 0.321 1.76 0.586 2.553 0.843 1.975 0.64 3.967 1.238 5.918 1.941 0.472 0.17 1.057 0.629 1.155 1.049 0.164 0.707-0.569 0.936-1.176 1.132-3.028 0.979-6.045 1.986-9.083 2.933-0.714 0.222-0.954 0.547-0.935 1.265 0.054 1.975 5e-3 3.952 0.023 5.927 0.018 2.002 1.328 3.311 3.4 3.355 1.866 0.039 3.735 0.043 5.601-1e-3 2.104-0.048 3.385-1.315 3.414-3.338 0.025-1.781 5e-3 -3.562 5e-3 -5.406h-1.585v4.574c1e-3 2.147-0.518 2.64-2.782 2.641-1.408 0-2.817 6e-3 -4.226-2e-3 -1.507-9e-3 -2.241-0.695-2.256-2.113-0.012-1.152-3e-3 -2.303-3e-3 -3.514h4.914v2.931h1.529v-4.566h-6.473l-0.03-0.249c2.976-0.966 5.952-1.934 8.929-2.897 1.702-0.551 2.394-1.565 2.142-3.2-0.139-0.91-0.67-1.584-1.571-1.882-3.574-1.183-7.161-2.33-10.744-3.486-0.054-0.017-0.126 0.02-0.224 0.038" fill="#464849"/>
   </g>
   <g id="g244-6-2-0-8" transform="matrix(0 -1.25 -1.25 0 181.19 -151.58)">
    <path id="path246-7-4-9-6" d="m0 0h1.567c0-1.717-0.019-3.401 6e-3 -5.085 0.02-1.409 1.043-2.462 2.381-2.512 1.308-0.05 2.427 0.992 2.525 2.377 0.039 0.563-0.015 1.133 0.045 1.692 0.093 0.862 0.905 1.49 1.844 1.489 0.951-1e-3 1.801-0.622 1.826-1.491 0.054-1.842 0.017-3.685 0.017-5.577h-1.55v5.414c-0.174 1e-3 -0.348 3e-3 -0.522 5e-3 -0.023-0.516-0.055-1.032-0.067-1.549-0.045-1.946-1.179-3.352-3.105-3.837-2.352-0.593-4.855 1.095-4.952 3.42-0.076 1.844-0.015 3.694-0.015 5.654" fill="#464849"/>
   </g>
   <g id="g248-3-7-3-8" transform="matrix(0 -1.25 -1.25 0 181.17 -154.3)">
    <path id="path250-6-9-6-8" d="m0 0h1.619v-5.433c0.151 0 0.303-1e-3 0.455-1e-3 0.022 0.554 0.055 1.107 0.065 1.662 0.027 1.555 0.771 2.712 2.203 3.394 1.459 0.694 2.92 0.587 4.261-0.328 0.92-0.627 1.543-1.494 1.578-2.586 0.061-1.908 0.017-3.82 0.017-5.805h-1.553c0 1.714 0.029 3.43-8e-3 5.145-0.037 1.702-1.626 2.807-3.227 2.293-0.963-0.309-1.61-1.192-1.676-2.324-0.032-0.532 8e-3 -1.069-0.046-1.598-0.088-0.858-0.896-1.508-1.822-1.518-0.925-0.01-1.826 0.639-1.85 1.477-0.052 1.843-0.016 3.687-0.016 5.622" fill="#464849"/>
   </g>
   <g id="g252-5-3-0-4" transform="matrix(0 -1.25 -1.25 0 205.03 -167.03)">
    <path id="path254-6-9-6-3" d="m0 0h-1.532c0 1.698 2e-3 3.38 0 5.061-2e-3 1.768-0.627 2.384-2.457 2.396-1.473 9e-3 -2.946 4e-3 -4.419-7e-3 -1.7-0.013-2.385-0.666-2.389-2.269-5e-3 -1.686-1e-3 -3.372-1e-3 -5.121h-1.573c0 1.258-2e-3 2.497 1e-3 3.735 2e-3 0.784-0.026 1.57 0.029 2.35 0.102 1.437 1.446 2.745 2.95 2.782 2.158 0.053 4.32 0.05 6.479 1e-3 1.383-0.032 2.806-1.2 2.88-2.521 0.119-2.115 0.032-4.241 0.032-6.407" fill="#464849"/>
   </g>
   <g id="g256-3-2-2-1" transform="matrix(0 -1.25 -1.25 0 223.45 -156.53)">
    <path id="path258-9-6-6-4" d="m0 0v-1.294c0.624 0.202 1.153 0.373 1.682 0.543-4e-3 0.075-9e-3 0.149-0.014 0.223-0.512 0.162-1.023 0.324-1.668 0.528m-3.897 3.152c3.373-1.092 6.674-2.154 9.965-3.241 0.233-0.077 0.481-0.318 0.56-0.536 0.043-0.12-0.215-0.455-0.401-0.518-2.638-0.886-5.287-1.743-8.008-2.631v3.687c0.391 0.041 0.739 0.077 1.087 0.114 0.019 0.052 0.039 0.105 0.058 0.158-0.611 0.21-1.22 0.426-1.833 0.629-1.626 0.541-1.627 0.539-1.428 2.338" fill="#464849"/>
   </g>
   <g id="g260-4-8-1-9" transform="matrix(0 -1.25 -1.25 0 212.66 -156.73)">
    <path id="path262-8-3-8-2" d="m0 0c0.138 0.472 0.22 0.752 0.318 1.088h1.392v-2.392h-3.646c0 1.223-0.069 2.439 0.047 3.638 0.031 0.312 0.631 0.802 0.988 0.817 1.962 0.082 3.93 0.058 5.895 0.035 0.689-9e-3 1.093-0.412 1.1-1.077 0.017-1.816 6e-3 -3.633 6e-3 -5.531h-1.559c0 1.367-0.038 2.708 0.014 4.045 0.033 0.821-0.267 1.138-1.132 1.085-0.914-0.055-1.834-3e-3 -2.751-0.014-1.095-0.014-1.358-0.519-0.672-1.694" fill="#464849"/>
   </g>
   <g id="g264-1-0-7-0" transform="matrix(0 -1.25 -1.25 0 198.48 -156.4)">
    <path id="path266-2-7-9-6" d="m0 0c-0.315-1.688 0.015-3.436-0.183-5.186h-1.486c0 2.002-0.049 3.964 0.049 5.92 0.016 0.312 0.653 0.779 1.064 0.85 0.789 0.136 1.622 0.04 2.519 0.04v-5.568h-1.469v3.892c-0.165 0.018-0.329 0.035-0.494 0.052" fill="#464849"/>
   </g>
   <g id="g268-9-1-2-8" transform="matrix(0 -1.25 -1.25 0 205.04 -164.34)">
    <path id="path270-3-7-0-9" d="m0 0h-1.477c-0.247 1.736 0.158 3.517-0.219 5.223-0.135-6e-3 -0.271-0.012-0.406-0.017v-3.912h-1.543v5.553c0.905 0 1.85 0.078 2.766-0.041 0.328-0.043 0.828-0.553 0.84-0.865 0.077-1.963 0.039-3.93 0.039-5.941" fill="#464849"/>
   </g>
  </g>
  <path id="path30456-2" d="m68.72 151.8c-3.4837 0.01-6.6242 4.79-8.0586 12.344-6e-3 0.0315-0.0583 0.11381-0.1211 0.19531-0.0672 0.0872-0.16032 0.21592-0.26757 0.33789-1.5877 1.8055-2.4842 4.1753-2.4842 8.3125 0 4.1372 0.89644 6.507 2.4842 8.3125 0.10725 0.12197 0.20037 0.25069 0.26757 0.33789 0.0627 0.0815 0.1151 0.16382 0.1211 0.19532 1.4344 7.5537 4.5749 12.334 8.0586 12.344 4.9038-1e-3 8.8788-9.4807 8.8788-21.189 0-11.709-3.975-21.188-8.8788-21.189z" fill="#c3c2c7" stop-color="#000000" style="-inkscape-stroke:none;font-variation-settings:normal"/>
  <ellipse id="path30456-7" transform="rotate(90)" cx="172.98" cy="-68.72" rx="14.477" ry="6.0712" fill="#bd3786"/>
  <path id="rect5964" d="m178.5 258.47-2.8816-3.4539h5.8028z" fill="#999" style="paint-order:normal"/>
  <path id="rect5964-4" d="m178.5 262.38-2.8816-3.4539h5.8028z" fill="#999" style="paint-order:normal"/>
  <rect id="rect5984" transform="scale(-1)" x="-181.39" y="-264.82" width="5.7383" height="1.9635" fill="#999" style="paint-order:normal"/>
  <g id="g44109" transform="rotate(80.108 102.52 97.055)" fill="#999">
   <path id="rect5964-4-7" d="m289 78.031-2.7333 2.2804v-4.5922z" style="paint-order:normal"/>
   <rect id="rect5984-7" transform="rotate(90)" x="75.745" y="-290.55" width="4.5411" height=".96758" style="paint-order:normal"/>
   <rect id="rect5984-7-1" transform="rotate(90)" x="75.745" y="-292.03" width="4.5411" height=".96758" style="paint-order:normal"/>
  </g>
  <path id="rect5964-0" d="m178.5 87.716-2.8816 3.4539h5.8028z" fill="#999" style="paint-order:normal"/>
  <path id="rect5964-4-9" d="m178.5 83.801-2.8816 3.4539h5.8028z" fill="#999" style="paint-order:normal"/>
  <rect id="rect5984-1" transform="scale(-1,1)" x="-181.39" y="81.365" width="5.7383" height="1.9635" fill="#999" style="paint-order:normal"/>
  <rect id="rect45044" transform="rotate(61.41)" x="279.75" y="-18.326" width="4.7834" height="4.7834" fill="#999" stop-color="#000000" style="-inkscape-stroke:none;font-variation-settings:normal"/>
  <path id="path45678" d="m121.52 207.97a3.7663 3.7663 0 0 0-4.8554 0.80232 3.7663 3.7663 0 0 0 0.0927 4.9204l0.67843-0.81518a2.7222 2.7222 0 0 1 0.0321-3.4368 2.7222 2.7222 0 0 1 3.3738-0.65559zm0.84219 0.70091-0.67593 0.81218a2.7222 2.7222 0 0 1-0.0331 3.441 2.7222 2.7222 0 0 1-3.3778 0.65735l-0.67592 0.81216a3.7663 3.7663 0 0 0 4.8554-0.80232 3.7663 3.7663 0 0 0-0.0927-4.9204z" fill="#999" stop-color="#000000" style="-inkscape-stroke:none;font-variation-settings:normal"/>
  <path id="path46504-9" d="m158.73 167c-0.0502-2.2095-0.1142-4.4589-0.21289-6.6094-0.0987-2.1505-0.23247-4.1964-0.33008-5.8887-0.0976-1.6922-0.15957-3.0414-0.26172-4.1191-0.10213-1.0777-0.24478-1.8895-0.5039-2.6348-0.25906-0.74507-0.62435-1.4015-1.002-1.959-0.37752-0.55741-0.77533-1.027-1.1992-1.4394-0.42306-0.41168-0.87442-0.76797-1.4395-1.1016-0.5654-0.33382-1.2656-0.65267-4.2852-1.6465-3.0196-0.99381-8.3974-2.6788-13.775-4.3652l-0.0861 0.39329c5.378 1.6864 10.545 3.9345 13.549 4.9231 3.0037 0.98859 3.5921 1.2608 4.0898 1.5547 0.49814 0.2941 0.87059 0.59168 1.248 0.95899 0.37663 0.3665 0.7293 0.77971 1.0703 1.2832 0.34093 0.50337 0.66182 1.0854 0.88477 1.7266 0.22288 0.64102 0.35679 1.3634 0.45507 2.4004 0.0983 1.0369 0.15986 2.3837 0.25782 4.082 0.098 1.6983 0.23195 3.7388 0.33008 5.877 0.0981 2.1382 0.16081 4.3802 0.21093 6.5859 0.0458 2.0162 0.0795 3.9985 0.11328 5.9824-0.0337 1.9845-0.0674 3.9675-0.11328 5.9844-0.0501 2.2058-0.1128 4.4478-0.21093 6.5859-0.0981 2.1382-0.23212 4.1786-0.33008 5.877-0.098 1.6983-0.15954 3.0451-0.25782 4.082-0.0983 1.037-0.23219 1.7594-0.45507 2.4004-0.22295 0.6412-0.54384 1.2232-0.88477 1.7266-0.34101 0.50349-0.69368 0.91671-1.0703 1.2832-0.37746 0.3673-0.74991 0.66488-1.248 0.95898-0.49777 0.29388-1.0862 0.5661-4.0898 1.5547-3.0037 0.98859-8.2328 3.15-13.611 4.8365l0.1479 0.47994c5.378-1.6864 10.756-3.3714 13.775-4.3652 3.0196-0.99382 3.7198-1.3127 4.2852-1.6465 0.56504-0.33359 1.0164-0.68989 1.4395-1.1016 0.42388-0.41247 0.82169-0.88204 1.1992-1.4394 0.3776-0.55753 0.74289-1.2139 1.002-1.959 0.25912-0.74524 0.40177-1.5571 0.50391-2.6348 0.10214-1.0777 0.1641-2.4269 0.26171-4.1191 0.0976-1.6922 0.23139-3.7382 0.33008-5.8887 0.0987-2.1505 0.16268-4.3999 0.21289-6.6094 0.0418-1.8412 0.0707-3.6493 0.0707-6.0049s-0.0289-4.1637-0.0707-6.0049z" color="#000000" fill="#666" style="-inkscape-stroke:none"/>
  <g id="text49632-7-6" transform="matrix(0 1.1401 -.87711 0 230.96 -11.127)" fill="#9e9e9e" stop-color="#000000" stroke-width=".8223" aria-label="START">
   <path id="path68772" d="m150.97 165.68 0.92509-0.0899q0.0835 0.46575 0.33727 0.68417 0.25697 0.21843 0.6906 0.21843 0.45933 0 0.69061-0.19273 0.23448-0.19594 0.23448-0.45612 0-0.16703-0.0996-0.28266-0.0964-0.11885-0.34048-0.20558-0.16703-0.0578-0.76127-0.20557-0.76448-0.18952-1.0728-0.46576-0.43363-0.38866-0.43363-0.94757 0-0.35975 0.20236-0.67133 0.20557-0.31478 0.58781-0.4786 0.38546-0.16382 0.9283-0.16382 0.88654 0 1.333 0.38867 0.44969 0.38866 0.47217 1.0375l-0.95078 0.0417q-0.061-0.36296-0.26339-0.52036-0.19915-0.1606-0.60066-0.1606-0.41437 0-0.64885 0.17024-0.15097 0.10921-0.15097 0.2923 0 0.16703 0.14133 0.28588 0.17988 0.15097 0.8737 0.31478 0.69381 0.16382 1.0247 0.34049 0.33406 0.17345 0.52036 0.4786 0.18951 0.30194 0.18951 0.74842 0 0.40473-0.22484 0.75806-0.22485 0.35333-0.636 0.52678-0.41115 0.17024-1.0247 0.17024-0.89297 0-1.3716-0.41115-0.4786-0.41436-0.57176-1.2045z" stop-color="#000000"/>
   <path id="path68774" d="m156.66 167.21v-3.9123h-1.3973v-0.79661h3.7421v0.79661h-1.3941v3.9123z" stop-color="#000000"/>
   <path id="path68776" d="m163.37 167.21h-1.0343l-0.41114-1.0696h-1.8823l-0.38866 1.0696h-1.0086l1.8341-4.709h1.0054zm-1.7506-1.863-0.64885-1.7474-0.636 1.7474z" stop-color="#000000"/>
   <path id="path68778" d="m163.88 167.21v-4.709h2.0011q0.75484 0 1.0953 0.12849 0.3437 0.12527 0.54927 0.44969 0.20558 0.32443 0.20558 0.742 0 0.53-0.31158 0.8769-0.31157 0.3437-0.93151 0.43364 0.30837 0.17988 0.50752 0.39509 0.20236 0.21521 0.54284 0.76448l0.57497 0.91866h-1.1371l-0.68739-1.0247q-0.36618-0.54927-0.50108-0.6906-0.13491-0.14455-0.28588-0.19594-0.15097-0.0546-0.47861-0.0546h-0.19272v1.9658zm0.95078-2.7174h0.70345q0.68418 0 0.85442-0.0578t0.2666-0.19915q0.0964-0.14133 0.0964-0.35333 0-0.2377-0.12849-0.38224-0.12527-0.14776-0.35654-0.1863-0.11564-0.0161-0.69382-0.0161h-0.74199z" stop-color="#000000"/>
   <path id="path68780" d="m169.69 167.21v-3.9123h-1.3973v-0.79661h3.7421v0.79661h-1.3941v3.9123z" stop-color="#000000"/>
  </g>
 </g>
</svg>
