<?xml version="1.0" encoding="UTF-8"?>
<svg id="svg2" width="173.72" height="329.7" version="1.1" viewBox="0 0 173.72 329.7" xml:space="preserve" xmlns="http://www.w3.org/2000/svg" xmlns:cc="http://creativecommons.org/ns#" xmlns:dc="http://purl.org/dc/elements/1.1/" xmlns:rdf="http://www.w3.org/1999/02/22-rdf-syntax-ns#"><metadata id="metadata8"><rdf:RDF><cc:Work rdf:about=""><dc:format>image/svg+xml</dc:format><dc:type rdf:resource="http://purl.org/dc/dcmitype/StillImage"/><dc:title/></cc:Work></rdf:RDF></metadata><defs id="defs6"><clipPath id="clipPath28-5-9"><path id="path30-9-0" d="m50.528 96.759h1.1399v-0.79h-1.1399z"/></clipPath><clipPath id="clipPath44-2-2"><path id="path46-2-8" d="m101.79 54.659h0.81v-1.1h-0.81z"/></clipPath><clipPath id="clipPath60-8-3"><path id="path62-9-8" d="m92.388 42.209h1.33v-0.83h-1.33z"/></clipPath><clipPath id="clipPath76-7-0"><path id="path78-3-4" d="m81.038 33.989h0.8401v-1.22h-0.8401z"/></clipPath><clipPath id="clipPath96-6-0"><path id="path98-1-9" d="m35.738 80.039h0.8901v-1.2h-0.8901z"/></clipPath><clipPath id="clipPath112-2-1"><path id="path114-9-4" d="m60.008 29.299h0.96v-0.94h-0.96z"/></clipPath></defs><g id="g9080"><g id="g20-3-9" transform="matrix(1.25 0 0 -1.25 41.648 293.41)"><path id="path22-1-6" d="m0 0c-17.17 16.27-15.09 46.35 4.8 67.18 19.88 20.84 49.91 24.44 67.08 8.17 7.51-7.12 11.33-16.88 11.59-27.35 0.34-13.47-5.2-28.12-16.39-39.84-19.88-20.84-49.92-24.43-67.08-8.16m67.7 7.57c11.33 11.88 16.99 26.78 16.64 40.49h-0.01c-0.27 10.67-4.17 20.64-11.86 27.93-17.57 16.65-48.15 12.91-68.29-8.21-20.15-21.12-22.35-51.75-4.77-68.41 17.57-16.66 48.15-12.93 68.29 8.2" fill="#0f0f0f"/></g><g id="g24-9-2" transform="matrix(1.25 0 0 -1.25 .0014622 329.69)"><g id="g32-7-4"><g id="g34-8-4" clip-path="url(#clipPath28-5-9)" opacity=".34"><g id="g36-4-9" transform="translate(51.028 95.969)"><path id="path38-5-9" d="m0 0-0.5 0.71c0.04 0.03 0.07 0.05 0.11 0.08 0.35-0.1 0.69-0.22 1.03-0.36-0.22-0.13-0.43-0.28-0.64-0.43" fill="#f3f3f3"/></g></g></g></g><g id="g40-0-3" transform="matrix(1.25 0 0 -1.25 .0014622 329.69)"><g id="g48-6-0"><g id="g50-1-5" clip-path="url(#clipPath44-2-2)" opacity=".34"><g id="g52-0-0" transform="translate(102.56 53.559)"><path id="path54-6-2" d="m0 0-0.77 0.4c0.12 0.23 0.24 0.47 0.35 0.7 0.17-0.33 0.33-0.67 0.46-1.02-0.01-0.03-0.03-0.05-0.04-0.08" fill="#f3f3f3"/></g></g></g></g><g id="g56-3-9" transform="matrix(1.25 0 0 -1.25 .0014622 329.69)"><g id="g64-0-3"><g id="g66-6-5" clip-path="url(#clipPath60-8-3)" opacity=".34"><g id="g68-1-0" transform="translate(93.718 41.599)"><path id="path70-5-1" d="m0 0c-0.08-0.07-0.15-0.15-0.23-0.22-0.37 0.03-0.74 0.07-1.1 0.14 0.24 0.22 0.48 0.45 0.72 0.69z" fill="#f3f3f3"/></g></g></g></g><g id="g72-5-7" transform="matrix(1.25 0 0 -1.25 .0014622 329.69)"><g id="g80-7-3"><g id="g82-6-1" clip-path="url(#clipPath76-7-0)" opacity=".34"><g id="g84-5-4" transform="translate(81.428 32.769)"><path id="path86-6-6" d="m0 0-0.39 0.78c0.28 0.14 0.56 0.28 0.84 0.44-0.09-0.4-0.21-0.79-0.35-1.17-0.03-0.02-0.07-0.03-0.1-0.05" fill="#f3f3f3"/></g></g></g></g><g id="g88-9-9" transform="matrix(1.25 0 0 -1.25 76.023 294.23)"><path id="path90-3-4" d="m0 0c-7.55 0.44-14.69 3.21-20.24 8.46-11.23 10.59-12.65 28.04-4.84 42.97 0.14-0.33 0.3-0.65 0.48-0.96-7.33-14.52-5.82-31.22 4.95-41.38 5.19-4.9 11.79-7.59 18.84-8.16 0.25-0.32 0.52-0.63 0.81-0.93" fill="#151415"/></g><g id="g92-7-2" transform="matrix(1.25 0 0 -1.25 .0014622 329.69)"><g id="g100-5-6"><g id="g102-2-4" clip-path="url(#clipPath96-6-0)" opacity=".34"><g id="g104-5-1" transform="translate(36.628 79.639)"><path id="path106-4-2" d="m0 0c-0.14-0.26-0.28-0.53-0.41-0.8-0.18 0.31-0.34 0.63-0.48 0.96l0.12 0.24z" fill="#f3f3f3"/></g></g></g></g><g id="g108-7-8" transform="matrix(1.25 0 0 -1.25 .0014622 329.69)"><g id="g116-4-0"><g id="g118-3-9" clip-path="url(#clipPath112-2-1)" opacity=".34"><g id="g120-0-2" transform="translate(60.928 28.359)"><path id="path122-7-8" d="m0 0c-0.04 0-0.07 0-0.11 0.01-0.29 0.3-0.56 0.61-0.81 0.93 0.32-0.03 0.64-0.05 0.96-0.07z" fill="#f3f3f3"/></g></g></g></g><g id="g124-8-8" transform="matrix(1.25 0 0 -1.25 44.423 223.66)" fill="#656163"><path id="path126-6-8" d="m0 0c0 6.4 5.17 11.58 11.57 11.58s11.58-5.18 11.58-11.58-5.18-11.56-11.58-11.56-11.57 5.16-11.57 11.56m24.01 0c0 5.25-3.27 9.75-7.88 11.57-0.34 0.14-0.68 0.26-1.03 0.36-1.12 0.33-2.31 0.51-3.53 0.51-6.86 0-12.44-5.58-12.44-12.44 0-1.79 0.38-3.49 1.07-5.03 0.14-0.33 0.3-0.65 0.48-0.96 2.11-3.84 6.2-6.44 10.89-6.44 6.86 0 12.44 5.57 12.44 12.43" fill="#656163"/></g><path id="path130-8-6" d="m61.81 252.4c0-7.9998 6.4748-14.475 14.462-14.475 7.9999 0 14.475 6.4749 14.475 14.475 0 7.9874-6.4749 14.45-14.475 14.45-7.9874 0-14.462-6.4624-14.462-14.45m30.012 0c0-8.5873-6.9624-15.55-15.55-15.55-8.5749 0-15.55 6.9624-15.55 15.55 0 8.5749 6.9748 15.525 15.55 15.525 8.5874 0 15.55-6.9499 15.55-15.525" fill="#656163"/><path id="path134-8-8" d="m72.797 283.5c0-7.9999 6.4499-14.475 14.45-14.475 7.9998 0 14.475 6.4749 14.475 14.475 0 7.9874-6.4749 14.462-14.475 14.462-7.9999 0-14.45-6.4749-14.45-14.462m29.112 5.1749c0.17504-0.47498 0.32501-0.96248 0.43735-1.4625 0.29994-1.1875 0.4499-2.4375 0.4499-3.7124 0-8.5874-6.9624-15.55-15.55-15.55-8.5749 0-15.537 6.9624-15.537 15.55 0 3.6124 1.225 6.9374 3.2999 9.5748 0.31247 0.39999 0.65003 0.78749 1.0125 1.1625 2.825 2.9625 6.8124 4.8124 11.225 4.8124 6.7749 0 12.525-4.3374 14.662-10.375" fill="#656163"/><g id="g136-4-3" transform="matrix(1.25 0 0 -1.25 86.147 212.48)"><path id="path138-3-8" d="m0 0c0 4.54 3.67 8.21 8.21 8.21s8.21-3.67 8.21-8.21-3.68-8.21-8.21-8.21c-4.54 0-8.21 3.67-8.21 8.21m17.28 0c0 5-4.07 9.07-9.07 9.07-5.01 0-9.08-4.07-9.08-9.07 0-5.01 4.07-9.07 9.08-9.07 5 0 9.07 4.06 9.07 9.07" fill="#0f0f0f"/></g><g id="g140-1-3" transform="matrix(1.25 0 0 -1.25 99.872 238.83)"><path id="path142-4-3" d="m0 0c0 4.53 3.67 8.19 8.21 8.19s8.21-3.66 8.21-8.19c0-4.54-3.67-8.21-8.21-8.21s-8.21 3.67-8.21 8.21m17.28 0c0 5-4.07 9.06-9.07 9.06-5.01 0-9.07-4.06-9.07-9.06 0-5.01 4.06-9.08 9.07-9.08 5 0 9.07 4.07 9.07 9.08" fill="#0f0f0f"/></g><g id="g144-9-3" transform="matrix(1.25 0 0 -1.25 107.37 266.66)"><path id="path146-2-8" d="m0 0c0 4.54 3.68 8.21 8.21 8.21 4.54 0 8.21-3.67 8.21-8.21s-3.67-8.21-8.21-8.21c-4.53 0-8.21 3.67-8.21 8.21m17.29 0c0 1.13-0.21 2.21-0.59 3.21-0.13 0.35-0.29 0.69-0.46 1.02-1.52 2.88-4.55 4.84-8.03 4.84-5 0-9.07-4.07-9.07-9.07 0-4.42 3.17-8.1 7.35-8.91 0.36-0.07 0.73-0.11 1.1-0.14 0.21-0.01 0.41-0.02 0.62-0.02 5.01 0 9.08 4.06 9.08 9.07" fill="#0f0f0f"/></g><g id="g148-0-0" transform="matrix(1.25 0 0 -1.25 91.047 169.7)"><path id="path150-6-4" d="m0 0v15.44c0 2.57 2.08 4.65 4.66 4.65 2.57 0 4.65-2.08 4.65-4.65v-15.44c0-2.58-2.08-4.66-4.65-4.66-2.58 0-4.66 2.08-4.66 4.66m10.17 0v15.44c0 3.04-2.47 5.51-5.51 5.51-3.05 0-5.52-2.47-5.52-5.51v-15.44c0-3.05 2.47-5.53 5.52-5.53 3.04 0 5.51 2.48 5.51 5.53" fill="#0f0f0f"/></g><path id="path154-8-7" d="m173.72 160.32c0-18.912-2.3621-39.488-7.9495-59.5-0.0747-0.26252-0.86359-3.2614-1.4636-4.9739 0-0.01254-0.0104-0.03867-0.0261-0.05121-6.9874-22.724-18.287-44.46-35.187-61.86-16.412-16.9-38.238-28.65-59.376-32.538-21.15-3.8874-41.674 0.11309-55.336 14.838-15.062 16.237-16.362 30.313-12.599 42.988 3.7625 12.675 12.474 23.997 17.311 35.022 4.6875 10.687 16.012 36.05 16.012 60.037v21.138c0 23.974-11.325 49.35-16.012 60.037-4.8374 11.025-13.549 22.323-17.311 34.998-3.7624 12.675-2.4629 26.777 12.599 43.001 13.662 14.737 34.186 18.723 55.336 14.835h0.0028c21.137-3.8874 42.961-15.636 59.373-32.535 32.949-33.912 44.624-84.287 44.624-126.4z" fill="#2b2b2b"/><g id="g156-9-6" transform="matrix(1.25 0 0 -1.25 50.723 283.66)" fill="#141414"><path id="path158-2-8" d="m0 0c-11.23 10.59-12.65 28.04-4.84 42.97-0.69 1.54-1.07 3.24-1.07 5.03 0 6.86 5.58 12.44 12.44 12.44 1.22 0 2.41-0.18 3.53-0.51 0.35-0.1 0.69-0.22 1.03-0.36 14.88 10.2 33.7 10.33 45.36-0.67 10.7-10.1 12.26-26.62 5.11-41.07 0.17-0.33 0.33-0.67 0.46-1.02 0.38-1 0.59-2.08 0.59-3.21 0-5.01-4.07-9.07-9.08-9.07-0.21 0-0.41 0.01-0.62 0.02-0.37 0.03-0.74 0.07-1.1 0.14-3.24-3.09-6.79-5.6-10.51-7.53-0.09-0.4-0.21-0.79-0.35-1.17-1.71-4.83-6.31-8.3-11.73-8.3-3.53 0-6.72 1.48-8.98 3.85-7.55 0.44-14.69 3.21-20.24 8.46m59.82 0.36c11.19 11.72 16.73 26.37 16.39 39.84-0.26 10.47-4.08 20.23-11.59 27.35-17.17 16.27-47.2 12.67-67.08-8.17-19.89-20.83-21.97-50.91-4.8-67.18 17.16-16.27 47.2-12.68 67.08 8.16" fill="#141414"/></g><g id="g160-6-4" transform="matrix(1.25 0 0 -1.25 60.723 252.4)" fill="#303030"><path id="path162-6-9" d="m0 0c0 6.87 5.58 12.44 12.44 12.44 6.87 0 12.44-5.57 12.44-12.44 0-6.86-5.57-12.42-12.44-12.42-6.86 0-12.44 5.56-12.44 12.42m39.53 19.91c5 0 9.07-4.06 9.07-9.06 0-5.01-4.07-9.08-9.07-9.08-5.01 0-9.07 4.07-9.07 9.08 0 5 4.06 9.06 9.07 9.06m-20.06 12.02c0 5 4.07 9.07 9.08 9.07 5 0 9.07-4.07 9.07-9.07 0-5.01-4.07-9.07-9.07-9.07-5.01 0-9.08 4.06-9.08 9.07m-10.68-56.81c0 6.87 5.57 12.44 12.43 12.44 6.87 0 12.44-5.57 12.44-12.44 0-1.02-0.12-2.02-0.36-2.97 3.72 1.93 7.27 4.44 10.51 7.53-4.18 0.81-7.35 4.49-7.35 8.91 0 5 4.07 9.07 9.07 9.07 3.48 0 6.51-1.96 8.03-4.84 7.15 14.45 5.59 30.97-5.11 41.07-11.66 11-30.48 10.87-45.36 0.67 4.61-1.82 7.88-6.32 7.88-11.57 0-6.86-5.58-12.43-12.44-12.43-4.69 0-8.78 2.6-10.89 6.44-7.33-14.52-5.82-31.22 4.95-41.38 5.19-4.9 11.79-7.59 18.84-8.16-1.66 2.11-2.64 4.77-2.64 7.66" fill="#303030"/></g><g id="g176-4-0" transform="matrix(1.25 0 0 -1.25 117.63 276.92)" fill="#8f8f8f"><path id="path178-9-6" d="m0 0c-4.53 0-8.21 3.67-8.21 8.21s3.68 8.21 8.21 8.21c4.54 0 8.21-3.67 8.21-8.21s-3.67-8.21-8.21-8.21" fill="#8f8f8f"/></g><g id="g180-5-8" transform="matrix(1.25 0 0 -1.25 110.13 249.1)" fill="#8f8f8f"><path id="path182-0-7" d="m0 0c-4.54 0-8.21 3.67-8.21 8.21 0 4.53 3.67 8.19 8.21 8.19s8.21-3.66 8.21-8.19c0-4.54-3.67-8.21-8.21-8.21" fill="#8f8f8f"/></g><g id="g184-4-9" transform="matrix(1.25 0 0 -1.25 96.41 222.75)" fill="#8f8f8f"><path id="path186-8-0" d="m0 0c-4.54 0-8.21 3.67-8.21 8.21s3.67 8.21 8.21 8.21 8.21-3.67 8.21-8.21-3.68-8.21-8.21-8.21" fill="#8f8f8f"/></g><g id="g188-7-3" transform="matrix(1.25 0 0 -1.25 164.36 229.75)"><path id="path190-1-3" d="m0 0s-3.32 2.94-4.79 4.52c-0.66 0.71-1.65 1.39-2.3 2.62-0.64 1.23-0.89 2.98-0.21 5.79 1.29 5.38 4.04 26.02 4.04 33.83v10.3c0 7.81-2.75 28.45-4.04 33.84-0.68 2.81-0.43 4.56 0.21 5.8 0.65 1.23 1.64 1.89 2.3 2.61 1.26 1.35 3.67 3.48 4.35 4.08 0.12 0.09 0.18 0.15 0.18 0.15 0.16 0.14 0.18 0.19 0.37 0.3l0.19-0.96c-0.03-0.02-3.07-2.67-4.45-4.16-0.77-0.81-1.65-1.41-2.18-2.43s-0.78-2.51-0.14-5.19c1.35-5.6 4.08-26.03 4.08-34.04v-10.3c0-8.01-2.73-28.44-4.08-34.04-0.64-2.68-0.39-4.17 0.14-5.19s1.41-1.62 2.18-2.43c1.19-1.29 3.73-3.52 4.42-4.12z" fill="#151415"/></g><g id="g192-7-3" transform="matrix(1.25 0 0 -1.25 60.71 108.07)" fill="#141414"><path id="path194-2-7" d="m0 0c-16.81 15.54-20.38 39.17-7.8 52.78 12.59 13.61 36.42 11.91 53.24-3.63 16.81-15.54 20.37-39.18 7.79-52.78h0.01c-12.59-13.61-36.42-11.91-53.24 3.63m57.88-9.87c14.93 16.15 10.87 44.3-9.23 62.87s-48.49 20.42-63.41 4.27c-14.93-16.15-10.87-44.32 9.23-62.89 20.09-18.57 48.48-20.4 63.41-4.25" fill="#141414"/></g><g id="g196-7-3" transform="matrix(1.25 0 0 -1.25 96.866 175.77)" fill="#4563c7" stroke="#1a1a1a" stroke-width="2.2532"><path id="path198-2-2" d="m0 0c-2.577 0-4.652 2.075-4.652 4.652v15.441c0 2.577 2.075 4.652 4.652 4.652s4.652-2.075 4.652-4.652v-15.441c0-2.577-2.075-4.652-4.652-4.652" fill="#4563c7" stroke="#1a1a1a" stroke-width="2.2532"/></g><g id="g200-2-6" transform="matrix(1.25 0 0 -1.25 58.023 76.686)" fill="#303030"><path id="path202-6-5" d="m0 0c0 14.36 11.65 26.01 26.02 26.01 14.36 0 26.01-11.65 26.01-26.01 0-14.37-11.65-26.02-26.01-26.02-14.37 0-26.02 11.65-26.02 26.02m55.39-28.74h-0.01c12.58 13.6 9.02 37.24-7.79 52.78-16.82 15.54-40.65 17.24-53.24 3.63-12.58-13.61-9.01-37.24 7.8-52.78 16.82-15.54 40.65-17.24 53.24-3.63" fill="#303030"/></g><g id="g204-1-2" transform="matrix(1.2481 0 0 -1.2481 83.123 102.69)" fill="#3b3b3b"><path id="path206-0-6" d="m0 0c-0.25 0.08-0.29 0.13-0.32 0.2-0.04 0.07-0.08 0.26-0.06 0.61l0.32 7.08c0.12 2.39-0.56 4.41-1.94 5.83-1.39 1.42-3.44 2.23-6.01 2.34l-6.55 0.32c-0.33 0.01-0.52 0.08-0.61 0.14-0.1 0.07-0.13 0.13-0.17 0.27-0.3 1.62-0.42 3.29-0.34 5.01 0.07 1.74 0.35 3.42 0.82 5.02v0.02c0.05 0.13 0.08 0.15 0.16 0.19 0.09 0.04 0.3 0.07 0.67 0.05l6.58-0.3c2.61-0.11 4.72 0.49 6.21 1.8 1.48 1.31 2.29 3.29 2.4 5.78l0.33 6.92c0.03 0.55 0.24 0.72 0.46 0.77h0.01c1.6 0.3 3.26 0.42 4.95 0.34 1.77-0.08 3.47-0.36 5.1-0.84 0.01 0 0-0.01 0.01-0.01h0.02c0.1-0.04 0.12-0.06 0.15-0.11 0.02-0.05 0.04-0.24 0.02-0.55l-0.32-6.98c-0.12-2.56 0.49-4.62 1.8-6.05s3.29-2.19 5.83-2.31l7.11-0.34c0.25-0.01 0.38-0.06 0.43-0.09 0.05-0.04 0.06-0.04 0.08-0.14v-0.01c0.32-1.66 0.46-3.4 0.38-5.17-0.09-1.79-0.4-3.52-0.88-5.16-0.04-0.11-0.03-0.1-0.1-0.12-0.08-0.02-0.31-0.02-0.65 0l-6.97 0.32c-2.45 0.11-4.48-0.53-5.91-1.82-1.43-1.3-2.23-3.22-2.34-5.58l-0.34-7.31c-0.01-0.25-0.07-0.36-0.12-0.42-0.06-0.06-0.16-0.1-0.31-0.15-0.01 0-0.01-0.01-0.02-0.01-1.6-0.3-3.26-0.42-4.96-0.34s-3.35 0.35-4.92 0.8m-9.7 7.09 1.11 2.77 0.27 0.65 0.46-0.51 1.74-1.93 0.46-0.5-0.64-0.2-2.87-0.85-0.87-0.27zm2.18 25.93-0.85 2.86-0.26 0.85 0.84-0.32 2.77-1.12 0.64-0.26-0.52-0.46-1.9-1.76-0.52-0.46zm29.04 1.49-1.12-2.79-0.26-0.63-0.46 0.51-1.74 1.92-0.47 0.5 0.66 0.2 2.86 0.86 0.87 0.25zm-2.19-25.94 0.87-2.87 0.26-0.86-0.85 0.34-2.77 1.12-0.63 0.25 0.5 0.47 1.92 1.75 0.51 0.46zm11.73 12.23c0 13.9-11.26 25.15-25.15 25.15-13.9 0-25.16-11.25-25.16-25.15s11.26-25.16 25.16-25.16c13.89 0 25.15 11.26 25.15 25.16" fill="#3b3b3b"/></g><g id="g212-5-7" transform="matrix(1.25 0 0 -1.25 74.01 62.249)" fill="#151515"><path id="path214-9-9" d="m0 0-0.2 0.67-0.85 2.86-0.26 0.85 0.84-0.32 2.77-1.12 0.64-0.26-0.52-0.46-1.9-1.76z" fill="#151515"/></g><g id="g216-4-6" transform="matrix(1.25 0 0 -1.25 70.61 94.874)" fill="#151515"><path id="path218-9-0" d="m0 0 0.34 0.84 1.11 2.77 0.27 0.65 0.46-0.51 1.74-1.93 0.46-0.5-0.64-0.2-2.87-0.85z" fill="#151515"/></g><g id="g220-0-4" transform="matrix(1.25 0 0 -1.25 108.73 96.636)" fill="#151515"><path id="path222-9-1" d="m0 0-0.85 0.34-2.77 1.12-0.63 0.25 0.5 0.47 1.92 1.75 0.51 0.46 0.19-0.66 0.87-2.87z" fill="#151515"/></g><g id="g224-1-0" transform="matrix(1.25 0 0 -1.25 108.33 63.824)" fill="#151515"><path id="path226-7-4" d="m0 0-0.46 0.51-1.74 1.92-0.47 0.5 0.66 0.2 2.86 0.86 0.87 0.25-0.34-0.82-1.12-2.79z" fill="#151515"/></g><path id="path230-7-8" d="m85.135 76.686c0-2.9874 2.4124-5.3999 5.4124-5.3999 2.9874 0 5.4249 2.4125 5.4249 5.3999 0 2.9999-2.4374 5.4125-5.4249 5.4125-2.9999 0-5.4124-2.4125-5.4124-5.4125m10.375 26.575c0.01045 0 0.01045-9e-3 0.02613-9e-3 0.18707-0.0593 0.31247-0.11265 0.3872-0.18722 0.05905-0.0762 0.1369-0.21262 0.14997-0.52526l0.42482-9.1373c0.1369-2.95 1.1375-5.3499 2.925-6.9749 1.7875-1.6124 4.3249-2.4124 7.3874-2.2749l8.7123 0.39989c0.42534 0.0256 0.71247 0.0256 0.81243 0 0.0873-0.0256 0.0763-0.0089 0.12541-0.14991 0.59981-2.05 0.98747-4.2124 1.1-6.4499 0.0998-2.2124-0.0763-4.3874-0.47498-6.4624v-0.0089c-0.0261-0.12536-0.0314-0.12536-0.0998-0.17536-0.059-0.03344-0.22573-0.09996-0.53711-0.11266l-8.8873-0.42529c-3.1749-0.14991-5.6498-1.1-7.2874-2.8874-1.6374-1.7875-2.4-4.3624-2.25-7.5624l0.40026-8.7248c0.02613-0.38719 0-0.62522-0.02613-0.6879-0.03135-0.05931-0.05905-0.08726-0.18706-0.13722h-0.02613c-0.01045 0 0-0.0089-0.01045-0.0089-2.0374-0.5998-4.1625-0.94994-6.3749-1.0499-2.1124-0.09996-4.1874 0.05069-6.1873 0.42529h-0.01045c-0.27537 0.05931-0.53711 0.27532-0.57525 0.96248l-0.4128 8.6499c-0.1369 3.1125-1.1499 5.5874-2.9999 7.2248-1.8625 1.6375-4.4999 2.3875-7.7624 2.25l-8.2249-0.37533c-0.46244-0.0256-0.72517 0.0089-0.83788 0.05931-0.0998 0.05069-0.1369 0.07624-0.20013 0.23718v0.0256c-0.58795 2-0.93747 4.1-1.025 6.275-0.0998 2.1499 0.05225 4.2374 0.42482 6.2623 0.05225 0.17536 0.08726 0.24993 0.21267 0.33719 0.11234 0.07624 0.3501 0.16266 0.76242 0.17536l8.1874 0.39989c3.2124 0.13722 5.7749 1.15 7.5124 2.925 1.725 1.7749 2.5749 4.2999 2.425 7.2874l-0.40026 8.8498c-0.02613 0.43715 0.02613 0.6752 0.07629 0.76246 0.03135 0.0873 0.08726 0.14996 0.40026 0.24987 1.9624 0.56253 4.0248 0.89996 6.1498 0.99993 2.125 0.10002 4.1999-0.0507 6.1999-0.42528" fill="#212121" stroke="#252427" stroke-width=".45713"/><g id="g232-1-7" transform="matrix(1.2729 0 0 -1.2729 90.547 82.198)" fill="#151515"><path id="path234-1-0" d="m0 0c-2.4 0-4.33 1.93-4.33 4.33 0 2.39 1.93 4.32 4.33 4.32 2.39 0 4.34-1.93 4.34-4.32 0-2.4-1.95-4.33-4.34-4.33" fill="#151515"/></g><g id="g236-5-8" transform="matrix(1.25 0 0 -1.25 164.7 228.52)" fill="#151413"><path id="path238-9-6" d="m0 0c-0.69 0.6-3.23 2.83-4.42 4.12-0.77 0.81-1.65 1.41-2.18 2.43s-0.78 2.51-0.14 5.19c1.35 5.6 4.08 26.03 4.08 34.04v10.3c0 8.01-2.73 28.44-4.08 34.04-0.64 2.68-0.39 4.17 0.14 5.19s1.41 1.62 2.18 2.43c1.38 1.49 4.42 4.14 4.45 4.16 4.43-15.91 6.33-32.29 6.33-47.34v-7.23c0-15.05-1.92-31.42-6.36-47.33" fill="#151413"/></g><g id="g240-7-6" transform="matrix(1.25 0 0 -1.25 133.83 186.14)"><path id="path242-7-2" d="m0 0v6.437h1.505v-4.412c0.971 0.321 1.76 0.586 2.553 0.843 1.975 0.64 3.967 1.238 5.918 1.941 0.472 0.17 1.057 0.629 1.155 1.049 0.164 0.707-0.569 0.936-1.176 1.132-3.028 0.979-6.045 1.986-9.083 2.933-0.714 0.222-0.954 0.547-0.935 1.265 0.054 1.975 5e-3 3.952 0.023 5.927 0.018 2.002 1.328 3.311 3.4 3.355 1.866 0.039 3.735 0.043 5.601-1e-3 2.104-0.048 3.385-1.315 3.414-3.338 0.025-1.781 5e-3 -3.562 5e-3 -5.406h-1.585v4.574c1e-3 2.147-0.518 2.64-2.782 2.641-1.408 0-2.817 6e-3 -4.226-2e-3 -1.507-9e-3 -2.241-0.695-2.256-2.113-0.012-1.152-3e-3 -2.303-3e-3 -3.514h4.914v2.931h1.529v-4.566h-6.473l-0.03-0.249c2.976-0.966 5.952-1.934 8.929-2.897 1.702-0.551 2.394-1.565 2.142-3.2-0.139-0.91-0.67-1.584-1.571-1.882-3.574-1.183-7.161-2.33-10.744-3.486-0.054-0.017-0.126 0.02-0.224 0.038" fill="#d5d5d5"/></g><g id="g244-6-2" transform="matrix(1.25 0 0 -1.25 133.79 135.72)"><path id="path246-7-4" d="m0 0h1.567c0-1.717-0.019-3.401 6e-3 -5.085 0.02-1.409 1.043-2.462 2.381-2.512 1.308-0.05 2.427 0.992 2.525 2.377 0.039 0.563-0.015 1.133 0.045 1.692 0.093 0.862 0.905 1.49 1.844 1.489 0.951-1e-3 1.801-0.622 1.826-1.491 0.054-1.842 0.017-3.685 0.017-5.577h-1.55v5.414c-0.174 1e-3 -0.348 3e-3 -0.522 5e-3 -0.023-0.516-0.055-1.032-0.067-1.549-0.045-1.946-1.179-3.352-3.105-3.837-2.352-0.593-4.855 1.095-4.952 3.42-0.076 1.844-0.015 3.694-0.015 5.654" fill="#d5d5d5"/></g><g id="g248-3-7" transform="matrix(1.25 0 0 -1.25 136.52 135.7)"><path id="path250-6-9" d="m0 0h1.619v-5.433c0.151 0 0.303-1e-3 0.455-1e-3 0.022 0.554 0.055 1.107 0.065 1.662 0.027 1.555 0.771 2.712 2.203 3.394 1.459 0.694 2.92 0.587 4.261-0.328 0.92-0.627 1.543-1.494 1.578-2.586 0.061-1.908 0.017-3.82 0.017-5.805h-1.553c0 1.714 0.029 3.43-8e-3 5.145-0.037 1.702-1.626 2.807-3.227 2.293-0.963-0.309-1.61-1.192-1.676-2.324-0.032-0.532 8e-3 -1.069-0.046-1.598-0.088-0.858-0.896-1.508-1.822-1.518-0.925-0.01-1.826 0.639-1.85 1.477-0.052 1.843-0.016 3.687-0.016 5.622" fill="#d5d5d5"/></g><g id="g252-5-3" transform="matrix(1.25 0 0 -1.25 149.24 159.56)"><path id="path254-6-9" d="m0 0h-1.532c0 1.698 2e-3 3.38 0 5.061-2e-3 1.768-0.627 2.384-2.457 2.396-1.473 9e-3 -2.946 4e-3 -4.419-7e-3 -1.7-0.013-2.385-0.666-2.389-2.269-5e-3 -1.686-1e-3 -3.372-1e-3 -5.121h-1.573c0 1.258-2e-3 2.497 1e-3 3.735 2e-3 0.784-0.026 1.57 0.029 2.35 0.102 1.437 1.446 2.745 2.95 2.782 2.158 0.053 4.32 0.05 6.479 1e-3 1.383-0.032 2.806-1.2 2.88-2.521 0.119-2.115 0.032-4.241 0.032-6.407" fill="#d5d5d5"/></g><g id="g256-3-2" transform="matrix(1.25 0 0 -1.25 138.75 177.98)"><path id="path258-9-6" d="m0 0v-1.294c0.624 0.202 1.153 0.373 1.682 0.543-4e-3 0.075-9e-3 0.149-0.014 0.223-0.512 0.162-1.023 0.324-1.668 0.528m-3.897 3.152c3.373-1.092 6.674-2.154 9.965-3.241 0.233-0.077 0.481-0.318 0.56-0.536 0.043-0.12-0.215-0.455-0.401-0.518-2.638-0.886-5.287-1.743-8.008-2.631v3.687c0.391 0.041 0.739 0.077 1.087 0.114 0.019 0.052 0.039 0.105 0.058 0.158-0.611 0.21-1.22 0.426-1.833 0.629-1.626 0.541-1.627 0.539-1.428 2.338" fill="#d5d5d5"/></g><g id="g260-4-8" transform="matrix(1.25 0 0 -1.25 138.95 167.19)"><path id="path262-8-3" d="m0 0c0.138 0.472 0.22 0.752 0.318 1.088h1.392v-2.392h-3.646c0 1.223-0.069 2.439 0.047 3.638 0.031 0.312 0.631 0.802 0.988 0.817 1.962 0.082 3.93 0.058 5.895 0.035 0.689-9e-3 1.093-0.412 1.1-1.077 0.017-1.816 6e-3 -3.633 6e-3 -5.531h-1.559c0 1.367-0.038 2.708 0.014 4.045 0.033 0.821-0.267 1.138-1.132 1.085-0.914-0.055-1.834-3e-3 -2.751-0.014-1.095-0.014-1.358-0.519-0.672-1.694" fill="#d5d5d5"/></g><g id="g264-1-0" transform="matrix(1.25 0 0 -1.25 138.62 153.01)"><path id="path266-2-7" d="m0 0c-0.315-1.688 0.015-3.436-0.183-5.186h-1.486c0 2.002-0.049 3.964 0.049 5.92 0.016 0.312 0.653 0.779 1.064 0.85 0.789 0.136 1.622 0.04 2.519 0.04v-5.568h-1.469v3.892c-0.165 0.018-0.329 0.035-0.494 0.052" fill="#d5d5d5"/></g><g id="g268-9-1" transform="matrix(1.25 0 0 -1.25 146.55 159.56)"><path id="path270-3-7" d="m0 0h-1.477c-0.247 1.736 0.158 3.517-0.219 5.223-0.135-6e-3 -0.271-0.012-0.406-0.017v-3.912h-1.543v5.553c0.905 0 1.85 0.078 2.766-0.041 0.328-0.043 0.828-0.553 0.84-0.865 0.077-1.963 0.039-3.93 0.039-5.941" fill="#d5d5d5"/></g><g id="g272-9-8" transform="matrix(1.25 0 0 -1.25 85.118 154.35)"><path id="path274-0-9" d="m0 0c0 0.187 0.023 0.351 0.072 0.489 0.049 0.14 0.117 0.256 0.205 0.351 0.086 0.093 0.192 0.164 0.313 0.213s0.254 0.075 0.398 0.08v-0.474c-0.093-8e-3 -0.174-0.03-0.242-0.067s-0.125-0.084-0.17-0.142c-0.045-0.057-0.078-0.123-0.099-0.196-0.022-0.074-0.032-0.153-0.032-0.237 2e-3 -0.079 0.01-0.152 0.026-0.216 0.015-0.066 0.039-0.122 0.068-0.168 0.029-0.047 0.065-0.082 0.107-0.108 0.043-0.025 0.09-0.038 0.143-0.038 0.055 0 0.1 0.012 0.139 0.036 0.037 0.026 0.07 0.065 0.101 0.121 0.03 0.054 0.057 0.127 0.082 0.215 0.024 0.09 0.049 0.2 0.075 0.33 0.033 0.15 0.072 0.278 0.117 0.386 0.043 0.108 0.095 0.196 0.156 0.266 0.061 0.068 0.131 0.12 0.209 0.153s0.168 0.05 0.271 0.049c0.11 0 0.211-0.022 0.303-0.068 0.094-0.047 0.174-0.112 0.24-0.196 0.067-0.085 0.12-0.185 0.159-0.301 0.037-0.118 0.056-0.248 0.056-0.391 0-0.149-0.019-0.285-0.06-0.408s-0.1-0.23-0.176-0.32c-0.076-0.088-0.17-0.159-0.281-0.21-0.11-0.05-0.237-0.078-0.375-0.081v0.468c0.297 0.033 0.445 0.213 0.445 0.537 0 0.158-0.027 0.28-0.08 0.364-0.055 0.083-0.127 0.125-0.221 0.125-0.037 0-0.07-9e-3 -0.099-0.027-0.028-0.018-0.053-0.048-0.077-0.088-0.023-0.04-0.044-0.092-0.064-0.155s-0.039-0.139-0.059-0.229c-0.015-0.078-0.031-0.157-0.05-0.239-0.02-0.082-0.043-0.162-0.073-0.241-0.027-0.078-0.06-0.152-0.099-0.222-0.039-0.069-0.088-0.13-0.145-0.182-0.056-0.053-0.123-0.095-0.199-0.124-0.076-0.031-0.164-0.046-0.268-0.046-0.121 0-0.23 0.025-0.33 0.074-0.099 0.05-0.185 0.118-0.257 0.206-0.073 0.088-0.127 0.192-0.168 0.315-0.041 0.121-0.061 0.253-0.061 0.396" fill="#d5d5d5"/></g><g id="g276-8-1" transform="matrix(1.25 0 0 -1.25 87.879 158.62)"><path id="path278-8-5" d="m0 0v0.812l-2.166 2e-3v0.489l2.164-3e-3v0.808l0.451-1e-3v-2.107z" fill="#d5d5d5"/></g><g id="g280-5-5" transform="matrix(1.25 0 0 -1.25 86.629 160.66)"><path id="path282-0-4" d="m0 0 0.826 0.315-0.828 0.3zm-1.164-0.979v0.543l0.748 0.286v0.913l-0.748 0.272-2e-3 0.516 2.617-1.005v-0.465z" fill="#d5d5d5"/></g><g id="g284-9-6" transform="matrix(1.25 0 0 -1.25 87.052 162.87)"><path id="path286-6-9" d="m0 0v-0.648c2e-3 -0.087 8e-3 -0.162 0.02-0.224 0.011-0.063 0.031-0.113 0.058-0.153 0.027-0.039 0.065-0.069 0.109-0.087 0.045-0.019 0.1-0.028 0.165-0.028 0.115-1e-3 0.201 0.036 0.255 0.108 0.053 0.072 0.08 0.183 0.08 0.334v0.698zm-1.5-1.755v0.525l0.713 0.248c0.049 0.018 0.094 0.043 0.135 0.072 0.041 0.03 0.078 0.064 0.107 0.104 0.029 0.039 0.053 0.083 0.07 0.131 0.016 0.049 0.026 0.099 0.026 0.154v0.522l-1.051 1e-3v0.487l2.615-3e-3v-1.17c0-0.069-2e-3 -0.135-4e-3 -0.199-2e-3 -0.063-9e-3 -0.123-0.021-0.181-0.014-0.058-0.031-0.114-0.055-0.167-0.023-0.053-0.055-0.104-0.098-0.152-0.035-0.043-0.076-0.08-0.123-0.112-0.044-0.032-0.091-0.058-0.142-0.079-0.051-0.022-0.104-0.037-0.158-0.048-0.055-0.012-0.11-0.017-0.162-0.017-0.161 0-0.297 0.039-0.413 0.117-0.113 0.076-0.201 0.182-0.261 0.318-0.086-0.111-0.221-0.202-0.405-0.272z" fill="#d5d5d5"/></g><g id="g288-3-2" transform="matrix(1.25 0 0 -1.25 87.887 168.03)"><path id="path290-8-5" d="m0 0v0.812l-2.166 2e-3v0.489l2.164-3e-3v0.808l0.451-1e-3v-2.107z" fill="#d5d5d5"/></g><g id="g292-5-7" transform="matrix(1.25 0 0 -1.25 94.823 215.84)" fill="#3d3d3e"><path id="path294-6-4" d="m0 0 0.876 2.409-2.424 0.719-0.723 1.461 3.524-1.09 1.291 3.473 0.723-1.461-0.918-2.373 2.466-0.755 0.705-1.425-3.553 1.098-1.262-3.481z" fill="#3d3d3e"/></g><g id="g296-1-9" transform="matrix(1.25 0 0 -1.25 109.84 240.48)" fill="#3d3d3e"><path id="path298-1-9" d="m0 0-1.779-0.88-0.753 1.521 1.779 0.881 1.7 4.201 0.814-1.644-1.314-2.917 3.111-0.714 0.813-1.644z" fill="#3d3d3e"/></g><g id="g300-5-4" transform="matrix(1.25 0 0 -1.25 113.07 264.78)" fill="#3d3d3e"><path id="path302-9-5" d="m0 0 0.756 0.374 4.774-1.578-1.482 2.996 0.853 0.423 2.395-4.839-0.802-0.397-4.716 1.578 1.661-3.357-0.854-0.423z" fill="#3d3d3e"/></g><g id="g6917"><g id="g172-8-9" transform="matrix(1.25 0 0 -1.25 58.885 238.11)" fill="#1a1a1a"><path id="path174-4-3" d="m0 0c-6.4 0-11.57 5.16-11.57 11.56s5.17 11.58 11.57 11.58 11.58-5.18 11.58-11.58-5.18-11.56-11.58-11.56" fill="#1a1a1a"/></g><g id="g304-8-5" transform="matrix(1.25 0 0 -1.25 60.133 225.62)"><path id="path306-1-7" d="m0 0 1.272 1.879-0.264 0.551-2.222 0.114zm-1.029-2.906-0.408 0.855 0.896 1.378-1.548 3.242-1.617 0.132-0.425 0.893 5.666-0.488 0.601-1.259z" fill="#35353a"/></g></g><g id="g6923"><g id="g168-0-0" transform="matrix(1.25 0 0 -1.25 76.273 266.85)" fill="#1a1a1a"><path id="path170-3-8" d="m0 0c-6.39 0-11.57 5.17-11.57 11.56 0 6.4 5.18 11.58 11.57 11.58 6.4 0 11.58-5.18 11.58-11.58 0-6.39-5.18-11.56-11.58-11.56" fill="#1a1a1a"/></g><g id="g308-0-1" transform="matrix(1.25 0 0 -1.25 78.346 254.12)"><path id="path310-4-9" d="m0 0-1.542 3.265 1.129 0.533 1.542-3.265c0.157-0.333 0.044-0.59-0.335-0.769-0.375-0.177-0.637-0.097-0.794 0.236m-1.891-0.893-0.242 0.513-1.291 2.757 1.128 0.533 1.316-2.787 0.218-0.483c0.157-0.333 0.048-0.588-0.322-0.763-0.379-0.179-0.65-0.103-0.807 0.23m1.828-0.074c0.225-0.24 0.563-0.274 1.011-0.113l0.387 0.172c0.754 0.356 0.921 0.975 0.508 1.849l-1.867 3.953-0.745-0.342-3.011-1.422-0.75-0.364 1.866-3.953c0.413-0.874 1-1.137 1.75-0.783l0.379 0.189c0.331 0.207 0.489 0.476 0.472 0.814" fill="#35353a"/></g></g><g id="g6929"><g id="g164-4-9" transform="matrix(1.25 0 0 -1.25 87.247 297.96)" fill="#1a1a1a"><path id="path166-4-7" d="m0 0c-6.4 0-11.56 5.18-11.56 11.57 0 6.4 5.16 11.58 11.56 11.58s11.58-5.18 11.58-11.58c0-6.39-5.18-11.57-11.58-11.57" fill="#1a1a1a"/></g><g id="g312-4-8" transform="matrix(1.25 0 0 -1.25 89.886 283.88)"><path id="path314-7-2" d="m0 0-0.791 1.919c-0.524 1.288-0.992 0.964-2.018 0.543-1.027-0.42-1.585-0.515-1.059-1.798l1.39-3.396-0.77-0.315-1.393 3.39c-0.737 1.793-0.028 2.248 1.512 2.879s2.369 0.813 3.104-0.966l1.397-3.411-0.764-0.313z" fill="#35353a"/></g></g></g></svg>
