<?xml version="1.0" encoding="UTF-8"?>
<!-- Generator: Adobe Illustrator 19.0.0, SVG Export Plug-In . SVG Version: 6.00 Build 0)  -->
<svg id="Layer_1" baseProfile="tiny" version="1.1" viewBox="0 0 247.7 470.3" xml:space="preserve" xmlns="http://www.w3.org/2000/svg">

	<path d="m50.7 235.1c0.5 45.7-4.4 75.8-21.2 99.1-13.6 19-30.2 39.4-29.5 67.8 0.1 5.1 0.7 17.5 8 30.7 3.8 6.9 9.7 13.8 18.8 20.2 62.7 44.2 123.6-8.8 129.5-13 89.8-64.2 91.3-158.6 91.3-204.7s-1.5-140.5-91.3-204.7c-5.8-4.2-66.8-57.2-129.5-13-9.1 6.4-14.9 13.3-18.8 20.2-7.3 13.1-7.9 25.5-8 30.6-0.7 28.4 15.9 48.8 29.5 67.8 16.8 23.2 21.6 53.3 21.2 99z" fill="#1B1D1F"/>
	<path d="m239.3 317.8c8.1-32.5 8.4-62.3 8.4-82.6 0-20.4-0.3-50.2-8.4-82.6-9.6 4.1-14 6.2-18.4 10.3-1 0.9-0.9 3.5-0.2 6.5 6.9 20.6 7 51 7 65.8s-0.1 45.2-7 65.8c-0.7 3-0.8 5.6 0.2 6.5 4.4 4.1 8.8 6.2 18.4 10.3" fill="#111"/>
	
		<ellipse transform="matrix(.8269 .5623 -.5623 .8269 216.5 -9.548)" cx="123.8" cy="347" rx="73.3" ry="94.7" fill="#111"/>
	
		<ellipse transform="matrix(.8269 .5623 -.5623 .8269 213.83 -11.474)" cx="125.6" cy="341.6" rx="59.9" ry="74.9" fill="#090909"/>
	<circle cx="139.3" cy="294.1" r="14.5" fill="#6A6A6D"/>
	<circle cx="155.7" cy="332.3" r="14.5" fill="#6A6A6D"/>
	<circle cx="168.3" cy="371.9" r="14.5" fill="#6A6A6D"/>
	<circle cx="93.7" cy="309.2" r="19" fill="#262626"/>
	<circle cx="113.1" cy="355.1" r="19" fill="#262626"/>
	<circle cx="129.5" cy="401" r="19" fill="#262626"/>
	
		<ellipse transform="matrix(.8269 -.5623 .5623 .8269 -43.063 93.265)" cx="130" cy="116.6" rx="69.3" ry="85" fill="#191818"/>
	
		<ellipse transform="matrix(.8269 -.5623 .5623 .8269 -43.37 96.018)" cx="134.3" cy="118.5" rx="54.8" ry="63.7" fill="#0F0F0F"/>
	<circle cx="136.5" cy="119.2" r="47.5"/>
	<circle cx="136.5" cy="119.2" r="41.8" fill="#373737"/>
	<polygon points="161.3 95.8 154.4 99.1 158 102.7" fill="#1F1F1F"/>
	<polygon points="113.1 95.8 116.4 102.7 120 99.1" fill="#1F1F1F"/>
	<polygon points="112.8 144 119.7 140.7 116.1 137.1" fill="#1F1F1F"/>
	<polygon points="161 144.5 157.7 137.6 154.1 141.2" fill="#1F1F1F"/>
	<path id="XMLID_23_" d="m136.5 161c-2 0-4 0-6.1-0.1-3.1-0.1-4.4-1.7-4.7-4.8-0.3-4-0.7-8.1-1.6-12-1.5-6.8-6-11.1-12.7-12.6-3.7-0.8-7.5-1.2-11.2-1.5-4.1-0.4-5.3-1.2-5.4-5.2-0.1-1.8-0.1-3.7-0.1-5.5s0-3.7 0.1-5.5c0.1-4 1.3-4.9 5.4-5.2 3.8-0.3 7.6-0.7 11.2-1.5 6.8-1.5 11.2-5.8 12.7-12.6 0.9-3.9 1.3-8 1.6-12 0.2-3.1 1.6-4.7 4.7-4.8 2-0.1 4-0.1 6.1-0.1 2 0 4 0 6.1 0.1 3.1 0.1 4.4 1.7 4.7 4.8 0.3 4 0.7 8.1 1.6 12 1.5 6.8 6 11.1 12.7 12.6 3.7 0.8 7.5 1.2 11.2 1.5 4.1 0.4 5.3 1.2 5.4 5.2 0.1 1.8 0.1 3.7 0.1 5.5s0 3.7-0.1 5.5c-0.1 4-1.3 4.9-5.4 5.2-3.8 0.3-7.6 0.7-11.2 1.5-6.8 1.5-11.2 5.8-12.7 12.6-0.9 3.9-1.3 8-1.6 12-0.2 3.1-1.6 4.7-4.7 4.8-2 0.1-4.1 0.1-6.1 0.1z" fill="#181818"/>
	<polygon points="128 104 128 79.6 145.8 79.6 145.8 104 151.7 110.3 176 110.3 176 128.1 151.7 128.1 145.3 134.6 145.3 158.9 127.5 158.9 127.5 134.6 121.6 128.3 97.3 128.3 97.3 110.4 121.6 110.4" fill="#2C2C2C"/>
	<path id="XMLID_22_" d="m136.5 128c-4.8 0-8.8-3.9-8.8-8.8 0-4.8 3.9-8.8 8.8-8.8 4.8 0 8.7 3.9 8.7 8.8 0.1 4.9-3.8 8.8-8.7 8.8z" fill="#242424"/>
	<path id="XMLID_1_" d="m127.8 119.2c0-3.3 1.9-6.2 4.6-7.7 2.7 1.5 4.5 4.4 4.5 7.7s-1.8 6.2-4.5 7.7c-2.8-1.5-4.6-4.4-4.6-7.7" fill="#404040"/>
	<path id="XMLID_12_" d="m115.9 362.1c0.4 0.9 0.9 1.2 1.5 1.2l0.5-0.1c0.9-0.3 0.9-1.9-0.1-4.7l-4.6-12.5-0.9 0.3-3.7 1.4-0.9 0.4 4.6 12.5c1 2.8 2 4 2.9 3.6l0.5-0.2c0.3-0.4 0.4-1 0.2-1.9zm-2.7-1.8-0.6-1.6-3.2-8.7 1.4-0.5 3.2 8.8 0.5 1.5c0.4 1 0.3 1.7-0.1 1.8-0.4 0.2-0.8-0.2-1.2-1.3zm2.3-0.8-3.8-10.3 1.4-0.5 3.8 10.3c0.4 1 0.3 1.7-0.1 1.8-0.5 0.2-0.9-0.3-1.3-1.3z" fill="#141415"/>
	<circle cx="103.6" cy="358.9" r="1.1" fill="#191818"/>
	<path id="XMLID_9_" d="m95.3 317.5-0.8-2.2 0.8-2.6-3.1-8.3-2.3-1.3-0.8-2.3 8 4.5 1.2 3.2-3 9zm0.6-6 1.2-3.5-0.5-1.4-3.1-1.6 2.4 6.5z" fill="#141415"/>
	<path id="XMLID_8_" d="m132.1 403.8-2.1-6c-1.4-4-1.9-3.5-3.1-3-1.2 0.4-2 0.3-0.5 4.3l3.7 10.6-0.9 0.3-3.7-10.6c-2-5.6-1.2-6.4 0.6-7s2.9-0.5 4.9 5l3.7 10.7-0.9 0.3-1.7-4.6z" fill="#141415"/>
	<path d="m137.8 300.3 0.5-3.3c0.2-1.3 0.3-2.1 0.4-2.9v-0.1c-0.6-0.5-1.2-0.9-2.2-1.8l-2.4-2-1.1-3.2 5.8 5.2 1.1-7.5 1.2 3.2-0.6 3.4c-0.2 0.9-0.3 1.7-0.4 2.4v0.1c0.6 0.5 1.1 0.9 1.8 1.5l2.6 2.3 1.1 3.2-5.6-5.3-1.1 7.9-1.1-3.1z" fill="#484849"/>
	<path d="m151.8 331.9 2.9-1 1.5-8.1 1.1 3.1-0.8 3.7c-0.2 1-0.4 1.8-0.6 2.6v0.1c0.7 0.4 1.4 1 2.2 1.6l3 2.4 1.1 3.1-6.5-5.7-2.9 1-1-2.8z" fill="#484849"/>
	<path d="m162.6 365.2 9.8 9.8-3.9-10.8 0.7-0.3 5.2 14.3-0.5 0.2-9.7-9.7 4.3 11.9-0.7 0.3-5.6-15.5 0.4-0.2z" fill="#484849"/>
	<g id="XMLID_66_" fill="#D5D5D5">
		<path id="XMLID_105_" d="m122.6 215.6c0-0.4 0.1-0.8 0.2-1.1s0.3-0.6 0.6-0.8 0.6-0.4 0.9-0.5c0.4-0.1 0.7-0.2 1.2-0.2v1.1c-0.3 0-0.5 0.1-0.7 0.2s-0.4 0.2-0.5 0.3-0.2 0.3-0.3 0.4c-0.1 0.2-0.1 0.4-0.1 0.5 0 0.2 0 0.3 0.1 0.5 0 0.1 0.1 0.3 0.2 0.4s0.2 0.2 0.3 0.2c0.1 0.1 0.3 0.1 0.4 0.1 0.2 0 0.3 0 0.4-0.1s0.2-0.1 0.3-0.3c0.1-0.1 0.2-0.3 0.2-0.5 0.1-0.2 0.1-0.5 0.2-0.8l0.3-0.9c0.1-0.2 0.3-0.4 0.5-0.6s0.4-0.3 0.6-0.4 0.5-0.1 0.8-0.1 0.6 0.1 0.9 0.2 0.5 0.3 0.7 0.4c0.2 0.2 0.4 0.4 0.5 0.7s0.2 0.6 0.2 0.9-0.1 0.7-0.2 0.9c-0.1 0.3-0.3 0.5-0.5 0.7s-0.5 0.4-0.8 0.5-0.7 0.2-1.1 0.2v-1.1c0.9-0.1 1.3-0.5 1.3-1.2 0-0.4-0.1-0.6-0.2-0.8-0.2-0.2-0.4-0.3-0.6-0.3-0.1 0-0.2 0-0.3 0.1-0.1 0-0.2 0.1-0.2 0.2s-0.1 0.2-0.2 0.4c-0.1 0.1-0.1 0.3-0.2 0.5 0 0.2-0.1 0.4-0.1 0.5-0.1 0.2-0.1 0.4-0.2 0.6s-0.2 0.3-0.3 0.5-0.3 0.3-0.4 0.4l-0.6 0.3c-0.2 0.1-0.5 0.1-0.8 0.1-0.4 0-0.7-0.1-1-0.2s-0.5-0.3-0.8-0.5-0.4-0.4-0.5-0.7c-0.2-0.1-0.2-0.4-0.2-0.7z"/>
		<path id="XMLID_102_" d="m129.1 223.4v-1.9h-6.4v-1.1h6.4v-1.8h1.3v4.8h-1.3z"/>
		<path id="XMLID_90_" d="m122.7 229.4v-1.2l2.2-0.7v-2.1l-2.2-0.6v-1.2l7.7 2.3v1.1l-7.7 2.4zm3.4-2.3 2.4-0.7-2.4-0.7v1.4z"/>
		<path id="XMLID_70_" d="m122.7 235.2v-1.2l2.1-0.6c0.1 0 0.3-0.1 0.4-0.2s0.2-0.1 0.3-0.2 0.2-0.2 0.2-0.3 0.1-0.2 0.1-0.4v-1.2h-3.1v-1.1h7.7v2.7 0.5c0 0.1 0 0.3-0.1 0.4 0 0.1-0.1 0.3-0.2 0.4l-0.3 0.3c-0.1 0.1-0.2 0.2-0.4 0.3-0.1 0.1-0.3 0.1-0.4 0.2-0.1 0-0.3 0.1-0.5 0.1h-0.5c-0.5 0-0.9-0.1-1.2-0.3s-0.6-0.4-0.8-0.7c-0.3 0.3-0.6 0.5-1.2 0.6l-2.1 0.7zm4.4-4v1.5c0 0.2 0 0.4 0.1 0.5 0 0.1 0.1 0.3 0.2 0.4s0.2 0.2 0.3 0.2 0.3 0.1 0.5 0.1c0.3 0 0.6-0.1 0.8-0.2 0.2-0.2 0.2-0.4 0.2-0.8v-1.6h-2.1z"/>
		<path id="XMLID_68_" d="m129.1 240.6v-1.9h-6.4v-1.1h6.4v-1.8h1.3v4.8h-1.3z"/>
	</g>
	<circle cx="146.4" cy="329.7" r="1.1" fill="#484849"/>
	<circle cx="149.6" cy="339.7" r="1.1" fill="#484849"/>
	<g id="SEGA_1_" fill="#D5D5D5">
		<path id="XMLID_131_" d="m181.7 252.9v-7.7h2v5.3c1.3-0.4 2.3-0.7 3.4-1 2.6-0.8 5.3-1.5 7.8-2.3 0.6-0.2 1.4-0.8 1.5-1.3 0.2-0.8-0.8-1.1-1.6-1.4-4-1.2-8-2.4-12-3.5-0.9-0.3-1.3-0.7-1.2-1.5 0.1-2.4 0-4.7 0-7.1s1.8-4 4.5-4c2.5 0 4.9-0.1 7.4 0 2.8 0.1 4.5 1.6 4.5 4v6.5h-2.1v-5.5c0-2.6-0.7-3.2-3.7-3.2h-5.6c-2 0-3 0.8-3 2.5v4.2h6.5v-3.5h2v5.5h-8.6v0.3c3.9 1.2 7.9 2.3 11.8 3.5 2.3 0.7 3.2 1.9 2.8 3.8-0.2 1.1-0.9 1.9-2.1 2.3-4.7 1.4-9.5 2.8-14.2 4.2 0.1 0 0-0.1-0.1-0.1z"/>
		<path id="XMLID_130_" d="m181.7 204.6h2.1v6.1c0 1.7 1.4 2.9 3.2 3 1.7 0.1 3.2-1.2 3.3-2.8 0.1-0.7 0-1.4 0.1-2 0.1-1 1.2-1.8 2.4-1.8 1.3 0 2.4 0.7 2.4 1.8 0.1 2.2 0 4.4 0 6.7h-2.1v-3.4-3.1h-0.7c0 0.6-0.1 1.2-0.1 1.9-0.1 2.3-1.6 4-4.1 4.6-3.1 0.7-6.4-1.3-6.6-4.1 0-2.3 0.1-4.6 0.1-6.9z"/>
		<path id="XMLID_129_" d="m184.6 204.6h2.1v6.5h0.6c0-0.7 0.1-1.3 0.1-2 0-1.9 1-3.2 2.9-4.1 1.9-0.8 3.9-0.7 5.6 0.4 1.2 0.8 2 1.8 2.1 3.1 0.1 2.3 0 4.6 0 7h-2.1v-6.2c0-2-2.2-3.4-4.3-2.7-1.3 0.4-2.1 1.4-2.2 2.8 0 0.6 0 1.3-0.1 1.9-0.1 1-1.2 1.8-2.4 1.8s-2.4-0.8-2.4-1.8c0-2.2 0.1-4.4 0.1-6.7z"/>
		<path id="XMLID_127_" d="m198 227.4h-2v-6.1c0-2.1-0.8-2.9-3.3-2.9h-5.9c-2.3 0-3.2 0.8-3.2 2.7v6.1h-2.1v-4.5-2.8c0.1-1.7 1.9-3.3 3.9-3.3 2.9-0.1 5.7-0.1 8.6 0 1.8 0 3.7 1.4 3.8 3 0.4 2.7 0.2 5.3 0.2 7.8z"/>
		<path id="XMLID_123_" d="m181.8 241.3c4.5 1.3 8.8 2.6 13.2 3.9 0.3 0.1 0.6 0.4 0.7 0.6 0.1 0.1-0.3 0.5-0.5 0.6-3.5 1.1-7 2.1-10.6 3.2v-4.4c0.5 0 1-0.1 1.4-0.1 0-0.1 0.1-0.1 0.1-0.2-0.8-0.3-1.6-0.5-2.4-0.8-2.2-0.6-2.2-0.6-1.9-2.8zm5.1 3.8v1.5c0.8-0.2 1.5-0.4 2.2-0.7v-0.3c-0.6-0.1-1.3-0.3-2.2-0.5z"/>
		<path id="XMLID_122_" d="m187.1 234.8c0.2-0.6 0.3-0.9 0.4-1.3h1.8v2.9h-4.8c0-1.5-0.1-2.9 0.1-4.4 0-0.4 0.8-1 1.3-1 2.6-0.1 5.2-0.1 7.8 0 0.9 0 1.4 0.5 1.5 1.3v6.6h-2.1c0-1.6-0.1-3.2 0-4.8 0-1-0.4-1.4-1.5-1.3-1.2 0.1-2.4 0-3.6 0-1.4-0.1-1.8 0.5-0.9 2z"/>
		<path id="XMLID_121_" d="m186.8 221.2c-0.4 2 0 4.1-0.2 6.2h-2c0-2.4-0.1-4.7 0.1-7.1 0-0.4 0.9-0.9 1.4-1 1-0.2 2.1 0 3.3 0v6.7h-1.9v-4.7c-0.3-0.1-0.5-0.1-0.7-0.1z"/>
		<path id="XMLID_116_" d="m195.2 227.4h-2c-0.3-2.1 0.2-4.2-0.3-6.3h-0.5v4.7h-2v-6.7c1.2 0 2.4-0.1 3.7 0 0.4 0.1 1.1 0.7 1.1 1v7.3z"/>
	</g>
	
		<path d="m132.6 243.7v-35.3c0-3.7 3-6.8 6.8-6.8h4.8c3.7 0 6.8 3 6.8 6.8v35.3c0 3.7-3 6.8-6.8 6.8h-4.8c-3.8-0.1-6.8-3.1-6.8-6.8z" fill="#191818"/>
		<path d="m137.5 241.3v-31.5c0-1.7 1.4-3.1 3.1-3.1h2.2c1.7 0 3.1 1.4 3.1 3.1v31.5c0 1.7-1.4 3.1-3.1 3.1h-2.2c-1.7 0-3.1-1.4-3.1-3.1z" fill="#B7B7B7"/>
	

</svg>
