<?xml version="1.0" encoding="UTF-8"?>
<svg id="svg77" width="165.14" height="384.99" version="1.1" viewBox="109.84 -107.43 165.14 384.99" xmlns="http://www.w3.org/2000/svg" xmlns:bx="https://www.boxy-svg.com/bx" xmlns:cc="http://creativecommons.org/ns#" xmlns:dc="http://purl.org/dc/elements/1.1/" xmlns:rdf="http://www.w3.org/1999/02/22-rdf-syntax-ns#">
 <metadata id="metadata83">
  <rdf:RDF>
   <cc:Work rdf:about="">
    <dc:format>image/svg+xml</dc:format>
    <dc:type rdf:resource="http://purl.org/dc/dcmitype/StillImage"/>
   </cc:Work>
  </rdf:RDF>
 </metadata>
 <path id="path7" d="m274.98 154.53c0-0.991-0.085-2.134-0.519-3.111-0.435-0.978-1.363-1.795-2.674-1.795v0.641c-0.252-0.011-0.63 0.021-0.641 0.332l0.121 44.485c-0.479 15.887-5.099 29.69-12.469 41.794-0.258 0.514 0.278 0.736 0.488 0.727 0.857-0.036 1.531-0.086 2.068-0.151v0.065c0.848 0 1.502 0.073 2.134 0 0.624-0.073 1.257-0.428 1.616-1.077 4e-3 -6e-3 0.019 4e-3 0.021 0 2e-3 -6e-3 -4e-3 -0.015 0-0.02 6.714-11.945 9.855-25.708 9.855-40.34z" fill="#bdbdbd" bx:origin="0 0"/>
 <path id="path-7" d="m274.98 15.71c0 0.991-0.085 2.134-0.519 3.111-0.435 0.978-1.363 1.795-2.674 1.795v-0.641c-0.252 0.011-0.63-0.021-0.641-0.332l0.121-44.485c-0.479-15.887-5.099-29.69-12.469-41.794-0.258-0.514 0.278-0.736 0.488-0.727 0.857 0.036 1.531 0.086 2.068 0.151v-0.065c0.848 0 1.502-0.073 2.134 0 0.624 0.073 1.257 0.428 1.616 1.077 4e-3 6e-3 0.019-4e-3 0.021 0 2e-3 6e-3 -4e-3 0.015 0 0.02 6.714 11.945 9.855 25.708 9.855 40.34z" fill="#bdbdbd" bx:origin="0 1"/>
 <path id="path-11" d="m271.87-26.407v105.55h-1.474v12.032h1.474v105.37c0 44.754-36.25 81.022-81.002 81.022-44.754 0-81.022-36.27-81.022-81.022 0-17.66 5.652-33.984 15.24-47.297v-0.019l1.295-1.673c2.348-2.94 3.745-6.667 3.745-10.719v-103.54c0-4.051-1.397-7.778-3.745-10.717l-1.295-1.674v-0.019c-9.594-13.305-15.243-29.626-15.243-47.292 0-44.752 36.268-81.021 81.022-81.021 44.752 0 81.003 36.27 81.003 81.021z" fill="#ccc" bx:origin="0.5 0.5"/>
 <g id="g32" transform="rotate(90 191.91 84.569)" fill="#4c4c4c">
  <g id="g18">
   <path id="path5" d="m145.37 123.43c0.053-0.336-0.087-0.598-0.42-0.784l-0.56-0.319c-0.787-0.469-1.16-1.107-1.12-1.913 0.02-0.372 0.117-0.7 0.29-0.983 0.173-0.293 0.417-0.519 0.73-0.678 0.307-0.16 0.643-0.235 1.01-0.226 0.493 9e-3 0.89 0.199 1.19 0.571 0.3 0.363 0.447 0.855 0.44 1.475h-1.16c7e-3 -0.248-0.033-0.451-0.12-0.611-0.087-0.15-0.23-0.23-0.43-0.239-0.2 0-0.373 0.062-0.52 0.186-0.153 0.123-0.243 0.296-0.27 0.518-0.04 0.302 0.13 0.549 0.51 0.744 0.38 0.196 0.657 0.359 0.83 0.492 0.547 0.434 0.803 1.019 0.77 1.754-0.02 0.381-0.113 0.718-0.28 1.01-0.167 0.283-0.397 0.505-0.69 0.664-0.293 0.16-0.627 0.235-1 0.226-0.267-9e-3 -0.513-0.062-0.74-0.159-0.233-0.107-0.433-0.262-0.6-0.465-0.327-0.408-0.483-0.948-0.47-1.622l1.17 0.014c-0.013 0.336 0.037 0.594 0.15 0.77 0.107 0.169 0.293 0.253 0.56 0.253 0.193 0 0.357-0.057 0.49-0.173 0.133-0.123 0.213-0.292 0.24-0.505z" bx:origin="0.5 0.5"/>
   <path id="path8" d="m169.79 119.84h-1.44l-0.71 5.382h-1.17l0.71-5.382h-1.43l0.17-1.235h4.04z" bx:origin="0.5 0.5"/>
   <path id="path10" d="m164.48 122.97c-0.034 0.469-0.15 0.881-0.35 1.236-0.2 0.363-0.46 0.642-0.78 0.837-0.327 0.195-0.68 0.288-1.06 0.279-0.52-0.017-0.927-0.239-1.22-0.664-0.3-0.435-0.464-1.019-0.49-1.754-0.02-0.488 0.02-1.023 0.12-1.608 0.1-0.576 0.263-1.076 0.49-1.502 0.233-0.434 0.503-0.757 0.81-0.97 0.313-0.212 0.653-0.315 1.02-0.305 0.546 0.017 0.976 0.235 1.29 0.651 0.313 0.425 0.486 1.006 0.52 1.741h-1.17c6e-3 -0.408-0.047-0.695-0.16-0.864-0.12-0.177-0.3-0.27-0.54-0.279-0.62-0.027-0.997 0.607-1.13 1.9-0.06 0.594-0.09 1.014-0.09 1.262-0.014 0.744 0.193 1.13 0.62 1.156 0.273 0.01 0.493-0.083 0.66-0.279 0.166-0.195 0.273-0.465 0.32-0.81z" bx:origin="0.5 0.5"/>
   <path id="path12" d="m159.33 122.42h-1.83l-0.2 1.582h2.16l-0.16 1.222h-3.33l0.86-6.617h3.34l-0.16 1.235h-2.17l-0.18 1.396h1.83z" bx:origin="0.5 0.5"/>
   <path id="path14" d="m153.09 124h2.02l-0.16 1.222h-3.19l0.86-6.617h1.17z" bx:origin="0.5 0.5"/>
   <path id="path16" d="m150.78 122.42h-1.83l-0.2 1.582h2.16l-0.16 1.222h-3.33l0.86-6.617h3.34l-0.16 1.235h-2.17l-0.18 1.396h1.83z" bx:origin="0.5 0.5"/>
  </g>
  <g id="g30">
   <path id="path20" d="m189 123.43c0.053-0.336-0.087-0.598-0.42-0.784l-0.56-0.319c-0.787-0.469-1.16-1.107-1.12-1.913 0.02-0.372 0.117-0.7 0.29-0.983 0.173-0.293 0.417-0.519 0.73-0.678 0.307-0.16 0.643-0.235 1.01-0.226 0.493 9e-3 0.89 0.199 1.19 0.571 0.3 0.363 0.447 0.855 0.44 1.475h-1.16c7e-3 -0.248-0.033-0.451-0.12-0.611-0.087-0.15-0.23-0.23-0.43-0.239-0.2 0-0.373 0.062-0.52 0.186-0.153 0.123-0.243 0.296-0.27 0.518-0.04 0.302 0.13 0.549 0.51 0.744 0.38 0.196 0.657 0.359 0.83 0.492 0.547 0.434 0.803 1.019 0.77 1.754-0.02 0.381-0.113 0.718-0.28 1.01-0.167 0.283-0.397 0.505-0.69 0.664-0.293 0.16-0.627 0.235-1 0.226-0.267-9e-3 -0.513-0.062-0.74-0.159-0.233-0.107-0.433-0.262-0.6-0.465-0.327-0.408-0.483-0.948-0.47-1.622l1.17 0.014c-0.013 0.336 0.037 0.594 0.15 0.77 0.107 0.169 0.293 0.253 0.56 0.253 0.193 0 0.357-0.057 0.49-0.173 0.133-0.123 0.213-0.292 0.24-0.505z" bx:origin="0.5 0.5"/>
   <path id="path22" d="m210.07 119.84h-1.44l-0.71 5.382h-1.17l0.71-5.382h-1.43l0.17-1.235h4.04z" bx:origin="0.5 0.5"/>
   <path id="path24" d="m202.25 121.66h0.68c0.186 0 0.35-0.057 0.49-0.173 0.14-0.123 0.24-0.292 0.3-0.505 0.06-0.203 0.076-0.408 0.05-0.611-0.047-0.336-0.21-0.514-0.49-0.532h-0.79zm-0.16 1.222-0.3 2.339h-1.17l0.86-6.617 1.76 0.013c0.56 0 0.993 0.173 1.3 0.518 0.3 0.355 0.433 0.833 0.4 1.435-0.02 0.479-0.124 0.873-0.31 1.183-0.18 0.319-0.434 0.567-0.76 0.744l0.67 2.644v0.08h-1.25l-0.55-2.339z" bx:origin="0 0"/>
   <path id="path26" d="m197.2 123.99-0.44 1.236h-1.29l2.64-6.617h1.1l0.92 6.617h-1.22l-0.12-1.236zm0.44-1.235h1.03l-0.22-2.273z" bx:origin="0 0"/>
   <path id="path28" d="m195.55 119.84h-1.44l-0.71 5.382h-1.17l0.71-5.382h-1.43l0.17-1.235h4.04z" bx:origin="0.5 0.5"/>
  </g>
 </g>
 <path id="path42" d="m191.79 20.043c-25.403 0-45.994-20.559-45.994-45.92s20.591-45.92 45.994-45.92c25.402 0 45.996 20.559 45.996 45.92s-20.594 45.92-45.996 45.92" clip-path="url(#clipPath16)" fill="#999" stroke="#999" bx:origin="0.5 0.5"/>
 <path id="path46" d="m191.79 18.623c-24.594 0-44.53-19.922-44.53-44.499s19.936-44.501 44.53-44.501c24.593 0 44.53 19.924 44.53 44.501s-19.937 44.499-44.53 44.499" clip-path="url(#clipPath16)" fill="#ccc" bx:origin="0.5 0.5"/>
 <path id="path50" d="m191.7 269.68c-40.332 0-73.028-32.697-73.028-73.029 0-40.333 32.696-73.029 73.028-73.029 40.333 0 73.029 32.696 73.029 73.029 0 40.332-32.696 73.029-73.029 73.029" clip-path="url(#clipPath16)" fill="#666" bx:origin="0.5 0.5"/>
 <path id="path70" d="m203.32 6.1075v-20.459h20.458c0.873 0 1.589-0.715 1.589-1.59v-19.871c0-0.875-0.716-1.59-1.589-1.59h-20.458v-20.459c0-0.873-0.716-1.588-1.59-1.588h-19.872c-0.873 0-1.589 0.715-1.589 1.588v20.459h-20.459c-0.874 0-1.589 0.715-1.589 1.59v19.871c0 0.875 0.715 1.59 1.589 1.59h20.459v20.459c0 0.874 0.716 1.589 1.589 1.589h19.872c0.874 0 1.59-0.715 1.59-1.589" clip-path="url(#clipPath16)" fill="#4c4c4c" bx:origin="0.5 0.5"/>
 <path id="path90" d="m193.88-54.661c-1.146-2.022-3.023-2.022-4.17 0l-4.442 7.834c-1.148 2.022-0.612 3.676 1.19 3.676h10.674c1.802 0 2.336-1.654 1.191-3.676l-4.443-7.834c-1.146-2.022-3.023-2.022-4.17 0l-4.442 7.834c-1.148 2.022-0.612 3.676 1.19 3.676h10.674c1.802 0 2.336-1.654 1.191-3.676z" clip-path="url(#clipPath16)" fill="#666" bx:origin="0.5 0.5"/>
 <path id="path94" d="m193.88 2.8085c-1.146 2.023-3.023 2.023-4.17 0l-4.442-7.834c-1.148-2.022-0.612-3.676 1.19-3.676h10.674c1.802 0 2.336 1.654 1.191 3.676l-4.443 7.834c-1.146 2.023-3.023 2.023-4.17 0l-4.442-7.834c-1.148-2.022-0.612-3.676 1.19-3.676h10.674c1.802 0 2.336 1.654 1.191 3.676z" clip-path="url(#clipPath16)" fill="#666" bx:origin="0.5 0.5"/>
 <path id="path98" d="m220.45-23.793c2.022-1.147 2.022-3.024 0-4.17l-7.834-4.442c-2.022-1.147-3.676-0.611-3.676 1.19v10.674c0 1.802 1.654 2.336 3.676 1.191l7.834-4.443c2.022-1.147 2.022-3.024 0-4.17l-7.834-4.442c-2.022-1.147-3.676-0.611-3.676 1.19v10.674c0 1.802 1.654 2.336 3.676 1.191z" clip-path="url(#clipPath16)" fill="#666" bx:origin="0.5 0.5"/>
 <path id="path102" d="m162.98-23.842c-2.023-1.146-2.023-3.023 0-4.17l7.833-4.442c2.023-1.146 3.677-0.611 3.677 1.19v10.675c0 1.801-1.654 2.336-3.677 1.19l-7.833-4.443c-2.023-1.146-2.023-3.023 0-4.17l7.833-4.442c2.023-1.146 3.677-0.611 3.677 1.19v10.675c0 1.801-1.654 2.336-3.677 1.19z" clip-path="url(#clipPath16)" fill="#666" bx:origin="0.5 0.5"/>
 <path id="path-4" d="m181.99 61.222-12.892-16.446c-4.4779-5.6847 3.6284-12.784 8.4694-6.6388l12.893 16.444c4.5223 5.877-3.8847 12.6-8.4704 6.6398" clip-path="url(#clipPath16)" fill="#666" bx:origin="0.5 0.5"/>
 <path id="path-2" d="m181.99 102.56-12.892-16.446c-4.4779-5.6847 3.6284-12.784 8.4694-6.6388l12.893 16.444c4.5222 5.877-3.8847 12.6-8.4704 6.6398" clip-path="url(#clipPath16)" fill="#666" bx:origin="0.5 0.5"/>
 <path id="path44" d="m244.5 221.72 0.03-2.686-4.034 3.388-4.395-3.613 0.017 2.527 2.836 2.382-2.836 2.381-0.017 2.527 4.395-3.613 4.034 3.388-0.03-2.686-2.429-1.997z" fill="#d8d8d8" bx:origin="0 0"/>
 <path id="path47" d="m214.7 254.79-0.011 1.254 0.011 1.253-8.311 3.797-0.011-2.041 2.085-0.948 0.024-4.112-2.109-0.959 0.011-2.041zm-4.541 2.545 2.841-1.291-2.796-1.271z" fill="#d8d8d8" bx:origin="0 0"/>
 <path id="path49" d="m174.15 136.24 2e-3 -2.27-4.674 3.762h-3.836v1.984h3.858l4.652 3.744-3e-3 -2.27-3.095-2.475z" fill="#d8d8d8" bx:origin="0 0"/>
 <path id="path51" d="m145.07 167.73v0.84h2e-3v4.585h2e-3c-1e-3 0.014-1e-3 0.028-2e-3 0.042v0.069h-4e-3c-0.228 3.457-3.921 3.68-4.087 0.241-0.16 4.193-4.315 3.909-4.488-0.241h-1e-3v-0.018l-3e-3 -0.096h3e-3v-5.422zm-6.996 5.507c0.221 1.32 1.718 1.404 1.99 0.029h-2e-3v-3.331h-1.988zm3.57-0.032c0.539 1.425 1.707 0.82 1.848 0.061h-2e-3v-3.331h-1.846z" fill="#ccc" bx:origin="0 0"/>
 <path id="circle35" d="m206.07 159.96c0-8.331-6.771-15.101-15.102-15.101s-15.102 6.77-15.102 15.101c0 8.332 6.771 15.102 15.102 15.102s15.102-6.77 15.102-15.102zm-1.276 0c0 7.642-6.185 13.826-13.826 13.826s-13.825-6.184-13.825-13.826c0-7.64 6.184-13.824 13.825-13.824s13.826 6.184 13.826 13.824z" fill="#f4f4f4" bx:origin="0.5 0.5"/>
 <path id="circle37" d="m234.64 196.63c0-8.331-6.77-15.082-15.102-15.082-8.33 0-15.101 6.751-15.101 15.082s6.771 15.102 15.101 15.102c8.332 0 15.102-6.771 15.102-15.102zm-1.277 0c0 7.641-6.184 13.825-13.824 13.825-7.641 0-13.825-6.184-13.825-13.825 0-7.64 6.184-13.805 13.825-13.805 7.64 0 13.824 6.164 13.824 13.805z" fill="#f4f4f4" bx:origin="0.5 0.5"/>
 <path id="circle41" d="m178.18 197.84c0-8.33-6.771-15.101-15.103-15.101-8.331 0-15.082 6.771-15.082 15.101 0 8.333 6.751 15.082 15.082 15.082s15.103-6.749 15.103-15.082zm-1.278 0c0 7.643-6.184 13.805-13.825 13.805s-13.804-6.162-13.804-13.805c0-7.64 6.163-13.824 13.804-13.824s13.825 6.184 13.825 13.824z" fill="#f4f4f4" bx:origin="0.5 0.5"/>
 <path id="circle43" d="m206.75 234.51c0-8.331-6.771-15.103-15.101-15.103-8.331 0-15.101 6.772-15.101 15.103 0 8.332 6.77 15.102 15.101 15.102 8.33 0 15.101-6.772 15.101-15.102zm-1.276 0c0 7.64-6.184 13.824-13.824 13.824-7.642 0-13.825-6.184-13.825-13.824s6.184-13.824 13.825-13.824c7.64 0 13.824 6.184 13.824 13.824z" fill="#f4f4f4" bx:origin="0.5 0.5"/>
 <path id="path57" d="m202.61 248.42c-7.753 6.039-18.918 4.662-24.958-3.092l-28.567-36.667c-6.039-7.754-4.641-18.919 3.112-24.957 7.754-6.038 18.918-4.661 24.957 3.093l28.548 36.687c2.266 2.906 3.5 6.279 3.731 9.697 0.386 5.692-1.976 11.466-6.823 15.239z" fill="#d8d8d8" bx:origin="0 0"/>
 <path id="path-5" d="m206.74 234.51c0 8.342-6.751 15.093-15.094 15.093-8.34 0-15.09-6.751-15.09-15.093 0-8.341 6.75-15.092 15.09-15.092 8.343 0 15.094 6.751 15.094 15.092z" fill="#ba2318" bx:origin="0.5 0.5"/>
 <path id="path60" d="m230.42 210.66c-7.753 6.039-18.918 4.662-24.957-3.093l-28.567-36.666c-6.039-7.754-4.642-18.919 3.112-24.958 7.754-6.038 18.918-4.66 24.956 3.094l28.548 36.687c2.266 2.906 3.5 6.278 3.732 9.696 0.386 5.693-1.977 11.467-6.824 15.24z" fill="#d8d8d8" bx:origin="0 0"/>
 <path id="path-6" d="m234.63 196.64c0 8.341-6.751 15.092-15.094 15.092-8.341 0-15.091-6.751-15.091-15.092s6.75-15.093 15.091-15.093c8.343 0 15.094 6.752 15.094 15.093z" fill="#0a2a8d" bx:origin="0.5 0.5"/>
 <path id="path-1" d="m178.18 197.83c0 8.342-6.751 15.093-15.093 15.093-8.341 0-15.09-6.751-15.09-15.093 0-8.341 6.749-15.092 15.09-15.092 8.342 0 15.093 6.751 15.093 15.092z" fill="#fed01b" bx:origin="0.5 0.5"/>
 <path id="path-10" d="m206.06 159.96c0 8.342-6.751 15.093-15.093 15.093-8.341 0-15.091-6.751-15.091-15.093 0-8.341 6.75-15.092 15.091-15.092 8.342 0 15.093 6.751 15.093 15.092z" fill="#007544" bx:origin="0.5 0.5"/>
 <path id="path-18" d="m191.79-17.512c-4.621 0-8.365-3.745-8.365-8.366 0-4.619 3.744-8.364 8.365-8.364 4.619 0 8.365 3.745 8.365 8.364 0 4.621-3.746 8.366-8.365 8.366" clip-path="url(#clipPath16)" fill="#666" fill-opacity=".5" bx:origin="0.5 0.5"/>
 <g id="g104" transform="matrix(0 1.6057 1.6057 0 247.02 8.949)">
  <path id="path106" d="m0 0c0-0.841-1.525-1.523-3.407-1.523s-3.408 0.682-3.408 1.523 1.526 1.523 3.408 1.523 3.407-0.682 3.407-1.523" fill="#4c4c4c"/>
 </g>
 <g id="g108" transform="matrix(0 1.6057 1.6057 0 242.97 18.743)">
  <path id="path110" d="m0 0c0-0.841-1.525-1.523-3.407-1.523s-3.408 0.682-3.408 1.523 1.526 1.523 3.408 1.523 3.407-0.682 3.407-1.523" fill="#4c4c4c"/>
 </g>
 <g id="g112" transform="matrix(0 1.6057 1.6057 0 245.58 19.402)">
  <path id="path114" d="M 0,0 C -0.41,1.706 -1.897,3.592 -3.817,2.772 -2.254,6.378 0.697,5.805 1.721,4.575 2.519,3.618 2.5,0.343 0,0" fill="#4c4c4c"/>
 </g>
 <g id="g116" transform="matrix(0 1.6057 1.6057 0 250.01 9.7592)">
  <path id="path118" d="M 0,0 C -0.41,1.706 -1.897,3.591 -3.817,2.772 -2.254,6.378 0.697,5.805 1.721,4.575 2.519,3.618 2.5,0.343 0,0" fill="#4c4c4c"/>
 </g>
 <g id="g5021" transform="matrix(0 .85555 -.85555 0 590.98 -20.239)" fill="#4c4c4c">
  <g id="g4865" transform="matrix(.24632 0 0 .24632 56.777 387.6)">
   <path id="path2" d="m44.922 42.076v-42.076h-12.656v29.421l-18.663-29.421h-13.603v42.076h12.655v-30.369l19.61 30.369z"/>
   <path id="path4" d="m65.486 42.076v-28.472h-12.654v28.473z"/>
   <path id="path6" d="m65.486 7.594v-7.594h-12.654v7.594z"/>
   <path id="path8-6" d="m109.78 42.076v-19.612c0-4.114-7.908-9.808-12.021-9.808h-3.797c-2.846 0-6.01 2.529-8.857 3.795v-2.847h-12.655v28.473h12.654v-19.613c0-1.899 4.43-4.114 6.329-4.114 1.897 0 5.377 2.214 5.377 4.114v19.613z"/>
   <g id="_x33_162_1_">
    <path id="path10-7" d="m214.81 42.077v-19.614c0-4.111-7.908-9.807-12.025-9.807h-3.795c-2.847 0-6.009 2.53-8.858 3.795v-2.847h-12.654v28.473h12.654v-19.614c0-1.897 4.432-4.111 6.325-4.111 1.896 0 5.381 2.214 5.381 4.111v19.614z" fill="#4c4c4c"/>
   </g>
   <path id="path13" d="m130.34 42.076v-28.472h6.646v-3.797h-6.646v-6.01h-12.967v6.01h-6.646v3.797h6.646v28.473z"/>
   <path id="path15" d="m154.7 12.655c-10.122 0-18.663 6.959-18.663 15.5 0 8.86 8.542 15.818 18.663 15.818 8.857 0 16.135-5.062 18.033-11.703h-12.971v3.795c0 3.163-2.213 4.112-5.063 4.112-2.849 0-4.744-0.949-4.744-4.112v-7.909h23.412c1e-3 -8.541-8.228-15.501-18.667-15.501zm0 2.848c2.85 0 5.063 1.898 5.063 5.062v2.848h-9.807v-2.849c-1e-3 -3.163 1.895-5.061 4.744-5.061z"/>
   <path id="path17" d="m279.35 12.655c-10.442 0-18.666 6.959-18.666 15.5 0 8.86 8.224 15.818 18.666 15.818 10.118 0 18.663-6.958 18.663-15.818 0-8.54-8.545-15.5-18.663-15.5zm0 2.848c2.846 0 4.746 1.898 4.746 5.062v15.503c0 3.163-1.9 4.112-4.746 4.112-3.164 0-5.063-0.949-5.063-4.112v-15.505c1e-3 -3.162 1.899-5.06 5.063-5.06z"/>
   <path id="path19" d="m242.97 0v15.502s-3.801-2.847-8.861-2.847c-7.909 0-14.553 6.959-14.553 14.551 0 7.91 6.644 15.819 14.553 15.819 5.062 0 8.861-1.898 8.861-1.898v0.949h12.651v-42.076zm-4.749 17.401c2.848 0 4.749 2.214 4.749 5.063v11.705c0 2.849-1.901 3.795-4.749 3.795-3.164 0-5.063-0.947-5.063-3.795v-11.705c2e-3 -2.849 1.899-5.063 5.063-5.063z"/>
  </g>
  <g id="g4879" transform="matrix(.32631 0 0 .32631 79.416 495.23)">
   <path id="path865" d="m-68.754-262.21v-4.6532h14.806q2.4754 0 2.4754-2.1621 0-2.1151-2.4754-2.1151h-7.4107q-3.9012 0-5.9693-1.7391-2.0524-1.7548-2.0524-5.0292 0-3.2745 2.0211-5.0136 2.0368-1.7547 5.7813-1.7547h16.654v4.7002h-14.743q-2.5381 0-2.5381 2.0681 0 2.1151 2.5381 2.1151h7.5673q3.8072 0 5.7969 1.7548 2.0054 1.7391 2.0054 5.0136 0 3.3215-2.0054 5.0762-1.9898 1.7391-5.7969 1.7391z"/>
   <path id="path867" d="m-32.151-262.21q-4.5749 0-7.1757-2.2091-2.6008-2.2091-2.6008-7.0973v-13.161h7.1757v13.208q0 2.3501 1.2064 3.3842 1.2064 1.034 3.1491 1.034h6.0476v-17.626h7.1757v22.467z"/>
   <path id="path869" d="m-13.272-262.21v-22.467h14.806q5.0292 0 7.3793 2.0054 2.3658 1.9898 2.3658 5.4522 0 3.4155-2.3344 5.4209-2.3344 1.9898-7.4107 1.9898h-7.63v7.5987zm16.999-14.994q0-2.8201-3.4625-2.8201h-6.361v5.6089h6.361q3.4625 0 3.4625-2.7888z"/>
   <path id="path871" d="m37.332-280.03h-9.2594q-3.3685 0-4.8726 1.034-1.4884 1.034-1.7547 3.1021h15.887v4.6062h-15.887q0.10967 2.0211 1.5981 3.1962 1.5041 1.175 5.0292 1.175h9.2594v4.7002h-10.168q-6.4706 0-9.7608-2.8201-3.2745-2.8358-3.2745-8.4134t3.2745-8.3977q3.2902-2.8358 9.7608-2.8358h10.168z"/>
   <path id="path873" d="m58.417-277.93c0-2.0576-1.1542-2.0943-3.4625-2.0943h-7.301v5.2434h7.301c2.3083 0 3.4625-1.0497 3.4625-3.1492zm-4.2716 7.7554h-6.4919v7.9642h-7.1757v-22.467h16.216c3.1439 0 5.4731 0.7207 6.9877 2.1621 1.525 1.431 2.2874 2.2927 2.2874 4.5697 0 2.3083-0.75204 4.178-2.2561 5.6089-0.76248 0.73115-1.7339 1.2743-2.9141 1.6294l6.1825 8.4969h-7.4684z"/>
   <path id="path875" d="m80.597-273.44q0-5.5776 3.2745-8.3977 3.2902-2.8358 9.7608-2.8358h10.168v4.6532h-9.2594q-3.3685 0-4.8726 1.034-1.4884 1.034-1.7547 3.1021h15.887v4.6062h-16.028v9.0714h-7.1757z"/>
   <path id="path877" d="m113.99-262.21q-3.9638 0-6.1103-1.8331-2.1464-1.8488-2.1464-5.1076 0-3.2431 2.1464-5.0762 2.1464-1.8488 6.1103-1.8488h9.9644v-0.8147q0-1.7078-0.8147-2.3971-0.79904-0.68937-2.7731-0.68937h-12.926v-4.7002h13.192q5.5619 0 8.0217 2.1151 2.4754 2.1151 2.4754 6.9093v13.443zm9.9644-9.2594h-8.0374q-2.8985 0-2.8985 2.3188 0 2.3344 2.8985 2.3344h8.0374z"/>
   <path id="path879" d="m161.7-262.21v-13.443q0-2.2561-1.128-3.2118-1.128-0.97138-3.7445-0.97138h-1.4884v17.626h-7.1757v-17.626h-6.0476v17.626h-7.1757v-22.467h23.109q5.6716 0 8.241 2.2091t2.5694 7.0973v13.161z"/>
   <path id="path881" d="m178.15-284.68v22.467h-7.1757v-22.467z"/>
   <path id="path883" d="m204.68-279.93h-8.6014q-3.9168 0-5.6716 1.5197t-1.7548 4.9666q0 3.4468 1.7234 4.9666 1.7234 1.5197 5.6559 1.5197h8.6484v4.7472h-10.434q-6.3296 0-9.5414-2.8201-3.2118-2.8358-3.2118-8.4134 0-5.5619 3.2118-8.3977 3.2118-2.8358 9.5414-2.8358h10.434z"/>
   <path id="path885" d="m234.31-273.11q0 2.9141-0.97138 5.0449-0.97137 2.1151-2.8045 3.4938-1.8174 1.3631-4.4339 2.0368-2.6008 0.65803-5.9223 0.65803-3.3215 0-5.9379-0.65803-2.6008-0.67369-4.4182-2.0368-1.8174-1.3787-2.8045-3.4938-0.97138-2.1308-0.97138-5.0449t0.97138-5.0292q0.98705-2.1308 2.8045-3.4938 1.8174-1.3787 4.4182-2.0368 2.6165-0.67369 5.9379-0.67369 3.3215 0 5.9223 0.67369 2.6165 0.65804 4.4339 2.0368 1.8331 1.3631 2.8045 3.4938 0.97138 2.1151 0.97138 5.0292zm-14.132 6.4863q6.9563 0 6.9563-6.4863t-6.9563-6.4863-6.9563 6.4863 6.9563 6.4863z"/>
   <path id="path887" d="m264.12-262.21v-13.443q0-2.2561-1.128-3.2118-1.128-0.97138-3.7445-0.97138h-1.4884v17.626h-7.1757v-17.626h-6.0476v17.626h-7.1757v-22.467h23.109q5.6716 0 8.241 2.2091t2.5694 7.0973v13.161z"/>
  </g>
 </g>
</svg>
