<?xml version="1.0" encoding="UTF-8"?>
<svg id="svg2" width="176.82" height="446.98" version="1.1" viewBox="0 0 176.82 446.98" xml:space="preserve" xmlns="http://www.w3.org/2000/svg" xmlns:cc="http://creativecommons.org/ns#" xmlns:dc="http://purl.org/dc/elements/1.1/" xmlns:rdf="http://www.w3.org/1999/02/22-rdf-syntax-ns#"><metadata id="metadata8"><rdf:RDF><cc:Work rdf:about=""><dc:format>image/svg+xml</dc:format><dc:type rdf:resource="http://purl.org/dc/dcmitype/StillImage"/><dc:title/></cc:Work></rdf:RDF></metadata><defs id="defs6"><clipPath id="clipPath18"><path id="path20" d="m0 357.58h141.46v-357.58h-141.46v357.58z"/></clipPath></defs><g id="g10" transform="matrix(1.25 0 0 -1.25 0 446.98)"><path id="path12" d="m5.976 0h129.5v354.1h-129.5v-354.1z" fill="#959995"/><g id="g14"><g id="g16" clip-path="url(#clipPath18)"><g id="g22" transform="translate(27.458 354.1)"><path id="path24" d="m0 0h-21.482v-101.21s-5.976-0.219-5.976 3.719v94.94s0 6.011 5.355 6.011h18.603s3.5 0.517 3.5-3.456" fill="#9a2025"/></g><g id="g26" transform="translate(141.46 351.54)"><path id="path28" d="m0 0v-94.94c0-3.938-5.976-3.719-5.976-3.719v101.21h-21.474c0 3.973 3.501 3.465 3.501 3.465s13.23-9e-3 18.594-9e-3c5.355 0 5.355-6.011 5.355-6.011" fill="#9a2025"/></g><path id="path30" d="m124.69 320.26h-107.92v22.462h107.92v-22.462z" fill="#21201f"/><path id="path32" d="m124.69 309.17h-107.92v11.087h107.92v-11.087z" fill="#fff"/><g id="g34" transform="translate(48.56 316.36)"><path id="path36" d="m0 0v1.015c0 0.903 0.451 1.354 1.354 1.354h6.091v-1.354h-6.091v-1.015h4.737c0.902 0 1.354-0.451 1.354-1.354v-1.015c0-0.902-0.452-1.353-1.354-1.353h-6.091v1.353h6.091v1.015h-4.737c-0.903 0-1.354 0.452-1.354 1.354" fill="#231f20"/></g><g id="g38" transform="translate(59.05 317.37)"><path id="path40" d="m0 0v1.354h5.076v-1.354h-1.015v-3.384c0-0.902-0.452-1.353-1.354-1.353h-3.722c-0.903 0-1.354 0.451-1.354 1.353v1.015h1.354v-1.015h3.722v3.384h-2.707z" fill="#231f20"/></g><path id="path42" d="m64.802 316.36h2.369v-1.354h-2.369v1.354z" fill="#231f20"/><g id="g44" transform="translate(75.631 316.36)"><path id="path46" d="m0 0c0-0.902-0.451-1.354-1.354-1.354h-5.075v-1.015h6.429v-1.353h-7.783v2.368c0 0.903 0.451 1.354 1.354 1.354h5.075v1.015h-6.429v1.354h6.429c0.903 0 1.354-0.451 1.354-1.354v-1.015z" fill="#231f20"/></g><path id="path48" d="m82.737 317.37h-5.076v-3.384h5.076v3.384zm1.353-3.383c0-0.903-0.451-1.354-1.353-1.354h-5.076c-0.902 0-1.353 0.451-1.353 1.354v3.383c0 0.903 0.451 1.354 1.353 1.354h5.076c0.902 0 1.353-0.451 1.353-1.354v-3.383z" fill="#231f20"/><path id="path50" d="m91.197 317.37h-5.076v-3.384h5.076v3.384zm1.353-3.383c0-0.903-0.451-1.354-1.353-1.354h-5.076c-0.903 0-1.354 0.451-1.354 1.354v3.383c0 0.903 0.451 1.354 1.354 1.354h5.076c0.902 0 1.353-0.451 1.353-1.354v-3.383z" fill="#231f20"/><g id="g52" transform="translate(70.483 164.29)"><path id="path54" d="m0 0c-25.734 0-46.595 20.861-46.595 46.595 0 25.735 20.861 46.595 46.595 46.595 25.735 0 46.595-20.86 46.595-46.595 0-25.734-20.86-46.595-46.595-46.595m0 98.51c-28.675 0-51.915-23.24-51.915-51.915 0-28.674 23.24-51.915 51.915-51.915s51.915 23.241 51.915 51.915c0 28.675-23.24 51.915-51.915 51.915" fill="#656769"/></g><g id="g56" transform="translate(117.08 210.88)"><path id="path58" d="m0 0c0-25.734-20.861-46.595-46.595-46.595-25.735 0-46.595 20.861-46.595 46.595 0 25.735 20.86 46.595 46.595 46.595 25.734 0 46.595-20.86 46.595-46.595" fill="#818283"/></g><g id="g60" transform="translate(99.403 210.88)"><path id="path62" d="m0 0c0-15.969-12.95-28.92-28.92-28.92-15.969 0-28.919 12.951-28.919 28.92 0 10.737 5.854 20.108 14.543 25.096-0.595-1.584-0.937-3.29-0.971-5.075v-9e-3c-5.609-4.489-9.197-11.393-9.197-19.137 0-13.554 10.99-24.544 24.544-24.544 13.555 0 24.545 10.99 24.545 24.544 0 7.744-3.588 14.648-9.197 19.137v9e-3c-0.035 1.785-0.376 3.491-0.971 5.075 8.689-4.988 14.543-14.359 14.543-25.096" fill="#656769"/></g><g id="g64" transform="translate(95.028 211.76)"><path id="path66" d="m0 0c0-13.554-10.99-24.544-24.544-24.544-13.555 0-24.545 10.99-24.545 24.544 0 7.744 3.588 14.648 9.197 19.137-9e-3 -0.105-9e-3 -0.219-9e-3 -0.324 0-2.546 0.621-4.953 1.724-7.07-2.669-3.176-4.27-7.272-4.27-11.743 0-10.089 8.172-18.262 18.261-18.262s18.262 8.173 18.262 18.262c0 4.716-1.785 9.022-4.725 12.259 0.936 1.995 1.461 4.209 1.461 6.554 0 0.105 0 0.219-8e-3 0.324 5.608-4.489 9.196-11.393 9.196-19.137" fill="#232221"/></g><g id="g68" transform="translate(49.115 235.99)"><path id="path70" d="m0 0-5.486 5.486c-0.385 0.385-0.893 0.578-1.4 0.578-0.499 0-1.007-0.193-1.392-0.578-0.761-0.761-0.761-2.012 0-2.782l5.495-5.487c0.377-0.385 0.884-0.577 1.392-0.577 0.507 0 1.015 0.192 1.391 0.577 0.77 0.762 0.77 2.013 0 2.783m52.641-52.641-5.486 5.486c-0.385 0.385-0.892 0.577-1.391 0.577-0.508 0-1.006-0.192-1.391-0.577-0.77-0.761-0.77-2.021 0-2.783l5.486-5.495c0.385-0.385 0.892-0.569 1.391-0.569 0.508 0 1.015 0.184 1.391 0.569 0.771 0.77 0.771 2.021 0 2.792m-0.314 58.057c-0.771 0.762-2.022 0.762-2.783 0l-5.495-5.495c-0.377-0.385-0.569-0.883-0.569-1.391s0.192-1.006 0.569-1.391c0.77-0.77 2.021-0.77 2.782 0l5.496 5.486c0.376 0.385 0.568 0.893 0.568 1.391 0 0.508-0.192 1.015-0.568 1.4m-52.642-52.65c-0.77 0.77-2.021 0.77-2.791 0l-5.487-5.486c-0.385-0.385-0.577-0.893-0.577-1.392 0-0.507 0.192-1.006 0.577-1.391 0.762-0.77 2.022-0.77 2.783 0l5.495 5.487c0.376 0.385 0.569 0.892 0.569 1.391 0 0.507-0.193 1.015-0.569 1.391m23.127 64.402c-0.359 0.359-0.849 0.578-1.391 0.578-1.085 0-1.969-0.884-1.969-1.969v-5.959c0.63 0.079 1.269 0.122 1.916 0.122 0.683 0 1.365-0.043 2.021-0.131v5.968c0 0.542-0.218 1.032-0.577 1.391m0-74.447c-0.359 0.359-0.849 0.577-1.391 0.577-1.085 0-1.969-0.883-1.969-1.968v-7.771c0-0.542 0.219-1.032 0.577-1.391 0.359-0.359 0.849-0.577 1.392-0.577 1.085 0 1.968 0.892 1.968 1.968v7.771c0 0.542-0.218 1.032-0.577 1.391m39.437 34.091h-7.761c-0.543 0-1.033-0.219-1.391-0.578-0.359-0.358-0.578-0.848-0.578-1.391 0-1.085 0.884-1.969 1.969-1.969h7.761c0.543 0 1.033 0.219 1.392 0.578 0.358 0.359 0.577 0.849 0.577 1.391 0 1.085-0.884 1.969-1.969 1.969m-72.478-1.969c0-0.542-0.219-1.032-0.578-1.391-0.358-0.359-0.848-0.578-1.391-0.578h-7.77c-1.085 0-1.969 0.884-1.969 1.969 0 0.543 0.219 1.033 0.578 1.391 0.358 0.359 0.848 0.578 1.391 0.578h7.77c1.085 0 1.969-0.884 1.969-1.969" fill="#959995"/></g><g id="g72" transform="translate(85.84 230.57)"><path id="path74" d="m0 0c0-2.345-0.525-4.559-1.461-6.554-0.657-1.374-1.505-2.634-2.512-3.754-1.093-1.207-2.38-2.24-3.806-3.045-2.231-1.277-4.821-2.004-7.578-2.004-2.756 0-5.346 0.727-7.577 2.004-1.252 0.709-2.398 1.593-3.395 2.616-1.059 1.077-1.961 2.311-2.661 3.667-1.102 2.117-1.723 4.524-1.723 7.07 0 0.105 0 0.219 8e-3 0.324v9e-3c0.035 1.785 0.377 3.491 0.972 5.075 1.977 5.241 6.729 9.117 12.46 9.826 0.63 0.079 1.269 0.123 1.916 0.123 0.683 0 1.365-0.044 2.022-0.132 5.687-0.752 10.395-4.611 12.355-9.817 0.595-1.584 0.936-3.29 0.971-5.075v-9e-3c9e-3 -0.105 9e-3 -0.219 9e-3 -0.324" fill="#191716"/></g><g id="g76" transform="translate(89.104 211.76)"><path id="path78" d="m0 0c0-10.089-8.173-18.262-18.262-18.262s-18.262 8.173-18.262 18.262c0 4.471 1.602 8.567 4.271 11.743 0.7-1.356 1.601-2.59 2.66-3.666-1.637-2.276-2.59-5.058-2.59-8.077 0-4.743 2.371-8.925 5.985-11.437 2.249-1.566 4.979-2.485 7.936-2.485 2.643 0 5.119 0.735 7.219 2.013 4.017 2.441 6.703 6.86 6.703 11.909 0 3.211-1.085 6.151-2.896 8.505 1.006 1.12 1.855 2.38 2.511 3.754 2.94-3.237 4.725-7.543 4.725-12.259" fill="#1b1918"/></g><g id="g80" transform="translate(78.061 217.22)"><path id="path82" d="m0 0v-17.369c-2.1-1.278-4.576-2.013-7.219-2.013-2.958 0-5.688 0.919-7.936 2.485v16.897c2.231-1.277 4.821-2.004 7.577-2.004 2.757 0 5.347 0.727 7.578 2.004" fill="#191716"/></g><g id="g84" transform="translate(62.906 217.22)"><path id="path86" d="m0 0v-16.897c-3.614 2.512-5.985 6.694-5.985 11.437 0 3.019 0.954 5.801 2.59 8.076 0.997-1.023 2.144-1.907 3.395-2.616" fill="#1c1b1a"/></g><g id="g88" transform="translate(84.764 211.76)"><path id="path90" d="m0 0c0-5.049-2.686-9.468-6.703-11.909v17.369c1.427 0.805 2.713 1.838 3.807 3.045 1.811-2.354 2.896-5.294 2.896-8.505" fill="#1c1b1a"/></g><g id="g92" transform="translate(44.642 334.28)"><path id="path94" d="m0 0c0 0.752 0.27 1.401 0.81 1.948s1.296 0.821 2.266 0.821h7.383v-2.461h-7.383c-0.41 0-0.615-0.103-0.615-0.308s0.205-0.308 0.615-0.308h1.846c1.408 0 2.683-0.57 3.825-1.712 1.141-1.142 1.712-2.519 1.712-4.132 0-1.6-0.571-2.974-1.712-4.123-1.142-1.148-2.417-1.722-3.825-1.722h-7.998v2.461h7.383c1.135 0 2.034 0.335 2.697 1.005 0.663 0.669 0.994 1.462 0.994 2.379 0 0.929-0.331 1.726-0.994 2.389s-1.562 0.994-2.697 0.994h-1.231c-0.97 0-1.726 0.27-2.266 0.81-0.54 0.541-0.81 1.193-0.81 1.959m-3.076 0c0 1.6 0.571 2.974 1.712 4.122 1.142 1.149 2.417 1.723 3.825 1.723h7.998v-2.461h-7.383c-1.135 0-2.033-0.335-2.697-1.005-0.663-0.67-0.994-1.463-0.994-2.379 0-0.93 0.331-1.726 0.994-2.389 0.664-0.663 1.562-0.995 2.697-0.995h1.231c0.97 0 1.726-0.27 2.266-0.81s0.81-1.193 0.81-1.958c0-0.752-0.27-1.402-0.81-1.949s-1.296-0.82-2.266-0.82h-7.383v2.461h7.383c0.41 0 0.615 0.102 0.615 0.308 0 0.205-0.205 0.307-0.615 0.307h-1.846c-1.408 0-2.683 0.571-3.825 1.713-1.141 1.141-1.712 2.519-1.712 4.132" fill="#28479f"/></g><g id="g96" transform="translate(59.409 330.9)"><path id="path98" d="m0 0h7.998v-2.461h-5.537c0-0.41 0.205-0.615 0.615-0.615h6.768v-2.461h-7.383c-1.641 0-2.461 0.82-2.461 2.461v3.076zm0 0.615v3.077c0 1.64 0.82 2.461 2.461 2.461h7.383v-2.461h-6.768c-0.41 0-0.615-0.206-0.615-0.616h5.537v-2.461h-7.998zm-3.076 3.077c0 3.691 1.845 5.537 5.537 5.537h7.383v-2.461h-7.383c-2.051 0-3.076-1.026-3.076-3.076v-6.768c0-2.051 1.025-3.077 3.076-3.077h7.383v-2.461h-7.383c-3.692 0-5.537 1.846-5.537 5.538v6.768z" fill="#28479f"/></g><g id="g100" transform="translate(73.559 334.59)"><path id="path102" d="m0 0c0 1.641 0.82 2.461 2.461 2.461h7.383v-2.461h-6.768c-0.41 0-0.615-0.205-0.615-0.615v-5.538c0-0.41 0.205-0.615 0.615-0.615h1.231v0.615h-1.231v2.461h3.692v-5.537h-4.307c-1.641 0-2.461 0.821-2.461 2.461v6.768zm-3.076 0c0 3.691 1.845 5.537 5.537 5.537h7.383v-2.461h-7.383c-2.051 0-3.076-1.025-3.076-3.076v-6.768c0-2.051 1.025-3.076 3.076-3.076h4.922v6.768h-4.307v2.461h6.768v-11.69h-7.383c-3.692 0-5.537 1.846-5.537 5.537v6.768z" fill="#28479f"/></g><g id="g104" transform="translate(91.607 330.69)"><path id="path106" d="m0 0-1.128-2.871h2.256l-1.128 2.871zm-1.538-5.332v1.333l-1.743-4.409h-2.461l5.332 14.355c0.068 0.274 0.205 0.411 0.41 0.411s0.342-0.137 0.41-0.411l4.307-11.279h-6.255zm0-0.615h7.28l-4.922 12.51c-0.136 0.273-0.41 0.41-0.82 0.41-0.342 0-0.615-0.137-0.82-0.41l-5.538-14.971h-2.461l5.743 15.791c0.683 1.367 1.709 2.051 3.076 2.051 1.572 0 2.598-0.684 3.076-2.051l5.948-15.791h-10.562v2.461z" fill="#28479f"/></g></g></g></g></svg>
