<?xml version="1.0" encoding="UTF-8"?>
<!-- Generator: Adobe Illustrator 19.0.0, SVG Export Plug-In . SVG Version: 6.00 Build 0)  -->
<svg id="Layer_1" baseProfile="tiny" version="1.1" viewBox="0 0 133.9 307.9" xml:space="preserve" xmlns="http://www.w3.org/2000/svg">

	<path d="m133.1 209.6c0-0.8-0.1-1.7-0.4-2.5s-1.1-1.4-2.1-1.4v0.5c-0.2 0-0.5 0-0.5 0.3l0.1 35.6c-0.4 12.7-4.1 23.8-10 33.4-0.2 0.4 0.2 0.6 0.4 0.6 0.7 0 1.2-0.1 1.7-0.1v0.1c0.7 0 1.2 0.1 1.7 0s1-0.3 1.3-0.9c5.4-9.6 7.9-20.6 7.9-32.3v-33.3z" fill="#BDBDBD"/>
	<path d="m133.1 98.5c0 0.8-0.1 1.7-0.4 2.5s-1.1 1.4-2.1 1.4v-0.5c-0.2 0-0.5 0-0.5-0.3l0.1-35.6c-0.4-12.7-4.1-23.8-10-33.4-0.2-0.4 0.2-0.6 0.4-0.6 0.7 0 1.2 0.1 1.7 0.1v-0.1c0.7 0 1.2-0.1 1.7 0s1 0.3 1.3 0.9c5.4 9.6 7.9 20.6 7.9 32.3v33.3z" fill="#BDBDBD"/>
	<path d="m130.6 64.8v84.4h-1.2v9.6h1.2v84.3c0 35.8-29 64.8-64.8 64.8-35.8 0.1-64.8-28.9-64.8-64.7 0-14.2 4.5-27.2 12.2-37.9l1-1.3c1.9-2.4 3-5.3 3-8.6v-82.8c0-3.2-1.1-6.2-3-8.6l-1-1.3c-7.7-10.7-12.2-23.8-12.2-37.9 0-35.8 29-64.8 64.8-64.8s64.8 29 64.8 64.8z" fill="#ccc"/>
	<rect width="133.9" height="307.9" fill="none"/>
	<path d="m35.5 116.4c0.3 0 0.5-0.1 0.6-0.3l0.3-0.4c0.4-0.6 0.9-0.9 1.5-0.9 0.3 0 0.6 0.1 0.8 0.2s0.4 0.3 0.5 0.6c0.1 0.2 0.2 0.5 0.2 0.8 0 0.4-0.2 0.7-0.5 1-0.3 0.2-0.7 0.4-1.2 0.4v-0.9c0.2 0 0.4 0 0.5-0.1s0.2-0.2 0.2-0.3c0-0.2-0.1-0.3-0.2-0.4s-0.2-0.2-0.4-0.2-0.4 0.1-0.6 0.4-0.3 0.5-0.4 0.7c-0.3 0.4-0.8 0.6-1.4 0.6-0.3 0-0.6-0.1-0.8-0.2s-0.4-0.3-0.5-0.5-0.2-0.5-0.2-0.8c0-0.2 0.1-0.4 0.1-0.6 0.1-0.2 0.2-0.3 0.4-0.5 0.3-0.3 0.8-0.4 1.3-0.4v0.9c-0.3 0-0.5 0-0.6 0.1s-0.2 0.2-0.2 0.4 0 0.3 0.1 0.4c0.2-0.1 0.4-0.1 0.5 0z" fill="#4C4C4C"/>
	<path d="m38.4 135.9v-1.2l-4.3-0.6v-0.9l4.3 0.6v-1.1l1 0.1v3.2l-1-0.1z" fill="#4C4C4C"/>
	<path d="m35.9 131.6c-0.4 0-0.7-0.1-1-0.3s-0.5-0.4-0.7-0.6c-0.2-0.3-0.2-0.5-0.2-0.8 0-0.4 0.2-0.7 0.5-1 0.3-0.2 0.8-0.4 1.4-0.4 0.4 0 0.8 0 1.3 0.1s0.9 0.2 1.2 0.4 0.6 0.4 0.8 0.6c0.2 0.3 0.2 0.5 0.2 0.8 0 0.4-0.2 0.8-0.5 1-0.3 0.3-0.8 0.4-1.4 0.4v-0.8c0.3 0 0.6 0 0.7-0.1s0.2-0.2 0.2-0.4c0-0.5-0.5-0.8-1.5-0.9-0.5 0-0.8-0.1-1-0.1-0.6 0-0.9 0.2-0.9 0.5 0 0.2 0.1 0.4 0.2 0.5l0.6 0.3 0.1 0.8z" fill="#4C4C4C"/>
	<path d="m36.3 127.5v-1.5l-1.3-0.2v1.7l-1-0.1v-2.7l5.3 0.7v2.7l-1-0.1v-1.7l-1.1-0.1v1.5l-0.9-0.2z" fill="#4C4C4C"/>
	<path d="m35.1 122.5v1.6l-1-0.1v-2.6l5.3 0.7v0.9l-4.3-0.5z" fill="#4C4C4C"/>
	<path d="m36.3 120.7v-1.5l-1.3-0.2v1.7l-1-0.1v-2.6l5.3 0.7v2.7l-1-0.1v-1.7l-1.1-0.1v1.5l-0.9-0.3z" fill="#4C4C4C"/>
	<path d="m35.5 151.3c0.3 0 0.5-0.1 0.6-0.3l0.3-0.5c0.4-0.6 0.9-0.9 1.5-0.9 0.3 0 0.6 0.1 0.8 0.2s0.4 0.3 0.5 0.6c0.1 0.2 0.2 0.5 0.2 0.8 0 0.4-0.2 0.7-0.5 1-0.3 0.2-0.7 0.4-1.2 0.4v-0.9c0.2 0 0.4 0 0.5-0.1s0.2-0.2 0.2-0.3c0-0.2-0.1-0.3-0.2-0.4s-0.2-0.2-0.4-0.2-0.4 0.1-0.6 0.4-0.3 0.5-0.4 0.7c-0.3 0.4-0.8 0.6-1.4 0.6-0.3 0-0.6-0.1-0.8-0.2s-0.4-0.3-0.5-0.6c-0.1-0.2-0.2-0.5-0.2-0.8 0-0.2 0.1-0.4 0.1-0.6 0.1-0.2 0.2-0.3 0.4-0.5 0.3-0.3 0.8-0.4 1.3-0.4v0.9c-0.3 0-0.5 0-0.6 0.1s-0.2 0.2-0.2 0.4 0 0.3 0.1 0.4c0.2 0.1 0.4 0.1 0.5 0.2z" fill="#4C4C4C"/>
	<path d="m38.4 168.1v-1.1l-4.3-0.6v-0.9l4.3 0.6v-1.1l1 0.1v3.2l-1-0.2z" fill="#4C4C4C"/>
	<path d="m36.9 161.9v0.5c0 0.1 0 0.3 0.1 0.4s0.2 0.2 0.4 0.2 0.3 0.1 0.5 0c0.3 0 0.4-0.2 0.4-0.4v-0.6l-1.4-0.1zm-0.9-0.2-1.9-0.2v-0.9l5.3 0.7v1.4c0 0.4-0.1 0.8-0.4 1s-0.7 0.3-1.1 0.3-0.7-0.1-0.9-0.3c-0.3-0.1-0.5-0.3-0.6-0.6l-2.1 0.5h-0.1v-1l1.9-0.4v-0.5z" fill="#4C4C4C"/>
	<path d="m35.1 157.8-1-0.4v-1l5.3 2.1v0.9l-5.3 0.7v-1l1-0.1v-1.2zm1 0.4v0.8l1.8-0.2-1.8-0.6z" fill="#4C4C4C"/>
	<path d="m38.4 156.5v-1.1l-4.3-0.6v-0.9l4.3 0.6v-1.1l1 0.1v3.2l-1-0.2z" fill="#4C4C4C"/>
	<path d="m66.5 102c-20.3 0-36.8-16.4-36.8-36.7s16.5-36.7 36.8-36.7 36.8 16.4 36.8 36.7-16.5 36.7-36.8 36.7" fill="#999"/>
	<path d="m66.5 102c-20.3 0-36.8-16.4-36.8-36.7s16.5-36.7 36.8-36.7 36.8 16.4 36.8 36.7-16.5 36.7-36.8 36.7" fill="none" stroke="#999" stroke-width=".8"/>
	<path d="m66.5 100.8c-19.7 0-35.6-15.9-35.6-35.6s15.9-35.6 35.6-35.6 35.6 15.9 35.6 35.6-15.9 35.6-35.6 35.6" fill="#ccc"/>
	<path d="m66.4 301.7c-32.2 0-58.4-26.2-58.4-58.4 0-32.3 26.2-58.4 58.4-58.4 32.3 0 58.4 26.2 58.4 58.4 0.1 32.2-26.1 58.4-58.4 58.4" fill="#666"/>
	<path d="m75.7 90.8v-16.3h16.4c0.7 0 1.3-0.6 1.3-1.3v-15.9c0-0.7-0.6-1.3-1.3-1.3h-16.4v-16.3c0-0.7-0.6-1.3-1.3-1.3h-15.8c-0.7 0-1.3 0.6-1.3 1.3v16.3h-16.4c-0.7 0-1.3 0.6-1.3 1.3v15.9c0 0.7 0.6 1.3 1.3 1.3h16.4v16.4c0 0.7 0.6 1.3 1.3 1.3h15.9c0.7-0.1 1.2-0.7 1.2-1.4" fill="#4C4C4C"/>
	<path d="m68.2 42.2c-0.9-1.6-2.4-1.6-3.3 0l-3.6 6.3c-0.9 1.6-0.5 2.9 0.9 2.9h8.5c1.4 0 1.9-1.3 0.9-2.9l-3.4-6.3c-0.9-1.6-2.4-1.6-3.3 0l-3.6 6.3c-0.9 1.6-0.5 2.9 0.9 2.9h8.5c1.4 0 1.9-1.3 0.9-2.9l-3.4-6.3z" fill="#666"/>
	<path d="m68.2 88.2c-0.9 1.6-2.4 1.6-3.3 0l-3.6-6.3c-0.9-1.6-0.5-2.9 0.9-2.9h8.5c1.4 0 1.9 1.3 0.9 2.9l-3.4 6.3c-0.9 1.6-2.4 1.6-3.3 0l-3.6-6.3c-0.9-1.6-0.5-2.9 0.9-2.9h8.5c1.4 0 1.9 1.3 0.9 2.9l-3.4 6.3z" fill="#666"/>
	<path d="m89.4 66.9c1.6-0.9 1.6-2.4 0-3.3l-6.2-3.6c-1.6-0.9-2.9-0.5-2.9 1v8.5c0 1.4 1.3 1.9 2.9 1l6.2-3.6c1.6-0.9 1.6-2.4 0-3.3l-6.2-3.6c-1.6-0.9-2.9-0.5-2.9 1v8.5c0 1.4 1.3 1.9 2.9 1l6.2-3.6z" fill="#666"/>
	<path d="m43.5 66.9c-1.6-0.9-1.6-2.4 0-3.3l6.3-3.6c1.6-0.9 2.9-0.5 2.9 1v8.5c0 1.4-1.3 1.9-2.9 1l-6.3-3.6c-1.6-0.9-1.6-2.4 0-3.3l6.3-3.6c1.6-0.9 2.9-0.5 2.9 1v8.5c0 1.4-1.3 1.9-2.9 1l-6.3-3.6z" fill="#666"/>
	<path d="m106.1 133.3-0.8-0.3v0.2l0.8 0.1zm0.9-7.7-0.9-0.2s-0.1 0-0.1 0.1v0.2l0.1 0.1 0.7 0.1 0.1-0.1v-0.2zm0.3 31.2v0.9l-0.4-0.1v-0.2l-2.6-0.5v-0.4l2.6 0.5v-0.2h0.4zm0-3.8v0.4l-1.6 0.2 1.6 0.3v0.4l-3-0.5v-0.4l1.7-0.1-1.7-0.3v-0.4l3 0.4zm0-3.8v0.8l-0.4-0.1v-0.4l-0.9-0.2v0.4l-0.3-0.1v-0.4l-1-0.2v0.4l-0.4-0.1v-0.8l3 0.7zm0-4.8v0.5l-1.7 0.1 1.7 0.7v0.5l-3-0.5v-0.4l1.6 0.2-1.6-0.7v-0.3l1.6-0.1-1.6-0.3v-0.4l3 0.7zm0-4.3v0.4l-1.6 0.2 1.6 0.3v0.4l-3-0.5v-0.4l1.7-0.1-1.7-0.3v-0.4l3 0.4zm0-3.3v0.4l-3-0.6v-0.4l3 0.6zm0-3.5v0.5l-3-0.2v-0.5l0.7 0.1v-0.3l-0.7-0.2v-0.4l3 1zm0-4.3v0.9l-0.4-0.1v-0.2l-2.6-0.5v-0.4l2.6 0.5v-0.2h0.4zm0-3.8v0.8c0 0.2-0.1 0.3-0.3 0.2l-1.1-0.2c-0.1 0-0.2-0.2-0.3-0.3v0.2h-0.1l-1.2-0.2v-0.4s1 0.2 1.1 0.2h0.1 0.1v-0.3l-1.3-0.2v-0.4l3 0.6zm0-3.6v0.8l-0.4-0.1v-0.4l-0.9-0.2v0.4l-0.3-0.1v-0.4l-1-0.2v0.4l-0.4-0.1v-0.7l3 0.6zm0-3.8v0.9l-0.4-0.1v-0.2l-2.6-0.5v-0.4l2.6 0.5v-0.2h0.4zm0-3.9v0.4l-1.6 0.2 1.6 0.3v0.4l-3-0.6v-0.4l1.7-0.1-1.7-0.3v-0.4l3 0.5zm0-3.6v0.8l-0.3-0.1v-0.4l-0.9-0.2v0.4l-0.3-0.1v-0.4l-1-0.2v0.4l-0.4-0.1v-0.8l2.9 0.7zm0.1 70v0.5l-1.7 0.1 1.7 0.7v0.5l-3-0.5v-0.4l1.6 0.2-1.6-0.6v-0.3l1.6-0.1-1.6-0.3v-0.4l3 0.6zm0-3.3v0.8l-0.4-0.1v-0.4l-0.9-0.2v0.4l-0.3-0.1v-0.4l-1-0.2v0.4l-0.4-0.1v-0.8l3 0.7zm0-3.4v0.9l-0.4-0.1v-0.2l-2.6-0.5v-0.4l2.6 0.5v-0.2h0.4zm0-3v0.6c0 0.2-0.1 0.3-0.3 0.2l-0.7-0.1v-0.3l0.5 0.1c0.1 0 0.2 0 0.2-0.2 0-0.1-0.1-0.2-0.2-0.2l-0.4-0.1h-0.1s-0.8 0.5-0.9 0.5h-0.1c-0.1 0-0.8-0.1-0.8-0.1-0.2 0-0.3-0.2-0.3-0.3v-0.6c0-0.2 0.1-0.3 0.3-0.2l0.8 0.1v0.4l-0.5-0.1c-0.1 0-0.2 0.1-0.2 0.2s0.1 0.2 0.2 0.2l0.4 0.1c0.2-0.1 0.8-0.5 1-0.6h0.2c0.1 0 0.6 0.1 0.6 0.1l0.3 0.3zm0-4.3v0.5l-1.1 0.1 1.1 0.6v0.5l-1.7-1-1.3-0.2v-0.4l1.3 0.2 1.7-0.3zm0-3v0.6c0 0.2-0.1 0.3-0.3 0.2l-0.7-0.1v-0.3l0.5 0.1c0.1 0 0.2-0.1 0.2-0.2s-0.1-0.2-0.2-0.2l-0.4-0.1h-0.1c0 0.1-0.8 0.5-0.9 0.5h-0.1c-0.1 0-0.8-0.1-0.8-0.1-0.2 0-0.3-0.2-0.3-0.3v-0.5c0-0.2 0.1-0.3 0.3-0.2l0.8 0.1v0.4l-0.5-0.1c-0.1 0-0.2 0-0.2 0.2 0 0.1 0.1 0.2 0.2 0.2l0.4 0.1c0.2-0.1 0.8-0.5 1-0.6h0.2c0.1 0 0.6 0.1 0.6 0.1l0.3 0.2zm-3.9-54.7v74.4h4.4v-74.4h-4.4zm17.4 26.5v0.8c0 0.2-0.4 0.6-0.6 0.5l-3.3-0.7c-0.2 0-0.6-0.5-0.6-0.6v-0.7c0-0.1 0.1-0.3 0.2-0.3h0.1l4 0.8 0.2 0.2zm0-10.4v0.8c0 0.2-0.4 0.6-0.6 0.5l-3.3-0.7c-0.2 0-0.6-0.3-0.6-0.4v-1.1h0.1l4 0.8c0.3 0 0.4 0.1 0.4 0.1m0 57c0 0.5-0.4 0.9-0.9 0.8l-8.8-1.6c-0.5-0.1-0.9-0.5-0.9-1s0.4-0.7 0.9-0.6l8.8 1.6h0.1 0.1l0.2 0.2v0.1l0.5 0.5zm0-6.7v0.8c0 0.5-0.4 0.8-0.9 0.7l-8.8-1.6c-0.5-0.1-0.9-0.6-0.9-1.1v-0.8l10.6 2zm1.6 5.8c0-0.7-0.6-1.4-1.3-1.5l-10.8-1.9c-0.7-0.1-1.2 0.3-1.2 1v2.8c0 0.7 0.5 1.4 1.2 1.5l10.8 2c0.7 0.1 1.3-0.3 1.3-1v-2.9zm0-7.2-13.4-2.5v3.8c0 0.7 0.5 1.4 1.2 1.5l10.8 2c0.7 0.1 1.3-0.3 1.3-1v-3.8zm0-6.6-13.4-2.5v1.9l7.8 1.6-7.8 0.6v1.7l13.4 2.5v-1.9l-7-1.3 7-0.9v-1.7zm0-4.3-13.4-2.6v3.8l1.7 0.3v-1.9l4.5 0.8v1.9l1.4 0.3v-1.9l4.2 0.8v1.9l1.7 0.3v-3.7zm0-4.6-1.7-0.3v1l-11.7-2.1v1.9l11.7 2.1v1l1.7 0.3v-3.9zm0-6.4-13.4-2.5v1.9l7.8 1.6-7.8 0.6v1.7l13.4 2.5v-1.9l-7-1.3 7-0.9v-1.7zm0-2.6-13.4-2.5v1.7l13.4 2.5v-1.7zm0-6.6-13.4-2.5v1.9l7.8 1.6-7.8 0.6v1.7l13.4 2.5v-1.9l-7-1.3 7-0.9v-1.7zm0-8.9-13.4-2.5v1.7l6.1 1.1v1.2c-0.1 0.2-0.4 0.2-0.6 0.2s-0.4 0.1-0.6 0c-0.2 0-4.9-0.9-4.9-0.9v1.7s5.1 0.9 5.2 0.9 0.3 0 0.5-0.1c0.1-0.1 0.3-0.2 0.4-0.3 0.2-0.2 0.3-0.5 0.3-0.5v-0.1c0.2 0.5 0.5 1.4 1 1.5l4.8 0.9c0.7 0.1 1.3-0.3 1.3-1v-3.8zm0-4.5-13.4-2.6v3.8l1.7 0.3v-1.9l4.5 0.8v1.9l1.4 0.3v-1.8l4.2 0.8v1.9l1.7 0.3v-3.8zm0-6-13.4-2.5v1.7l6.1 1.1v2.1c0 0.7 0.6 1.3 1.2 1.5l4.8 0.9c0.7 0.1 1.3-0.3 1.3-1v-3.8zm0-6-12.2-2.1c-0.7-0.1-1.2 0.3-1.2 1v2.5c0 0.7 0.5 1.4 1.2 1.5l12.2 2.2v-1.6l-11.8-2.1c-0.2 0-0.3-0.2-0.3-0.4v-1.1c0-0.2 0.1-0.3 0.3-0.3l11.8 2.1v-1.7zm0-4.8c0-0.7-0.6-1.4-1.3-1.5h-0.1-0.1-0.1-0.1-0.1-0.1-0.1-0.1-0.2-0.1-0.1-0.1-0.1-0.1-0.1-0.1-0.1-0.1-0.2c-0.3 0-0.8 0-0.8 0.1-0.7 0.1-4 2.5-4.5 2.4s-2-0.3-2-0.3c-0.5-0.1-0.9-0.4-0.9-0.9s0.4-0.8 0.9-0.7l2.4 0.4v-1.7l-3.4-0.6c-0.7-0.1-1.2 0.3-1.2 1v2.5c0 0.7 0.5 1.3 1.2 1.5 0 0 3.2 0.6 3.4 0.6s0.3-0.1 0.3-0.1c0.3 0 3.7-2.1 3.9-2.3 0.1-0.1 0.4-0.2 0.6-0.2s1.6 0.3 1.6 0.3c0.5 0.1 0.9 0.6 0.9 1s-0.4 0.7-0.9 0.6l-2.2-0.4v1.8l3.3 0.6c0.7 0.1 1.3-0.3 1.3-1v-3.1z" fill="#4C4C4C"/>
	<path d="m58.7 134.9-10.3-13.2c-3.6-4.5 2.9-10.2 6.8-5.3l10.3 13.2c3.6 4.7-3.2 10.1-6.8 5.3" fill="#666"/>
	<path d="m58.7 168-10.3-13.2c-3.6-4.5 2.9-10.2 6.8-5.3l10.3 13.2c3.6 4.7-3.2 10.1-6.8 5.3" fill="#666"/>
	<path d="m108.7 263.3v-2.1l-3.2 2.7-3.5-2.9v2l2.3 1.9-2.3 1.9v2l3.5-2.9 3.2 2.7v-2.1l-1.9-1.6 1.9-1.6z" fill="#D8D8D8"/>
	<path d="m84.8 289.8v1 1l-6.6 3v-1.6l1.7-0.8v-3.3l-1.7-0.8v-1.6l6.6 3.1zm-3.6 2 2.3-1-2.2-1-0.1 2z" fill="#D8D8D8"/>
	<path d="m52.4 194.9v-1.8l-3.7 3h-3.1v1.6h3.1l3.7 3v-1.8l-2.5-2 2.5-2z" fill="#D8D8D8"/>
	<path d="m29.1 220.1v4.4c-0.2 2.8-3.1 2.9-3.3 0.2-0.1 3.4-3.4 3.1-3.6-0.2v-0.1-4.3h6.9zm-5.6 4.4c0.2 1.1 1.4 1.1 1.6 0v-2.7h-1.6v2.7zm2.9 0c0.4 1.1 1.4 0.7 1.5 0v-2.7h-1.5v2.7z" fill="#ccc"/>
	<path d="m77.9 213.9c0-6.7-5.4-12.1-12.1-12.1s-12.1 5.4-12.1 12.1 5.4 12.1 12.1 12.1 12.1-5.4 12.1-12.1zm-1 0c0 6.1-4.9 11.1-11.1 11.1-6.1 0-11.1-4.9-11.1-11.1 0-6.1 4.9-11.1 11.1-11.1s11.1 5 11.1 11.1z" fill="#F4F4F4"/>
	<path d="m100.8 243.2c0-6.7-5.4-12.1-12.1-12.1s-12.1 5.4-12.1 12.1 5.4 12.1 12.1 12.1 12.1-5.4 12.1-12.1zm-1 0c0 6.1-4.9 11.1-11.1 11.1-6.1 0-11.1-4.9-11.1-11.1s5-11 11.1-11 11.1 4.9 11.1 11z" fill="#F4F4F4"/>
	<path d="m55.6 244.2c0-6.7-5.4-12.1-12.1-12.1s-12.1 5.4-12.1 12.1 5.4 12.1 12.1 12.1 12.1-5.4 12.1-12.1zm-1 0c0 6.1-4.9 11-11.1 11-6.1 0-11-4.9-11-11s4.9-11.1 11-11.1c6.2 0.1 11.1 5 11.1 11.1z" fill="#F4F4F4"/>
	<path d="m78.5 273.5c0-6.7-5.4-12.1-12.1-12.1s-12.1 5.4-12.1 12.1 5.4 12.1 12.1 12.1 12.1-5.4 12.1-12.1zm-1 0c0 6.1-4.9 11.1-11.1 11.1-6.1 0-11.1-4.9-11.1-11.1 0-6.1 4.9-11.1 11.1-11.1 6.1 0.1 11.1 5 11.1 11.1z" fill="#F4F4F4"/>
	<path d="m75.2 284.7c-6.2 4.8-15.1 3.7-20-2.5l-22.9-29.3c-4.8-6.2-3.7-15.1 2.5-20 6.2-4.8 15.1-3.7 20 2.5l22.8 29.4c1.8 2.3 2.8 5 3 7.8 0.3 4.4-1.5 9.1-5.4 12.1z" fill="#D8D8D8"/>
	<path d="m78.5 273.5c0 6.7-5.4 12.1-12.1 12.1s-12.1-5.4-12.1-12.1 5.4-12.1 12.1-12.1c6.7 0.1 12.1 5.5 12.1 12.1z" fill="#47449E"/>
	<path d="m97.4 254.5c-6.2 4.8-15.1 3.7-20-2.5l-22.9-29.3c-4.8-6.2-3.7-15.1 2.5-20 6.2-4.8 15.1-3.7 20 2.5l22.8 29.4c1.8 2.3 2.8 5 3 7.8 0.4 4.4-1.5 9.1-5.4 12.1z" fill="#D8D8D8"/>
	<path d="m100.8 243.2c0 6.7-5.4 12.1-12.1 12.1s-12.1-5.4-12.1-12.1 5.4-12.1 12.1-12.1c6.7 0.1 12.1 5.5 12.1 12.1z" fill="#A59EF7"/>
	<path d="m55.6 244.2c0 6.7-5.4 12.1-12.1 12.1s-12.1-5.4-12.1-12.1 5.4-12.1 12.1-12.1 12.1 5.4 12.1 12.1z" fill="#47449E"/>
	<path d="m77.9 213.9c0 6.7-5.4 12.1-12.1 12.1s-12.1-5.4-12.1-12.1 5.4-12.1 12.1-12.1 12.1 5.4 12.1 12.1z" fill="#A59EF7"/>
	<circle cx="66.5" cy="65.2" r="6.8" fill="#595959"/>

</svg>
