<?xml version="1.0" encoding="UTF-8"?>
<svg id="svg77" width="165.14" height="384.99" version="1.1" viewBox="109.84 -107.43 165.14 384.99" xmlns="http://www.w3.org/2000/svg" xmlns:bx="https://www.boxy-svg.com/bx" xmlns:cc="http://creativecommons.org/ns#" xmlns:dc="http://purl.org/dc/elements/1.1/" xmlns:rdf="http://www.w3.org/1999/02/22-rdf-syntax-ns#">
 <metadata id="metadata83">
  <rdf:RDF>
   <cc:Work rdf:about="">
    <dc:format>image/svg+xml</dc:format>
    <dc:type rdf:resource="http://purl.org/dc/dcmitype/StillImage"/>
   </cc:Work>
  </rdf:RDF>
 </metadata>
 <g id="g1048">
  <path id="path7" d="m274.98 154.53c0-0.991-0.085-2.134-0.519-3.111-0.435-0.978-1.363-1.795-2.674-1.795v0.641c-0.252-0.011-0.63 0.021-0.641 0.332l0.121 44.485c-0.479 15.887-5.099 29.69-12.469 41.794-0.258 0.514 0.278 0.736 0.488 0.727 0.857-0.036 1.531-0.086 2.068-0.151v0.065c0.848 0 1.502 0.073 2.134 0 0.624-0.073 1.257-0.428 1.616-1.077 4e-3 -6e-3 0.019 4e-3 0.021 0 2e-3 -6e-3 -4e-3 -0.015 0-0.02 6.714-11.945 9.855-25.708 9.855-40.34z" fill="#bdbdbd" bx:origin="0 0"/>
  <path id="path-7" d="m274.98 15.71c0 0.991-0.085 2.134-0.519 3.111-0.435 0.978-1.363 1.795-2.674 1.795v-0.641c-0.252 0.011-0.63-0.021-0.641-0.332l0.121-44.485c-0.479-15.887-5.099-29.69-12.469-41.794-0.258-0.514 0.278-0.736 0.488-0.727 0.857 0.036 1.531 0.086 2.068 0.151v-0.065c0.848 0 1.502-0.073 2.134 0 0.624 0.073 1.257 0.428 1.616 1.077 4e-3 6e-3 0.019-4e-3 0.021 0 2e-3 6e-3 -4e-3 0.015 0 0.02 6.714 11.945 9.855 25.708 9.855 40.34z" fill="#bdbdbd" bx:origin="0 1"/>
  <path id="path-11" d="m271.87-26.407v105.55h-1.474v12.032h1.474v105.37c0 44.754-36.25 81.022-81.002 81.022-44.754 0-81.022-36.27-81.022-81.022 0-17.66 5.652-33.984 15.24-47.297v-0.019l1.295-1.673c2.348-2.94 3.745-6.667 3.745-10.719v-30.361-73.175c0-4.051-1.397-7.778-3.745-10.717l-1.295-1.674v-0.019c-9.594-13.305-15.243-29.626-15.243-47.292 0-44.752 36.268-81.021 81.022-81.021 44.752 0 81.003 36.27 81.003 81.021z" fill="#ccc" bx:origin="0.5 0.5"/>
  <g id="g32" transform="rotate(90 191.91 84.569)" fill="#4c4c4c">
   <g id="g18">
    <path id="path5" d="m145.37 123.43c0.053-0.336-0.087-0.598-0.42-0.784l-0.56-0.319c-0.787-0.469-1.16-1.107-1.12-1.913 0.02-0.372 0.117-0.7 0.29-0.983 0.173-0.293 0.417-0.519 0.73-0.678 0.307-0.16 0.643-0.235 1.01-0.226 0.493 9e-3 0.89 0.199 1.19 0.571 0.3 0.363 0.447 0.855 0.44 1.475h-1.16c7e-3 -0.248-0.033-0.451-0.12-0.611-0.087-0.15-0.23-0.23-0.43-0.239-0.2 0-0.373 0.062-0.52 0.186-0.153 0.123-0.243 0.296-0.27 0.518-0.04 0.302 0.13 0.549 0.51 0.744 0.38 0.196 0.657 0.359 0.83 0.492 0.547 0.434 0.803 1.019 0.77 1.754-0.02 0.381-0.113 0.718-0.28 1.01-0.167 0.283-0.397 0.505-0.69 0.664-0.293 0.16-0.627 0.235-1 0.226-0.267-9e-3 -0.513-0.062-0.74-0.159-0.233-0.107-0.433-0.262-0.6-0.465-0.327-0.408-0.483-0.948-0.47-1.622l1.17 0.014c-0.013 0.336 0.037 0.594 0.15 0.77 0.107 0.169 0.293 0.253 0.56 0.253 0.193 0 0.357-0.057 0.49-0.173 0.133-0.123 0.213-0.292 0.24-0.505z" bx:origin="0.5 0.5"/>
    <path id="path8" d="m169.79 119.84h-1.44l-0.71 5.382h-1.17l0.71-5.382h-1.43l0.17-1.235h4.04z" bx:origin="0.5 0.5"/>
    <path id="path10" d="m164.48 122.97c-0.034 0.469-0.15 0.881-0.35 1.236-0.2 0.363-0.46 0.642-0.78 0.837-0.327 0.195-0.68 0.288-1.06 0.279-0.52-0.017-0.927-0.239-1.22-0.664-0.3-0.435-0.464-1.019-0.49-1.754-0.02-0.488 0.02-1.023 0.12-1.608 0.1-0.576 0.263-1.076 0.49-1.502 0.233-0.434 0.503-0.757 0.81-0.97 0.313-0.212 0.653-0.315 1.02-0.305 0.546 0.017 0.976 0.235 1.29 0.651 0.313 0.425 0.486 1.006 0.52 1.741h-1.17c6e-3 -0.408-0.047-0.695-0.16-0.864-0.12-0.177-0.3-0.27-0.54-0.279-0.62-0.027-0.997 0.607-1.13 1.9-0.06 0.594-0.09 1.014-0.09 1.262-0.014 0.744 0.193 1.13 0.62 1.156 0.273 0.01 0.493-0.083 0.66-0.279 0.166-0.195 0.273-0.465 0.32-0.81z" bx:origin="0.5 0.5"/>
    <path id="path12" d="m159.33 122.42h-1.83l-0.2 1.582h2.16l-0.16 1.222h-3.33l0.86-6.617h3.34l-0.16 1.235h-2.17l-0.18 1.396h1.83z" bx:origin="0.5 0.5"/>
    <path id="path14" d="m153.09 124h2.02l-0.16 1.222h-3.19l0.86-6.617h1.17z" bx:origin="0.5 0.5"/>
    <path id="path16" d="m150.78 122.42h-1.83l-0.2 1.582h2.16l-0.16 1.222h-3.33l0.86-6.617h3.34l-0.16 1.235h-2.17l-0.18 1.396h1.83z" bx:origin="0.5 0.5"/>
   </g>
   <g id="g30">
    <path id="path20" d="m189 123.43c0.053-0.336-0.087-0.598-0.42-0.784l-0.56-0.319c-0.787-0.469-1.16-1.107-1.12-1.913 0.02-0.372 0.117-0.7 0.29-0.983 0.173-0.293 0.417-0.519 0.73-0.678 0.307-0.16 0.643-0.235 1.01-0.226 0.493 9e-3 0.89 0.199 1.19 0.571 0.3 0.363 0.447 0.855 0.44 1.475h-1.16c7e-3 -0.248-0.033-0.451-0.12-0.611-0.087-0.15-0.23-0.23-0.43-0.239-0.2 0-0.373 0.062-0.52 0.186-0.153 0.123-0.243 0.296-0.27 0.518-0.04 0.302 0.13 0.549 0.51 0.744 0.38 0.196 0.657 0.359 0.83 0.492 0.547 0.434 0.803 1.019 0.77 1.754-0.02 0.381-0.113 0.718-0.28 1.01-0.167 0.283-0.397 0.505-0.69 0.664-0.293 0.16-0.627 0.235-1 0.226-0.267-9e-3 -0.513-0.062-0.74-0.159-0.233-0.107-0.433-0.262-0.6-0.465-0.327-0.408-0.483-0.948-0.47-1.622l1.17 0.014c-0.013 0.336 0.037 0.594 0.15 0.77 0.107 0.169 0.293 0.253 0.56 0.253 0.193 0 0.357-0.057 0.49-0.173 0.133-0.123 0.213-0.292 0.24-0.505z" bx:origin="0.5 0.5"/>
    <path id="path22" d="m210.07 119.84h-1.44l-0.71 5.382h-1.17l0.71-5.382h-1.43l0.17-1.235h4.04z" bx:origin="0.5 0.5"/>
    <path id="path24" d="m202.25 121.66h0.68c0.186 0 0.35-0.057 0.49-0.173 0.14-0.123 0.24-0.292 0.3-0.505 0.06-0.203 0.076-0.408 0.05-0.611-0.047-0.336-0.21-0.514-0.49-0.532h-0.79zm-0.16 1.222-0.3 2.339h-1.17l0.86-6.617 1.76 0.013c0.56 0 0.993 0.173 1.3 0.518 0.3 0.355 0.433 0.833 0.4 1.435-0.02 0.479-0.124 0.873-0.31 1.183-0.18 0.319-0.434 0.567-0.76 0.744l0.67 2.644v0.08h-1.25l-0.55-2.339z" bx:origin="0 0"/>
    <path id="path26" d="m197.2 123.99-0.44 1.236h-1.29l2.64-6.617h1.1l0.92 6.617h-1.22l-0.12-1.236zm0.44-1.235h1.03l-0.22-2.273z" bx:origin="0 0"/>
    <path id="path28" d="m195.55 119.84h-1.44l-0.71 5.382h-1.17l0.71-5.382h-1.43l0.17-1.235h4.04z" bx:origin="0.5 0.5"/>
   </g>
  </g>
  <path id="path42" d="m191.79 20.043c-25.403 0-45.994-20.559-45.994-45.92s20.591-45.92 45.994-45.92c25.402 0 45.996 20.559 45.996 45.92s-20.594 45.92-45.996 45.92" clip-path="url(#clipPath16)" fill="#999" stroke="#999" bx:origin="0.5 0.5"/>
  <path id="path46" d="m191.79 18.623c-24.594 0-44.53-19.922-44.53-44.499s19.936-44.501 44.53-44.501c24.593 0 44.53 19.924 44.53 44.501s-19.937 44.499-44.53 44.499" clip-path="url(#clipPath16)" fill="#ccc" bx:origin="0.5 0.5"/>
  <path id="path50" d="m191.7 269.68c-40.332 0-73.028-32.697-73.028-73.029 0-40.333 32.696-73.029 73.028-73.029 40.333 0 73.029 32.696 73.029 73.029 0 40.332-32.696 73.029-73.029 73.029" clip-path="url(#clipPath16)" fill="#666" bx:origin="0.5 0.5"/>
  <path id="path70" d="m203.32 6.1075v-20.459h20.458c0.873 0 1.589-0.715 1.589-1.59v-19.871c0-0.875-0.716-1.59-1.589-1.59h-20.458v-20.459c0-0.873-0.716-1.588-1.59-1.588h-19.872c-0.873 0-1.589 0.715-1.589 1.588v20.459h-20.459c-0.874 0-1.589 0.715-1.589 1.59v19.871c0 0.875 0.715 1.59 1.589 1.59h20.459v20.459c0 0.874 0.716 1.589 1.589 1.589h19.872c0.874 0 1.59-0.715 1.59-1.589" clip-path="url(#clipPath16)" fill="#4c4c4c" bx:origin="0.5 0.5"/>
  <path id="path90" d="m193.88-54.661c-1.146-2.022-3.023-2.022-4.17 0l-4.442 7.834c-1.148 2.022-0.612 3.676 1.19 3.676h10.674c1.802 0 2.336-1.654 1.191-3.676l-4.443-7.834c-1.146-2.022-3.023-2.022-4.17 0l-4.442 7.834c-1.148 2.022-0.612 3.676 1.19 3.676h10.674c1.802 0 2.336-1.654 1.191-3.676z" clip-path="url(#clipPath16)" fill="#666" bx:origin="0.5 0.5"/>
  <path id="path94" d="m193.88 2.8085c-1.146 2.023-3.023 2.023-4.17 0l-4.442-7.834c-1.148-2.022-0.612-3.676 1.19-3.676h10.674c1.802 0 2.336 1.654 1.191 3.676l-4.443 7.834c-1.146 2.023-3.023 2.023-4.17 0l-4.442-7.834c-1.148-2.022-0.612-3.676 1.19-3.676h10.674c1.802 0 2.336 1.654 1.191 3.676z" clip-path="url(#clipPath16)" fill="#666" bx:origin="0.5 0.5"/>
  <path id="path98" d="m220.45-23.793c2.022-1.147 2.022-3.024 0-4.17l-7.834-4.442c-2.022-1.147-3.676-0.611-3.676 1.19v10.674c0 1.802 1.654 2.336 3.676 1.191l7.834-4.443c2.022-1.147 2.022-3.024 0-4.17l-7.834-4.442c-2.022-1.147-3.676-0.611-3.676 1.19v10.674c0 1.802 1.654 2.336 3.676 1.191z" clip-path="url(#clipPath16)" fill="#666" bx:origin="0.5 0.5"/>
  <path id="path102" d="m162.98-23.842c-2.023-1.146-2.023-3.023 0-4.17l7.833-4.442c2.023-1.146 3.677-0.611 3.677 1.19v10.675c0 1.801-1.654 2.336-3.677 1.19l-7.833-4.443c-2.023-1.146-2.023-3.023 0-4.17l7.833-4.442c2.023-1.146 3.677-0.611 3.677 1.19v10.675c0 1.801-1.654 2.336-3.677 1.19z" clip-path="url(#clipPath16)" fill="#666" bx:origin="0.5 0.5"/>
  <path id="path-4" d="m181.99 61.222-12.892-16.446c-4.4779-5.6847 3.6284-12.784 8.4694-6.6388l12.893 16.444c4.5223 5.877-3.8847 12.6-8.4704 6.6398" clip-path="url(#clipPath16)" fill="#666" bx:origin="0.5 0.5"/>
  <path id="path-2" d="m181.99 102.56-12.892-16.446c-4.4779-5.6847 3.6284-12.784 8.4694-6.6388l12.893 16.444c4.5222 5.877-3.8847 12.6-8.4704 6.6398" clip-path="url(#clipPath16)" fill="#666" bx:origin="0.5 0.5"/>
  <path id="path44" d="m244.5 221.72 0.03-2.686-4.034 3.388-4.395-3.613 0.017 2.527 2.836 2.382-2.836 2.381-0.017 2.527 4.395-3.613 4.034 3.388-0.03-2.686-2.429-1.997z" fill="#d8d8d8" bx:origin="0 0"/>
  <path id="path47" d="m214.7 254.79-0.011 1.254 0.011 1.253-8.311 3.797-0.011-2.041 2.085-0.948 0.024-4.112-2.109-0.959 0.011-2.041zm-4.541 2.545 2.841-1.291-2.796-1.271z" fill="#d8d8d8" bx:origin="0 0"/>
  <path id="path49" d="m174.15 136.24 2e-3 -2.27-4.674 3.762h-3.836v1.984h3.858l4.652 3.744-3e-3 -2.27-3.095-2.475z" fill="#d8d8d8" bx:origin="0 0"/>
  <path id="path51" d="m145.07 167.73v0.84h2e-3v4.585h2e-3c-1e-3 0.014-1e-3 0.028-2e-3 0.042v0.069h-4e-3c-0.228 3.457-3.921 3.68-4.087 0.241-0.16 4.193-4.315 3.909-4.488-0.241h-1e-3v-0.018l-3e-3 -0.096h3e-3v-5.422zm-6.996 5.507c0.221 1.32 1.718 1.404 1.99 0.029h-2e-3v-3.331h-1.988zm3.57-0.032c0.539 1.425 1.707 0.82 1.848 0.061h-2e-3v-3.331h-1.846z" fill="#ccc" bx:origin="0 0"/>
  <path id="circle35" d="m206.07 159.96c0-8.331-6.771-15.101-15.102-15.101s-15.102 6.77-15.102 15.101c0 8.332 6.771 15.102 15.102 15.102s15.102-6.77 15.102-15.102zm-1.276 0c0 7.642-6.185 13.826-13.826 13.826s-13.825-6.184-13.825-13.826c0-7.64 6.184-13.824 13.825-13.824s13.826 6.184 13.826 13.824z" fill="#f4f4f4" bx:origin="0.5 0.5"/>
  <path id="circle37" d="m234.64 196.63c0-8.331-6.77-15.082-15.102-15.082-8.33 0-15.101 6.751-15.101 15.082s6.771 15.102 15.101 15.102c8.332 0 15.102-6.771 15.102-15.102zm-1.277 0c0 7.641-6.184 13.825-13.824 13.825-7.641 0-13.825-6.184-13.825-13.825 0-7.64 6.184-13.805 13.825-13.805 7.64 0 13.824 6.164 13.824 13.805z" fill="#f4f4f4" bx:origin="0.5 0.5"/>
  <path id="circle41" d="m178.18 197.84c0-8.33-6.771-15.101-15.103-15.101-8.331 0-15.082 6.771-15.082 15.101 0 8.333 6.751 15.082 15.082 15.082s15.103-6.749 15.103-15.082zm-1.278 0c0 7.643-6.184 13.805-13.825 13.805s-13.804-6.162-13.804-13.805c0-7.64 6.163-13.824 13.804-13.824s13.825 6.184 13.825 13.824z" fill="#f4f4f4" bx:origin="0.5 0.5"/>
  <path id="circle43" d="m206.75 234.51c0-8.331-6.771-15.103-15.101-15.103-8.331 0-15.101 6.772-15.101 15.103 0 8.332 6.77 15.102 15.101 15.102 8.33 0 15.101-6.772 15.101-15.102zm-1.276 0c0 7.64-6.184 13.824-13.824 13.824-7.642 0-13.825-6.184-13.825-13.824s6.184-13.824 13.825-13.824c7.64 0 13.824 6.184 13.824 13.824z" fill="#f4f4f4" bx:origin="0.5 0.5"/>
  <path id="path57" d="m202.61 248.42c-7.753 6.039-18.918 4.662-24.958-3.092l-28.567-36.667c-6.039-7.754-4.641-18.919 3.112-24.957 7.754-6.038 18.918-4.661 24.957 3.093l28.548 36.687c2.266 2.906 3.5 6.279 3.731 9.697 0.386 5.692-1.976 11.466-6.823 15.239z" fill="#d8d8d8" bx:origin="0 0"/>
  <path id="path-5" d="m206.74 234.51c0 8.342-6.751 15.093-15.094 15.093-8.34 0-15.09-6.751-15.09-15.093 0-8.341 6.75-15.092 15.09-15.092 8.343 0 15.094 6.751 15.094 15.092z" fill="#ba2318" bx:origin="0.5 0.5"/>
  <path id="path60" d="m230.42 210.66c-7.753 6.039-18.918 4.662-24.957-3.093l-28.567-36.666c-6.039-7.754-4.642-18.919 3.112-24.958 7.754-6.038 18.918-4.66 24.956 3.094l28.548 36.687c2.266 2.906 3.5 6.278 3.732 9.696 0.386 5.693-1.977 11.467-6.824 15.24z" fill="#d8d8d8" bx:origin="0 0"/>
  <path id="path-6" d="m234.63 196.64c0 8.341-6.751 15.092-15.094 15.092-8.341 0-15.091-6.751-15.091-15.092s6.75-15.093 15.091-15.093c8.343 0 15.094 6.752 15.094 15.093z" fill="#0a2a8d" bx:origin="0.5 0.5"/>
  <path id="path-1" d="m178.18 197.83c0 8.342-6.751 15.093-15.093 15.093-8.341 0-15.09-6.751-15.09-15.093 0-8.341 6.749-15.092 15.09-15.092 8.342 0 15.093 6.751 15.093 15.092z" fill="#fed01b" bx:origin="0.5 0.5"/>
  <path id="path-10" d="m206.06 159.96c0 8.342-6.751 15.093-15.093 15.093-8.341 0-15.091-6.751-15.091-15.093 0-8.341 6.75-15.092 15.091-15.092 8.342 0 15.093 6.751 15.093 15.092z" fill="#007544" bx:origin="0.5 0.5"/>
  <path id="path-18" d="m191.79-17.512c-4.621 0-8.365-3.745-8.365-8.366 0-4.619 3.744-8.364 8.365-8.364 4.619 0 8.365 3.745 8.365 8.364 0 4.621-3.746 8.366-8.365 8.366" clip-path="url(#clipPath16)" fill="#666" fill-opacity=".5" bx:origin="0.5 0.5"/>
  <g id="g75" transform="rotate(90 190.41 86.263)">
   <path id="path-3" d="m163.35 35.415-0.342 0.939h0.26zm-9.644-1.119c-0.028 0-0.048 0.015-0.067 0.033l-0.212 1.12v7e-3c0 0.044 0.027 0.076 0.068 0.076h0.193c0.05 0 0.17-0.1 0.181-0.149l0.178-0.924c6e-3 -0.054-0.081-0.163-0.131-0.163zm39.054-0.445h1.091l-0.085 0.46h-0.273l-0.571 3.264h-0.522l0.571-3.264h-0.292zm-4.841 0h0.459l0.241 1.944 0.36-1.944h0.521l-0.683 3.724h-0.458l-0.176-2.16-0.426 2.16h-0.538zm-4.724 0h0.963l-0.066 0.46h-0.522l-0.214 1.152h0.508l-0.067 0.397h-0.519l-0.214 1.253h0.525l-0.084 0.462h-1.027zm-5.915 0h0.604l0.096 2.158 0.93-2.144h0.586l-0.619 3.71h-0.457l0.296-1.962-0.816 1.962h-0.324l-0.1-2.01-0.359 2.01h-0.522zm-5.392 0h0.457l0.242 1.944 0.36-1.944h0.521l-0.683 3.724h-0.472l-0.166-2.16-0.422 2.16h-0.537zm-4.205 0h0.474l-0.7 3.724h-0.458zm-4.333 0h0.62l-0.196 3.724h-0.619l0.081-0.856h-0.375l-0.31 0.856h-0.553zm-5.425 0h1.09l-0.065 0.46h-0.275l-0.587 3.264h-0.522l0.571-3.264h-0.294zm-4.658 0h1.039c0.195 0 0.318 0.172 0.28 0.378l-0.246 1.319c-0.025 0.142-0.274 0.259-0.406 0.312h0.066v0.017h0.063l0.016 0.017h0.049v0.016h0.033v0.017h0.018c0.021 0.041 0.03 0.157 0.03 0.182 0 0.02-0.262 1.466-0.262 1.466h-0.469s0.253-1.298 0.26-1.351c3e-3 -0.057-6e-3 -0.13-0.018-0.181-3e-3 -0.04-5e-3 -0.108-0.046-0.149h-0.326l-0.312 1.681h-0.47zm-4.597 0h0.978l-0.081 0.46h-0.506l-0.228 1.152h0.506l-0.065 0.397h-0.509l-0.207 1.253h0.503l-0.063 0.462h-1.044zm-4.739 0h1.076l-0.069 0.46h-0.274l-0.589 3.264h-0.523l0.573-3.264h-0.294zm-4.89 0h0.455l0.246 1.944 0.359-1.944h0.535l-0.699 3.724h-0.455l-0.178-2.16-0.428 2.16h-0.535zm-4.498 0h0.963l-0.065 0.46h-0.522l-0.212 1.152h0.506l-0.065 0.397h-0.521l-0.197 1.253h0.505l-0.082 0.462h-1.041zm87.512-0.133h0.602l0.098 2.142 0.928-2.125 0.588-0.017-0.62 3.709h-0.456l0.294-1.964-0.813 1.964h-0.329l-0.097-2.012-0.359 2.012h-0.536zm-4.026 0h0.979l-0.082 0.445h-0.505l-0.227 1.17h0.519l-0.08 0.378h-0.505l-0.212 1.254h0.505l-0.067 0.462h-1.039zm-4.269 0h1.092l-0.079 0.445h-0.279l-0.568 3.264h-0.539l0.571-3.264h-0.277zm-3.796 0h0.799c0.192 0 0.33 0.158 0.294 0.362l-0.18 0.923h-0.44l0.099-0.608c0.023-0.14-0.059-0.248-0.196-0.248-0.136 0-0.272 0.108-0.294 0.248l-0.082 0.443c-0.016 0.026 0.024 0.153 0.049 0.165 0.058 0.038 0.637 1 0.637 1.074 0.017 0.034 0.017 0.05 0.017 0.064-0.023 0.12-0.164 0.942-0.164 0.942-0.036 0.186-0.218 0.344-0.405 0.344h-0.702c-0.191 0-0.314-0.158-0.278-0.344l0.161-0.942h0.475l-0.115 0.676c-0.022 0.139 0.064 0.266 0.198 0.266 0.135 0 0.263-0.127 0.29-0.266l0.1-0.544c-0.092-0.228-0.665-1.057-0.702-1.253-0.023-0.023-0.036-0.14-0.034-0.229 5e-3 -0.1 0.132-0.711 0.132-0.711l0.016-0.016v-0.032l0.019-0.033v-0.018l0.014-0.016v-0.017l0.016-0.016v-0.015l0.016-0.016 0.015-0.017v-0.019h0.017l0.018-0.014 0.016-0.017 0.017-0.016 0.016-0.016 0.016-0.018 0.018-0.015h0.015l0.015-0.018h0.016l0.017-0.016h0.051zm-5.327 0h0.587l0.081 1.402 0.751-1.402h0.586l-1.206 2.142-0.294 1.567h-0.522l0.263-1.682zm-3.747 0h0.798c0.193 0 0.33 0.158 0.293 0.362l-0.18 0.923h-0.438l0.098-0.608c0.022-0.14-0.06-0.248-0.197-0.248-0.136 0-0.271 0.108-0.294 0.248l-0.08 0.443c-0.014 0.026 0.025 0.153 0.046 0.165 0.063 0.038 0.639 1 0.639 1.074 0.012 0.034 0.02 0.05 0.014 0.064-0.014 0.12-0.179 0.942-0.179 0.942-0.034 0.186-0.213 0.344-0.407 0.344h-0.681c-0.194 0-0.315-0.158-0.28-0.344l0.165-0.942h0.47l-0.115 0.676c-0.021 0.139 0.061 0.266 0.199 0.266 0.131 0 0.27-0.127 0.292-0.266l0.096-0.544c-0.086-0.228-0.664-1.057-0.7-1.253-0.024-0.023-0.036-0.14-0.033-0.229 7e-3 -0.1 0.132-0.711 0.132-0.711h0.014v-0.048l0.019-0.033v-0.018l0.014-0.016v-0.017l0.019-0.016v-0.015l0.013-0.016 0.02-0.017v-0.019h0.015l0.015-0.014 0.033-0.033v-0.016h0.019l0.013-0.018 0.019-0.015h0.015l0.017-0.018h0.016l0.015-0.016h0.05zm-68.365 4.911h93.002v-5.487h-93.002zm33.106-21.685h1.012c0.221 0 0.694 0.513 0.648 0.741l-0.861 4.12c-0.039 0.214-0.569 0.722-0.784 0.722h-0.893c-0.185 0-0.315-0.121-0.327-0.295 0-0.028-3e-3 -0.067 0-0.098l0.96-5.059 0.018-0.017 0.014-0.015 0.034-0.018h0.017l0.016-0.015 0.014-0.018h0.017l0.016-0.016h0.018l0.033-0.016h0.048zm-12.985 0h1.009c0.225 0 0.693 0.513 0.651 0.741l-0.861 4.136c-0.042 0.212-0.326 0.706-0.536 0.706h-1.255l-0.019-0.015h-0.064v-0.018h-0.033l-0.017-0.015h-0.015l-0.017-0.015-0.017-0.017h-0.018v-0.016l-0.013-0.017-0.019-0.017v-0.017l-0.013-0.014-0.017-0.019v-0.031l-0.017-0.017v-0.033l-0.017-0.017v-0.017c0-0.028-4e-3 -0.067 0-0.098l0.976-5.059c0.09-0.075 0.2-0.131 0.312-0.131m71.235-0.068h0.063c0.614 0 1.019 0.501 0.912 1.119l-1.956 10.961c-0.105 0.621-0.671 1.138-1.285 1.138-0.616 0-0.872-0.516-0.767-1.138l1.94-10.961 0.015-0.048 0.02-0.047 0.013-0.067 0.018-0.049 0.014-0.066 0.017-0.048 0.015-0.051 0.034-0.049 0.017-0.048 0.031-0.053 0.018-0.048 0.03-0.049 0.035-0.033 0.032-0.05 0.033-0.049 0.048-0.033 0.065-0.065 0.049-0.032 0.049-0.035 0.032-0.032 0.048-0.033 0.051-0.018 0.049-0.032 0.033-0.016 0.063-0.017 0.05-0.018h0.05l0.048-0.014h0.066zm-8.393 0h0.959c0.619 0 1.037 0.501 0.932 1.119l-2.053 10.961c-0.108 0.622-0.706 1.138-1.32 1.138h-0.946zm7.169-1.928c-0.894 0-1.748 0.743-1.908 1.665l-2.328 13.529c-0.152 0.865 0.414 1.548 1.274 1.548h3.435c0.862 0 1.699-0.683 1.857-1.548l2.524-13.529c0.174-0.922-0.409-1.665-1.3-1.665zm-8.944 0-3.147 16.742h4.76c0.864 0 1.695-0.683 1.857-1.548l2.526-13.529c0.17-0.924-0.411-1.665-1.304-1.665zm-8.295 0-3.144 16.742h2.412l1.939-9.703 0.766 9.703h2.086l3.144-16.742h-2.411l-1.612 8.753-1.079-8.753zm-5.294 0-3.26 16.742h4.693l0.325-2.074h-2.312l0.96-5.653h2.315l0.325-1.746h-2.313l1.011-5.192h2.312l0.325-2.077zm-5.737 0-0.389 2.077h1.302l-2.575 14.665h2.38l2.623-14.665h1.254l0.326-2.077zm-8.078 0-3.146 16.742h2.411l1.937-9.703 0.767 9.703h2.086l3.144-16.742h-2.411l-1.612 8.753-1.074-8.753zm-3.178 0-3.143 16.742h2.081l3.147-16.742zm-8.279 0-3.144 16.742h2.397l1.936-9.703 0.766 9.703h2.088l3.143-16.742h-2.395l-1.627 8.753-1.076-8.753zm-11.161 0-3.128 16.742h2.088l1.416-7.577h1.483c0.195 0.182 0.216 0.522 0.246 0.691 0.037 0.246 0.078 0.561 0.048 0.806-0.027 0.246-1.141 6.08-1.141 6.08h2.086s1.174-6.356 1.174-6.458c3e-3 -0.104 0-0.429-0.115-0.608-0.077-0.117-0.207-0.382-0.36-0.479-0.289-0.188-0.617-0.314-0.617-0.314h-0.147c0.594-0.238 1.721-0.629 1.839-1.27l1.141-5.948c0.174-0.924-0.408-1.665-1.304-1.665zm-5.603 0-3.26 16.742h4.694l0.327-2.074h-2.314l0.944-5.653h2.313l0.324-1.746h-2.311l1.025-5.192h2.315l0.325-2.077zm-7.446 0-3.144 16.742h2.085l1.435-7.577h2.656c0.862 0 1.682-0.692 1.841-1.552l1.14-5.948c0.168-0.924-0.412-1.665-1.307-1.665h-2.621zm-7.495 0-2.606 15.194c-0.152 0.865 0.427 1.548 1.287 1.548h3.11c0.862 0 1.699-0.683 1.859-1.548l2.786-15.194h-1.957l-2.655 14.768c-0.036 0.212-0.245 0.395-0.456 0.395h-1.546c-0.217 0-0.361-0.182-0.328-0.395l2.591-14.768zm-5.997 0c-0.891 0-1.762 0.743-1.923 1.665v0.051l-0.014 0.014v0.05l-0.017 0.034v0.032l-0.015 0.034v0.048l-0.019 0.033v0.051l-0.014 0.05-0.018 0.048-0.018 0.099-0.03 0.116-0.014 0.115-0.035 0.115-0.017 0.133-0.033 0.13-0.029 0.149-0.035 0.133-0.05 0.278-0.031 0.148-0.032 0.134-0.017 0.131-0.033 0.132-0.034 0.132-0.015 0.131-0.013 0.116-0.035 0.1-0.018 0.114v0.048l-0.014 0.035v0.08l-0.019 0.053v0.063l-0.015 0.034v0.033c-0.016 0.403 0.037 0.954 0.163 1.056 0.158 0.884 3.083 4.993 2.998 5.62-0.08 0.627-0.423 2.47-0.423 2.47-0.105 0.622-0.528 1.12-1.143 1.12-0.612 0-1.031-0.495-0.927-1.12l0.554-3.063h-2.183l-0.734 4.249c-0.149 0.865 0.429 1.548 1.29 1.548h3.109c0.863 0 1.683-0.683 1.841-1.548 0 0 0.804-3.971 0.799-4.249-3e-3 -0.285-0.08-0.316-0.08-0.316 0-0.323-2.604-4.667-2.869-4.831-0.114-0.065-0.207-0.494-0.213-0.755-4e-3 -0.26 0.343-1.996 0.343-1.996 0.108-0.618 0.69-1.119 1.305-1.119s0.871 0.501 0.764 1.119l-0.471 2.751h2.2l0.767-4.133c0.172-0.922-0.412-1.665-1.307-1.665z" clip-path="url(#clipPath16)" fill="#4c4c4c" bx:origin="0.5 0.5"/>
   <g id="g104" transform="matrix(1.6057 0 0 -1.6057 113.09 29.646)">
    <path id="path106" d="m0 0c0-0.841-1.525-1.523-3.407-1.523s-3.408 0.682-3.408 1.523 1.526 1.523 3.408 1.523 3.407-0.682 3.407-1.523" fill="#4c4c4c"/>
   </g>
   <g id="g108" transform="matrix(1.6057 0 0 -1.6057 122.89 33.697)">
    <path id="path110" d="m0 0c0-0.841-1.525-1.523-3.407-1.523s-3.408 0.682-3.408 1.523 1.526 1.523 3.408 1.523 3.407-0.682 3.407-1.523" fill="#4c4c4c"/>
   </g>
   <g id="g112" transform="matrix(1.6057 0 0 -1.6057 123.55 31.092)">
    <path id="path114" d="M 0,0 C -0.41,1.706 -1.897,3.592 -3.817,2.772 -2.254,6.378 0.697,5.805 1.721,4.575 2.519,3.618 2.5,0.343 0,0" fill="#4c4c4c"/>
   </g>
   <g id="g116" transform="matrix(1.6057 0 0 -1.6057 113.9 26.662)">
    <path id="path118" d="M 0,0 C -0.41,1.706 -1.897,3.591 -3.817,2.772 -2.254,6.378 0.697,5.805 1.721,4.575 2.519,3.618 2.5,0.343 0,0" fill="#4c4c4c"/>
   </g>
  </g>
 </g>
</svg>
