<?xml version="1.0" encoding="UTF-8"?>
<svg id="svg2" width="193.34" height="413.15" version="1.1" viewBox="0 0 193.34 413.15" xml:space="preserve" xmlns="http://www.w3.org/2000/svg" xmlns:cc="http://creativecommons.org/ns#" xmlns:dc="http://purl.org/dc/elements/1.1/" xmlns:rdf="http://www.w3.org/1999/02/22-rdf-syntax-ns#"><metadata id="metadata8"><rdf:RDF><cc:Work rdf:about=""><dc:format>image/svg+xml</dc:format><dc:type rdf:resource="http://purl.org/dc/dcmitype/StillImage"/><dc:title/></cc:Work></rdf:RDF></metadata><defs id="defs6"><clipPath id="clipPath16"><path id="path18" d="m0 330.52h154.67v-330.52h-154.67v330.52z"/></clipPath></defs><g id="g10" transform="matrix(1.25 0 0 -1.25 0 413.15)"><g id="g12"><g id="g14" clip-path="url(#clipPath16)"><g id="g20" transform="translate(7.3857)"><path id="path22" d="m0 0c-4.062 0-7.386 3.324-7.386 7.387v315.75c0 4.062 3.324 7.385 7.386 7.385h119.56c4.063 0 7.757-3.302 8.211-7.34l17.277-153.81c0.453-4.039 0.439-10.642-0.032-14.678l-17.213-147.36c-0.47-4.035-4.18-7.338-8.243-7.338h-119.56z" fill="#444141"/></g><g id="g24" transform="translate(8.9756,6.0039)"><path id="path26" d="m0 0c-3.915 0-7.118 3.201-7.118 7.117v304.28c0 3.914 3.203 7.118 7.118 7.118h115.22c3.914 0 7.474-3.183 7.91-7.073l0.419-148.23c0.436-3.893 0.422-10.256-0.032-14.145l-0.356-142.01c-0.453-3.888-4.027-7.068-7.941-7.068h-115.22z" fill="#4f4c4d"/></g><g id="g28" transform="translate(45.854 250.37)"><path id="path30" d="m0 0c-16.933 0-30.658 13.727-30.658 30.66 0 16.934 13.725 30.66 30.658 30.66 16.934 0 30.659-13.726 30.659-30.66 0-16.933-13.725-30.66-30.659-30.66" fill="#5a5758"/></g><g id="g32" transform="translate(9.6934 239.58)"><path id="path34" d="m0 0v14.773c0 5.06 0.422 6.767 2.722 6.767 2.217 0 3.042-2.144 6.501-5.385 7.184-6.734 16.313-11.663 26.937-11.663 20.408 0 36.951 16.544 36.951 36.952 0 9.716-4.431 17.518-4.431 17.518-1.823 3.533-0.803 6.127 3.26 6.127h33.31c4.063 0 7.387-3.324 7.387-7.387v-64.627c0-4.062-2.805-7.386-6.233-7.386h-6.386c-34.671 0-63.026-28.108-63.026-62.78s27.801-62.779 62.473-62.779h6.478c3.681 0 6.694-3.324 6.694-7.387v-61.859c0-4.061-3.324-7.385-7.387-7.385h-67.002c-3.945-2.822-8.779-4.482-14.033-4.482-13.494 0-24.215 10.888-24.215 24.381v196.6" fill="#110f0d"/></g><g id="g36" transform="translate(44.589 42.662)"><path id="path38" d="m0 0c0 6.115-4.922 11.09-10.972 11.09-6.082 0-11.03-4.975-11.03-11.09s4.948-11.09 11.03-11.09c6.05 0 10.972 4.975 10.972 11.09m-26.618 0c0 8.66 7.018 15.706 15.646 15.706 8.596 0 15.588-7.046 15.588-15.706s-6.992-15.706-15.588-15.706c-8.628 0-15.646 7.046-15.646 15.706" fill="#4f4c4d"/></g><g id="g40" transform="translate(20.279 42.662)"><path id="path42" d="m0 0c0-7.4 5.939-13.398 13.338-13.398 7.4 0 13.28 5.998 13.28 13.398s-5.88 13.399-13.28 13.399c-7.399 0-13.338-5.999-13.338-13.399" fill="#656263"/></g><g id="g44" transform="translate(27.236 134.33)"><path id="path46" d="m0 0v15.695c0 3.825 3.1 6.924 6.924 6.924 3.825 0 6.925-3.099 6.925-6.924v-15.695c0-3.824-3.1-6.925-6.925-6.925-3.824 0-6.924 3.101-6.924 6.925" fill="#4f4c4d"/></g><g id="g48" transform="translate(29.544 134.33)"><path id="path50" d="m0 0v15.695c0 2.549 2.067 4.616 4.616 4.616 2.55 0 4.616-2.067 4.616-4.616v-15.695c0-2.55-2.066-4.617-4.616-4.617-2.549 0-4.616 2.067-4.616 4.617" fill="#656263"/></g><g id="g52" transform="translate(27.236 174.87)"><path id="path54" d="m0 0v15.695c0 3.825 3.1 6.924 6.924 6.924 3.825 0 6.925-3.099 6.925-6.924v-15.695c0-3.824-3.1-6.924-6.925-6.924-3.824 0-6.924 3.1-6.924 6.924" fill="#4f4c4d"/></g><g id="g56" transform="translate(29.544 174.87)"><path id="path58" d="m0 0v15.695c0 2.549 2.067 4.616 4.616 4.616 2.55 0 4.616-2.067 4.616-4.616v-15.695c0-2.549-2.066-4.616-4.616-4.616-2.549 0-4.616 2.067-4.616 4.616" fill="#656263"/></g><g id="g60" transform="translate(114.74 278.21)"><path id="path62" d="m0 0c-0.482 0.564-1.121 1.074-1.818 1.412-0.698 0.34-1.455 0.512-2.147 0.521-0.695 7e-3 -1.326-0.146-1.904-0.427-0.58-0.285-1.107-0.696-1.461-1.204-0.357-0.511-0.543-1.117-0.629-1.672-0.085-0.557-0.07-1.062-0.014-1.464 0.057-0.4 0.153-0.695 0.302-0.965l3.311-1.594c-0.195 0.414-0.37 0.833-0.55 1.269-0.18 0.434-0.361 0.886-0.42 1.364-0.057 0.479 0.01 0.984 0.277 1.434 0.266 0.449 0.733 0.842 1.257 1.045 0.521 0.205 1.101 0.216 1.624 0.076 0.522-0.143 0.988-0.443 1.397-0.811 0.408-0.363 0.758-0.793 0.988-1.192 0.232-0.399 0.344-0.768 0.371-1.144l-1.732-1.204 0.516-1.384 2.375 0.971c9e-3 0.272-1e-3 0.547-0.036 0.874-0.035 0.325-0.096 0.7-0.196 1.092-0.099 0.391-0.24 0.795-0.473 1.308-0.231 0.51-0.558 1.13-1.038 1.695m0.885 9.047c-0.16-0.142-0.364-0.318-0.582-0.277l-2.907 0.55c-0.226 0.044-0.39 0.246-0.504 0.405-0.114 0.158-0.144 0.351-0.175 0.546-0.065-0.168-0.131-0.336-0.252-0.449-0.123-0.113-0.295-0.267-0.479-0.226l-2.83 0.631c-0.26 0.06-0.424 0.326-0.568 0.513-0.141 0.191-0.213 0.406-0.285 0.621v-7.551l2.832-0.532c-0.588 0.29-1.176 0.581-1.553 1.075-0.377 0.499-0.708 1.175-0.708 1.894v1.385l3.504-0.692c0.087-0.25 0.077-0.535-0.048-0.79-0.123-0.255-0.363-0.484-0.624-0.689s-0.542-0.385-0.841-0.528l3.686-0.724c-0.27 0.247-0.516 0.523-0.737 0.818-0.22 0.298-0.418 0.615-0.515 0.912-0.098 0.297-0.098 0.575-0.022 0.831l3.45-0.715 0.011-1.115c5e-3 -0.503 0.066-1.006-0.267-1.413-0.334-0.408-1.032-0.72-1.732-1.029l2.526-0.551v7.676c-0.111-0.217-0.22-0.433-0.38-0.576m-4.476 3.954 5.377 4.487-2.331 2.039-0.894-0.978-6.471 1.17 1.029-2.346 1.121 1.21 3.422-0.671-5.449-4.728 7.432-1.633 1-1.653 1.214 1.998-5.45 1.105z" fill="#0a93b2" fill-rule="evenodd"/></g><g id="g64" transform="translate(56.143 73.121)"><path id="path66" d="m0 0c0-4.209 3.343-7.619 7.551-7.619 4.209 0 7.553 3.41 7.553 7.619v13.938c0 4.208-3.344 7.619-7.553 7.619-4.208 0-7.585-3.411-7.585-7.619l0.034-13.938z" fill="#0a93b2"/></g><g id="g68" transform="translate(83.386 87.381)"><path id="path70" d="m0 0c-3.33 0-6.028-2.646-6.028-5.976 0-3.329 2.698-5.975 6.028-5.975h17.028c3.329 0 6.029 2.646 6.029 5.975 0 3.33-2.7 6.001-6.029 6.001l-17.028-0.025z" fill="#4f4c4d"/></g><g id="g72" transform="translate(101.73 92.721)"><path id="path74" d="m0 0c0 1.082-0.858 1.958-1.94 1.958s-1.942-0.876-1.942-1.958v-5.533c0-1.082 0.86-1.959 1.942-1.959s1.949 0.877 1.949 1.959l-9e-3 5.533z" fill="#4f4c4d"/></g><g id="g76" transform="translate(85.946 92.721)"><path id="path78" d="m0 0c0 1.082-0.858 1.958-1.94 1.958s-1.942-0.876-1.942-1.958v-5.533c0-1.082 0.86-1.959 1.942-1.959s1.949 0.877 1.949 1.959l-9e-3 5.533z" fill="#4f4c4d"/></g><g id="g80" transform="translate(93.837 92.721)"><path id="path82" d="m0 0c0 1.082-0.859 1.958-1.941 1.958-1.081 0-1.942-0.876-1.942-1.958v-5.533c0-1.082 0.861-1.959 1.942-1.959 1.082 0 1.95 0.877 1.95 1.959l-9e-3 5.533z" fill="#4f4c4d"/></g><g id="g84" transform="translate(83.386 35.37)"><path id="path86" d="m0 0c-3.33 0-6.028 2.646-6.028 5.976 0 3.328 2.698 5.974 6.028 5.974h17.028c3.329 0 6.029-2.646 6.029-5.974 0-3.33-2.7-6.002-6.029-6.002l-17.028 0.026z" fill="#4f4c4d"/></g><g id="g88" transform="translate(101.73 30.03)"><path id="path90" d="m0 0c0-1.082-0.858-1.958-1.94-1.958s-1.942 0.876-1.942 1.958v5.532c0 1.082 0.86 1.959 1.942 1.959s1.949-0.877 1.949-1.959l-9e-3 -5.532z" fill="#4f4c4d"/></g><g id="g92" transform="translate(85.946 30.03)"><path id="path94" d="m0 0c0-1.082-0.858-1.958-1.94-1.958s-1.942 0.876-1.942 1.958v5.532c0 1.082 0.86 1.959 1.942 1.959s1.949-0.877 1.949-1.959l-9e-3 -5.532z" fill="#4f4c4d"/></g><g id="g96" transform="translate(93.837 30.03)"><path id="path98" d="m0 0c0-1.082-0.859-1.958-1.941-1.958-1.081 0-1.942 0.876-1.942 1.958v5.532c0 1.082 0.861 1.959 1.942 1.959 1.082 0 1.95-0.877 1.95-1.959l-9e-3 -5.532z" fill="#4f4c4d"/></g><g id="g100" transform="translate(56.143 35.691)"><path id="path102" d="m0 0c0-4.209 3.343-7.619 7.551-7.619 4.209 0 7.553 3.41 7.553 7.619v13.938c0 4.207-3.344 7.619-7.553 7.619-4.208 0-7.585-3.412-7.585-7.619l0.034-13.938z" fill="#0a93b2"/></g><g id="g104" transform="translate(44.589 80.09)"><path id="path106" d="m0 0c0 6.115-4.922 11.091-10.972 11.091-6.082 0-11.03-4.976-11.03-11.091s4.948-11.09 11.03-11.09c6.05 0 10.972 4.975 10.972 11.09m-26.618 0c0 8.66 7.018 15.707 15.646 15.707 8.596 0 15.588-7.047 15.588-15.707s-6.992-15.706-15.588-15.706c-8.628 0-15.646 7.046-15.646 15.706" fill="#4f4c4d"/></g><g id="g108" transform="translate(20.279 80.09)"><path id="path110" d="m0 0c0-7.4 5.939-13.399 13.338-13.399 7.4 0 13.28 5.999 13.28 13.399 0 7.398-5.88 13.398-13.28 13.398-7.399 0-13.338-6-13.338-13.398" fill="#656263"/></g><g id="g112" transform="translate(154.67 206.35)"><path id="path114" d="m0 0c0 1.525-1.246 2.771-2.77 2.771h-45.479c-26.196 0-47.5-20.89-47.5-47.085 0-26.198 21.166-47.086 47.361-47.086h45.618c1.524 0 2.77 1.246 2.77 2.769v88.631z" fill="#444141"/></g><g id="g116" transform="translate(75.812 272.68)"><path id="path118" d="m0 0c0.531 0 1.052 0.426 1.155 0.945 0 0 0.916 2.868 0.916 7.404 0 4.34-0.914 7.402-0.914 7.402-0.105 0.519-0.626 0.945-1.157 0.945h-20.646c-0.531 0-0.964 0.434-0.964 0.965v20.646c0 0.531-0.425 1.051-0.945 1.155 0 0-2.899 0.916-7.403 0.916-3.838 0-7.402-0.916-7.402-0.916-0.52-0.104-0.946-0.624-0.946-1.155v-20.646c0-0.531-0.433-0.965-0.965-0.965h-20.644c-0.531 0-1.052-0.426-1.156-0.945 0 0-0.914-2.526-0.914-7.402 0-4.964 0.915-7.404 0.915-7.404 0.103-0.519 0.624-0.945 1.155-0.945h20.644c0.532 0 0.965-0.435 0.965-0.964v-20.646c0-0.531 0.426-1.051 0.946-1.155 0 0 2.494-0.916 7.402-0.916 5.166 0 7.403 0.916 7.403 0.916 0.52 0.104 0.945 0.624 0.945 1.155v20.646c0 0.529 0.433 0.964 0.964 0.964h20.646z" fill="#656263"/></g><g id="g120" transform="translate(45.854 273.98)"><path id="path122" d="m0 0c-3.893 0-7.047 3.154-7.047 7.047 0 3.892 3.154 7.049 7.047 7.049 3.894 0 7.049-3.157 7.049-7.049 0-3.893-3.155-7.047-7.049-7.047" fill="#444141"/></g><g id="g124" transform="translate(59.17 241.79)"><path id="path126" d="m0 0c-0.587-0.203-1.068-0.878-1.068-1.5v-12.956c0-0.621 0.487-0.984 1.083-0.805 0 0 2.17 0.651 3.756 1.272 1.298 0.509 2.811 1.222 2.811 1.222 0.562 0.266 1.022 0.993 1.022 1.614v13.529c0 0.623-0.445 0.883-0.988 0.581 0 0-1.768-0.985-3.215-1.634-1.447-0.648-3.401-1.323-3.401-1.323m-38.151 6.358c-0.51 0.358-0.927 0.141-0.929-0.48l-0.036-14.425c-1e-3 -0.621 0.413-1.423 0.922-1.78 0 0 4.182-2.945 7.826-4.189 3.361-1.147 10.04-2.196 10.04-2.196 0.615-0.096 1.117 0.334 1.117 0.956v12.866c0 0.622-0.497 1.238-1.105 1.368 0 0-5.691 1.22-8.879 2.572-3.542 1.499-8.956 5.308-8.956 5.308m33.152-22.81c0.613 0.105 1.114 0.699 1.114 1.322v12.875c0 0.621-0.499 1.029-1.109 0.906 0 0-2.419-0.486-4.238-0.666-1.311-0.131-2.639-0.197-3.984-0.197-1.145 0-2.292 0.073-2.292 0.073-0.62 0.04-1.128-0.436-1.128-1.057v-12.77c0-0.621 0.508-1.154 1.129-1.184 0 0 1.154-0.056 2.291-0.056 1.172 0 2.344 0.045 3.511 0.133 1.954 0.148 4.706 0.621 4.706 0.621m28.897 17.726c0.378 0.495 0.687 1.409 0.687 2.03v18.702c0 0.622-0.211 0.667-0.469 0.1 0 0-1.12-2.462-2.086-4.105-0.968-1.641-2.553-3.786-2.553-3.786-0.37-0.5-0.671-1.418-0.671-2.04v-15.472c0-0.622 0.36-0.771 0.801-0.333 0 0 1.243 1.236 2.207 2.336 0.964 1.102 2.084 2.568 2.084 2.568m-13.721-11.035c0-0.621 0.434-0.864 0.965-0.539 0 0 1.43 0.877 2.584 1.697 0.852 0.606 1.618 1.211 1.618 1.211 0.487 0.386 0.886 1.21 0.886 1.832v14.789c0 0.623-0.36 0.771-0.8 0.332 0 0-0.861-0.858-1.743-1.632-1.117-0.979-2.601-2.08-2.601-2.08-0.499-0.371-0.909-1.183-0.909-1.805v-13.805z" fill="#0a93b2"/></g><g id="g128" transform="translate(86.96 249.76)"><path id="path130" d="m0 0c2.463 4.322 3.848 7.03 5.178 12.461 1.272 5.189 1.977 10.896 1.977 17.092 0.037 0.62 0.077 1.646 0.077 2.269v15.443c0 0.622-0.508 1.131-1.13 1.131h-5.459c-0.622 0-1.13-0.509-1.13-1.131l-2e-3 -47.154c0-0.621 0.22-0.672 0.489-0.111" fill="#0a93b2"/></g><g id="g132" transform="translate(99.791 67.263)"><path id="path134" d="m0 0c-1.214 0-2.198 0.984-2.198 2.198 0 1.215 0.984 2.2 2.198 2.2s2.199-0.985 2.199-2.2c0-1.214-0.985-2.198-2.199-2.198" fill="#0a93b2"/></g><g id="g136" transform="translate(83.352 75.44)"><path id="path138" d="m0 0c-3.307 0-5.988 2.682-5.988 5.99 0 3.307 2.681 5.989 5.988 5.989 3.308 0 5.99-2.682 5.99-5.989 0-3.308-2.682-5.99-5.99-5.99" fill="#656263"/></g><g id="g140" transform="translate(83.352 35.373)"><path id="path142" d="m0 0c-3.307 0-5.988 2.682-5.988 5.99 0 3.307 2.681 5.989 5.988 5.989 3.308 0 5.99-2.682 5.99-5.989 0-3.308-2.682-5.99-5.99-5.99" fill="#656263"/></g><g id="g144" transform="translate(99.791 58.865)"><path id="path146" d="m0 0c-1.214 0-2.198 0.984-2.198 2.199 0 1.214 0.984 2.198 2.198 2.198s2.199-0.984 2.199-2.198c0-1.215-0.985-2.199-2.199-2.199" fill="#0a93b2"/></g><g id="g148" transform="translate(99.791 50.469)"><path id="path150" d="m0 0c-1.214 0-2.198 0.984-2.198 2.199 0 1.213 0.984 2.197 2.198 2.197s2.199-0.984 2.199-2.197c0-1.215-0.985-2.199-2.199-2.199" fill="#0a93b2"/></g><g id="g152" transform="translate(91.9 63.064)"><path id="path154" d="m0 0c-1.214 0-2.198 0.984-2.198 2.198s0.984 2.198 2.198 2.198 2.199-0.984 2.199-2.198-0.985-2.198-2.199-2.198" fill="#0a93b2"/></g><g id="g156" transform="translate(91.9 54.667)"><path id="path158" d="m0 0c-1.214 0-2.198 0.984-2.198 2.198 0 1.215 0.984 2.199 2.198 2.199s2.199-0.984 2.199-2.199c0-1.214-0.985-2.198-2.199-2.198" fill="#0a93b2"/></g><g id="g160" transform="translate(84.009 58.865)"><path id="path162" d="m0 0c-1.214 0-2.198 0.984-2.198 2.199 0 1.214 0.984 2.198 2.198 2.198s2.199-0.984 2.199-2.198c0-1.215-0.985-2.199-2.199-2.199" fill="#0a93b2"/></g></g></g></g></svg>
