<?xml version="1.0" encoding="UTF-8"?>
<!-- Generator: Adobe Illustrator 19.0.0, SVG Export Plug-In . SVG Version: 6.00 Build 0)  -->
<svg id="Layer_1" baseProfile="tiny" version="1.1" viewBox="0 0 250.5 515.3" xml:space="preserve" xmlns="http://www.w3.org/2000/svg">

	<path d="m0.6 258.3v-246.2c0-6.6 5.4-12 12-12h198c6.6 0 12.7 6.8 12.7 13.4l21.3 244.8v-0.5l-21.3 244.8c0 6.6-6.1 13.4-12.7 13.4h-198c-6.6 0-12-5.4-12-12v-246.3" fill="#282828"/>
	<path d="m175.6 177.7c-40.9 0-74 35.8-74 80s33.1 80 74 80h67c3.9 0 7-3.2 7-7v-146c0-3.9-3.1-7-7-7h-67z" fill="#313130"/>
	<circle cx="175.6" cy="257.7" r="60" fill="#353535"/>
	<circle cx="175.6" cy="257.7" r="55" fill="#383838"/>
	<circle cx="175.6" cy="257.7" r="50" fill="#373737"/>
	<circle cx="175.6" cy="257.7" r="45" fill="#3B3B3B"/>
	<circle cx="175.6" cy="257.7" r="40" fill="#3E3E3E"/>
	<circle cx="175.6" cy="257.7" r="35" fill="#404040"/>
	<circle cx="175.6" cy="257.7" r="30" fill="#434343"/>
	<circle cx="175.6" cy="257.7" r="25" fill="#484848"/>
	
		
			<path d="m183.9 198.2v5.5h-1.8v-1.7h-19.5v-1.9h19.5v-1.9h1.8z" fill="#4E4E4E"/>
			
				<path d="m180.7 306.7c0.4 2.5-0.2 5.1-1.7 7.1-1.1 1.5-2.6 2.6-4.3 3.2-2 0.7-4.2 0.8-6.2 0.1-1.8-0.6-3.3-1.7-4.5-3.2-1.2-1.6-1.9-3.7-1.9-5.7 0-3.1 1.6-6.1 4.1-7.7 2.6-1.7 6-2.1 8.9-0.8 2.9 1.1 5.1 3.9 5.6 7zm-5.3-4.8h-1.1v1h-5.9v-1h-1.1v3.1h1.1v-1h7v-2.1zm-0.7 4.1h-6.6c-0.3 0.2-0.5 0.5-0.7 0.7v7c0.3 0.3 0.6 0.8 1 0.7h2.8c0.3-0.1 0.4-0.4 0.6-0.6v-6.8h2.5v6.4h-1v1h1.4l0.6-0.6v-7.1c-0.1-0.3-0.4-0.5-0.6-0.7z" fill="#4E4E4E"/>
			
			<path d="m180.3 207.5v1.8h-15.9v2h15.9v1.8h-15.2c-0.4 0-0.7 0-1.1-0.1-0.8-0.2-1.4-0.9-1.4-1.7v-2.2c0-1 0.9-1.8 1.9-1.7 5.2 0.1 10.5 0.1 15.8 0.1z" fill="#4E4E4E"/>
			
				<path d="m180.3 217.8v3.8c0 0.9-0.7 1.8-1.6 1.9h-5.8c-0.8 0-1.7-0.6-1.9-1.4l-8.4 1.8v-1.7c2.8-0.6 5.5-1.3 8.3-1.9v-0.6h-8.3v-1.7c5.9-0.2 11.8-0.2 17.7-0.2zm-1.8 1.8h-5.8v2h5.8v-2z" fill="#4E4E4E"/>
			
			
				<path d="m180.3 228.4v4c0 0.8-0.7 1.6-1.5 1.7h-5.6c-0.5 0-0.9-0.4-1.3-0.7-0.3 0.4-0.7 0.7-1.2 0.7-0.8 0.1-1.5 0-2.3 0h-3.5c-0.5 0-1 0.1-1.5-0.2-0.6-0.3-0.9-0.9-0.9-1.5v-4h17.8zm-1.8 1.8h-5.8v2h5.8v-2zm-7.6 0h-6.6v2h6.6v-2z" fill="#4E4E4E"/>
			
			
				<path d="m180.2 239.9c0.2 0.5 0.1 1.1 0.1 1.7s0.1 1.3-0.2 1.8c-0.3 0.6-0.9 1-1.5 1h-13.6c-0.4 0-0.8 0-1.2-0.1-0.6-0.3-1.1-0.8-1.2-1.5v-1.8c0-0.4 0-0.7 0.1-1 0.3-0.7 1-1.3 1.7-1.3h13.6c0.4 0 0.7 0 1.1 0.1 0.5 0.2 0.9 0.6 1.1 1.1zm-1.7 0.7h-14.1v1.9h14.1v-1.9z" fill="#4E4E4E"/>
			
			<path d="m170.8 307.1v6.3h-2.4v-6.3h2.4z" fill="#4E4E4E"/>
		
		
			<path d="m181.9 249.6c0.9 0 1.8 0.7 1.9 1.6v2.2c0.1 1-0.9 2-1.9 2h-3.1v-1.9h3.2v-2.1h-17.6v2.2h8.5v-0.9h1.7v2.8h-12v-3.9c0-0.7 0.5-1.5 1.2-1.8 0.4-0.1 0.8-0.1 1.2-0.1 5.6-0.1 11.3-0.1 16.9-0.1z" fill="#4E4E4E"/>
			
				<path d="m180.3 260.2v3.7c0 0.8-0.4 1.5-1.1 1.8-0.3 0.1-0.6 0.1-0.8 0.1h-5.6c-0.8 0-1.6-0.6-1.7-1.4l-8.4 1.8v-1.7c2.8-0.6 5.5-1.3 8.3-1.9v-0.6h-8.3v-1.7c5.8-0.1 11.7-0.1 17.6-0.1zm-1.7 1.8h-5.7v2h5.7v-2z" fill="#4E4E4E"/>
			
			
				<path d="m178.6 270.6c0.8 0 1.6 0.7 1.6 1.5v2.4c0 0.4-0.1 0.8-0.4 1.2s-0.8 0.6-1.3 0.6h-16v-1.7h8.4v-2.1h-8.4v-1.7c5.5-0.2 10.8-0.2 16.1-0.2zm-0.1 1.8h-5.7v2h5.7v-2z" fill="#4E4E4E"/>
			
			<path d="m178.7 280.6c0.8 0 1.5 0.7 1.5 1.5v3h-1.6v-2.6h-5.9v2.2h-1.7v-2.2h-8.4v-1.8c5.4-0.1 10.8-0.1 16.1-0.1z" fill="#4E4E4E"/>
			<path d="m180.3 289.4v1.8h-4.9c-0.5 0.3-1 0.7-1.5 1 0.5 0.3 1 0.7 1.5 1h4.9v1.9h-3.5c-0.5 0-1.1 0.1-1.6-0.1-1.1-0.4-2.1-1-3.1-1.6-1.1 0.7-2.3 1.5-3.5 1.8h-5.9v-1.7h5.9c0.6-0.3 1.1-0.7 1.7-1.1-0.5-0.4-1.1-0.7-1.6-1.1h-6v-1.8h5.5c0.5 0 1 0.2 1.4 0.4 0.9 0.4 1.7 0.9 2.5 1.5 1.1-0.7 2.2-1.5 3.5-1.9 1.5-0.1 3.1-0.1 4.7-0.1z" fill="#4E4E4E"/>
		
	
	<polygon points="223.3 337.8 223.3 502.5 237.7 337.8" fill="#1D1D1D"/>
	<path d="m221 509.7v-172h2.4v164.7c-0.1 2.6-1 5.2-2.4 7.3" fill="#202020"/>
	<path d="m219.8 511.3v-173.5h1.2v172l-1.2 1.5" fill="#282828"/>
	<path d="m219.8 511.3v-173.5h-1.2v174.7l1.2-1.2" fill="#303030"/>
	<path d="m217.4 513.5v-175.7h1.2v174.7c-0.4 0.4-0.8 0.7-1.2 1" fill="#323232"/>
	<path d="m216.3 514.3v-176.5h1.2v175.7c-0.4 0.3-0.8 0.5-1.2 0.8" fill="#373737"/>
	<path d="m215.1 514.9v-177.1h1.2v176.5l-1.2 0.6" fill="#393939"/>
	<path d="m213.9 515.4v-177.6h1.2v177.1c-0.4 0.2-0.8 0.3-1.2 0.5" fill="#343434"/>
	<path d="m213.9 515.4v-177.6h-1.2v177.9l1.2-0.3" fill="#2F2F2F"/>
	<path d="m212.7 515.7v-177.9h-1.2v178.1c0.4-0.1 0.8-0.1 1.2-0.2" fill="#2C2C2C"/>
	<polygon points="223.3 178.2 223.3 13.5 237.7 178.2" fill="#1D1D1D"/>
	<path d="m221 6.3v172h2.4v-164.8c-0.1-2.5-1-5.1-2.4-7.2" fill="#202020"/>
	<path d="m219.8 4.7v173.5h1.2v-172l-1.2-1.5" fill="#282828"/>
	<path d="m219.8 4.7v173.5h-1.2v-174.7l1.2 1.2" fill="#303030"/>
	<path d="m217.4 2.5v175.7h1.2v-174.7c-0.4-0.4-0.8-0.7-1.2-1" fill="#323232"/>
	<path d="m216.3 1.7v176.5h1.2v-175.7c-0.4-0.3-0.8-0.5-1.2-0.8" fill="#373737"/>
	<path d="m215.1 1.1v177.1h1.2v-176.5l-1.2-0.6" fill="#393939"/>
	<path d="m213.9 0.6v177.6h1.2v-177.1c-0.4-0.2-0.8-0.3-1.2-0.5" fill="#343434"/>
	<path d="m213.9 0.6v177.6h-1.2v-177.9l1.2 0.3" fill="#2F2F2F"/>
	<path d="m212.7 0.3v177.9h-1.2v-178.1c0.4 0.1 0.8 0.1 1.2 0.2" fill="#2C2C2C"/>
	<path d="m122.1 42.1" fill="none" stroke="#F9F32D" stroke-miterlimit="10"/>
	
		<path d="m34.1 72.5c0-25.4 20.7-46.1 46.2-46.1s46.1 20.7 46.1 46.1-20.7 46.1-46.1 46.1-46.2-20.7-46.2-46.1zm90.3 0c0-24.3-19.8-44.1-44.1-44.1s-44.2 19.8-44.2 44.1 19.8 44.1 44.2 44.1c24.3 0 44.1-19.8 44.1-44.1z" fill="#1A1A1A"/>
	
	<circle cx="80.3" cy="72.5" r="45.2" fill="#404040"/>
	
		<path d="m94.6 112.3v-25.4h25.5c1.1 0 2-0.9 2-2v-24.8c0-1.1-0.9-2-2-2h-25.5v-25.4c0-1.1-0.9-2-2-2h-24.7c-1.1 0-2 0.9-2 2v25.5h-25.5c-1.1 0-2 0.9-2 2v24.7c0 1.1 0.9 2 2 2h25.5v25.5c0 1.1 0.9 2 2 2h24.7c1.1-0.1 2-1 2-2.1" fill="#4C4C4C"/>
		<circle cx="80.2" cy="72.5" r="10.5" fill="#595959"/>
	
	
		<path d="m100.4 257.7c0-44.7 33.6-81 75-81h67c4.4 0 8 3.6 8 8v146.1c0 4.4-3.6 8-8 8h-67c-41.4 0-75-36.4-75-81.1zm148-73c0-3.3-2.7-6-6-6h-67c-40.3 0-73 35.5-73 79 0 43.6 32.7 79 73 79h67c3.3 0 6-2.7 6-6v-146z" fill="#1A1A1A"/>
	
	<path d="m82.1 257.7c0 54.2 44 98.2 98.2 98.2 6.6 0 12.1 4.7 12.1 10.5v97c0 5.8-5.4 10.5-12.1 10.5h-96.4c-6.7 5.4-15.3 8.7-24.7 8.7-21.4 0-38.7-16.9-38.7-37.8v-187 0.5-155.1c0.3-0.6 0.4-3.7 4.1-4.4 4.1-0.9 5.4-4.3 12.2 2.8 9.5 14.1 25.7 23.4 44 23.2 28.6-0.4 51.8-24.2 51.5-52.8-0.1-9.8-2.9-19-7.8-26.8-0.8-1.3 0.2-3 1.7-3h53.9c6.6 0 12.1 4.7 12.1 10.5v97c0 5.8-5.4 10.5-12.1 10.5-54.2 0-98.2 44-98.2 98.2" fill="#434342"/>
	<rect x="93.9" y="443.3" width="19.9" height="2.1" fill="#ECF332"/>
	<rect x="93.9" y="386.3" width="19.9" height="2.1" fill="#ECF332"/>
	<rect x="93.9" y="380.3" width="19.9" height="2.1" fill="#ECF332"/>
	<circle cx="166.6" cy="405.4" r="3.3" fill="#FD5A17"/>
	<circle cx="166.6" cy="414.4" r="3.3" fill="#FD5A17"/>
	<circle cx="166.6" cy="423.4" r="3.3" fill="#FD5A17"/>
	<circle cx="153.6" cy="405.4" r="2.1" fill="#FD5A17"/>
	<circle cx="153.6" cy="414.4" r="2.1" fill="#FD5A17"/>
	<circle cx="153.6" cy="423.4" r="2.1" fill="#FD5A17"/>
	<circle cx="142.6" cy="405.4" r="1" fill="#FD5A17"/>
	<circle cx="142.6" cy="414.4" r="1" fill="#FD5A17"/>
	<circle cx="142.6" cy="423.4" r="1" fill="#FD5A17"/>
	
		
			<path d="m35 384.3c0-13 10.6-23.6 23.7-23.6s23.7 10.6 23.7 23.6-10.6 23.7-23.7 23.7-23.7-10.7-23.7-23.7zm45.3 0c0-11.9-9.7-21.6-21.7-21.6s-21.6 9.7-21.6 21.6 9.7 21.7 21.7 21.7 21.6-9.8 21.6-21.7z" fill="#1A1A1A"/>
		
		<circle cx="58.6" cy="384.3" r="22.6" fill="#2C2C2E"/>
		
			<path d="m38.4 384.3c0-11.2 9.1-20.3 20.3-20.3s20.3 9.1 20.3 20.3-9.1 20.3-20.3 20.3-20.3-9.1-20.3-20.3zm38.5 0c0-10.1-8.2-18.3-18.3-18.3s-18.3 8.2-18.3 18.3 8.2 18.3 18.3 18.3 18.3-8.2 18.3-18.3z" fill="#1A1A1A"/>
		
		<circle cx="58.6" cy="384.3" r="19.3" fill="#41413B"/>
	
	
		
			<path d="m35 444.4c0-13 10.6-23.6 23.7-23.6s23.7 10.6 23.7 23.6-10.8 23.6-23.8 23.6-23.6-10.6-23.6-23.6zm45.3 0c0-11.9-9.7-21.6-21.7-21.6s-21.6 9.6-21.6 21.6c0 11.9 9.7 21.7 21.7 21.7s21.6-9.8 21.6-21.7z" fill="#1A1A1A"/>
		
		<circle cx="58.6" cy="444.4" r="22.6" fill="#2C2C2E"/>
		
			<path d="m38.4 444.4c0-11.2 9.1-20.3 20.3-20.3s20.3 9.1 20.3 20.3-9.1 20.3-20.3 20.3-20.3-9.2-20.3-20.3zm38.5 0c0-10.1-8.2-18.3-18.3-18.3s-18.3 8.2-18.3 18.3 8.2 18.3 18.3 18.3 18.3-8.3 18.3-18.3z" fill="#1A1A1A"/>
		
		<circle cx="58.6" cy="444.4" r="19.3" fill="#41413B"/>
	
	
		
			<path d="M44.5,299.3V275c0-6.5,5.3-11.8,11.8-11.8S68,268.5,68,275v24.3c0,6.5-5.3,11.8-11.8,11.8     S44.5,305.8,44.5,299.3z M66,275c0-5.4-4.4-9.8-9.8-9.8s-9.8,4.4-9.8,9.8v24.3c0,5.4,4.4,9.8,9.8,9.8s9.8-4.4,9.8-9.8V275z" fill="#1A1A1A"/>
		
		<path d="m45.5 299.3v-24.3c0-5.9 4.8-10.8 10.7-10.8s10.7 4.8 10.7 10.8v24.3c0 5.9-4.8 10.8-10.7 10.8-5.9-0.1-10.7-4.9-10.7-10.8z" fill="#2C2C2E"/>
		
			<path d="m47.6 299.2v-24.1c0-4.8 3.9-8.6 8.6-8.6s8.6 3.9 8.6 8.6v24.1c0 4.8-3.9 8.6-8.6 8.6s-8.6-3.8-8.6-8.6zm15.3-24.1c0-3.7-3-6.6-6.6-6.6s-6.6 3-6.6 6.6v24.1c0 3.7 3 6.6 6.6 6.6s6.6-3 6.6-6.6v-24.1z" fill="#1A1A1A"/>
		
		<path d="m48.6 299.2v-24.1c0-4.2 3.4-7.6 7.6-7.6s7.6 3.4 7.6 7.6v24.1c0 4.2-3.4 7.6-7.6 7.6s-7.6-3.4-7.6-7.6z" fill="#33322D"/>
	
	
		
			<path d="m44.5 240.5v-24.3c0-6.5 5.3-11.8 11.8-11.8s11.7 5.3 11.7 11.8v24.3c0 6.5-5.3 11.8-11.8 11.8s-11.7-5.3-11.7-11.8zm21.5-24.3c0-5.4-4.4-9.8-9.8-9.8s-9.8 4.4-9.8 9.8v24.3c0 5.4 4.4 9.8 9.8 9.8s9.8-4.4 9.8-9.8v-24.3z" fill="#1A1A1A"/>
		
		<path d="m45.5 240.5v-24.3c0-5.9 4.8-10.7 10.7-10.7s10.7 4.8 10.7 10.7v24.3c0 5.9-4.8 10.7-10.7 10.7-5.9 0.1-10.7-4.8-10.7-10.7z" fill="#2C2C2E"/>
		
			<path d="m47.6 240.4v-24.1c0-4.8 3.9-8.6 8.6-8.6s8.6 3.9 8.6 8.6v24.1c0 4.8-3.9 8.6-8.6 8.6s-8.6-3.8-8.6-8.6zm15.3-24.1c0-3.7-3-6.6-6.6-6.6s-6.6 3-6.6 6.6v24.1c0 3.7 3 6.6 6.6 6.6s6.6-3 6.6-6.6v-24.1z" fill="#1A1A1A"/>
		
		<path d="m48.6 240.4v-24.1c0-4.2 3.4-7.6 7.6-7.6s7.6 3.4 7.6 7.6v24.1c0 4.2-3.4 7.6-7.6 7.6-4.2 0.1-7.6-3.4-7.6-7.6z" fill="#33322D"/>
	
	<g fill="#ECF332">
		<path d="m36.7 217.3h2.7v-1.6h-4.4v1.1c0 0.5 0 0.8-0.1 1 0 0.2-0.1 0.4-0.3 0.5-0.1 0.2-0.3 0.3-0.4 0.3s-0.4 0.1-0.8 0.1h-4.3c-0.6 0-1-0.2-1.2-0.5s-0.4-1-0.4-1.8 0.1-1.4 0.4-1.8c0.2-0.4 0.6-0.5 1.2-0.5h2.8v1.6h-3.3v1.6h5.4v-1.2c0-0.5 0-0.8 0.1-1 0-0.2 0.1-0.4 0.2-0.6s0.3-0.3 0.4-0.3c0.2 0 0.4-0.1 0.8-0.1h3.3c0.6 0 1 0.2 1.2 0.5s0.4 1 0.4 1.8c0 0.5 0 0.8-0.1 1.1s-0.2 0.5-0.3 0.7-0.3 0.3-0.4 0.4-0.4 0.1-0.7 0.1h-2.1v-1.4z"/>
		<path d="m29.4 224.5h-0.4c-0.5 0-0.9-0.2-1.1-0.5s-0.3-0.9-0.3-1.7 0.1-1.4 0.3-1.7 0.6-0.5 1.2-0.5h6.1c0.5 0 0.9 0.2 1.1 0.5s0.3 0.9 0.3 1.7-0.1 1.4-0.3 1.7-0.6 0.5-1.2 0.5h-3.1v-2.9h-3.3v1.5h2.1v1.5h-1.4zm3.5-2.9v1.5h2.7v-1.5h-2.7z"/>
		<path d="m40.3 227.3h-12.6v-1.5h12.7v1.5z"/>
		<path d="m29.4 233.1h-0.4c-0.5 0-0.9-0.2-1.1-0.5s-0.3-0.9-0.3-1.7 0.1-1.4 0.3-1.7 0.6-0.5 1.2-0.5h6.1c0.5 0 0.9 0.2 1.1 0.5s0.3 0.9 0.3 1.7-0.1 1.4-0.3 1.7-0.6 0.5-1.2 0.5h-3.1v-2.9h-3.3v1.5h2.1v1.5h-1.4zm3.5-2.9v1.5h2.7v-1.5h-2.7z"/>
		<path d="m34 237.3h1.6v-1.5h-7v1.5h2.1v1.5h-1.7c-0.5 0-0.9-0.2-1.1-0.5s-0.3-0.9-0.3-1.7 0.1-1.4 0.3-1.7 0.6-0.5 1.2-0.5h6.1c0.3 0 0.6 0 0.7 0.1 0.2 0.1 0.3 0.2 0.4 0.4 0.2 0.4 0.3 1 0.3 1.7 0 0.8-0.1 1.4-0.3 1.7s-0.6 0.5-1.1 0.5h-1.2v-1.5z"/>
		<path d="m35.5 241.8h-6.8v1.4h-1v-1.1c0-0.7 0.1-1.2 0.4-1.4 0.2-0.3 0.7-0.4 1.3-0.4h6.1v-1.2h1v1.2h2.4v1.5h-2.4v1.4h-1v-1.4z"/>
	</g>
	<g fill="#ECF332">
		<path d="m40.3 280.9v0.9c0 0.2 0 0.5-0.1 0.6s-0.1 0.3-0.1 0.4-0.1 0.2-0.2 0.3-0.2 0.2-0.2 0.3c-0.1 0.1-0.2 0.1-0.3 0.2-0.1 0-0.3 0.1-0.4 0.1h-0.6-2.7c-0.3 0-0.6-0.1-0.7-0.2-0.2-0.1-0.3-0.4-0.4-0.8-0.1 0.4-0.3 0.6-0.4 0.8-0.2 0.1-0.4 0.2-0.7 0.2h-5.7v-1.6h6.2v-1.6h-6.3v-1.6h12.7v2zm-5.3-0.2v1.6h4.4v-1.6h-4.4z"/>
		<path d="m28.1 288.1c-0.3-0.5-0.5-1-0.5-1.6 0-0.9 0.4-1.3 1.1-1.3h7.8v1.5h-7.9v1.5h7.9v1.5h-8.8v-1.5h0.4z"/>
		<path d="m36.1 292.4c0.3 0.5 0.5 1 0.5 1.6 0 0.9-0.4 1.3-1.1 1.3h-7.8v-1.5h7.9v-1.5h-7.9v-1.3h8.8v1.5h-0.4z"/>
	</g>
	
		
			<path d="m167.8 395.8h-24.3c-6.5 0-11.8-5.3-11.8-11.8s5.3-11.8 11.8-11.8h24.3c6.5 0 11.8 5.3 11.8 11.8s-5.3 11.8-11.8 11.8zm-24.3-21.5c-5.4 0-9.8 4.4-9.8 9.8s4.4 9.8 9.8 9.8h24.3c5.4 0 9.8-4.4 9.8-9.8s-4.4-9.8-9.8-9.8h-24.3z" fill="#1A1A1A"/>
		
		<path d="m167.8 394.8h-24.3c-5.9 0-10.7-4.8-10.7-10.8 0-5.9 4.8-10.7 10.7-10.7h24.3c5.9 0 10.7 4.8 10.7 10.7 0.1 6-4.8 10.8-10.7 10.8z" fill="#2C2C2E"/>
		
			<path d="m167.7 392.7h-24.1c-4.8 0-8.6-3.9-8.6-8.6s3.9-8.6 8.6-8.6h24.1c4.8 0 8.6 3.9 8.6 8.6s-3.8 8.6-8.6 8.6zm-24.1-15.3c-3.7 0-6.6 3-6.6 6.6s3 6.6 6.6 6.6h24.1c3.7 0 6.6-3 6.6-6.6s-3-6.6-6.6-6.6h-24.1z" fill="#1A1A1A"/>
		
		<path d="m167.7 391.7h-24.1c-4.2 0-7.6-3.4-7.6-7.6s3.4-7.6 7.6-7.6h24.1c4.2 0 7.6 3.4 7.6 7.6 0.1 4.2-3.4 7.6-7.6 7.6z" fill="#30302B"/>
		
			<path d="m136.9 384.1c0-3.7 3-6.8 6.8-6.8s6.8 3 6.8 6.8-3 6.8-6.8 6.8-6.8-3.1-6.8-6.8zm11.5 0c0-2.6-2.1-4.8-4.8-4.8s-4.8 2.1-4.8 4.8 2.1 4.8 4.8 4.8 4.8-2.2 4.8-4.8z" fill="#242420"/>
		
		<circle cx="143.7" cy="384.1" r="5.8" fill="#444440"/>
	
	
		
			<path d="m165.8 456.3h-24.3c-6.5 0-11.8-5.3-11.8-11.8s5.3-11.8 11.8-11.8h24.3c6.5 0 11.8 5.3 11.8 11.8s-5.3 11.8-11.8 11.8zm-24.3-21.5c-5.4 0-9.8 4.4-9.8 9.8s4.4 9.8 9.8 9.8h24.3c5.4 0 9.8-4.4 9.8-9.8s-4.4-9.8-9.8-9.8h-24.3z" fill="#1A1A1A"/>
		
		<path d="m165.8 455.3h-24.3c-5.9 0-10.7-4.8-10.7-10.7s4.8-10.8 10.7-10.8h24.3c5.9 0 10.7 4.8 10.7 10.8 0.1 5.8-4.8 10.7-10.7 10.7z" fill="#2C2C2E"/>
		
			<path d="m165.7 453.2h-24.1c-4.8 0-8.6-3.9-8.6-8.6s3.9-8.6 8.6-8.6h24.1c4.8 0 8.6 3.9 8.6 8.6s-3.8 8.6-8.6 8.6zm-24.1-15.3c-3.7 0-6.6 3-6.6 6.6s3 6.6 6.6 6.6h24.1c3.7 0 6.6-3 6.6-6.6s-3-6.6-6.6-6.6h-24.1z" fill="#1A1A1A"/>
		
		<path d="m165.7 452.2h-24.1c-4.2 0-7.6-3.4-7.6-7.6s3.4-7.6 7.6-7.6h24.1c4.2 0 7.6 3.4 7.6 7.6 0.1 4.1-3.4 7.6-7.6 7.6z" fill="#30302B"/>
		
			<path d="m146.9 444.5c0-3.7 3-6.8 6.8-6.8s6.8 3 6.8 6.8-3 6.8-6.8 6.8-6.8-3.1-6.8-6.8zm11.5 0c0-2.6-2.1-4.8-4.8-4.8s-4.8 2.1-4.8 4.8 2.1 4.8 4.8 4.8 4.8-2.2 4.8-4.8z" fill="#242420"/>
		
		<circle cx="153.7" cy="444.5" r="5.8" fill="#444440"/>
	
	
		
			<path d="m179.8 54v-2.9h-24.5v-2.9h24.5v-2.9h2.1v8.7h-2.1z" fill="#FD5A17"/>
		
		<g fill="#FD5A17">
			<path d="m158.1 62.8h-0.6c-0.9 0-1.5-0.3-1.9-1-0.4-0.6-0.5-1.8-0.5-3.4 0-1.5 0.2-2.6 0.6-3.3 0.4-0.6 1-1 1.8-1h17.1v2.9h-18v2.9h18v2.9h-16.5z"/>
			<path d="m174.6 68.7v1.7c0 0.5 0 0.8-0.1 1.2 0 0.3-0.1 0.6-0.2 0.8l-0.3 0.6c-0.1 0.2-0.2 0.4-0.4 0.6-0.1 0.2-0.3 0.3-0.5 0.3-0.2 0.1-0.4 0.1-0.7 0.2h-1-4.3c-0.5 0-0.9-0.2-1.1-0.4s-0.4-0.7-0.6-1.4c-0.2 0.7-0.4 1.2-0.6 1.4-0.2 0.3-0.6 0.4-1.1 0.4h-8.8v-2.9h9.7v-2.9h-9.7v-2.9h19.4v3.3zm-8.1-0.4v2.9h6.7v-2.9h-6.7z"/>
			<path d="m174.6 80.1v1.7c0 0.5 0 0.8-0.1 1.2 0 0.3-0.1 0.6-0.2 0.8l-0.3 0.6c-0.1 0.2-0.2 0.4-0.4 0.6-0.1 0.2-0.3 0.3-0.5 0.3-0.2 0.1-0.4 0.1-0.7 0.2h-1-4.3c-0.5 0-0.9-0.2-1.1-0.4s-0.4-0.7-0.6-1.4c-0.2 0.7-0.4 1.2-0.6 1.4-0.2 0.3-0.6 0.4-1.1 0.4h-5.8-1c-0.3 0-0.5-0.1-0.7-0.2s-0.3-0.2-0.5-0.4-0.2-0.4-0.4-0.7c-0.1-0.2-0.2-0.4-0.2-0.6-0.1-0.2-0.1-0.5-0.1-0.8s0-0.7-0.1-1.1v-1.6-3.2h19.4v3.2zm-8.1-0.4v2.9h6.7v-2.9h-6.7zm-9.7 0v2.9h8.2v-2.9h-8.2z"/>
			<path d="m158.1 96.7h-0.6c-0.9 0-1.6-0.3-1.9-0.9s-0.5-1.7-0.5-3.4c0-1.5 0.2-2.6 0.6-3.3 0.4-0.6 1-1 1.8-1h14.3c0.7 0 1.1 0 1.5 0.1 0.3 0.1 0.6 0.3 0.8 0.6 0.3 0.4 0.5 0.8 0.6 1.4s0.2 1.3 0.2 2.3c0 1.5-0.2 2.6-0.6 3.3s-1 1-1.8 1h-0.6-13.8zm15.1-5.8h-16.5v2.9h16.5v-2.9z"/>
		</g>
		
			<path d="m181.8 102.4v1.7c0 0.5-0.1 0.8-0.1 1.2-0.1 0.3-0.1 0.6-0.2 0.8s-0.2 0.4-0.4 0.6-0.3 0.4-0.5 0.6-0.4 0.3-0.6 0.3c-0.3 0.1-0.6 0.1-0.9 0.2h-1.3-5.1-1.4c-0.4 0-0.7-0.1-0.9-0.2-0.3-0.1-0.5-0.2-0.6-0.4-0.2-0.2-0.3-0.4-0.5-0.7l-0.3-0.6c-0.1-0.2-0.1-0.5-0.2-0.8 0-0.3-0.1-0.7-0.1-1.1v-1.6-0.4h-13.3v-2.9h26.6v3.3zm-11.2-0.4v2.9h9.1v-2.9h-9.1z" fill="#ECF332"/>
		
		<g fill="#ECF332">
			<path d="m155.3 115.9h10.1v-2.9h-10.1v-2.9h17.8c0.9 0 1.6 0.3 2 1 0.4 0.6 0.6 1.8 0.6 3.5 0 1.6-0.2 2.7-0.6 3.3-0.4 0.7-1 1-1.9 1h-17.8v-3zm18.7 0v-2.9h-7v2.9h7z"/>
			<path d="m175.5 124.8v1.7c0 0.5 0 0.9-0.1 1.2s-0.1 0.6-0.2 0.8l-0.3 0.6c-0.1 0.2-0.2 0.4-0.4 0.6-0.1 0.2-0.3 0.3-0.5 0.3-0.2 0.1-0.4 0.1-0.7 0.2h-1-13.9-1c-0.3 0-0.5-0.1-0.7-0.2s-0.4-0.2-0.5-0.4-0.3-0.4-0.4-0.7l-0.3-0.6c-0.1-0.2-0.1-0.5-0.2-0.8 0-0.3 0-0.7-0.1-1.1v-1.6-3.3h20.1v3.3zm-18.6-0.3v2.9h17v-2.9h-17z"/>
		</g>
	

</svg>
