<?xml version="1.0" encoding="UTF-8"?>
<!-- Generator: Adobe Illustrator 16.0.0, SVG Export Plug-In . SVG Version: 6.00 Build 0)  -->
<svg id="svg2" width="334.5" height="975.5" enable-background="new 0 0 975.504 334.504" version="1.0" viewBox="0 0 334.5 975.5" xml:space="preserve" xmlns="http://www.w3.org/2000/svg" xmlns:cc="http://creativecommons.org/ns#" xmlns:dc="http://purl.org/dc/elements/1.1/" xmlns:rdf="http://www.w3.org/1999/02/22-rdf-syntax-ns#"><metadata id="metadata124"><rdf:RDF><cc:Work rdf:about=""><dc:format>image/svg+xml</dc:format><dc:type rdf:resource="http://purl.org/dc/dcmitype/StillImage"/><dc:title/></cc:Work></rdf:RDF></metadata><g id="g3101" transform="matrix(0 1 -1 0 334.5 0)"><g id="Calque_2"><path id="path5" d="m971.25 313.24c0 9.394-7.614 17.008-17.008 17.008h-932.98c-9.393 0-17.008-7.614-17.008-17.008v-291.98c0-9.393 7.615-17.008 17.008-17.008h932.98c9.394 0 17.008 7.615 17.008 17.008v291.98z" stroke="#2e2e2f" stroke-miterlimit="10" stroke-width="8.5039"/></g><g id="Calque_4"><path id="path9" d="m916.9 28.252h-344.65v14c0 27.062-21.938 49-49 49s-49-21.938-49-49v-14h-415.65c-15.656 0-28.347 12.691-28.347 28.347v218.31c0 15.655 12.691 28.347 28.347 28.347h858.31c15.655 0 28.347-12.691 28.347-28.347v-218.31c-1e-3 -15.656-12.692-28.347-28.348-28.347z" stroke="#2e2e2f" stroke-miterlimit="10" stroke-width="2.8346"/></g><g id="Calque_5"><path id="path12" d="m839.25 112.53c-29.012 0-52.943 21.68-56.521 49.72h-13.957c-3.578-28.04-27.51-49.72-56.521-49.72s-52.943 21.68-56.521 49.72h-11.957c-3.578-28.04-27.51-49.72-56.521-49.72s-52.943 21.68-56.521 49.72h-13.957c-3.578-28.04-27.51-49.72-56.521-49.72-29.012 0-52.944 21.68-56.521 49.72h-63.732c-3.588-50.304-45.529-90-96.747-90-53.572 0-97 43.428-97 97 0 53.571 43.428 97 97 97 50.877 0 92.601-39.172 96.669-89h63.865c3.77 27.827 27.605 49.28 56.465 49.28s52.695-21.453 56.465-49.28h14.07c3.77 27.827 27.604 49.28 56.465 49.28s52.695-21.453 56.465-49.28h12.07c3.77 27.827 27.604 49.28 56.465 49.28s52.695-21.453 56.465-49.28h14.07c3.77 27.827 27.604 49.28 56.465 49.28 31.48 0 57-25.52 57-57s-25.522-57-57.002-57z" fill="#fff"/></g><g id="Calque_6" stroke-miterlimit="10" stroke-width="5.6693"><circle id="circle15" cx="242.42" cy="168.25" r="86" d="m 328.418,168.252 c 0,47.49649 -38.50351,86 -86,86 -47.49649,0 -86,-38.50351 -86,-86 0,-47.49649 38.50351,-86.000001 86,-86.000001 47.49649,0 86,38.503511 86,86.000001 z" stroke="#2e2e2f"/><circle id="circle17" cx="460.02" cy="170.02" r="46" d="m 506.01599,170.01601 c 0,25.40509 -20.5949,46 -46,46 -25.4051,0 -46,-20.59491 -46,-46 0,-25.4051 20.5949,-46 46,-46 25.4051,0 46,20.5949 46,46 z" stroke="#222223"/><circle id="circle19" cx="460.02" cy="170.02" r="35.433" d="m 495.44899,170.01601 c 0,19.5691 -15.86389,35.433 -35.433,35.433 -19.5691,0 -35.433,-15.8639 -35.433,-35.433 0,-19.56911 15.8639,-35.433 35.433,-35.433 19.56911,0 35.433,15.86389 35.433,35.433 z" stroke="#414042"/><circle id="circle21" cx="587.02" cy="170.02" r="46" d="m 633.01599,170.01601 c 0,25.40509 -20.5949,46 -46,46 -25.4051,0 -46,-20.59491 -46,-46 0,-25.4051 20.5949,-46 46,-46 25.4051,0 46,20.5949 46,46 z" stroke="#222223"/><circle id="circle23" cx="587.02" cy="170.02" r="35.433" d="m 622.44899,170.01601 c 0,19.5691 -15.86389,35.433 -35.433,35.433 -19.5691,0 -35.433,-15.8639 -35.433,-35.433 0,-19.56911 15.8639,-35.433 35.433,-35.433 19.56911,0 35.433,15.86389 35.433,35.433 z" stroke="#414042"/><circle id="circle25" cx="712.02" cy="170.02" r="46" d="m 758.01599,170.01601 c 0,25.40509 -20.5949,46 -46,46 -25.4051,0 -46,-20.59491 -46,-46 0,-25.4051 20.5949,-46 46,-46 25.4051,0 46,20.5949 46,46 z" stroke="#222223"/><circle id="circle27" cx="712.02" cy="170.02" r="35.433" d="m 747.44899,170.01601 c 0,19.5691 -15.86389,35.433 -35.433,35.433 -19.5691,0 -35.433,-15.8639 -35.433,-35.433 0,-19.56911 15.8639,-35.433 35.433,-35.433 19.56911,0 35.433,15.86389 35.433,35.433 z" stroke="#414042"/><circle id="circle29" cx="839.33" cy="170.02" r="46" d="m 885.33002,170.01601 c 0,25.40509 -20.5949,46 -46,46 -25.4051,0 -46,-20.59491 -46,-46 0,-25.4051 20.5949,-46 46,-46 25.4051,0 46,20.5949 46,46 z" stroke="#222223"/><circle id="circle31" cx="839.33" cy="170.02" r="35.433" d="m 874.76399,170.01601 c 0,19.5691 -15.86389,35.433 -35.433,35.433 -19.5691,0 -35.433,-15.8639 -35.433,-35.433 0,-19.56911 15.8639,-35.433 35.433,-35.433 19.56911,0 35.433,15.86389 35.433,35.433 z" stroke="#414042"/></g><g id="Calque_7" stroke-miterlimit="10"><circle id="circle34" cx="242.42" cy="168.75" r="54" d="m 296.418,168.752 c 0,29.82338 -24.17662,54 -54,54 -29.82338,0 -54,-24.17662 -54,-54 0,-29.82338 24.17662,-54 54,-54 29.82338,0 54,24.17662 54,54 z" stroke="#2e2e2f" stroke-width="14.173"/><circle id="circle36" cx="242.42" cy="168.5" r="26.5" d="m 268.918,168.502 c 0,14.63554 -11.86445,26.5 -26.5,26.5 -14.63555,0 -26.5,-11.86446 -26.5,-26.5 0,-14.63555 11.86445,-26.5 26.5,-26.5 14.63555,0 26.5,11.86445 26.5,26.5 z" fill="#6d6e71" stroke="#414042" stroke-width="2.8346"/></g><g id="Calque_8"><g id="g39" fill="none" stroke="#0072bc" stroke-miterlimit="10" stroke-width="1.4173"><g id="g41"><polygon id="polygon43" points="652.53 84.699 675.38 52.352 661.95 52.245 652.53 65.455 642.58 52.171 628.42 52.057"/><path id="path45" d="m743.82 78.798c-3.415 3.622-8.547 5.925-14.284 5.925-10.283 0-18.618-7.396-18.618-16.52 0-9.125 8.335-16.521 18.618-16.521 5.835 0 11.042 2.381 14.455 6.11l-7.688 6.657c-1.411-1.998-3.915-3.328-6.768-3.328-4.406 0-7.979 3.171-7.979 7.081s3.572 7.08 7.979 7.08c2.853 0 5.356-1.329 6.768-3.327l7.517 6.843z"/><polygon id="polygon47" points="755.3 84.426 767.99 84.426 767.99 63.444 777.6 63.444 775.23 52.18 748.05 52.18 745.68 63.444 755.3 63.444"/><path id="path49" d="m782.11 52.216v32.146h13.011v-23.417h5.711c1.746 0.986 1.588 2.253 1.588 2.253 0.951 4.787-4.603 3.942-4.603 3.942v9.434l5.554 7.828h15.233l-8.409-13.319c2.537-1.126 4.283-3.379 4.283-3.379 1.744-2.112 0.953-7.18 0.953-7.18-0.796-8.448-10.315-8.308-10.315-8.308h-23.006z"/><polygon id="polygon51" points="820.51 61.367 820.51 75.178 820.51 80.448 820.51 84.435 848.02 84.435 851.35 75.178 830.82 75.178 830.82 71.777 841.25 71.777 841.25 64.484 830.82 64.484 830.82 61.367 851.35 61.367 848.02 52.111 830.82 52.111 820.51 52.111"/><polygon id="polygon53" points="677.74 61.367 677.74 75.178 677.74 80.448 677.74 84.435 705.57 84.435 708.94 75.178 688.17 75.178 688.17 71.777 698.72 71.777 698.72 64.485 688.17 64.485 688.17 61.367 708.94 61.367 705.57 52.111 688.17 52.111 677.74 52.111"/><polygon id="polygon55" points="851.32 52.239 866.18 68.348 851.32 84.448 866.92 84.369 873.94 76.763 880.95 84.369 896.55 84.448 881.7 68.348 896.56 52.239 880.97 52.318 873.94 59.938 866.91 52.318"/></g><g id="g57"><polygon id="polygon59" points="652.53 84.699 675.38 52.352 661.95 52.245 652.53 65.455 642.58 52.171 628.42 52.057"/><path id="path61" d="m743.82 78.798c-3.415 3.622-8.547 5.925-14.284 5.925-10.283 0-18.618-7.396-18.618-16.52 0-9.125 8.335-16.521 18.618-16.521 5.835 0 11.042 2.381 14.455 6.11l-7.688 6.657c-1.411-1.998-3.915-3.328-6.768-3.328-4.406 0-7.979 3.171-7.979 7.081s3.572 7.08 7.979 7.08c2.853 0 5.356-1.329 6.768-3.327l7.517 6.843z"/><polygon id="polygon63" points="755.3 84.426 767.99 84.426 767.99 63.444 777.6 63.444 775.23 52.18 748.05 52.18 745.68 63.444 755.3 63.444"/><path id="path65" d="m782.11 52.216v32.146h13.011v-23.417h5.711c1.746 0.986 1.588 2.253 1.588 2.253 0.951 4.787-4.603 3.942-4.603 3.942v9.434l5.554 7.828h15.233l-8.409-13.319c2.537-1.126 4.283-3.379 4.283-3.379 1.744-2.112 0.953-7.18 0.953-7.18-0.796-8.448-10.315-8.308-10.315-8.308h-23.006z"/><polygon id="polygon67" points="820.51 61.367 820.51 75.178 820.51 80.448 820.51 84.435 848.02 84.435 851.35 75.178 830.82 75.178 830.82 71.777 841.25 71.777 841.25 64.484 830.82 64.484 830.82 61.367 851.35 61.367 848.02 52.111 830.82 52.111 820.51 52.111"/><polygon id="polygon69" points="677.74 61.367 677.74 75.178 677.74 80.448 677.74 84.435 705.57 84.435 708.94 75.178 688.17 75.178 688.17 71.777 698.72 71.777 698.72 64.485 688.17 64.485 688.17 61.367 708.94 61.367 705.57 52.111 688.17 52.111 677.74 52.111"/><polygon id="polygon71" points="851.32 52.239 866.18 68.348 851.32 84.448 866.92 84.369 873.94 76.763 880.95 84.369 896.55 84.448 881.7 68.348 896.56 52.239 880.97 52.318 873.94 59.938 866.91 52.318"/></g></g><g id="g73" clip-rule="evenodd" fill-rule="evenodd"><polygon id="polygon75" points="105.79 57.239 105.79 83.127 100.55 83.127 100.55 66.975 95.268 83.127 91.991 83.127 86.842 66.975 86.842 83.127 81.252 83.127 81.252 57.239 81.252 57.239 88.781 57.239 93.729 71.313 98.143 57.239" fill="#ed1c24"/><path id="path77" d="m108.64 57.239h11.101c3.512 0 7.238 2.897 7.222 6.356-0.015 3.379-2.595 4.894-4.326 5.761 2.801 0.702 5.05 4.008 4.928 6.76-0.154 3.496-3.248 7.01-7.824 7.01h-11.101v-25.887zm5.416 3.641h3.478c5.316 0 5.104 6.261 0.268 6.261h-3.745v-6.261h-1e-3zm0.067 10.639h3.478c5.316 0 5.104 7.757 0.267 7.757h-3.745v-7.757z" fill="#0095da"/></g><circle id="circle79" cx="145.7" cy="71.15" r="3.936" d="m 149.63301,71.150002 c 0,2.173792 -1.76221,3.936 -3.936,3.936 -2.1738,0 -3.936,-1.762208 -3.936,-3.936 0,-2.173793 1.7622,-3.936001 3.936,-3.936001 2.17379,0 3.936,1.762208 3.936,3.936001 z" clip-rule="evenodd" fill="#ed1c24" fill-rule="evenodd"/><circle id="circle81" cx="166.69" cy="71.15" r="3.936" d="m 170.623,71.150002 c 0,2.173792 -1.76221,3.936 -3.936,3.936 -2.1738,0 -3.936,-1.762208 -3.936,-3.936 0,-2.173793 1.7622,-3.936001 3.936,-3.936001 2.17379,0 3.936,1.762208 3.936,3.936001 z" clip-rule="evenodd" fill="#ed1c24" fill-rule="evenodd"/><circle id="circle83" cx="187.68" cy="71.15" r="3.936" d="m 191.61199,71.150002 c 0,2.173792 -1.7622,3.936 -3.936,3.936 -2.17379,0 -3.936,-1.762208 -3.936,-3.936 0,-2.173793 1.76221,-3.936001 3.936,-3.936001 2.1738,0 3.936,1.762208 3.936,3.936001 z" clip-rule="evenodd" fill="#ed1c24" fill-rule="evenodd"/><circle id="circle85" cx="328.25" cy="70.15" r="3.936" d="m 332.18801,70.150002 c 0,2.173792 -1.7622,3.936 -3.936,3.936 -2.17379,0 -3.936,-1.762208 -3.936,-3.936 0,-2.173793 1.76221,-3.936001 3.936,-3.936001 2.1738,0 3.936,1.762208 3.936,3.936001 z" clip-rule="evenodd" fill="#ed1c24" fill-rule="evenodd"/><circle id="circle87" cx="350.25" cy="70.183" r="3.936" d="m 354.18801,70.182999 c 0,2.173792 -1.7622,3.936 -3.936,3.936 -2.17379,0 -3.936,-1.762208 -3.936,-3.936 0,-2.173793 1.76221,-3.936 3.936,-3.936 2.1738,0 3.936,1.762207 3.936,3.936 z" clip-rule="evenodd" fill="#ed1c24" fill-rule="evenodd"/><circle id="circle89" cx="371.24" cy="70.183" r="3.936" d="m 375.178,70.182999 c 0,2.173792 -1.7622,3.936 -3.936,3.936 -2.17379,0 -3.936,-1.762208 -3.936,-3.936 0,-2.173793 1.76221,-3.936 3.936,-3.936 2.1738,0 3.936,1.762207 3.936,3.936 z" clip-rule="evenodd" fill="#ed1c24" fill-rule="evenodd"/><circle id="circle91" cx="392.27" cy="70.183" r="3.936" d="m 396.20401,70.182999 c 0,2.173792 -1.76221,3.936 -3.936,3.936 -2.1738,0 -3.936,-1.762208 -3.936,-3.936 0,-2.173793 1.7622,-3.936 3.936,-3.936 2.17379,0 3.936,1.762207 3.936,3.936 z" clip-rule="evenodd" fill="#ed1c24" fill-rule="evenodd"/><circle id="circle93" cx="413.26" cy="70.183" r="3.936" d="m 417.194,70.182999 c 0,2.173792 -1.76221,3.936 -3.936,3.936 -2.1738,0 -3.936,-1.762208 -3.936,-3.936 0,-2.173793 1.7622,-3.936 3.936,-3.936 2.17379,0 3.936,1.762207 3.936,3.936 z" clip-rule="evenodd" fill="#ed1c24" fill-rule="evenodd"/><circle id="circle95" cx="434.25" cy="70.183" r="3.936" d="m 438.18399,70.182999 c 0,2.173792 -1.76221,3.936 -3.936,3.936 -2.1738,0 -3.936,-1.762208 -3.936,-3.936 0,-2.173793 1.7622,-3.936 3.936,-3.936 2.17379,0 3.936,1.762207 3.936,3.936 z" clip-rule="evenodd" fill="#ed1c24" fill-rule="evenodd"/><circle id="circle97" cx="455.24" cy="70.183" r="3.936" d="m 459.173,70.182999 c 0,2.173792 -1.76221,3.936 -3.936,3.936 -2.17379,0 -3.936,-1.762208 -3.936,-3.936 0,-2.173793 1.76221,-3.936 3.936,-3.936 2.17379,0 3.936,1.762207 3.936,3.936 z" clip-rule="evenodd" fill="#ed1c24" fill-rule="evenodd"/><circle id="circle99" cx="600.32" cy="71.15" r="3.936" d="m 604.25198,71.150002 c 0,2.173792 -1.76221,3.936 -3.936,3.936 -2.17379,0 -3.936,-1.762208 -3.936,-3.936 0,-2.173793 1.76221,-3.936001 3.936,-3.936001 2.17379,0 3.936,1.762208 3.936,3.936001 z" clip-rule="evenodd" fill="#ed1c24" fill-rule="evenodd"/><circle id="circle101" cx="621.31" cy="71.15" r="3.936" d="m 625.24301,71.150002 c 0,2.173792 -1.76221,3.936 -3.936,3.936 -2.1738,0 -3.936,-1.762208 -3.936,-3.936 0,-2.173793 1.7622,-3.936001 3.936,-3.936001 2.17379,0 3.936,1.762208 3.936,3.936001 z" clip-rule="evenodd" fill="#ed1c24" fill-rule="evenodd"/></g><g id="Calque_9"><g id="g104"><path id="path106" d="m466.48 252.26v26.755h-7.394v-17.531c-1.196 0.909-2.354 1.645-3.472 2.207s-2.521 1.101-4.208 1.615v-5.994c2.488-0.801 4.42-1.765 5.796-2.889 1.375-1.124 2.452-2.513 3.229-4.163h6.049z" fill="#ed1c24"/></g><g id="g108"><path id="path110" d="m598.3 279.02h-21.928c0.252-2.165 1.014-4.202 2.288-6.11 1.274-1.907 3.663-4.16 7.169-6.756 2.141-1.591 3.511-2.799 4.109-3.625 0.598-0.825 0.896-1.608 0.896-2.351 0-0.801-0.295-1.486-0.888-2.055-0.593-0.567-1.337-0.852-2.234-0.852-0.933 0-1.695 0.293-2.288 0.879-0.592 0.586-0.99 1.621-1.193 3.104l-7.32-0.593c0.287-2.057 0.813-3.663 1.578-4.817s1.846-2.04 3.239-2.656 3.323-0.924 5.787-0.924c2.572 0 4.573 0.293 6.003 0.879 1.429 0.587 2.554 1.487 3.373 2.701s1.229 2.575 1.229 4.082c0 1.604-0.47 3.135-1.409 4.594-0.939 1.46-2.646 3.063-5.123 4.81-1.471 1.017-2.455 1.729-2.951 2.135-0.497 0.407-1.08 0.939-1.75 1.598h11.412v5.957z" fill="#ed1c24"/></g><g id="g112"><path id="path114" d="m710 260.32-6.909-1.238c0.574-2.2 1.679-3.888 3.312-5.06 1.633-1.173 3.944-1.759 6.936-1.759 3.433 0 5.915 0.64 7.446 1.92s2.297 2.889 2.297 4.827c0 1.137-0.312 2.165-0.933 3.086-0.623 0.922-1.562 1.729-2.817 2.423 1.017 0.251 1.794 0.545 2.332 0.879 0.873 0.539 1.553 1.247 2.037 2.127 0.484 0.879 0.727 1.929 0.727 3.149 0 1.531-0.4 2.999-1.202 4.405-0.802 1.405-1.956 2.488-3.463 3.248-1.508 0.759-3.488 1.139-5.939 1.139-2.393 0-4.28-0.281-5.662-0.843-1.381-0.563-2.518-1.385-3.409-2.468-0.892-1.082-1.576-2.443-2.055-4.082l7.304-0.969c0.287 1.471 0.732 2.491 1.336 3.06 0.604 0.568 1.373 0.852 2.307 0.852 0.98 0 1.797-0.358 2.449-1.076s0.979-1.675 0.979-2.871c0-1.221-0.314-2.165-0.943-2.835-0.627-0.67-1.479-1.005-2.557-1.005-0.574 0-1.363 0.144-2.368 0.431l0.376-5.222c0.407 0.06 0.725 0.089 0.951 0.089 0.957 0 1.756-0.305 2.396-0.915 0.639-0.609 0.959-1.334 0.959-2.171 0-0.802-0.238-1.441-0.717-1.92s-1.137-0.718-1.975-0.718c-0.861 0-1.561 0.26-2.1 0.78-0.539 0.522-0.904 1.434-1.095 2.737z" fill="#ed1c24"/></g><g id="g116"><path id="path118" d="m844.48 274.1h-13.315v-6.011l13.314-15.827h6.37v16.168h3.302v5.67h-3.302v4.917h-6.37v-4.917zm0-5.67v-8.279l-7.035 8.279h7.035z" fill="#ed1c24"/></g></g></g></svg>
