<?xml version="1.0" encoding="UTF-8"?>
<svg id="svg2" width="549.54" height="684.1" version="1.1" viewBox="0 0 549.54 684.1" xml:space="preserve" xmlns="http://www.w3.org/2000/svg" xmlns:cc="http://creativecommons.org/ns#" xmlns:dc="http://purl.org/dc/elements/1.1/" xmlns:rdf="http://www.w3.org/1999/02/22-rdf-syntax-ns#"><metadata id="metadata8"><rdf:RDF><cc:Work rdf:about=""><dc:format>image/svg+xml</dc:format><dc:type rdf:resource="http://purl.org/dc/dcmitype/StillImage"/><dc:title/></cc:Work></rdf:RDF></metadata><defs id="defs6"><clipPath id="clipPath16"><path id="path18" d="m0 547.28h439.64v-547.28h-439.64v547.28z"/></clipPath></defs><g id="g10" transform="matrix(1.25,0,0,-1.25,0,684.1)"><g id="g12"><g id="g14" clip-path="url(#clipPath16)"><g id="g20" transform="translate(146.17 367.07)"><path id="path22" d="m0 0" fill="#1b1c1c"/></g><g id="g24" transform="translate(146.17 180.21)"><path id="path26" d="m0 0" fill="#1b1c1c"/></g><g id="g28" transform="translate(175.11 265.86)"><path id="path30" d="m0 0v0.011 15.495 0.02l-1.494 90.365-28.137-4.687v-0.093c-1.386-0.351-2.422-1.723-2.422-3.369v-179.94c0-1.645 1.036-3.017 2.422-3.367v-0.093l28.137-4.685 1.494 90.338z" fill="#1b1c1c"/></g><g id="g32" transform="translate(122.64 2.3488)"><path id="path34" d="m0 0c46.369 5.537 55.366 8.997 98.08 21.454s41.718 29.067 65.94 21.454c24.223-7.612 18.686-7.612 35.296-14.533 16.609-6.921 33.911-6.921 33.911-6.921l33.219 38.064v211.77 211.77l-33.219 38.064s-17.302 0-33.911-6.921c-16.61-6.921-11.073-6.921-35.296-14.533-24.222-7.613-23.226 8.997-65.94 21.454s-51.711 15.917-98.08 21.454c-46.369 5.536-57.442 0-89.969-3.46-32.527-3.461-51.575-67.603-4.152-78.204 47.047-10.518 53.567-10.762 89.277-15.226 44.292-5.536 76.748-6.92 114.19-17.301 14.987-4.156 12.457-13.842 12.457-13.842s-8.305-62.286-9.689-133.57c-0.066-3.417-0.126-6.641-0.18-9.689 0.054-3.048 0.114-6.272 0.18-9.689 1.384-71.283 9.689-133.57 9.689-133.57s2.53-9.687-12.457-13.842c-37.443-10.381-69.899-11.765-114.19-17.301-35.71-4.464-42.23-4.708-89.277-15.226-47.423-10.601-28.375-74.743 4.152-78.204 32.527-3.46 43.6-8.997 89.969-3.46" fill="#1b1c1c"/></g><g id="g36" transform="translate(388.39 183.67)"><path id="path38" d="m0 0v89.931 90c0 4.59-3.718 8.312-8.305 8.312h-204.85c-4.587 0-8.305-3.722-8.305-8.312v-90-89.931c0-4.586 3.718-8.305 8.305-8.305h204.85c4.587 0 8.305 3.719 8.305 8.305" fill="#232323"/></g><g id="g40" transform="translate(380.09 191.98)"><path id="path42" d="m0 0v81.664 81.664c0 4.587-3.718 8.305-8.305 8.305h-149.49c-4.586 0-8.304-3.718-8.304-8.305v-81.664-81.664c0-4.586 3.718-8.305 8.304-8.305h149.49c4.587 0 8.305 3.719 8.305 8.305" fill="#2b2b2b"/></g><g id="g44" transform="translate(426.46 400.98)"><path id="path46" d="m0 0-59.518-92.045s-19.378-27.683-54.673-18.686c-35.296 8.997-45.52 52.374-37.372 85.124 7.613 30.6 26.991 107.27 26.991 107.27s22.34 58.826 89.969 35.296c67.628-23.531 47.573-98.966 34.603-116.96" fill="#232323"/></g><g id="g48" transform="translate(426.46 146.3)"><path id="path50" d="m0 0-59.518 92.045s-19.378 27.683-54.673 18.686c-35.296-8.997-45.52-52.374-37.372-85.124 7.613-30.6 26.991-107.27 26.991-107.27s22.34-58.826 89.969-35.296c67.628 23.531 47.573 98.966 34.603 116.96" fill="#232323"/></g><g id="g52" transform="translate(368.58 68.874)"><path id="path54" d="m0 0c-15.862 0-28.721 12.859-28.721 28.721s12.859 28.721 28.721 28.721 28.721-12.859 28.721-28.721-12.859-28.721-28.721-28.721z" fill="none" stroke="#1b1c1c" stroke-miterlimit="10" stroke-width="1.569"/></g><g id="g56" transform="translate(368.58 475.72)"><path id="path58" d="m0 0c-15.862 0-28.721-12.859-28.721-28.721s12.859-28.721 28.721-28.721 28.721 12.859 28.721 28.721-12.859 28.721-28.721 28.721z" fill="none" stroke="#1b1c1c" stroke-miterlimit="10" stroke-width="1.569"/></g><g id="g60" transform="translate(381.04 67.953)"><path id="path62" d="m0 0v17.184h17.184c2.168 0 3.924 1.757 3.924 3.923v17.068c0 2.167-1.756 3.924-3.924 3.924h-17.184v17.184c0 2.167-1.757 3.924-3.923 3.924h-17.068c-2.167 0-3.923-1.757-3.923-3.924v-17.184h-17.185c-2.167 0-3.924-1.757-3.924-3.924v-17.068c0-2.166 1.757-3.923 3.924-3.923h17.185v-17.184c0-2.167 1.756-3.924 3.923-3.924h17.068c2.166 0 3.923 1.757 3.923 3.924" fill="#1b1c1c"/></g><g id="g64" transform="translate(381.04 67.953)"><path id="path66" d="m0 0v17.184h17.184c2.168 0 3.924 1.757 3.924 3.923v17.068c0 2.167-1.756 3.924-3.924 3.924h-17.184v17.184c0 2.167-1.757 3.924-3.923 3.924h-17.068c-2.167 0-3.923-1.757-3.923-3.924v-17.184h-17.185c-2.167 0-3.924-1.757-3.924-3.924v-17.068c0-2.166 1.757-3.923 3.924-3.923h17.185v-17.184c0-2.167 1.756-3.924 3.923-3.924h17.068c2.166 0 3.923 1.757 3.923 3.924z" fill="none" stroke="#191818" stroke-miterlimit="10" stroke-width="1.962"/></g><g id="g68" transform="translate(381.04 417.36)"><path id="path70" d="m0 0v17.184h17.184c2.168 0 3.924 1.757 3.924 3.923v17.068c0 2.167-1.756 3.924-3.924 3.924h-17.184v17.184c0 2.167-1.757 3.924-3.923 3.924h-17.068c-2.167 0-3.923-1.757-3.923-3.924v-17.184h-17.185c-2.167 0-3.924-1.757-3.924-3.924v-17.068c0-2.166 1.757-3.923 3.924-3.923h17.185v-17.184c0-2.167 1.756-3.924 3.923-3.924h17.068c2.166 0 3.923 1.757 3.923 3.924" fill="#1b1c1c"/></g><g id="g72" transform="translate(381.04 417.36)"><path id="path74" d="m0 0v17.184h17.184c2.168 0 3.924 1.757 3.924 3.923v17.068c0 2.167-1.756 3.924-3.924 3.924h-17.184v17.184c0 2.167-1.757 3.924-3.923 3.924h-17.068c-2.167 0-3.923-1.757-3.923-3.924v-17.184h-17.185c-2.167 0-3.924-1.757-3.924-3.924v-17.068c0-2.166 1.757-3.923 3.924-3.923h17.185v-17.184c0-2.167 1.756-3.924 3.923-3.924h17.068c2.166 0 3.923 1.757 3.923 3.924z" fill="none" stroke="#191818" stroke-miterlimit="10" stroke-width="1.962"/></g><g id="g76" transform="translate(368.58 91.366)"><path id="path78" d="m0 0c-3.44 0-6.229 2.789-6.229 6.229s2.789 6.228 6.229 6.228 6.229-2.788 6.229-6.228-2.789-6.229-6.229-6.229" fill="#151515"/></g><g id="g80" transform="translate(368.58 453.23)"><path id="path82" d="m0 0c-3.44 0-6.229-2.789-6.229-6.229s2.789-6.228 6.229-6.228 6.229 2.788 6.229 6.228-2.789 6.229-6.229 6.229" fill="#151515"/></g><g id="g84" transform="translate(339.86 147.68)"><path id="path86" d="m0 0c-8.982 0-16.264 7.282-16.264 16.264s7.282 16.263 16.264 16.263 16.264-7.281 16.264-16.263-7.282-16.264-16.264-16.264" fill="#ea122c"/></g><g id="g88" transform="translate(339.86 147.68)"><path id="path90" d="m0 0c-8.982 0-16.264 7.282-16.264 16.264s7.282 16.263 16.264 16.263 16.264-7.281 16.264-16.263-7.282-16.264-16.264-16.264z" fill="none" stroke="#191818" stroke-miterlimit="10" stroke-width="1.962"/></g><g id="g92" transform="translate(322.91 189.21)"><path id="path94" d="m0 0c-8.982 0-16.264 7.282-16.264 16.264s7.282 16.263 16.264 16.263 16.264-7.281 16.264-16.263-7.282-16.264-16.264-16.264" fill="#ea122c"/></g><g id="g96" transform="translate(322.91 189.21)"><path id="path98" d="m0 0c-8.982 0-16.264 7.282-16.264 16.264s7.282 16.263 16.264 16.263 16.264-7.281 16.264-16.263-7.282-16.264-16.264-16.264z" fill="none" stroke="#191818" stroke-miterlimit="10" stroke-width="1.962"/></g><g id="g100" transform="translate(339.86 396.91)"><path id="path102" d="m0 0c-8.982 0-16.264-7.282-16.264-16.264s7.282-16.263 16.264-16.263 16.264 7.281 16.264 16.263-7.282 16.264-16.264 16.264" fill="#6d6e70"/></g><g id="g104" transform="translate(339.86 396.91)"><path id="path106" d="m0 0c-8.982 0-16.264-7.282-16.264-16.264s7.282-16.263 16.264-16.263 16.264 7.281 16.264 16.263-7.282 16.264-16.264 16.264z" fill="none" stroke="#191818" stroke-miterlimit="10" stroke-width="1.962"/></g><g id="g108" transform="translate(322.91 355.39)"><path id="path110" d="m0 0c-8.982 0-16.264-7.282-16.264-16.264s7.282-16.263 16.264-16.263 16.264 7.281 16.264 16.263-7.282 16.264-16.264 16.264" fill="#808184"/></g><g id="g112" transform="translate(322.91 355.39)"><path id="path114" d="m0 0c-8.982 0-16.264-7.282-16.264-16.264s7.282-16.263 16.264-16.263 16.264 7.281 16.264 16.263-7.282 16.264-16.264 16.264z" fill="none" stroke="#191818" stroke-miterlimit="10" stroke-width="1.962"/></g><g id="g116" transform="translate(376.2 240.8)"><path id="path118" d="m0 0c0-1.72-1.394-3.114-3.114-3.114-1.184 0-2.202 0.668-2.728 1.641l-3e-3 -0.025-9.871 16.186v14.687h9.487 6.229v-29.375z" fill="#6d6e70"/></g><g id="g120" transform="translate(373.08 248.07)"><path id="path122" d="m0 0c1.72 0 3.114 1.394 3.114 3.114v22.493 6.882 22.493c0 1.72-1.394 3.114-3.114 3.114-1.184 0-2.202-0.668-2.728-1.642l-3e-3 0.026-9.871-16.186v-7.805-6.882-7.805l9.871-16.185 3e-3 0.025c0.526-0.974 1.544-1.642 2.728-1.642" fill="#929496"/></g><g id="g124" transform="translate(361.17 282.48)"><path id="path126" d="m0 0c-0.542 0-0.981 0.439-0.981 0.981v2.537c0 0.541 0.439 0.98 0.981 0.98h14.648c0.541 0 0.981-0.439 0.981-0.98v-2.537c0-0.542-0.44-0.981-0.981-0.981h-14.648z" fill="#808184"/></g><g id="g128" transform="translate(361.17 274.7)"><path id="path130" d="m0 0c-0.542 0-0.981 0.439-0.981 0.981v2.536c0 0.542 0.439 0.981 0.981 0.981h14.648c0.541 0 0.981-0.439 0.981-0.981v-2.536c0-0.542-0.44-0.981-0.981-0.981h-14.648z" fill="#808184"/></g><g id="g132" transform="translate(361.17 267.26)"><path id="path134" d="m0 0c-0.542 0-0.981 0.439-0.981 0.981v2.536c0 0.542 0.439 0.981 0.981 0.981h14.648c0.541 0 0.981-0.439 0.981-0.981v-2.536c0-0.542-0.44-0.981-0.981-0.981h-14.648z" fill="#808184"/></g><g id="g136" transform="translate(370.49 381.24)"><path id="path138" d="m0 0 1.407 3.229c0.064 0.146 0.055 0.288-0.027 0.425-0.082 0.136-0.203 0.239-0.363 0.308-0.158 0.069-0.31 0.087-0.458 0.055-0.148-0.034-0.255-0.126-0.321-0.279l-0.829-1.9c-0.223-0.513-0.608-0.828-1.153-0.944-0.495-0.108-1.013-0.043-1.555 0.193-0.544 0.237-0.945 0.571-1.202 1.003-0.285 0.479-0.316 0.976-0.091 1.492l1.508 3.46 1.392-0.606-1.413-3.241c-0.06-0.137-0.044-0.277 0.047-0.421 0.083-0.127 0.206-0.227 0.37-0.298 0.158-0.069 0.311-0.09 0.459-0.063 0.148 0.028 0.254 0.115 0.318 0.261l0.83 1.905c0.225 0.516 0.609 0.835 1.152 0.956 0.492 0.112 1.008 0.051 1.545-0.184 0.537-0.233 0.932-0.567 1.184-0.999 0.282-0.485 0.311-0.986 0.086-1.502l-1.504-3.452-1.382 0.602z" fill="#929496"/></g><g id="g140" transform="translate(362.79 377.61)"><path id="path142" d="m0 0 1.504 3.452c0.225 0.517 0.61 0.836 1.155 0.961 0.493 0.112 1.009 0.05 1.547-0.184 0.235-0.103 0.449-0.231 0.641-0.384s0.353-0.326 0.483-0.521c0.218 0.036 0.453 0.035 0.705-2e-3s0.491-0.104 0.716-0.202c0.537-0.234 0.932-0.57 1.186-1.007 0.283-0.485 0.311-0.985 0.086-1.501l-1.504-3.453-1.382 0.603 1.407 3.228c0.064 0.147 0.055 0.289-0.027 0.425-0.082 0.137-0.203 0.24-0.363 0.31-0.158 0.068-0.31 0.086-0.458 0.053s-0.255-0.126-0.321-0.278l-1.407-3.229-1.378 0.6-0.039 0.017 1.487 3.413c-5e-3 0.111-0.046 0.216-0.126 0.311-0.079 0.094-0.182 0.169-0.307 0.224-0.158 0.069-0.311 0.086-0.46 0.053-0.148-0.032-0.256-0.125-0.322-0.277l-1.407-3.229-1.416 0.617z" fill="#929496"/></g><g id="g144" transform="translate(360.2 371.75)"><path id="path146" d="m0 0 1.054 2.42c0.333 0.763 0.807 1.28 1.423 1.551 0.478 0.21 1.03 0.265 1.654 0.168 0.408-0.064 0.83-0.192 1.264-0.381 0.081-0.035 0.145-0.064 0.192-0.089 0.047-0.024 0.087-0.046 0.119-0.068l3.076-1.34-0.586-1.346-3.076 1.34c-0.553 0.242-1.067 0.337-1.54 0.288-0.545-0.057-0.914-0.305-1.105-0.742l-1.054-2.42-1.421 0.619z" fill="#929496"/></g><g id="g148" transform="translate(357.67 365.86)"><path id="path150" d="m0 0 1.504 3.452c0.225 0.517 0.61 0.836 1.155 0.961 0.493 0.112 1.009 0.05 1.547-0.184 0.235-0.103 0.449-0.231 0.641-0.383 0.192-0.154 0.353-0.327 0.483-0.522 0.218 0.036 0.453 0.035 0.705-1e-3 0.252-0.038 0.49-0.105 0.715-0.203 0.538-0.234 0.933-0.57 1.187-1.007 0.283-0.485 0.311-0.985 0.086-1.501l-1.504-3.453-1.382 0.603 1.407 3.228c0.064 0.147 0.054 0.289-0.027 0.425-0.082 0.137-0.203 0.24-0.363 0.31-0.158 0.068-0.31 0.086-0.458 0.053s-0.255-0.126-0.322-0.278l-1.406-3.229-1.378 0.6-0.039 0.017 1.487 3.413c-4e-3 0.111-0.046 0.216-0.126 0.31-0.079 0.095-0.182 0.17-0.307 0.225-0.158 0.069-0.311 0.086-0.46 0.053-0.148-0.032-0.256-0.125-0.322-0.278l-1.407-3.228-1.416 0.617z" fill="#929496"/></g><g id="g152" transform="translate(355.08 360.01)"><path id="path154" d="m0 0 1.294 2.97c0.31 0.713 0.89 1.128 1.739 1.249 0.76 0.108 1.58-0.029 2.458-0.413 0.899-0.391 1.579-0.911 2.043-1.56 0.514-0.721 0.618-1.432 0.313-2.132l-1.294-2.969-1.382 0.602 1.196 2.746c0.143 0.327 0.066 0.669-0.232 1.022-0.267 0.319-0.65 0.586-1.149 0.804-0.515 0.224-0.992 0.329-1.43 0.314-0.486-0.015-0.799-0.184-0.938-0.506l-1.197-2.746-1.421 0.619z" fill="#929496"/></g><g id="g156" transform="translate(358.24 353.13)"><path id="path158" d="M 0,0 0.598,1.373 -4.572,3.626 -3.996,4.95 1.175,2.697 1.771,4.065 3.153,3.463 1.382,-0.602 0,0 Z" fill="#929496"/></g><g id="g160" transform="translate(352.03 336.03)"><path id="path162" d="m0 0 1.407 3.229c0.064 0.146 0.055 0.287-0.027 0.424-0.082 0.136-0.203 0.239-0.363 0.309-0.158 0.069-0.31 0.087-0.458 0.054s-0.255-0.125-0.321-0.278l-0.829-1.9c-0.223-0.513-0.608-0.828-1.153-0.945-0.495-0.107-1.013-0.042-1.555 0.194-0.544 0.237-0.945 0.571-1.202 1.003-0.285 0.479-0.316 0.976-0.091 1.492l1.508 3.46 1.392-0.607-1.413-3.241c-0.06-0.137-0.044-0.276 0.047-0.42 0.083-0.127 0.206-0.227 0.37-0.299 0.158-0.068 0.311-0.089 0.459-0.062 0.148 0.028 0.254 0.115 0.318 0.261l0.83 1.905c0.225 0.516 0.609 0.835 1.152 0.956 0.492 0.112 1.008 0.05 1.545-0.184s0.932-0.568 1.184-1c0.282-0.485 0.311-0.985 0.086-1.501l-1.504-3.452-1.382 0.602z" fill="#929496"/></g><g id="g164" transform="translate(350.02 331.4)"><path id="path166" d="M 0,0 0.599,1.373 -4.572,3.627 -3.996,4.95 1.175,2.697 1.771,4.065 3.153,3.463 1.382,-0.602 0,0 Z" fill="#929496"/></g><g id="g168" transform="translate(342.21 327.62)"><path id="path170" d="m0 0 0.625 1.435 5.735-0.616c0.056-0.013 0.096 0.01 0.122 0.069 0.028 0.064 0.02 0.116-0.022 0.16l-4.369 3.75 0.633 1.454c0.363-0.294 0.906-0.741 1.629-1.344 0.8-0.671 1.56-1.319 2.282-1.942 0.786-0.683 1.221-1.082 1.302-1.195 0.13-0.202 0.193-0.439 0.191-0.709-3e-3 -0.27-0.062-0.538-0.179-0.807-0.116-0.266-0.272-0.492-0.469-0.679-0.196-0.188-0.412-0.299-0.647-0.336-0.138-0.028-0.725 0.015-1.76 0.129-0.729 0.079-1.719 0.198-2.972 0.359-0.7 0.092-1.4 0.182-2.101 0.272" fill="#929496"/></g><g id="g172" transform="translate(339.59 322.01)"><path id="path174" d="m0 0 3.441 3.045-1.628 0.71 0.577 1.323 2.169-0.945c0.522-0.228 0.893-0.533 1.113-0.917 0.253-0.44 0.262-0.929 0.027-1.468l-0.717-1.646c-0.066-0.153-0.059-0.298 0.022-0.436 0.072-0.124 0.187-0.219 0.344-0.288 0.161-0.069 0.314-0.091 0.46-0.062 0.162 0.032 0.277 0.124 0.344 0.276l1.408 3.233 1.382-0.602-1.506-3.456c-0.225-0.517-0.609-0.836-1.152-0.957-0.493-0.112-1.008-0.05-1.545 0.183-0.541 0.236-0.937 0.571-1.188 1.003-0.281 0.481-0.308 0.981-0.083 1.499l0.365 0.836-2.283-2.006-1.55 0.675z" fill="#929496"/></g><g id="g176" transform="translate(342.96 315.22)"><path id="path178" d="M 0,0 0.598,1.373 -4.572,3.627 -3.996,4.95 1.175,2.697 1.771,4.065 3.154,3.463 1.382,-0.602 0,0 Z" fill="#929496"/></g><g id="g180" transform="translate(343.53 217.95)"><path id="path182" d="m0 0 0.67-1.396c0.227-0.472 0.47-0.763 0.731-0.877 0.26-0.113 0.531-0.102 0.813 0.034 0.262 0.126 0.426 0.322 0.493 0.59 0.068 0.268-0.014 0.642-0.244 1.121l-0.667 1.39-1.796-0.862zm3.482 1.672 0.572-1.191c0.205-0.427 0.421-0.688 0.649-0.785 0.227-0.097 0.48-0.079 0.758 0.055 0.257 0.124 0.418 0.304 0.484 0.541 0.064 0.237-3e-3 0.563-0.202 0.979l-0.581 1.208-1.68-0.807zm2.149 4.432 2.461-5.126c0.41-0.854 0.514-1.612 0.31-2.273-0.203-0.66-0.617-1.141-1.241-1.44-0.525-0.252-1.052-0.304-1.584-0.158-0.354 0.098-0.704 0.321-1.051 0.671 0.153-0.711 0.114-1.305-0.113-1.784-0.229-0.48-0.626-0.855-1.19-1.125-0.459-0.221-0.924-0.313-1.393-0.276-0.469 0.038-0.899 0.191-1.291 0.459-0.243 0.166-0.507 0.466-0.789 0.9-0.377 0.578-0.614 0.968-0.71 1.169l-2.27 4.727 8.861 4.256z" fill="#a6a8ab"/></g><g id="g184" transform="translate(363.32 176.05)"><path id="path186" d="m0 0 2.716 2.508-3.65-0.562 0.934-1.946zm-1.643-1.488-1.493 3.109-1.67-0.271-1.343 2.796 10.46 0.925 1.435-2.987-7.263-7.585-1.376 2.867 1.25 1.146z" fill="#a6a8ab"/></g><g id="g188" transform="translate(250.03 334.23)"><path id="path190" d="m0 0-28.058-6.441 28.058-6.408v3.468l-15.769 2.94 15.769 2.972v3.469z" fill="#6d6e70"/></g><path id="path192" d="m250.03 316.5h-28.058v3.468h28.058v-3.468z" fill="#6d6e70"/><path id="path194" d="m247.18 306.46h-9.751v3.469h9.751v-3.469zm2.857 6.939h-28.063v-3.47h14.499l-14.499-4.824v-3.199l13.268 3.86c1.169-2.144 2.699-2.775 2.699-2.775h8.914c2.866 1.42 3.182 3.87 3.182 3.87v6.538z" fill="#6d6e70"/><g id="g196" transform="translate(250.03 301.9)"><path id="path198" d="m0 0v-10.372h-2.851v3.469h-25.207v3.468h25.207v3.435h2.851z" fill="#6d6e70"/></g><g id="g200" transform="translate(237.94 272.34)"><path id="path202" d="m0 0-9.663-1.583v3.426l9.663-1.843zm12.096 0-28.033 6.7h-0.03v-3.436l3.783-0.727v-4.846l-3.783-0.694v-3.469l28.063 6.472z" fill="#6d6e70"/></g><g id="g204" transform="translate(250.03 264.47)"><path id="path206" d="m0 0v-3.468h-25.207v-5.188h-2.851v8.656h28.058z" fill="#6d6e70"/></g><g id="g208" transform="translate(250.03 227.38)"><path id="path210" d="m0 0v-3.17l-12.093-3.237 12.093-2.941v-3.501l-16.505 4.855h-11.553v3.469h11.553l16.505 4.525z" fill="#6d6e70"/></g><path id="path212" d="m246.85 231.87h-22.025v3.471h22.025v-3.471zm3.178 1.73c0 3.942-3.178 5.208-3.178 5.208-0.045-0.031-21.099 0-21.699 0-3.411-0.521-3.181-5.208-3.181-5.208 0-5.2 3.181-5.199 3.181-5.199h21.699c3.336 1.345 3.178 5.199 3.178 5.199" fill="#6d6e70"/><g id="g214" transform="translate(250.03 290.17)"><path id="path216" d="m0 0v-3.502h-24.877v-3.501h24.877v-3.435h-24.877s-3.181 1.123-3.181 5.054c0 3.93 3.181 5.384 3.181 5.384h24.877z" fill="#6d6e70"/></g><path id="path218" d="m234.58 245.01h-9.751v3.502h9.751v-3.502zm12.253 0h-9.407v3.491h9.407v-3.491zm3.202 6.971h-28.063v-6.971c0.765-3.236 2.856-3.438 2.856-3.438s7.496 6e-3 9.434 6e-3c1.223 0.244 1.264 1.35 1.264 1.35s0.341 4e-3 0.61 0c0.085-1.223 1.291-1.356 1.291-1.356s7.488 6e-3 9.426 0c2.289 0.53 3.182 3.438 3.182 3.438v6.971z" fill="#6d6e70"/><g id="g220" transform="translate(224.82 217.29)"><path id="path222" d="m0 0v-2.411h-0.326v1.025h-2.525v0.347h2.525v1.039h0.326z" fill="#6d6e70"/></g><g id="g224" transform="translate(221.97 214.53)"><path id="path226" d="m0 0h2.851v-0.347l-2.543-1.238 2.543-1.189v-0.364h-2.851v0.364h2.207l-2.207 1.026v0.35l2.207 1.051h-2.207v0.347z" fill="#6d6e70"/></g><g id="g228" transform="translate(203.94 303.9)"><path id="path230" d="m0 0c0 5.019-4.336 10.607-10.185 10.607s-10.184-5.089-10.184-10.607v-61.548c-0.423-5.849 4.335-10.608 10.184-10.608s10.185 4.906 10.185 10.608v61.548z" fill="#1b1c1c"/></g><g id="g232" transform="translate(201.41 303.9)"><path id="path234" d="m0 0c0.21 3.927-3.191 8.072-7.651 8.072-4.458 0-7.624-3.389-7.65-8.072v-61.548c-0.064-4.746 3.192-8.073 7.65-8.073 4.46 0 7.994 3.995 7.651 8.073v61.548z" fill="#232323"/></g><path id="path236" d="m195.2 294.71h-6.43v-2.922h6.43v2.922z" fill="#1b1c1c"/><g id="g238" transform="translate(195.49 285.23)"><path id="path240" d="m0 0s-0.061 1.213-0.976 2.129h0.684v2.923h-6.43v-2.923h4.175c1.169-0.334 1.128-1.294 1.128-1.294 0-1.545-1.504-1.462-1.504-1.462h-3.799v-2.797h3.883s2.839 0.167 2.839 3.424" fill="#1b1c1c"/></g><g id="g242" transform="translate(195.49 261.64)"><path id="path244" d="m0 0s-0.061 1.213-0.976 2.129h0.684v2.923h-6.43v-2.923h4.175c1.169-0.334 1.128-1.294 1.128-1.294 0-1.545-1.504-1.462-1.504-1.462h-3.799v-2.797h3.883s2.839 0.167 2.839 3.424" fill="#1b1c1c"/></g><path id="path246" d="m196.37 291.79h1.941v2.922h-1.941v-2.922z" fill="#1b1c1c"/><g id="g248" transform="translate(195.87 275.8)"><path id="path250" d="m0 0v1.461h1.503v2.923h-1.503v1.211h-0.835v-1.211h-6.263v-2.923h6.263v-1.461h0.835z" fill="#1b1c1c"/></g><g id="g252" transform="translate(195.47 243.79)"><path id="path254" d="m0 0c0 2.26-1.59 4.092-3.55 4.092-1.959 0-3.548-1.832-3.548-4.092 0-2.259 1.589-4.092 3.548-4.092 1.96 0 3.55 1.833 3.55 4.092" fill="#1b1c1c"/></g><g id="g256" transform="translate(194.72 243.79)"><path id="path258" d="m0 0c0 0.62-0.569 1.127-1.267 1.127h-3.06c-0.697 0-1.267-0.507-1.267-1.127s0.57-1.127 1.267-1.127h3.06c0.698 0 1.267 0.507 1.267 1.127" fill="#232323"/></g><g id="g260" transform="translate(198.29 251.83)"><path id="path262" d="m0 0h-3.283c0.229 0.42 0.359 0.874 0.359 1.315 0 2.193-1.542 3.97-3.444 3.97s-3.444-1.777-3.444-3.97c0-0.414 0.165-0.876 0.449-1.315h-0.157v-2.923h9.52v2.923z" fill="#1b1c1c"/></g><g id="g264" transform="translate(194.45 252.97)"><path id="path266" d="m0 0c0 0.601-0.519 1.093-1.154 1.093h-2.786c-0.635 0-1.155-0.492-1.155-1.093 0-0.602 0.52-1.094 1.155-1.094h2.786c0.635 0 1.154 0.492 1.154 1.094" fill="#232323"/></g><g id="g268" transform="translate(190.65 270.47)"><path id="path270" d="m0 0c-1.044 0-1.524 0.531-1.524 1.182 0 0.65 0.57 1.182 1.267 1.182h1.426v-5.466c0.035-1e-3 3.654 0.245 3.654 4.284 0 2.37-1.59 4.29-3.55 4.29s-3.548-1.92-3.548-4.29c0-1.825 0.945-3.381 2.275-4.001v2.819z" fill="#1b1c1c"/></g><g id="g272" transform="translate(192.82 270.47)"><path id="path274" d="m0 0h0.633c0.697 0 1.266 0.531 1.266 1.182 0 0.65-0.569 1.182-1.266 1.182h-0.633v-2.364z" fill="#232323"/></g><g id="g276" transform="translate(198.31 306.32)"><path id="path278" d="m0 0h-9.498v-2.63h6.638l-6.68-4.218v-3.006h9.54v2.923h-6.66l6.66 4.176v2.755z" fill="#1b1c1c"/></g></g></g></g></svg>
