<?xml version="1.0" encoding="UTF-8"?>
<!-- Generator: Adobe Illustrator 19.0.0, SVG Export Plug-In . SVG Version: 6.00 Build 0)  -->
<svg id="svg2" baseProfile="tiny" version="1.1" viewBox="-382.3 255.5 197.3 282" xml:space="preserve" xmlns="http://www.w3.org/2000/svg">
<title id="title3021">Wii controller</title>


	
		<path d="m-256 536.5c-4.4 0-8-3.6-8-8v-264c0-4.4 3.6-8 8-8h62c4.4 0 8 3.6 8 8v264c0 4.4-3.6 8-8 8h-62m62-281h-62c-5 0-9 4-9 9v264c0 5 4 9 9 9h62c5 0 9-4 9-9v-264c0-5-4-9-9-9" fill="#C7C8CB"/>
		<path d="m-223 393.9c-3.9 0-7-3.1-7-7s3.1-7 7-7 7 3.1 7 7-3.1 7-7 7m-16.4-85.8c-1.4 0-2.5-0.7-2.5-1.7v-6.5c0-0.9 1.1-1.7 2.5-1.7h11.5v-11.5c0-1.4 0.7-2.5 1.7-2.5h6.5c0.9 0 1.7 1.1 1.7 2.5v11.5h11.5c1.4 0 2.5 0.7 2.5 1.7v6.5c0 0.9-1.1 1.7-2.5 1.7h-11.5v11.5c0 1.4-0.7 2.5-1.7 2.5h-6.5c-0.9 0-1.7-1.1-1.7-2.5v-11.5h-11.5m45.4-51.6h-62c-4.4 0-8 3.6-8 8v264c0 4.4 3.6 8 8 8h62c4.4 0 8-3.6 8-8v-264c0-4.4-3.6-8-8-8" fill="#F1F1F2"/>
		
			<polyline points="-231.1 505.2 -236.1 505.2 -236.1 510.2 -231.1 510.2 -231.1 505.2" fill="#5C5C5C"/>
			<polyline points="-196.8 505.2 -201.8 505.2 -201.8 510.2 -196.8 510.2 -196.8 505.2" fill="#5C5C5C"/>
			<polyline points="-213.9 505.2 -218.9 505.2 -218.9 510.2 -213.9 510.2 -213.9 505.2" fill="#5C5C5C"/>
			<polyline points="-248.2 505.2 -253.2 505.2 -253.2 510.2 -248.2 510.2 -248.2 505.2" fill="#11B3EF"/>
		
		<circle cx="-215.5" cy="431.4" r="1.5"/>
		<circle cx="-223" cy="431.4" r="1.5"/>
		<circle cx="-230.5" cy="431.4" r="1.5"/>
		<circle cx="-215.5" cy="425.4" r="1.5"/>
		<circle cx="-223" cy="425.4" r="1.5"/>
		<circle cx="-230.5" cy="425.4" r="1.5"/>
		<circle cx="-215.5" cy="419.4" r="1"/>
		<circle cx="-223" cy="419.4" r="1"/>
		<circle cx="-230.5" cy="419.4" r="1"/>
		<circle cx="-215.5" cy="413.4" r=".5"/>
		<circle cx="-223" cy="413.4" r=".5"/>
		<circle cx="-230.5" cy="413.4" r=".5"/>
		<circle cx="-215.5" cy="443.4" r=".5"/>
		<circle cx="-223" cy="443.4" r=".5"/>
		<circle cx="-230.5" cy="443.4" r=".5"/>
		<circle cx="-215.5" cy="437.4" r="1"/>
		<circle cx="-223" cy="437.4" r="1"/>
		<circle cx="-230.5" cy="437.4" r="1"/>
		<path d="m-239.4 307.7c-1.2 0-2.1-0.6-2.1-1.3v-6.5c0-0.7 0.9-1.3 2.1-1.3h11.9v-11.9c0-1.2 0.6-2.1 1.3-2.1h6.5c0.7 0 1.3 0.9 1.3 2.1v11.9h11.9c1.2 0 2.1 0.6 2.1 1.3v6.5c0 0.7-0.9 1.3-2.1 1.3h-11.9v11.9c0 1.2-0.6 2.1-1.3 2.1h-6.5c-0.7 0-1.3-0.9-1.3-2.1v-11.9h-11.9m19.7-23.5h-6.5c-0.9 0-1.7 1.1-1.7 2.5v11.5h-11.5c-1.4 0-2.5 0.7-2.5 1.7v6.5c0 0.9 1.1 1.7 2.5 1.7h11.5v11.5c0 1.4 0.7 2.5 1.7 2.5h6.5c0.9 0 1.7-1.1 1.7-2.5v-11.5h11.5c1.4 0 2.5-0.7 2.5-1.7v-6.5c0-0.9-1.1-1.7-2.5-1.7h-11.5v-11.5c-0.1-1.4-0.8-2.5-1.7-2.5" fill="#898A8C"/>
		<path d="m-219.7 284.6h-6.5c-0.7 0-1.3 0.9-1.3 2.1v11.9h-11.9c-1.2 0-2.1 0.6-2.1 1.3v6.5c0 0.7 0.9 1.3 2.1 1.3h11.9v11.9c0 1.2 0.6 2.1 1.3 2.1h6.5c0.7 0 1.3-0.9 1.3-2.1v-11.9h11.9c1.2 0 2.1-0.6 2.1-1.3v-6.5c0-0.7-0.9-1.3-2.1-1.3h-11.9v-11.9c-0.1-1.2-0.6-2.1-1.3-2.1" fill="#DBDCDD"/>
		<rect x="-238.4" y="302.7" width="6.9" height="1" fill="#818285"/>
		<rect x="-214.5" y="302.7" width="6.9" height="1" fill="#818285"/>
		<rect x="-223.5" y="287.4" width="1" height="6.9" fill="#818285"/>
		<rect x="-223.5" y="312" width="1" height="6.9" fill="#818285"/>
		<path d="m-245.8 279c-3.9 0-7-3.1-7-7s3.1-7 7-7 7 3.1 7 7-3.1 7-7 7z" fill="#BDBEBF"/>
		<circle cx="-245.8" cy="271.9" r="6.7" fill="#E7E8E9"/>
		<path d="m-245.8 275.9c-1.8 0-3.2-1.4-3.2-3.2s1.4-3.2 3.2-3.2 3.2 1.4 3.2 3.2-1.4 3.2-3.2 3.2zm0-5.4c-1.2 0-2.2 1-2.2 2.2s1 2.2 2.2 2.2 2.2-1 2.2-2.2-1-2.2-2.2-2.2z" fill="#BF1E2E"/>
		<rect x="-246.9" y="267.8" width="2.2" height="5.9" fill="#E7E8E9"/>
		<rect x="-246.3" y="268.2" width="1" height="4.9" fill="#BF1E2E"/>
		<path d="m-223 360.4c-7.3 0-13.2-6-13.2-13.3s5.9-13.3 13.2-13.3 13.2 6 13.2 13.3-5.9 13.3-13.2 13.3z" fill="#BDBEBF"/>
		<ellipse cx="-223" cy="347.1" rx="12.9" ry="13" fill="#D1D1D1"/>
		<polygon points="-219.5 352.8 -223 344.4 -226.5 352.8 -227.9 352.2 -223.7 342.2 -222.3 342.2 -218.1 352.2" fill="#A7A8AC"/>
		<rect x="-225.6" y="348" width="5.2" height="1.5" fill="#A7A8AC"/>
		<path d="m-223 393.9c-3.9 0-7-3.1-7-7s3.1-7 7-7 7 3.1 7 7-3.1 7-7 7" fill="#BDBEBF"/>
		<path d="m-216.3 386.9c0 3.7-3 6.7-6.7 6.7s-6.7-3-6.7-6.7 3-6.7 6.7-6.7 6.7 3 6.7 6.7" fill="#E7E8E9"/>
		<polyline points="-225.8 390.2 -220.4 390.2 -220.4 386.7 -219.2 386.7 -223 383.6 -226.8 386.7 -225.8 386.7 -225.8 390.2 -225.8 390.2" fill="#24A9E2"/>
		<polyline points="-221.9 387.4 -224.1 387.4 -224.1 388.8 -221.9 388.8 -221.9 387.4" fill="#EDF7FD"/>
		<path d="m-243.7 393.9c-3.9 0-7-3.1-7-7s3.1-7 7-7 7 3.1 7 7-3.2 7-7 7z" fill="#BDBEBF"/>
		<circle cx="-243.7" cy="386.9" r="6.7" fill="#E7E8E9"/>
		<line x1="-247.5" x2="-239.9" y1="386.9" y2="386.9" fill="#818185"/>
		<rect x="-247.5" y="386.4" width="7.6" height="1" fill="#818185"/>
		<path d="m-202.3 393.9c-3.9 0-7-3.1-7-7s3.1-7 7-7 7 3.1 7 7-3.1 7-7 7z" fill="#BDBEBF"/>
		<circle cx="-202.3" cy="386.9" r="6.7" fill="#E7E8E9"/>
		<line x1="-206.1" x2="-198.5" y1="386.9" y2="386.9" fill="#818185"/>
		<rect x="-206.1" y="386.4" width="7.6" height="1" fill="#818185"/>
		<line x1="-202.3" x2="-202.3" y1="383.1" y2="390.7" fill="#818185"/>
		<rect x="-202.8" y="383.1" width="1" height="7.6" fill="#818185"/>
		<path d="m-223 472.2c-5.5 0-9.9-4.4-9.9-9.9s4.4-9.9 9.9-9.9 9.9 4.4 9.9 9.9-4.4 9.9-9.9 9.9z" fill="#BDBEBF"/>
		<circle cx="-223" cy="462.4" r="9.6" fill="#E7E8E9"/>
		<polygon points="-222.2 466.3 -223.7 466.3 -223.7 459.3 -225.4 459.7 -225.7 458.2 -222.2 457.5" fill="#796E6E"/>
		<rect x="-225.4" y="465.6" width="5" height="1.5" fill="#796E6E"/>
		<path d="m-223 499.3c-5.5 0-9.9-4.4-9.9-9.9s4.4-9.9 9.9-9.9 9.9 4.4 9.9 9.9-4.4 9.9-9.9 9.9z" fill="#BDBEBF"/>
		<circle cx="-223" cy="489.4" r="9.6" fill="#E7E8E9"/>
		<path d="m-220.4 493.9h-5c-0.3 0-0.6-0.2-0.7-0.5s-0.1-0.6 0.2-0.8l3.6-3.7c0.8-0.8 0.8-1.6 0.4-2.1-0.5-0.6-1.7-0.8-3.3 0.4l-0.9-1.2c2.3-1.7 4.4-1.3 5.3-0.1 0.8 1 0.9 2.8-0.6 4.1l-2.3 2.4h3.2v1.5z" fill="#796E6E"/>
		<rect x="-212.3" y="519.4" width="2" height="9.7" fill="#808184"/>
		<rect x="-212.3" y="515.6" width="2" height="2.1" fill="#808184"/>
		<rect x="-217.2" y="519.4" width="2" height="9.7" fill="#808184"/>
		<rect x="-217.2" y="515.6" width="2" height="2.1" fill="#808184"/>
		<polygon points="-224.5 529.2 -227.3 519.5 -230.1 529.2 -232 529.2 -235.7 516.1 -233.8 515.5 -231 525.3 -228.2 515.5 -226.3 515.5 -223.6 525.3 -220.8 515.5 -218.9 516.1 -222.6 529.2" fill="#808184"/>
		<rect x="-231.8" y="397.3" width=".6" height="4.4" fill="#808184"/>
		<rect x="-229" y="397.3" width=".6" height="4.4" fill="#808184"/>
		<rect x="-231.5" y="399.2" width="2.8" height=".6" fill="#808184"/>
		<path d="m-225.3 401.8c-0.3 0-0.7-0.1-1-0.3-0.7-0.4-1-1.1-1-2s0.4-1.7 1-2.1c0.6-0.3 1.3-0.3 1.9 0 0.7 0.4 1.1 1.2 1.1 2.1s-0.4 1.7-1.1 2c-0.3 0.2-0.6 0.3-0.9 0.3zm0-4c-0.2 0-0.5 0.1-0.7 0.2-0.5 0.3-0.8 0.8-0.7 1.6 0 0.7 0.2 1.2 0.7 1.5 0.4 0.3 0.9 0.3 1.4 0s0.8-0.8 0.8-1.5-0.3-1.3-0.8-1.6c-0.3-0.2-0.5-0.2-0.7-0.2z" fill="#808184"/>
		<polygon points="-218.5 401.7 -219.1 401.7 -219.1 398.6 -220.3 400.8 -220.8 400.8 -221.9 398.6 -221.9 401.7 -222.5 401.7 -222.5 397.3 -222 397.2 -220.5 400 -219.1 397.2 -218.5 397.3" fill="#808184"/>
		<polygon points="-214.5 401.8 -217.3 401.8 -217.3 397.2 -214.5 397.2 -214.5 397.8 -216.7 397.8 -216.7 401.2 -214.5 401.2" fill="#808184"/>
		<rect x="-216.9" y="399.1" width="2.2" height=".6" fill="#808184"/>
		<path d="m-250.9 285.5c-0.3 0-0.7-0.1-1-0.3-0.7-0.4-1-1.1-1-2s0.4-1.7 1-2.1c0.6-0.3 1.3-0.3 1.9 0 0.7 0.4 1.1 1.2 1.1 2.1s-0.4 1.7-1.1 2c-0.2 0.3-0.5 0.3-0.9 0.3zm0-4c-0.2 0-0.5 0.1-0.7 0.2-0.5 0.3-0.8 0.8-0.7 1.6 0 0.7 0.2 1.2 0.7 1.5 0.4 0.3 0.9 0.3 1.4 0s0.8-0.8 0.8-1.5-0.3-1.3-0.8-1.6c-0.2-0.1-0.4-0.2-0.7-0.2z" fill="#808184"/>
		<polygon points="-243.9 285.5 -244.5 285.5 -245.4 282.1 -246.4 285.5 -247 285.5 -248.2 281.1 -247.6 281 -246.7 284.3 -245.7 281 -245.1 281 -244.2 284.3 -243.2 281 -242.7 281.1" fill="#808184"/>
		<polygon points="-239.2 285.5 -242 285.5 -242 281 -239.2 281 -239.2 281.6 -241.4 281.6 -241.4 284.9 -239.2 284.9" fill="#808184"/>
		<rect x="-241.6" y="282.8" width="2.2" height=".6" fill="#808184"/>
		<path d="m-255.7 285.3h-0.6v-4.4h1.4c1 0.1 1.5 0.7 1.5 1.3s-0.5 1.3-1.4 1.4h-0.8v1.7zm0-3.8v1.5h0.8c0.6 0 0.9-0.4 0.9-0.8 0-0.3-0.2-0.7-0.9-0.7h-0.8z" fill="#808184"/>
		<path d="m-237.7 285.3h-0.6v-4.4h1.4c1 0.1 1.5 0.7 1.5 1.3s-0.5 1.3-1.4 1.4h-0.8v1.7zm0-3.8v1.5h0.8c0.6 0 0.9-0.4 0.9-0.8 0-0.3-0.2-0.7-0.9-0.7h-0.8z" fill="#808184"/>
		<path d="m-235.2 285.3h-0.6c0-0.4-0.4-1.5-1.2-1.7l0.1-0.6c1.1 0.2 1.7 1.6 1.7 2.3z" fill="#808184"/>
		<g fill="#D3D3D3">
			<path d="m-249.6 502.7c0 0.5-0.5 0.9-1.1 0.9s-1.1-0.4-1.1-0.9 0.5-0.9 1.1-0.9 1.1 0.4 1.1 0.9"/>
			<path d="m-203 502.7c0 0.5-0.5 0.9-1.1 0.9s-1.1-0.4-1.1-0.9 0.5-0.9 1.1-0.9 1.1 0.4 1.1 0.9"/>
			<path d="m-199.8 502.7c0 0.5-0.5 0.9-1.1 0.9s-1.1-0.4-1.1-0.9 0.5-0.9 1.1-0.9 1.1 0.4 1.1 0.9"/>
			<path d="m-196.6 502.7c0 0.5-0.5 0.9-1.1 0.9s-1.1-0.4-1.1-0.9 0.5-0.9 1.1-0.9 1.1 0.4 1.1 0.9"/>
			<path d="m-193.4 502.7c0 0.5-0.5 0.9-1.1 0.9s-1.1-0.4-1.1-0.9 0.5-0.9 1.1-0.9 1.1 0.4 1.1 0.9"/>
			<path d="m-218.6 502.7c0 0.5-0.5 0.9-1.1 0.9s-1.1-0.4-1.1-0.9 0.5-0.9 1.1-0.9c0.7 0 1.1 0.4 1.1 0.9"/>
			<path d="m-215.4 502.7c0 0.5-0.5 0.9-1.1 0.9s-1.1-0.4-1.1-0.9 0.5-0.9 1.1-0.9 1.1 0.4 1.1 0.9"/>
			<path d="m-212.2 502.7c0 0.5-0.5 0.9-1.1 0.9s-1.1-0.4-1.1-0.9 0.5-0.9 1.1-0.9 1.1 0.4 1.1 0.9"/>
			<path d="m-234.1 502.7c0 0.5-0.5 0.9-1.1 0.9s-1.1-0.4-1.1-0.9 0.5-0.9 1.1-0.9 1.1 0.4 1.1 0.9"/>
			<path d="m-230.9 502.7c0 0.5-0.5 0.9-1.1 0.9s-1.1-0.4-1.1-0.9 0.5-0.9 1.1-0.9 1.1 0.4 1.1 0.9"/>
		</g>
	
	
		<path d="m-346.3 537.5c-19.9 0-25.8-53.4-31.6-105-1-8.7-2-17.7-3-26.2-4.9-39.5 3.9-58.9 12.2-68.2 6.6-7.5 15.3-11.4 25.2-11.4s18.6 3.9 25.2 11.4c8.2 9.3 17 28.7 12.2 68.2-1 8.5-2 17.5-3 26.2-5.7 51.6-11.7 105-31.6 105h-5.6z" fill="#BFBFBF"/>
		<path d="m-340.7 537h-5.6c-22.8 0-27-73.5-34.1-130.7-7.1-57.5 14-79 36.9-79 22.8 0 43.9 21.6 36.9 79-7.1 57.2-11.3 130.7-34.1 130.7z" fill="#F1F1F2"/>
		<polygon points="-358.1 389.8 -364.6 374.1 -358.1 358.3 -342.3 351.8 -326.6 358.3 -320.1 374.1 -326.6 389.8 -342.3 396.4" fill="#E0E1E2"/>
		<polygon points="-355.7 387.4 -361.2 374.1 -355.7 360.7 -342.3 355.2 -329 360.7 -323.5 374.1 -329 387.4 -342.3 392.9" fill="#727275"/>
		<polygon points="-342.3 392.4 -355.3 387 -360.6 374.1 -355.3 361.1 -342.3 355.8 -329.4 361.1 -324 374.1 -329.4 387" fill="#E7E8E9"/>
		
			<circle cx="-342.3" cy="374.1" r="15" fill="#D6D6D6"/>
			<circle cx="-342.3" cy="374.1" r="13.5" fill="#ddd"/>
			<circle cx="-342.3" cy="374.1" r="12.1" fill="#E2E2E2"/>
			<circle cx="-342.3" cy="374.1" r="10.9" fill="#E5E5E5"/>
			<circle cx="-342.3" cy="374.1" r="9.8" fill="#E5E5E5"/>
			<circle cx="-342.3" cy="374.1" r="8.9" fill="#E5E5E5"/>
			<circle cx="-342.3" cy="374.1" r="8" fill="#E5E5E5"/>
			<circle cx="-342.3" cy="374.1" r="7.2" fill="#D6D6D6"/>
			<circle cx="-342.3" cy="374.1" r="6.5" fill="#F1F1F2"/>
		
	

</svg>
