<?xml version="1.0" encoding="UTF-8"?>
<!-- Generator: Adobe Illustrator 19.0.0, SVG Export Plug-In . SVG Version: 6.00 Build 0)  -->
<svg id="svg2" width="334.5" height="631" version="1.1" viewBox="-382.3 255.5 334.5 631" xml:space="preserve" xmlns="http://www.w3.org/2000/svg" xmlns:cc="http://creativecommons.org/ns#" xmlns:dc="http://purl.org/dc/elements/1.1/" xmlns:rdf="http://www.w3.org/1999/02/22-rdf-syntax-ns#" xmlns:xlink="http://www.w3.org/1999/xlink"><defs id="defs223"><linearGradient id="linearGradient276042"><stop id="stop276038" stop-color="#fff" stop-opacity=".99976" offset="0"/><stop id="stop276040" stop-color="#bababa" offset="1"/></linearGradient><linearGradient id="linearGradient126236" x1="-62.653" x2="-62.653" y1="300.93" y2="330.22" gradientTransform="translate(633.16 -239.3)" gradientUnits="userSpaceOnUse"><stop id="stop126230" stop-color="#adb9c9" offset="0"/><stop id="stop126232" stop-opacity=".99877" offset="1"/></linearGradient><linearGradient id="linearGradient258306" x1="96.876" x2="106.64" y1="582.74" y2="594.52" gradientTransform="translate(633.16 -239.3)" gradientUnits="userSpaceOnUse"><stop id="stop258300" stop-color="#959595" offset="0"/><stop id="stop258302" stop-color="#fff" offset="1"/></linearGradient><linearGradient id="linearGradient276044" x1="166.77" x2="185.14" y1="404.56" y2="429.5" gradientTransform="translate(633.16 -239.3)" gradientUnits="userSpaceOnUse" xlink:href="#linearGradient276042"/><linearGradient id="linearGradient280584" x1="166.77" x2="185.14" y1="404.56" y2="429.5" gradientTransform="translate(605.95 -214.58)" gradientUnits="userSpaceOnUse" xlink:href="#linearGradient276042"/><linearGradient id="linearGradient280607" x1="166.77" x2="185.14" y1="404.56" y2="429.5" gradientTransform="translate(659.87 -214.58)" gradientUnits="userSpaceOnUse" xlink:href="#linearGradient276042"/><linearGradient id="linearGradient280630" x1="166.77" x2="185.14" y1="404.56" y2="429.5" gradientTransform="translate(633.16 -189.86)" gradientUnits="userSpaceOnUse" xlink:href="#linearGradient276042"/><linearGradient id="linearGradient281274" x1="166.77" x2="185.14" y1="404.56" y2="429.5" gradientTransform="matrix(.69279 0 0 .69279 658.99 -23)" gradientUnits="userSpaceOnUse" xlink:href="#linearGradient276042"/><linearGradient id="linearGradient281310" x1="166.77" x2="185.14" y1="404.56" y2="429.5" gradientTransform="matrix(.69279 0 0 .69279 658.99 9.0211)" gradientUnits="userSpaceOnUse" xlink:href="#linearGradient276042"/><linearGradient id="linearGradient291441" x1="166.77" x2="185.14" y1="404.56" y2="429.5" gradientTransform="matrix(.8905 0 0 .8905 415.43 -18.995)" gradientUnits="userSpaceOnUse" xlink:href="#linearGradient276042"/><linearGradient id="linearGradient293580" x1="165.1" x2="181.02" y1="403.26" y2="424.85" gradientTransform="matrix(1.8066 0 0 1.8066 -2.8509 -622.33)" gradientUnits="userSpaceOnUse" xlink:href="#linearGradient276042"/><linearGradient id="linearGradient296782" x1="165.1" x2="181.02" y1="403.26" y2="424.85" gradientTransform="matrix(1.8066 0 0 1.8066 517.69 -622.33)" gradientUnits="userSpaceOnUse" xlink:href="#linearGradient276042"/></defs>
<title id="title3021">Wii controller</title>


<metadata id="metadata1040"><rdf:RDF><cc:Work rdf:about=""><dc:title>Wii controller</dc:title></cc:Work></rdf:RDF></metadata><g id="g367552"><path id="rect1439-5-9-2" d="m-48.157 808.99c-2.6369 18.319-7.9605 33.431-16.322 44.658-9.1943 12.345-19.064 19.221-30.081 24.156-1.7094 0.76573-3.3864-2.3153-3.3864-2.3153s9.1142-4.3596 17.925-11.011c4.9769-3.7572 9.8451-8.8882 12.948-12.793 7.2938-9.1797 12.945-25.741 15.642-42.711l0.33838-2.1296s3.1648 0.5675 2.9378 2.145z" fill="#cdcdcd" stop-color="#000000" stroke="#7a7a7a" stroke-width=".442"/><path id="rect1439-5-9" d="m-48.157 333.04c-2.6369-18.319-7.9605-33.431-16.322-44.658-9.1943-12.345-19.064-19.221-30.081-24.156-1.7094-0.76573-3.3864 2.3153-3.3864 2.3153s9.1142 4.3596 17.925 11.011c4.9769 3.7572 9.8451 8.8882 12.948 12.793 7.2937 9.1797 12.945 25.741 15.642 42.711l0.33838 2.1296s3.1648-0.5675 2.9378-2.145z" fill="#cdcdcd" stop-color="#000000" stroke="#7a7a7a" stroke-width=".442"/><path id="rect1439" d="m-49.061 356.24c0-22.837-6.8866-53.267-17.734-66.908-21.169-26.62-58.69-33.511-73.008-33.537l-145.13-0.26572c-18.908-0.0345-49.798 5.3408-70.326 26.236-19.369 19.715-26.916 56.93-26.916 91.393v395.68c0 34.463 7.547 71.678 26.916 91.393 20.528 20.895 51.418 26.27 70.326 26.236l145.13-0.26572c14.318-0.0262 51.839-6.9167 73.008-33.537 10.848-13.641 17.734-44.071 17.734-66.908v-214.76z" fill="#e8e8e8" stop-color="#000000" stroke-width="2.2414"/><circle id="path5752-4-5" transform="rotate(90)" cx="311.58" cy="126.7" r="33.868" fill="#d6d6d6" stop-color="#000000"/><circle id="path5752-2" transform="rotate(90)" cx="311.58" cy="126.7" r="24.293" fill="#4d4d4d" stop-color="#000000"/><circle id="path16171-61-1" transform="rotate(90)" cx="311.58" cy="126.7" r="21.292" fill="url(#linearGradient293580)" stop-color="#000000"/><rect id="rect3989-7" transform="rotate(90)" x="397.55" y="116.72" width="346.9" height="198.97" rx="5.0794" ry="4.9889" fill="#c4c4c4" stop-color="#000000"/><rect id="rect3465" transform="rotate(90)" x="401.97" y="120.52" width="338.05" height="191.37" fill="#262626" stop-color="#000000" stroke="#090909" stroke-linecap="square" stroke-width="2.2598"/><rect id="rect3989" transform="rotate(90)" x="392.77" y="112.12" width="356.45" height="208.17" rx="5.2192" ry="5.2195" fill="none" stop-color="#000000" stroke="#323232" stroke-linecap="square" stroke-width=".567"/><rect id="rect4728" transform="rotate(90)" x="481.53" y="67.036" width="178.95" height="21.427" rx="10.739" ry="10.713" fill="url(#linearGradient126236)" stop-color="#000000" stroke="#090909" stroke-linecap="square" stroke-width=".779"/><circle id="path4850" transform="rotate(90)" cx="571" cy="77.903" r="8.5936" fill="#000100" stop-color="#000000"/><circle id="path4850-5" transform="rotate(90)" cx="571" cy="77.903" r="5.4789" fill="#7e848e" stop-color="#000000"/><circle id="path4850-5-3" transform="rotate(90)" cx="571" cy="77.903" r="3.7005" fill="#51555c" stop-color="#000000"/><circle id="path4850-5-3-5" transform="rotate(90)" cx="571" cy="77.903" r="2.4593" fill="#b6bac0" stop-color="#000000"/><circle id="path4850-5-3-5-6" transform="rotate(90)" cx="571" cy="77.903" r=".80331" stop-color="#000000"/><circle id="path5752-2-9-1" transform="rotate(90)" cx="311.58" cy="126.7" r="14.635" fill="none" stop-color="#000000" stroke="#9e9e9e" stroke-linecap="square" stroke-width=".849"/><circle id="path5752-4-5-9" transform="rotate(90)" cx="832.12" cy="126.7" r="33.868" fill="#d6d6d6" stop-color="#000000"/><circle id="path5752-2-0" transform="rotate(90)" cx="832.12" cy="126.7" r="24.293" fill="#4d4d4d" stop-color="#000000"/><circle id="path16171-61-1-9" transform="rotate(90)" cx="832.12" cy="126.7" r="21.292" fill="url(#linearGradient296782)" stop-color="#000000"/><circle id="path5752-2-9-1-1" transform="rotate(90)" cx="832.12" cy="126.7" r="14.635" fill="none" stop-color="#000000" stroke="#9e9e9e" stroke-linecap="square" stroke-width=".849"/><path id="rect7157" d="m-170.22 329.02c0-1.266-1.0457-2.2852-2.3438-2.2852h-16.982v-16.982c0-1.2981-1.0192-2.3418-2.2852-2.3418h-16.369c-1.266 0-2.2852 1.0437-2.2852 2.3418v16.982h-16.982c-1.2981 0-2.3438 1.0192-2.3438 2.2852v16.371c0 1.266 1.0457 2.2852 2.3438 2.2852h16.982v16.982c0 1.2981 1.0192 2.3418 2.2852 2.3418h16.369c1.266 0 2.2852-1.0437 2.2852-2.3418v-16.982h16.982c1.2981 0 2.3438-1.0192 2.3438-2.2852z" fill="#4a4a4a" stop-color="#000000"/><path id="rect6567" d="m-171.4 331.18c0-1.6594-1.3286-2.9961-2.9785-2.9961h-16.617v-16.617c0-1.6499-1.3367-2.9785-2.9961-2.9785h-12.053c-1.6594 0-2.9961 1.3286-2.9961 2.9785v16.617h-16.617c-1.6499 0-2.9785 1.3367-2.9785 2.9961v12.053c0 1.6594 1.3286 2.9941 2.9785 2.9941h16.617v16.619c0 1.6499 1.3367 2.9766 2.9961 2.9766h12.053c1.6594 0 2.9961-1.3266 2.9961-2.9766v-16.619h16.617c1.6499 0 2.9785-1.3348 2.9785-2.9941z" fill="#e3e3e3" stop-color="#000000"/><rect id="rect8607" transform="rotate(90)" x="336.39" y="178.78" width="1.6425" height="10.415" rx=".82123" ry=".87695" fill="#797979" stop-color="#000000"/><rect id="rect8607-8" transform="rotate(90)" x="336.39" y="210.84" width="1.6425" height="10.415" rx=".82123" ry=".87695" fill="#797979" stop-color="#000000"/><rect id="rect8607-9" transform="scale(-1)" x="199.2" y="-358.45" width="1.6425" height="10.415" rx=".82123" ry=".87695" fill="#797979" stop-color="#000000"/><rect id="rect8607-8-2" transform="scale(-1)" x="199.2" y="-326.38" width="1.6425" height="10.415" rx=".82123" ry=".87695" fill="#797979" stop-color="#000000"/><circle id="path5072-5-0" transform="rotate(90)" cx="570.51" cy="350.11" r="13.05" fill="#6592fe" stroke="#4b4b4b" stroke-linecap="round" stroke-linejoin="round" stroke-width=".55212" style="paint-order:normal"/><circle id="path16171-6-7" transform="rotate(90)" cx="570.41" cy="350.2" r="10.495" fill="url(#linearGradient291441)" stop-color="#000000"/><path id="rect6224-2-3" d="m-343.7 570.46-5.771-6.1701v1.5528h-5.8889v9.1504h5.8889v1.5528zm-6.5108-2.0414v3.9983h-3.2621v-3.9983z" fill="#898d89" style="paint-order:normal"/><g id="g87932" transform="matrix(0 .13108 -.13108 0 -295.17 306.98)" fill="#898d89"><g id="g10" transform="translate(696.57 359.38)"><path id="path6-2" d="m300.68 38.038c0 25.394 29.982 21.766 29.982 4.001v-42.039h-29.982z"/><path id="path8" d="m259.33 64.712c0 12.537 8.643 20.006 21.34 20.006h72.021c10.723 0 19.366-7.362 19.366-18.032v-52.655c0-6.402-4.748-13.337-10.67-13.337h-16.698v43.319c0 32.916-57.35 32.65-57.35 0.694v-44.707h-12.697c-8.269 0-15.365 5.228-15.365 13.337z"/></g><g id="g14" transform="translate(696.57 359.38)"><path id="path12" d="m159.62 12.591c0 6.829 5.762 12.59 12.964 12.59 7.576 0 13.497-5.602 13.497-12.59 0-7.042-5.922-12.59-13.497-12.59-7.202-0.054-12.964 5.548-12.964 12.59zm24.487 97.255v-72.235h-22.3v72.235zm20.753-97.255c0 6.829 5.922 12.59 13.177 12.59 7.362 0 13.337-5.602 13.337-12.59 0-7.042-5.922-12.59-13.337-12.59-7.255-0.054-13.177 5.548-13.177 12.59zm24.487 97.255v-72.235h-22.353v72.235zm-103.07-103.76-19.472 76.556s-14.938-57.457-17.498-65.779c-2.348-8.109-7.363-11.684-14.405-11.684-7.202 0-12.057 3.628-14.618 11.683-2.347 8.269-17.285 65.779-17.285 65.779l-19.579-76.555h-23.42s22.513 81.624 25.608 91.173c2.347 7.362 8.109 13.337 16.378 13.337 9.71 0 14.244-7.042 16.218-13.337 2.187-6.509 16.752-60.338 16.752-60.338s14.617 53.883 16.591 60.339c2.187 6.295 6.669 13.337 16.218 13.337 8.482 0 14.031-5.922 16.592-13.337 3.041-9.549 25.608-91.173 25.608-91.173z" fill="#898d89"/></g></g><rect id="rect10048" transform="rotate(90)" x="356" y="347.03" width="12.428" height="4.8531" rx="2.3208" ry="2.3665" fill="#1f1f1f" stop-color="#000000"/><rect id="rect10048-0" transform="rotate(90)" x="772.48" y="347.03" width="12.428" height="4.8531" rx="2.3208" ry="2.3665" fill="#1f1f1f" stop-color="#000000"/><rect id="rect10463" transform="rotate(90)" x="325.02" y="271.74" width="24.997" height="15.429" rx="2.1475" ry="2.1547" fill="none" opacity=".45245" stop-color="#000000" stroke="#0e0e0e" stroke-linecap="square" stroke-width="1.2609"/><path id="rect10463-7" d="m-269.02 326.19h-0.84863v22.594c0 2.0017-1.6166 3.5996-3.6392 3.5996h-12.706v0.83985h12.706c2.4782 0 4.4878-1.9869 4.4878-4.4395z" color="#000000" fill="#0e0e0e" opacity=".45245" stroke-linecap="square" stroke-width="1.0052" style="-inkscape-stroke:none"/><circle id="path16171" transform="rotate(90)" cx="807.21" cy="175.3" r="11.785" fill="url(#linearGradient276044)" stop-color="#000000" stroke="#4d4d4d" stroke-linecap="square" stroke-width=".97749"/><circle id="path16171-6" transform="rotate(90)" cx="780" cy="200.02" r="11.785" fill="url(#linearGradient280584)" stop-color="#000000" stroke="#4d4d4d" stroke-linecap="square" stroke-width=".97749"/><circle id="path16171-2" transform="rotate(90)" cx="833.91" cy="200.02" r="11.785" fill="url(#linearGradient280607)" stop-color="#000000" stroke="#4d4d4d" stroke-linecap="square" stroke-width=".97749"/><circle id="path16171-49" transform="rotate(90)" cx="807.21" cy="224.74" r="11.785" fill="url(#linearGradient280630)" stop-color="#000000" stroke="#4d4d4d" stroke-linecap="square" stroke-width=".97749"/><circle id="path16171-49-4" transform="rotate(90)" cx="779.57" cy="264.23" r="8.1649" fill="url(#linearGradient281274)" stop-color="#000000" stroke="#4d4d4d" stroke-linecap="square" stroke-width=".6772"/><circle id="path16171-49-4-1" transform="rotate(90)" cx="779.57" cy="296.25" r="8.1649" fill="url(#linearGradient281310)" stop-color="#000000" stroke="#4d4d4d" stroke-linecap="square" stroke-width=".6772"/><g id="text5855-3" transform="matrix(0 .94216 -.87755 0 -79.523 346.98)" fill="#4e4e4e" aria-label="X"><path id="path5976-6" d="m491.64 105.19-2.6564 3.6606 3.071 4.2269-0.65389 0.47874-2.9192-4.0168-2.9192 4.0168-0.65389-0.47874 3.071-4.2269-2.6564-3.6606 0.65389-0.47874 2.5046 3.4446 2.5046-3.4446z" fill="#4e4e4e" stroke-width=".29892"/></g><g id="text5855-2-1-4" transform="matrix(0 .96689 -.89168 0 -86.472 324.06)" fill="#4e4e4e" aria-label="Y"><path id="path5970-2-5" d="m468.71 122.99 2.8257 4.2912 2.8374-4.2853 0.67724 0.44371-3.1118 4.7057v3.5497h-0.80568v-3.5555l-3.1001-4.7057z" fill="#4e4e4e" stroke-width=".29892"/></g><g id="text5855-2-9-9-0" transform="matrix(0 .98244 -.90689 0 -84.536 337.54)" fill="#4e4e4e" aria-label="A"><path id="path5973-3-3" d="m504.75 123.06h0.78233l3.5555 8.559h-0.87574l-1.0742-2.5922h-3.8533l-1.0159 2.5922h-0.85823zm0.40284 1.1852q-0.39116 1.01-0.78233 1.9967-0.38533 0.98084-0.77066 1.9792h3.1994z" fill="#4e4e4e" stroke-width=".29892"/></g><g id="text5855-2-9-0-1" transform="matrix(0 .89387 -.90631 0 -92.702 370.33)" fill="#4e4e4e" aria-label="B"><path id="path5967-9" d="m488.52 150.02-1.045 6e-3h-1.804v-8.5648h3.2344q1.0567 0 1.7748 0.60718 0.71811 0.60719 0.71811 1.623 0 1.0159-1.0159 1.7807 0.65972 0.30943 1.045 0.88742t0.38533 1.2669q0 1.121-0.99251 1.804-0.85823 0.58967-1.8683 0.58967zm-2.0434-4.046v3.2403h2.4754q0.73563 0 1.3954-0.42619 0.65972-0.4262 0.65972-1.1385 0-0.71228-0.57215-1.1969t-1.4362-0.47874zm0-0.80568h2.5222q0.5488 6e-3 1.0742-0.44372 0.52545-0.44955 0.52545-1.0684t-0.49042-1.0042q-0.49041-0.38532-1.2027-0.38532h-2.4287z" fill="#4e4e4e" stroke-width=".29892"/></g><path id="rect17595" d="m-261.21 778.98h-2.4316v-2.4297h-1.1777v2.4297h-2.4316v1.1797h2.4316v2.4297h1.1777v-2.4297h2.4316z" fill="#4e4e4e" stop-color="#000000"/><rect id="rect17595-6" transform="rotate(90)" x="776.55" y="295.66" width="6.0398" height="1.1786" rx="0" ry="0" fill="#4e4e4e" stop-color="#000000"/><circle id="path18974" transform="rotate(90)" cx="735.76" cy="350.54" r="8.8095" fill="url(#linearGradient258306)" stop-color="#000000"/><circle id="path18974-6" transform="rotate(90)" cx="735.76" cy="350.54" r="7.0452" fill="#e8e8e8" stop-color="#000000" stroke="#4d4d4d" stroke-linecap="square" stroke-width=".662"/><g id="g1088" transform="matrix(0 .50469 -.50469 0 -235.63 714.73)" fill="#b44651"><path id="path4-1" d="m40.806 223.89v3.9785h1.7026v-7.9572h-1.7026z" stroke-width=".0017036"/><path id="path6-5" d="m38.572 222.4c-1.3742 0.70138-2.4322 1.7674-3.0971 3.1294-0.30392 0.61625-0.46611 1.0946-0.59579 1.7309-0.08101 0.3973-0.09322 0.57566-0.0891 1.3297 0 0.97692 0.05676 1.3378 0.32437 2.1485 0.57154 1.7229 1.8606 3.1943 3.5226 4.0253 1.5607 0.77431 3.4781 0.904 5.1887 0.34451 1.3904-0.44994 2.7323-1.4755 3.5754-2.7321 0.3973-0.58787 0.7621-1.4026 0.94046-2.1038 0.28379-1.135 0.27158-2.4767-0.04059-3.5673-0.45406-1.589-1.4432-2.943-2.8214-3.8795-0.29996-0.19865-1.1188-0.6405-1.1917-0.6405-0.02029 0-0.03646 0.41759-0.03646 0.93237v0.92826l0.29584 0.20261c1.1959 0.81077 1.9944 2.0391 2.2376 3.4335 0.07705 0.45406 0.07705 1.285 0 1.7432-0.12969 0.74181-0.40539 1.431-0.83503 2.0715-0.27158 0.40935-0.98104 1.1148-1.3945 1.3864-1.4797 0.96884-3.2551 1.1512-4.8645 0.49053-1.6539-0.67301-2.8781-2.2054-3.1619-3.9484-0.07705-0.4742-0.07705-1.2972 0-1.7432 0.23924-1.358 1.0418-2.6146 2.1728-3.389l0.36084-0.24732v-0.93238c0-0.51081-0.01617-0.92825-0.03646-0.92825-0.01617 1.6e-4 -0.22291 0.0974-0.45406 0.21498z" stroke-width=".0015854"/></g><circle id="path19408" transform="rotate(90)" cx="671.53" cy="350.14" r="1.9395" stop-color="#000000"/><circle id="path19534" transform="rotate(90)" cx="533.46" cy="349.75" r="1.0979" stop-color="#000000"/><rect id="rect19884" transform="rotate(90)" x="696.14" y="342.94" width="14.804" height="14.804" rx="3.8029" ry="3.8029" fill="#e8e8e8" stop-color="#000000" stroke="#4d4d4d" stroke-linecap="square" stroke-width=".85108"/><g id="text24753" transform="rotate(90 -196.93 436.23)" fill="#767676" stroke-width=".69356" aria-label="MIC "><path id="path44405" d="m-104.39 609.84h0.69356v-2.5856l1.0154 1.9919h0.5493l1.032-2.064v2.6577h0.69356v-3.8507h-0.69356l-1.2706 2.4968-1.315-2.4968h-0.70466z"/><path id="path44407" d="m-99.506 609.84h0.72685v-3.8507h-0.72685z"/><path id="path44409" d="m-96.138 609.9c0.39394 0 0.82673-0.0999 1.1596-0.26078l-0.16091-0.51601c-0.24968 0.0943-0.5604 0.14981-0.82673 0.14981-0.84337 0-1.3705-0.55485-1.3705-1.4204 0-0.81563 0.47717-1.2817 1.2873-1.2817 0.30517 0 0.65472 0.061 0.9044 0.16091l0.19975-0.55485c-0.32736-0.15536-0.70466-0.23859-1.0875-0.23859-1.2151 0-2.0474 0.80454-2.0474 2.0141 0 1.1652 0.78789 1.9475 1.942 1.9475z"/></g><g id="text24753-5" transform="matrix(0 .99552 -1.0045 0 239.3 633.16)" fill="#767676" stroke-width=".69046" aria-label="HOME"><path id="path44388" d="m-71.033 607.11h0.7236v-1.646h1.762v1.646h0.71807v-3.8334h-0.71807v1.5522h-1.762v-1.5522h-0.7236z"/><path id="path44390" d="m-65.294 607.16c1.1544 0 1.9222-0.80093 1.9222-1.9996 0-1.16-0.74569-1.9388-1.8615-1.9388-1.1434 0-1.9001 0.80093-1.9001 1.9996 0 1.1655 0.73465 1.9388 1.8394 1.9388zm0.06076-0.62417c-0.69598 0-1.1544-0.54684-1.1544-1.3754 0-0.78988 0.43637-1.3091 1.0937-1.3091 0.71255 0 1.1765 0.54132 1.1765 1.3699 0 0.78988-0.44189 1.3146-1.1158 1.3146z"/><path id="path44392" d="m-62.676 607.11h0.69046v-2.574l1.0108 1.983h0.54684l1.0274-2.0548v2.6458h0.69046v-3.8334h-0.69046l-1.2649 2.4856-1.3091-2.4856h-0.7015z"/><path id="path44394" d="m-57.815 607.11h2.5851v-0.62418h-1.8725v-1.0274h1.7179v-0.62418h-1.7179v-0.93349h1.8725v-0.62418h-2.5851z"/></g><g id="text24753-5-7" transform="matrix(0 .98986 -1.0102 0 239.3 633.16)" fill="#767676" stroke-width=".68653" aria-label="BATTERY"><path id="path44263" d="m27.136 603.66h1.428c0.91721 0 1.4994-0.45586 1.4994-1.1808 0-0.47782-0.25814-0.82384-0.69203-0.97762 0.23617-0.16477 0.38446-0.43938 0.38446-0.74695 0-0.58767-0.47783-0.90622-1.3566-0.90622h-1.2632zm0.70301-3.2404h0.50529c0.45037 0 0.69203 0.18674 0.69203 0.51628 0 0.19772-0.09337 0.3515-0.30757 0.47233h-0.88975zm0 2.6692v-1.1259h0.82384c0.41192 0 0.66456 0.24166 0.66456 0.60964 0 0.35151-0.2142 0.51628-0.67555 0.51628z"/><path id="path44265" d="m30.261 603.66h0.75244l0.31306-0.95565h1.4609l0.30757 0.95565h0.7854l-1.3181-3.8116h-0.91172zm1.2687-1.5873 0.52726-1.6147 0.52726 1.6147z"/><path id="path44267" d="m35.149 603.66h0.69752v-3.191h1.2303v-0.62062h-3.1526v0.62062h1.2248z"/><path id="path44269" d="m38.395 603.66h0.69752v-3.191h1.2303v-0.62062h-3.1526v0.62062h1.2248z"/><path id="path44271" d="m40.817 603.66h2.5704v-0.62063h-1.8619v-1.0216h1.7081v-0.62062h-1.7081v-0.9282h1.8619v-0.62062h-2.5704z"/><path id="path44273" d="m44.123 603.66h0.7085v-1.4225h0.6426l0.81286 1.4225h0.8513l-0.95566-1.5708c0.44487-0.2087 0.714-0.62062 0.714-1.1314 0-0.70301-0.51078-1.1094-1.3511-1.1094h-1.4225zm1.3291-3.1965c0.44487 0 0.7085 0.22518 0.7085 0.60415 0 0.357-0.21969 0.5712-0.61513 0.5712h-0.714v-1.1754z"/><path id="path44275" d="m48.621 603.66h0.70301v-1.4939l1.3511-2.3177h-0.7854l-0.89524 1.6916-0.93918-1.6916h-0.83482l1.4005 2.3068z"/></g><g id="text24753-5-7-5" transform="matrix(0 .97791 -1.0226 0 239.3 633.16)" fill="#767676" stroke-width=".67824" aria-label="CONTROL"><path id="path44292" d="m61.264 596.42c0.38524 0 0.80846-0.0977 1.134-0.25502l-0.15735-0.50461c-0.24417 0.0922-0.54802 0.1465-0.80846 0.1465-0.82474 0-1.3402-0.54259-1.3402-1.389 0-0.79761 0.46663-1.2534 1.2588-1.2534 0.29843 0 0.64026 0.0597 0.88443 0.15735l0.19533-0.54259c-0.32013-0.15193-0.68909-0.23332-1.0635-0.23332-1.1883 0-2.0022 0.78676-2.0022 1.9696 0 1.1394 0.77048 1.9045 1.8991 1.9045z"/><path id="path44294" d="m64.644 596.42c1.134 0 1.8882-0.78676 1.8882-1.9642 0-1.1394-0.7325-1.9045-1.8285-1.9045-1.1232 0-1.8665 0.78676-1.8665 1.9642 0 1.1449 0.72165 1.9045 1.8068 1.9045zm0.05969-0.61313c-0.68367 0-1.134-0.53717-1.134-1.3511 0-0.77591 0.42865-1.286 1.0743-1.286 0.69995 0 1.1557 0.53174 1.1557 1.3456 0 0.77591-0.43408 1.2914-1.096 1.2914z"/><path id="path44296" d="m67.216 596.37h0.66196v-2.8106l1.8502 2.8106h0.78134v-3.7656h-0.66739l-0.0054 2.7998-1.8177-2.7998h-0.80304z"/><path id="path44298" d="m72.202 596.37h0.68909v-3.1525h1.2154v-0.61313h-3.1145v0.61313h1.21z"/><path id="path44300" d="m74.595 596.37h0.69995v-1.4053h0.63483l0.80304 1.4053h0.84102l-0.94411-1.5518c0.4395-0.20618 0.70537-0.61313 0.70537-1.1177 0-0.69452-0.50461-1.096-1.3348-1.096h-1.4053zm1.3131-3.1579c0.4395 0 0.69995 0.22246 0.69995 0.59685 0 0.35269-0.21704 0.5643-0.6077 0.5643h-0.70537v-1.1612z"/><path id="path44302" d="m79.712 596.42c1.134 0 1.8882-0.78676 1.8882-1.9642 0-1.1394-0.7325-1.9045-1.8285-1.9045-1.1232 0-1.8665 0.78676-1.8665 1.9642 0 1.1449 0.72165 1.9045 1.8068 1.9045zm0.05969-0.61313c-0.68367 0-1.134-0.53717-1.134-1.3511 0-0.77591 0.42865-1.286 1.0743-1.286 0.69995 0 1.1557 0.53174 1.1557 1.3456 0 0.77591-0.43408 1.2914-1.096 1.2914z"/><path id="path44304" d="m82.284 596.37h2.3223v-0.61855h-1.6224v-3.147h-0.69995z"/></g><g id="text24753-5-7-5-5" transform="matrix(0 .99437 -1.0057 0 239.3 633.16)" fill="#1f9ebb" stroke-width="1.091" aria-label="T"><path id="path44253" d="m67.107 589.66h1.1084v-5.0709h1.9551v-0.98626h-5.0098v0.98626h1.9463z" fill="#1f9ebb"/></g><g id="text24753-5-7-5-5-7" transform="matrix(0 .96307 -1.0383 0 239.3 633.16)" fill="#1f9ebb" stroke-width="1.0566" aria-label="V"><path id="path44258" d="m75.273 571.1h1.1327l2.1133-5.8665h-1.1158l-1.5131 4.5732-1.454-4.5732h-1.268z" fill="#1f9ebb"/></g><g id="text24753-5-7-5-9" transform="matrix(0 .97791 -1.0226 0 239.3 633.16)" fill="#767676" stroke-width=".67824" aria-label="POWER"><path id="path44321" d="m95.225 596.37h0.69995v-1.21h0.47206c0.93326 0 1.5518-0.52632 1.5518-1.3294 0-0.7542-0.55345-1.2263-1.4324-1.2263h-1.2914zm1.2263-3.1525c0.4612 0 0.77591 0.28215 0.77591 0.69995 0 0.40694-0.26044 0.63483-0.70537 0.63483h-0.59685v-1.3348z"/><path id="path44323" d="m100.14 596.42c1.134 0 1.8882-0.78676 1.8882-1.9642 0-1.1394-0.73251-1.9045-1.8286-1.9045-1.1232 0-1.8665 0.78676-1.8665 1.9642 0 1.1449 0.72165 1.9045 1.8068 1.9045zm0.0597-0.61313c-0.68366 0-1.134-0.53717-1.134-1.3511 0-0.77591 0.42865-1.286 1.0743-1.286 0.69995 0 1.1557 0.53174 1.1557 1.3456 0 0.77591-0.43407 1.2914-1.096 1.2914z"/><path id="path44325" d="m103.4 596.37h0.74336l0.81931-2.8432 0.88443 2.8432h0.72708l1.096-3.7656h-0.70537l-0.73793 2.8378-0.84102-2.8161h-0.77049l-0.81389 2.8758-0.71622-2.8974h-0.79761z"/><path id="path44327" d="m108.13 596.37h2.5393v-0.61313h-1.8394v-1.0092h1.6875v-0.61313h-1.6875v-0.91699h1.8394v-0.61313h-2.5393z"/><path id="path44329" d="m111.4 596.37h0.69994v-1.4053h0.63483l0.80304 1.4053h0.84102l-0.94412-1.5518c0.4395-0.20618 0.70538-0.61313 0.70538-1.1177 0-0.69452-0.50462-1.096-1.3348-1.096h-1.4053zm1.3131-3.1579c0.4395 0 0.69995 0.22246 0.69995 0.59685 0 0.35269-0.21704 0.5643-0.60771 0.5643h-0.70537v-1.1612z"/></g><g id="text24753-5-7-5-9-7" transform="matrix(0 .99268 -1.0074 0 239.3 633.16)" fill="#767676" stroke-width=".68849" aria-label="SELECT"><path id="path44342" d="m138.28 547.64c0.93083 0 1.4926-0.46266 1.4926-1.1787 0-1.3825-2.0104-0.9033-2.0104-1.6744 0-0.29192 0.26438-0.45716 0.74357-0.45716 0.31395 0 0.66095 0.0606 0.93634 0.16524l0.2038-0.56181c-0.32497-0.1432-0.72154-0.22582-1.1016-0.22582-0.9088 0-1.5202 0.46817-1.5202 1.1897 0 1.3054 2.0049 0.87575 2.0049 1.6524 0 0.2809-0.24785 0.45165-0.71603 0.45165-0.347 0-0.7711-0.0771-1.1512-0.23684l-0.20379 0.57282c0.40758 0.18727 0.88126 0.30293 1.3219 0.30293z"/><path id="path44344" d="m140.38 547.59h2.5777v-0.6224h-1.8672v-1.0245h1.713v-0.62239h-1.713v-0.93084h1.8672v-0.62239h-2.5777z"/><path id="path44346" d="m143.7 547.59h2.3574v-0.62791h-1.6469v-3.1946h-0.71052z"/><path id="path44348" d="m146.64 547.59h2.5777v-0.6224h-1.8672v-1.0245h1.713v-0.62239h-1.713v-0.93084h1.8672v-0.62239h-2.5777z"/><path id="path44350" d="m151.68 547.64c0.39107 0 0.82068-0.0991 1.1512-0.25887l-0.15973-0.51223c-0.24786 0.0936-0.5563 0.14871-0.82068 0.14871-0.8372 0-1.3604-0.55079-1.3604-1.41 0-0.80967 0.47368-1.2723 1.2778-1.2723 0.30294 0 0.64993 0.0606 0.89779 0.15973l0.19828-0.55079c-0.32496-0.15422-0.6995-0.23684-1.0796-0.23684-1.2062 0-2.0324 0.79864-2.0324 1.9994 0 1.1567 0.78212 1.9333 1.9278 1.9333z"/><path id="path44352" d="m154.3 547.59h0.6995v-3.2001h1.2338v-0.62239h-3.1615v0.62239h1.2283z"/></g><g id="text24753-5-7-5-9-7-5" transform="matrix(0 .9856 -1.0146 0 239.3 633.16)" fill="#767676" stroke-width=".68357" aria-label="START"><path id="path44367" d="m140.73 512.05c0.92419 0 1.482-0.45936 1.482-1.1703 0-1.3726-1.996-0.89685-1.996-1.6624 0-0.28983 0.26249-0.45389 0.73825-0.45389 0.31171 0 0.65623 0.0602 0.92966 0.16406l0.20234-0.5578c-0.32265-0.14218-0.71638-0.22421-1.0937-0.22421-0.90231 0-1.5093 0.46483-1.5093 1.1812 0 1.296 1.9906 0.8695 1.9906 1.6406 0 0.2789-0.24609 0.44842-0.71092 0.44842-0.34452 0-0.7656-0.0766-1.1429-0.23515l-0.20234 0.56874c0.40468 0.18593 0.87498 0.30077 1.3125 0.30077z"/><path id="path44369" d="m143.65 511.99h0.69451v-3.1772h1.225v-0.61795h-3.139v0.61795h1.2195z"/><path id="path44371" d="m145.62 511.99h0.7492l0.31171-0.95153h1.4546l0.30624 0.95153h0.78201l-1.3125-3.7952h-0.90779zm1.2632-1.5804 0.52499-1.6078 0.52498 1.6078z"/><path id="path44373" d="m149.66 511.99h0.70545v-1.4164h0.63985l0.80935 1.4164h0.84763l-0.95153-1.564c0.44295-0.20781 0.71092-0.61795 0.71092-1.1265 0-0.69998-0.50858-1.1046-1.3453-1.1046h-1.4164zm1.3234-3.1827c0.44295 0 0.70545 0.22421 0.70545 0.60154 0 0.35546-0.21875 0.56873-0.61249 0.56873h-0.71091v-1.1703z"/><path id="path44375" d="m154.02 511.99h0.69451v-3.1772h1.225v-0.61795h-3.139v0.61795h1.2195z"/></g></g></svg>
