<?xml version="1.0" encoding="UTF-8"?>
<!-- Generator: Adobe Illustrator 22.0.0, SVG Export Plug-In . SVG Version: 6.00 Build 0)  -->
<svg id="Capa_1" baseProfile="tiny" version="1.1" viewBox="0 0 106.9 165.7" xml:space="preserve" xmlns="http://www.w3.org/2000/svg">

	<path d="m103.9 82.7-5.7-58.3c0-3.9-3-7-6.6-7h-75.6c-3.6 0-6.6 3.2-6.6 7l-6.4 58.3c9.9-18 28.6-31 50.2-31 21.9 0 40.9 12.6 50.7 31z" fill="#2B3138"/>
	<path d="m3.1 82c9.9-18 29-31 50.6-31 21.9 0 40.7 13.3 50.5 31.7 0 0 1.7 17.3 1.7 17.3-4.9-25.1-26.5-44-52.4-44s-47.5 18.9-52.4 44l2-18z" fill="#221A1F"/>
	<ellipse cx="53.5" cy="110.9" rx="53.5" ry="54.9" fill="#2B3138"/>
	
		<g fill="#31383F">
			<path d="m26.1 35.6c1.3 0.9 3 1.4 4.7 1.4s3.4-0.5 4.7-1.4h-9.4z"/>
			<path d="m24.4 34.2h12.7c0.4-0.4 0.7-0.9 1-1.4h-14.7c0.3 0.5 0.6 1 1 1.4z"/>
			<path d="m22.7 31.4h16c0.2-0.5 0.3-0.9 0.4-1.4 0-0.2 0.1-0.5 0.1-0.7h-16.9c0 0.2 0 0.5 0.1 0.7 0.1 0.4 0.2 0.9 0.3 1.4"/>
			<path d="m39.2 27.8c0-0.2 0-0.5-0.1-0.7-0.1-0.5-0.2-1-0.4-1.4h-16c-0.2 0.5-0.3 0.9-0.4 1.4 0 0.2-0.1 0.5-0.1 0.7h17"/>
			<path d="m24.4 22.8h12.7c0.4 0.4 0.7 0.9 1 1.4h-14.7c0.3-0.4 0.6-0.9 1-1.4z"/>
			<path d="m35.5 21.4c-1.3-0.9-3-1.4-4.7-1.4s-3.4 0.5-4.7 1.4h9.4z"/>
		</g>
		
			<polygon points="100.4 46.6 7 46.6 7.1 45.6 52.6 45.6 52.6 17.4 53.6 17.4 53.6 45.6 100.3 45.6" fill="#221A1F"/>
		
		<path d="m56.9 56.2c-0.7 0-1.4 0.5-1.4 1.3l-1.5 26c0 0.7 0.5 1.4 1.3 1.4 0.7 0 1.4-0.5 1.4-1.3l1.4-26.1c0.1-0.6-0.5-1.3-1.2-1.3z" fill="#31383F"/>
	
	
		<path d="m54.8 17.4h-3.1c0.4-1.5 0.9-4.8-0.5-7.8-1.7-4-6.1-6.6-11.2-6.8-0.2 0-0.4-0.2-0.4-0.4v-2.1c0-0.3 0.2-0.5 0.5-0.5 6.2 0.2 11.6 3.5 13.9 8.6 1.7 3.7 1.3 7.1 0.8 9z" fill="#1E1B1D"/>
	

</svg>
