<?xml version="1.0" encoding="UTF-8"?>
<svg id="svg2" width="309.5" height="395" version="1.1" viewBox="0 0 309.5 395" xmlns="http://www.w3.org/2000/svg" xmlns:cc="http://creativecommons.org/ns#" xmlns:dc="http://purl.org/dc/elements/1.1/" xmlns:rdf="http://www.w3.org/1999/02/22-rdf-syntax-ns#" xmlns:xlink="http://www.w3.org/1999/xlink">
 <metadata id="metadata8">
  <rdf:RDF>
   <cc:Work rdf:about="">
    <dc:format>image/svg+xml</dc:format>
    <dc:type rdf:resource="http://purl.org/dc/dcmitype/StillImage"/>
   </cc:Work>
  </rdf:RDF>
 </metadata>
 <defs id="defs6">
  <clipPath id="clipPath5332">
   <path id="path5334" d="m242.8 695.39h336.52v-142.36h-336.52z"/>
  </clipPath>
  <radialGradient id="radialGradient6072" cx="0" cy="0" r="1" gradientTransform="matrix(207.43 -21.51 -19.788 -190.88 415.48 501.29)" gradientUnits="userSpaceOnUse">
   <stop id="stop5342" stop-color="#fff" offset="0"/>
   <stop id="stop5344" offset=".95506"/>
   <stop id="stop5348" offset="1"/>
  </radialGradient>
  <clipPath id="clipPath5368">
   <path id="path5370" d="m481.12 609.93h144.4v-254.9h-144.4z"/>
  </clipPath>
  <radialGradient id="radialGradient6074" cx="0" cy="0" r="1" gradientTransform="matrix(-59.414 -151.8 -183.86 71.965 430.59 518.58)" gradientUnits="userSpaceOnUse">
   <stop id="stop5378" stop-color="#fff" offset="0"/>
   <stop id="stop5380" offset=".95506"/>
   <stop id="stop5384" offset="1"/>
  </radialGradient>
  <linearGradient id="linearGradient6076" x2="1" gradientTransform="matrix(112.95 139.49 139.49 -112.95 242.33 465.08)" gradientUnits="userSpaceOnUse">
   <stop id="stop5414" stop-color="#ff0" offset="0"/>
   <stop id="stop5416" stop-color="#9dff00" offset=".5"/>
   <stop id="stop5418" stop-color="#458c41" offset="1"/>
  </linearGradient>
  <linearGradient id="linearGradient6078" x2="1" gradientTransform="matrix(138.34 -205.1 -205.1 -138.34 228.25 725.86)" gradientUnits="userSpaceOnUse">
   <stop id="stop5436" stop-color="#4a7d62" offset="0"/>
   <stop id="stop5438" offset="1"/>
  </linearGradient>
  <linearGradient id="linearGradient6080" x2="1" gradientTransform="matrix(221.12 149.15 149.15 -221.12 150.16 295.6)" gradientUnits="userSpaceOnUse">
   <stop id="stop5456" stop-color="#ff0" offset="0"/>
   <stop id="stop5458" stop-color="#9dff00" offset=".42134"/>
   <stop id="stop5462" stop-color="#5c5c5c" offset="1"/>
  </linearGradient>
  <linearGradient id="linearGradient6082" x2="1" gradientTransform="matrix(179.04 310.1 310.1 -179.04 150.04 206.61)" gradientUnits="userSpaceOnUse">
   <stop id="stop5480" stop-color="#4a7d62" offset="0"/>
   <stop id="stop5482" stop-color="#182920" offset="1"/>
  </linearGradient>
  <linearGradient id="linearGradient6084" x2="1" gradientTransform="matrix(-123.56 119.32 119.32 123.56 588.99 485.63)" gradientUnits="userSpaceOnUse">
   <stop id="stop5500" stop-color="#ff0" offset="0"/>
   <stop id="stop5502" stop-color="#9dff00" offset=".47752"/>
   <stop id="stop5504" stop-color="#4a4a4a" offset="1"/>
  </linearGradient>
  <linearGradient id="linearGradient6086" x2="1" gradientTransform="matrix(19.705 160.48 160.48 -19.705 528.97 540.92)" gradientUnits="userSpaceOnUse">
   <stop id="stop5522" offset="0"/>
   <stop id="stop5524" stop-color="#45755c" offset=".87079"/>
   <stop id="stop5526" stop-color="#45755c" offset="1"/>
  </linearGradient>
  <linearGradient id="linearGradient6088" x2="1" gradientTransform="matrix(57.405 123.11 123.11 -57.405 544.35 308.62)" gradientUnits="userSpaceOnUse">
   <stop id="stop5544" stop-color="#ff0" offset="0"/>
   <stop id="stop5546" stop-color="#aeff00" offset=".41573"/>
   <stop id="stop5548" stop-color="#575757" offset="1"/>
  </linearGradient>
  <linearGradient id="linearGradient6090" x2="1" gradientTransform="matrix(-55.596 315.3 315.3 55.596 625.09 206.59)" gradientUnits="userSpaceOnUse">
   <stop id="stop5566" stop-color="#4a7d62" offset="0"/>
   <stop id="stop5568" offset=".83147"/>
   <stop id="stop5572" offset="1"/>
  </linearGradient>
  <linearGradient id="linearGradient95942" x1="218.64" x2="216.39" y1="59.493" y2="158.91" gradientTransform="matrix(1.0728 0 0 1.0728 -35.323 -310.3)" gradientUnits="userSpaceOnUse">
   <stop id="stop96640" stop-color="#171717" offset="0"/>
   <stop id="stop96646" stop-color="#454545" offset="1"/>
  </linearGradient>
  <linearGradient id="linearGradient121093" x1="90.581" x2="172.96" y1="182.11" y2="182.11" gradientTransform="matrix(1.0728 0 0 1.0728 -35.323 -310.3)" gradientUnits="userSpaceOnUse">
   <stop id="stop121381" stop-color="#242424" offset="0"/>
   <stop id="stop121383" offset=".95506"/>
  </linearGradient>
  <linearGradient id="linearGradient131935" x1="102.49" x2="102.49" y1="63.894" y2="129.61" gradientTransform="matrix(1.0728 0 0 1.0728 -35.323 -310.3)" gradientUnits="userSpaceOnUse">
   <stop id="stop132385" stop-color="#3e3e3e" offset="0"/>
   <stop id="stop132391" offset="1"/>
  </linearGradient>
  <linearGradient id="linearGradient141574" x1="104.28" x2="104.28" y1="74.677" y2="119.66" gradientTransform="matrix(1.0728 0 0 1.0728 -34.374 -310.3)" gradientUnits="userSpaceOnUse">
   <stop id="stop142054" stop-color="#363636" offset="0"/>
   <stop id="stop142060" stop-color="#1c1c1c" offset="1"/>
  </linearGradient>
  <linearGradient id="linearGradient142800" x1="104.1" x2="104.1" y1="82.271" y2="110.2" gradientTransform="matrix(1.0728 0 0 1.0728 -34.374 -310.3)" gradientUnits="userSpaceOnUse">
   <stop id="stop143058" stop-color="#171717" offset="0"/>
   <stop id="stop143064" stop-color="#3b3b3b" offset="1"/>
  </linearGradient>
  <linearGradient id="linearGradient155878" x1="301.87" x2="301.87" y1="153.79" y2="172.73" gradientTransform="matrix(1.0728 0 0 1.0728 -35.323 -310.3)" gradientUnits="userSpaceOnUse">
   <stop id="stop156302" stop-color="#404040" offset="0"/>
   <stop id="stop156308" stop-color="#242424" offset="1"/>
  </linearGradient>
  <linearGradient id="linearGradient157454" x1="302.05" x2="302.05" y1="169.28" y2="184.03" gradientTransform="matrix(1.0728 0 0 1.0728 -35.323 -310.3)" gradientUnits="userSpaceOnUse">
   <stop id="stop157712" stop-color="#1f1f1f" offset="0"/>
   <stop id="stop157718" stop-color="#3b3b3b" offset="1"/>
  </linearGradient>
  <linearGradient id="linearGradient1235" x1="220.57" x2="220.57" y1="3.5805" y2="283.47" gradientTransform="matrix(0 1.0728 -1.0728 0 310.3 -35.323)" gradientUnits="userSpaceOnUse">
   <stop id="stop1715" stop-color="#242424" offset="0"/>
   <stop id="stop1721" stop-color="#141414" offset="1"/>
  </linearGradient>
 </defs>
 <g id="g2887">
  <path id="path1672-7" d="m301.38 109.39c-0.17089-0.21468-0.32241-0.33363-0.50505-0.48636-0.31782-0.30005-1.6086-0.9961-2.068-1.1628-16.077 26.113-26.084 57.663-26.145 88.935-0.0604 31.272 10.058 63.255 26.145 89.383 0.45943-0.16675 1.7502-0.8628 2.068-1.1628 0.24351-0.20364 0.54443-0.47483 0.44419-0.77523-15.394-25.685-24.502-56.854-24.453-87.397 0.0486-30.543 9.3754-61.165 24.778-86.865 0.0251-0.0751-0.26458-0.4687-0.26458-0.4687z" fill="#171717" stroke-linejoin="round" stroke-width=".44217"/>
  <g id="g94232" transform="matrix(0 1.0728 -1.0728 0 310.3 -35.323)" fill="#121212">
   <rect id="rect16431" x="209.28" y="30.196" width="3.0016" height="6.1888" rx=".59485" ry=".59485"/>
   <rect id="rect16431-6" x="220.73" y="30.196" width="3.0016" height="6.1888" rx=".59485" ry=".59485"/>
   <rect id="rect16431-6-6" transform="matrix(.98792 -.15497 0 1 0 0)" x="235.06" y="65.976" width="3.0383" height="6.1888" rx=".60212" ry=".59485"/>
   <rect id="rect16431-6-6-1" transform="matrix(.98163 -.1908 0 1 0 0)" x="248.41" y="75.286" width="3.0577" height="6.1888" rx=".60598" ry=".59485"/>
   <rect id="rect16431-6-6-1-8" transform="matrix(.97511 -.22172 0 1 0 0)" x="261.79" y="83.288" width="3.0782" height="6.1888" rx=".61003" ry=".59485"/>
   <rect id="rect16431-6-6-1-8-7" transform="matrix(.95572 -.29428 0 1 0 0)" x="279.02" y="103.93" width="3.1406" height="6.1888" rx=".62241" ry=".59485"/>
   <rect id="rect16431-6-6-1-8-7-9" transform="matrix(.92738 -.37411 0 1 0 0)" x="299.83" y="129.46" width="3.2366" height="6.1888" rx=".64143" ry=".59485"/>
   <rect id="rect16431-6-6-1-8-7-9-0" transform="matrix(.89254 -.45097 0 1 0 0)" x="324.21" y="158.03" width="3.3629" height="6.1888" rx=".66647" ry=".59485"/>
   <rect id="rect16431-6-6-9" transform="matrix(-.98792 -.15497 0 1 0 0)" x="-203.41" y="-1.972" width="3.0383" height="6.1888" rx=".60212" ry=".59485"/>
   <rect id="rect16431-6-6-1-7" transform="matrix(-.98163 -.1908 0 1 0 0)" x="-192.87" y="-8.9101" width="3.0577" height="6.1888" rx=".60598" ry=".59485"/>
   <rect id="rect16431-6-6-1-8-3" transform="matrix(-.97511 -.22172 0 1 0 0)" x="-182.45" y="-15.205" width="3.0782" height="6.1888" rx=".61003" ry=".59485"/>
   <rect id="rect16431-6-6-1-8-7-6" transform="matrix(-.95572 -.29428 0 1 0 0)" x="-174.22" y="-29.452" width="3.1406" height="6.1888" rx=".62241" ry=".59485"/>
   <rect id="rect16431-6-6-1-8-7-9-1" transform="matrix(-.92738 -.37411 0 1 0 0)" x="-167.27" y="-45.289" width="3.2366" height="6.1888" rx=".64143" ry=".59485"/>
   <rect id="rect16431-6-6-1-8-7-9-0-2" transform="matrix(-.89254 -.45097 0 1 0 0)" x="-161.12" y="-60.842" width="3.3629" height="6.1888" rx=".66647" ry=".59485"/>
  </g>
  <path id="path1672" d="m306.94 95.595c0.014-0.28105-0.0264-0.56225-0.12781-0.72285-0.83263-1.3183-5.0628-6.521-8.7182-10.761-31.488-30.791-45.697-56.815-89.615-56.831-93.102-5.28e-4 -168.7 75.943-168.7 169.77-1.07e-4 93.826 75.599 169.86 168.7 169.86 43.918-0.016 58.127-26.071 89.615-56.902 3.6554-4.2455 7.8856-9.4557 8.7182-10.776 0.10143-0.1608 0.14185-0.44354 0.12781-0.72494-0.014-0.28141-0.0828-0.56124-0.19485-0.71448-21.249-29.064-33.577-64.155-33.924-100.81 0.34721-36.605 12.674-71.653 33.924-100.68 0.11204-0.15304 0.18081-0.43344 0.19485-0.71448z" fill="url(#linearGradient1235)" stroke="#232323" stroke-linejoin="round" stroke-width=".44217"/>
  <path id="path2409" d="m309.35 316.08c0.0833-0.12499 0.12353-0.20711 0.13974-0.46296 0.0213-0.33634-0.10146-0.44935-0.13425-0.50065-27.201-21.003-46.545-50.081-54.42-83.532-0.0694-0.1595-0.16614-0.27382-0.42961-0.36146-0.26309-0.0875-0.45705-0.0831-0.61381-0.0744-12.031 20.889-34.299 33.765-58.404 33.773-20.746-0.0615-40.309-9.6705-53.038-26.052-30.48 15.297-46.4 30.026-69.247 45.502-3.3289 2.4796-7.0031 4.4385-11.235 7.9723-5.9807 4.9948-39.686 32.781-49.986 41.86-8.3729 6.8816-10.271 8.6432-10.985 9.1582-0.16144 0.11636-0.43581 0.396-0.43581 0.396s-0.28207 0.35782-0.32477 0.67256c-0.2803 2.0679-0.24285 3.6792-0.18857 8.5506 0.05235 4.692 0.41179 9.3163 1.8731 13.9 1.5483 4.2214 2.4042 7.2806 7.1154 12.804 3.3805 3.681 9.2774 9.1145 23.075 11.995 13.781 2.5012 36.099 3.7446 65.111 3.1344 29.012-0.61021 57.635 0.13989 105.71-10.866 28.797-6.5926 52.263-19.384 70.209-32.325 15.184-10.95 33.523-31.546 36.212-35.543z" fill="#1f1f1f" stroke-width="1.0728px"/>
  <path id="path2409-1" d="m309.35 78.917c0.0833 0.12499 0.12353 0.2071 0.13974 0.46296 0.0213 0.33634-0.10146 0.44936-0.13425 0.50065-27.201 21.003-46.545 50.081-54.42 83.532-0.0694 0.15949-0.16614 0.27382-0.42961 0.36146-0.26309 0.0875-0.45705 0.0831-0.61381 0.0743-12.031-20.889-34.299-33.765-58.404-33.773-20.746 0.0615-40.309 9.6705-53.038 26.052-30.48-15.298-46.4-30.026-69.247-45.502-3.3289-2.4796-7.0031-4.4385-11.235-7.9723-5.9807-4.9947-39.686-32.78-49.986-41.86-8.3729-6.8816-10.271-8.6432-10.985-9.1582-0.16144-0.11636-0.43581-0.396-0.43581-0.396s-0.28207-0.35782-0.32477-0.67256c-0.2803-2.0679-0.24285-3.6792-0.18857-8.5506 0.05235-4.692 0.41179-9.3163 1.8731-13.9 1.5483-4.2214 2.4042-7.2806 7.1154-12.804 3.3805-3.681 9.2774-9.1145 23.075-11.995 13.781-2.5012 36.099-3.7446 65.111-3.1344 29.012 0.6102 57.635-0.1399 105.71 10.866 28.797 6.5926 52.263 19.384 70.209 32.325 15.184 10.95 33.523 31.546 36.212 35.543z" fill="#1f1f1f" stroke-width="1.0728px"/>
  <circle id="path19721-3" transform="rotate(90)" cx="87.866" cy="-206.87" r="33.724" fill="#0d0d0d"/>
  <circle id="path19721-1" transform="rotate(90)" cx="74.655" cy="-206.87" r="35.375" fill="url(#linearGradient131935)"/>
  <path id="path2409-1-9" d="m254.71 163.65c-12.107-21.336-34.707-34.683-59.163-34.75-21.125 0.0849-41.02 9.9871-53.879 26.817 0.27141 0.1373 0.50147 0.27327 0.77522 0.41067 12.73-16.382 32.292-25.991 53.038-26.052 23.97 8e-3 46.313 13.116 58.39 33.797 0 0 0.26043-0.0229 0.4554-0.064 0.23834-0.0503 0.38901-0.14205 0.38901-0.14205z" stroke-width="1.0728px"/>
  <path id="path2409-1-9-2" d="m254.71 231.34c-12.107 21.336-34.707 34.683-59.163 34.75-21.125-0.0848-41.02-9.9871-53.879-26.817 0.27141-0.13731 0.50147-0.27328 0.77522-0.41067 12.73 16.382 32.292 25.99 53.038 26.052 23.97-8e-3 46.271-13.105 58.349-33.787 0 0 0.30162 0.0128 0.49659 0.0539 0.23834 0.0503 0.38901 0.14206 0.38901 0.14206z" fill="#010101" stroke-width="1.0728px"/>
  <circle id="path8963-3" transform="rotate(90)" cx="197.43" cy="-195.49" r="55.403" fill="url(#linearGradient95942)"/>
  <circle id="path8963-3-5" transform="rotate(90)" cx="197.43" cy="-195.49" r="50.08"/>
  <rect id="rect16858" transform="rotate(90)" x="191.73" y="-277.84" width=".10989" height=".036631" rx=".80118" ry=".036631" fill="#4800d7" opacity=".53646"/>
  <ellipse id="path18734" transform="rotate(90)" cx="106.03" cy="-114.94" rx="44.184" ry="42.773" fill="url(#linearGradient121093)"/>
  <circle id="path18884" transform="rotate(90)" cx="104.96" cy="-121.13" r="43.621" fill="#262626"/>
  <circle id="path19480" transform="rotate(90)" cx="106.27" cy="-121.57" r="35.213"/>
  <circle id="path19480-4" transform="rotate(90)" cx="106.27" cy="-121.57" r="31.761" fill="#1f1f1f"/>
  <circle id="path19480-4-4" transform="rotate(90)" cx="106.27" cy="-121.57" r="27.347" fill="#2b2b2b"/>
  <circle id="path19721" transform="rotate(90)" cx="77.756" cy="-206.87" r="35.375" fill="#262626"/>
  <circle id="path19721-6" transform="rotate(90)" cx="77.756" cy="-206.87" r="27.23"/>
  <circle id="path19945" transform="rotate(90)" cx="77.756" cy="-206.87" r="23.304" fill="url(#linearGradient141574)"/>
  <circle id="path19945-9" transform="rotate(90)" cx="77.756" cy="-206.87" r="14.722" fill="url(#linearGradient142800)"/>
  <circle id="path20212" transform="rotate(90)" cx="288.47" cy="-121.38" r="36.26" fill="#171717"/>
  <ellipse id="path20212-9" transform="rotate(90)" cx="286.71" cy="-116.34" rx="36.639" ry="36.26" fill="#131313"/>
  <ellipse id="path20212-7" transform="rotate(90)" cx="290.58" cy="-120.01" rx="35.613" ry="36.748" fill="#131313"/>
  <circle id="path20449-9" transform="rotate(90)" cx="288.61" cy="-120.94" r="34.661" fill="#262626"/>
  <circle id="path20449" transform="rotate(90)" cx="288.61" cy="-120.94" r="27.104"/>
  <circle id="path20449-8" transform="rotate(90)" cx="288.61" cy="-120.94" r="24.139" fill="url(#linearGradient155878)"/>
  <circle id="path20449-8-5" transform="rotate(90)" cx="288.61" cy="-120.94" r="7.7015" fill="url(#linearGradient157454)"/>
  <ellipse id="path20809" transform="rotate(90)" cx="171.69" cy="-89.704" rx="14.799" ry="10.534" fill="#000101"/>
  <ellipse id="path20809-5" transform="rotate(90)" cx="171.65" cy="-89.717" rx="12.819" ry="9.1246" fill="#292929"/>
  <ellipse id="path20809-0" transform="rotate(90)" cx="222.04" cy="-89.717" rx="14.799" ry="10.534" fill="#000001"/>
  <ellipse id="path20809-5-3" transform="rotate(90)" cx="222.04" cy="-89.717" rx="12.819" ry="9.1246" fill="#292929"/>
  <ellipse id="path20809-0-7" transform="rotate(154.9)" cx="-75.064" cy="-407.98" rx="13.361" ry="9.5103" fill="#000001"/>
  <ellipse id="path20809-5-3-6" transform="rotate(154.9)" cx="-75.064" cy="-407.98" rx="11.574" ry="8.2382" fill="#3b3b3b"/>
  <ellipse id="path20809-0-7-5" transform="rotate(154.9)" cx="-103.75" cy="-385.92" rx="13.361" ry="9.5103"/>
  <ellipse id="path20809-5-3-6-6" transform="rotate(154.9)" cx="-103.75" cy="-385.92" rx="11.574" ry="8.2382" fill="#fafafa"/>
  <ellipse id="path20809-0-6" transform="rotate(158.29)" cx="-100.8" cy="-353.68" rx="16.642" ry="12.978"/>
  <ellipse id="path20809-0-6-6" transform="rotate(158.29)" cx="-100.8" cy="-353.68" rx="15.088" ry="11.766" fill="#b97e02"/>
  <ellipse id="path20809-0-6-6-5" transform="rotate(158.29)" cx="-100.8" cy="-353.68" rx="12.548" ry="9.7853" fill="#e79e02"/>
  <ellipse id="path20809-0-6-3" transform="rotate(158.29)" cx="-74.368" cy="-376.74" rx="16.642" ry="12.978"/>
  <ellipse id="path20809-0-6-3-0" transform="rotate(158.29)" cx="-67.881" cy="-339.51" rx="16.642" ry="12.978"/>
  <ellipse id="path20809-0-6-3-0-1" transform="rotate(158.29)" cx="-41.154" cy="-363.2" rx="16.642" ry="12.978"/>
  <g id="g5834" transform="matrix(0 .073961 -.073961 0 237.16 166.08)">
   <g id="g5328" transform="matrix(1.25 0 0 -1.25 -97.211 943.55)">
    <g id="g5350">
     <g id="g5352" clip-path="url(#clipPath5332)">
      <g id="g5354">
       <g id="g5356">
        <g id="g5358">
         <g id="g5360">
          <path id="path5362" d="m417.09 553.03-174.29 83.727s175.19 135.82 336.52-5.986z" fill="url(#radialGradient6072)"/>
         </g>
        </g>
       </g>
      </g>
     </g>
    </g>
   </g>
   <g id="g5364" transform="matrix(1.25 0 0 -1.25 -97.211 943.55)">
    <g id="g5386">
     <g id="g5388" clip-path="url(#clipPath5368)">
      <g id="g5390">
       <g id="g5392">
        <g id="g5394">
         <g id="g5396">
          <path id="path5398" d="m481.12 501.93 114.42 108s101.09-174.09-67.989-254.9z" fill="url(#radialGradient6074)"/>
         </g>
        </g>
       </g>
      </g>
     </g>
    </g>
   </g>
   <g id="g5400" transform="matrix(1.25 0 0 -1.25 -97.211 943.55)">
    <g id="g5402">
     <g id="g5408">
      <g id="g5410">
       <path id="path5420" d="m344.64 507.72v-125.5c24.426 20.367 48.894 41.889 72.242 64.093v108.36s-131.23 43.744-214.07 95.919c34.127-38.852 90.552-100.24 141.83-142.88" fill="url(#linearGradient6076)"/>
      </g>
     </g>
    </g>
   </g>
   <g id="g5422" transform="matrix(1.25 0 0 -1.25 -97.211 943.55)">
    <g id="g5424">
     <g id="g5430">
      <g id="g5432">
       <path id="path5440" d="m202.81 650.6c82.848-52.175 214.07-95.919 214.07-95.919v14.449s-170.67 56.89-245.62 118.3c0 0 12.187-14.789 31.546-36.825" fill="url(#linearGradient6078)"/>
      </g>
     </g>
    </g>
   </g>
   <g id="g5442" transform="matrix(1.25 0 0 -1.25 -97.211 943.55)">
    <g id="g5444">
     <g id="g5450">
      <g id="g5452">
       <path id="path5464" d="m176.8 256.1c42.305 28.866 104.91 73.64 167.84 126.12v102.02s-85.697-130.06-167.84-228.14" fill="url(#linearGradient6080)"/>
      </g>
     </g>
    </g>
   </g>
   <g id="g5466" transform="matrix(1.25 0 0 -1.25 -97.211 943.55)">
    <g id="g5468">
     <g id="g5474">
      <g id="g5476">
       <path id="path5484" d="m124.31 221.47s20.413 12.745 52.494 34.636c82.143 98.077 167.84 228.14 167.84 228.14v23.477s-127.32-193.24-220.33-286.26" fill="url(#linearGradient6082)"/>
      </g>
     </g>
    </g>
   </g>
   <g id="g5486" transform="matrix(1.25 0 0 -1.25 -97.211 943.55)">
    <g id="g5488">
     <g id="g5494">
      <g id="g5496">
       <path id="path5506" d="m416.89 554.68v-108.36c23.349-22.204 47.817-43.726 72.243-64.093v125.5c51.28 42.639 107.71 104.02 141.84 142.88-82.853-52.175-214.08-95.919-214.08-95.919" fill="url(#linearGradient6084)"/>
      </g>
     </g>
    </g>
   </g>
   <g id="g5508" transform="matrix(1.25 0 0 -1.25 -97.211 943.55)">
    <g id="g5510">
     <g id="g5516">
      <g id="g5518">
       <path id="path5528" d="m416.89 569.13v-14.449s131.23 43.744 214.08 95.919c19.355 22.036 31.542 36.825 31.542 36.825-74.95-61.405-245.62-118.3-245.62-118.3" fill="url(#linearGradient6086)"/>
      </g>
     </g>
    </g>
   </g>
   <g id="g5530" transform="matrix(1.25 0 0 -1.25 -97.211 943.55)">
    <g id="g5532">
     <g id="g5538">
      <g id="g5540">
       <path id="path5550" d="m489.13 382.23c62.933-52.482 125.54-97.256 167.84-126.12-82.142 98.077-167.84 228.14-167.84 228.14z" fill="url(#linearGradient6088)"/>
      </g>
     </g>
    </g>
   </g>
   <g id="g5552" transform="matrix(1.25 0 0 -1.25 -97.211 943.55)">
    <g id="g5554">
     <g id="g5560">
      <g id="g5562">
       <path id="path5574" d="m489.13 484.25s85.703-130.06 167.84-228.14c32.077-21.891 52.491-34.636 52.491-34.636-93.011 93.013-220.34 286.26-220.34 286.26z" fill="url(#linearGradient6090)"/>
      </g>
     </g>
    </g>
   </g>
  </g>
  <g id="g1118" transform="matrix(0 .88124 -.88124 0 419.57 149.17)" fill="#9abf5e" stroke-width=".27368px">
   <path id="path186" d="m90.947 270.87-6.3883 5.1688-6.3567-5.1688h-3.5953l8.1862 6.6138-8.1862 6.6132h3.5953l6.3567-5.2009 6.3883 5.2009h3.5632l-8.1541-6.6132 8.1541-6.6138zm-17.4 6.6138c0-2.9537-0.77015-5.1361-2.2467-6.6138h-13.066c-1.5414 1.4776-2.3115 3.6601-2.3115 6.6138 0 2.9531 0.77015 5.1361 2.3115 6.6138h13.066c1.4766-1.4782 2.2467-3.6928 2.2467-6.6138zm-2.183 0c0 0.99509-0.22387 2.0218-0.64215 3.0822l-0.61002 1.3802h-10.723l-0.61002-1.3802c-0.44934-1.0599-0.64215-2.0866-0.64215-3.0822 0-1.573 0.41775-3.0501 1.2522-4.4303h10.723c0.83496 1.3796 1.2522 2.8573 1.2522 4.4303zm-18.779 0.54574v-1.0915l0.96296-0.51415c-0.22494-2.4717-0.96296-4.3333-2.2151-5.5539h-13.066c-1.2522 1.1884-2.0223 3.0501-2.2151 5.5218h-2.1182v2.1835h2.1182c0.19281 2.4711 0.96296 4.3017 2.2151 5.5223h13.066c1.2522-1.2527 1.9897-3.0822 2.2151-5.5223zm-2.4401-4.9765c0.60369 1.0275 1.0068 2.1603 1.1879 3.3382h-13.066c0.19281-1.2516 0.57788-2.3431 1.1879-3.3382zm1.1879 5.5223c-0.18078 1.1883-0.58377 2.3318-1.1879 3.3709h-10.691c-0.61002-0.99509-0.99509-2.1187-1.1879-3.3709z"/>
   <path id="path188" d="m26.742 277.48 8.1535-6.6138h-3.5953l-6.3562 5.1688-6.3883-5.1688h-3.5316l8.122 6.6138-8.122 6.6132h3.5316l6.3883-5.2009 6.3562 5.2009h3.5953z"/>
  </g>
  <rect id="rect24188" transform="rotate(90)" x="60.782" y="-208" width="3.6234" height="2.1553" rx=".83152" ry="1.0777" fill="#2f2f2f"/>
  <rect id="rect24188-3" transform="rotate(90)" x="91.106" y="-208" width="3.6234" height="2.1553" rx=".83152" ry="1.0777" fill="#2f2f2f"/>
  <g id="g175503" transform="matrix(0 1.0728 -1.0728 0 310.3 -35.323)" fill="#141414">
   <rect id="rect24188-3-2" x="285.72" y="175.51" width="10.566" height="2.0091" rx=".97086" ry=".89903"/>
   <rect id="rect24188-3-2-5" x="307.64" y="175.51" width="10.566" height="2.0091" rx=".97086" ry=".89903"/>
   <rect id="rect24188-3-2-4" transform="rotate(90)" x="160.27" y="-302.97" width="10.566" height="2.0091" rx=".97086" ry=".89903"/>
   <rect id="rect24188-3-2-5-7" transform="rotate(90)" x="182.19" y="-302.97" width="10.566" height="2.0091" rx=".97086" ry=".89903"/>
  </g>
  <rect id="rect24188-7" transform="scale(-1)" x="-223.9" y="-78.834" width="3.6234" height="2.1553" rx=".83152" ry="1.0777" fill="#2f2f2f"/>
  <rect id="rect24188-3-4" transform="scale(-1)" x="-193.57" y="-78.834" width="3.6234" height="2.1553" rx=".83152" ry="1.0777" fill="#2f2f2f"/>
  <rect id="rect24234" transform="rotate(90)" x="65.678" y="-206.97" width=".033524" height=".33524" rx="1.127" ry=".33524" fill="#00d72b" opacity=".25208"/>
  <path id="rect26407-3" d="m94.384 165.92c0-0.40156-0.32416-0.72495-0.72705-0.72495h-5.5628c-0.40288 0-0.72704 0.32339-0.72704 0.72495v2.3613h1.3766v-1.0204c0-0.24393 0.19735-0.44 0.44209-0.44h3.3796c0.24474 0 0.44209 0.19607 0.44209 0.44v4.1464c0 0.24394-0.19735 0.44209-0.44209 0.44209h-1.3535v1.6238h2.4451c0.40288 0 0.72705-0.32338 0.72705-0.72495z" fill="#616161"/>
  <rect id="rect27550" transform="rotate(90)" x="177.88" y="-89.801" width=".016913" height=".033827" rx=".56286" ry=".033827" fill="#0084d7" opacity=".22662"/>
  <rect id="rect28817" transform="rotate(90)" x="216.79" y="-93.411" width="10.762" height="1.7747" rx=".77885" ry=".77885" fill="#616161"/>
  <rect id="rect28817-0" transform="rotate(90)" x="216.79" y="-86.387" width="10.762" height="1.7747" rx=".77885" ry=".77885" fill="#616161"/>
  <rect id="rect28817-0-7" transform="rotate(90)" x="216.79" y="-89.899" width="10.762" height="1.7747" rx=".77885" ry=".77885" fill="#616161"/>
  <rect id="rect28921" transform="rotate(90)" x="227.6" y="-92.681" width=".011852" height=".13038" rx=".58754" ry=".13038" fill="#0f00d7" opacity=".38827"/>
  <path id="rect26407" d="m90.466 170.26c0-0.40156-0.32415-0.72495-0.72704-0.72495h-5.5628c-0.40288 0-0.72704 0.32339-0.72704 0.72495v6.8283c0 0.40157 0.32415 0.72494 0.72704 0.72494h5.5628c0.40288 0 0.72704-0.32337 0.72704-0.72494zm-1.3766 1.3409v4.1464c0 0.24394-0.19735 0.44209-0.44209 0.44209h-3.3796c-0.24474 0-0.44209-0.19815-0.44209-0.44209v-4.1464c0-0.24393 0.19735-0.43999 0.44209-0.43999h3.3796c0.24474 0 0.44209 0.19606 0.44209 0.43999z" fill="#616161"/>
  <path id="button_y-3-8-6-1" d="m230.87 287.5-8.3395 1.9596-5.4805-1.024v3.5409l5.5762 1.0418 8.2438 5.0735v-3.7252c-1.4871-0.80996-2.914-1.595-4.2815-2.3553l4.2815-0.76694z" fill="#43361b" stroke-width=".50354"/>
  <path id="button_y-3-8-6" d="m230.87 287.06-8.0685 1.8722-5.3024-0.97826v3.3828l5.395 0.99534 7.9759 4.8469v-3.5588c-1.4388-0.7738-2.8193-1.5238-4.1423-2.2502l4.1423-0.73269z" fill="#fec648" stroke-width=".4841"/>
  <ellipse id="path20809-0-6-6-27" transform="rotate(158.29)" cx="-74.368" cy="-376.74" rx="15.088" ry="11.766" fill="#a0070c"/>
  <ellipse id="path20809-0-6-6-5-2" transform="rotate(158.29)" cx="-74.368" cy="-376.74" rx="12.548" ry="9.7853" fill="#d30910"/>
  <path id="button_b-5-8-9" d="m215.66 320.37-13.995-1.8972v4.8514c0.014 1.3532 0.38579 2.4778 1.1136 3.3762 0.73382 0.90615 1.7428 1.4472 3.0317 1.6219 0.82947 0.11246 1.5061 0.0289 2.0295-0.24495 0.52967-0.26602 0.92763-0.74726 1.189-1.4495 0.1849 0.5559 0.4831 1.0015 0.89801 1.3404 0.58042 0.49238 1.2766 0.79403 2.087 0.90389 1.2698 0.17216 2.1963-0.0857 2.7767-0.77238 0.58042-0.68664 0.86924-1.8715 0.86924-3.5537zm-2.5935 3.091v0.71409c0 0.4275-0.10984 0.72347-0.32671 0.88719-0.21688 0.17045-0.57277 0.22119-1.0704 0.15372-0.49144-0.0666-0.8611-0.20063-1.11-0.40663-0.2426-0.20518-0.36285-0.51177-0.36285-0.91857v-0.81894zm-5.3882-0.73044v0.90041c0 0.85493-0.53802 1.2078-1.6164 1.0616-1.1806-0.16005-1.7709-0.65083-1.7709-1.4782v-0.94311z" fill="#56241a" stroke-width=".50939"/>
  <path id="button_b-5-8" d="m215.66 319.84-13.343-1.8314v4.683c0.0133 1.3062 0.36782 2.3918 1.0617 3.259 0.69966 0.87469 1.6616 1.397 2.8906 1.5656 0.79085 0.10854 1.436 0.0279 1.935-0.23646 0.50502-0.25679 0.88444-0.72133 1.1336-1.3992 0.17629 0.5366 0.4606 0.96671 0.85619 1.2939 0.5534 0.47528 1.2172 0.76647 1.9898 0.87252 1.2107 0.16617 2.094-0.0828 2.6474-0.74557 0.55339-0.6628 0.82876-1.8065 0.82876-3.4304zm-2.4727 2.9837v0.6893c0 0.41266-0.10472 0.69836-0.3115 0.8564-0.20677 0.16453-0.54609 0.21351-1.0206 0.14839-0.46855-0.0644-0.821-0.19368-1.0583-0.39253-0.2313-0.19806-0.34595-0.494-0.34595-0.88668v-0.79052zm-5.1373-0.70509v0.86916c0 0.82525-0.51296 1.1659-1.5412 1.0248-1.1256-0.15449-1.6885-0.62825-1.6885-1.4268v-0.91038z" fill="#f57860" stroke-width=".48868"/>
  <ellipse id="path20809-0-6-6-2" transform="rotate(158.29)" cx="-67.845" cy="-339.5" rx="15.088" ry="11.766" fill="#00499f"/>
  <ellipse id="path20809-0-6-6-5-6" transform="rotate(158.29)" cx="-67.845" cy="-339.5" rx="12.548" ry="9.7853" fill="#005ece"/>
  <path id="path4758-0-4-2-3-8-2" d="m195.5 287.1-6.3369 2.4312-6.8445-4.0647v3.6191l3.7622 1.9406-3.7622 1.2805v3.6116l6.7463-2.6282 6.4351 3.7737v-3.6416l-3.3529-1.6571 3.3529-1.1435z" fill="#1e3960" style="paint-order:stroke fill markers"/>
  <path id="path4758-0-4-2-3-8" d="m195.5 286.46-5.9462 2.305-6.4225-3.8538v3.4313l3.5303 1.84-3.5303 1.214v3.4242l6.3304-2.4918 6.0383 3.5779v-3.4527l-3.1462-1.5711 3.1462-1.0842z" fill="#6395dc" style="paint-order:stroke fill markers"/>
  <ellipse id="path20809-0-6-6-1" transform="rotate(158.29)" cx="-41.154" cy="-363.2" rx="15.088" ry="11.766" fill="#4f7704"/>
  <ellipse id="path20809-0-6-6-5-0" transform="rotate(158.29)" cx="-41.154" cy="-363.2" rx="12.548" ry="9.7853" fill="#6ba106"/>
  <path id="button_a-6-4-0" d="m180.84 322.17-14.129-5.5643v3.7181l3.4455 1.2781v3.1256l-3.4455 0.43974v3.7301l14.129-2.1384zm-4.3123 1.7778-3.7056 0.4678v-1.8213c1.9761 0.72781 3.2114 1.1804 3.7056 1.3535z" fill="#485228" stroke-width=".51702"/>
  <path id="button_a-6-4" d="m180.87 321.37-13.383-5.1723v3.4562l3.2635 1.1881v2.9054l-3.2635 0.40877v3.4673l13.383-1.9878zm-4.0846 1.6526-3.5098 0.43485v-1.693c1.8717 0.67653 3.0418 1.0972 3.5098 1.2581z" fill="#aac93f" stroke-width=".48513"/>
  <ellipse id="path20809-5-3-6-6-1" transform="rotate(154.9)" cx="-103.48" cy="-386.51" rx="10.629" ry="7.5655" fill="#d0d0d0"/>
  <ellipse id="path20809-5-3-6-6-1-4" transform="rotate(154.9)" cx="-74.844" cy="-408.69" rx="10.629" ry="7.5655" fill="#2a2a2a"/>
 </g>
</svg>
